<?xml version="1.0" encoding="utf-8"?>
<!-- Generator: Adobe Illustrator 16.0.3, SVG Export Plug-In . SVG Version: 6.00 Build 0)  -->
<!DOCTYPE svg PUBLIC "-//W3C//DTD SVG 1.1//EN" "http://www.w3.org/Graphics/SVG/1.1/DTD/svg11.dtd">
<svg version="1.1" id="圖層_1" xmlns="http://www.w3.org/2000/svg" xmlns:xlink="http://www.w3.org/1999/xlink" x="0px" y="0px"
	 width="200px" height="150px" viewBox="0 0 200 150" enable-background="new 0 0 200 150" xml:space="preserve">
<g>
	<defs>
		<rect id="SVGID_1_" width="200" height="150"/>
	</defs>
	<clipPath id="SVGID_2_">
		<use xlink:href="#SVGID_1_"  overflow="visible"/>
	</clipPath>
	<path clip-path="url(#SVGID_2_)" fill="#FFFFFF" d="M177.865,26.501H71.899c-6.675,0-12.135-5.46-12.135-12.134
		c0-6.674,5.46-12.135,12.135-12.135h105.966C184.54,2.232,190,7.693,190,14.368C190,21.042,184.54,26.501,177.865,26.501"/>
</g>
<g>
	<defs>
		<path id="SVGID_3_" d="M116.966,29.502c-23.593,0-42.899,19.104-42.899,42.455v14.424c0,10.551-11.999,16.771-20.747,10.742
			c-11.861-8.18-13.032-19.534-15.218-34.27l-5.036,4.687l-5.6-6.141v34.507c0,29.066,24.032,52.847,53.401,52.847h22.292h46.05
			h5.393c23.596,0,42.898-19.104,42.898-42.455V71.957c0-23.351-19.303-42.455-42.898-42.455H116.966z"/>
	</defs>
	<clipPath id="SVGID_4_">
		<use xlink:href="#SVGID_3_"  overflow="visible"/>
	</clipPath>
	
		<linearGradient id="SVGID_5_" gradientUnits="userSpaceOnUse" x1="0" y1="150" x2="1" y2="150" gradientTransform="matrix(0 -47.6243 -47.6243 0 7256.1079 136)">
		<stop  offset="0" style="stop-color:#0C6BB0"/>
		<stop  offset="1" style="stop-color:#05397C"/>
	</linearGradient>
	<rect x="27.466" y="29.502" clip-path="url(#SVGID_4_)" fill="url(#SVGID_5_)" width="170.034" height="119.251"/>
</g>
<g>
	<defs>
		<rect id="SVGID_6_" width="200" height="150"/>
	</defs>
	<clipPath id="SVGID_7_">
		<use xlink:href="#SVGID_6_"  overflow="visible"/>
	</clipPath>
	<path clip-path="url(#SVGID_7_)" fill="#C3DADF" d="M88.157,136.665c11.339-0.778,18.168-8.212,22.533-15.316
		c2.594-4.222,8.276-5.201,12.229-2.213c0.119,0.091,0.241,0.18,0.364,0.269c5.575,4.006,13.338,3.314,20.139,2.276
		c11.771-1.793,22.828-6.588,34.26-9.897c6.391-1.852,13.126-3.222,19.765-3.332c-1.142,22.359-19.979,40.302-42.845,40.302h-5.393
		h-46.05H80.867c-12.355,0-23.754-4.219-32.828-11.26C59.004,137.604,75.136,137.561,88.157,136.665"/>
	<path clip-path="url(#SVGID_7_)" fill-rule="evenodd" clip-rule="evenodd" fill="#05397C" d="M38.945,55.908
		c6.435-7.189,17.548-7.805,24.737-1.371c0.323,0.291,0.631,0.59,0.927,0.896l-9.167,10.243c-0.713-1.275-2.108-2.107-3.663-2.019
		c-2.166,0.117-3.836,1.985-3.715,4.151c0.085,1.554,1.066,2.849,2.413,3.416l-9.169,10.245c-0.338-0.262-0.669-0.535-0.993-0.825
		C33.127,74.208,32.512,63.098,38.945,55.908 M27,44.836c6.434-7.19,5.818-18.302-1.37-24.736c-0.326-0.29-0.657-0.564-0.994-0.825
		l-9.168,10.245c1.346,0.566,2.327,1.86,2.411,3.415c0.122,2.167-1.548,4.034-3.717,4.152c-1.552,0.088-2.948-0.745-3.66-2.019
		L1.334,45.313c0.297,0.306,0.606,0.605,0.928,0.895C9.452,52.642,20.564,52.025,27,44.836 M38.485,44
		c-7.19-6.436-7.805-17.546-1.37-24.736c0.291-0.325,0.588-0.634,0.896-0.93l10.243,9.168c-1.273,0.714-2.106,2.11-2.019,3.663
		c0.119,2.167,1.985,3.838,4.153,3.715c1.551-0.083,2.848-1.064,3.416-2.41l10.243,9.165c-0.26,0.339-0.533,0.672-0.823,0.994
		C56.788,49.819,45.675,50.436,38.485,44 M27.731,56.229c-7.19-6.436-18.302-5.82-24.735,1.371
		c-0.291,0.323-0.564,0.653-0.825,0.991l10.244,9.169c0.566-1.348,1.863-2.329,3.416-2.411c2.167-0.124,4.035,1.547,4.152,3.715
		c0.088,1.553-0.745,2.95-2.02,3.663l10.243,9.166c0.307-0.296,0.606-0.605,0.896-0.927C35.537,73.774,34.921,62.664,27.731,56.229"
		/>
	<path clip-path="url(#SVGID_7_)" fill="#557EAA" d="M188.011,69.979c0,10.537-7.3,19.079-16.306,19.079
		c-9.007,0-16.307-8.542-16.307-19.079s7.3-16.639,16.307-16.639C180.711,53.339,188.011,59.441,188.011,69.979"/>
	<path clip-path="url(#SVGID_7_)" fill="#0D2E4B" d="M183.019,69.424c0,6.249-5.065,11.314-11.313,11.314
		c-6.249,0-11.315-5.065-11.315-11.314c0-6.248,5.066-11.314,11.315-11.314C177.953,58.11,183.019,63.176,183.019,69.424"/>
	<path clip-path="url(#SVGID_7_)" fill="#FFFFFF" d="M181.511,63.545c0,2.083-1.688,3.771-3.771,3.771
		c-2.084,0-3.772-1.688-3.772-3.771s1.688-3.771,3.772-3.771C179.822,59.774,181.511,61.462,181.511,63.545"/>
	<path clip-path="url(#SVGID_7_)" fill="#557EAA" d="M116.135,69.979c0,10.537-7.3,19.079-16.306,19.079
		c-9.006,0-16.306-8.542-16.306-19.079s7.3-16.639,16.306-16.639C108.835,53.339,116.135,59.441,116.135,69.979"/>
	<path clip-path="url(#SVGID_7_)" fill="#0D2E4B" d="M111.143,69.424c0,6.249-5.065,11.314-11.314,11.314
		c-6.248,0-11.314-5.065-11.314-11.314c0-6.248,5.066-11.314,11.314-11.314C106.077,58.11,111.143,63.176,111.143,69.424"/>
	<path clip-path="url(#SVGID_7_)" fill="#FFFFFF" d="M106.928,63.545c0,2.083-1.688,3.771-3.771,3.771s-3.771-1.688-3.771-3.771
		s1.688-3.771,3.771-3.771S106.928,61.462,106.928,63.545"/>
	<path clip-path="url(#SVGID_7_)" fill="#557EAA" d="M140.806,77.231c0,3.337-2.705,6.043-6.043,6.043s-6.044-2.706-6.044-6.043
		c0-3.339,2.706-6.044,6.044-6.044S140.806,73.893,140.806,77.231"/>
</g>
<g>
	<path fill="#05397C" d="M92.083,21.285v-10.86h-3.879V8.213h10.388v2.211h-3.87v10.86H92.083z"/>
	<path fill="#05397C" d="M98.987,17.798v-2.505h4.922v2.505H98.987z"/>
	<path fill="#05397C" d="M105.381,8.213h5.225c1.034,0,1.806,0.043,2.313,0.129c0.509,0.086,0.964,0.266,1.364,0.54
		c0.401,0.273,0.736,0.637,1.004,1.092c0.268,0.455,0.4,0.964,0.4,1.529c0,0.612-0.164,1.174-0.494,1.685s-0.777,0.895-1.342,1.15
		c0.796,0.231,1.408,0.627,1.836,1.186c0.429,0.559,0.643,1.216,0.643,1.971c0,0.595-0.139,1.172-0.415,1.734
		c-0.276,0.562-0.653,1.011-1.132,1.346c-0.479,0.336-1.068,0.542-1.771,0.62c-0.439,0.048-1.501,0.078-3.183,0.089h-4.449V8.213z
		 M108.02,10.389v3.022h1.73c1.028,0,1.667-0.015,1.917-0.044c0.451-0.053,0.807-0.209,1.065-0.468
		c0.259-0.258,0.388-0.599,0.388-1.021c0-0.404-0.111-0.733-0.334-0.985c-0.224-0.253-0.555-0.406-0.995-0.459
		c-0.261-0.03-1.013-0.044-2.256-0.044H108.02z M108.02,15.587v3.496h2.443c0.951,0,1.555-0.027,1.81-0.081
		c0.393-0.071,0.712-0.245,0.959-0.521s0.37-0.646,0.37-1.11c0-0.392-0.095-0.725-0.285-0.999s-0.466-0.473-0.825-0.597
		c-0.359-0.125-1.14-0.188-2.341-0.188H108.02z"/>
	<path fill="#05397C" d="M117.962,16.416c0-0.832,0.205-1.637,0.615-2.416s0.991-1.374,1.743-1.784s1.592-0.615,2.519-0.615
		c1.433,0,2.606,0.465,3.522,1.396c0.915,0.931,1.373,2.106,1.373,3.527c0,1.433-0.463,2.62-1.387,3.562
		c-0.925,0.942-2.088,1.413-3.491,1.413c-0.867,0-1.695-0.196-2.482-0.588c-0.788-0.392-1.387-0.967-1.797-1.725
		C118.167,18.427,117.962,17.504,117.962,16.416z M120.529,16.55c0,0.939,0.224,1.659,0.669,2.158
		c0.446,0.499,0.996,0.749,1.649,0.749c0.654,0,1.202-0.25,1.646-0.749c0.442-0.5,0.664-1.225,0.664-2.176
		c0-0.927-0.222-1.641-0.664-2.14c-0.443-0.499-0.991-0.749-1.646-0.749c-0.653,0-1.203,0.25-1.649,0.749
		C120.753,14.892,120.529,15.611,120.529,16.55z"/>
</g>
<g>
	<path fill="#05397C" d="M134.32,10.05c-0.868,3.882-2.019,6.901-3.451,9.059l-1.391-1.016c1.35-2.009,2.432-4.854,3.246-8.533
		L134.32,10.05z M138.681,19.992c0,1.492-0.604,2.238-1.811,2.238c-1.159,0-1.875-0.006-2.148-0.018l-0.624-1.729
		c0.463,0.047,1.225,0.071,2.282,0.071c0.381,0,0.57-0.169,0.57-0.508V6.296h1.73V19.992z M145.6,18.414l-1.533,0.812
		c-0.601-2.675-1.605-5.707-3.014-9.095l1.497-0.57C143.769,12.294,144.785,15.245,145.6,18.414z"/>
	<path fill="#05397C" d="M156.905,12.359c-3.031,0.41-5.988,0.695-8.872,0.856l-0.098-1.168c1.23-0.054,2.467-0.128,3.709-0.223
		v-0.803h-2.96v-0.99h2.96V9.453h-3.646V8.445h3.646V7.83h-2.96V6.875h2.96v-0.66h1.569v0.66h2.8V7.83h-2.8v0.615h3.032v1.008
		h-3.032v0.579h2.8v0.99h-2.8v0.642c1.07-0.071,2.295-0.199,3.674-0.383L156.905,12.359z M162.951,20.313
		c0,0.315-0.082,0.572-0.245,0.771c-0.164,0.199-0.364,0.326-0.603,0.379c-0.237,0.054-0.698,0.081-1.382,0.081
		c-0.624,0-1.067-0.018-1.328-0.054l-0.553-1.32c0.368,0.012,1.123,0.018,2.265,0.018c0.208,0,0.312-0.104,0.312-0.312v-0.651
		h-4.734v2.969h-1.623v-2.969h-4.708v2.354h-1.604v-3.504h6.313v-0.642h-5.109V13.67h4.343c0.208-0.297,0.371-0.559,0.49-0.785
		l1.632,0.161l-0.384,0.624h5.645v3.763h-4.993v0.642h6.269V20.313z M160.115,15.15v-0.535h-8.56v0.535H160.115z M160.115,16.479
		v-0.544h-8.56v0.544H160.115z M159.813,10.709L158.6,11.61c-0.701-0.689-1.302-1.189-1.801-1.498l1.186-0.829
		C158.585,9.622,159.194,10.098,159.813,10.709z M163.771,9.016h-1.239v2.702c0,0.452-0.162,0.826-0.486,1.124
		s-1.202,0.416-2.635,0.356l-0.535-1.498h1.686c0.279,0,0.419-0.151,0.419-0.455V9.016h-4.164V7.625h4.164V6.233h1.552v1.391h1.239
		V9.016z"/>
	<path fill="#05397C" d="M182.051,17.156h-6.66v3.326c0,0.422-0.13,0.775-0.389,1.061c-0.258,0.285-0.536,0.459-0.833,0.521
		c-0.298,0.063-0.981,0.094-2.051,0.094c-0.476,0-1.085-0.006-1.828-0.018l-0.473-1.605c1.011,0.036,1.819,0.054,2.425,0.054
		c0.625,0,1.024-0.012,1.2-0.036c0.175-0.024,0.263-0.226,0.263-0.606v-2.791h-7.508v-1.587h7.508v-2.702h-6.536v-1.605h6.536V8.882
		c-1.729,0.172-3.828,0.3-6.295,0.383l-0.518-1.498c5.226-0.137,9.681-0.654,13.366-1.551l0.937,1.391
		c-1.303,0.357-3.237,0.71-5.805,1.062v2.595h5.652v1.605h-5.652v2.702h6.66V17.156z"/>
</g>
<g>
	<defs>
		<rect id="SVGID_8_" width="200" height="150"/>
	</defs>
	<clipPath id="SVGID_9_">
		<use xlink:href="#SVGID_8_"  overflow="visible"/>
	</clipPath>
	<path clip-path="url(#SVGID_9_)" fill="#C6171E" d="M83.163,14.31c0,6.731-5.457,12.188-12.188,12.188S58.787,21.041,58.787,14.31
		S64.244,2.122,70.975,2.122S83.163,7.579,83.163,14.31"/>
	
		<circle clip-path="url(#SVGID_9_)" fill="none" stroke="#FFFFFF" stroke-width="0.008" stroke-miterlimit="10" cx="70.975" cy="14.31" r="12.188"/>
	<path clip-path="url(#SVGID_9_)" fill="#FFFFFF" d="M73.324,19.002c-0.039,0.115-0.115,0.25-0.192,0.327
		c-0.769,0.798-1.814,0.944-2.863,0.768C69.711,20.021,69,19.33,69.096,18.6c0.077-0.5,0.154-1,0.231-1.499
		c0.154-0.865,0.308-1.749,0.461-2.614c0-0.381,0.027-0.659-0.461-0.711c-0.154-0.019-0.307-0.038-0.461-0.077
		c-0.173-0.057-0.269-0.211-0.25-0.345c0.019-0.154,0.115-0.25,0.308-0.288c1.222-0.246,3.799-0.591,3.401,1.268
		c-0.173,0.999-0.365,1.979-0.538,2.978c-0.058,0.327-0.135,0.653-0.173,0.98c-0.019,0.154,0,0.327,0.038,0.481
		c0.058,0.211,0.212,0.326,0.423,0.307c0.173-0.019,0.346-0.077,0.519-0.154c0.134-0.057,0.25-0.153,0.384-0.192
		C73.209,18.656,73.382,18.792,73.324,19.002C73.285,19.117,73.382,18.792,73.324,19.002"/>
	<path clip-path="url(#SVGID_9_)" fill="#FFFFFF" d="M71.085,8.463c0.874,0,1.572,0.721,1.572,1.594c0,0.874-0.72,1.594-1.572,1.594
		c-0.874,0-1.594-0.72-1.594-1.616C69.491,9.163,70.211,8.463,71.085,8.463"/>
</g>
</svg>
