<?xml version="1.0" encoding="utf-8"?>
<!-- Generator: Adobe Illustrator 16.0.3, SVG Export Plug-In . SVG Version: 6.00 Build 0)  -->
<!DOCTYPE svg PUBLIC "-//W3C//DTD SVG 1.1//EN" "http://www.w3.org/Graphics/SVG/1.1/DTD/svg11.dtd">
<svg version="1.1" id="圖層_1" xmlns="http://www.w3.org/2000/svg" xmlns:xlink="http://www.w3.org/1999/xlink" x="0px" y="0px"
	 width="200px" height="150px" viewBox="0 0 200 150" enable-background="new 0 0 200 150" xml:space="preserve">
<g>
	<g>
		<defs>
			<rect id="SVGID_1_" width="200" height="150"/>
		</defs>
		<clipPath id="SVGID_2_">
			<use xlink:href="#SVGID_1_"  overflow="visible"/>
		</clipPath>
		<path clip-path="url(#SVGID_2_)" fill="#FFFFFF" d="M177.865,26.501H71.899c-6.675,0-12.135-5.46-12.135-12.134
			c0-6.674,5.46-12.135,12.135-12.135h105.966C184.54,2.232,190,7.693,190,14.368C190,21.042,184.54,26.501,177.865,26.501"/>
	</g>
</g>
<g>
	<g>
		<defs>
			<path id="SVGID_3_" d="M116.966,29.502c-23.593,0-42.899,19.104-42.899,42.455v14.424c0,10.551-11.999,16.771-20.747,10.742
				c-11.861-8.18-13.032-19.534-15.218-34.27l-5.036,4.687l-5.6-6.141v34.507c0,29.066,24.032,52.847,53.401,52.847h22.292h46.05
				h5.393c23.596,0,42.898-19.104,42.898-42.455V71.957c0-23.351-19.303-42.455-42.898-42.455H116.966z"/>
		</defs>
		<clipPath id="SVGID_4_">
			<use xlink:href="#SVGID_3_"  overflow="visible"/>
		</clipPath>
		
			<linearGradient id="SVGID_5_" gradientUnits="userSpaceOnUse" x1="-204.7739" y1="349.6475" x2="-203.7739" y2="349.6475" gradientTransform="matrix(0 -47.6243 47.6243 0 -16539.2461 -9616.2051)">
			<stop  offset="0" style="stop-color:#0C6BB0"/>
			<stop  offset="1" style="stop-color:#05397C"/>
		</linearGradient>
		<rect x="27.466" y="29.502" clip-path="url(#SVGID_4_)" fill="url(#SVGID_5_)" width="170.034" height="119.251"/>
	</g>
</g>
<g>
	<g>
		<defs>
			<rect id="SVGID_6_" width="200" height="150"/>
		</defs>
		<clipPath id="SVGID_7_">
			<use xlink:href="#SVGID_6_"  overflow="visible"/>
		</clipPath>
		<path clip-path="url(#SVGID_7_)" fill="#C3DADF" d="M88.157,136.665c11.339-0.778,18.168-8.212,22.532-15.315
			c2.595-4.223,8.276-5.201,12.229-2.214c0.119,0.091,0.241,0.181,0.364,0.269c5.574,4.007,13.338,3.314,20.139,2.277
			c11.771-1.793,22.828-6.589,34.26-9.897c6.391-1.853,13.127-3.222,19.766-3.332c-1.143,22.358-19.979,40.302-42.846,40.302h-5.393
			h-46.05H80.867c-12.355,0-23.754-4.219-32.828-11.26C59.004,137.604,75.136,137.561,88.157,136.665"/>
	</g>
	<g>
		<defs>
			<rect id="SVGID_8_" width="200" height="150"/>
		</defs>
		<clipPath id="SVGID_9_">
			<use xlink:href="#SVGID_8_"  overflow="visible"/>
		</clipPath>
		<path clip-path="url(#SVGID_9_)" fill="#05397C" d="M38.945,55.908c6.435-7.189,17.548-7.805,24.737-1.371
			c0.323,0.291,0.631,0.59,0.927,0.896l-9.167,10.243c-0.713-1.275-2.108-2.107-3.663-2.019c-2.166,0.117-3.836,1.985-3.715,4.151
			c0.085,1.554,1.066,2.849,2.413,3.416l-9.169,10.245c-0.338-0.262-0.669-0.535-0.993-0.824
			C33.127,74.208,32.512,63.098,38.945,55.908 M27,44.836c6.434-7.19,5.818-18.302-1.37-24.736c-0.326-0.29-0.657-0.564-0.994-0.825
			L15.468,29.52c1.346,0.566,2.327,1.86,2.411,3.415c0.122,2.167-1.548,4.034-3.717,4.152c-1.552,0.088-2.948-0.745-3.66-2.019
			L1.334,45.313c0.297,0.306,0.606,0.605,0.928,0.895C9.452,52.642,20.564,52.025,27,44.836 M38.485,44
			c-7.19-6.436-7.805-17.546-1.37-24.736c0.291-0.325,0.588-0.634,0.896-0.93l10.243,9.168c-1.273,0.714-2.106,2.11-2.019,3.663
			c0.119,2.167,1.985,3.838,4.153,3.715c1.551-0.083,2.848-1.064,3.416-2.41l10.243,9.165c-0.26,0.339-0.533,0.672-0.823,0.994
			C56.788,49.819,45.675,50.436,38.485,44 M27.731,56.229c-7.19-6.436-18.302-5.82-24.735,1.371
			c-0.291,0.323-0.564,0.653-0.825,0.991l10.244,9.169c0.566-1.348,1.863-2.329,3.416-2.411c2.167-0.124,4.035,1.547,4.152,3.715
			c0.088,1.553-0.745,2.95-2.02,3.663l10.243,9.166c0.307-0.295,0.606-0.604,0.896-0.927C35.537,73.774,34.921,62.664,27.731,56.229
			"/>
	</g>
	<g>
		<defs>
			<rect id="SVGID_10_" width="200" height="150"/>
		</defs>
		<clipPath id="SVGID_11_">
			<use xlink:href="#SVGID_10_"  overflow="visible"/>
		</clipPath>
		<path clip-path="url(#SVGID_11_)" fill="#557EAA" d="M188.012,69.979c0,10.537-7.301,19.08-16.307,19.08
			c-9.008,0-16.307-8.543-16.307-19.08c0-10.537,7.3-16.639,16.307-16.639C180.711,53.339,188.012,59.441,188.012,69.979"/>
	</g>
	<g>
		<defs>
			<rect id="SVGID_12_" width="200" height="150"/>
		</defs>
		<clipPath id="SVGID_13_">
			<use xlink:href="#SVGID_12_"  overflow="visible"/>
		</clipPath>
		<path clip-path="url(#SVGID_13_)" fill="#0D2E4B" d="M183.02,69.424c0,6.249-5.065,11.314-11.313,11.314
			c-6.249,0-11.315-5.065-11.315-11.314c0-6.248,5.066-11.314,11.315-11.314C177.953,58.11,183.02,63.176,183.02,69.424"/>
	</g>
	<g>
		<defs>
			<rect id="SVGID_14_" width="200" height="150"/>
		</defs>
		<clipPath id="SVGID_15_">
			<use xlink:href="#SVGID_14_"  overflow="visible"/>
		</clipPath>
		<path clip-path="url(#SVGID_15_)" fill="#FFFFFF" d="M181.512,63.545c0,2.083-1.689,3.771-3.771,3.771
			c-2.084,0-3.772-1.688-3.772-3.771s1.688-3.771,3.772-3.771C179.822,59.774,181.512,61.462,181.512,63.545"/>
	</g>
	<g>
		<defs>
			<rect id="SVGID_16_" width="200" height="150"/>
		</defs>
		<clipPath id="SVGID_17_">
			<use xlink:href="#SVGID_16_"  overflow="visible"/>
		</clipPath>
		<path clip-path="url(#SVGID_17_)" fill="#557EAA" d="M116.135,69.979c0,10.537-7.3,19.08-16.306,19.08s-16.306-8.543-16.306-19.08
			c0-10.537,7.3-16.639,16.306-16.639C108.835,53.339,116.135,59.441,116.135,69.979"/>
	</g>
	<g>
		<defs>
			<rect id="SVGID_18_" width="200" height="150"/>
		</defs>
		<clipPath id="SVGID_19_">
			<use xlink:href="#SVGID_18_"  overflow="visible"/>
		</clipPath>
		<path clip-path="url(#SVGID_19_)" fill="#0D2E4B" d="M111.143,69.424c0,6.249-5.064,11.314-11.313,11.314
			c-6.248,0-11.314-5.065-11.314-11.314c0-6.248,5.066-11.314,11.314-11.314S111.143,63.176,111.143,69.424"/>
	</g>
	<g>
		<defs>
			<rect id="SVGID_20_" width="200" height="150"/>
		</defs>
		<clipPath id="SVGID_21_">
			<use xlink:href="#SVGID_20_"  overflow="visible"/>
		</clipPath>
		<path clip-path="url(#SVGID_21_)" fill="#FFFFFF" d="M106.928,63.545c0,2.083-1.688,3.771-3.771,3.771s-3.771-1.688-3.771-3.771
			s1.688-3.771,3.771-3.771S106.928,61.462,106.928,63.545"/>
	</g>
	<g>
		<defs>
			<rect id="SVGID_22_" width="200" height="150"/>
		</defs>
		<clipPath id="SVGID_23_">
			<use xlink:href="#SVGID_22_"  overflow="visible"/>
		</clipPath>
		<path clip-path="url(#SVGID_23_)" fill="#557EAA" d="M140.807,77.23c0,3.338-2.705,6.043-6.043,6.043
			c-3.339,0-6.045-2.705-6.045-6.043c0-3.338,2.706-6.043,6.045-6.043C138.102,71.187,140.807,73.893,140.807,77.23"/>
	</g>
</g>
<g>
	<path fill="#05397C" d="M160.674,21.285v-10.86h-3.879V8.213h10.388v2.211h-3.87v10.86L160.674,21.285L160.674,21.285z"/>
	<path fill="#05397C" d="M167.578,17.798v-2.505h4.922v2.505H167.578z"/>
	<path fill="#05397C" d="M173.972,8.213h5.225c1.035,0,1.807,0.043,2.313,0.129c0.509,0.086,0.964,0.266,1.364,0.54
		c0.4,0.273,0.736,0.637,1.004,1.092s0.4,0.964,0.4,1.529c0,0.612-0.164,1.174-0.494,1.685s-0.777,0.895-1.342,1.15
		c0.795,0.231,1.407,0.627,1.836,1.186s0.643,1.216,0.643,1.971c0,0.595-0.139,1.172-0.415,1.734s-0.653,1.011-1.132,1.346
		c-0.479,0.336-1.068,0.542-1.771,0.62c-0.439,0.048-1.5,0.078-3.183,0.089h-4.449L173.972,8.213L173.972,8.213z M176.61,10.389
		v3.022h1.73c1.027,0,1.667-0.015,1.917-0.044c0.451-0.053,0.808-0.209,1.065-0.468c0.259-0.258,0.388-0.599,0.388-1.021
		c0-0.404-0.111-0.733-0.334-0.985c-0.224-0.253-0.556-0.406-0.995-0.459c-0.262-0.03-1.014-0.044-2.256-0.044L176.61,10.389
		L176.61,10.389z M176.61,15.587v3.496h2.443c0.951,0,1.555-0.027,1.811-0.081c0.393-0.071,0.711-0.245,0.959-0.521
		c0.246-0.276,0.369-0.646,0.369-1.11c0-0.392-0.095-0.725-0.285-0.999c-0.189-0.274-0.465-0.473-0.824-0.597
		c-0.359-0.125-1.141-0.188-2.342-0.188H176.61z"/>
	<path fill="#05397C" d="M186.553,16.416c0-0.832,0.205-1.637,0.615-2.416c0.409-0.779,0.991-1.374,1.743-1.784
		c0.752-0.41,1.592-0.615,2.519-0.615c1.433,0,2.606,0.465,3.522,1.396c0.914,0.931,1.373,2.106,1.373,3.527
		c0,1.433-0.463,2.62-1.387,3.562c-0.926,0.942-2.089,1.413-3.492,1.413c-0.867,0-1.694-0.196-2.481-0.588
		c-0.788-0.392-1.388-0.967-1.797-1.725C186.758,18.427,186.553,17.504,186.553,16.416z M189.12,16.55
		c0,0.939,0.224,1.659,0.668,2.158c0.447,0.499,0.996,0.749,1.65,0.749c0.653,0,1.201-0.25,1.646-0.749
		c0.442-0.5,0.664-1.225,0.664-2.176c0-0.927-0.222-1.641-0.664-2.14c-0.443-0.499-0.991-0.749-1.646-0.749s-1.203,0.25-1.65,0.749
		C189.344,14.892,189.12,15.611,189.12,16.55z"/>
</g>
<g>
	<g>
		<defs>
			<rect id="SVGID_24_" width="200" height="150"/>
		</defs>
		<clipPath id="SVGID_25_">
			<use xlink:href="#SVGID_24_"  overflow="visible"/>
		</clipPath>
		<path clip-path="url(#SVGID_25_)" fill="#C6171E" d="M83.163,14.31c0,6.731-5.457,12.188-12.188,12.188
			S58.787,21.041,58.787,14.31S64.244,2.122,70.975,2.122S83.163,7.579,83.163,14.31"/>
	</g>
	<g>
		<defs>
			<rect id="SVGID_26_" width="200" height="150"/>
		</defs>
		<clipPath id="SVGID_27_">
			<use xlink:href="#SVGID_26_"  overflow="visible"/>
		</clipPath>
		
			<circle clip-path="url(#SVGID_27_)" fill="none" stroke="#FFFFFF" stroke-width="0.008" stroke-miterlimit="10" cx="70.975" cy="14.31" r="12.188"/>
	</g>
	<g>
		<defs>
			<rect id="SVGID_28_" width="200" height="150"/>
		</defs>
		<clipPath id="SVGID_29_">
			<use xlink:href="#SVGID_28_"  overflow="visible"/>
		</clipPath>
		<path clip-path="url(#SVGID_29_)" fill="#FFFFFF" d="M73.324,19.002c-0.039,0.115-0.115,0.25-0.192,0.327
			c-0.769,0.798-1.814,0.944-2.863,0.768C69.711,20.021,69,19.33,69.096,18.6c0.077-0.5,0.154-1,0.231-1.499
			c0.154-0.865,0.308-1.749,0.461-2.614c0-0.381,0.027-0.659-0.461-0.711c-0.154-0.019-0.307-0.038-0.461-0.077
			c-0.173-0.057-0.269-0.211-0.25-0.345c0.019-0.154,0.115-0.25,0.308-0.288c1.222-0.246,3.799-0.591,3.401,1.268
			c-0.173,0.999-0.365,1.979-0.538,2.978c-0.058,0.327-0.135,0.653-0.173,0.98c-0.019,0.154,0,0.327,0.038,0.481
			c0.058,0.211,0.212,0.326,0.423,0.307c0.173-0.019,0.346-0.077,0.519-0.154c0.134-0.057,0.25-0.153,0.384-0.192
			C73.209,18.656,73.382,18.792,73.324,19.002C73.285,19.117,73.382,18.792,73.324,19.002"/>
	</g>
	<g>
		<defs>
			<rect id="SVGID_30_" width="200" height="150"/>
		</defs>
		<clipPath id="SVGID_31_">
			<use xlink:href="#SVGID_30_"  overflow="visible"/>
		</clipPath>
		<path clip-path="url(#SVGID_31_)" fill="#FFFFFF" d="M71.085,8.463c0.874,0,1.572,0.721,1.572,1.594
			c0,0.874-0.72,1.594-1.572,1.594c-0.874,0-1.594-0.72-1.594-1.616C69.491,9.163,70.211,8.463,71.085,8.463"/>
	</g>
</g>
<g>
	<path fill="#05397C" d="M95.242,12.622c-0.142-1.009-1.108-1.776-2.216-1.776c-2.003,0-2.756,1.705-2.756,3.48
		c0,1.69,0.753,3.395,2.756,3.395c1.364,0,2.131-0.938,2.302-2.273h2.159c-0.228,2.529-1.975,4.148-4.461,4.148
		c-3.139,0-4.986-2.344-4.986-5.271c0-3.012,1.847-5.356,4.986-5.356c2.23,0,4.106,1.307,4.375,3.651H95.242z"/>
	<path fill="#05397C" d="M98.793,9.212h2.018v3.821h0.042c0.512-0.824,1.393-1.222,2.146-1.222c2.145,0,2.685,1.208,2.685,3.026
		v4.518h-2.017v-4.148c0-1.208-0.355-1.804-1.293-1.804c-1.094,0-1.563,0.611-1.563,2.103v3.85h-2.018V9.212z"/>
	<path fill="#05397C" d="M107.131,14.27c0.114-1.889,1.805-2.458,3.452-2.458c1.463,0,3.225,0.327,3.225,2.088v3.821
		c0,0.668,0.071,1.335,0.256,1.634h-2.046c-0.07-0.228-0.128-0.469-0.142-0.71c-0.64,0.668-1.577,0.909-2.472,0.909
		c-1.393,0-2.5-0.696-2.5-2.202c0-1.662,1.25-2.06,2.5-2.23c1.235-0.185,2.387-0.142,2.387-0.966c0-0.867-0.597-0.995-1.308-0.995
		c-0.767,0-1.264,0.313-1.335,1.108H107.131z M111.791,15.761c-0.342,0.298-1.052,0.313-1.677,0.426
		c-0.625,0.128-1.193,0.341-1.193,1.08c0,0.753,0.583,0.938,1.236,0.938c1.576,0,1.634-1.25,1.634-1.69V15.761z"/>
	<path fill="#05397C" d="M117.927,12.011h1.478v1.349h-1.478v3.637c0,0.682,0.171,0.853,0.853,0.853
		c0.213,0,0.412-0.014,0.625-0.057v1.577c-0.341,0.057-0.781,0.071-1.18,0.071c-1.235,0-2.315-0.284-2.315-1.748V13.36h-1.222
		v-1.349h1.222V9.809h2.018V12.011z"/>
	<path fill="#05397C" d="M132.715,19.355h-2.074l-1.307-4.93h-0.029l-1.25,4.93h-2.088l-2.33-7.344h2.131l1.35,4.986h0.028
		l1.222-4.986h1.961l1.25,4.972h0.028l1.35-4.972h2.074L132.715,19.355z"/>
	<path fill="#05397C" d="M137.955,10.875h-2.017V9.212h2.017V10.875z M135.938,12.011h2.017v7.344h-2.017V12.011z"/>
	<path fill="#05397C" d="M142.104,12.011h1.478v1.349h-1.478v3.637c0,0.682,0.171,0.853,0.853,0.853
		c0.213,0,0.412-0.014,0.625-0.057v1.577c-0.341,0.057-0.781,0.071-1.18,0.071c-1.235,0-2.315-0.284-2.315-1.748V13.36h-1.222
		v-1.349h1.222V9.809h2.018V12.011z"/>
	<path fill="#05397C" d="M144.547,9.212h2.017v3.821h0.043c0.512-0.824,1.392-1.222,2.145-1.222c2.146,0,2.686,1.208,2.686,3.026
		v4.518h-2.018v-4.148c0-1.208-0.355-1.804-1.293-1.804c-1.094,0-1.563,0.611-1.563,2.103v3.85h-2.017V9.212z"/>
</g>
</svg>
