<?xml version="1.0" encoding="utf-8"?>
<!-- Generator: Adobe Illustrator 16.0.3, SVG Export Plug-In . SVG Version: 6.00 Build 0)  -->
<!DOCTYPE svg PUBLIC "-//W3C//DTD SVG 1.1//EN" "http://www.w3.org/Graphics/SVG/1.1/DTD/svg11.dtd">
<svg version="1.1" id="圖層_1" xmlns="http://www.w3.org/2000/svg" xmlns:xlink="http://www.w3.org/1999/xlink" x="0px" y="0px"
	 width="43.25px" height="15.25px" viewBox="3.333 2 43.25 15.25" enable-background="new 3.333 2 43.25 15.25"
	 xml:space="preserve">
<g>
	<g>
		
			<linearGradient id="SVGID_1_" gradientUnits="userSpaceOnUse" x1="586.5884" y1="837.6406" x2="586.5884" y2="828.9224" gradientTransform="matrix(1 0 0 1 -571.3203 -821.9199)">
			<stop  offset="0.0051" style="stop-color:#5DCAC8"/>
			<stop  offset="0.9796" style="stop-color:#4292E2"/>
		</linearGradient>
		<path fill="url(#SVGID_1_)" d="M19.785,12.486c0,0.072,0,0.121,0,0.182c-0.33,0-0.66,0-0.988,0c0,0.004,0,0.009,0,0.016
			c0.326,0,0.651,0,0.988,0c0,0.061,0,0.117,0,0.186c-0.335,0-0.672,0-1.006,0c0,0.006,0,0.014,0,0.02c0.337,0,0.673,0,1.019,0
			c0,0.063,0,0.115,0,0.176c-0.335,0-0.667,0-1,0c0,0.008,0,0.014,0,0.021c0.332,0,0.664,0,1.005,0
			c0.003,0.062,0.004,0.114,0.008,0.179c-0.346,0-0.682,0-1.017,0c0,0.008,0,0.016-0.001,0.021c0.336,0,0.671,0,1.021,0
			c0,0.255,0,0.501,0,0.755c-0.169,0-0.337,0-0.505,0c0,0.006,0,0.012,0,0.017c0.169,0,0.338,0,0.518,0c0,0.119,0,0.232,0,0.354
			c-0.06,0.003-0.121,0.006-0.183,0.009c0,0.007,0,0.014,0,0.018c0.312,0,0.624,0,0.949,0c0-0.037,0-0.076,0-0.115
			c0-0.451,0-0.903,0-1.356c0-0.192,0-0.192,0.201-0.245c0.007,0.033,0.015,0.065,0.019,0.092c0.109-0.104,0.213-0.221,0.333-0.314
			c0.43-0.344,0.93-0.486,1.465-0.389c0.479,0.089,0.89-0.051,1.296-0.264c0.081-0.043,0.162-0.087,0.236-0.141
			c0.098-0.074,0.201-0.104,0.325-0.094c0.463,0.037,0.93,0.065,1.407,0.098c0,0.107,0,0.21,0,0.33
			c-0.188-0.012-0.38-0.021-0.572-0.034c-0.388-0.026-0.777-0.06-1.165-0.086c-0.157-0.012-0.252,0.118-0.374,0.185
			c-0.01,0.006-0.013,0.035-0.01,0.051c0.026,0.123-0.052,0.156-0.147,0.187c-0.325,0.108-0.659,0.128-0.99,0.062
			c-0.59-0.123-1.101,0.029-1.564,0.393c-0.264,0.207-0.267,0.204-0.267,0.541c0,0.43,0,0.859,0,1.301
			c-0.092,0-0.179-0.003-0.266,0.004c-0.021,0-0.044,0.028-0.065,0.047c0.021,0.015,0.043,0.035,0.065,0.037
			c0.105,0.004,0.211,0,0.33,0c0-0.045,0-0.084,0-0.123c0-0.463-0.002-0.927,0.001-1.39c0.001-0.049,0.025-0.106,0.059-0.142
			c0.457-0.447,1.009-0.619,1.639-0.553c0.135,0.015,0.267,0.045,0.403,0.06c0.238,0.028,0.464-0.032,0.689-0.106
			c0.035-0.011,0.068-0.022,0.12-0.043c0.044,0.858,0.089,1.706,0.134,2.561c0.055,0.004,0.101,0.007,0.148,0.014
			c0,0.003,0,0.006,0,0.01c-0.118,0-0.234,0-0.353,0c-1.257,0-2.513-0.006-3.77,0.008c-0.29,0.002-0.579,0.078-0.87,0.109
			c-0.166,0.018-0.334,0.014-0.5,0.02c-0.074,0-0.147,0-0.229,0c0-0.432,0-0.866,0-1.31c0.13,0,0.264,0,0.406,0
			c0-0.045,0-0.089,0-0.153c-0.136,0.019-0.269,0.037-0.414,0.056c0-0.396,0-0.775,0-1.173c-0.267-0.014-0.524-0.026-0.761-0.039
			c0-0.418,0-0.816,0-1.223c-0.01,0.008-0.023,0.017-0.028,0.026c-0.084,0.164-0.225,0.163-0.384,0.146
			c-0.237-0.027-0.474-0.041-0.719-0.061c0-0.064,0-0.122,0-0.2c-0.028,0.024-0.046,0.033-0.051,0.048
			c-0.073,0.148-0.201,0.141-0.337,0.127c-0.252-0.024-0.505-0.043-0.757-0.06c-0.147-0.01-0.147-0.006-0.15-0.153
			c0-0.019-0.003-0.035-0.016-0.064c-0.086,0.228-0.262,0.188-0.434,0.173c-0.289-0.024-0.578-0.047-0.868-0.065
			c-0.068-0.006-0.099-0.031-0.097-0.101c0-0.04-0.005-0.082-0.01-0.153c-0.057,0.068-0.102,0.113-0.136,0.165
			c-0.039,0.054-0.083,0.071-0.149,0.065c-0.401-0.03-0.804-0.061-1.207-0.086c-0.076-0.006-0.116-0.022-0.116-0.106
			c0-0.05-0.017-0.098-0.028-0.151c-0.013,0.004-0.027,0.006-0.031,0.013c-0.091,0.179-0.23,0.218-0.424,0.187
			c-0.238-0.039-0.482-0.035-0.723-0.066c-0.248-0.029-0.479,0.05-0.717,0.088c-0.188,0.033-0.372,0.078-0.56,0.109
			c-0.033,0.008-0.083-0.013-0.106-0.039c-0.067-0.067-0.125-0.147-0.2-0.217c0.024,0.096,0.049,0.19,0.077,0.299
			c-0.217,0.039-0.423,0.078-0.632,0.109c-0.023,0.003-0.057-0.025-0.076-0.05c-0.046-0.058-0.085-0.117-0.147-0.171
			c0.018,0.084,0.035,0.168,0.055,0.264c-0.154,0.029-0.3,0.063-0.448,0.084c-0.029,0.003-0.071-0.025-0.097-0.052
			c-0.046-0.054-0.079-0.103-0.138-0.179c0.023,0.104,0.04,0.179,0.057,0.255c-0.135,0.026-0.258,0.058-0.384,0.071
			C7.53,11.566,7.48,11.536,7.444,11.51c-0.039-0.031-0.066-0.074-0.117-0.136c0.023,0.09,0.04,0.153,0.058,0.228
			c-0.12,0.024-0.233,0.051-0.347,0.069c-0.023,0.003-0.059-0.021-0.078-0.042c-0.036-0.04-0.064-0.088-0.109-0.128
			c0.015,0.065,0.031,0.133,0.048,0.205c-0.175,0.036-0.354,0.169-0.458-0.116c-0.006,0.012-0.012,0.021-0.018,0.029
			c0.014,0.052,0.027,0.1,0.044,0.16c-0.123-0.006-0.239-0.014-0.385-0.022c0.122,0.162,0.231,0.306,0.338,0.449
			c0.008-0.002,0.016-0.004,0.022-0.006c0-0.114,0-0.229,0-0.343c0.009-0.004,0.02-0.01,0.029-0.014
			c0.016,0.021,0.04,0.039,0.048,0.063c0.068,0.171,0.133,0.341,0.201,0.512c0.012,0.027,0.037,0.053,0.055,0.079
			c0.01-0.008,0.021-0.015,0.03-0.021c-0.084-0.197-0.169-0.396-0.253-0.598c0.007-0.004,0.014-0.008,0.02-0.013
			c0.082,0.112,0.163,0.227,0.244,0.339c0.054,0.074,0.105,0.15,0.16,0.225c0.016,0.02,0.044,0.029,0.067,0.047
			c0.007-0.008,0.016-0.018,0.023-0.023c-0.153-0.206-0.306-0.412-0.469-0.635c0.116-0.021,0.217-0.043,0.319-0.062
			c0.09,0.244,0.139,0.489,0.234,0.72c0.018-0.006,0.037-0.015,0.055-0.02C7.126,12.238,7.048,12.02,6.969,11.8
			c0.007-0.004,0.014-0.009,0.021-0.013c0.115,0.152,0.231,0.306,0.346,0.457c0.038,0.051,0.073,0.102,0.114,0.148
			c0.021,0.023,0.052,0.039,0.079,0.059c0.009-0.01,0.017-0.02,0.027-0.026c-0.167-0.226-0.335-0.452-0.511-0.692
			c0.099-0.021,0.184-0.033,0.267-0.059c0.074-0.02,0.105,0.014,0.124,0.081c0.057,0.2,0.117,0.399,0.178,0.601
			c0.01,0.027,0.037,0.053,0.055,0.078c0.01-0.007,0.02-0.013,0.029-0.018c-0.082-0.251-0.165-0.501-0.246-0.751
			c0.009-0.005,0.017-0.011,0.025-0.015c0.1,0.134,0.2,0.267,0.3,0.4C7.85,12.152,7.923,12.253,8,12.352
			c0.021,0.024,0.055,0.041,0.083,0.062C8.092,12.4,8.1,12.393,8.11,12.383c-0.188-0.244-0.376-0.488-0.575-0.75
			c0.151-0.029,0.286-0.057,0.434-0.086c0.077,0.281,0.151,0.555,0.226,0.829c0.094,0.008,0.087-0.038,0.067-0.101
			c-0.074-0.23-0.145-0.461-0.217-0.692c-0.005-0.013-0.007-0.024,0.01-0.05c0.069,0.097,0.138,0.191,0.206,0.29
			c0.11,0.155,0.215,0.315,0.33,0.467c0.029,0.039,0.084,0.056,0.127,0.081c0.009-0.012,0.018-0.021,0.027-0.033
			c-0.205-0.27-0.411-0.538-0.627-0.822c0.152-0.031,0.286-0.062,0.421-0.082c0.02-0.002,0.062,0.043,0.068,0.071
			c0.06,0.247,0.121,0.49,0.17,0.738c0.018,0.093,0.055,0.108,0.145,0.081c-0.088-0.303-0.174-0.605-0.262-0.907
			c0.008-0.003,0.018-0.007,0.028-0.013c0.101,0.146,0.202,0.291,0.304,0.438c0.092,0.133,0.182,0.27,0.276,0.398
			c0.021,0.029,0.056,0.049,0.084,0.072c0.009-0.011,0.018-0.019,0.027-0.028c-0.206-0.291-0.412-0.583-0.632-0.896
			c0.222-0.045,0.43-0.086,0.641-0.129c0.086,0.321,0.17,0.631,0.252,0.941c0.015,0.057,0.033,0.098,0.114,0.068
			c-0.099-0.342-0.198-0.683-0.296-1.021c0.011-0.007,0.023-0.014,0.034-0.02c0.024,0.022,0.05,0.041,0.069,0.067
			C9.78,11.6,10,11.9,10.214,12.21c0.046,0.065,0.094,0.097,0.189,0.067c-0.277-0.351-0.551-0.694-0.836-1.055
			c0.292-0.06,0.566-0.104,0.834-0.171c0.303-0.075,0.598,0.005,0.896,0.013c0.168,0.004,0.334,0.026,0.526,0.043
			c-0.313,0.399-0.612,0.785-0.92,1.181c0.113,0.024,0.191,0.039,0.262-0.063c0.235-0.353,0.48-0.695,0.724-1.039
			c0.024-0.035,0.07-0.056,0.132-0.101c0.047,0.442,0.09,0.851,0.135,1.263c-0.127,0-0.242,0-0.369,0
			c-0.003,0.06-0.005,0.116-0.009,0.18c-0.027,0.007-0.054,0.012-0.085,0.016c0.066,0.018,0.128,0.05,0.191,0.051
			c0.429,0.008,0.858,0.01,1.289,0.014c0.039,0.002,0.079,0,0.124,0c0,0.203,0,0.392,0,0.601c-0.502,0-1,0-1.509,0
			c0,0.077,0,0.138,0,0.208c-0.089,0-0.169,0-0.249,0c0.481,0.102,0.963,0.036,1.445,0.035c0.103-0.001,0.203,0,0.313,0
			c0,0.15,0,0.305,0,0.471c-0.189,0.01-0.383,0.018-0.575,0.023c-0.278,0.013-0.558,0.021-0.835,0.035
			c-0.037,0.002-0.069,0.045-0.107,0.06c-0.032,0.013-0.068,0.021-0.101,0.021c-0.617,0-1.235,0-1.852,0
			c-0.025,0-0.051,0-0.076,0.019c0.424,0,0.849,0,1.272,0c0.155-0.001,0.31-0.019,0.462,0c0.546,0.056,1.092,0.001,1.637-0.021
			c0.054-0.002,0.109-0.002,0.172-0.002c0,0.252,0,0.5,0,0.758c-0.255,0.021-0.511,0.039-0.766,0.059
			c-0.22,0.018-0.44,0.033-0.659,0.05c-0.055,0.004-0.107,0.017-0.077,0.104c2.12-0.176,4.243-0.352,6.382-0.527
			c0,0.213,0.001,0.417-0.004,0.622c0,0.021-0.044,0.054-0.072,0.058c-0.115,0.019-0.232,0.025-0.361,0.041c0-0.16,0-0.318,0-0.473
			c-0.234-0.061-0.458-0.064-0.687-0.044c-0.487,0.048-0.972,0.085-1.458,0.128c-0.46,0.041-0.921,0.084-1.382,0.124
			c-0.286,0.024-0.569,0.054-0.856,0.071c-0.095,0.005-0.116,0.041-0.114,0.125c0.003,0.188,0,0.38,0,0.578
			c-0.404,0.045-0.8,0.088-1.196,0.14c-0.146,0.019-0.287,0.073-0.434,0.094c-0.574,0.074-1.149,0.144-1.725,0.214
			c-0.102,0.012-0.204,0.043-0.305,0.033c-0.181-0.013-0.363-0.04-0.539-0.081c-1.437-0.351-2.871-0.702-4.307-1.053
			c-0.056-0.019-0.072-0.037-0.072-0.095c0.002-0.758,0.001-1.516,0.001-2.271c0-0.018,0.003-0.036,0.005-0.061
			c0.549-0.041,1.094-0.082,1.654-0.123c-0.011-0.037-0.018-0.07-0.032-0.103c-0.09-0.214-0.18-0.432-0.277-0.646
			c-0.017-0.038-0.066-0.079-0.104-0.088c-0.342-0.061-0.686-0.113-1.029-0.172c-0.01,0-0.018-0.008-0.055-0.026
			c0.36,0.024,0.692,0.049,1.022,0.069c-0.248-0.137-0.496-0.274-0.653-0.187c0.159-0.046,0.457-0.135,0.754-0.222
			c1.023-0.297,2.046-0.596,3.07-0.891c0.166-0.049,0.327-0.113,0.495-0.146c0.123-0.021,0.254-0.015,0.38-0.003
			c0.686,0.068,1.371,0.143,2.056,0.218c0.722,0.077,1.444,0.159,2.165,0.235c0.657,0.07,1.313,0.136,1.97,0.205
			c0.581,0.063,1.159,0.129,1.738,0.189c0.453,0.051,0.905,0.094,1.358,0.141c0.009,0.002,0.018,0.006,0.025,0.023
			c-0.152-0.012-0.306-0.02-0.458-0.033c-0.315-0.025-0.628-0.055-0.943-0.08c-0.187-0.014-0.187-0.01-0.214,0.202
			c0.686-0.018,1.367-0.036,2.047-0.056c0.001,0.007,0.001,0.014,0.001,0.021c-0.675,0.104-1.35,0.207-2.014,0.309
			c0,0.333,0,0.65,0,0.996C18.352,12.486,19.065,12.486,19.785,12.486z M9.437,14.507c0.029,0.003,0.057,0.009,0.086,0.009
			c0.697,0.002,1.394,0.004,2.09,0.004c0.036,0,0.073,0,0.109,0c0-0.004,0-0.009-0.001-0.013c-0.762,0-1.524,0-2.287,0
			c0-0.062,0-0.12,0-0.183c-0.356-0.027-0.694-0.055-1.04-0.081c0,0.058,0,0.108,0,0.164c0.023,0,0.041,0.001,0.059,0.003
			C8.782,14.441,9.108,14.475,9.437,14.507z M9.436,14.748c0.189,0,0.377,0,0.566,0C9.813,14.748,9.624,14.748,9.436,14.748
			c0.002-0.066,0.005-0.137,0.011-0.212c-0.357-0.032-0.701-0.062-1.048-0.093c0,0.07,0,0.123,0,0.178
			c0.167,0.018,0.327,0.033,0.486,0.053C9.068,14.697,9.251,14.725,9.436,14.748z M12.848,10.633c0-0.008,0-0.018,0.001-0.025
			c-0.644-0.053-1.286-0.106-1.948-0.16c0.033,0.017,0.048,0.025,0.066,0.029c0.329,0.099,0.659,0.193,0.991,0.289
			c0.044,0.012,0.094,0.027,0.138,0.021C12.348,10.739,12.599,10.688,12.848,10.633z M9.481,10.378
			c-0.374,0.09-0.726,0.177-1.076,0.261c0.267,0.075,0.531,0.133,0.795,0.188c0.027,0.005,0.077-0.001,0.084-0.019
			C9.352,10.674,9.411,10.534,9.481,10.378z M9.443,16.184c0-0.074,0-0.138,0-0.209c-0.347-0.078-0.694-0.156-1.05-0.235
			c0,0.067,0,0.125,0,0.188C8.743,16.012,9.089,16.098,9.443,16.184z M8.396,14.203c0.347,0.025,0.688,0.053,1.032,0.08
			c0-0.078,0-0.137,0-0.202c-0.346-0.024-0.688-0.048-1.032-0.069C8.396,14.082,8.396,14.139,8.396,14.203z M9.439,14.779
			c-0.348-0.041-0.692-0.081-1.042-0.12c0,0.062,0,0.123,0,0.185c0.351,0.047,0.693,0.092,1.042,0.141
			C9.439,14.912,9.439,14.852,9.439,14.779z M8.395,15.482c0.353,0.07,0.697,0.141,1.049,0.211c0-0.073,0-0.135,0-0.198
			c-0.35-0.063-0.696-0.125-1.049-0.188C8.395,15.372,8.395,15.424,8.395,15.482z M8.395,15.697c0.354,0.08,0.698,0.156,1.048,0.234
			c0-0.072,0-0.132,0-0.197c-0.349-0.071-0.694-0.142-1.048-0.213C8.395,15.588,8.395,15.641,8.395,15.697z M8.393,13.973
			c0.351,0.021,0.693,0.043,1.044,0.064c-0.005-0.075-0.008-0.135-0.011-0.196c-0.351-0.017-0.689-0.032-1.033-0.051
			C8.393,13.855,8.393,13.904,8.393,13.973z M8.393,15.053c0.354,0.057,0.698,0.112,1.046,0.17c0-0.074,0-0.131,0-0.199
			c-0.35-0.049-0.696-0.094-1.046-0.142C8.393,14.945,8.393,14.994,8.393,15.053z M8.394,15.268
			c0.354,0.062,0.697,0.123,1.048,0.188c0-0.068,0-0.126,0-0.191c-0.348-0.056-0.694-0.111-1.048-0.17
			C8.394,15.154,8.394,15.204,8.394,15.268z M8.394,13.352c0.351,0,0.689,0,1.026,0c0-0.06,0-0.113,0-0.164
			c-0.347,0-0.685,0-1.026,0C8.394,13.244,8.394,13.29,8.394,13.352z M9.42,12.691c0-0.063,0-0.117,0-0.181
			c-0.348,0.021-0.688,0.044-1.025,0.065c0,0.063,0,0.109,0,0.168C8.74,12.727,9.078,12.711,9.42,12.691z M9.422,12.975
			c-0.347,0-0.687,0-1.024,0c0,0.069,0,0.119,0,0.162c0.345,0,0.681,0,1.029,0c0-0.043,0-0.076,0-0.107
			C9.426,13.007,9.423,12.986,9.422,12.975z M8.395,13.754c0.346,0.016,0.686,0.03,1.026,0.046c0-0.071,0-0.122,0-0.188
			c-0.344,0-0.683,0-1.026,0C8.395,13.65,8.395,13.695,8.395,13.754z M8.394,12.918c0.353,0,0.69,0,1.026,0c0-0.075,0-0.124,0-0.186
			c-0.345,0.018-0.683,0.035-1.026,0.053C8.394,12.84,8.394,12.887,8.394,12.918z M8.395,13.557c0.342,0,0.683,0,1.023,0
			c0-0.049,0-0.102,0-0.16c-0.345,0-0.682,0-1.023,0C8.395,13.445,8.395,13.494,8.395,13.557z M8.231,14.001
			c-0.286-0.019-0.567-0.035-0.85-0.054c0,0.068,0,0.119,0,0.178c0.286,0.021,0.565,0.045,0.85,0.066
			C8.231,14.123,8.231,14.066,8.231,14.001z M7.381,15.68c0.285,0.07,0.564,0.139,0.884,0.217c-0.034-0.086-0.043-0.188-0.079-0.198
			c-0.263-0.072-0.532-0.126-0.805-0.188C7.381,15.566,7.381,15.616,7.381,15.68z M8.241,14.818
			c-0.026-0.074,0.052-0.17-0.068-0.186c-0.26-0.033-0.522-0.059-0.788-0.087c0,0.056,0,0.106,0,0.162
			C7.67,14.747,7.947,14.782,8.241,14.818z M6.37,13.883c-0.03,0.157-0.023,0.168,0.121,0.174c0.062,0.004,0.124,0.014,0.186,0.017
			c0.18,0.013,0.36,0.022,0.553,0.036c-0.022-0.076,0.042-0.17-0.077-0.18C6.894,13.91,6.635,13.898,6.37,13.883z M8.229,13.962
			c0-0.065,0-0.118,0-0.178c-0.287-0.015-0.566-0.026-0.849-0.039c0,0.063,0,0.108,0,0.162C7.665,13.926,7.941,13.943,8.229,13.962z
			 M7.385,15.124c-0.017,0.147-0.017,0.147,0.111,0.177c0.043,0.01,0.086,0.018,0.129,0.026c0.2,0.041,0.398,0.08,0.598,0.118
			c0.032-0.163,0.026-0.172-0.118-0.195C7.867,15.21,7.629,15.167,7.385,15.124z M7.379,12.801c0.292-0.017,0.572-0.031,0.85-0.048
			c0-0.063,0-0.11,0-0.167c-0.289,0.018-0.569,0.037-0.85,0.055C7.379,12.7,7.379,12.743,7.379,12.801z M8.238,15.489
			c-0.287-0.056-0.568-0.113-0.867-0.175c0.024,0.064-0.039,0.146,0.066,0.168c0.263,0.06,0.527,0.117,0.794,0.177
			c0.003-0.028,0.006-0.05,0.007-0.071C8.239,15.561,8.238,15.529,8.238,15.489z M8.224,15.232c0.026-0.164,0.026-0.164-0.118-0.186
			c-0.062-0.009-0.122-0.023-0.184-0.031c-0.178-0.029-0.357-0.057-0.539-0.084c0,0.059,0,0.104,0,0.152
			C7.668,15.136,7.946,15.186,8.224,15.232z M6.372,15.282c-0.028,0.144-0.027,0.146,0.087,0.173
			c0.195,0.049,0.391,0.097,0.587,0.143c0.055,0.014,0.111,0.022,0.17,0.033c0-0.061,0-0.107,0-0.158
			C6.933,15.408,6.653,15.344,6.372,15.282z M8.23,14.602c0-0.055,0-0.106,0-0.172c-0.285-0.021-0.566-0.049-0.85-0.072
			c0,0.06,0,0.1,0,0.149C7.665,14.538,7.944,14.568,8.23,14.602z M16.021,10.895c-0.001-0.008-0.001-0.017-0.002-0.025
			c-0.306-0.023-0.613-0.049-0.932-0.075c0.02,0.099,0.036,0.183,0.053,0.269C15.443,11.003,15.733,10.948,16.021,10.895z
			 M9.418,12.336c-0.348,0.025-0.684,0.053-1.023,0.077c0,0.041,0,0.077,0,0.126c0.343-0.023,0.681-0.046,1.023-0.066
			C9.418,12.421,9.418,12.386,9.418,12.336z M7.382,14.162c0,0.063,0,0.107,0,0.154c0.287,0.024,0.566,0.05,0.849,0.072
			c0-0.061,0-0.105,0-0.158C7.949,14.209,7.671,14.186,7.382,14.162z M7.379,13.533c0.289,0,0.57,0,0.85,0c0-0.043,0-0.088,0-0.146
			c-0.287,0-0.566,0-0.85,0C7.379,13.434,7.379,13.473,7.379,13.533z M7.38,14.747c0,0.054,0,0.093,0,0.144
			c0.283,0.045,0.563,0.092,0.85,0.139c0-0.063,0-0.112,0-0.168C7.949,14.822,7.671,14.785,7.38,14.747z M7.219,13.734
			c-0.292-0.012-0.573-0.023-0.856-0.036c0,0.054,0,0.092,0,0.146c0.287,0.018,0.569,0.036,0.856,0.055
			C7.219,13.838,7.219,13.791,7.219,13.734z M7.218,12.652c-0.257,0.015-0.501,0.024-0.745,0.039
			c-0.125,0.009-0.13,0.016-0.101,0.16c0.28-0.016,0.562-0.031,0.846-0.043C7.218,12.747,7.218,12.704,7.218,12.652z M8.233,13.199
			c-0.291,0-0.571,0-0.854,0c0,0.049,0,0.087,0,0.14c0.287,0,0.569,0,0.854,0C8.233,13.292,8.233,13.248,8.233,13.199z
			 M14.542,10.768c0-0.007,0-0.013-0.001-0.021c-0.312-0.024-0.625-0.052-0.96-0.078c0.038,0.086,0.064,0.153,0.101,0.215
			c0.012,0.021,0.052,0.042,0.075,0.036C14.02,10.872,14.281,10.818,14.542,10.768z M7.218,14.15
			c-0.291-0.022-0.571-0.047-0.857-0.067c0,0.053,0,0.093,0,0.146c0.288,0.024,0.569,0.051,0.857,0.074
			C7.218,14.246,7.218,14.205,7.218,14.15z M8.23,13.014c-0.281,0-0.565,0-0.856,0c0.003,0.061,0.005,0.098,0.007,0.133
			c0.29,0,0.567,0,0.85,0C8.23,13.098,8.23,13.055,8.23,13.014z M7.38,13.704c0.286,0.014,0.569,0.026,0.849,0.042
			c0-0.061,0-0.105,0-0.163c-0.288,0-0.567,0-0.849,0C7.38,13.622,7.38,13.657,7.38,13.704z M7.218,14.527
			c-0.29-0.032-0.568-0.065-0.852-0.098c-0.026,0.098-0.016,0.153,0.099,0.157c0.091,0.002,0.181,0.022,0.271,0.035
			c0.158,0.021,0.317,0.038,0.481,0.058C7.218,14.624,7.218,14.581,7.218,14.527z M7.381,12.957c0.286,0,0.566,0,0.852,0
			c0-0.061,0-0.104,0-0.162c-0.287,0.016-0.566,0.029-0.852,0.042C7.381,12.889,7.381,12.927,7.381,12.957z M16.444,10.902
			c0,0.091,0,0.17,0,0.259c0.3-0.056,0.596-0.112,0.892-0.168c-0.001-0.007-0.002-0.013-0.004-0.019
			C17.041,10.953,16.751,10.93,16.444,10.902z M7.22,14.902c-0.29-0.047-0.57-0.09-0.851-0.137
			c-0.032,0.103-0.006,0.146,0.096,0.152c0.098,0.007,0.194,0.034,0.292,0.053c0.152,0.025,0.305,0.053,0.463,0.08
			C7.22,14.995,7.22,14.955,7.22,14.902z M7.218,15.096c-0.282-0.054-0.564-0.105-0.845-0.156c-0.01,0.008-0.02,0.015-0.03,0.021
			c0.024,0.04,0.042,0.109,0.073,0.117c0.265,0.063,0.531,0.111,0.804,0.166C7.218,15.193,7.218,15.154,7.218,15.096z M6.354,13.378
			c0.003,0.046,0.005,0.084,0.009,0.134c0.291,0,0.57,0,0.854,0c0-0.041,0-0.085,0-0.134C6.933,13.378,6.653,13.378,6.354,13.378z
			 M7.249,15.438c-0.032-0.072-0.042-0.151-0.07-0.155c-0.269-0.063-0.54-0.113-0.812-0.167c-0.03,0.087-0.007,0.132,0.078,0.146
			c0.068,0.013,0.135,0.033,0.203,0.048C6.835,15.348,7.023,15.389,7.249,15.438z M6.203,14.032c0-0.058,0-0.104,0-0.161
			c-0.246-0.016-0.488-0.03-0.729-0.044c-0.016,0.138-0.012,0.151,0.072,0.157C5.76,14.002,5.975,14.016,6.203,14.032z M6.371,14.27
			C6.334,14.37,6.374,14.4,6.452,14.407c0.055,0.004,0.11,0.01,0.164,0.017c0.199,0.02,0.397,0.041,0.601,0.063
			c0-0.055,0-0.092,0-0.145C6.933,14.314,6.653,14.294,6.371,14.27z M7.218,13.2c-0.289,0-0.571,0-0.861,0
			c0.002,0.045,0.004,0.083,0.007,0.127c0.29,0,0.57,0,0.854,0C7.218,13.284,7.218,13.248,7.218,13.2z M6.366,14.609
			c-0.024,0.086-0.008,0.129,0.081,0.133c0.069,0.003,0.137,0.02,0.206,0.029c0.186,0.029,0.372,0.06,0.562,0.088
			c0-0.053,0-0.092,0-0.135C6.931,14.688,6.652,14.646,6.366,14.609z M6.364,13.657c0.286,0.014,0.566,0.026,0.852,0.041
			c0-0.052,0-0.089,0-0.142c-0.287,0-0.568,0-0.852,0C6.364,13.587,6.364,13.618,6.364,13.657z M5.469,12.898
			c0.253-0.014,0.492-0.025,0.73-0.037c0-0.055,0-0.101,0-0.15c-0.249,0.016-0.488,0.032-0.73,0.049
			C5.469,12.807,5.469,12.843,5.469,12.898z M5.479,14.014c-0.039,0.111,0.003,0.148,0.098,0.153
			c0.077,0.002,0.153,0.013,0.23,0.017c0.13,0.01,0.26,0.02,0.396,0.028c0-0.052,0-0.09,0-0.142
			C5.96,14.053,5.722,14.032,5.479,14.014z M5.479,15.08c-0.032,0.104,0,0.143,0.083,0.156c0.104,0.02,0.206,0.053,0.31,0.074
			c0.108,0.026,0.217,0.051,0.333,0.078c0-0.055,0-0.096,0-0.146C5.963,15.188,5.722,15.133,5.479,15.08z M7.639,10.822
			c0.001,0.007,0.002,0.015,0.003,0.021c0.263,0.053,0.526,0.104,0.788,0.158c-0.084-0.104-0.178-0.189-0.275-0.271
			c-0.019-0.016-0.055-0.022-0.08-0.017C7.929,10.748,7.785,10.786,7.639,10.822z M6.331,12.982c0.325,0,0.606,0,0.885,0
			c0-0.057,0-0.094,0-0.137c-0.272,0.014-0.535,0.025-0.798,0.045C6.391,12.893,6.367,12.941,6.331,12.982z M7.218,13.043
			c-0.274,0-0.541-0.003-0.808,0.001c-0.086,0.002-0.051,0.065-0.043,0.104c0.289,0,0.57,0,0.856,0
			C7.222,13.102,7.22,13.066,7.218,13.043z M6.202,13.688c-0.246-0.012-0.485-0.021-0.729-0.033c0,0.057,0,0.093,0,0.134
			c0.248,0.017,0.488,0.03,0.729,0.047C6.202,13.779,6.202,13.738,6.202,13.688z M8.232,12.425
			c-0.289,0.021-0.568,0.043-0.852,0.063c0,0.044,0,0.074,0,0.111c0.287-0.017,0.568-0.035,0.852-0.052
			C8.232,12.506,8.232,12.475,8.232,12.425z M6.202,13.209c-0.25,0-0.49,0-0.771,0c0.042,0.057,0.064,0.114,0.087,0.115
			c0.226,0.006,0.453,0.005,0.683,0.005C6.202,13.281,6.202,13.245,6.202,13.209z M6.204,14.411c-0.25-0.026-0.49-0.054-0.742-0.079
			c0.005,0.053,0.008,0.084,0.012,0.119c0.247,0.033,0.486,0.064,0.73,0.099C6.204,14.496,6.204,14.46,6.204,14.411z M6.202,14.87
			c0-0.048,0-0.085,0-0.132c-0.244-0.04-0.483-0.078-0.72-0.114c-0.034,0.081-0.014,0.115,0.058,0.128
			C5.759,14.788,5.977,14.83,6.202,14.87z M6.364,12.663c0.268-0.017,0.53-0.029,0.792-0.046c0.086-0.004,0.076-0.057,0.053-0.118
			c-0.281,0.021-0.56,0.043-0.845,0.063C6.364,12.598,6.364,12.629,6.364,12.663z M6.985,10.977C6.984,10.984,6.982,10.991,6.981,11
			c0.264,0.05,0.528,0.102,0.791,0.15c-0.092-0.092-0.19-0.166-0.296-0.229c-0.042-0.021-0.102-0.031-0.15-0.023
			C7.211,10.917,7.098,10.95,6.985,10.977z M6.203,14.909c-0.245-0.043-0.486-0.086-0.728-0.13
			c-0.009,0.017-0.017,0.029-0.026,0.044c0.029,0.028,0.054,0.063,0.088,0.083c0.034,0.019,0.078,0.019,0.118,0.025
			c0.181,0.035,0.362,0.07,0.549,0.106C6.203,14.986,6.203,14.952,6.203,14.909z M5.47,13.486c0.251,0,0.491,0,0.732,0
			c0-0.038,0-0.072,0-0.117c-0.246,0-0.486,0-0.732,0C5.47,13.402,5.47,13.436,5.47,13.486z M5.493,14.936
			c-0.012,0.008-0.024,0.018-0.038,0.022c0.021,0.028,0.036,0.081,0.063,0.088c0.225,0.056,0.453,0.104,0.686,0.155
			c0-0.047,0-0.082,0-0.121C5.964,15.031,5.729,14.982,5.493,14.936z M6.204,14.254c-0.247-0.021-0.486-0.044-0.725-0.064
			C5.47,14.2,5.461,14.21,5.454,14.217c0.025,0.027,0.046,0.074,0.073,0.08c0.214,0.027,0.43,0.049,0.645,0.07
			c0.01,0.001,0.02-0.006,0.032-0.01C6.204,14.327,6.204,14.3,6.204,14.254z M6.202,13.063c-0.25,0-0.49,0-0.725,0
			c-0.031,0.094,0.006,0.11,0.076,0.108c0.208-0.006,0.417-0.01,0.625-0.015c0.006,0,0.013-0.006,0.024-0.012
			C6.202,13.119,6.202,13.094,6.202,13.063z M6.752,11.391c-0.251-0.179-0.479-0.345-0.778-0.144
			C6.229,11.294,6.479,11.341,6.752,11.391z M6.204,13.52c-0.23,0-0.45,0-0.67,0.004c-0.022,0.002-0.045,0.031-0.067,0.049
			c0.023,0.016,0.046,0.044,0.07,0.044c0.213,0.013,0.425,0.021,0.639,0.028c0.01,0.002,0.02-0.004,0.029-0.008
			C6.204,13.604,6.204,13.576,6.204,13.52z M6.209,14.589c-0.25-0.032-0.49-0.065-0.73-0.098c-0.007,0.011-0.015,0.021-0.022,0.032
			c0.021,0.021,0.038,0.059,0.061,0.062c0.225,0.042,0.451,0.077,0.684,0.116C6.204,14.661,6.206,14.634,6.209,14.589z
			 M6.195,13.018c0.028-0.088,0.004-0.119-0.072-0.115c-0.197,0.014-0.393,0.021-0.59,0.031c-0.068,0.002-0.081,0.029-0.057,0.084
			C5.719,13.018,5.956,13.018,6.195,13.018z M7.194,11.284c-0.303-0.265-0.497-0.306-0.724-0.165
			C6.713,11.176,6.954,11.229,7.194,11.284z M5.315,13.814c-0.168-0.012-0.329-0.021-0.497-0.03c0,0.054,0,0.091,0,0.14
			c0.166,0.014,0.328,0.026,0.497,0.041C5.315,13.909,5.315,13.868,5.315,13.814z M6.197,12.675
			c0.006-0.017,0.014-0.032,0.021-0.049c-0.031-0.017-0.061-0.045-0.09-0.045c-0.201,0.011-0.401,0.024-0.6,0.046
			c-0.025,0.002-0.046,0.041-0.069,0.063c0.007,0.011,0.016,0.021,0.023,0.029C5.72,12.704,5.959,12.689,6.197,12.675z
			 M5.315,12.771c-0.169,0.01-0.331,0.017-0.495,0.025c0,0.051,0,0.089,0,0.139c0.17-0.012,0.333-0.021,0.501-0.031
			C5.319,12.855,5.317,12.82,5.315,12.771z M5.307,14.136c0.01-0.013,0.021-0.024,0.031-0.034c-0.023-0.035-0.044-0.098-0.073-0.103
			c-0.146-0.019-0.296-0.024-0.455-0.034c0.003,0.053,0.006,0.092,0.008,0.133C4.99,14.107,5.148,14.122,5.307,14.136z
			 M5.303,15.171c0.009-0.008,0.017-0.017,0.025-0.024c-0.017-0.037-0.025-0.101-0.049-0.106c-0.149-0.043-0.302-0.072-0.489-0.114
			c0.029,0.065,0.037,0.125,0.061,0.133C5,15.102,5.152,15.133,5.303,15.171z M4.812,13.745c0.174,0.011,0.336,0.021,0.498,0.03
			c0.008-0.012,0.018-0.021,0.025-0.03c-0.024-0.034-0.045-0.101-0.07-0.101c-0.146-0.011-0.295-0.004-0.448-0.004
			C4.815,13.667,4.814,13.699,4.812,13.745z M5.516,11.348c0.242,0.039,0.48,0.074,0.719,0.112
			C6.011,11.328,5.79,11.176,5.516,11.348z M4.817,13.46c0.149,0.007,0.295,0.017,0.44,0.017c0.021,0,0.058-0.033,0.059-0.053
			c0.001-0.021-0.03-0.063-0.049-0.063c-0.148-0.006-0.298-0.004-0.45-0.004C4.817,13.395,4.817,13.423,4.817,13.46z M5.305,14.43
			c0.009-0.007,0.018-0.014,0.027-0.02c-0.022-0.036-0.042-0.096-0.068-0.102c-0.146-0.023-0.295-0.035-0.439-0.049
			c-0.034,0.082,0.002,0.109,0.069,0.116C5.031,14.395,5.168,14.411,5.305,14.43z M18.722,15.127
			c0.019-0.255,0.051-0.268-0.228-0.243c0,0.068,0,0.138,0,0.212C18.573,15.107,18.647,15.117,18.722,15.127z M5.311,13.213
			c-0.139,0-0.277-0.003-0.415,0.002c-0.028,0.001-0.054,0.028-0.082,0.044c0.027,0.022,0.052,0.062,0.081,0.062
			c0.109,0.011,0.22,0.004,0.329,0.01C5.312,13.332,5.335,13.296,5.311,13.213z M4.796,14.657c0.024,0.052,0.032,0.098,0.05,0.103
			c0.154,0.038,0.308,0.068,0.464,0.1c0.008-0.012,0.016-0.022,0.023-0.036c-0.018-0.026-0.033-0.072-0.057-0.078
			C5.128,14.712,4.977,14.688,4.796,14.657z M5.301,14.708c0.01-0.01,0.019-0.019,0.028-0.024c-0.015-0.031-0.027-0.086-0.047-0.088
			c-0.151-0.033-0.304-0.053-0.457-0.078c-0.008,0.01-0.016,0.019-0.023,0.026c0.021,0.028,0.036,0.078,0.063,0.083
			C5.008,14.659,5.155,14.682,5.301,14.708z M5.303,15.001c0.008-0.006,0.017-0.015,0.025-0.021
			c-0.013-0.027-0.021-0.076-0.041-0.082c-0.154-0.037-0.309-0.065-0.463-0.099c-0.007,0.021-0.015,0.044-0.021,0.066
			C4.958,14.945,5.139,14.95,5.303,15.001z M5.304,14.273c0.008-0.008,0.018-0.017,0.025-0.026c-0.02-0.024-0.04-0.072-0.063-0.075
			c-0.147-0.018-0.295-0.025-0.442-0.033c-0.005,0.021-0.009,0.045-0.015,0.068C4.969,14.253,5.141,14.247,5.304,14.273z
			 M5.302,13.169c0.009-0.011,0.02-0.021,0.03-0.03c-0.028-0.022-0.054-0.063-0.083-0.063C5.125,13.073,5,13.078,4.876,13.088
			c-0.025,0.002-0.049,0.035-0.072,0.053c0.005,0.01,0.011,0.02,0.017,0.028C4.981,13.169,5.141,13.169,5.302,13.169z M4.82,13.511
			c-0.005,0.009-0.011,0.021-0.016,0.03c0.026,0.016,0.05,0.045,0.076,0.047c0.124,0.012,0.25,0.018,0.373,0.018
			c0.021,0,0.043-0.023,0.064-0.039c-0.02-0.019-0.039-0.053-0.061-0.053C5.112,13.509,4.966,13.511,4.82,13.511z M4.804,12.727
			c0.007,0.013,0.015,0.022,0.022,0.033c0.148-0.01,0.296-0.017,0.445-0.029c0.017,0,0.032-0.026,0.048-0.041
			c-0.02-0.016-0.04-0.043-0.059-0.041C5.131,12.65,5,12.658,4.87,12.671C4.845,12.674,4.825,12.707,4.804,12.727z M4.808,13.007
			c0.006,0.013,0.014,0.022,0.02,0.034c0.142,0,0.285,0.003,0.427-0.002c0.022-0.001,0.043-0.034,0.064-0.051
			c-0.021-0.014-0.044-0.034-0.067-0.033c-0.121,0-0.242,0.005-0.362,0.016C4.861,12.973,4.833,12.992,4.808,13.007z M4.813,14.4
			c0.029,0.09,0.26,0.146,0.506,0.141c-0.005-0.021-0.008-0.063-0.017-0.063C5.143,14.448,4.982,14.426,4.813,14.4z M18.727,14.286
			c-0.086,0-0.16,0-0.233,0c0,0.054,0,0.097,0,0.147c0.077,0.008,0.152,0.015,0.233,0.021
			C18.727,14.395,18.727,14.348,18.727,14.286z M18.493,13.661c0.08-0.007,0.154-0.015,0.23-0.021c0-0.058,0-0.106,0-0.16
			c-0.083,0.01-0.154,0.019-0.23,0.024C18.493,13.557,18.493,13.604,18.493,13.661z M18.501,12.917c0,0.05,0,0.097,0,0.142
			c0.074,0,0.147,0,0.222,0c0-0.06,0-0.106,0-0.16C18.652,12.902,18.585,12.909,18.501,12.917z M18.495,13.311
			c0,0.054,0,0.099,0,0.152c0.08-0.006,0.154-0.012,0.23-0.018c0-0.059,0-0.104,0-0.159C18.647,13.296,18.576,13.301,18.495,13.311z
			 M18.491,14.234c0.084,0,0.16,0,0.234,0c0-0.051,0-0.096,0-0.146c-0.082,0-0.156,0-0.234,0
			C18.491,14.141,18.491,14.186,18.491,14.234z M18.495,13.256c0.241,0.021,0.262,0.006,0.219-0.16
			c-0.072,0.006-0.143,0.014-0.219,0.021C18.495,13.165,18.495,13.206,18.495,13.256z M18.725,14.689
			c-0.08-0.006-0.152-0.01-0.229-0.018c0,0.061,0,0.105,0,0.15c0.078,0.008,0.15,0.015,0.229,0.021
			C18.725,14.795,18.725,14.752,18.725,14.689z M18.498,13.883c0,0.059,0,0.105,0,0.153c0.082,0,0.153,0,0.225,0
			c0-0.054,0-0.103,0-0.153C18.644,13.883,18.576,13.883,18.498,13.883z M18.719,12.706c-0.074,0.004-0.14,0.007-0.217,0.011
			c0,0.053,0,0.098,0,0.143C18.717,12.893,18.746,12.875,18.719,12.706z M18.725,14.498c-0.082-0.008-0.154-0.014-0.229-0.02
			c0,0.059,0,0.104,0,0.147c0.079,0.01,0.151,0.017,0.229,0.022C18.725,14.598,18.725,14.557,18.725,14.498z M6.194,12.059
			c0.074,0.15,0.15,0.303,0.224,0.455C6.477,12.293,6.287,12.2,6.194,12.059z M18.726,12.663c0-0.047,0-0.082,0-0.126
			c-0.075,0.009-0.145,0.02-0.217,0.029c0,0.039,0,0.074,0,0.115C18.585,12.674,18.653,12.669,18.726,12.663z M11.173,14.295
			c-0.003-0.005-0.004-0.008-0.006-0.01c-0.357,0-0.714,0-1.072,0c0,0.002,0,0.005,0,0.01
			C10.455,14.295,10.813,14.295,11.173,14.295z M19.75,13.477c0-0.002,0-0.004,0-0.006c-0.319,0-0.637,0-0.955,0
			c0,0.002,0,0.004,0,0.006C19.113,13.477,19.431,13.477,19.75,13.477z M10.485,13.4c0,0.002,0,0.008,0,0.011
			c0.226,0,0.453,0,0.679,0c0-0.003,0-0.009,0-0.011C10.938,13.4,10.711,13.4,10.485,13.4z M10.485,13.182
			c0.002,0.002,0.003,0.006,0.005,0.01c0.226,0,0.45,0,0.675,0c0-0.004,0-0.008,0-0.01C10.939,13.182,10.711,13.182,10.485,13.182z
			 M11.23,12.973c0-0.004-0.002-0.009-0.002-0.012c-0.226,0-0.452,0-0.676,0c0,0.003,0,0.008,0,0.012
			C10.777,12.973,11.003,12.973,11.23,12.973z M11.277,12.75c0-0.003,0-0.006,0-0.009c-0.217,0-0.435,0-0.652,0
			c0,0.003,0,0.006,0,0.009C10.843,12.75,11.06,12.75,11.277,12.75z M10.42,13.622c0,0.003,0,0.006,0,0.011c0.221,0,0.443,0,0.664,0
			c0-0.005,0-0.008,0-0.011C10.863,13.622,10.642,13.622,10.42,13.622z M9.625,12.497c0,0.004,0,0.008,0,0.012
			c0.222,0,0.444,0,0.667,0c0-0.004,0-0.008,0-0.012C10.069,12.497,9.847,12.497,9.625,12.497z M10.688,12.52
			c0,0.002,0,0.006,0,0.01c0.221,0,0.442,0,0.663,0c0-0.004,0-0.008,0-0.01C11.13,12.52,10.909,12.52,10.688,12.52z M11.027,14.734
			c0.002-0.004,0.004-0.008,0.005-0.01c-0.219,0-0.436,0-0.654,0c0,0.002,0,0.006,0,0.01C10.594,14.734,10.811,14.734,11.027,14.734
			z M10.2,12.729c0.001-0.004,0.003-0.006,0.004-0.011c-0.212,0-0.425,0-0.638,0c0,0.005,0,0.007,0,0.011
			C9.778,12.729,9.989,12.729,10.2,12.729z M10.132,12.951c0-0.006-0.001-0.01-0.001-0.014c-0.215,0-0.429,0-0.644,0
			c0,0.004,0,0.008,0,0.014C9.701,12.951,9.917,12.951,10.132,12.951z M10.372,13.841c0,0.005,0,0.009-0.001,0.013
			c0.209,0,0.419,0,0.627,0c0-0.004,0-0.008,0-0.013C10.791,13.841,10.582,13.841,10.372,13.841z M9.492,13.158
			c-0.001,0.003-0.001,0.008-0.002,0.012c0.206,0,0.411,0,0.616,0c0-0.004,0-0.009,0-0.012C9.901,13.158,9.697,13.158,9.492,13.158z
			 M9.486,13.378c0,0.004,0,0.008,0,0.011c0.2,0,0.4,0,0.6,0c0-0.003,0-0.007,0-0.011C9.886,13.378,9.687,13.378,9.486,13.378z
			 M10.024,13.611c0-0.006,0-0.01,0-0.012c-0.177,0-0.356,0-0.535,0c0,0.002,0,0.006,0,0.012
			C9.668,13.611,9.846,13.611,10.024,13.611z M19.194,14.24c0,0.003,0,0.006,0,0.011c0.162,0,0.325,0,0.489,0
			c0-0.005,0-0.008,0-0.011C19.52,14.24,19.357,14.24,19.194,14.24z"/>
		
			<linearGradient id="SVGID_2_" gradientUnits="userSpaceOnUse" x1="602.7632" y1="837.6416" x2="602.7632" y2="828.9213" gradientTransform="matrix(1 0 0 1 -571.3203 -821.9199)">
			<stop  offset="0.0051" style="stop-color:#5DCAC8"/>
			<stop  offset="0.9796" style="stop-color:#4292E2"/>
		</linearGradient>
		<path fill="url(#SVGID_2_)" d="M37.052,13.781c0-0.328,0-0.641,0-0.953c0-0.514-0.004-1.029,0.001-1.542
			c0.002-0.074-0.021-0.108-0.093-0.134c-0.217-0.077-0.431-0.164-0.66-0.252c0,1.146,0,2.279,0,3.418
			c-0.406-0.039-0.799-0.078-1.192-0.116c-0.03-0.004-0.06-0.015-0.088-0.013c-0.117,0.013-0.151-0.043-0.117-0.156
			c0.038,0,0.081,0,0.127,0c0.011-0.034,0.019-0.064,0.03-0.106c0.318,0.048,0.639,0.095,0.967,0.144c0-1.061,0-2.105,0-3.163
			c-0.254,0.106-0.5,0.208-0.744,0.313c-0.019,0.008-0.037,0.045-0.037,0.068c-0.002,0.786-0.002,1.57-0.002,2.369
			c0.146,0.039,0.289,0.086,0.435,0.113c0.114,0.022,0.163,0.067,0.112,0.205c-0.299-0.053-0.601-0.106-0.914-0.162
			c0.015,0.131-0.088,0.084-0.158,0.103c0,0.063,0,0.127,0,0.203c-0.074,0-0.139,0-0.215,0c0,0.298,0,0.588,0,0.894
			c-1.642,0-3.271,0-4.91,0c0-0.77,0-1.55,0-2.353c-0.174,0.06-0.338,0.108-0.5,0.172c-0.021,0.009-0.028,0.076-0.029,0.115
			c-0.001,0.637,0,1.271,0,1.909c0,0.045,0,0.094,0,0.146c-0.137,0-0.259,0-0.391,0c-0.01-0.991,0.164-1.961,0.234-2.952
			c0.152,0.018,0.291,0.032,0.453,0.051c0.021-0.281,0.044-0.555,0.064-0.824c-0.166,0.149-0.328,0.295-0.502,0.451
			c0.022-0.049,0.037-0.093,0.065-0.123c0.113-0.129,0.231-0.254,0.343-0.398c-0.162,0.042-0.324,0.084-0.479,0.124
			c0.037,0.077,0.072,0.155,0.109,0.231c-0.01,0.006-0.019,0.011-0.028,0.018c-0.171-0.253-0.445-0.307-0.712-0.355
			c-0.655-0.125-1.313-0.135-1.965,0.018c-0.261,0.061-0.515,0.146-0.692,0.388c-0.025-0.108,0.025-0.169,0.084-0.224
			c0.192-0.172,0.434-0.245,0.679-0.29c0.684-0.132,1.369-0.146,2.05,0.034c0.066,0.02,0.139,0.035,0.197,0.066
			c0.113,0.064,0.223,0.061,0.344,0.024c0.146-0.046,0.295-0.084,0.447-0.114c0.113-0.021,0.059-0.127,0.109-0.186
			c0.031,0,0.072,0,0.127,0c-0.053,0.19,0.098,0.269,0.209,0.367c0.139,0.119,0.275,0.243,0.418,0.359
			c0.027,0.021,0.088,0.031,0.122,0.02c0.137-0.055,0.267-0.125,0.403-0.179c0.07-0.028,0.098-0.071,0.101-0.147
			c0.001-0.125,0.004-0.125,0.132-0.113c0.006,0.007,0.016,0.012,0.014,0.018c-0.035,0.193,0.072,0.313,0.219,0.412
			c0.107,0.078,0.201,0.172,0.306,0.252c0.026,0.019,0.082,0.022,0.112,0.012c0.084-0.039,0.156-0.099,0.242-0.129
			c0.127-0.047,0.175-0.135,0.166-0.261c-0.002-0.026,0.01-0.057,0.015-0.089c0.043,0,0.077,0,0.119,0
			c0.005,0.021,0.016,0.041,0.012,0.061c-0.021,0.168,0.056,0.274,0.188,0.369c0.233,0.166,0.455,0.348,0.676,0.53
			c0.1,0.083,0.214,0.085,0.326,0.097c0.291,0.031,0.584,0.059,0.882,0.088c0,0.054,0,0.1,0,0.168
			c-1.536-0.118-3.067-0.239-4.61-0.359c0,0.061,0,0.118,0,0.191c0.167,0.023,0.333,0.05,0.498,0.072
			c0.071-0.162,0.071-0.162,0.182-0.132c-0.01,0.044-0.019,0.089-0.039,0.171c0.172-0.109,0.326-0.211,0.533-0.131
			c-0.076,0.049-0.141,0.092-0.228,0.148c0.239,0.033,0.456,0.063,0.671,0.093c0.043,0.006,0.087,0.011,0.129,0.021
			c0.092,0.021,0.146-0.008,0.18-0.104c0.037-0.117,0.045-0.114,0.176-0.082c-0.021,0.063-0.043,0.124-0.072,0.209
			c0.201-0.082,0.352-0.294,0.596-0.159c-0.098,0.061-0.195,0.124-0.32,0.204c0.39,0.052,0.748,0.101,1.117,0.147
			c0.023-0.063,0.053-0.125,0.07-0.19c0.023-0.095,0.068-0.133,0.173-0.084c-0.005,0.022-0.012,0.05-0.022,0.099
			c0.119-0.087,0.232-0.134,0.383-0.072c-0.143,0.09-0.274,0.175-0.43,0.272c0.369,0.048,0.713,0.091,1.06,0.138
			c0.028,0.166-0.043,0.342,0.032,0.481c-0.01,0.067-0.021,0.126-0.028,0.188c0.073-0.004,0.073-0.004,0.09-0.139
			c0.04-0.005,0.082-0.011,0.13-0.018c0.004-0.041,0.01-0.079,0.014-0.129c0.141,0,0.279,0,0.438,0c0-0.053,0-0.094,0-0.135
			c0-0.711,0.002-1.42-0.003-2.129c-0.001-0.14,0.078-0.225,0.183-0.271c0.271-0.122,0.543-0.243,0.825-0.333
			c0.12-0.039,0.272-0.03,0.396,0.006c0.248,0.074,0.488,0.178,0.729,0.276c0.189,0.076,0.215,0.139,0.215,0.297
			c-0.008,0.785-0.002,1.57-0.002,2.359c0,0.031-0.006,0.063-0.009,0.104C37.228,13.781,37.145,13.781,37.052,13.781z
			 M30.216,11.741c-0.211-0.177-0.402-0.339-0.598-0.502c0,0.266,0,0.514,0,0.778C29.826,11.924,30.009,11.838,30.216,11.741z
			 M32.973,12.471c0.002-0.01,0.003-0.017,0.005-0.023c-0.253-0.197-0.505-0.395-0.766-0.596c0,0.19,0,0.369,0,0.547
			C32.474,12.421,32.722,12.445,32.973,12.471z M31.02,12.239c0.169-0.081,0.323-0.154,0.489-0.232
			c-0.17-0.144-0.325-0.272-0.489-0.411C31.02,11.814,31.02,12.016,31.02,12.239z M29.626,12.098
			c0.004,0.012,0.006,0.021,0.008,0.032c0.127,0.011,0.254,0.022,0.379,0.032c0.018,0.001,0.037-0.008,0.051-0.02
			c0.102-0.084,0.199-0.17,0.322-0.272c-0.063-0.021-0.108-0.056-0.137-0.044C30.041,11.911,29.835,12.006,29.626,12.098z
			 M30.753,12.249c0.004-0.009,0.009-0.019,0.013-0.028c-0.11-0.094-0.22-0.188-0.331-0.285c-0.092,0.078-0.18,0.153-0.287,0.246
			C30.369,12.207,30.56,12.229,30.753,12.249z M31.685,12.134c-0.053-0.018-0.117-0.06-0.156-0.045
			c-0.134,0.052-0.26,0.122-0.404,0.194c0.094,0.013,0.168,0.017,0.242,0.031C31.507,12.346,31.614,12.305,31.685,12.134z
			 M30.82,11.617c-0.121,0.104-0.221,0.183-0.324,0.27c0.094,0.081,0.176,0.152,0.271,0.234C30.785,11.953,30.8,11.803,30.82,11.617
			z M32.005,11.941c-0.006-0.004-0.016-0.008-0.021-0.01c-0.061,0.07-0.121,0.143-0.186,0.217c0.058,0.047,0.106,0.088,0.173,0.143
			C31.985,12.16,31.996,12.05,32.005,11.941z M31.891,12.363c0.001-0.01,0.004-0.018,0.007-0.025
			c-0.05-0.041-0.098-0.082-0.15-0.127c-0.035,0.044-0.063,0.08-0.099,0.127C31.739,12.348,31.815,12.354,31.891,12.363z
			 M31.912,11.898c-0.007-0.006-0.01-0.012-0.016-0.017c-0.079,0.043-0.159,0.085-0.25,0.134c0.035,0.031,0.063,0.059,0.093,0.084
			C31.803,12.025,31.858,11.964,31.912,11.898z M30.671,11.656c-0.004-0.01-0.01-0.018-0.017-0.026
			c-0.096,0.043-0.19,0.087-0.288,0.13C30.535,11.868,30.565,11.675,30.671,11.656z"/>
		
			<linearGradient id="SVGID_3_" gradientUnits="userSpaceOnUse" x1="596.5347" y1="837.6396" x2="596.5347" y2="828.9222" gradientTransform="matrix(1 0 0 1 -571.3203 -821.9199)">
			<stop  offset="0.0051" style="stop-color:#5DCAC8"/>
			<stop  offset="0.9796" style="stop-color:#4292E2"/>
		</linearGradient>
		<path fill="url(#SVGID_3_)" d="M24.565,15c-0.136,0-0.256,0-0.385,0c-0.038-1.012-0.074-2.021-0.11-3.048
			c0.626,0.05,1.24,0.096,1.855,0.146c0.027-0.158,0.058-0.177,0.34-0.193c0.031,1.029,0.064,2.058,0.097,3.094
			c-0.146,0-0.266,0-0.397,0c-0.014-0.18-0.028-0.359-0.041-0.541c-0.026-0.398-0.046-0.799-0.075-1.198
			c-0.018-0.271-0.042-0.54-0.067-0.81c-0.002-0.022-0.035-0.061-0.055-0.063c-0.401-0.033-0.804-0.063-1.228-0.096
			C24.521,13.199,24.542,14.1,24.565,15z"/>
		
			<linearGradient id="SVGID_4_" gradientUnits="userSpaceOnUse" x1="613.5601" y1="837.6416" x2="613.5601" y2="828.9189" gradientTransform="matrix(1 0 0 1 -571.3203 -821.9199)">
			<stop  offset="0.0051" style="stop-color:#5DCAC8"/>
			<stop  offset="0.9796" style="stop-color:#4292E2"/>
		</linearGradient>
		<path fill="url(#SVGID_4_)" d="M40.423,13.794c0.002-0.062,0.004-0.104,0.006-0.155c0.3,0,0.592,0,0.886,0
			c0.197,0,0.197,0,0.254-0.188c0.007-0.021,0.013-0.043,0.019-0.063c0.055-0.188,0.055-0.188,0.258-0.229
			c-0.04-0.222-0.081-0.445-0.124-0.675c0.342,0,0.624-0.156,0.934-0.314c0,0.281,0,0.531,0,0.786c0.082,0,0.146,0,0.226,0
			c0-0.252,0-0.499,0-0.79c0.142,0.07,0.254,0.13,0.369,0.188c0.051,0.023,0.103,0.053,0.155,0.066
			c0.103,0.027,0.206,0.047,0.312,0.068c0.029,0.005,0.062,0,0.1,0c-0.033,0.168-0.072,0.336-0.102,0.504
			c-0.016,0.085-0.053,0.191,0.103,0.193c0.021,0,0.054,0.03,0.063,0.056c0.058,0.18,0.113,0.36,0.175,0.565
			c-0.167-0.029-0.315-0.056-0.464-0.084c-0.245-0.047-0.488-0.109-0.733-0.137c-0.142-0.018-0.289,0.02-0.433,0.045
			c-0.283,0.049-0.566,0.11-0.854,0.157c-0.074,0.015-0.152,0.008-0.23,0.008C41.041,13.794,40.739,13.794,40.423,13.794z"/>
		
			<linearGradient id="SVGID_5_" gradientUnits="userSpaceOnUse" x1="613.5229" y1="837.6406" x2="613.5229" y2="828.9235" gradientTransform="matrix(1 0 0 1 -571.3203 -821.9199)">
			<stop  offset="0.0051" style="stop-color:#5DCAC8"/>
			<stop  offset="0.9796" style="stop-color:#4292E2"/>
		</linearGradient>
		<path fill="url(#SVGID_5_)" d="M44.408,15.003c-0.037,0-0.072,0-0.109,0c-1.032,0-2.064,0.001-3.098,0
			c-0.15,0-0.301-0.017-0.449-0.014c-0.113,0.001-0.228,0.03-0.34,0.032c-0.061,0.002-0.166-0.019-0.177-0.049
			c-0.022-0.084-0.012-0.181-0.002-0.271c0.002-0.015,0.067-0.029,0.104-0.029c0.254,0.004,0.506,0.013,0.76,0.017
			c0.033,0.002,0.068-0.013,0.104-0.018c-0.002-0.013-0.002-0.021-0.004-0.033c-0.033-0.005-0.066-0.01-0.101-0.01
			c-0.31,0-0.617,0-0.925,0.001c-0.203,0-0.203,0-0.178-0.217c0.025-0.003,0.053-0.009,0.08-0.009c0.223,0,0.441-0.01,0.661,0.003
			c0.278,0.01,0.548-0.027,0.815-0.093c0.377-0.09,0.762-0.157,1.143-0.229c0.063-0.011,0.131,0.001,0.195,0.015
			c0.395,0.075,0.789,0.16,1.188,0.23c0.127,0.021,0.186,0.08,0.198,0.219c-0.142-0.025-0.28-0.05-0.421-0.074
			c-0.327-0.063-0.65-0.137-0.98-0.187c-0.131-0.019-0.27,0.011-0.4,0.034c-0.389,0.066-0.776,0.145-1.166,0.218
			c-0.021,0.006-0.043,0.017-0.064,0.022c0,0.011,0.002,0.019,0.002,0.026c0.033-0.002,0.064-0.002,0.098-0.009
			c0.432-0.083,0.863-0.159,1.293-0.252c0.16-0.033,0.305,0.015,0.453,0.043c0.355,0.066,0.711,0.145,1.067,0.211
			c0.101,0.02,0.171,0.052,0.183,0.163c0.004,0.032,0.02,0.062,0.035,0.11c-0.154-0.027-0.304-0.054-0.449-0.082
			c-0.359-0.067-0.717-0.154-1.08-0.201c-0.165-0.021-0.346,0.029-0.518,0.06c-0.373,0.067-0.74,0.144-1.111,0.218
			c-0.026,0.004-0.051,0.019-0.078,0.027c0.002,0.012,0.006,0.021,0.008,0.033c0.051-0.006,0.102-0.012,0.152-0.02
			c0.471-0.093,0.938-0.195,1.41-0.271c0.139-0.021,0.289,0.027,0.434,0.055c0.398,0.077,0.797,0.156,1.195,0.238
			c0.031,0.008,0.059,0.038,0.088,0.056C44.417,14.982,44.412,14.994,44.408,15.003z"/>
		
			<linearGradient id="SVGID_6_" gradientUnits="userSpaceOnUse" x1="597.978" y1="837.6406" x2="597.978" y2="828.923" gradientTransform="matrix(1 0 0 1 -571.3203 -821.9199)">
			<stop  offset="0.0051" style="stop-color:#5DCAC8"/>
			<stop  offset="0.9796" style="stop-color:#4292E2"/>
		</linearGradient>
		<path fill="url(#SVGID_6_)" d="M26.307,11.359c0.211-0.022,0.424-0.047,0.651-0.071c0.017,1.252,0.033,2.481,0.051,3.72
			c-0.204,0-0.397,0-0.59,0C26.381,13.794,26.345,12.589,26.307,11.359z"/>
		
			<linearGradient id="SVGID_7_" gradientUnits="userSpaceOnUse" x1="598.6733" y1="837.6426" x2="598.6733" y2="828.9171" gradientTransform="matrix(1 0 0 1 -571.3203 -821.9199)">
			<stop  offset="0.0051" style="stop-color:#5DCAC8"/>
			<stop  offset="0.9796" style="stop-color:#4292E2"/>
		</linearGradient>
		<path fill="url(#SVGID_7_)" d="M27.681,11.279c-0.02,1.26-0.037,2.482-0.055,3.718c-0.178,0-0.362,0-0.556,0
			c-0.002-0.017-0.008-0.031-0.008-0.048c-0.008-0.867-0.015-1.735-0.022-2.602c-0.002-0.32-0.006-0.639-0.016-0.959
			c-0.003-0.082,0.023-0.111,0.104-0.111C27.316,11.283,27.503,11.279,27.681,11.279z"/>
		
			<linearGradient id="SVGID_8_" gradientUnits="userSpaceOnUse" x1="586.8315" y1="837.6416" x2="586.8315" y2="828.9125" gradientTransform="matrix(1 0 0 1 -571.3203 -821.9199)">
			<stop  offset="0.0051" style="stop-color:#5DCAC8"/>
			<stop  offset="0.9796" style="stop-color:#4292E2"/>
		</linearGradient>
		<path fill="url(#SVGID_8_)" d="M17.448,14.751c0,0.181,0,0.337,0,0.502c-1.292,0.146-2.577,0.29-3.874,0.438
			c0-0.187,0-0.364,0-0.557C14.862,15.008,16.15,14.881,17.448,14.751z"/>
		
			<linearGradient id="SVGID_9_" gradientUnits="userSpaceOnUse" x1="599.3228" y1="837.6396" x2="599.3228" y2="828.9219" gradientTransform="matrix(1 0 0 1 -571.3203 -821.9199)">
			<stop  offset="0.0051" style="stop-color:#5DCAC8"/>
			<stop  offset="0.9796" style="stop-color:#4292E2"/>
		</linearGradient>
		<path fill="url(#SVGID_9_)" d="M27.748,11.307c0.205,0.021,0.385,0.041,0.566,0.063c-0.044,1.213-0.204,2.415-0.121,3.635
			c-0.097,0-0.174,0-0.251,0c-0.075,0-0.151,0-0.251,0C27.708,13.775,27.728,12.552,27.748,11.307z"/>
		
			<linearGradient id="SVGID_10_" gradientUnits="userSpaceOnUse" x1="599.8608" y1="837.6406" x2="599.8608" y2="828.9191" gradientTransform="matrix(1 0 0 1 -571.3203 -821.9199)">
			<stop  offset="0.0051" style="stop-color:#5DCAC8"/>
			<stop  offset="0.9796" style="stop-color:#4292E2"/>
		</linearGradient>
		<path fill="url(#SVGID_10_)" d="M28.578,15c-0.119,0-0.225,0-0.341,0c-0.028-1.2,0.062-2.391,0.147-3.596
			c0.178,0.022,0.322,0.095,0.441,0.21c0.026,0.024,0.025,0.087,0.022,0.132c-0.022,0.286-0.05,0.57-0.073,0.855
			c-0.043,0.498-0.084,0.994-0.125,1.49C28.625,14.393,28.601,14.691,28.578,15z"/>
		
			<linearGradient id="SVGID_11_" gradientUnits="userSpaceOnUse" x1="608.6079" y1="837.6416" x2="608.6079" y2="828.9128" gradientTransform="matrix(1 0 0 1 -571.3203 -821.9199)">
			<stop  offset="0.0051" style="stop-color:#5DCAC8"/>
			<stop  offset="0.9796" style="stop-color:#4292E2"/>
		</linearGradient>
		<path fill="url(#SVGID_11_)" d="M37.267,14.411c0,0.075,0,0.139,0,0.219c-0.321,0-0.643,0-0.961,0
			c-0.002,0.015-0.003,0.028-0.006,0.043c0.035,0.007,0.072,0.021,0.109,0.021c0.338,0.002,0.676,0,1.012,0
			c0.334,0,0.668,0,1.004-0.002c0.107-0.002,0.219-0.012,0.328-0.018c0.063-0.004,0.095,0.021,0.088,0.09
			c-0.002,0.024-0.002,0.053-0.002,0.077c0,0.166-0.025,0.198-0.194,0.185c-0.919-0.082-1.841-0.015-2.761-0.037
			c-0.047-0.002-0.094,0-0.151,0c0-0.213,0-0.42,0-0.646c0.179,0.031,0.362-0.056,0.538,0.053c0.031,0.018,0.078,0.01,0.118,0.01
			c0.254,0.004,0.508,0.004,0.761,0.004C37.186,14.407,37.221,14.41,37.267,14.411z"/>
		
			<linearGradient id="SVGID_12_" gradientUnits="userSpaceOnUse" x1="584.103" y1="837.6377" x2="584.103" y2="828.924" gradientTransform="matrix(1 0 0 1 -571.3203 -821.9199)">
			<stop  offset="0.0051" style="stop-color:#5DCAC8"/>
			<stop  offset="0.9796" style="stop-color:#4292E2"/>
		</linearGradient>
		<path fill="url(#SVGID_12_)" d="M12.309,12.354c-0.065-0.405-0.13-0.806-0.197-1.224c0.447,0.033,0.883,0.067,1.342,0.104
			c-0.125,0.164-0.241,0.313-0.356,0.464c-0.144,0.186-0.295,0.364-0.43,0.557c-0.063,0.091-0.134,0.123-0.238,0.106
			C12.389,12.355,12.35,12.357,12.309,12.354z"/>
		
			<linearGradient id="SVGID_13_" gradientUnits="userSpaceOnUse" x1="614.0718" y1="837.6455" x2="614.0718" y2="828.9214" gradientTransform="matrix(1 0 0 1 -571.3203 -821.9199)">
			<stop  offset="0.0051" style="stop-color:#5DCAC8"/>
			<stop  offset="0.9796" style="stop-color:#4292E2"/>
		</linearGradient>
		<path fill="url(#SVGID_13_)" d="M42.789,2.512c0.006,0.076,0.012,0.151,0.017,0.227c0.007,0.194,0.012,0.388,0.019,0.583
			c0.004,0.084,0.002,0.16,0.075,0.237c0.05,0.05,0.022,0.166,0.042,0.251c0.008,0.036,0.027,0.085,0.057,0.097
			c0.188,0.074,0.182,0.071,0.146,0.272c-0.033,0.18-0.048,0.363-0.069,0.544C43.07,4.752,43.066,4.781,43.065,4.8
			c-0.104,0.01-0.202,0.027-0.302,0.025c-0.09,0-0.182-0.018-0.289-0.031c-0.02-0.137-0.036-0.301-0.063-0.462
			c-0.015-0.077-0.045-0.152-0.061-0.229c-0.016-0.071-0.035-0.149,0.077-0.167c0.125-0.021,0.185-0.084,0.172-0.224
			c-0.005-0.064,0.056-0.132,0.084-0.199c0.017-0.034,0.032-0.071,0.036-0.107c0.011-0.283,0.02-0.565,0.029-0.847
			c0-0.016,0.004-0.033,0.008-0.049C42.765,2.512,42.777,2.512,42.789,2.512z"/>
		
			<linearGradient id="SVGID_14_" gradientUnits="userSpaceOnUse" x1="613.4155" y1="837.6406" x2="613.4155" y2="828.9243" gradientTransform="matrix(1 0 0 1 -571.3203 -821.9199)">
			<stop  offset="0.0051" style="stop-color:#5DCAC8"/>
			<stop  offset="0.9796" style="stop-color:#4292E2"/>
		</linearGradient>
		<path fill="url(#SVGID_14_)" d="M44.196,14.305c-0.187-0.033-0.362-0.07-0.543-0.103c-0.28-0.056-0.558-0.121-0.84-0.157
			c-0.129-0.016-0.267,0.034-0.399,0.057c-0.32,0.058-0.646,0.098-0.959,0.186c-0.287,0.08-0.57,0.046-0.855,0.056
			c-0.2,0.009-0.4,0.001-0.605,0.001c0-0.078,0-0.143,0-0.219c0.08,0,0.157,0.001,0.232,0c0.299-0.002,0.6-0.04,0.895-0.035
			c0.403,0.008,0.789-0.076,1.174-0.152c0.304-0.062,0.595-0.084,0.898-0.011c0.276,0.069,0.559,0.123,0.84,0.163
			C44.167,14.107,44.183,14.188,44.196,14.305z"/>
		
			<linearGradient id="SVGID_15_" gradientUnits="userSpaceOnUse" x1="585.6411" y1="837.6445" x2="585.6411" y2="828.9158" gradientTransform="matrix(1 0 0 1 -571.3203 -821.9199)">
			<stop  offset="0.0051" style="stop-color:#5DCAC8"/>
			<stop  offset="0.9796" style="stop-color:#4292E2"/>
		</linearGradient>
		<path fill="url(#SVGID_15_)" d="M14.913,11.346c-0.229,0.284-0.442,0.549-0.656,0.813c-0.037,0.046-0.08,0.087-0.11,0.138
			c-0.066,0.11-0.159,0.139-0.288,0.102c-0.042-0.371-0.085-0.748-0.129-1.143C14.121,11.285,14.505,11.314,14.913,11.346z"/>
		
			<linearGradient id="SVGID_16_" gradientUnits="userSpaceOnUse" x1="614.6685" y1="837.6455" x2="614.6685" y2="828.9233" gradientTransform="matrix(1 0 0 1 -571.3203 -821.9199)">
			<stop  offset="0.0051" style="stop-color:#5DCAC8"/>
			<stop  offset="0.9796" style="stop-color:#4292E2"/>
		</linearGradient>
		<path fill="url(#SVGID_16_)" d="M43.814,6.183c-0.04,0.261-0.083,0.538-0.128,0.818c-0.159-0.041-0.306-0.066-0.431-0.17
			c-0.104-0.087-0.237-0.138-0.373-0.211c0-0.253,0-0.526,0-0.818c0.139,0.029,0.254,0.092,0.344,0.185
			c0.066,0.066,0.139,0.096,0.227,0.112c0.084,0.016,0.16,0.05,0.241,0.072C43.728,6.181,43.767,6.179,43.814,6.183z"/>
		
			<linearGradient id="SVGID_17_" gradientUnits="userSpaceOnUse" x1="614.6694" y1="837.6406" x2="614.6694" y2="828.9208" gradientTransform="matrix(1 0 0 1 -571.3203 -821.9199)">
			<stop  offset="0.0051" style="stop-color:#5DCAC8"/>
			<stop  offset="0.9796" style="stop-color:#4292E2"/>
		</linearGradient>
		<path fill="url(#SVGID_17_)" d="M42.884,11.611c0-0.243,0-0.52,0-0.803c0.142,0.019,0.248,0.092,0.339,0.18
			c0.069,0.066,0.146,0.099,0.239,0.115c0.08,0.017,0.158,0.051,0.24,0.074c0.033,0.01,0.07,0.01,0.111,0.016
			c-0.04,0.255-0.083,0.521-0.127,0.803c-0.137-0.049-0.273-0.043-0.395-0.146C43.179,11.754,43.033,11.695,42.884,11.611z"/>
		
			<linearGradient id="SVGID_18_" gradientUnits="userSpaceOnUse" x1="614.6694" y1="837.6514" x2="614.6694" y2="828.92" gradientTransform="matrix(1 0 0 1 -571.3203 -821.9199)">
			<stop  offset="0.0051" style="stop-color:#5DCAC8"/>
			<stop  offset="0.9796" style="stop-color:#4292E2"/>
		</linearGradient>
		<path fill="url(#SVGID_18_)" d="M43.814,8.185c-0.04,0.254-0.083,0.52-0.126,0.791c-0.155-0.03-0.296-0.056-0.421-0.158
			c-0.109-0.087-0.246-0.14-0.383-0.213c0-0.254,0-0.528,0-0.812c0.158,0.029,0.27,0.12,0.381,0.216
			c0.042,0.034,0.097,0.053,0.148,0.071c0.086,0.03,0.174,0.053,0.262,0.077C43.721,8.169,43.766,8.175,43.814,8.185z"/>
		
			<linearGradient id="SVGID_19_" gradientUnits="userSpaceOnUse" x1="614.6675" y1="837.6494" x2="614.6675" y2="828.9201" gradientTransform="matrix(1 0 0 1 -571.3203 -821.9199)">
			<stop  offset="0.0051" style="stop-color:#5DCAC8"/>
			<stop  offset="0.9796" style="stop-color:#4292E2"/>
		</linearGradient>
		<path fill="url(#SVGID_19_)" d="M42.882,9.611c0-0.254,0-0.525,0-0.808c0.15,0.027,0.257,0.109,0.365,0.195
			c0.053,0.041,0.121,0.07,0.188,0.094c0.082,0.031,0.165,0.052,0.252,0.076c0.036,0.009,0.076,0.009,0.124,0.017
			c-0.038,0.253-0.083,0.524-0.126,0.804c-0.152-0.051-0.303-0.057-0.43-0.169C43.162,9.728,43.02,9.685,42.882,9.611z"/>
		
			<linearGradient id="SVGID_20_" gradientUnits="userSpaceOnUse" x1="613.5073" y1="837.6582" x2="613.5073" y2="828.9223" gradientTransform="matrix(1 0 0 1 -571.3203 -821.9199)">
			<stop  offset="0.0051" style="stop-color:#5DCAC8"/>
			<stop  offset="0.9796" style="stop-color:#4292E2"/>
		</linearGradient>
		<path fill="url(#SVGID_20_)" d="M41.857,7.024c-0.05-0.301-0.094-0.57-0.145-0.855c0.033,0.015,0.057,0.034,0.064,0.029
			c0.165-0.107,0.387-0.059,0.542-0.211c0.085-0.083,0.202-0.133,0.306-0.198c0.01,0.008,0.021,0.018,0.029,0.025
			c0,0.197-0.009,0.394,0.004,0.589c0.01,0.159,0,0.277-0.191,0.318c-0.084,0.018-0.152,0.103-0.231,0.142
			C42.119,6.921,41.998,6.965,41.857,7.024z"/>
		
			<linearGradient id="SVGID_21_" gradientUnits="userSpaceOnUse" x1="614.6694" y1="837.6367" x2="614.6694" y2="828.9252" gradientTransform="matrix(1 0 0 1 -571.3203 -821.9199)">
			<stop  offset="0.0051" style="stop-color:#5DCAC8"/>
			<stop  offset="0.9796" style="stop-color:#4292E2"/>
		</linearGradient>
		<path fill="url(#SVGID_21_)" d="M43.688,10.982c-0.147-0.041-0.291-0.039-0.413-0.153c-0.104-0.097-0.252-0.146-0.391-0.222
			c0-0.246,0-0.51,0-0.791c0.141,0.012,0.248,0.084,0.341,0.167c0.071,0.064,0.146,0.1,0.241,0.112
			c0.074,0.006,0.145,0.047,0.218,0.069c0.04,0.013,0.081,0.019,0.13,0.026C43.774,10.441,43.732,10.706,43.688,10.982z"/>
		
			<linearGradient id="SVGID_22_" gradientUnits="userSpaceOnUse" x1="613.5044" y1="837.6357" x2="613.5044" y2="828.926" gradientTransform="matrix(1 0 0 1 -571.3203 -821.9199)">
			<stop  offset="0.0051" style="stop-color:#5DCAC8"/>
			<stop  offset="0.9796" style="stop-color:#4292E2"/>
		</linearGradient>
		<path fill="url(#SVGID_22_)" d="M42.652,11.602c-0.168,0.104-0.309,0.205-0.457,0.283c-0.104,0.055-0.225,0.078-0.35,0.119
			c-0.045-0.283-0.086-0.546-0.129-0.8c0.05-0.011,0.084-0.017,0.119-0.024c0.24-0.063,0.471-0.144,0.66-0.315
			c0.037-0.031,0.096-0.04,0.155-0.062C42.652,11.092,42.652,11.361,42.652,11.602z"/>
		
			<linearGradient id="SVGID_23_" gradientUnits="userSpaceOnUse" x1="613.5054" y1="837.6436" x2="613.5054" y2="828.9207" gradientTransform="matrix(1 0 0 1 -571.3203 -821.9199)">
			<stop  offset="0.0051" style="stop-color:#5DCAC8"/>
			<stop  offset="0.9796" style="stop-color:#4292E2"/>
		</linearGradient>
		<path fill="url(#SVGID_23_)" d="M41.843,10.988c-0.045-0.277-0.086-0.541-0.127-0.805c0.018-0.002,0.022-0.002,0.029-0.004
			c0.176-0.054,0.363-0.084,0.522-0.17c0.124-0.066,0.229-0.166,0.387-0.201c0,0.146,0,0.278,0,0.414c0,0.137,0,0.271,0,0.37
			c-0.176,0.113-0.327,0.222-0.491,0.308C42.071,10.948,41.957,10.959,41.843,10.988z"/>
		
			<linearGradient id="SVGID_24_" gradientUnits="userSpaceOnUse" x1="613.5044" y1="837.6338" x2="613.5044" y2="828.9238" gradientTransform="matrix(1 0 0 1 -571.3203 -821.9199)">
			<stop  offset="0.0051" style="stop-color:#5DCAC8"/>
			<stop  offset="0.9796" style="stop-color:#4292E2"/>
		</linearGradient>
		<path fill="url(#SVGID_24_)" d="M42.652,8.8c0,0.287,0,0.559,0,0.799c-0.165,0.103-0.307,0.203-0.458,0.283
			c-0.104,0.052-0.228,0.073-0.351,0.112c-0.043-0.283-0.084-0.551-0.127-0.815c0.037,0.003,0.068,0.015,0.096,0.007
			c0.125-0.032,0.249-0.067,0.369-0.105c0.033-0.011,0.068-0.04,0.097-0.065C42.382,8.921,42.498,8.837,42.652,8.8z"/>
		
			<linearGradient id="SVGID_25_" gradientUnits="userSpaceOnUse" x1="613.5103" y1="837.6484" x2="613.5103" y2="828.9202" gradientTransform="matrix(1 0 0 1 -571.3203 -821.9199)">
			<stop  offset="0.0051" style="stop-color:#5DCAC8"/>
			<stop  offset="0.9796" style="stop-color:#4292E2"/>
		</linearGradient>
		<path fill="url(#SVGID_25_)" d="M41.716,8.179c0.045,0,0.074,0.006,0.098-0.001c0.124-0.032,0.247-0.065,0.367-0.103
			c0.029-0.009,0.055-0.031,0.078-0.052c0.111-0.102,0.229-0.193,0.396-0.232c0,0.142,0,0.272,0,0.403
			c0,0.056-0.006,0.111,0.001,0.166c0.022,0.174,0.004,0.314-0.212,0.35c-0.062,0.01-0.122,0.056-0.167,0.102
			c-0.119,0.121-0.271,0.132-0.436,0.163C41.8,8.708,41.759,8.447,41.716,8.179z"/>
		
			<linearGradient id="SVGID_26_" gradientUnits="userSpaceOnUse" x1="614.6675" y1="837.6348" x2="614.6675" y2="828.9216" gradientTransform="matrix(1 0 0 1 -571.3203 -821.9199)">
			<stop  offset="0.0051" style="stop-color:#5DCAC8"/>
			<stop  offset="0.9796" style="stop-color:#4292E2"/>
		</linearGradient>
		<path fill="url(#SVGID_26_)" d="M42.908,6.8c0.287,0.168,0.555,0.385,0.907,0.393c-0.04,0.256-0.083,0.516-0.127,0.792
			c-0.134-0.051-0.271-0.038-0.39-0.15c-0.092-0.088-0.234-0.127-0.354-0.192C42.919,7.629,42.88,7.6,42.88,7.577
			c-0.004-0.249-0.002-0.499-0.002-0.748C42.887,6.82,42.898,6.81,42.908,6.8z"/>
		
			<linearGradient id="SVGID_27_" gradientUnits="userSpaceOnUse" x1="613.5132" y1="837.6367" x2="613.5132" y2="828.9222" gradientTransform="matrix(1 0 0 1 -571.3203 -821.9199)">
			<stop  offset="0.0051" style="stop-color:#5DCAC8"/>
			<stop  offset="0.9796" style="stop-color:#4292E2"/>
		</linearGradient>
		<path fill="url(#SVGID_27_)" d="M41.841,7.985c-0.043-0.27-0.084-0.529-0.125-0.779c0.05-0.009,0.084-0.013,0.121-0.023
			c0.229-0.063,0.457-0.131,0.639-0.303c0.04-0.038,0.104-0.047,0.179-0.08c0,0.126,0,0.235,0,0.342c0,0.036,0,0.073,0,0.111
			c0,0.113,0.038,0.247-0.009,0.335c-0.042,0.076-0.18,0.101-0.271,0.151c-0.045,0.024-0.092,0.05-0.125,0.087
			C42.141,7.948,41.986,7.938,41.841,7.985z"/>
		
			<linearGradient id="SVGID_28_" gradientUnits="userSpaceOnUse" x1="586.9937" y1="837.6436" x2="586.9937" y2="828.9157" gradientTransform="matrix(1 0 0 1 -571.3203 -821.9199)">
			<stop  offset="0.0051" style="stop-color:#5DCAC8"/>
			<stop  offset="0.9796" style="stop-color:#4292E2"/>
		</linearGradient>
		<path fill="url(#SVGID_28_)" d="M15.203,12.438c-0.019-0.354-0.038-0.703-0.059-1.073c0.353,0.026,0.693,0.053,1.06,0.081
			c-0.086,0.111-0.16,0.207-0.236,0.3c-0.164,0.203-0.338,0.396-0.492,0.604C15.4,12.45,15.322,12.471,15.203,12.438z"/>
		
			<linearGradient id="SVGID_29_" gradientUnits="userSpaceOnUse" x1="584.5493" y1="837.6406" x2="584.5493" y2="828.9209" gradientTransform="matrix(1 0 0 1 -571.3203 -821.9199)">
			<stop  offset="0.0051" style="stop-color:#5DCAC8"/>
			<stop  offset="0.9796" style="stop-color:#4292E2"/>
		</linearGradient>
		<path fill="url(#SVGID_29_)" d="M13.724,12.385c-0.328,0-0.642,0-0.988,0c0.062-0.093,0.106-0.156,0.152-0.221
			c0.208-0.283,0.417-0.566,0.627-0.85c0.021-0.028,0.059-0.045,0.089-0.069c0.014,0.034,0.036,0.067,0.04,0.103
			C13.672,11.695,13.699,12.042,13.724,12.385z"/>
		
			<linearGradient id="SVGID_30_" gradientUnits="userSpaceOnUse" x1="614.6714" y1="837.667" x2="614.6714" y2="828.9258" gradientTransform="matrix(1 0 0 1 -571.3203 -821.9199)">
			<stop  offset="0.0051" style="stop-color:#5DCAC8"/>
			<stop  offset="0.9796" style="stop-color:#4292E2"/>
		</linearGradient>
		<path fill="url(#SVGID_30_)" d="M43.818,5.303c-0.037,0.229-0.074,0.455-0.109,0.69c-0.16-0.053-0.324-0.065-0.457-0.184
			c-0.098-0.087-0.231-0.131-0.367-0.201c0-0.201,0-0.423,0-0.659c0.104-0.001,0.201,0.044,0.259,0.114
			c0.157,0.189,0.403,0.152,0.592,0.255C43.751,5.33,43.785,5.311,43.818,5.303z"/>
		
			<linearGradient id="SVGID_31_" gradientUnits="userSpaceOnUse" x1="613.5073" y1="837.6514" x2="613.5073" y2="828.9232" gradientTransform="matrix(1 0 0 1 -571.3203 -821.9199)">
			<stop  offset="0.0051" style="stop-color:#5DCAC8"/>
			<stop  offset="0.9796" style="stop-color:#4292E2"/>
		</linearGradient>
		<path fill="url(#SVGID_31_)" d="M42.654,4.934c0,0.233,0.002,0.448-0.002,0.664c-0.001,0.02-0.042,0.042-0.066,0.058
			C42.457,5.73,42.33,5.81,42.195,5.873c-0.109,0.052-0.229,0.083-0.361,0.13c-0.041-0.237-0.076-0.461-0.112-0.675
			c0.048-0.01,0.084-0.016,0.118-0.024c0.242-0.055,0.471-0.134,0.66-0.303C42.537,4.968,42.591,4.96,42.654,4.934z"/>
		
			<linearGradient id="SVGID_32_" gradientUnits="userSpaceOnUse" x1="613.854" y1="837.6377" x2="613.854" y2="828.9348" gradientTransform="matrix(1 0 0 1 -571.3203 -821.9199)">
			<stop  offset="0.0051" style="stop-color:#5DCAC8"/>
			<stop  offset="0.9796" style="stop-color:#4292E2"/>
		</linearGradient>
		<path fill="url(#SVGID_32_)" d="M44.114,14.063c-0.288-0.059-0.575-0.114-0.862-0.172c-0.15-0.029-0.299-0.076-0.453-0.084
			c-0.127-0.007-0.26,0.031-0.387,0.055c-0.328,0.063-0.654,0.139-0.981,0.189c-0.152,0.022-0.313,0.004-0.478,0.004
			c0-0.056,0-0.111,0-0.17c0,0.002,0.006-0.008,0.01-0.006c0.443,0.031,0.869-0.068,1.289-0.181c0.398-0.104,0.777-0.06,1.166,0.036
			c0.16,0.041,0.32,0.074,0.482,0.098C44.031,13.854,44.125,13.896,44.114,14.063z"/>
		
			<linearGradient id="SVGID_33_" gradientUnits="userSpaceOnUse" x1="609.2866" y1="837.6475" x2="609.2866" y2="828.8969" gradientTransform="matrix(1 0 0 1 -571.3203 -821.9199)">
			<stop  offset="0.0051" style="stop-color:#5DCAC8"/>
			<stop  offset="0.9796" style="stop-color:#4292E2"/>
		</linearGradient>
		<path fill="url(#SVGID_33_)" d="M39.072,14.136c0,0.067,0,0.134,0,0.203c-0.414,0-0.826,0-1.242,0c0-0.085,0-0.167,0-0.258
			c0.074,0,0.146,0,0.219,0c0-0.006,0-0.013,0-0.017c-0.393,0-0.785,0-1.188,0c0-0.084,0-0.162,0-0.254
			c0.17,0.021,0.338-0.052,0.497,0.049c0.034,0.021,0.086,0.018,0.129,0.018c0.204,0.002,0.409,0.002,0.623,0.002
			c0,0.068,0,0.13,0,0.221C38.432,14.109,38.748,14.123,39.072,14.136z"/>
		
			<linearGradient id="SVGID_34_" gradientUnits="userSpaceOnUse" x1="588.1919" y1="837.6455" x2="588.1919" y2="828.9155" gradientTransform="matrix(1 0 0 1 -571.3203 -821.9199)">
			<stop  offset="0.0051" style="stop-color:#5DCAC8"/>
			<stop  offset="0.9796" style="stop-color:#4292E2"/>
		</linearGradient>
		<path fill="url(#SVGID_34_)" d="M16.418,12.48c0-0.321-0.002-0.646,0.002-0.965c0.001-0.018,0.044-0.052,0.065-0.049
			c0.272,0.018,0.546,0.04,0.841,0.063c-0.051,0.07-0.093,0.129-0.137,0.184c-0.187,0.234-0.379,0.465-0.563,0.702
			C16.571,12.486,16.511,12.507,16.418,12.48z"/>
		
			<linearGradient id="SVGID_35_" gradientUnits="userSpaceOnUse" x1="585.939" y1="837.6406" x2="585.939" y2="828.9216" gradientTransform="matrix(1 0 0 1 -571.3203 -821.9199)">
			<stop  offset="0.0051" style="stop-color:#5DCAC8"/>
			<stop  offset="0.9796" style="stop-color:#4292E2"/>
		</linearGradient>
		<path fill="url(#SVGID_35_)" d="M15.057,11.393c0,0.349,0,0.694,0,1.039c-0.276,0-0.557,0-0.874,0
			c0.296-0.367,0.569-0.707,0.842-1.048C15.037,11.387,15.046,11.391,15.057,11.393z"/>
		
			<linearGradient id="SVGID_36_" gradientUnits="userSpaceOnUse" x1="585.0454" y1="837.6406" x2="585.0454" y2="828.9214" gradientTransform="matrix(1 0 0 1 -571.3203 -821.9199)">
			<stop  offset="0.0051" style="stop-color:#5DCAC8"/>
			<stop  offset="0.9796" style="stop-color:#4292E2"/>
		</linearGradient>
		<path fill="url(#SVGID_36_)" d="M13.424,14.802c0-0.251,0-0.499,0-0.763c0.199,0,0.398,0,0.604,0c0,0.23,0,0.468,0,0.715
			C13.83,14.77,13.63,14.785,13.424,14.802z"/>
		
			<linearGradient id="SVGID_37_" gradientUnits="userSpaceOnUse" x1="609.5366" y1="837.6328" x2="609.5366" y2="828.9683" gradientTransform="matrix(1 0 0 1 -571.3203 -821.9199)">
			<stop  offset="0.0051" style="stop-color:#5DCAC8"/>
			<stop  offset="0.9796" style="stop-color:#4292E2"/>
		</linearGradient>
		<path fill="url(#SVGID_37_)" d="M39.071,14.629c-0.143,0-0.28,0-0.42,0c-0.382,0-0.764-0.004-1.146,0.002
			c-0.11,0.003-0.157-0.025-0.139-0.14c0.006-0.035,0.002-0.072,0.002-0.121c0.569,0.017,1.133,0.03,1.702,0.047
			C39.071,14.48,39.071,14.55,39.071,14.629z"/>
		
			<linearGradient id="SVGID_38_" gradientUnits="userSpaceOnUse" x1="585.7397" y1="837.6426" x2="585.7397" y2="828.9052" gradientTransform="matrix(1 0 0 1 -571.3203 -821.9199)">
			<stop  offset="0.0051" style="stop-color:#5DCAC8"/>
			<stop  offset="0.9796" style="stop-color:#4292E2"/>
		</linearGradient>
		<path fill="url(#SVGID_38_)" d="M14.148,14.747c0-0.253,0-0.487,0-0.729c0.181-0.01,0.358-0.021,0.545-0.031
			c0,0.24,0,0.47,0,0.716C14.518,14.715,14.339,14.73,14.148,14.747z"/>
		
			<linearGradient id="SVGID_39_" gradientUnits="userSpaceOnUse" x1="587.2456" y1="837.6436" x2="587.2456" y2="828.9169" gradientTransform="matrix(1 0 0 1 -571.3203 -821.9199)">
			<stop  offset="0.0051" style="stop-color:#5DCAC8"/>
			<stop  offset="0.9796" style="stop-color:#4292E2"/>
		</linearGradient>
		<path fill="url(#SVGID_39_)" d="M16.326,11.471c-0.016,0.317-0.029,0.633-0.049,0.952c-0.001,0.021-0.029,0.06-0.045,0.06
			c-0.226-0.006-0.45-0.015-0.705-0.022c0.268-0.349,0.521-0.674,0.774-1.001C16.31,11.462,16.318,11.468,16.326,11.471z"/>
		
			<linearGradient id="SVGID_40_" gradientUnits="userSpaceOnUse" x1="588.4214" y1="837.6455" x2="588.4214" y2="828.915" gradientTransform="matrix(1 0 0 1 -571.3203 -821.9199)">
			<stop  offset="0.0051" style="stop-color:#5DCAC8"/>
			<stop  offset="0.9796" style="stop-color:#4292E2"/>
		</linearGradient>
		<path fill="url(#SVGID_40_)" d="M17.439,12.501c-0.249,0-0.482,0-0.722,0c0.101-0.21,0.696-0.942,0.771-0.951
			c0,0.031,0.001,0.058,0,0.086C17.472,11.926,17.456,12.215,17.439,12.501z"/>
		
			<linearGradient id="SVGID_41_" gradientUnits="userSpaceOnUse" x1="586.4331" y1="837.6436" x2="586.4331" y2="828.912" gradientTransform="matrix(1 0 0 1 -571.3203 -821.9199)">
			<stop  offset="0.0051" style="stop-color:#5DCAC8"/>
			<stop  offset="0.9796" style="stop-color:#4292E2"/>
		</linearGradient>
		<path fill="url(#SVGID_41_)" d="M15.369,14.648c-0.169,0.014-0.335,0.024-0.511,0.039c0-0.239,0-0.465,0-0.711
			c0.166,0,0.333,0,0.511,0C15.369,14.193,15.369,14.416,15.369,14.648z"/>
		
			<linearGradient id="SVGID_42_" gradientUnits="userSpaceOnUse" x1="585.0425" y1="837.6445" x2="585.0425" y2="828.9142" gradientTransform="matrix(1 0 0 1 -571.3203 -821.9199)">
			<stop  offset="0.0051" style="stop-color:#5DCAC8"/>
			<stop  offset="0.9796" style="stop-color:#4292E2"/>
		</linearGradient>
		<path fill="url(#SVGID_42_)" d="M14.021,13.193c-0.203,0-0.396,0-0.596,0c0-0.191,0-0.379,0-0.57c0.196,0,0.393,0,0.596,0
			C14.021,12.814,14.021,12.998,14.021,13.193z"/>
		
			<linearGradient id="SVGID_43_" gradientUnits="userSpaceOnUse" x1="587.0581" y1="837.6436" x2="587.0581" y2="828.9116" gradientTransform="matrix(1 0 0 1 -571.3203 -821.9199)">
			<stop  offset="0.0051" style="stop-color:#5DCAC8"/>
			<stop  offset="0.9796" style="stop-color:#4292E2"/>
		</linearGradient>
		<path fill="url(#SVGID_43_)" d="M15.49,14.639c0-0.24,0-0.459,0-0.686c0.166-0.008,0.328-0.016,0.496-0.021
			c0,0.226,0,0.442,0,0.67C15.82,14.611,15.662,14.624,15.49,14.639z"/>
		
			<linearGradient id="SVGID_44_" gradientUnits="userSpaceOnUse" x1="585.7524" y1="837.6387" x2="585.7524" y2="828.9254" gradientTransform="matrix(1 0 0 1 -571.3203 -821.9199)">
			<stop  offset="0.0051" style="stop-color:#5DCAC8"/>
			<stop  offset="0.9796" style="stop-color:#4292E2"/>
		</linearGradient>
		<path fill="url(#SVGID_44_)" d="M14.154,13.189c0-0.186,0-0.369,0-0.559c0.174,0,0.341-0.001,0.508,0.003
			c0.017,0,0.047,0.043,0.048,0.067c0.004,0.16,0.002,0.32,0.002,0.488C14.513,13.189,14.336,13.189,14.154,13.189z"/>
		
			<linearGradient id="SVGID_45_" gradientUnits="userSpaceOnUse" x1="608.3784" y1="837.6484" x2="608.3784" y2="828.8848" gradientTransform="matrix(1 0 0 1 -571.3203 -821.9199)">
			<stop  offset="0.0051" style="stop-color:#5DCAC8"/>
			<stop  offset="0.9796" style="stop-color:#4292E2"/>
		</linearGradient>
		<path fill="url(#SVGID_45_)" d="M36.397,14.337c0-0.096,0-0.18,0-0.276c0.144,0.016,0.286-0.047,0.417,0.047
			c0.027,0.019,0.07,0.018,0.105,0.019c0.207,0,0.412,0,0.619,0c0.194,0,0.198,0.004,0.16,0.214
			C37.269,14.337,36.837,14.337,36.397,14.337z"/>
		
			<linearGradient id="SVGID_46_" gradientUnits="userSpaceOnUse" x1="591.7397" y1="837.6406" x2="591.7397" y2="828.9281" gradientTransform="matrix(1 0 0 1 -571.3203 -821.9199)">
			<stop  offset="0.0051" style="stop-color:#5DCAC8"/>
			<stop  offset="0.9796" style="stop-color:#4292E2"/>
		</linearGradient>
		<path fill="url(#SVGID_46_)" d="M20.31,13.46c0.03-0.033,0.084-0.065,0.084-0.099c-0.001-0.032-0.055-0.065-0.085-0.098
			c-0.008,0.006-0.017,0.012-0.025,0.018c0-0.045,0-0.092,0-0.143c0.093,0,0.179,0,0.272,0c0,0.42,0,0.834,0,1.262
			c-0.086,0-0.175,0-0.272,0c0-0.104,0-0.207,0-0.317c0.031-0.007,0.063-0.011,0.098-0.017c0.002-0.037,0.003-0.068,0.006-0.107
			c-0.033-0.008-0.063-0.016-0.101-0.021c0-0.068,0-0.141,0-0.222c0.033-0.006,0.068-0.014,0.109-0.021c0-0.034,0-0.068,0-0.108
			c-0.036-0.006-0.071-0.013-0.112-0.019c0-0.041,0-0.079,0-0.117C20.29,13.454,20.301,13.457,20.31,13.46z"/>
		
			<linearGradient id="SVGID_47_" gradientUnits="userSpaceOnUse" x1="611.4019" y1="837.6396" x2="611.4019" y2="828.9271" gradientTransform="matrix(1 0 0 1 -571.3203 -821.9199)">
			<stop  offset="0.0051" style="stop-color:#5DCAC8"/>
			<stop  offset="0.9796" style="stop-color:#4292E2"/>
		</linearGradient>
		<path fill="url(#SVGID_47_)" d="M38.742,13.471c0.028-0.029,0.053-0.072,0.086-0.085c0.312-0.099,0.618-0.196,0.953-0.17
			c0.24,0.019,0.484-0.006,0.727,0.007c0.303,0.016,0.604,0.043,0.906,0.067c0.004,0.062,0.006,0.093,0.008,0.142
			c-0.137-0.022-0.264-0.05-0.392-0.067c-0.094-0.015-0.188-0.028-0.282-0.028c-0.313-0.003-0.625,0.008-0.936-0.005
			c-0.271-0.011-0.532,0.022-0.786,0.117c-0.082,0.03-0.168,0.047-0.252,0.067C38.764,13.5,38.751,13.484,38.742,13.471z"/>
		
			<linearGradient id="SVGID_48_" gradientUnits="userSpaceOnUse" x1="587.6597" y1="837.6406" x2="587.6597" y2="828.9261" gradientTransform="matrix(1 0 0 1 -571.3203 -821.9199)">
			<stop  offset="0.0051" style="stop-color:#5DCAC8"/>
			<stop  offset="0.9796" style="stop-color:#4292E2"/>
		</linearGradient>
		<path fill="url(#SVGID_48_)" d="M16.123,13.928c0.151-0.009,0.288-0.018,0.434-0.025c0,0.221,0,0.426,0,0.646
			c-0.143,0.015-0.284,0.027-0.434,0.044C16.123,14.367,16.123,14.152,16.123,13.928z"/>
		
			<linearGradient id="SVGID_49_" gradientUnits="userSpaceOnUse" x1="611.4058" y1="837.6484" x2="611.4058" y2="828.9014" gradientTransform="matrix(1 0 0 1 -571.3203 -821.9199)">
			<stop  offset="0.0051" style="stop-color:#5DCAC8"/>
			<stop  offset="0.9796" style="stop-color:#4292E2"/>
		</linearGradient>
		<path fill="url(#SVGID_49_)" d="M41.437,13.273c-0.921-0.133-1.809-0.207-2.688,0.09c-0.033-0.064-0.019-0.103,0.051-0.121
			c0.17-0.051,0.337-0.104,0.504-0.152c0.053-0.016,0.107-0.021,0.162-0.021c0.447-0.004,0.896-0.014,1.344,0.002
			c0.188,0.007,0.375,0.062,0.561,0.102C41.397,13.176,41.414,13.232,41.437,13.273z"/>
		
			<linearGradient id="SVGID_50_" gradientUnits="userSpaceOnUse" x1="585.0444" y1="837.6367" x2="585.0444" y2="828.9286" gradientTransform="matrix(1 0 0 1 -571.3203 -821.9199)">
			<stop  offset="0.0051" style="stop-color:#5DCAC8"/>
			<stop  offset="0.9796" style="stop-color:#4292E2"/>
		</linearGradient>
		<path fill="url(#SVGID_50_)" d="M14.024,13.439c0,0.149,0,0.3,0,0.463c-0.198,0-0.394,0-0.599,0c0-0.141,0-0.293,0-0.463
			C13.619,13.439,13.814,13.439,14.024,13.439z"/>
		
			<linearGradient id="SVGID_51_" gradientUnits="userSpaceOnUse" x1="588.2241" y1="837.6475" x2="588.2241" y2="828.8919" gradientTransform="matrix(1 0 0 1 -571.3203 -821.9199)">
			<stop  offset="0.0051" style="stop-color:#5DCAC8"/>
			<stop  offset="0.9796" style="stop-color:#4292E2"/>
		</linearGradient>
		<path fill="url(#SVGID_51_)" d="M16.688,14.546c0-0.224,0-0.43,0-0.644c0.14-0.01,0.274-0.019,0.432-0.027
			c0,0.204,0.001,0.396-0.002,0.587c0,0.021-0.032,0.052-0.05,0.054C16.944,14.529,16.82,14.536,16.688,14.546z"/>
		
			<linearGradient id="SVGID_52_" gradientUnits="userSpaceOnUse" x1="587.0493" y1="837.6377" x2="587.0493" y2="828.9272" gradientTransform="matrix(1 0 0 1 -571.3203 -821.9199)">
			<stop  offset="0.0051" style="stop-color:#5DCAC8"/>
			<stop  offset="0.9796" style="stop-color:#4292E2"/>
		</linearGradient>
		<path fill="url(#SVGID_52_)" d="M15.988,13.177c-0.176,0-0.343,0-0.516,0c0-0.172,0-0.344,0-0.522c0.169,0,0.338,0,0.516,0
			C15.988,12.825,15.988,12.992,15.988,13.177z"/>
		
			<linearGradient id="SVGID_53_" gradientUnits="userSpaceOnUse" x1="586.4253" y1="837.6387" x2="586.4253" y2="828.9264" gradientTransform="matrix(1 0 0 1 -571.3203 -821.9199)">
			<stop  offset="0.0051" style="stop-color:#5DCAC8"/>
			<stop  offset="0.9796" style="stop-color:#4292E2"/>
		</linearGradient>
		<path fill="url(#SVGID_53_)" d="M15.354,13.188c-0.17,0-0.33,0-0.496,0c0-0.179,0-0.354,0-0.535c0.163,0,0.325,0,0.496,0
			C15.354,12.828,15.354,13.002,15.354,13.188z"/>
		
			<linearGradient id="SVGID_54_" gradientUnits="userSpaceOnUse" x1="585.7417" y1="837.6426" x2="585.7417" y2="828.9162" gradientTransform="matrix(1 0 0 1 -571.3203 -821.9199)">
			<stop  offset="0.0051" style="stop-color:#5DCAC8"/>
			<stop  offset="0.9796" style="stop-color:#4292E2"/>
		</linearGradient>
		<path fill="url(#SVGID_54_)" d="M14.15,13.872c0-0.14,0-0.287,0-0.448c0.183,0,0.36,0,0.545,0c0,0.143,0,0.287,0,0.448
			C14.514,13.872,14.334,13.872,14.15,13.872z"/>
		
			<linearGradient id="SVGID_55_" gradientUnits="userSpaceOnUse" x1="589.2896" y1="837.6455" x2="589.2896" y2="828.9033" gradientTransform="matrix(1 0 0 1 -571.3203 -821.9199)">
			<stop  offset="0.0051" style="stop-color:#5DCAC8"/>
			<stop  offset="0.9796" style="stop-color:#4292E2"/>
		</linearGradient>
		<path fill="url(#SVGID_55_)" d="M17.769,14.46c0-0.206,0-0.399,0-0.608c0.133-0.006,0.264-0.014,0.402-0.02
			c0,0.205,0,0.396,0,0.596C18.035,14.439,17.907,14.448,17.769,14.46z"/>
		
			<linearGradient id="SVGID_56_" gradientUnits="userSpaceOnUse" x1="611.394" y1="837.6475" x2="611.394" y2="828.9114" gradientTransform="matrix(1 0 0 1 -571.3203 -821.9199)">
			<stop  offset="0.0051" style="stop-color:#5DCAC8"/>
			<stop  offset="0.9796" style="stop-color:#4292E2"/>
		</linearGradient>
		<path fill="url(#SVGID_56_)" d="M41.069,13.02c-0.557,0-1.097-0.004-1.639,0.006c-0.113,0.002-0.224,0.057-0.337,0.088
			c-0.033-0.068-0.004-0.09,0.053-0.12c0.173-0.077,0.354-0.089,0.537-0.083c0.048,0.001,0.098-0.027,0.146-0.044
			c0.01-0.005,0.021-0.017,0.028-0.017c0.156,0,0.325-0.035,0.468,0.01c0.116,0.037,0.225,0.039,0.338,0.052
			c0.111,0.014,0.225,0.021,0.336,0.041C41.029,12.955,41.05,12.999,41.069,13.02z"/>
		
			<linearGradient id="SVGID_57_" gradientUnits="userSpaceOnUse" x1="586.4292" y1="837.6436" x2="586.4292" y2="828.9146" gradientTransform="matrix(1 0 0 1 -571.3203 -821.9199)">
			<stop  offset="0.0051" style="stop-color:#5DCAC8"/>
			<stop  offset="0.9796" style="stop-color:#4292E2"/>
		</linearGradient>
		<path fill="url(#SVGID_57_)" d="M15.363,13.408c0,0.139,0,0.279,0,0.438c-0.167,0-0.333,0-0.507,0c0-0.136,0-0.283,0-0.438
			C15.019,13.408,15.182,13.408,15.363,13.408z"/>
		
			<linearGradient id="SVGID_58_" gradientUnits="userSpaceOnUse" x1="587.0532" y1="837.6396" x2="587.0532" y2="828.922" gradientTransform="matrix(1 0 0 1 -571.3203 -821.9199)">
			<stop  offset="0.0051" style="stop-color:#5DCAC8"/>
			<stop  offset="0.9796" style="stop-color:#4292E2"/>
		</linearGradient>
		<path fill="url(#SVGID_58_)" d="M15.988,13.818c-0.17,0.008-0.333,0.016-0.508,0.021c0-0.152,0-0.294,0-0.449
			c0.167,0,0.333,0,0.508,0C15.988,13.523,15.988,13.66,15.988,13.818z"/>
		
			<linearGradient id="SVGID_59_" gradientUnits="userSpaceOnUse" x1="588.7593" y1="837.6377" x2="588.7593" y2="828.9366" gradientTransform="matrix(1 0 0 1 -571.3203 -821.9199)">
			<stop  offset="0.0051" style="stop-color:#5DCAC8"/>
			<stop  offset="0.9796" style="stop-color:#4292E2"/>
		</linearGradient>
		<path fill="url(#SVGID_59_)" d="M17.257,13.872c0.119-0.006,0.237-0.013,0.364-0.017c0,0.207,0,0.405,0,0.613
			c-0.118,0.012-0.237,0.021-0.364,0.032C17.257,14.29,17.257,14.089,17.257,13.872z"/>
		
			<linearGradient id="SVGID_60_" gradientUnits="userSpaceOnUse" x1="587.6655" y1="837.6445" x2="587.6655" y2="828.9158" gradientTransform="matrix(1 0 0 1 -571.3203 -821.9199)">
			<stop  offset="0.0051" style="stop-color:#5DCAC8"/>
			<stop  offset="0.9796" style="stop-color:#4292E2"/>
		</linearGradient>
		<path fill="url(#SVGID_60_)" d="M16.558,13.173c-0.144,0-0.279,0-0.423,0c0-0.167,0-0.336,0-0.51c0.138,0,0.279,0,0.423,0
			C16.558,12.84,16.558,13.003,16.558,13.173z"/>
		
			<linearGradient id="SVGID_61_" gradientUnits="userSpaceOnUse" x1="609.353" y1="837.624" x2="609.353" y2="828.9752" gradientTransform="matrix(1 0 0 1 -571.3203 -821.9199)">
			<stop  offset="0.0051" style="stop-color:#5DCAC8"/>
			<stop  offset="0.9796" style="stop-color:#4292E2"/>
		</linearGradient>
		<path fill="url(#SVGID_61_)" d="M38.632,13.639c0,0.057,0,0.102,0,0.148c-0.402,0-0.797,0-1.199,0c0-0.066,0-0.135,0-0.217
			c0.146,0.025,0.298-0.051,0.434,0.06c0.021,0.017,0.064,0.009,0.098,0.009C38.185,13.639,38.403,13.639,38.632,13.639z"/>
		
			<linearGradient id="SVGID_62_" gradientUnits="userSpaceOnUse" x1="588.2124" y1="837.6426" x2="588.2124" y2="828.921" gradientTransform="matrix(1 0 0 1 -571.3203 -821.9199)">
			<stop  offset="0.0051" style="stop-color:#5DCAC8"/>
			<stop  offset="0.9796" style="stop-color:#4292E2"/>
		</linearGradient>
		<path fill="url(#SVGID_62_)" d="M16.688,12.669c0.138,0,0.268,0,0.409,0c0,0.166,0,0.327,0,0.499c-0.134,0-0.268,0-0.409,0
			C16.688,13.005,16.688,12.843,16.688,12.669z"/>
		
			<linearGradient id="SVGID_63_" gradientUnits="userSpaceOnUse" x1="589.2905" y1="837.6318" x2="589.2905" y2="828.9401" gradientTransform="matrix(1 0 0 1 -571.3203 -821.9199)">
			<stop  offset="0.0051" style="stop-color:#5DCAC8"/>
			<stop  offset="0.9796" style="stop-color:#4292E2"/>
		</linearGradient>
		<path fill="url(#SVGID_63_)" d="M18.175,12.686c0,0.168,0,0.315,0,0.475c-0.137,0-0.27,0-0.408,0c0-0.161,0-0.313,0-0.475
			C17.898,12.686,18.031,12.686,18.175,12.686z"/>
		
			<linearGradient id="SVGID_64_" gradientUnits="userSpaceOnUse" x1="588.7544" y1="837.6396" x2="588.7544" y2="828.923" gradientTransform="matrix(1 0 0 1 -571.3203 -821.9199)">
			<stop  offset="0.0051" style="stop-color:#5DCAC8"/>
			<stop  offset="0.9796" style="stop-color:#4292E2"/>
		</linearGradient>
		<path fill="url(#SVGID_64_)" d="M17.623,13.168c-0.128,0-0.248,0-0.377,0c0-0.163,0-0.322,0-0.491c0.122,0,0.247,0,0.377,0
			C17.623,12.843,17.623,12.998,17.623,13.168z"/>
		
			<linearGradient id="SVGID_65_" gradientUnits="userSpaceOnUse" x1="588.2163" y1="837.6367" x2="588.2163" y2="828.9315" gradientTransform="matrix(1 0 0 1 -571.3203 -821.9199)">
			<stop  offset="0.0051" style="stop-color:#5DCAC8"/>
			<stop  offset="0.9796" style="stop-color:#4292E2"/>
		</linearGradient>
		<path fill="url(#SVGID_65_)" d="M16.69,13.361c0.136,0,0.271,0,0.414,0c0,0.128,0,0.262,0,0.414
			c-0.131,0.008-0.269,0.015-0.414,0.021C16.69,13.65,16.69,13.511,16.69,13.361z"/>
		
			<linearGradient id="SVGID_66_" gradientUnits="userSpaceOnUse" x1="587.6636" y1="837.6455" x2="587.6636" y2="828.9058" gradientTransform="matrix(1 0 0 1 -571.3203 -821.9199)">
			<stop  offset="0.0051" style="stop-color:#5DCAC8"/>
			<stop  offset="0.9796" style="stop-color:#4292E2"/>
		</linearGradient>
		<path fill="url(#SVGID_66_)" d="M16.134,13.375c0.14,0,0.276,0,0.42,0c0,0.139,0,0.275,0,0.423
			c-0.14,0.007-0.275,0.015-0.42,0.021C16.134,13.67,16.134,13.529,16.134,13.375z"/>
		
			<linearGradient id="SVGID_67_" gradientUnits="userSpaceOnUse" x1="610.9683" y1="837.6211" x2="610.9683" y2="828.9728" gradientTransform="matrix(1 0 0 1 -571.3203 -821.9199)">
			<stop  offset="0.0051" style="stop-color:#5DCAC8"/>
			<stop  offset="0.9796" style="stop-color:#4292E2"/>
		</linearGradient>
		<path fill="url(#SVGID_67_)" d="M40.397,13.563c-0.515,0-1.005,0-1.499,0C39.078,13.357,40.072,13.354,40.397,13.563z"/>
		
			<linearGradient id="SVGID_68_" gradientUnits="userSpaceOnUse" x1="610.8589" y1="837.6504" x2="610.8589" y2="828.8638" gradientTransform="matrix(1 0 0 1 -571.3203 -821.9199)">
			<stop  offset="0.0051" style="stop-color:#5DCAC8"/>
			<stop  offset="0.9796" style="stop-color:#4292E2"/>
		</linearGradient>
		<path fill="url(#SVGID_68_)" d="M39.167,14.6c0-0.041,0-0.09,0-0.142c-0.002-0.074,0.041-0.104,0.107-0.104
			c0.161-0.004,0.322-0.006,0.482,0c0.146,0.004,0.171,0.051,0.143,0.246C39.658,14.6,39.417,14.6,39.167,14.6z"/>
		
			<linearGradient id="SVGID_69_" gradientUnits="userSpaceOnUse" x1="589.2886" y1="837.6455" x2="589.2886" y2="828.9114" gradientTransform="matrix(1 0 0 1 -571.3203 -821.9199)">
			<stop  offset="0.0051" style="stop-color:#5DCAC8"/>
			<stop  offset="0.9796" style="stop-color:#4292E2"/>
		</linearGradient>
		<path fill="url(#SVGID_69_)" d="M18.17,13.739c-0.136,0-0.266,0-0.402,0c0-0.132,0-0.261,0-0.4c0.135,0,0.263,0,0.402,0
			C18.17,13.463,18.17,13.594,18.17,13.739z"/>
		
			<linearGradient id="SVGID_70_" gradientUnits="userSpaceOnUse" x1="609.9595" y1="837.6318" x2="609.9595" y2="828.9586" gradientTransform="matrix(1 0 0 1 -571.3203 -821.9199)">
			<stop  offset="0.0051" style="stop-color:#5DCAC8"/>
			<stop  offset="0.9796" style="stop-color:#4292E2"/>
		</linearGradient>
		<path fill="url(#SVGID_70_)" d="M38.208,14.053c0-0.072,0-0.139,0-0.228c0.287,0.021,0.571,0.043,0.861,0.063
			c0,0.049,0,0.103,0,0.164C38.789,14.053,38.503,14.053,38.208,14.053z"/>
		
			<linearGradient id="SVGID_71_" gradientUnits="userSpaceOnUse" x1="611.7437" y1="837.6543" x2="611.7437" y2="828.8649" gradientTransform="matrix(1 0 0 1 -571.3203 -821.9199)">
			<stop  offset="0.0051" style="stop-color:#5DCAC8"/>
			<stop  offset="0.9796" style="stop-color:#4292E2"/>
		</linearGradient>
		<path fill="url(#SVGID_71_)" d="M40.837,13.838c0.006,0.071,0.014,0.137,0.02,0.213c-0.289,0-0.574,0-0.867,0
			c0-0.052,0-0.105,0-0.156c0.01-0.006,0.016-0.013,0.021-0.015c0.238-0.015,0.477-0.03,0.716-0.048
			C40.762,13.831,40.796,13.836,40.837,13.838z"/>
		
			<linearGradient id="SVGID_72_" gradientUnits="userSpaceOnUse" x1="588.7554" y1="837.6504" x2="588.7554" y2="828.8939" gradientTransform="matrix(1 0 0 1 -571.3203 -821.9199)">
			<stop  offset="0.0051" style="stop-color:#5DCAC8"/>
			<stop  offset="0.9796" style="stop-color:#4292E2"/>
		</linearGradient>
		<path fill="url(#SVGID_72_)" d="M17.625,13.354c0,0.127,0,0.258,0,0.403c-0.125,0-0.245,0-0.378,0c0-0.128,0-0.258,0-0.403
			C17.368,13.354,17.49,13.354,17.625,13.354z"/>
		
			<linearGradient id="SVGID_73_" gradientUnits="userSpaceOnUse" x1="610.8589" y1="837.6465" x2="610.8589" y2="828.8943" gradientTransform="matrix(1 0 0 1 -571.3203 -821.9199)">
			<stop  offset="0.0051" style="stop-color:#5DCAC8"/>
			<stop  offset="0.9796" style="stop-color:#4292E2"/>
		</linearGradient>
		<path fill="url(#SVGID_73_)" d="M39.171,14.311c-0.002-0.006-0.004-0.016-0.004-0.025c-0.006-0.208,0-0.211,0.203-0.211
			c0.108,0,0.219,0,0.328,0c0.202,0,0.237,0.045,0.196,0.246C39.658,14.266,39.417,14.268,39.171,14.311z"/>
		
			<linearGradient id="SVGID_74_" gradientUnits="userSpaceOnUse" x1="610.8589" y1="837.6494" x2="610.8589" y2="828.8854" gradientTransform="matrix(1 0 0 1 -571.3203 -821.9199)">
			<stop  offset="0.0051" style="stop-color:#5DCAC8"/>
			<stop  offset="0.9796" style="stop-color:#4292E2"/>
		</linearGradient>
		<path fill="url(#SVGID_74_)" d="M39.902,14.048c-0.247-0.059-0.482-0.046-0.723-0.016c-0.038-0.163-0.012-0.231,0.188-0.22
			c0.107,0.008,0.219,0.002,0.328,0.002C39.925,13.814,39.929,13.889,39.902,14.048z"/>
		
			<linearGradient id="SVGID_75_" gradientUnits="userSpaceOnUse" x1="597.3296" y1="837.6426" x2="597.3296" y2="828.92" gradientTransform="matrix(1 0 0 1 -571.3203 -821.9199)">
			<stop  offset="0.0051" style="stop-color:#5DCAC8"/>
			<stop  offset="0.9796" style="stop-color:#4292E2"/>
		</linearGradient>
		<path fill="url(#SVGID_75_)" d="M25.949,11.876c-0.039-0.237-0.039-0.237-0.168-0.249c0.048-0.119,0.222-0.211,0.443-0.23
			c0.003,0.051,0.005,0.1,0.008,0.149C26.252,11.832,26.252,11.832,25.949,11.876z"/>
		
			<linearGradient id="SVGID_76_" gradientUnits="userSpaceOnUse" x1="610.8569" y1="837.6406" x2="610.8569" y2="828.923" gradientTransform="matrix(1 0 0 1 -571.3203 -821.9199)">
			<stop  offset="0.0051" style="stop-color:#5DCAC8"/>
			<stop  offset="0.9796" style="stop-color:#4292E2"/>
		</linearGradient>
		<path fill="url(#SVGID_76_)" d="M39.171,13.768c-0.014-0.158-0.002-0.172,0.164-0.172c0.137,0,0.272-0.004,0.408,0
			c0.145,0.002,0.18,0.047,0.152,0.188C39.658,13.714,39.421,13.729,39.171,13.768z"/>
		
			<linearGradient id="SVGID_77_" gradientUnits="userSpaceOnUse" x1="610.228" y1="837.6445" x2="610.228" y2="828.9047" gradientTransform="matrix(1 0 0 1 -571.3203 -821.9199)">
			<stop  offset="0.0051" style="stop-color:#5DCAC8"/>
			<stop  offset="0.9796" style="stop-color:#4292E2"/>
		</linearGradient>
		<path fill="url(#SVGID_77_)" d="M39.07,13.787c-0.107,0-0.215,0-0.328,0c0-0.059,0-0.117,0-0.176
			C38.985,13.533,39.093,13.589,39.07,13.787z"/>
		
			<linearGradient id="SVGID_78_" gradientUnits="userSpaceOnUse" x1="611.479" y1="837.6309" x2="611.479" y2="828.9535" gradientTransform="matrix(1 0 0 1 -571.3203 -821.9199)">
			<stop  offset="0.0051" style="stop-color:#5DCAC8"/>
			<stop  offset="0.9796" style="stop-color:#4292E2"/>
		</linearGradient>
		<path fill="url(#SVGID_78_)" d="M40.332,13.596c0,0.065,0,0.123,0,0.188c-0.107,0-0.22,0-0.33,0
			c-0.037-0.157-0.014-0.188,0.144-0.188C40.207,13.596,40.267,13.596,40.332,13.596z"/>
		
			<linearGradient id="SVGID_79_" gradientUnits="userSpaceOnUse" x1="610.5601" y1="837.6387" x2="610.5601" y2="828.936" gradientTransform="matrix(1 0 0 1 -571.3203 -821.9199)">
			<stop  offset="0.0051" style="stop-color:#5DCAC8"/>
			<stop  offset="0.9796" style="stop-color:#4292E2"/>
		</linearGradient>
		<path fill="url(#SVGID_79_)" d="M39.309,14.98c-0.058,0-0.097,0-0.14,0c0-0.097,0-0.188,0-0.285c0.049,0,0.09,0,0.14,0
			C39.309,14.795,39.309,14.887,39.309,14.98z"/>
		
			<linearGradient id="SVGID_80_" gradientUnits="userSpaceOnUse" x1="611.1577" y1="837.6426" x2="611.1577" y2="828.9073" gradientTransform="matrix(1 0 0 1 -571.3203 -821.9199)">
			<stop  offset="0.0051" style="stop-color:#5DCAC8"/>
			<stop  offset="0.9796" style="stop-color:#4292E2"/>
		</linearGradient>
		<path fill="url(#SVGID_80_)" d="M39.904,14.982c-0.049,0-0.088,0-0.133,0c0-0.094,0-0.185,0-0.285
			c0.043-0.002,0.084-0.004,0.133-0.008C39.904,14.789,39.904,14.881,39.904,14.982z"/>
		
			<linearGradient id="SVGID_81_" gradientUnits="userSpaceOnUse" x1="610.7544" y1="837.6367" x2="610.7544" y2="828.9592" gradientTransform="matrix(1 0 0 1 -571.3203 -821.9199)">
			<stop  offset="0.0051" style="stop-color:#5DCAC8"/>
			<stop  offset="0.9796" style="stop-color:#4292E2"/>
		</linearGradient>
		<path fill="url(#SVGID_81_)" d="M39.494,14.98c-0.041,0-0.076,0-0.119,0c0-0.094,0-0.184,0-0.28c0.039,0,0.076,0,0.119,0
			C39.494,14.792,39.494,14.882,39.494,14.98z"/>
		
			<linearGradient id="SVGID_82_" gradientUnits="userSpaceOnUse" x1="610.9497" y1="837.6445" x2="610.9497" y2="828.8904" gradientTransform="matrix(1 0 0 1 -571.3203 -821.9199)">
			<stop  offset="0.0051" style="stop-color:#5DCAC8"/>
			<stop  offset="0.9796" style="stop-color:#4292E2"/>
		</linearGradient>
		<path fill="url(#SVGID_82_)" d="M39.567,14.695c0.043,0,0.082,0,0.125,0c0,0.098,0,0.188,0,0.287c-0.043,0-0.082,0-0.125,0
			C39.567,14.891,39.567,14.8,39.567,14.695z"/>
		
			<linearGradient id="SVGID_83_" gradientUnits="userSpaceOnUse" x1="610.3569" y1="837.6445" x2="610.3569" y2="828.8835" gradientTransform="matrix(1 0 0 1 -571.3203 -821.9199)">
			<stop  offset="0.0051" style="stop-color:#5DCAC8"/>
			<stop  offset="0.9796" style="stop-color:#4292E2"/>
		</linearGradient>
		<path fill="url(#SVGID_83_)" d="M39.096,14.982c-0.046,0-0.08,0-0.12,0c0-0.096,0-0.185,0-0.287c0.037,0,0.074-0.002,0.12-0.006
			C39.096,14.788,39.096,14.882,39.096,14.982z"/>
		
			<linearGradient id="SVGID_84_" gradientUnits="userSpaceOnUse" x1="611.3462" y1="837.6357" x2="611.3462" y2="828.9625" gradientTransform="matrix(1 0 0 1 -571.3203 -821.9199)">
			<stop  offset="0.0051" style="stop-color:#5DCAC8"/>
			<stop  offset="0.9796" style="stop-color:#4292E2"/>
		</linearGradient>
		<path fill="url(#SVGID_84_)" d="M39.966,14.98c0-0.097,0-0.184,0-0.282c0.037-0.003,0.074-0.005,0.119-0.009
			c0,0.099,0,0.191,0,0.291C40.048,14.98,40.014,14.98,39.966,14.98z"/>
		
			<linearGradient id="SVGID_85_" gradientUnits="userSpaceOnUse" x1="607.105" y1="837.6104" x2="607.105" y2="828.9487" gradientTransform="matrix(1 0 0 1 -571.3203 -821.9199)">
			<stop  offset="0.0051" style="stop-color:#5DCAC8"/>
			<stop  offset="0.9796" style="stop-color:#4292E2"/>
		</linearGradient>
		<path fill="url(#SVGID_85_)" d="M35.828,11.068c0.035,0.203,0.026,0.236-0.086,0.261C35.705,11.134,35.716,11.093,35.828,11.068z"
			/>
		
			<linearGradient id="SVGID_86_" gradientUnits="userSpaceOnUse" x1="608.1343" y1="837.6387" x2="608.1343" y2="828.9221" gradientTransform="matrix(1 0 0 1 -571.3203 -821.9199)">
			<stop  offset="0.0051" style="stop-color:#5DCAC8"/>
			<stop  offset="0.9796" style="stop-color:#4292E2"/>
		</linearGradient>
		<path fill="url(#SVGID_86_)" d="M36.857,11.406c-0.107-0.021-0.115-0.049-0.086-0.254C36.882,11.178,36.884,11.188,36.857,11.406z
			"/>
		
			<linearGradient id="SVGID_87_" gradientUnits="userSpaceOnUse" x1="608.2749" y1="837.6123" x2="608.2749" y2="828.9479" gradientTransform="matrix(1 0 0 1 -571.3203 -821.9199)">
			<stop  offset="0.0051" style="stop-color:#5DCAC8"/>
			<stop  offset="0.9796" style="stop-color:#4292E2"/>
		</linearGradient>
		<path fill="url(#SVGID_87_)" d="M36.919,11.214c0.098,0.009,0.107,0.044,0.074,0.241C36.895,11.441,36.876,11.384,36.919,11.214z"
			/>
		
			<linearGradient id="SVGID_88_" gradientUnits="userSpaceOnUse" x1="606.6802" y1="837.6572" x2="606.6802" y2="828.9033" gradientTransform="matrix(1 0 0 1 -571.3203 -821.9199)">
			<stop  offset="0.0051" style="stop-color:#5DCAC8"/>
			<stop  offset="0.9796" style="stop-color:#4292E2"/>
		</linearGradient>
		<path fill="url(#SVGID_88_)" d="M35.398,11.219c0.037,0.205,0.021,0.256-0.094,0.281C35.339,11.404,35.246,11.285,35.398,11.219z"
			/>
		
			<linearGradient id="SVGID_89_" gradientUnits="userSpaceOnUse" x1="607.2485" y1="837.6406" x2="607.2485" y2="828.9213" gradientTransform="matrix(1 0 0 1 -571.3203 -821.9199)">
			<stop  offset="0.0051" style="stop-color:#5DCAC8"/>
			<stop  offset="0.9796" style="stop-color:#4292E2"/>
		</linearGradient>
		<path fill="url(#SVGID_89_)" d="M35.983,11.014c-0.047,0.092,0.058,0.211-0.089,0.274C35.854,11.1,35.869,11.045,35.983,11.014z"
			/>
		
			<linearGradient id="SVGID_90_" gradientUnits="userSpaceOnUse" x1="606.9604" y1="837.6348" x2="606.9604" y2="828.9259" gradientTransform="matrix(1 0 0 1 -571.3203 -821.9199)">
			<stop  offset="0.0051" style="stop-color:#5DCAC8"/>
			<stop  offset="0.9796" style="stop-color:#4292E2"/>
		</linearGradient>
		<path fill="url(#SVGID_90_)" d="M35.606,11.395c-0.035-0.197-0.022-0.244,0.087-0.272C35.65,11.212,35.755,11.332,35.606,11.395z"
			/>
		
			<linearGradient id="SVGID_91_" gradientUnits="userSpaceOnUse" x1="606.8276" y1="837.6279" x2="606.8276" y2="828.9339" gradientTransform="matrix(1 0 0 1 -571.3203 -821.9199)">
			<stop  offset="0.0051" style="stop-color:#5DCAC8"/>
			<stop  offset="0.9796" style="stop-color:#4292E2"/>
		</linearGradient>
		<path fill="url(#SVGID_91_)" d="M35.559,11.184c-0.038,0.086,0.054,0.2-0.081,0.262C35.432,11.27,35.451,11.207,35.559,11.184z"/>
		
			<linearGradient id="SVGID_92_" gradientUnits="userSpaceOnUse" x1="607.9937" y1="837.6338" x2="607.9937" y2="828.9255" gradientTransform="matrix(1 0 0 1 -571.3203 -821.9199)">
			<stop  offset="0.0051" style="stop-color:#5DCAC8"/>
			<stop  offset="0.9796" style="stop-color:#4292E2"/>
		</linearGradient>
		<path fill="url(#SVGID_92_)" d="M36.708,11.354c-0.146-0.047-0.047-0.162-0.074-0.244C36.789,11.15,36.687,11.271,36.708,11.354z"
			/>
		
			<linearGradient id="SVGID_93_" gradientUnits="userSpaceOnUse" x1="607.728" y1="837.6338" x2="607.728" y2="828.925" gradientTransform="matrix(1 0 0 1 -571.3203 -821.9199)">
			<stop  offset="0.0051" style="stop-color:#5DCAC8"/>
			<stop  offset="0.9796" style="stop-color:#4292E2"/>
		</linearGradient>
		<path fill="url(#SVGID_93_)" d="M36.355,11.014c0.113,0.012,0.124,0.047,0.088,0.247C36.3,11.21,36.391,11.098,36.355,11.014z"/>
		
			<linearGradient id="SVGID_94_" gradientUnits="userSpaceOnUse" x1="607.8579" y1="837.6748" x2="607.8579" y2="828.8889" gradientTransform="matrix(1 0 0 1 -571.3203 -821.9199)">
			<stop  offset="0.0051" style="stop-color:#5DCAC8"/>
			<stop  offset="0.9796" style="stop-color:#4292E2"/>
		</linearGradient>
		<path fill="url(#SVGID_94_)" d="M36.503,11.047c0.131,0.066,0.054,0.169,0.078,0.251C36.483,11.289,36.482,11.286,36.503,11.047z"
			/>
		
			<linearGradient id="SVGID_95_" gradientUnits="userSpaceOnUse" x1="611.9038" y1="837.6543" x2="611.9038" y2="828.8813" gradientTransform="matrix(1 0 0 1 -571.3203 -821.9199)">
			<stop  offset="0.0051" style="stop-color:#5DCAC8"/>
			<stop  offset="0.9796" style="stop-color:#4292E2"/>
		</linearGradient>
		<path fill="url(#SVGID_95_)" d="M40.425,13.523c0.115,0.022,0.217,0.045,0.316,0.063C40.53,13.639,40.445,13.623,40.425,13.523z"
			/>
		
			<linearGradient id="SVGID_96_" gradientUnits="userSpaceOnUse" x1="581.8989" y1="837.4473" x2="581.8989" y2="830.1231" gradientTransform="matrix(1 0 0 1 -571.3203 -821.9199)">
			<stop  offset="0.0051" style="stop-color:#5DCAC8"/>
			<stop  offset="0.9796" style="stop-color:#4292E2"/>
		</linearGradient>
		<path fill="url(#SVGID_96_)" d="M9.436,14.507c0.763,0,1.524,0,2.287,0c0,0.004,0,0.009,0,0.013c-0.036,0-0.073,0-0.108,0
			c-0.697,0-1.394-0.002-2.091-0.004C9.494,14.516,9.466,14.51,9.436,14.507L9.436,14.507z"/>
		
			<linearGradient id="SVGID_97_" gradientUnits="userSpaceOnUse" x1="581.9536" y1="837.7236" x2="581.9536" y2="828.5063" gradientTransform="matrix(1 0 0 1 -571.3203 -821.9199)">
			<stop  offset="0.0051" style="stop-color:#5DCAC8"/>
			<stop  offset="0.9796" style="stop-color:#4292E2"/>
		</linearGradient>
		<path fill="url(#SVGID_97_)" d="M11.173,14.295c-0.36,0-0.719,0-1.078,0c0-0.005,0-0.008,0-0.01c0.358,0,0.715,0,1.072,0
			C11.169,14.287,11.17,14.29,11.173,14.295z"/>
		
			<linearGradient id="SVGID_98_" gradientUnits="userSpaceOnUse" x1="590.5923" y1="837.3125" x2="590.5923" y2="829.8665" gradientTransform="matrix(1 0 0 1 -571.3203 -821.9199)">
			<stop  offset="0.0051" style="stop-color:#5DCAC8"/>
			<stop  offset="0.9796" style="stop-color:#4292E2"/>
		</linearGradient>
		<path fill="url(#SVGID_98_)" d="M19.75,13.477c-0.319,0-0.637,0-0.955,0c0-0.002,0-0.004,0-0.006c0.318,0,0.636,0,0.955,0
			C19.75,13.473,19.75,13.475,19.75,13.477z"/>
		
			<linearGradient id="SVGID_99_" gradientUnits="userSpaceOnUse" x1="582.144" y1="837.6709" x2="582.144" y2="828.8381" gradientTransform="matrix(1 0 0 1 -571.3203 -821.9199)">
			<stop  offset="0.0051" style="stop-color:#5DCAC8"/>
			<stop  offset="0.9796" style="stop-color:#4292E2"/>
		</linearGradient>
		<path fill="url(#SVGID_99_)" d="M10.485,13.4c0.226,0,0.453,0,0.679,0c0,0.002,0,0.008,0,0.011c-0.226,0-0.453,0-0.679,0
			C10.485,13.408,10.485,13.402,10.485,13.4z"/>
		
			<linearGradient id="SVGID_100_" gradientUnits="userSpaceOnUse" x1="582.145" y1="837.3359" x2="582.145" y2="829.6653" gradientTransform="matrix(1 0 0 1 -571.3203 -821.9199)">
			<stop  offset="0.0051" style="stop-color:#5DCAC8"/>
			<stop  offset="0.9796" style="stop-color:#4292E2"/>
		</linearGradient>
		<path fill="url(#SVGID_100_)" d="M10.485,13.182c0.227,0,0.454,0,0.681,0c0,0.002,0,0.006,0,0.01c-0.225,0-0.45,0-0.675,0
			C10.489,13.188,10.487,13.184,10.485,13.182z"/>
		
			<linearGradient id="SVGID_101_" gradientUnits="userSpaceOnUse" x1="582.2095" y1="837.7939" x2="582.2095" y2="828.5892" gradientTransform="matrix(1 0 0 1 -571.3203 -821.9199)">
			<stop  offset="0.0051" style="stop-color:#5DCAC8"/>
			<stop  offset="0.9796" style="stop-color:#4292E2"/>
		</linearGradient>
		<path fill="url(#SVGID_101_)" d="M11.23,12.973c-0.227,0-0.454,0-0.68,0c0-0.004,0-0.009,0-0.012c0.226,0,0.451,0,0.676,0
			C11.228,12.964,11.229,12.969,11.23,12.973z"/>
		
			<linearGradient id="SVGID_102_" gradientUnits="userSpaceOnUse" x1="582.271" y1="837.1875" x2="582.271" y2="829.7949" gradientTransform="matrix(1 0 0 1 -571.3203 -821.9199)">
			<stop  offset="0.0051" style="stop-color:#5DCAC8"/>
			<stop  offset="0.9796" style="stop-color:#4292E2"/>
		</linearGradient>
		<path fill="url(#SVGID_102_)" d="M11.277,12.75c-0.217,0-0.435,0-0.652,0c0-0.003,0-0.006,0-0.009c0.217,0,0.435,0,0.652,0
			C11.277,12.744,11.277,12.747,11.277,12.75z"/>
		
			<linearGradient id="SVGID_103_" gradientUnits="userSpaceOnUse" x1="582.0718" y1="837.4199" x2="582.0718" y2="829.6201" gradientTransform="matrix(1 0 0 1 -571.3203 -821.9199)">
			<stop  offset="0.0051" style="stop-color:#5DCAC8"/>
			<stop  offset="0.9796" style="stop-color:#4292E2"/>
		</linearGradient>
		<path fill="url(#SVGID_103_)" d="M10.42,13.622c0.221,0,0.443,0,0.664,0c0,0.003,0,0.006,0,0.011c-0.221,0-0.443,0-0.664,0
			C10.42,13.628,10.42,13.625,10.42,13.622z"/>
		
			<linearGradient id="SVGID_104_" gradientUnits="userSpaceOnUse" x1="581.2788" y1="837.8691" x2="581.2788" y2="828.531" gradientTransform="matrix(1 0 0 1 -571.3203 -821.9199)">
			<stop  offset="0.0051" style="stop-color:#5DCAC8"/>
			<stop  offset="0.9796" style="stop-color:#4292E2"/>
		</linearGradient>
		<path fill="url(#SVGID_104_)" d="M9.625,12.497c0.222,0,0.444,0,0.667,0c0,0.004,0,0.008,0,0.012c-0.222,0-0.444,0-0.667,0
			C9.625,12.505,9.625,12.501,9.625,12.497z"/>
		
			<linearGradient id="SVGID_105_" gradientUnits="userSpaceOnUse" x1="582.3394" y1="837.8584" x2="582.3394" y2="828.5447" gradientTransform="matrix(1 0 0 1 -571.3203 -821.9199)">
			<stop  offset="0.0051" style="stop-color:#5DCAC8"/>
			<stop  offset="0.9796" style="stop-color:#4292E2"/>
		</linearGradient>
		<path fill="url(#SVGID_105_)" d="M10.688,12.52c0.221,0,0.442,0,0.663,0c0,0.002,0,0.006,0,0.01c-0.221,0-0.442,0-0.663,0
			C10.688,12.525,10.688,12.521,10.688,12.52z"/>
		
			<linearGradient id="SVGID_106_" gradientUnits="userSpaceOnUse" x1="582.0259" y1="837.5283" x2="582.0259" y2="829.8099" gradientTransform="matrix(1 0 0 1 -571.3203 -821.9199)">
			<stop  offset="0.0051" style="stop-color:#5DCAC8"/>
			<stop  offset="0.9796" style="stop-color:#4292E2"/>
		</linearGradient>
		<path fill="url(#SVGID_106_)" d="M11.027,14.734c-0.216,0-0.432,0-0.648,0c0-0.004,0-0.008,0-0.01c0.218,0,0.436,0,0.654,0
			C11.031,14.729,11.029,14.73,11.027,14.734z"/>
		
			<linearGradient id="SVGID_107_" gradientUnits="userSpaceOnUse" x1="581.2056" y1="837.209" x2="581.2056" y2="829.7449" gradientTransform="matrix(1 0 0 1 -571.3203 -821.9199)">
			<stop  offset="0.0051" style="stop-color:#5DCAC8"/>
			<stop  offset="0.9796" style="stop-color:#4292E2"/>
		</linearGradient>
		<path fill="url(#SVGID_107_)" d="M10.2,12.729c-0.211,0-0.422,0-0.633,0c0-0.004,0-0.006,0-0.011c0.212,0,0.425,0,0.638,0
			C10.203,12.723,10.202,12.727,10.2,12.729z"/>
		
			<linearGradient id="SVGID_108_" gradientUnits="userSpaceOnUse" x1="581.1284" y1="837.9619" x2="581.1284" y2="828.2344" gradientTransform="matrix(1 0 0 1 -571.3203 -821.9199)">
			<stop  offset="0.0051" style="stop-color:#5DCAC8"/>
			<stop  offset="0.9796" style="stop-color:#4292E2"/>
		</linearGradient>
		<path fill="url(#SVGID_108_)" d="M10.132,12.951c-0.215,0-0.431,0-0.646,0c0-0.006,0-0.01,0-0.014c0.215,0,0.429,0,0.644,0
			C10.131,12.941,10.132,12.945,10.132,12.951z"/>
		
			<linearGradient id="SVGID_109_" gradientUnits="userSpaceOnUse" x1="582.0044" y1="837.6973" x2="582.0044" y2="828.718" gradientTransform="matrix(1 0 0 1 -571.3203 -821.9199)">
			<stop  offset="0.0051" style="stop-color:#5DCAC8"/>
			<stop  offset="0.9796" style="stop-color:#4292E2"/>
		</linearGradient>
		<path fill="url(#SVGID_109_)" d="M10.372,13.841c0.209,0,0.418,0,0.626,0c0,0.005,0,0.009,0,0.013c-0.209,0-0.419,0-0.627,0
			C10.372,13.85,10.372,13.846,10.372,13.841z"/>
		
			<linearGradient id="SVGID_110_" gradientUnits="userSpaceOnUse" x1="581.1177" y1="837.8291" x2="581.1177" y2="828.4678" gradientTransform="matrix(1 0 0 1 -571.3203 -821.9199)">
			<stop  offset="0.0051" style="stop-color:#5DCAC8"/>
			<stop  offset="0.9796" style="stop-color:#4292E2"/>
		</linearGradient>
		<path fill="url(#SVGID_110_)" d="M9.492,13.158c0.205,0,0.41,0,0.614,0c0,0.003,0,0.008,0,0.012c-0.205,0-0.41,0-0.616,0
			C9.491,13.166,9.491,13.161,9.492,13.158z"/>
		
			<linearGradient id="SVGID_111_" gradientUnits="userSpaceOnUse" x1="581.105" y1="837.415" x2="581.105" y2="829.5361" gradientTransform="matrix(1 0 0 1 -571.3203 -821.9199)">
			<stop  offset="0.0051" style="stop-color:#5DCAC8"/>
			<stop  offset="0.9796" style="stop-color:#4292E2"/>
		</linearGradient>
		<path fill="url(#SVGID_111_)" d="M9.486,13.378c0.2,0,0.4,0,0.6,0c0,0.004,0,0.008,0,0.011c-0.2,0-0.4,0-0.6,0
			C9.486,13.386,9.486,13.382,9.486,13.378z"/>
		
			<linearGradient id="SVGID_112_" gradientUnits="userSpaceOnUse" x1="581.0757" y1="837.6855" x2="581.0757" y2="828.7791" gradientTransform="matrix(1 0 0 1 -571.3203 -821.9199)">
			<stop  offset="0.0051" style="stop-color:#5DCAC8"/>
			<stop  offset="0.9796" style="stop-color:#4292E2"/>
		</linearGradient>
		<path fill="url(#SVGID_112_)" d="M10.024,13.611c-0.178,0-0.356,0-0.535,0c0-0.006,0-0.01,0-0.012c0.178,0,0.357,0,0.535,0
			C10.024,13.604,10.024,13.605,10.024,13.611z"/>
		
			<linearGradient id="SVGID_113_" gradientUnits="userSpaceOnUse" x1="580.7563" y1="836.668" x2="581.3218" y2="836.668" gradientTransform="matrix(1 0 0 1 -571.3203 -821.9199)">
			<stop  offset="0.0051" style="stop-color:#5DCAC8"/>
			<stop  offset="0.9796" style="stop-color:#4292E2"/>
		</linearGradient>
		<path fill="url(#SVGID_113_)" d="M9.436,14.748c0.188,0,0.377,0,0.566,0C9.813,14.748,9.625,14.748,9.436,14.748L9.436,14.748z"/>
		
			<linearGradient id="SVGID_114_" gradientUnits="userSpaceOnUse" x1="590.7573" y1="837.7871" x2="590.7573" y2="828.2096" gradientTransform="matrix(1 0 0 1 -571.3203 -821.9199)">
			<stop  offset="0.0051" style="stop-color:#5DCAC8"/>
			<stop  offset="0.9796" style="stop-color:#4292E2"/>
		</linearGradient>
		<path fill="url(#SVGID_114_)" d="M19.194,14.24c0.162,0,0.325,0,0.489,0c0,0.003,0,0.006,0,0.011c-0.163,0-0.326,0-0.489,0
			C19.194,14.246,19.194,14.241,19.194,14.24z"/>
	</g>
</g>
</svg>
