<?xml version="1.0" encoding="utf-8"?>
<!-- Generator: Adobe Illustrator 16.0.3, SVG Export Plug-In . SVG Version: 6.00 Build 0)  -->
<!DOCTYPE svg PUBLIC "-//W3C//DTD SVG 1.1//EN" "http://www.w3.org/Graphics/SVG/1.1/DTD/svg11.dtd">
<svg version="1.1" id="圖層_1" xmlns="http://www.w3.org/2000/svg" xmlns:xlink="http://www.w3.org/1999/xlink" x="0px" y="0px"
	 width="43.25px" height="15.25px" viewBox="0 0 43.25 15.25" enable-background="new 0 0 43.25 15.25" xml:space="preserve">
<g>
	<g>
		<path fill="#284D96" d="M16.558,11.078c0,0.072,0,0.121,0,0.182c-0.33,0-0.66,0-0.988,0c0,0.004,0,0.009,0,0.016
			c0.326,0,0.651,0,0.988,0c0,0.062,0,0.117,0,0.187c-0.335,0-0.672,0-1.006,0c0,0.006,0,0.014,0,0.021c0.337,0,0.673,0,1.019,0
			c0,0.063,0,0.114,0,0.176c-0.335,0-0.667,0-1,0c0,0.008,0,0.014,0,0.021c0.332,0,0.664,0,1.005,0
			c0.003,0.062,0.004,0.114,0.008,0.179c-0.346,0-0.682,0-1.017,0c0,0.008,0,0.017-0.001,0.021c0.336,0,0.671,0,1.021,0
			c0,0.255,0,0.501,0,0.755c-0.169,0-0.337,0-0.505,0c0,0.006,0,0.013,0,0.017c0.169,0,0.338,0,0.518,0c0,0.119,0,0.232,0,0.354
			c-0.06,0.003-0.121,0.006-0.183,0.009c0,0.008,0,0.014,0,0.018c0.312,0,0.624,0,0.949,0c0-0.037,0-0.075,0-0.114
			c0-0.451,0-0.903,0-1.356c0-0.191,0-0.191,0.201-0.244c0.007,0.032,0.015,0.064,0.019,0.092c0.109-0.104,0.213-0.221,0.333-0.314
			c0.43-0.344,0.93-0.486,1.465-0.389c0.479,0.089,0.89-0.051,1.296-0.264c0.081-0.043,0.161-0.088,0.235-0.142
			c0.099-0.074,0.201-0.104,0.325-0.094c0.464,0.036,0.931,0.065,1.408,0.098c0,0.106,0,0.21,0,0.33
			c-0.188-0.013-0.381-0.021-0.573-0.034c-0.388-0.025-0.777-0.06-1.164-0.086c-0.158-0.012-0.253,0.118-0.375,0.186
			c-0.01,0.006-0.013,0.035-0.01,0.051c0.025,0.123-0.052,0.156-0.146,0.188c-0.325,0.107-0.659,0.127-0.99,0.062
			c-0.59-0.123-1.101,0.028-1.564,0.393c-0.264,0.207-0.267,0.204-0.267,0.541c0,0.431,0,0.859,0,1.302
			c-0.092,0-0.179-0.004-0.266,0.004c-0.021,0-0.044,0.027-0.065,0.047c0.021,0.015,0.043,0.035,0.065,0.037
			c0.105,0.004,0.211,0,0.33,0c0-0.045,0-0.084,0-0.123c0-0.463-0.002-0.928,0.001-1.391c0.001-0.049,0.025-0.105,0.059-0.142
			c0.457-0.447,1.009-0.619,1.639-0.554c0.135,0.016,0.268,0.045,0.403,0.061c0.237,0.027,0.464-0.032,0.688-0.105
			c0.035-0.012,0.068-0.022,0.12-0.043c0.044,0.857,0.089,1.705,0.134,2.561c0.056,0.004,0.102,0.007,0.148,0.014
			c0,0.003,0,0.006,0,0.01c-0.118,0-0.234,0-0.354,0c-1.256,0-2.513-0.006-3.77,0.008c-0.29,0.002-0.579,0.078-0.87,0.109
			c-0.166,0.018-0.334,0.014-0.5,0.02c-0.074,0-0.147,0-0.229,0c0-0.432,0-0.865,0-1.309c0.13,0,0.264,0,0.406,0
			c0-0.046,0-0.09,0-0.154c-0.136,0.02-0.269,0.037-0.414,0.057c0-0.396,0-0.775,0-1.173c-0.267-0.015-0.524-0.026-0.761-0.039
			c0-0.418,0-0.815,0-1.224c-0.01,0.008-0.023,0.018-0.028,0.026c-0.084,0.164-0.225,0.163-0.384,0.146
			c-0.237-0.026-0.474-0.041-0.719-0.061c0-0.064,0-0.122,0-0.199c-0.028,0.023-0.046,0.032-0.051,0.047
			c-0.073,0.148-0.201,0.142-0.337,0.127c-0.252-0.023-0.505-0.043-0.757-0.06c-0.147-0.01-0.147-0.006-0.15-0.153
			c0-0.019-0.003-0.035-0.016-0.063c-0.086,0.228-0.262,0.188-0.434,0.173c-0.289-0.023-0.578-0.047-0.868-0.064
			c-0.068-0.006-0.099-0.031-0.097-0.102c0-0.04-0.005-0.082-0.01-0.152c-0.057,0.067-0.102,0.112-0.136,0.164
			c-0.039,0.055-0.083,0.071-0.149,0.065c-0.401-0.03-0.804-0.062-1.207-0.086C8.906,9.706,8.866,9.689,8.866,9.605
			c0-0.05-0.017-0.098-0.028-0.15C8.825,9.459,8.811,9.461,8.807,9.468c-0.091,0.179-0.23,0.218-0.424,0.187
			C8.145,9.615,7.901,9.619,7.66,9.589C7.412,9.56,7.181,9.639,6.943,9.677C6.755,9.71,6.571,9.755,6.383,9.785
			C6.35,9.794,6.3,9.773,6.277,9.746C6.21,9.68,6.152,9.6,6.077,9.529c0.024,0.097,0.049,0.19,0.077,0.299
			C5.937,9.867,5.731,9.906,5.522,9.938c-0.023,0.004-0.057-0.025-0.076-0.05C5.4,9.83,5.361,9.771,5.299,9.717
			C5.317,9.801,5.334,9.885,5.354,9.98c-0.154,0.029-0.3,0.063-0.448,0.084c-0.029,0.004-0.071-0.024-0.097-0.052
			C4.763,9.959,4.73,9.91,4.671,9.834c0.023,0.104,0.04,0.179,0.057,0.255c-0.135,0.026-0.258,0.058-0.384,0.071
			c-0.041-0.002-0.091-0.032-0.127-0.059C4.178,10.07,4.151,10.027,4.1,9.966c0.023,0.09,0.04,0.153,0.058,0.228
			c-0.12,0.024-0.233,0.051-0.347,0.069c-0.023,0.003-0.059-0.021-0.078-0.042c-0.036-0.04-0.064-0.088-0.109-0.128
			c0.015,0.065,0.031,0.133,0.048,0.205c-0.175,0.036-0.354,0.169-0.458-0.116c-0.006,0.012-0.012,0.021-0.018,0.029
			c0.014,0.052,0.027,0.1,0.044,0.16c-0.123-0.006-0.239-0.014-0.385-0.022c0.122,0.162,0.231,0.306,0.338,0.449
			c0.008-0.002,0.016-0.004,0.022-0.006c0-0.114,0-0.229,0-0.343c0.009-0.004,0.02-0.01,0.029-0.015
			c0.016,0.021,0.04,0.039,0.048,0.063c0.068,0.171,0.133,0.341,0.201,0.512c0.012,0.027,0.037,0.053,0.055,0.079
			c0.01-0.008,0.021-0.015,0.03-0.021c-0.084-0.197-0.169-0.396-0.253-0.599c0.007-0.004,0.014-0.008,0.02-0.013
			c0.082,0.111,0.163,0.227,0.244,0.339c0.054,0.073,0.105,0.149,0.16,0.226c0.016,0.02,0.044,0.028,0.067,0.047
			c0.007-0.009,0.016-0.019,0.023-0.023c-0.153-0.206-0.306-0.412-0.469-0.635c0.116-0.021,0.217-0.043,0.319-0.063
			c0.09,0.244,0.139,0.489,0.234,0.721c0.018-0.006,0.037-0.016,0.055-0.021c-0.079-0.218-0.157-0.437-0.236-0.656
			c0.007-0.004,0.014-0.009,0.021-0.013c0.115,0.152,0.231,0.306,0.346,0.457c0.038,0.051,0.073,0.102,0.114,0.148
			c0.021,0.022,0.052,0.039,0.079,0.059c0.009-0.01,0.017-0.02,0.027-0.026c-0.167-0.226-0.335-0.452-0.511-0.692
			c0.099-0.021,0.184-0.032,0.267-0.059c0.074-0.02,0.105,0.014,0.124,0.081c0.057,0.2,0.117,0.399,0.178,0.601
			c0.01,0.027,0.037,0.054,0.055,0.078c0.01-0.007,0.02-0.013,0.029-0.018c-0.082-0.251-0.165-0.501-0.246-0.751
			c0.009-0.005,0.017-0.011,0.025-0.015c0.1,0.134,0.2,0.267,0.3,0.399c0.073,0.103,0.146,0.203,0.223,0.302
			c0.021,0.024,0.055,0.041,0.083,0.063c0.009-0.014,0.017-0.021,0.027-0.031c-0.188-0.244-0.376-0.488-0.575-0.75
			c0.151-0.029,0.286-0.057,0.434-0.086c0.077,0.281,0.151,0.555,0.226,0.829c0.094,0.008,0.087-0.038,0.067-0.101
			c-0.074-0.23-0.145-0.461-0.217-0.692c-0.005-0.013-0.007-0.024,0.01-0.05c0.069,0.097,0.138,0.191,0.206,0.29
			c0.11,0.155,0.215,0.315,0.33,0.467c0.029,0.039,0.084,0.056,0.127,0.081c0.009-0.012,0.018-0.021,0.027-0.033
			c-0.205-0.27-0.411-0.538-0.627-0.822c0.152-0.031,0.286-0.062,0.421-0.082c0.02-0.002,0.062,0.043,0.068,0.071
			c0.06,0.247,0.121,0.49,0.17,0.738c0.018,0.093,0.055,0.108,0.145,0.081c-0.088-0.303-0.174-0.605-0.262-0.907
			c0.008-0.003,0.018-0.007,0.028-0.013c0.101,0.146,0.202,0.291,0.304,0.438c0.092,0.133,0.182,0.27,0.276,0.398
			c0.021,0.029,0.056,0.049,0.084,0.072c0.009-0.012,0.018-0.02,0.027-0.028C5.946,10.585,5.74,10.293,5.52,9.98
			c0.222-0.046,0.43-0.087,0.641-0.13c0.086,0.321,0.17,0.632,0.252,0.941c0.015,0.057,0.033,0.098,0.114,0.067
			c-0.099-0.342-0.198-0.683-0.296-1.021c0.011-0.007,0.023-0.015,0.034-0.021c0.024,0.022,0.05,0.041,0.069,0.067
			c0.219,0.306,0.439,0.606,0.653,0.916c0.046,0.065,0.094,0.097,0.189,0.067c-0.277-0.352-0.551-0.694-0.836-1.055
			C6.632,9.754,6.906,9.71,7.174,9.643C7.477,9.568,7.772,9.648,8.07,9.656C8.238,9.66,8.404,9.682,8.596,9.699
			c-0.313,0.398-0.612,0.785-0.92,1.181c0.113,0.024,0.191,0.039,0.262-0.063c0.235-0.353,0.48-0.695,0.724-1.039
			c0.024-0.035,0.07-0.056,0.132-0.101c0.047,0.442,0.09,0.851,0.135,1.263c-0.127,0-0.242,0-0.369,0
			C8.557,11,8.555,11.056,8.551,11.119c-0.027,0.008-0.054,0.013-0.085,0.017c0.066,0.019,0.128,0.05,0.191,0.052
			c0.429,0.008,0.858,0.01,1.289,0.014c0.039,0.002,0.079,0,0.124,0c0,0.203,0,0.392,0,0.601c-0.502,0-1,0-1.509,0
			c0,0.077,0,0.138,0,0.208c-0.089,0-0.169,0-0.249,0c0.481,0.102,0.963,0.036,1.445,0.035c0.103-0.001,0.203,0,0.313,0
			c0,0.15,0,0.305,0,0.471c-0.189,0.01-0.383,0.018-0.575,0.023c-0.278,0.013-0.558,0.021-0.835,0.035
			c-0.037,0.002-0.069,0.045-0.107,0.06c-0.032,0.013-0.068,0.021-0.101,0.021c-0.617,0-1.235,0-1.852,0
			c-0.025,0-0.051,0-0.076,0.02c0.424,0,0.849,0,1.272,0c0.155-0.001,0.31-0.02,0.462,0c0.546,0.057,1.092,0.001,1.637-0.021
			c0.054-0.002,0.109-0.002,0.172-0.002c0,0.252,0,0.5,0,0.758c-0.255,0.021-0.511,0.039-0.766,0.06
			c-0.22,0.019-0.44,0.033-0.659,0.05c-0.055,0.004-0.107,0.018-0.077,0.104c2.12-0.176,4.243-0.352,6.382-0.526
			c0,0.213,0.001,0.417-0.004,0.622c0,0.021-0.044,0.055-0.072,0.059c-0.115,0.019-0.232,0.024-0.361,0.041c0-0.16,0-0.318,0-0.474
			c-0.234-0.062-0.458-0.063-0.687-0.044c-0.487,0.048-0.972,0.085-1.458,0.128c-0.46,0.041-0.921,0.084-1.382,0.124
			c-0.286,0.023-0.569,0.055-0.856,0.07c-0.095,0.006-0.116,0.041-0.114,0.125c0.003,0.188,0,0.381,0,0.578
			c-0.404,0.045-0.8,0.088-1.196,0.141c-0.146,0.02-0.287,0.072-0.434,0.094c-0.574,0.074-1.149,0.145-1.725,0.215
			c-0.102,0.012-0.204,0.043-0.305,0.032c-0.181-0.013-0.363-0.04-0.539-0.081c-1.437-0.351-2.871-0.701-4.307-1.053
			c-0.056-0.02-0.072-0.037-0.072-0.096c0.002-0.758,0.001-1.516,0.001-2.271c0-0.019,0.003-0.036,0.005-0.062
			c0.549-0.041,1.094-0.082,1.654-0.123c-0.011-0.036-0.018-0.069-0.032-0.103c-0.09-0.214-0.18-0.432-0.277-0.646
			c-0.017-0.038-0.066-0.079-0.104-0.088c-0.342-0.062-0.686-0.113-1.029-0.172c-0.01,0-0.018-0.008-0.055-0.026
			c0.36,0.024,0.692,0.049,1.022,0.069c-0.248-0.138-0.496-0.274-0.653-0.188c0.159-0.046,0.457-0.135,0.754-0.223
			c1.023-0.297,2.046-0.596,3.07-0.891C5.957,8.807,6.118,8.742,6.286,8.71c0.123-0.021,0.254-0.015,0.38-0.003
			C7.352,8.775,8.037,8.85,8.722,8.925c0.722,0.077,1.444,0.159,2.165,0.235c0.657,0.07,1.313,0.136,1.97,0.205
			c0.581,0.063,1.159,0.129,1.738,0.188c0.453,0.052,0.905,0.095,1.358,0.142c0.009,0.002,0.018,0.006,0.025,0.022
			c-0.152-0.012-0.306-0.021-0.458-0.033c-0.315-0.024-0.628-0.055-0.943-0.079c-0.187-0.015-0.187-0.011-0.214,0.201
			c0.686-0.018,1.367-0.035,2.047-0.056c0.001,0.007,0.001,0.014,0.001,0.021c-0.675,0.104-1.35,0.207-2.014,0.31
			c0,0.333,0,0.649,0,0.995C15.125,11.078,15.838,11.078,16.558,11.078z M6.21,13.099c0.029,0.003,0.057,0.009,0.086,0.009
			c0.697,0.002,1.394,0.004,2.09,0.004c0.036,0,0.073,0,0.109,0c0-0.004,0-0.009-0.001-0.013c-0.762,0-1.524,0-2.287,0
			c0-0.062,0-0.12,0-0.183c-0.356-0.027-0.694-0.055-1.04-0.081c0,0.058,0,0.108,0,0.164c0.023,0,0.041,0.001,0.059,0.003
			C5.555,13.033,5.881,13.066,6.21,13.099z M6.209,13.34c0.189,0,0.377,0,0.566,0C6.586,13.34,6.397,13.34,6.209,13.34
			c0.002-0.066,0.005-0.137,0.011-0.212c-0.357-0.032-0.701-0.062-1.048-0.093c0,0.07,0,0.123,0,0.178
			c0.167,0.018,0.327,0.033,0.486,0.053C5.841,13.289,6.024,13.316,6.209,13.34z M9.621,9.225c0-0.008,0-0.018,0.001-0.025
			C8.978,9.146,8.336,9.094,7.674,9.04C7.707,9.057,7.722,9.064,7.74,9.068c0.329,0.1,0.659,0.193,0.991,0.289
			c0.044,0.012,0.094,0.027,0.138,0.021C9.121,9.331,9.372,9.279,9.621,9.225z M6.254,8.97C5.88,9.06,5.528,9.146,5.178,9.23
			c0.267,0.075,0.531,0.133,0.795,0.188C6,9.424,6.05,9.418,6.057,9.4C6.125,9.266,6.184,9.126,6.254,8.97z M6.216,14.775
			c0-0.074,0-0.138,0-0.209c-0.347-0.078-0.694-0.156-1.05-0.234c0,0.066,0,0.125,0,0.188C5.516,14.604,5.862,14.689,6.216,14.775z
			 M5.169,12.795c0.347,0.025,0.688,0.053,1.032,0.08c0-0.078,0-0.137,0-0.202c-0.346-0.024-0.688-0.048-1.032-0.069
			C5.169,12.674,5.169,12.73,5.169,12.795z M6.212,13.371C5.864,13.33,5.52,13.29,5.17,13.251c0,0.062,0,0.123,0,0.185
			c0.351,0.047,0.693,0.092,1.042,0.141C6.212,13.504,6.212,13.443,6.212,13.371z M5.168,14.074
			c0.353,0.069,0.697,0.141,1.049,0.211c0-0.073,0-0.135,0-0.198c-0.35-0.063-0.696-0.125-1.049-0.188
			C5.168,13.964,5.168,14.016,5.168,14.074z M5.168,14.289c0.354,0.08,0.698,0.156,1.048,0.234c0-0.072,0-0.133,0-0.197
			c-0.349-0.071-0.694-0.143-1.048-0.213C5.168,14.18,5.168,14.232,5.168,14.289z M5.166,12.564
			c0.351,0.021,0.693,0.043,1.044,0.064c-0.005-0.075-0.008-0.135-0.011-0.196C5.848,12.416,5.51,12.4,5.166,12.382
			C5.166,12.447,5.166,12.496,5.166,12.564z M5.166,13.645c0.354,0.057,0.698,0.112,1.046,0.17c0-0.074,0-0.131,0-0.199
			c-0.35-0.049-0.696-0.094-1.046-0.142C5.166,13.537,5.166,13.586,5.166,13.645z M5.167,13.859
			c0.354,0.063,0.697,0.123,1.048,0.188c0-0.067,0-0.126,0-0.19c-0.348-0.057-0.694-0.111-1.048-0.17
			C5.167,13.746,5.167,13.796,5.167,13.859z M5.167,11.943c0.351,0,0.689,0,1.026,0c0-0.06,0-0.112,0-0.164
			c-0.347,0-0.685,0-1.026,0C5.167,11.836,5.167,11.882,5.167,11.943z M6.193,11.283c0-0.063,0-0.117,0-0.182
			c-0.348,0.021-0.688,0.045-1.025,0.065c0,0.063,0,0.108,0,0.168C5.513,11.318,5.851,11.303,6.193,11.283z M6.195,11.566
			c-0.347,0-0.687,0-1.024,0c0,0.069,0,0.119,0,0.162c0.345,0,0.681,0,1.029,0c0-0.043,0-0.076,0-0.107
			C6.199,11.599,6.196,11.578,6.195,11.566z M5.168,12.346c0.346,0.016,0.686,0.03,1.026,0.046c0-0.071,0-0.122,0-0.188
			c-0.344,0-0.683,0-1.026,0C5.168,12.242,5.168,12.287,5.168,12.346z M5.167,11.51c0.353,0,0.69,0,1.026,0c0-0.075,0-0.124,0-0.186
			c-0.345,0.018-0.683,0.035-1.026,0.053C5.167,11.432,5.167,11.479,5.167,11.51z M5.168,12.148c0.342,0,0.683,0,1.023,0
			c0-0.049,0-0.102,0-0.16c-0.345,0-0.682,0-1.023,0C5.168,12.037,5.168,12.086,5.168,12.148z M5.004,12.593
			c-0.286-0.019-0.567-0.035-0.85-0.054c0,0.068,0,0.119,0,0.178c0.286,0.021,0.565,0.045,0.85,0.066
			C5.004,12.715,5.004,12.658,5.004,12.593z M4.154,14.271c0.285,0.07,0.564,0.139,0.884,0.217
			c-0.034-0.086-0.043-0.188-0.079-0.197c-0.263-0.072-0.532-0.126-0.805-0.188C4.154,14.158,4.154,14.208,4.154,14.271z
			 M5.014,13.41c-0.026-0.074,0.052-0.17-0.068-0.187c-0.26-0.032-0.522-0.059-0.788-0.087c0,0.057,0,0.105,0,0.162
			C4.443,13.339,4.72,13.374,5.014,13.41z M3.143,12.475c-0.03,0.157-0.023,0.168,0.121,0.174c0.062,0.004,0.124,0.014,0.186,0.018
			c0.18,0.013,0.36,0.021,0.553,0.035c-0.022-0.075,0.042-0.17-0.077-0.18C3.667,12.502,3.408,12.49,3.143,12.475z M5.002,12.554
			c0-0.065,0-0.118,0-0.178c-0.287-0.015-0.566-0.026-0.849-0.039c0,0.063,0,0.108,0,0.162C4.438,12.518,4.714,12.535,5.002,12.554z
			 M4.158,13.716c-0.017,0.147-0.017,0.147,0.111,0.177c0.043,0.01,0.086,0.018,0.129,0.026c0.2,0.041,0.398,0.08,0.598,0.118
			c0.032-0.163,0.026-0.172-0.118-0.195C4.64,13.802,4.402,13.759,4.158,13.716z M4.152,11.393c0.292-0.017,0.572-0.031,0.85-0.048
			c0-0.063,0-0.11,0-0.167c-0.289,0.018-0.569,0.037-0.85,0.055C4.152,11.292,4.152,11.335,4.152,11.393z M5.011,14.081
			c-0.287-0.056-0.568-0.113-0.867-0.175c0.024,0.063-0.039,0.146,0.066,0.168c0.263,0.06,0.527,0.117,0.794,0.177
			c0.003-0.028,0.006-0.05,0.007-0.071C5.012,14.152,5.011,14.121,5.011,14.081z M4.997,13.824c0.026-0.164,0.026-0.164-0.118-0.187
			c-0.062-0.009-0.122-0.022-0.184-0.03c-0.178-0.029-0.357-0.058-0.539-0.084c0,0.059,0,0.104,0,0.151
			C4.441,13.728,4.719,13.777,4.997,13.824z M3.145,13.874c-0.028,0.144-0.027,0.146,0.087,0.173
			c0.195,0.049,0.391,0.097,0.587,0.143c0.055,0.014,0.111,0.022,0.17,0.033c0-0.061,0-0.107,0-0.158
			C3.706,14,3.426,13.936,3.145,13.874z M5.003,13.193c0-0.055,0-0.105,0-0.172c-0.285-0.021-0.566-0.049-0.85-0.072
			c0,0.061,0,0.101,0,0.149C4.438,13.13,4.717,13.16,5.003,13.193z M12.794,9.486c-0.001-0.008-0.001-0.017-0.002-0.024
			c-0.306-0.022-0.613-0.05-0.932-0.075c0.02,0.1,0.036,0.184,0.053,0.27C12.216,9.595,12.506,9.54,12.794,9.486z M6.191,10.928
			c-0.348,0.025-0.684,0.053-1.023,0.077c0,0.041,0,0.077,0,0.126c0.343-0.023,0.681-0.046,1.023-0.066
			C6.191,11.013,6.191,10.978,6.191,10.928z M4.155,12.754c0,0.063,0,0.107,0,0.154c0.287,0.023,0.566,0.05,0.849,0.072
			c0-0.062,0-0.105,0-0.158C4.722,12.801,4.444,12.777,4.155,12.754z M4.152,12.125c0.289,0,0.57,0,0.85,0c0-0.043,0-0.088,0-0.146
			c-0.287,0-0.566,0-0.85,0C4.152,12.025,4.152,12.064,4.152,12.125z M4.153,13.339c0,0.054,0,0.093,0,0.144
			c0.283,0.045,0.563,0.092,0.85,0.139c0-0.063,0-0.111,0-0.168C4.722,13.414,4.444,13.377,4.153,13.339z M3.992,12.326
			C3.7,12.314,3.419,12.303,3.136,12.29c0,0.054,0,0.092,0,0.146c0.287,0.018,0.569,0.036,0.856,0.055
			C3.992,12.43,3.992,12.383,3.992,12.326z M3.991,11.244c-0.257,0.015-0.501,0.023-0.745,0.039c-0.125,0.009-0.13,0.016-0.101,0.16
			c0.28-0.017,0.562-0.031,0.846-0.043C3.991,11.339,3.991,11.296,3.991,11.244z M5.006,11.791c-0.291,0-0.571,0-0.854,0
			c0,0.049,0,0.087,0,0.14c0.287,0,0.569,0,0.854,0C5.006,11.884,5.006,11.84,5.006,11.791z M11.315,9.359
			c0-0.007,0-0.013-0.001-0.021c-0.312-0.024-0.625-0.052-0.96-0.078c0.038,0.086,0.064,0.153,0.101,0.215
			c0.012,0.021,0.052,0.042,0.075,0.036C10.793,9.464,11.054,9.41,11.315,9.359z M3.991,12.742C3.7,12.72,3.42,12.695,3.134,12.675
			c0,0.053,0,0.093,0,0.146c0.288,0.024,0.569,0.051,0.857,0.074C3.991,12.838,3.991,12.797,3.991,12.742z M5.003,11.605
			c-0.281,0-0.565,0-0.856,0c0.003,0.062,0.005,0.098,0.007,0.133c0.29,0,0.567,0,0.85,0C5.003,11.689,5.003,11.646,5.003,11.605z
			 M4.153,12.296c0.286,0.014,0.569,0.026,0.849,0.042c0-0.061,0-0.105,0-0.163c-0.288,0-0.567,0-0.849,0
			C4.153,12.214,4.153,12.249,4.153,12.296z M3.991,13.119c-0.29-0.032-0.568-0.065-0.852-0.098
			c-0.026,0.098-0.016,0.152,0.099,0.156c0.091,0.002,0.181,0.021,0.271,0.035c0.158,0.021,0.317,0.038,0.481,0.059
			C3.991,13.216,3.991,13.173,3.991,13.119z M4.154,11.549c0.286,0,0.566,0,0.852,0c0-0.061,0-0.104,0-0.162
			c-0.287,0.016-0.566,0.029-0.852,0.042C4.154,11.48,4.154,11.519,4.154,11.549z M13.217,9.494c0,0.091,0,0.17,0,0.259
			c0.3-0.056,0.596-0.112,0.892-0.168c-0.001-0.007-0.002-0.013-0.004-0.019C13.814,9.545,13.524,9.521,13.217,9.494z M3.993,13.494
			c-0.29-0.047-0.57-0.09-0.851-0.137c-0.032,0.103-0.006,0.146,0.096,0.151c0.098,0.007,0.194,0.034,0.292,0.054
			c0.152,0.024,0.305,0.053,0.463,0.079C3.993,13.587,3.993,13.547,3.993,13.494z M3.991,13.688
			c-0.282-0.054-0.564-0.104-0.845-0.156c-0.01,0.009-0.02,0.016-0.03,0.021c0.024,0.04,0.042,0.109,0.073,0.117
			c0.265,0.063,0.531,0.111,0.804,0.166C3.991,13.785,3.991,13.746,3.991,13.688z M3.127,11.97c0.003,0.046,0.005,0.084,0.009,0.134
			c0.291,0,0.57,0,0.854,0c0-0.041,0-0.085,0-0.134C3.706,11.97,3.426,11.97,3.127,11.97z M4.022,14.029
			c-0.032-0.071-0.042-0.15-0.07-0.154c-0.269-0.063-0.54-0.113-0.812-0.167c-0.03,0.087-0.007,0.132,0.078,0.146
			c0.068,0.014,0.135,0.033,0.203,0.049C3.608,13.939,3.796,13.98,4.022,14.029z M2.976,12.624c0-0.058,0-0.104,0-0.161
			c-0.246-0.016-0.488-0.03-0.729-0.044c-0.016,0.138-0.012,0.151,0.072,0.157C2.533,12.594,2.748,12.607,2.976,12.624z
			 M3.144,12.861c-0.037,0.101,0.003,0.131,0.081,0.138c0.055,0.004,0.11,0.01,0.164,0.017c0.199,0.02,0.397,0.041,0.601,0.063
			c0-0.055,0-0.092,0-0.145C3.706,12.906,3.426,12.886,3.144,12.861z M3.991,11.792c-0.289,0-0.571,0-0.861,0
			c0.002,0.045,0.004,0.083,0.007,0.127c0.29,0,0.57,0,0.854,0C3.991,11.876,3.991,11.84,3.991,11.792z M3.139,13.201
			c-0.024,0.086-0.008,0.129,0.081,0.133c0.069,0.003,0.137,0.02,0.206,0.029c0.186,0.028,0.372,0.06,0.562,0.088
			c0-0.053,0-0.092,0-0.135C3.704,13.279,3.425,13.238,3.139,13.201z M3.137,12.249c0.286,0.014,0.566,0.026,0.852,0.041
			c0-0.052,0-0.089,0-0.142c-0.287,0-0.568,0-0.852,0C3.137,12.179,3.137,12.21,3.137,12.249z M2.242,11.49
			c0.253-0.015,0.492-0.025,0.73-0.037c0-0.055,0-0.102,0-0.15c-0.249,0.016-0.488,0.032-0.73,0.049
			C2.242,11.398,2.242,11.435,2.242,11.49z M2.252,12.605c-0.039,0.111,0.003,0.148,0.098,0.153c0.077,0.002,0.153,0.013,0.23,0.017
			c0.13,0.01,0.26,0.021,0.396,0.028c0-0.052,0-0.09,0-0.142C2.733,12.645,2.495,12.624,2.252,12.605z M2.252,13.672
			c-0.032,0.104,0,0.143,0.083,0.156c0.104,0.02,0.206,0.053,0.31,0.074c0.108,0.025,0.217,0.051,0.333,0.078
			c0-0.056,0-0.097,0-0.146C2.736,13.779,2.495,13.725,2.252,13.672z M4.412,9.414c0.001,0.007,0.002,0.015,0.003,0.021
			c0.263,0.054,0.526,0.104,0.788,0.158C5.119,9.488,5.025,9.404,4.928,9.322C4.909,9.306,4.873,9.3,4.848,9.305
			C4.702,9.34,4.558,9.378,4.412,9.414z M3.104,11.574c0.325,0,0.606,0,0.885,0c0-0.058,0-0.094,0-0.137
			c-0.272,0.014-0.535,0.024-0.798,0.045C3.164,11.484,3.14,11.533,3.104,11.574z M3.991,11.635c-0.274,0-0.541-0.003-0.808,0.001
			c-0.086,0.002-0.051,0.065-0.043,0.104c0.289,0,0.57,0,0.856,0C3.995,11.693,3.993,11.658,3.991,11.635z M2.975,12.279
			c-0.246-0.012-0.485-0.021-0.729-0.033c0,0.058,0,0.094,0,0.135c0.248,0.018,0.488,0.029,0.729,0.047
			C2.975,12.371,2.975,12.33,2.975,12.279z M5.005,11.017c-0.289,0.021-0.568,0.043-0.852,0.063c0,0.044,0,0.074,0,0.111
			c0.287-0.018,0.568-0.035,0.852-0.053C5.005,11.098,5.005,11.066,5.005,11.017z M2.975,11.801c-0.25,0-0.49,0-0.771,0
			c0.042,0.057,0.064,0.114,0.087,0.115c0.226,0.006,0.453,0.005,0.683,0.005C2.975,11.873,2.975,11.837,2.975,11.801z
			 M2.977,13.003c-0.25-0.026-0.49-0.054-0.742-0.079c0.005,0.053,0.008,0.084,0.012,0.119c0.247,0.033,0.486,0.064,0.73,0.099
			C2.977,13.088,2.977,13.052,2.977,13.003z M2.975,13.462c0-0.048,0-0.085,0-0.132c-0.244-0.04-0.483-0.078-0.72-0.114
			c-0.034,0.081-0.014,0.115,0.058,0.128C2.532,13.38,2.75,13.422,2.975,13.462z M3.137,11.255c0.268-0.017,0.53-0.029,0.792-0.046
			c0.086-0.004,0.076-0.057,0.053-0.118c-0.281,0.021-0.56,0.043-0.845,0.063C3.137,11.189,3.137,11.221,3.137,11.255z M3.758,9.568
			C3.757,9.576,3.755,9.583,3.754,9.592c0.264,0.05,0.528,0.102,0.791,0.15C4.453,9.65,4.355,9.576,4.249,9.513
			c-0.042-0.021-0.102-0.03-0.15-0.022C3.984,9.509,3.871,9.542,3.758,9.568z M2.976,13.501c-0.245-0.043-0.486-0.086-0.728-0.13
			c-0.009,0.017-0.017,0.029-0.026,0.044c0.029,0.028,0.054,0.063,0.088,0.083c0.034,0.019,0.078,0.019,0.118,0.025
			c0.181,0.034,0.362,0.069,0.549,0.105C2.976,13.578,2.976,13.544,2.976,13.501z M2.243,12.078c0.251,0,0.491,0,0.732,0
			c0-0.038,0-0.072,0-0.117c-0.246,0-0.486,0-0.732,0C2.243,11.994,2.243,12.027,2.243,12.078z M2.266,13.527
			c-0.012,0.008-0.024,0.019-0.038,0.022c0.021,0.028,0.036,0.081,0.063,0.088c0.225,0.056,0.453,0.104,0.686,0.155
			c0-0.047,0-0.082,0-0.121C2.737,13.623,2.502,13.574,2.266,13.527z M2.977,12.846c-0.247-0.021-0.486-0.044-0.725-0.064
			c-0.009,0.011-0.018,0.021-0.025,0.027c0.025,0.027,0.046,0.074,0.073,0.08c0.214,0.027,0.43,0.049,0.645,0.07
			c0.01,0.001,0.02-0.006,0.032-0.01C2.977,12.919,2.977,12.892,2.977,12.846z M2.975,11.654c-0.25,0-0.49,0-0.725,0
			c-0.031,0.095,0.006,0.11,0.076,0.108c0.208-0.006,0.417-0.01,0.625-0.015c0.006,0,0.013-0.006,0.024-0.012
			C2.975,11.711,2.975,11.686,2.975,11.654z M3.525,9.982C3.274,9.804,3.046,9.638,2.747,9.839C3.002,9.886,3.252,9.933,3.525,9.982
			z M2.977,12.111c-0.23,0-0.45,0-0.67,0.004c-0.022,0.002-0.045,0.031-0.067,0.05c0.023,0.016,0.046,0.044,0.07,0.044
			c0.213,0.013,0.425,0.021,0.639,0.027c0.01,0.002,0.02-0.004,0.029-0.008C2.977,12.195,2.977,12.168,2.977,12.111z M2.982,13.181
			c-0.25-0.032-0.49-0.065-0.73-0.098c-0.007,0.011-0.015,0.021-0.022,0.032c0.021,0.021,0.038,0.059,0.061,0.062
			c0.225,0.042,0.451,0.077,0.684,0.116C2.977,13.253,2.979,13.226,2.982,13.181z M2.968,11.609
			c0.028-0.088,0.004-0.119-0.072-0.115c-0.197,0.015-0.393,0.021-0.59,0.031c-0.068,0.002-0.081,0.029-0.057,0.084
			C2.492,11.609,2.729,11.609,2.968,11.609z M3.967,9.876C3.664,9.611,3.47,9.57,3.243,9.711C3.486,9.768,3.727,9.82,3.967,9.876z
			 M2.088,12.406c-0.168-0.013-0.329-0.021-0.497-0.03c0,0.054,0,0.091,0,0.14c0.166,0.014,0.328,0.026,0.497,0.041
			C2.088,12.501,2.088,12.46,2.088,12.406z M2.97,11.267c0.006-0.017,0.014-0.032,0.021-0.049c-0.031-0.017-0.061-0.045-0.09-0.045
			c-0.201,0.011-0.401,0.024-0.6,0.046c-0.025,0.002-0.046,0.041-0.069,0.063c0.007,0.012,0.016,0.021,0.023,0.029
			C2.493,11.296,2.732,11.281,2.97,11.267z M2.088,11.363c-0.169,0.01-0.331,0.017-0.495,0.024c0,0.052,0,0.089,0,0.14
			c0.17-0.013,0.333-0.021,0.501-0.031C2.092,11.447,2.09,11.412,2.088,11.363z M2.08,12.728c0.01-0.013,0.021-0.024,0.031-0.034
			c-0.023-0.035-0.044-0.098-0.073-0.103c-0.146-0.019-0.296-0.024-0.455-0.034c0.003,0.053,0.006,0.092,0.008,0.133
			C1.763,12.699,1.921,12.714,2.08,12.728z M2.076,13.763c0.009-0.008,0.017-0.017,0.025-0.024
			c-0.017-0.037-0.025-0.101-0.049-0.105c-0.149-0.043-0.302-0.072-0.489-0.114c0.029,0.065,0.037,0.125,0.061,0.134
			C1.773,13.693,1.925,13.725,2.076,13.763z M1.585,12.337c0.174,0.011,0.336,0.021,0.498,0.03c0.008-0.012,0.018-0.021,0.025-0.03
			c-0.024-0.034-0.045-0.101-0.07-0.101c-0.146-0.012-0.295-0.004-0.448-0.004C1.588,12.259,1.587,12.291,1.585,12.337z
			 M2.289,9.939c0.242,0.039,0.48,0.074,0.719,0.112C2.784,9.92,2.563,9.768,2.289,9.939z M1.59,12.052
			c0.149,0.007,0.295,0.017,0.44,0.017c0.021,0,0.058-0.033,0.059-0.053c0.001-0.021-0.03-0.063-0.049-0.063
			c-0.148-0.006-0.298-0.004-0.45-0.004C1.59,11.986,1.59,12.015,1.59,12.052z M2.078,13.021c0.009-0.007,0.018-0.014,0.027-0.02
			c-0.022-0.036-0.042-0.096-0.068-0.102c-0.146-0.023-0.295-0.035-0.439-0.05C1.564,12.933,1.6,12.96,1.667,12.967
			C1.804,12.986,1.941,13.003,2.078,13.021z M15.495,13.719c0.019-0.255,0.051-0.268-0.228-0.243c0,0.068,0,0.138,0,0.212
			C15.346,13.699,15.42,13.709,15.495,13.719z M2.084,11.805c-0.139,0-0.277-0.003-0.415,0.002
			c-0.028,0.001-0.054,0.028-0.082,0.044c0.027,0.022,0.052,0.062,0.081,0.062c0.109,0.012,0.22,0.005,0.329,0.011
			C2.085,11.924,2.108,11.888,2.084,11.805z M1.569,13.249c0.024,0.052,0.032,0.098,0.05,0.103c0.154,0.038,0.308,0.068,0.464,0.1
			c0.008-0.012,0.016-0.021,0.023-0.035c-0.018-0.026-0.033-0.072-0.057-0.078C1.901,13.304,1.75,13.279,1.569,13.249z M2.074,13.3
			c0.01-0.01,0.019-0.019,0.028-0.024c-0.015-0.031-0.027-0.086-0.047-0.088c-0.151-0.033-0.304-0.053-0.457-0.078
			c-0.008,0.01-0.016,0.02-0.023,0.026c0.021,0.028,0.036,0.078,0.063,0.083C1.781,13.251,1.928,13.273,2.074,13.3z M2.076,13.593
			c0.008-0.006,0.017-0.015,0.025-0.021C2.088,13.545,2.08,13.496,2.06,13.49c-0.154-0.037-0.309-0.065-0.463-0.1
			c-0.007,0.021-0.015,0.044-0.021,0.066C1.731,13.537,1.912,13.542,2.076,13.593z M2.077,12.865
			c0.008-0.008,0.018-0.018,0.025-0.026c-0.02-0.024-0.04-0.072-0.063-0.075c-0.147-0.018-0.295-0.025-0.442-0.033
			c-0.005,0.021-0.009,0.045-0.015,0.068C1.742,12.845,1.914,12.839,2.077,12.865z M2.075,11.761c0.009-0.011,0.02-0.021,0.03-0.03
			c-0.028-0.021-0.054-0.063-0.083-0.063c-0.124-0.003-0.249,0.002-0.373,0.012c-0.025,0.002-0.049,0.035-0.072,0.053
			c0.005,0.01,0.011,0.021,0.017,0.028C1.754,11.761,1.914,11.761,2.075,11.761z M1.593,12.103c-0.005,0.009-0.011,0.021-0.016,0.03
			c0.026,0.016,0.05,0.045,0.076,0.047c0.124,0.012,0.25,0.018,0.373,0.018c0.021,0,0.043-0.022,0.064-0.039
			c-0.02-0.019-0.039-0.053-0.061-0.053C1.885,12.101,1.739,12.103,1.593,12.103z M1.577,11.318
			c0.007,0.014,0.015,0.022,0.022,0.033c0.148-0.01,0.296-0.017,0.445-0.029c0.017,0,0.032-0.025,0.048-0.041
			c-0.02-0.016-0.04-0.043-0.059-0.041c-0.129,0.002-0.26,0.01-0.39,0.022C1.618,11.266,1.598,11.299,1.577,11.318z M1.581,11.599
			c0.006,0.013,0.014,0.022,0.02,0.034c0.142,0,0.285,0.003,0.427-0.002c0.022-0.001,0.043-0.034,0.064-0.051
			c-0.021-0.014-0.044-0.034-0.067-0.033c-0.121,0-0.242,0.005-0.362,0.016C1.634,11.564,1.606,11.584,1.581,11.599z M1.586,12.992
			c0.029,0.09,0.26,0.146,0.506,0.141c-0.005-0.021-0.008-0.063-0.017-0.063C1.916,13.04,1.755,13.018,1.586,12.992z M15.5,12.878
			c-0.086,0-0.16,0-0.233,0c0,0.054,0,0.097,0,0.147c0.077,0.008,0.152,0.015,0.233,0.021C15.5,12.986,15.5,12.939,15.5,12.878z
			 M15.266,12.253c0.08-0.007,0.154-0.015,0.23-0.021c0-0.059,0-0.106,0-0.16c-0.083,0.01-0.154,0.019-0.23,0.023
			C15.266,12.148,15.266,12.195,15.266,12.253z M15.274,11.509c0,0.05,0,0.097,0,0.142c0.074,0,0.147,0,0.222,0
			c0-0.06,0-0.105,0-0.16C15.425,11.494,15.358,11.501,15.274,11.509z M15.268,11.902c0,0.055,0,0.1,0,0.152
			c0.08-0.006,0.154-0.012,0.23-0.018c0-0.06,0-0.104,0-0.159C15.42,11.888,15.349,11.893,15.268,11.902z M15.264,12.826
			c0.084,0,0.16,0,0.234,0c0-0.051,0-0.096,0-0.146c-0.082,0-0.156,0-0.234,0C15.264,12.732,15.264,12.777,15.264,12.826z
			 M15.268,11.848c0.241,0.021,0.262,0.006,0.219-0.16c-0.072,0.006-0.143,0.014-0.219,0.021
			C15.268,11.757,15.268,11.798,15.268,11.848z M15.498,13.281c-0.08-0.006-0.152-0.01-0.229-0.019c0,0.062,0,0.104,0,0.149
			c0.078,0.009,0.15,0.016,0.229,0.021C15.498,13.387,15.498,13.344,15.498,13.281z M15.271,12.475c0,0.059,0,0.105,0,0.153
			c0.082,0,0.153,0,0.225,0c0-0.054,0-0.103,0-0.153C15.417,12.475,15.349,12.475,15.271,12.475z M15.492,11.298
			c-0.074,0.004-0.14,0.007-0.217,0.011c0,0.053,0,0.098,0,0.143C15.49,11.484,15.519,11.467,15.492,11.298z M15.498,13.09
			c-0.082-0.008-0.154-0.014-0.229-0.02c0,0.059,0,0.104,0,0.146c0.079,0.01,0.151,0.018,0.229,0.021
			C15.498,13.189,15.498,13.148,15.498,13.09z M2.967,10.65c0.074,0.15,0.15,0.303,0.224,0.455C3.25,10.885,3.06,10.792,2.967,10.65
			z M15.499,11.255c0-0.047,0-0.082,0-0.126c-0.075,0.009-0.145,0.02-0.217,0.029c0,0.039,0,0.074,0,0.115
			C15.358,11.266,15.426,11.261,15.499,11.255z M7.946,12.887c-0.003-0.005-0.004-0.008-0.006-0.01c-0.357,0-0.714,0-1.072,0
			c0,0.002,0,0.005,0,0.01C7.228,12.887,7.586,12.887,7.946,12.887z M16.523,12.068c0-0.002,0-0.004,0-0.006
			c-0.319,0-0.637,0-0.955,0c0,0.002,0,0.004,0,0.006C15.886,12.068,16.204,12.068,16.523,12.068z M7.258,11.992
			c0,0.002,0,0.008,0,0.011c0.226,0,0.453,0,0.679,0c0-0.003,0-0.009,0-0.011C7.711,11.992,7.484,11.992,7.258,11.992z
			 M7.258,11.773c0.002,0.002,0.003,0.006,0.005,0.01c0.226,0,0.45,0,0.675,0c0-0.004,0-0.008,0-0.01
			C7.712,11.773,7.484,11.773,7.258,11.773z M8.003,11.564c0-0.004-0.002-0.009-0.002-0.012c-0.226,0-0.452,0-0.676,0
			c0,0.003,0,0.008,0,0.012C7.55,11.564,7.776,11.564,8.003,11.564z M8.05,11.342c0-0.003,0-0.006,0-0.009c-0.217,0-0.435,0-0.652,0
			c0,0.003,0,0.006,0,0.009C7.616,11.342,7.833,11.342,8.05,11.342z M7.193,12.214c0,0.003,0,0.006,0,0.011c0.221,0,0.443,0,0.664,0
			c0-0.005,0-0.008,0-0.011C7.636,12.214,7.415,12.214,7.193,12.214z M6.398,11.089c0,0.004,0,0.008,0,0.012
			c0.222,0,0.444,0,0.667,0c0-0.004,0-0.008,0-0.012C6.842,11.089,6.62,11.089,6.398,11.089z M7.461,11.111c0,0.002,0,0.006,0,0.01
			c0.221,0,0.442,0,0.663,0c0-0.004,0-0.008,0-0.01C7.903,11.111,7.682,11.111,7.461,11.111z M7.8,13.326
			c0.002-0.004,0.004-0.008,0.005-0.01c-0.219,0-0.436,0-0.654,0c0,0.002,0,0.006,0,0.01C7.367,13.326,7.584,13.326,7.8,13.326z
			 M6.973,11.32c0.001-0.004,0.003-0.006,0.004-0.011c-0.212,0-0.425,0-0.638,0c0,0.005,0,0.007,0,0.011
			C6.551,11.32,6.762,11.32,6.973,11.32z M6.905,11.543c0-0.006-0.001-0.01-0.001-0.014c-0.215,0-0.429,0-0.644,0
			c0,0.004,0,0.008,0,0.014C6.474,11.543,6.69,11.543,6.905,11.543z M7.145,12.433c0,0.005,0,0.009-0.001,0.013
			c0.209,0,0.419,0,0.627,0c0-0.004,0-0.008,0-0.013C7.564,12.433,7.355,12.433,7.145,12.433z M6.265,11.75
			c-0.001,0.003-0.001,0.008-0.002,0.012c0.206,0,0.411,0,0.616,0c0-0.004,0-0.009,0-0.012C6.674,11.75,6.47,11.75,6.265,11.75z
			 M6.259,11.97c0,0.004,0,0.008,0,0.011c0.2,0,0.4,0,0.6,0c0-0.003,0-0.007,0-0.011C6.659,11.97,6.46,11.97,6.259,11.97z
			 M6.797,12.203c0-0.006,0-0.01,0-0.012c-0.177,0-0.356,0-0.535,0c0,0.002,0,0.006,0,0.012C6.441,12.203,6.619,12.203,6.797,12.203
			z M15.967,12.832c0,0.003,0,0.006,0,0.011c0.162,0,0.325,0,0.489,0c0-0.005,0-0.008,0-0.011
			C16.293,12.832,16.13,12.832,15.967,12.832z"/>
		<path fill="#284D96" d="M33.824,12.373c0-0.328,0-0.641,0-0.953c0-0.514-0.004-1.029,0.002-1.542
			c0.002-0.074-0.021-0.108-0.094-0.134c-0.217-0.077-0.43-0.164-0.66-0.252c0,1.146,0,2.279,0,3.418
			c-0.404-0.039-0.799-0.078-1.191-0.116c-0.029-0.004-0.061-0.015-0.088-0.013c-0.117,0.013-0.15-0.043-0.117-0.156
			c0.039,0,0.082,0,0.127,0c0.012-0.034,0.02-0.064,0.031-0.106c0.316,0.048,0.639,0.095,0.967,0.144c0-1.061,0-2.104,0-3.162
			c-0.254,0.105-0.5,0.208-0.744,0.313c-0.02,0.008-0.037,0.045-0.037,0.068c-0.002,0.786-0.002,1.57-0.002,2.369
			c0.146,0.039,0.289,0.086,0.436,0.113c0.113,0.021,0.162,0.066,0.111,0.205c-0.299-0.054-0.602-0.106-0.914-0.162
			c0.016,0.131-0.088,0.084-0.158,0.103c0,0.063,0,0.127,0,0.203c-0.074,0-0.139,0-0.215,0c0,0.298,0,0.588,0,0.894
			c-1.643,0-3.271,0-4.91,0c0-0.77,0-1.55,0-2.353c-0.174,0.06-0.338,0.108-0.5,0.172c-0.021,0.009-0.027,0.076-0.029,0.115
			c0,0.637,0,1.271,0,1.909c0,0.045,0,0.094,0,0.146c-0.137,0-0.258,0-0.391,0c-0.01-0.991,0.164-1.961,0.234-2.952
			c0.152,0.018,0.291,0.032,0.453,0.051c0.02-0.281,0.043-0.555,0.063-0.824c-0.166,0.149-0.326,0.296-0.502,0.451
			c0.023-0.049,0.037-0.093,0.066-0.123c0.113-0.129,0.23-0.254,0.342-0.397c-0.162,0.042-0.324,0.084-0.479,0.124
			c0.037,0.077,0.072,0.154,0.109,0.23c-0.01,0.006-0.02,0.012-0.027,0.019c-0.172-0.253-0.445-0.308-0.713-0.354
			c-0.654-0.125-1.313-0.136-1.965,0.018c-0.262,0.061-0.516,0.146-0.691,0.388c-0.025-0.108,0.023-0.169,0.084-0.224
			c0.191-0.172,0.434-0.245,0.678-0.29c0.684-0.132,1.369-0.146,2.051,0.034c0.066,0.02,0.139,0.035,0.197,0.065
			c0.113,0.064,0.223,0.062,0.344,0.024c0.146-0.047,0.295-0.084,0.447-0.114c0.113-0.021,0.059-0.127,0.109-0.187
			c0.029,0,0.07,0,0.127,0c-0.055,0.19,0.098,0.27,0.209,0.367c0.139,0.119,0.273,0.243,0.418,0.359
			c0.025,0.021,0.088,0.031,0.121,0.02c0.137-0.055,0.268-0.125,0.402-0.179c0.07-0.028,0.1-0.071,0.102-0.147
			c0.002-0.125,0.004-0.125,0.133-0.112c0.006,0.007,0.016,0.012,0.014,0.019c-0.035,0.192,0.072,0.313,0.219,0.412
			c0.107,0.077,0.201,0.172,0.307,0.252c0.025,0.019,0.082,0.021,0.111,0.012c0.084-0.039,0.156-0.1,0.242-0.129
			c0.127-0.047,0.176-0.135,0.166-0.262c-0.002-0.025,0.01-0.057,0.016-0.089c0.043,0,0.076,0,0.119,0
			c0.004,0.021,0.016,0.041,0.012,0.062c-0.021,0.168,0.055,0.273,0.188,0.369c0.232,0.166,0.455,0.348,0.676,0.529
			c0.1,0.083,0.215,0.085,0.326,0.098c0.291,0.03,0.584,0.059,0.883,0.088c0,0.054,0,0.1,0,0.168
			c-1.537-0.118-3.068-0.239-4.611-0.359c0,0.061,0,0.118,0,0.191c0.168,0.022,0.334,0.05,0.498,0.072
			c0.072-0.162,0.072-0.162,0.182-0.133c-0.01,0.044-0.018,0.09-0.039,0.172c0.172-0.109,0.326-0.212,0.533-0.132
			c-0.076,0.05-0.141,0.093-0.227,0.147c0.238,0.033,0.455,0.063,0.67,0.094c0.043,0.006,0.088,0.011,0.129,0.021
			c0.092,0.021,0.146-0.009,0.18-0.104c0.037-0.117,0.045-0.114,0.176-0.082c-0.02,0.063-0.043,0.124-0.07,0.209
			c0.199-0.082,0.352-0.294,0.596-0.159c-0.098,0.061-0.195,0.124-0.32,0.204c0.391,0.052,0.748,0.101,1.117,0.147
			c0.023-0.063,0.053-0.125,0.07-0.19c0.021-0.095,0.066-0.133,0.172-0.084c-0.004,0.022-0.012,0.05-0.021,0.099
			c0.119-0.086,0.232-0.134,0.383-0.072c-0.143,0.091-0.273,0.176-0.43,0.272c0.369,0.048,0.713,0.091,1.061,0.138
			c0.027,0.166-0.043,0.342,0.031,0.481c-0.01,0.067-0.021,0.126-0.027,0.188c0.072-0.004,0.072-0.004,0.09-0.14
			c0.039-0.005,0.082-0.011,0.129-0.018c0.004-0.041,0.01-0.079,0.014-0.13c0.143,0,0.279,0,0.439,0c0-0.053,0-0.094,0-0.135
			c0-0.711,0.002-1.42-0.004-2.129c0-0.14,0.078-0.225,0.184-0.271c0.271-0.122,0.543-0.243,0.824-0.333
			c0.121-0.039,0.273-0.03,0.396,0.006c0.248,0.074,0.488,0.178,0.729,0.275c0.189,0.076,0.215,0.14,0.215,0.298
			c-0.008,0.784-0.002,1.569-0.002,2.358c0,0.031-0.006,0.063-0.008,0.104C34.002,12.373,33.918,12.373,33.824,12.373z
			 M26.988,10.333c-0.211-0.177-0.4-0.339-0.598-0.502c0,0.266,0,0.514,0,0.778C26.6,10.516,26.781,10.43,26.988,10.333z
			 M29.746,11.063c0.002-0.01,0.004-0.017,0.006-0.022c-0.254-0.197-0.506-0.396-0.768-0.597c0,0.19,0,0.369,0,0.547
			C29.248,11.013,29.496,11.037,29.746,11.063z M27.793,10.831c0.17-0.081,0.322-0.154,0.488-0.232
			c-0.17-0.144-0.324-0.272-0.488-0.411C27.793,10.406,27.793,10.607,27.793,10.831z M26.398,10.689
			c0.004,0.012,0.006,0.021,0.008,0.032c0.129,0.011,0.256,0.022,0.381,0.032c0.018,0.001,0.035-0.008,0.051-0.02
			c0.102-0.084,0.199-0.17,0.322-0.272c-0.064-0.021-0.109-0.056-0.139-0.044C26.814,10.503,26.607,10.598,26.398,10.689z
			 M27.525,10.841c0.004-0.009,0.01-0.019,0.014-0.028c-0.109-0.094-0.221-0.188-0.33-0.285c-0.094,0.078-0.182,0.153-0.287,0.246
			C27.143,10.799,27.334,10.82,27.525,10.841z M28.459,10.726c-0.055-0.018-0.117-0.06-0.156-0.045
			c-0.135,0.052-0.26,0.122-0.404,0.194c0.094,0.013,0.168,0.017,0.242,0.031C28.279,10.938,28.387,10.896,28.459,10.726z
			 M27.594,10.209c-0.121,0.104-0.221,0.183-0.324,0.27c0.094,0.081,0.176,0.152,0.271,0.234
			C27.559,10.545,27.572,10.395,27.594,10.209z M28.777,10.533c-0.006-0.004-0.016-0.008-0.02-0.01
			c-0.063,0.069-0.121,0.143-0.188,0.217c0.059,0.047,0.107,0.088,0.174,0.143C28.758,10.752,28.77,10.642,28.777,10.533z
			 M28.664,10.955c0.002-0.01,0.004-0.018,0.008-0.025c-0.051-0.041-0.1-0.082-0.15-0.127c-0.035,0.044-0.063,0.08-0.1,0.127
			C28.512,10.939,28.588,10.945,28.664,10.955z M28.686,10.49c-0.008-0.006-0.01-0.013-0.016-0.018
			c-0.08,0.043-0.16,0.085-0.25,0.135c0.035,0.03,0.063,0.059,0.092,0.084C28.576,10.617,28.631,10.556,28.686,10.49z
			 M27.443,10.248c-0.004-0.01-0.01-0.018-0.016-0.026c-0.096,0.043-0.191,0.087-0.289,0.13
			C27.309,10.46,27.338,10.267,27.443,10.248z"/>
		<path fill="#284D96" d="M21.337,13.592c-0.135,0-0.256,0-0.385,0c-0.037-1.012-0.074-2.021-0.109-3.048
			c0.625,0.05,1.24,0.096,1.854,0.146c0.027-0.158,0.059-0.177,0.342-0.193c0.029,1.029,0.063,2.059,0.096,3.095
			c-0.146,0-0.266,0-0.396,0c-0.014-0.181-0.027-0.358-0.041-0.541c-0.025-0.397-0.047-0.799-0.074-1.198
			c-0.02-0.271-0.043-0.539-0.068-0.81c-0.002-0.022-0.035-0.062-0.055-0.063c-0.401-0.033-0.804-0.063-1.228-0.096
			C21.294,11.791,21.315,12.691,21.337,13.592z"/>
		<path fill="#284D96" d="M37.195,12.386c0.002-0.062,0.004-0.104,0.008-0.155c0.299,0,0.592,0,0.885,0c0.197,0,0.197,0,0.254-0.188
			c0.008-0.021,0.014-0.043,0.02-0.063c0.055-0.188,0.055-0.188,0.258-0.229c-0.039-0.222-0.08-0.445-0.123-0.675
			c0.342,0,0.623-0.156,0.934-0.314c0,0.281,0,0.531,0,0.786c0.082,0,0.145,0,0.225,0c0-0.252,0-0.499,0-0.79
			c0.143,0.07,0.256,0.13,0.369,0.188c0.051,0.023,0.104,0.054,0.156,0.066c0.102,0.027,0.205,0.047,0.311,0.068
			c0.029,0.005,0.063,0,0.102,0c-0.033,0.168-0.072,0.336-0.104,0.504c-0.016,0.085-0.053,0.191,0.104,0.193
			c0.021,0,0.055,0.029,0.063,0.056c0.059,0.18,0.113,0.36,0.176,0.565c-0.166-0.029-0.314-0.057-0.465-0.084
			c-0.244-0.048-0.486-0.109-0.732-0.138c-0.143-0.019-0.289,0.021-0.434,0.045c-0.281,0.05-0.564,0.11-0.854,0.157
			c-0.074,0.015-0.152,0.008-0.23,0.008C37.814,12.386,37.512,12.386,37.195,12.386z"/>
		<path fill="#284D96" d="M41.182,13.595c-0.037,0-0.072,0-0.109,0c-1.031,0-2.064,0.001-3.098,0c-0.15,0-0.301-0.017-0.449-0.014
			c-0.113,0.001-0.229,0.03-0.34,0.032c-0.061,0.002-0.166-0.02-0.178-0.049c-0.021-0.084-0.012-0.182-0.002-0.271
			c0.002-0.016,0.066-0.029,0.104-0.029c0.254,0.004,0.506,0.014,0.762,0.018c0.031,0.002,0.066-0.014,0.104-0.019
			c-0.002-0.013-0.002-0.021-0.004-0.032c-0.033-0.006-0.066-0.011-0.102-0.011c-0.311,0-0.617,0-0.926,0.001
			c-0.203,0-0.203,0-0.178-0.217c0.025-0.003,0.053-0.01,0.08-0.01c0.223,0,0.441-0.01,0.662,0.004
			c0.277,0.01,0.547-0.027,0.814-0.094c0.377-0.09,0.762-0.156,1.143-0.229c0.063-0.011,0.131,0.001,0.195,0.016
			c0.395,0.074,0.789,0.159,1.188,0.229c0.127,0.021,0.188,0.08,0.199,0.219c-0.143-0.024-0.281-0.05-0.422-0.073
			c-0.326-0.063-0.65-0.138-0.98-0.188c-0.131-0.02-0.27,0.011-0.398,0.033c-0.391,0.066-0.777,0.146-1.166,0.219
			c-0.021,0.006-0.043,0.018-0.064,0.021c0,0.012,0.002,0.02,0.002,0.026c0.033-0.002,0.064-0.002,0.098-0.009
			c0.432-0.083,0.863-0.159,1.293-0.252c0.16-0.033,0.305,0.015,0.453,0.043c0.355,0.066,0.711,0.145,1.066,0.211
			c0.102,0.02,0.172,0.052,0.184,0.163c0.004,0.032,0.02,0.062,0.035,0.11c-0.154-0.027-0.305-0.055-0.449-0.082
			c-0.359-0.067-0.717-0.154-1.08-0.201c-0.164-0.021-0.346,0.029-0.518,0.06c-0.373,0.067-0.74,0.144-1.111,0.218
			c-0.025,0.004-0.051,0.02-0.078,0.027c0.002,0.012,0.006,0.021,0.008,0.033c0.051-0.006,0.102-0.012,0.152-0.02
			c0.471-0.094,0.938-0.195,1.41-0.271c0.139-0.021,0.289,0.027,0.434,0.055c0.398,0.077,0.797,0.156,1.195,0.238
			c0.031,0.008,0.059,0.038,0.088,0.056C41.189,13.574,41.186,13.586,41.182,13.595z"/>
		<path fill="#284D96" d="M23.08,9.951c0.211-0.022,0.424-0.047,0.65-0.071c0.018,1.252,0.033,2.481,0.051,3.72
			c-0.203,0-0.396,0-0.59,0C23.154,12.386,23.119,11.181,23.08,9.951z"/>
		<path fill="#284D96" d="M24.455,9.871c-0.021,1.26-0.037,2.481-0.057,3.718c-0.178,0-0.361,0-0.555,0
			c-0.002-0.017-0.008-0.031-0.008-0.048c-0.008-0.867-0.016-1.735-0.023-2.602c-0.002-0.32-0.006-0.64-0.016-0.959
			C23.795,9.898,23.82,9.869,23.9,9.869C24.09,9.875,24.275,9.871,24.455,9.871z"/>
		<path fill="#284D96" d="M14.221,13.343c0,0.181,0,0.337,0,0.502c-1.292,0.146-2.577,0.29-3.874,0.438c0-0.188,0-0.364,0-0.558
			C11.635,13.6,12.923,13.473,14.221,13.343z"/>
		<path fill="#284D96" d="M24.521,9.898c0.205,0.021,0.385,0.041,0.566,0.063c-0.045,1.213-0.205,2.415-0.121,3.635
			c-0.098,0-0.174,0-0.252,0c-0.074,0-0.15,0-0.25,0C24.48,12.367,24.502,11.144,24.521,9.898z"/>
		<path fill="#284D96" d="M25.352,13.592c-0.119,0-0.225,0-0.342,0c-0.027-1.2,0.063-2.391,0.146-3.596
			c0.18,0.021,0.322,0.095,0.441,0.21c0.027,0.024,0.025,0.087,0.023,0.132c-0.023,0.286-0.051,0.57-0.074,0.855
			c-0.043,0.498-0.084,0.994-0.125,1.489C25.398,12.984,25.375,13.283,25.352,13.592z"/>
		<path fill="#284D96" d="M34.041,13.003c0,0.075,0,0.139,0,0.219c-0.322,0-0.645,0-0.961,0c-0.002,0.015-0.004,0.028-0.008,0.043
			c0.035,0.007,0.072,0.021,0.109,0.021c0.338,0.002,0.676,0,1.012,0c0.334,0,0.668,0,1.004-0.002
			c0.107-0.002,0.221-0.012,0.328-0.018c0.064-0.004,0.096,0.021,0.088,0.09c-0.002,0.024-0.002,0.053-0.002,0.077
			c0,0.166-0.023,0.198-0.193,0.185c-0.918-0.082-1.84-0.015-2.762-0.036c-0.047-0.003-0.094,0-0.15,0c0-0.214,0-0.421,0-0.646
			c0.18,0.031,0.363-0.056,0.539,0.054c0.029,0.018,0.078,0.01,0.117,0.01c0.254,0.004,0.508,0.004,0.762,0.004
			C33.959,12.999,33.994,13.002,34.041,13.003z"/>
		<path fill="#284D96" d="M9.082,10.945c-0.065-0.404-0.13-0.806-0.197-1.224c0.447,0.033,0.883,0.067,1.342,0.104
			c-0.125,0.164-0.241,0.313-0.356,0.464c-0.144,0.186-0.295,0.364-0.43,0.557c-0.063,0.091-0.134,0.123-0.238,0.106
			C9.162,10.947,9.123,10.949,9.082,10.945z"/>
		<path fill="#284D96" d="M39.563,1.104c0.006,0.076,0.012,0.151,0.018,0.227c0.006,0.194,0.012,0.388,0.018,0.583
			c0.004,0.084,0.002,0.16,0.076,0.237c0.049,0.05,0.021,0.166,0.041,0.251c0.008,0.036,0.027,0.085,0.057,0.097
			c0.189,0.074,0.184,0.071,0.146,0.272c-0.033,0.18-0.047,0.363-0.068,0.544c-0.006,0.029-0.01,0.058-0.012,0.077
			c-0.104,0.01-0.201,0.027-0.301,0.025c-0.092,0-0.184-0.018-0.289-0.031c-0.021-0.137-0.037-0.301-0.064-0.462
			c-0.014-0.077-0.045-0.152-0.061-0.229c-0.016-0.071-0.035-0.149,0.076-0.167c0.125-0.021,0.186-0.084,0.174-0.224
			c-0.006-0.064,0.055-0.132,0.084-0.199c0.016-0.034,0.031-0.071,0.035-0.107c0.012-0.283,0.02-0.565,0.029-0.847
			c0-0.016,0.004-0.033,0.008-0.049C39.539,1.104,39.551,1.104,39.563,1.104z"/>
		<path fill="#284D96" d="M40.969,12.896c-0.188-0.033-0.361-0.07-0.543-0.103c-0.279-0.056-0.557-0.121-0.84-0.157
			c-0.129-0.016-0.268,0.034-0.398,0.057c-0.32,0.059-0.646,0.099-0.959,0.187c-0.287,0.08-0.57,0.046-0.855,0.056
			c-0.199,0.01-0.4,0.002-0.605,0.002c0-0.078,0-0.144,0-0.22c0.08,0,0.158,0.001,0.232,0c0.299-0.002,0.6-0.04,0.895-0.035
			c0.404,0.009,0.789-0.075,1.174-0.151c0.305-0.063,0.596-0.084,0.898-0.012c0.277,0.069,0.559,0.123,0.84,0.163
			C40.939,12.699,40.957,12.779,40.969,12.896z"/>
		<path fill="#284D96" d="M11.686,9.938c-0.229,0.284-0.442,0.549-0.656,0.813c-0.037,0.046-0.08,0.087-0.11,0.138
			c-0.066,0.11-0.159,0.139-0.288,0.102c-0.042-0.371-0.085-0.748-0.129-1.143C10.894,9.877,11.278,9.906,11.686,9.938z"/>
		<path fill="#284D96" d="M40.588,4.775c-0.041,0.261-0.084,0.538-0.129,0.818c-0.158-0.041-0.307-0.066-0.432-0.17
			c-0.104-0.087-0.236-0.138-0.373-0.211c0-0.253,0-0.526,0-0.818C39.795,4.423,39.91,4.486,40,4.579
			c0.064,0.066,0.139,0.096,0.227,0.112c0.084,0.016,0.16,0.05,0.24,0.072C40.502,4.773,40.541,4.771,40.588,4.775z"/>
		<path fill="#284D96" d="M39.656,10.203c0-0.243,0-0.521,0-0.803c0.143,0.019,0.248,0.092,0.34,0.18
			c0.068,0.066,0.146,0.099,0.238,0.115c0.08,0.017,0.158,0.051,0.24,0.073c0.033,0.011,0.07,0.011,0.111,0.017
			c-0.039,0.255-0.082,0.521-0.127,0.803c-0.137-0.049-0.273-0.043-0.395-0.146C39.953,10.346,39.807,10.287,39.656,10.203z"/>
		<path fill="#284D96" d="M40.588,6.777c-0.041,0.254-0.084,0.52-0.127,0.791c-0.154-0.031-0.295-0.057-0.42-0.158
			c-0.109-0.088-0.246-0.141-0.385-0.213c0-0.254,0-0.528,0-0.813c0.158,0.029,0.271,0.12,0.383,0.216
			c0.041,0.034,0.096,0.053,0.146,0.071c0.086,0.03,0.174,0.053,0.262,0.077C40.494,6.761,40.539,6.767,40.588,6.777z"/>
		<path fill="#284D96" d="M39.654,8.203c0-0.254,0-0.525,0-0.809c0.15,0.027,0.258,0.109,0.365,0.195
			c0.053,0.041,0.121,0.07,0.189,0.094c0.082,0.031,0.164,0.053,0.252,0.076c0.035,0.009,0.076,0.009,0.123,0.018
			c-0.037,0.252-0.082,0.523-0.125,0.804c-0.152-0.052-0.305-0.058-0.432-0.169C39.936,8.32,39.793,8.277,39.654,8.203z"/>
		<path fill="#284D96" d="M38.631,5.616c-0.051-0.301-0.094-0.57-0.146-0.855c0.033,0.015,0.059,0.034,0.064,0.029
			c0.166-0.107,0.387-0.059,0.543-0.211c0.084-0.083,0.201-0.133,0.305-0.198c0.01,0.008,0.021,0.018,0.029,0.025
			c0,0.197-0.008,0.394,0.004,0.589c0.01,0.159,0,0.277-0.191,0.318c-0.084,0.018-0.15,0.103-0.23,0.142
			C38.893,5.513,38.771,5.557,38.631,5.616z"/>
		<path fill="#284D96" d="M40.461,9.574c-0.146-0.041-0.291-0.039-0.412-0.153c-0.105-0.097-0.252-0.146-0.393-0.222
			c0-0.246,0-0.51,0-0.791c0.143,0.012,0.248,0.084,0.342,0.166c0.07,0.064,0.146,0.101,0.24,0.113
			c0.074,0.006,0.146,0.047,0.219,0.068c0.041,0.013,0.082,0.02,0.131,0.025C40.547,9.033,40.506,9.298,40.461,9.574z"/>
		<path fill="#284D96" d="M39.426,10.193c-0.168,0.104-0.311,0.205-0.457,0.283c-0.105,0.055-0.225,0.078-0.35,0.119
			c-0.047-0.283-0.088-0.546-0.131-0.8c0.051-0.011,0.084-0.017,0.119-0.024c0.24-0.063,0.473-0.144,0.66-0.314
			c0.037-0.031,0.096-0.04,0.156-0.063C39.426,9.684,39.426,9.953,39.426,10.193z"/>
		<path fill="#284D96" d="M38.615,9.58c-0.045-0.277-0.086-0.541-0.127-0.805c0.02-0.002,0.023-0.002,0.029-0.004
			c0.176-0.055,0.363-0.084,0.523-0.171c0.123-0.065,0.229-0.166,0.387-0.2c0,0.146,0,0.277,0,0.414s0,0.271,0,0.369
			c-0.176,0.113-0.328,0.223-0.492,0.309C38.844,9.54,38.73,9.551,38.615,9.58z"/>
		<path fill="#284D96" d="M39.426,7.392c0,0.287,0,0.56,0,0.8c-0.166,0.103-0.307,0.202-0.459,0.282
			c-0.104,0.052-0.229,0.073-0.352,0.112c-0.043-0.283-0.084-0.551-0.127-0.814c0.037,0.002,0.068,0.014,0.098,0.006
			c0.125-0.031,0.248-0.066,0.369-0.104c0.031-0.011,0.066-0.04,0.096-0.065C39.154,7.513,39.271,7.429,39.426,7.392z"/>
		<path fill="#284D96" d="M38.488,6.771c0.047,0,0.074,0.006,0.1-0.002c0.123-0.031,0.246-0.065,0.367-0.103
			c0.027-0.009,0.055-0.031,0.076-0.052c0.111-0.102,0.23-0.193,0.396-0.232c0,0.142,0,0.272,0,0.402
			c0,0.057-0.006,0.111,0.002,0.166c0.021,0.175,0.004,0.314-0.213,0.351c-0.063,0.011-0.121,0.056-0.166,0.103
			c-0.119,0.121-0.271,0.131-0.438,0.162C38.572,7.3,38.531,7.039,38.488,6.771z"/>
		<path fill="#284D96" d="M39.682,5.392c0.287,0.168,0.555,0.385,0.906,0.393c-0.039,0.256-0.082,0.516-0.127,0.792
			c-0.133-0.051-0.271-0.038-0.391-0.15c-0.092-0.088-0.232-0.127-0.354-0.192c-0.025-0.014-0.064-0.043-0.064-0.066
			C39.648,5.92,39.65,5.67,39.65,5.421C39.66,5.412,39.672,5.402,39.682,5.392z"/>
		<path fill="#284D96" d="M38.613,6.577c-0.043-0.27-0.084-0.529-0.125-0.779c0.051-0.009,0.084-0.013,0.121-0.023
			c0.23-0.063,0.457-0.131,0.641-0.303c0.039-0.038,0.104-0.047,0.178-0.08c0,0.126,0,0.235,0,0.342c0,0.036,0,0.073,0,0.111
			c0,0.113,0.039,0.247-0.008,0.335c-0.043,0.076-0.182,0.101-0.271,0.151c-0.045,0.024-0.092,0.05-0.125,0.087
			C38.914,6.54,38.76,6.53,38.613,6.577z"/>
		<path fill="#284D96" d="M11.976,11.029c-0.019-0.354-0.038-0.703-0.059-1.072c0.353,0.025,0.693,0.053,1.06,0.08
			c-0.086,0.111-0.16,0.207-0.236,0.301c-0.164,0.203-0.338,0.396-0.492,0.604C12.173,11.042,12.095,11.063,11.976,11.029z"/>
		<path fill="#284D96" d="M10.497,10.977c-0.328,0-0.642,0-0.988,0c0.062-0.093,0.106-0.156,0.152-0.221
			c0.208-0.283,0.417-0.566,0.627-0.85c0.021-0.028,0.059-0.045,0.089-0.069c0.014,0.034,0.036,0.067,0.04,0.103
			C10.445,10.287,10.472,10.634,10.497,10.977z"/>
		<path fill="#284D96" d="M40.592,3.895c-0.037,0.229-0.074,0.455-0.109,0.69c-0.16-0.053-0.324-0.065-0.457-0.184
			c-0.098-0.087-0.23-0.131-0.367-0.201c0-0.201,0-0.423,0-0.659c0.104-0.001,0.201,0.044,0.26,0.114
			c0.156,0.189,0.402,0.152,0.592,0.255C40.523,3.922,40.559,3.903,40.592,3.895z"/>
		<path fill="#284D96" d="M39.428,3.526c0,0.233,0.002,0.448-0.002,0.664c-0.002,0.02-0.043,0.042-0.066,0.058
			c-0.129,0.074-0.256,0.154-0.391,0.217c-0.109,0.052-0.23,0.083-0.361,0.13c-0.041-0.237-0.076-0.461-0.111-0.675
			c0.047-0.01,0.084-0.016,0.117-0.024c0.242-0.055,0.471-0.134,0.66-0.303C39.311,3.56,39.363,3.552,39.428,3.526z"/>
		<path fill="#284D96" d="M40.887,12.654c-0.287-0.059-0.574-0.113-0.861-0.172c-0.15-0.029-0.299-0.076-0.453-0.084
			c-0.127-0.007-0.26,0.031-0.387,0.055c-0.328,0.063-0.654,0.14-0.98,0.189c-0.152,0.022-0.314,0.004-0.479,0.004
			c0-0.056,0-0.111,0-0.17c0,0.002,0.006-0.008,0.01-0.006c0.443,0.031,0.869-0.068,1.289-0.181c0.398-0.104,0.777-0.06,1.166,0.036
			c0.16,0.041,0.32,0.074,0.482,0.098C40.805,12.445,40.898,12.488,40.887,12.654z"/>
		<path fill="#284D96" d="M35.846,12.728c0,0.067,0,0.134,0,0.203c-0.414,0-0.826,0-1.242,0c0-0.085,0-0.167,0-0.258
			c0.074,0,0.146,0,0.219,0c0-0.006,0-0.013,0-0.017c-0.393,0-0.785,0-1.188,0c0-0.084,0-0.162,0-0.254
			c0.17,0.021,0.338-0.053,0.496,0.049c0.035,0.021,0.086,0.018,0.129,0.018c0.205,0.002,0.41,0.002,0.623,0.002
			c0,0.068,0,0.13,0,0.221C35.205,12.701,35.521,12.715,35.846,12.728z"/>
		<path fill="#284D96" d="M13.191,11.072c0-0.321-0.002-0.646,0.002-0.965c0.001-0.019,0.044-0.053,0.065-0.05
			c0.272,0.019,0.546,0.04,0.841,0.063c-0.051,0.07-0.093,0.129-0.137,0.184c-0.187,0.234-0.379,0.465-0.563,0.702
			C13.344,11.078,13.284,11.099,13.191,11.072z"/>
		<path fill="#284D96" d="M11.83,9.984c0,0.35,0,0.694,0,1.039c-0.276,0-0.557,0-0.874,0c0.296-0.367,0.569-0.707,0.842-1.048
			C11.81,9.979,11.819,9.982,11.83,9.984z"/>
		<path fill="#284D96" d="M10.197,13.394c0-0.251,0-0.499,0-0.763c0.199,0,0.398,0,0.604,0c0,0.23,0,0.468,0,0.715
			C10.603,13.361,10.403,13.377,10.197,13.394z"/>
		<path fill="#284D96" d="M35.844,13.221c-0.143,0-0.279,0-0.42,0c-0.381,0-0.764-0.004-1.146,0.002
			c-0.109,0.003-0.156-0.025-0.139-0.14c0.006-0.035,0.002-0.072,0.002-0.121c0.57,0.017,1.133,0.03,1.703,0.047
			C35.844,13.072,35.844,13.142,35.844,13.221z"/>
		<path fill="#284D96" d="M10.921,13.339c0-0.253,0-0.487,0-0.729c0.181-0.01,0.358-0.021,0.545-0.031c0,0.24,0,0.471,0,0.717
			C11.291,13.307,11.112,13.322,10.921,13.339z"/>
		<path fill="#284D96" d="M13.099,10.063c-0.016,0.317-0.029,0.633-0.049,0.952c-0.001,0.021-0.029,0.06-0.045,0.06
			c-0.226-0.006-0.45-0.015-0.705-0.021c0.268-0.35,0.521-0.674,0.774-1.001C13.083,10.054,13.091,10.06,13.099,10.063z"/>
		<path fill="#284D96" d="M14.212,11.093c-0.249,0-0.482,0-0.722,0c0.101-0.21,0.696-0.942,0.771-0.951c0,0.031,0.001,0.058,0,0.086
			C14.245,10.518,14.229,10.807,14.212,11.093z"/>
		<path fill="#284D96" d="M12.142,13.24c-0.169,0.014-0.335,0.023-0.511,0.039c0-0.239,0-0.465,0-0.711c0.166,0,0.333,0,0.511,0
			C12.142,12.785,12.142,13.008,12.142,13.24z"/>
		<path fill="#284D96" d="M10.794,11.785c-0.203,0-0.396,0-0.596,0c0-0.191,0-0.379,0-0.57c0.196,0,0.393,0,0.596,0
			C10.794,11.406,10.794,11.59,10.794,11.785z"/>
		<path fill="#284D96" d="M12.263,13.23c0-0.24,0-0.459,0-0.686c0.166-0.008,0.328-0.016,0.496-0.021c0,0.227,0,0.442,0,0.67
			C12.593,13.203,12.435,13.216,12.263,13.23z"/>
		<path fill="#284D96" d="M10.927,11.781c0-0.187,0-0.369,0-0.56c0.174,0,0.341-0.001,0.508,0.003c0.017,0,0.047,0.043,0.048,0.067
			c0.004,0.159,0.002,0.319,0.002,0.487C11.286,11.781,11.109,11.781,10.927,11.781z"/>
		<path fill="#284D96" d="M33.17,12.929c0-0.096,0-0.18,0-0.276c0.145,0.017,0.287-0.047,0.418,0.047
			c0.025,0.02,0.068,0.019,0.104,0.02c0.207,0,0.412,0,0.619,0c0.195,0,0.199,0.004,0.16,0.214
			C34.043,12.929,33.609,12.929,33.17,12.929z"/>
		<path fill="#284D96" d="M17.083,12.052c0.03-0.033,0.084-0.065,0.084-0.099c-0.001-0.032-0.055-0.065-0.085-0.098
			c-0.008,0.006-0.017,0.012-0.025,0.018c0-0.045,0-0.092,0-0.143c0.093,0,0.179,0,0.272,0c0,0.42,0,0.834,0,1.262
			c-0.086,0-0.175,0-0.272,0c0-0.104,0-0.207,0-0.317c0.031-0.007,0.063-0.011,0.098-0.017c0.002-0.037,0.003-0.068,0.006-0.107
			c-0.033-0.008-0.063-0.016-0.101-0.021c0-0.067,0-0.141,0-0.222c0.033-0.006,0.068-0.014,0.109-0.021c0-0.034,0-0.068,0-0.108
			c-0.036-0.006-0.071-0.013-0.112-0.019c0-0.041,0-0.079,0-0.117C17.063,12.046,17.074,12.049,17.083,12.052z"/>
		<path fill="#284D96" d="M35.516,12.063c0.027-0.029,0.053-0.072,0.086-0.085c0.313-0.099,0.617-0.196,0.953-0.17
			c0.24,0.019,0.484-0.006,0.727,0.007c0.303,0.017,0.604,0.043,0.906,0.067c0.004,0.062,0.006,0.093,0.008,0.142
			c-0.137-0.021-0.264-0.05-0.393-0.066c-0.094-0.016-0.188-0.028-0.281-0.028c-0.313-0.003-0.625,0.009-0.936-0.005
			c-0.271-0.012-0.533,0.021-0.787,0.117c-0.082,0.029-0.168,0.047-0.252,0.066C35.537,12.092,35.523,12.076,35.516,12.063z"/>
		<path fill="#284D96" d="M12.896,12.52c0.151-0.009,0.288-0.018,0.434-0.025c0,0.222,0,0.427,0,0.646
			c-0.143,0.016-0.284,0.027-0.434,0.044C12.896,12.959,12.896,12.744,12.896,12.52z"/>
		<path fill="#284D96" d="M38.211,11.865c-0.922-0.133-1.811-0.207-2.689,0.09c-0.033-0.064-0.018-0.104,0.051-0.121
			c0.172-0.051,0.338-0.104,0.506-0.152c0.053-0.016,0.105-0.021,0.16-0.021c0.447-0.004,0.896-0.014,1.346,0.002
			c0.188,0.008,0.375,0.063,0.561,0.103C38.17,11.768,38.188,11.824,38.211,11.865z"/>
		<path fill="#284D96" d="M10.797,12.031c0,0.148,0,0.3,0,0.463c-0.198,0-0.394,0-0.599,0c0-0.142,0-0.293,0-0.463
			C10.392,12.031,10.587,12.031,10.797,12.031z"/>
		<path fill="#284D96" d="M13.461,13.138c0-0.224,0-0.43,0-0.644c0.14-0.01,0.274-0.02,0.432-0.027c0,0.204,0.001,0.396-0.002,0.587
			c0,0.021-0.032,0.052-0.05,0.054C13.717,13.121,13.593,13.128,13.461,13.138z"/>
		<path fill="#284D96" d="M12.761,11.769c-0.176,0-0.343,0-0.516,0c0-0.172,0-0.344,0-0.522c0.169,0,0.338,0,0.516,0
			C12.761,11.417,12.761,11.584,12.761,11.769z"/>
		<path fill="#284D96" d="M12.127,11.779c-0.17,0-0.33,0-0.496,0c0-0.179,0-0.354,0-0.535c0.163,0,0.325,0,0.496,0
			C12.127,11.42,12.127,11.594,12.127,11.779z"/>
		<path fill="#284D96" d="M10.923,12.464c0-0.14,0-0.287,0-0.448c0.183,0,0.36,0,0.545,0c0,0.143,0,0.287,0,0.448
			C11.287,12.464,11.107,12.464,10.923,12.464z"/>
		<path fill="#284D96" d="M14.542,13.052c0-0.206,0-0.399,0-0.608c0.133-0.006,0.264-0.014,0.402-0.02c0,0.205,0,0.396,0,0.596
			C14.808,13.031,14.68,13.04,14.542,13.052z"/>
		<path fill="#284D96" d="M37.842,11.611c-0.557,0-1.096-0.004-1.639,0.006c-0.113,0.002-0.225,0.058-0.338,0.089
			c-0.031-0.068-0.004-0.091,0.055-0.12c0.172-0.077,0.354-0.09,0.537-0.083c0.047,0.001,0.098-0.027,0.145-0.044
			c0.01-0.006,0.021-0.018,0.029-0.018c0.156,0,0.324-0.035,0.467,0.01c0.117,0.037,0.225,0.039,0.338,0.053
			c0.111,0.014,0.227,0.021,0.336,0.041C37.803,11.547,37.822,11.591,37.842,11.611z"/>
		<path fill="#284D96" d="M12.136,12c0,0.139,0,0.279,0,0.438c-0.167,0-0.333,0-0.507,0c0-0.136,0-0.283,0-0.438
			C11.792,12,11.955,12,12.136,12z"/>
		<path fill="#284D96" d="M12.761,12.41c-0.17,0.008-0.333,0.016-0.508,0.021c0-0.151,0-0.294,0-0.448c0.167,0,0.333,0,0.508,0
			C12.761,12.115,12.761,12.252,12.761,12.41z"/>
		<path fill="#284D96" d="M14.03,12.464c0.119-0.006,0.237-0.013,0.364-0.017c0,0.207,0,0.404,0,0.612
			c-0.118,0.013-0.237,0.021-0.364,0.032C14.03,12.882,14.03,12.681,14.03,12.464z"/>
		<path fill="#284D96" d="M13.331,11.765c-0.144,0-0.279,0-0.423,0c0-0.167,0-0.336,0-0.51c0.138,0,0.279,0,0.423,0
			C13.331,11.432,13.331,11.595,13.331,11.765z"/>
		<path fill="#284D96" d="M35.404,12.23c0,0.057,0,0.103,0,0.148c-0.4,0-0.797,0-1.197,0c0-0.066,0-0.135,0-0.217
			c0.145,0.025,0.297-0.051,0.434,0.06c0.021,0.017,0.064,0.009,0.098,0.009C34.959,12.23,35.176,12.23,35.404,12.23z"/>
		<path fill="#284D96" d="M13.461,11.261c0.138,0,0.268,0,0.409,0c0,0.166,0,0.327,0,0.499c-0.134,0-0.268,0-0.409,0
			C13.461,11.597,13.461,11.435,13.461,11.261z"/>
		<path fill="#284D96" d="M14.948,11.277c0,0.168,0,0.315,0,0.476c-0.137,0-0.27,0-0.408,0c0-0.161,0-0.313,0-0.476
			C14.671,11.277,14.804,11.277,14.948,11.277z"/>
		<path fill="#284D96" d="M14.396,11.76c-0.128,0-0.248,0-0.377,0c0-0.163,0-0.322,0-0.491c0.122,0,0.247,0,0.377,0
			C14.396,11.435,14.396,11.59,14.396,11.76z"/>
		<path fill="#284D96" d="M13.463,11.953c0.136,0,0.271,0,0.414,0c0,0.128,0,0.262,0,0.414c-0.131,0.008-0.269,0.015-0.414,0.021
			C13.463,12.242,13.463,12.103,13.463,11.953z"/>
		<path fill="#284D96" d="M12.907,11.967c0.14,0,0.276,0,0.42,0c0,0.139,0,0.275,0,0.423c-0.14,0.007-0.275,0.015-0.42,0.021
			C12.907,12.262,12.907,12.121,12.907,11.967z"/>
		<path fill="#284D96" d="M37.17,12.154c-0.516,0-1.004,0-1.498,0C35.852,11.949,36.846,11.945,37.17,12.154z"/>
		<path fill="#284D96" d="M35.939,13.191c0-0.041,0-0.09,0-0.142c-0.002-0.074,0.041-0.104,0.107-0.104
			c0.162-0.004,0.322-0.006,0.482,0c0.146,0.004,0.17,0.051,0.143,0.246C36.432,13.191,36.189,13.191,35.939,13.191z"/>
		<path fill="#284D96" d="M14.943,12.331c-0.136,0-0.266,0-0.402,0c0-0.132,0-0.261,0-0.4c0.135,0,0.263,0,0.402,0
			C14.943,12.055,14.943,12.186,14.943,12.331z"/>
		<path fill="#284D96" d="M34.98,12.645c0-0.072,0-0.139,0-0.228c0.287,0.021,0.572,0.043,0.861,0.063c0,0.049,0,0.103,0,0.163
			C35.563,12.645,35.275,12.645,34.98,12.645z"/>
		<path fill="#284D96" d="M37.609,12.43c0.006,0.071,0.016,0.137,0.021,0.213c-0.289,0-0.574,0-0.867,0c0-0.052,0-0.105,0-0.156
			c0.01-0.006,0.016-0.013,0.021-0.015c0.236-0.015,0.477-0.03,0.715-0.048C37.535,12.423,37.568,12.428,37.609,12.43z"/>
		<path fill="#284D96" d="M14.398,11.945c0,0.127,0,0.258,0,0.403c-0.125,0-0.245,0-0.378,0c0-0.128,0-0.258,0-0.403
			C14.141,11.945,14.263,11.945,14.398,11.945z"/>
		<path fill="#284D96" d="M35.943,12.902c-0.002-0.006-0.004-0.016-0.004-0.024c-0.006-0.208,0-0.211,0.203-0.211
			c0.109,0,0.219,0,0.328,0c0.203,0,0.238,0.045,0.197,0.245C36.432,12.857,36.189,12.859,35.943,12.902z"/>
		<path fill="#284D96" d="M36.676,12.64c-0.248-0.059-0.482-0.046-0.723-0.016c-0.039-0.163-0.014-0.231,0.188-0.22
			c0.107,0.008,0.219,0.002,0.328,0.002C36.697,12.406,36.703,12.48,36.676,12.64z"/>
		<path fill="#284D96" d="M22.723,10.468c-0.039-0.237-0.039-0.237-0.168-0.249c0.047-0.119,0.221-0.211,0.443-0.23
			c0.002,0.052,0.004,0.101,0.008,0.149C23.025,10.424,23.025,10.424,22.723,10.468z"/>
		<path fill="#284D96" d="M35.943,12.359c-0.014-0.158-0.002-0.172,0.164-0.172c0.139,0,0.273-0.004,0.408,0
			c0.146,0.002,0.18,0.047,0.152,0.188C36.432,12.306,36.193,12.32,35.943,12.359z"/>
		<path fill="#284D96" d="M35.844,12.379c-0.107,0-0.215,0-0.328,0c0-0.059,0-0.117,0-0.176
			C35.758,12.125,35.865,12.181,35.844,12.379z"/>
		<path fill="#284D96" d="M37.105,12.188c0,0.065,0,0.123,0,0.188c-0.107,0-0.221,0-0.33,0c-0.037-0.157-0.014-0.188,0.145-0.188
			C36.98,12.188,37.041,12.188,37.105,12.188z"/>
		<path fill="#284D96" d="M36.082,13.572c-0.059,0-0.098,0-0.141,0c0-0.098,0-0.188,0-0.285c0.049,0,0.09,0,0.141,0
			C36.082,13.387,36.082,13.479,36.082,13.572z"/>
		<path fill="#284D96" d="M36.678,13.574c-0.049,0-0.088,0-0.133,0c0-0.094,0-0.186,0-0.285c0.043-0.002,0.084-0.004,0.133-0.008
			C36.678,13.381,36.678,13.473,36.678,13.574z"/>
		<path fill="#284D96" d="M36.268,13.572c-0.041,0-0.076,0-0.119,0c0-0.095,0-0.185,0-0.28c0.039,0,0.076,0,0.119,0
			C36.268,13.384,36.268,13.474,36.268,13.572z"/>
		<path fill="#284D96" d="M36.34,13.287c0.043,0,0.082,0,0.125,0c0,0.098,0,0.188,0,0.287c-0.043,0-0.082,0-0.125,0
			C36.34,13.482,36.34,13.392,36.34,13.287z"/>
		<path fill="#284D96" d="M35.869,13.574c-0.047,0-0.08,0-0.119,0c0-0.097,0-0.186,0-0.287c0.037,0,0.072-0.002,0.119-0.006
			C35.869,13.38,35.869,13.474,35.869,13.574z"/>
		<path fill="#284D96" d="M36.738,13.572c0-0.098,0-0.185,0-0.282c0.037-0.003,0.074-0.005,0.119-0.009c0,0.099,0,0.19,0,0.291
			C36.82,13.572,36.787,13.572,36.738,13.572z"/>
		<path fill="#284D96" d="M32.602,9.66c0.035,0.203,0.025,0.236-0.086,0.261C32.479,9.726,32.488,9.685,32.602,9.66z"/>
		<path fill="#284D96" d="M33.631,9.998c-0.107-0.021-0.115-0.049-0.086-0.254C33.654,9.77,33.656,9.779,33.631,9.998z"/>
		<path fill="#284D96" d="M33.691,9.806c0.1,0.009,0.107,0.044,0.074,0.241C33.668,10.033,33.648,9.976,33.691,9.806z"/>
		<path fill="#284D96" d="M32.172,9.811c0.037,0.205,0.02,0.256-0.094,0.281C32.111,9.996,32.02,9.877,32.172,9.811z"/>
		<path fill="#284D96" d="M32.756,9.605c-0.047,0.092,0.059,0.211-0.088,0.274C32.627,9.691,32.643,9.637,32.756,9.605z"/>
		<path fill="#284D96" d="M32.379,9.986c-0.035-0.196-0.021-0.244,0.088-0.271C32.424,9.804,32.527,9.924,32.379,9.986z"/>
		<path fill="#284D96" d="M32.332,9.775c-0.037,0.086,0.055,0.2-0.08,0.262C32.205,9.861,32.225,9.799,32.332,9.775z"/>
		<path fill="#284D96" d="M33.48,9.945c-0.145-0.047-0.047-0.162-0.074-0.244C33.563,9.742,33.461,9.863,33.48,9.945z"/>
		<path fill="#284D96" d="M33.129,9.605c0.111,0.012,0.123,0.047,0.088,0.247C33.072,9.802,33.164,9.689,33.129,9.605z"/>
		<path fill="#284D96" d="M33.275,9.639c0.131,0.066,0.055,0.169,0.078,0.251C33.256,9.881,33.256,9.878,33.275,9.639z"/>
		<path fill="#284D96" d="M37.197,12.115c0.115,0.021,0.219,0.045,0.316,0.063C37.303,12.23,37.219,12.215,37.197,12.115z"/>
		<path fill="#284D96" d="M6.209,13.099c0.763,0,1.524,0,2.287,0c0,0.004,0,0.009,0,0.013c-0.036,0-0.073,0-0.108,0
			c-0.697,0-1.394-0.002-2.091-0.004C6.267,13.107,6.239,13.102,6.209,13.099L6.209,13.099z"/>
		<path fill="#284D96" d="M7.946,12.887c-0.36,0-0.719,0-1.078,0c0-0.005,0-0.008,0-0.01c0.358,0,0.715,0,1.072,0
			C7.942,12.879,7.943,12.882,7.946,12.887z"/>
		<path fill="#284D96" d="M16.523,12.068c-0.319,0-0.637,0-0.955,0c0-0.002,0-0.004,0-0.006c0.318,0,0.636,0,0.955,0
			C16.523,12.064,16.523,12.066,16.523,12.068z"/>
		<path fill="#284D96" d="M7.258,11.992c0.226,0,0.453,0,0.679,0c0,0.002,0,0.008,0,0.011c-0.226,0-0.453,0-0.679,0
			C7.258,12,7.258,11.994,7.258,11.992z"/>
		<path fill="#284D96" d="M7.258,11.773c0.227,0,0.454,0,0.681,0c0,0.002,0,0.006,0,0.01c-0.225,0-0.45,0-0.675,0
			C7.262,11.779,7.26,11.775,7.258,11.773z"/>
		<path fill="#284D96" d="M8.003,11.564c-0.227,0-0.454,0-0.68,0c0-0.004,0-0.009,0-0.012c0.226,0,0.451,0,0.676,0
			C8.001,11.556,8.002,11.561,8.003,11.564z"/>
		<path fill="#284D96" d="M8.05,11.342c-0.217,0-0.435,0-0.652,0c0-0.003,0-0.006,0-0.009c0.217,0,0.435,0,0.652,0
			C8.05,11.336,8.05,11.339,8.05,11.342z"/>
		<path fill="#284D96" d="M7.193,12.214c0.221,0,0.443,0,0.664,0c0,0.003,0,0.006,0,0.011c-0.221,0-0.443,0-0.664,0
			C7.193,12.22,7.193,12.217,7.193,12.214z"/>
		<path fill="#284D96" d="M6.398,11.089c0.222,0,0.444,0,0.667,0c0,0.004,0,0.008,0,0.012c-0.222,0-0.444,0-0.667,0
			C6.398,11.097,6.398,11.093,6.398,11.089z"/>
		<path fill="#284D96" d="M7.461,11.111c0.221,0,0.442,0,0.663,0c0,0.002,0,0.006,0,0.01c-0.221,0-0.442,0-0.663,0
			C7.461,11.117,7.461,11.113,7.461,11.111z"/>
		<path fill="#284D96" d="M7.8,13.326c-0.216,0-0.432,0-0.648,0c0-0.004,0-0.008,0-0.01c0.218,0,0.436,0,0.654,0
			C7.804,13.32,7.802,13.322,7.8,13.326z"/>
		<path fill="#284D96" d="M6.973,11.32c-0.211,0-0.422,0-0.633,0c0-0.004,0-0.006,0-0.011c0.212,0,0.425,0,0.638,0
			C6.976,11.314,6.975,11.318,6.973,11.32z"/>
		<path fill="#284D96" d="M6.905,11.543c-0.215,0-0.431,0-0.646,0c0-0.006,0-0.01,0-0.014c0.215,0,0.429,0,0.644,0
			C6.904,11.533,6.905,11.537,6.905,11.543z"/>
		<path fill="#284D96" d="M7.145,12.433c0.209,0,0.418,0,0.626,0c0,0.005,0,0.009,0,0.013c-0.209,0-0.419,0-0.627,0
			C7.145,12.441,7.145,12.438,7.145,12.433z"/>
		<path fill="#284D96" d="M6.265,11.75c0.205,0,0.41,0,0.614,0c0,0.003,0,0.008,0,0.012c-0.205,0-0.41,0-0.616,0
			C6.264,11.758,6.264,11.753,6.265,11.75z"/>
		<path fill="#284D96" d="M6.259,11.97c0.2,0,0.4,0,0.6,0c0,0.004,0,0.008,0,0.011c-0.2,0-0.4,0-0.6,0
			C6.259,11.978,6.259,11.974,6.259,11.97z"/>
		<path fill="#284D96" d="M6.797,12.203c-0.178,0-0.356,0-0.535,0c0-0.006,0-0.01,0-0.012c0.178,0,0.357,0,0.535,0
			C6.797,12.195,6.797,12.197,6.797,12.203z"/>
		<path fill="#284D96" d="M6.209,13.34c0.188,0,0.377,0,0.566,0C6.586,13.34,6.398,13.34,6.209,13.34L6.209,13.34z"/>
		<path fill="#284D96" d="M15.967,12.832c0.162,0,0.325,0,0.489,0c0,0.003,0,0.006,0,0.011c-0.163,0-0.326,0-0.489,0
			C15.967,12.838,15.967,12.833,15.967,12.832z"/>
	</g>
</g>
</svg>
