<?xml version="1.0" encoding="utf-8"?>
<!-- Generator: Adobe Illustrator 16.0.3, SVG Export Plug-In . SVG Version: 6.00 Build 0)  -->
<!DOCTYPE svg PUBLIC "-//W3C//DTD SVG 1.1//EN" "http://www.w3.org/Graphics/SVG/1.1/DTD/svg11.dtd">
<svg version="1.1" id="圖層_1" xmlns="http://www.w3.org/2000/svg" xmlns:xlink="http://www.w3.org/1999/xlink" x="0px" y="0px"
	 width="24px" height="26.125px" viewBox="0 0 24 26.125" enable-background="new 0 0 24 26.125" xml:space="preserve">
<polygon fill="#0C2C71" points="24,26.111 0,24.014 0,0.013 24,2.112 "/>
<g enable-background="new    ">
	<path fill="#FFFFFF" d="M7.044,20.882L6.861,21.09c-0.107-0.195-0.193-0.338-0.259-0.43v1.287l-0.269-0.023v-1.225
		c-0.106,0.209-0.224,0.396-0.355,0.56l-0.166-0.29c0.202-0.214,0.37-0.469,0.502-0.768L5.838,20.16V19.9l0.496,0.044v-0.401
		l-0.361,0.011l-0.13-0.271c0.359,0.004,0.688-0.027,0.985-0.094l0.139,0.252c-0.117,0.031-0.239,0.054-0.365,0.068v0.458
		l0.403,0.035v0.259l-0.403-0.035v0.061C6.796,20.52,6.944,20.718,7.044,20.882z M8.584,22.045l-1.711-0.15v-0.259l0.271,0.024
		v-2.348l1.244,0.109v2.347l0.196,0.017V22.045z M8.105,20.15v-0.494l-0.68-0.059v0.492L8.105,20.15z M8.105,20.927v-0.521
		l-0.68-0.061v0.521L8.105,20.927z M8.105,21.744v-0.559l-0.68-0.059v0.557L8.105,21.744z"/>
	<path fill="#FFFFFF" d="M9.744,19.514c-0.023,0.088-0.062,0.213-0.116,0.373l-0.081,0.238v2.086L9.28,22.188v-1.492
		c-0.069,0.107-0.121,0.184-0.156,0.229l-0.167-0.277c0.218-0.315,0.389-0.725,0.515-1.227L9.744,19.514z M11.741,20.784
		L9.72,20.607v-0.25l0.464,0.041v-0.332l-0.403-0.035v-0.252l0.403,0.035v-0.297l0.279,0.025v0.296l0.524,0.046v-0.297l0.278,0.024
		v0.296l0.4,0.035v0.253l-0.4-0.035v0.331l0.476,0.043V20.784z M11.518,22.381l-0.279-0.025v-0.126l-1.022-0.09v0.13l-0.284-0.025
		v-1.392l1.584,0.139V22.381z M11.239,21.473v-0.26l-1.022-0.089v0.259L11.239,21.473z M11.239,21.984V21.71l-1.022-0.09v0.274
		L11.239,21.984z M10.987,20.469v-0.332l-0.524-0.045v0.331L10.987,20.469z"/>
	<path fill="#FFFFFF" d="M13.016,20.722l-0.266-0.023v0.669c0.04-0.018,0.109-0.057,0.211-0.117l0.043,0.275
		c-0.371,0.216-0.635,0.352-0.792,0.405l-0.088-0.261c0.167-0.063,0.287-0.115,0.362-0.158v-0.836l-0.305-0.027v-0.253l0.305,0.026
		v-0.699l0.265,0.023v0.699l0.266,0.023V20.722z M14.898,21.385l-1.143-0.1c-0.046,0.067-0.084,0.117-0.111,0.148l1.19,0.104
		c-0.009,0.23-0.021,0.439-0.035,0.629s-0.029,0.302-0.044,0.336c-0.016,0.034-0.039,0.064-0.074,0.09
		c-0.033,0.026-0.079,0.043-0.138,0.049c-0.058,0.008-0.184,0.002-0.378-0.016l-0.088-0.26c0.057,0.009,0.113,0.016,0.173,0.021
		c0.132,0.012,0.212,0.002,0.24-0.03s0.05-0.237,0.063-0.612l-0.085-0.008c-0.159,0.369-0.462,0.649-0.909,0.84l-0.195-0.201
		c0.397-0.148,0.676-0.369,0.834-0.662l-0.198-0.018c-0.199,0.265-0.522,0.477-0.972,0.639l-0.18-0.212
		c0.394-0.126,0.676-0.277,0.846-0.453l-0.271-0.024c-0.123,0.095-0.238,0.171-0.345,0.229L12.9,21.666
		c0.235-0.11,0.422-0.246,0.561-0.406l-0.494-0.043v-0.231l1.932,0.169V21.385z M14.738,20.98l-1.6-0.141v-1.018l1.6,0.141V20.98z
		 M14.47,20.34v-0.163l-1.063-0.093v0.163L14.47,20.34z M14.47,20.726v-0.167l-1.063-0.093v0.167L14.47,20.726z"/>
	<path fill="#FFFFFF" d="M16.253,22.207c-0.335,0.141-0.63,0.244-0.882,0.311l-0.072-0.271c0.112-0.025,0.227-0.06,0.344-0.102
		v-1.16l-0.303-0.027v-0.265l0.303,0.026v-0.723l0.282,0.023v0.724l0.283,0.024v0.266l-0.283-0.025v1.031
		c0.104-0.035,0.206-0.075,0.306-0.121L16.253,22.207z M18.076,22.354c-0.008,0.208-0.035,0.347-0.08,0.417
		c-0.046,0.07-0.127,0.108-0.243,0.112c-0.116,0.005-0.322-0.007-0.618-0.032c-0.232-0.021-0.391-0.039-0.475-0.055
		s-0.15-0.053-0.197-0.11s-0.07-0.141-0.07-0.249v-1.004L16.174,21.5l-0.035-0.287l0.254-0.082v-0.707l0.273,0.023v0.59l0.37-0.111
		v-0.812l0.274,0.024v0.697l0.656-0.211c-0.01,0.536-0.055,0.992-0.135,1.367l-0.269-0.105c0.062-0.283,0.101-0.574,0.116-0.874
		l-0.369,0.117v1.184l-0.274-0.024v-1.067l-0.37,0.116v1.098c0,0.061,0.023,0.096,0.068,0.106c0.045,0.01,0.189,0.026,0.433,0.048
		c0.249,0.021,0.412,0.033,0.489,0.036c0.076,0.003,0.121-0.03,0.131-0.099c0.012-0.068,0.018-0.168,0.021-0.3L18.076,22.354z"/>
</g>
<path fill="#FFFFFF" d="M15.939,14.303c-0.063-0.457-0.613-0.313-0.613-0.313l-0.389,0.063c-0.063-0.394-0.711-0.16-0.711-0.16
	c-0.16-0.368-0.615-0.149-0.615-0.149l-0.805,0.284c0.387,0.064,0.517,0.677,0.517,0.677c0.085,0.381-0.042,0.772-0.408,0.89
	c-0.354,0.112-0.793,0.021-1.169-0.015c-0.36-0.035-0.746-0.104-1.048-0.347c-0.252-0.199-0.438-0.533-0.536-0.832
	c-0.012-0.032-0.02-0.172-0.039-0.194c0.476,0.592,1.154,0.974,1.879,1.015c0.363,0.018,1.107,0.09,1.027-0.471
	c-0.063-0.456-0.646-0.52-0.646-0.52c-0.516-0.108-0.97-0.379-0.97-0.379l-0.871-0.661c-1.163-0.909-2.778-0.012-2.778-0.012
	L7.7,14.908l0.776-0.158c0.323-0.104,0.614,0.117,0.614,0.117c0.808,0.587,1.616,0.787,1.616,0.787
	c1.647,0.92,4.555-0.766,4.555-0.766C16.038,14.7,15.939,14.303,15.939,14.303z"/>
<g>
	<path fill="#FFFFFF" d="M12.187,13.664L12.187,13.664c-0.801-0.068-1.368-0.666-1.506-0.824c-0.324-0.208-0.697-0.334-1.11-0.374
		l-0.24-0.024V7.614c0-0.188,0.153-0.325,0.34-0.309l4.822,0.422c0.188,0.016,0.339,0.182,0.339,0.369v4.917l-0.262-0.044
		c-0.06-0.01-0.116-0.019-0.172-0.023c-0.414-0.036-0.606,0.081-0.638,0.102C13.266,13.505,12.734,13.712,12.187,13.664z
		 M9.816,12.015c0.417,0.071,0.798,0.221,1.139,0.447l0.037,0.024l0.028,0.035c0.004,0.005,0.49,0.6,1.167,0.659l0,0
		c0.417,0.037,0.833-0.135,1.239-0.51l0.01-0.009c0.03-0.026,0.313-0.244,0.914-0.205V8.198L9.816,7.802V12.015z"/>
</g>
<path fill="#FFFFFF" d="M11.294,9.297c0,0.065-0.054,0.115-0.12,0.11l-0.631-0.056c-0.067-0.006-0.121-0.064-0.121-0.131V8.588
	c0-0.066,0.054-0.116,0.121-0.11l0.632,0.055c0.066,0.006,0.121,0.065,0.121,0.131L11.294,9.297L11.294,9.297z"/>
<path fill="#FFFFFF" d="M12.494,9.401c0,0.066-0.053,0.116-0.12,0.111l-0.631-0.056c-0.066-0.006-0.121-0.064-0.121-0.131V8.693
	c0-0.066,0.054-0.116,0.121-0.11l0.631,0.056c0.067,0.005,0.12,0.064,0.12,0.131V9.401z"/>
<path fill="#FFFFFF" d="M13.693,9.506c0,0.066-0.053,0.115-0.118,0.11L12.943,9.56c-0.068-0.006-0.121-0.065-0.121-0.131V8.798
	c0-0.066,0.053-0.116,0.121-0.11l0.632,0.056c0.065,0.005,0.118,0.064,0.118,0.131V9.506L13.693,9.506z"/>
<path fill="#FFFFFF" d="M11.294,10.46c0,0.066-0.054,0.116-0.12,0.11l-0.631-0.055c-0.067-0.006-0.121-0.064-0.121-0.131V9.752
	c0-0.067,0.054-0.116,0.121-0.11l0.632,0.056c0.066,0.006,0.121,0.064,0.121,0.131L11.294,10.46L11.294,10.46z"/>
<path fill="#FFFFFF" d="M12.494,10.565c0,0.066-0.053,0.116-0.12,0.111l-0.631-0.056c-0.066-0.006-0.121-0.065-0.121-0.131V9.857
	c0-0.066,0.054-0.116,0.121-0.111l0.631,0.056c0.067,0.005,0.12,0.064,0.12,0.131V10.565z"/>
<path fill="#FFFFFF" d="M13.693,10.67c0,0.066-0.053,0.116-0.118,0.11l-0.632-0.055c-0.068-0.006-0.121-0.064-0.121-0.131V9.962
	c0-0.067,0.053-0.116,0.121-0.11l0.632,0.055c0.065,0.006,0.118,0.064,0.118,0.131V10.67L13.693,10.67z"/>
<path fill="#FFFFFF" d="M11.294,11.623c0,0.068-0.054,0.116-0.12,0.111l-0.631-0.055c-0.067-0.006-0.121-0.064-0.121-0.131v-0.632
	c0-0.066,0.054-0.116,0.121-0.111l0.632,0.056c0.066,0.006,0.121,0.065,0.121,0.132L11.294,11.623L11.294,11.623z"/>
<path fill="#FFFFFF" d="M12.494,11.729c0,0.067-0.053,0.116-0.12,0.11l-0.631-0.055c-0.066-0.006-0.121-0.063-0.121-0.132V11.02
	c0-0.066,0.054-0.116,0.121-0.11l0.631,0.055c0.067,0.006,0.12,0.064,0.12,0.131V11.729z"/>
<path fill="#FFFFFF" d="M13.693,11.833c0,0.068-0.053,0.116-0.118,0.111l-0.632-0.055c-0.068-0.006-0.121-0.064-0.121-0.132v-0.631
	c0-0.066,0.053-0.116,0.121-0.111l0.632,0.056c0.065,0.006,0.118,0.064,0.118,0.131V11.833L13.693,11.833z"/>
</svg>
