<?xml version="1.0" encoding="utf-8"?>
<!-- Generator: Adobe Illustrator 16.0.3, SVG Export Plug-In . SVG Version: 6.00 Build 0)  -->
<!DOCTYPE svg PUBLIC "-//W3C//DTD SVG 1.1//EN" "http://www.w3.org/Graphics/SVG/1.1/DTD/svg11.dtd">
<svg version="1.1" id="圖層_1" xmlns="http://www.w3.org/2000/svg" xmlns:xlink="http://www.w3.org/1999/xlink" x="0px" y="0px"
	 width="24px" height="26.125px" viewBox="0 0 24 26.125" enable-background="new 0 0 24 26.125" xml:space="preserve">
<polygon fill="#476CB9" points="24,26.111 0,24.014 0,0.013 24,2.112 "/>
<g enable-background="new    ">
	<path fill="#FFFFFF" d="M8.563,21.166L6.898,21.02v0.635c0.128-0.018,0.309-0.063,0.541-0.132v0.29
		c-0.219,0.063-0.487,0.118-0.806,0.163l-0.066-0.233C6.608,21.7,6.63,21.66,6.63,21.621v-0.625l-0.322-0.027
		c-0.037,0.396-0.12,0.712-0.248,0.947l-0.237-0.197c0.154-0.274,0.231-0.693,0.231-1.257v-1.259l2.368,0.207v0.723l-2.083-0.182
		v0.287l0.521,0.047v-0.193l0.268,0.023v0.193l0.606,0.053v-0.193L8,20.191v0.193l0.458,0.039v0.23L8,20.613v0.266l0.562,0.049
		V21.166z M6.858,20.779v-0.266l-0.524-0.045c0.003,0.102,0.001,0.189-0.006,0.264L6.858,20.779z M8.136,19.859v-0.221L6.337,19.48
		v0.222L8.136,19.859z M7.732,20.855V20.59l-0.606-0.053v0.266L7.732,20.855z M8.614,21.927L8.458,22.15
		c-0.549-0.223-0.935-0.533-1.158-0.929l0.251-0.078c0.074,0.12,0.172,0.235,0.294,0.349c0.128-0.059,0.247-0.15,0.356-0.276
		l0.256,0.161c-0.108,0.118-0.228,0.218-0.359,0.301C8.237,21.768,8.408,21.85,8.614,21.927z"/>
	<path fill="#FFFFFF" d="M11.789,20.204l-0.111,0.239c-0.258-0.086-0.519-0.195-0.783-0.326v0.117l-1.031-0.091V20.02
		c-0.244,0.087-0.501,0.155-0.774,0.204l-0.139-0.239c0.622-0.107,1.081-0.271,1.376-0.496l0.309,0.104
		c-0.022,0.025-0.041,0.043-0.058,0.055C10.872,19.857,11.275,20.043,11.789,20.204z M11.5,21.23l-2.253-0.197v-0.815l2.253,0.197
		V21.23z M11.365,22.367l-0.278-0.024v-0.113l-1.414-0.124v0.113l-0.288-0.025v-1.01l1.979,0.174V22.367z M10.232,20.898v-0.369
		l-0.71-0.063v0.369L10.232,20.898z M10.093,20.73L9.895,20.84c-0.076-0.07-0.163-0.14-0.262-0.209l0.195-0.115
		C9.893,20.557,9.981,20.629,10.093,20.73z M11.087,21.677v-0.13l-1.414-0.123v0.129L11.087,21.677z M11.087,22.011v-0.139
		l-1.414-0.124v0.139L11.087,22.011z M10.675,19.996c-0.17-0.109-0.273-0.178-0.31-0.203c-0.086,0.057-0.185,0.107-0.296,0.15
		L10.675,19.996z M11.223,20.985v-0.37l-0.713-0.063v0.37L11.223,20.985z M11.103,20.753c-0.07,0.053-0.158,0.106-0.265,0.161
		l-0.196-0.15c0.124-0.067,0.209-0.117,0.259-0.148L11.103,20.753z"/>
	<path fill="#FFFFFF" d="M12.84,20.92l-0.17,0.214c-0.158-0.159-0.34-0.31-0.546-0.452l0.167-0.213
		C12.53,20.633,12.714,20.784,12.84,20.92z M12.874,21.438c-0.145,0.407-0.309,0.751-0.492,1.031l-0.237-0.192
		c0.18-0.275,0.34-0.605,0.481-0.99L12.874,21.438z M12.912,20.212l-0.204,0.187c-0.146-0.175-0.326-0.353-0.543-0.534l0.202-0.185
		C12.615,19.887,12.798,20.064,12.912,20.212z M14.895,20.997l-0.871-0.076v0.438l0.717,0.063v1.244l-0.285-0.024v-0.154l-1.135-0.1
		v0.154l-0.287-0.025v-1.244l0.706,0.063v-0.438l-0.872-0.077l-0.002-0.263l0.874,0.077v-0.417
		c-0.249,0.001-0.484-0.004-0.706-0.018l-0.099-0.274c0.661,0.058,1.235,0.042,1.723-0.051l0.141,0.243
		c-0.215,0.047-0.473,0.078-0.774,0.094v0.447l0.871,0.076V20.997z M14.455,22.215v-0.549l-1.135-0.1v0.549L14.455,22.215z"/>
	<path fill="#FFFFFF" d="M16.837,20.823l-0.61-0.054v0.179l0.545,0.048v0.928l-0.545-0.047v0.177l0.545,0.048v0.221l-0.545-0.048
		v0.2c0.201-0.002,0.387-0.012,0.561-0.031l0.012,0.227c-0.455,0.035-0.938,0.057-1.445,0.063L15.296,22.5l0.679-0.011v-0.237
		l-0.553-0.049v-0.22l0.553,0.048v-0.177l-0.553-0.048v-0.929l0.553,0.048v-0.178l-0.635-0.056v-0.231l0.635,0.055v-0.18
		c-0.137,0.006-0.302,0.005-0.495-0.002l-0.069-0.227c0.48,0.021,0.908,0.01,1.284-0.037l0.107,0.212
		c-0.149,0.022-0.342,0.038-0.575,0.048v0.208l0.61,0.054V20.823z M15.975,21.29v-0.161l-0.297-0.026v0.161L15.975,21.29z
		 M15.975,21.646v-0.16l-0.297-0.026v0.16L15.975,21.646z M16.516,21.34v-0.164l-0.289-0.025v0.165L16.516,21.34z M16.516,21.693
		v-0.16l-0.289-0.025v0.16L16.516,21.693z M18.004,20.785c-0.002,0.439-0.012,0.862-0.029,1.268
		c-0.018,0.406-0.035,0.641-0.054,0.703c-0.019,0.062-0.054,0.107-0.106,0.137c-0.053,0.031-0.137,0.04-0.254,0.03
		c-0.055-0.005-0.111-0.013-0.168-0.022l-0.079-0.275c0.08,0.014,0.144,0.021,0.19,0.025c0.092,0.009,0.146,0.002,0.161-0.02
		s0.034-0.209,0.056-0.56s0.028-0.7,0.021-1.048L17.471,21c-0.005,0.768-0.145,1.396-0.42,1.885l-0.244-0.143
		c0.28-0.48,0.41-1.069,0.391-1.766l-0.275-0.024V20.69l0.281,0.024c0.005-0.259,0.006-0.451,0.003-0.576l0.274,0.023
		c0,0.199-0.004,0.391-0.01,0.576L18.004,20.785z"/>
</g>
<g>
	<path fill="#FFFFFF" d="M15.717,16.447l-7.407-0.93c-0.233-0.029-0.421-0.24-0.421-0.473V8.298c0-0.232,0.188-0.396,0.421-0.368
		l7.407,0.93c0.232,0.028,0.422,0.242,0.422,0.474v6.745C16.139,16.311,15.949,16.477,15.717,16.447z M8.491,14.938l7.045,0.885
		V9.439L8.491,8.555V14.938z"/>
</g>
<g>
	<g>
		<path fill="#FFFFFF" d="M10.196,14.244c0,0.057-0.046,0.096-0.103,0.09L9.275,14.23c-0.057-0.006-0.103-0.057-0.103-0.113v-0.82
			c0-0.056,0.046-0.097,0.103-0.09l0.818,0.104c0.057,0.007,0.103,0.059,0.103,0.114V14.244z"/>
	</g>
	<g>
		<path fill="#FFFFFF" d="M11.749,14.439c0,0.057-0.046,0.096-0.103,0.088l-0.819-0.102c-0.056-0.008-0.102-0.059-0.102-0.115
			v-0.819c0-0.056,0.045-0.097,0.102-0.089l0.819,0.103c0.057,0.007,0.103,0.059,0.103,0.114V14.439z"/>
	</g>
	<g>
		<path fill="#FFFFFF" d="M13.302,14.635c0,0.057-0.047,0.096-0.103,0.088l-0.819-0.102c-0.055-0.008-0.102-0.059-0.102-0.115v-0.82
			c0-0.055,0.047-0.096,0.102-0.088l0.819,0.102c0.056,0.008,0.103,0.061,0.103,0.115V14.635z"/>
	</g>
	<g>
		<path fill="#FFFFFF" d="M14.854,14.828c0,0.057-0.046,0.096-0.103,0.09l-0.819-0.104c-0.056-0.006-0.103-0.057-0.103-0.113v-0.82
			c0-0.055,0.047-0.096,0.103-0.09l0.819,0.104c0.057,0.008,0.103,0.059,0.103,0.115V14.828z"/>
	</g>
	<g>
		<path fill="#FFFFFF" d="M10.196,12.77c0,0.056-0.046,0.096-0.103,0.089l-0.818-0.103c-0.057-0.007-0.103-0.059-0.103-0.115v-0.819
			c0-0.056,0.046-0.096,0.103-0.089l0.818,0.103c0.057,0.007,0.103,0.06,0.103,0.115V12.77z"/>
	</g>
	<g>
		<path fill="#FFFFFF" d="M11.749,12.964c0,0.056-0.046,0.097-0.103,0.089l-0.819-0.103c-0.056-0.007-0.102-0.059-0.102-0.114
			v-0.819c0-0.056,0.045-0.097,0.102-0.09l0.819,0.103c0.057,0.008,0.103,0.06,0.103,0.115V12.964z"/>
	</g>
	<g>
		<path fill="#FFFFFF" d="M13.302,13.159c0,0.057-0.047,0.097-0.103,0.09l-0.819-0.103c-0.055-0.007-0.102-0.06-0.102-0.115v-0.819
			c0-0.056,0.047-0.096,0.102-0.089l0.819,0.103c0.056,0.007,0.103,0.059,0.103,0.115V13.159z"/>
	</g>
	<g>
		<path fill="#FFFFFF" d="M14.854,13.354c0,0.056-0.046,0.096-0.103,0.089l-0.819-0.103c-0.056-0.007-0.103-0.059-0.103-0.115
			v-0.819c0-0.056,0.047-0.096,0.103-0.089l0.819,0.103c0.057,0.007,0.103,0.06,0.103,0.115V13.354z"/>
	</g>
	<g>
		<path fill="#FFFFFF" d="M11.749,11.458c0,0.057-0.046,0.097-0.103,0.09l-0.819-0.103c-0.056-0.008-0.102-0.059-0.102-0.115v-0.819
			c0-0.057,0.045-0.097,0.102-0.09l0.819,0.103c0.057,0.008,0.103,0.059,0.103,0.115V11.458z"/>
	</g>
	<g>
		<path fill="#FFFFFF" d="M13.302,11.653c0,0.057-0.047,0.097-0.103,0.09L12.38,11.64c-0.055-0.007-0.102-0.059-0.102-0.115v-0.819
			c0-0.057,0.047-0.096,0.102-0.089l0.819,0.103c0.056,0.007,0.103,0.059,0.103,0.115V11.653z"/>
	</g>
	<g>
		<path fill="#FFFFFF" d="M14.854,11.848c0,0.057-0.046,0.097-0.103,0.09l-0.819-0.104c-0.056-0.007-0.103-0.059-0.103-0.115V10.9
			c0-0.056,0.047-0.096,0.103-0.089l0.819,0.103c0.057,0.007,0.103,0.059,0.103,0.115V11.848z"/>
	</g>
</g>
<g>
	<path fill="#FFFFFF" d="M10.337,9.156c0,0.25-0.202,0.426-0.452,0.395l0,0c-0.25-0.031-0.452-0.258-0.452-0.508V7.778
		c0-0.25,0.203-0.427,0.452-0.396l0,0c0.25,0.031,0.452,0.259,0.452,0.509V9.156z"/>
</g>
<g>
	<path fill="#FFFFFF" d="M12.415,9.417c0,0.25-0.203,0.426-0.452,0.395l0,0c-0.25-0.031-0.452-0.258-0.452-0.508V8.039
		c0-0.25,0.202-0.427,0.452-0.396l0,0c0.249,0.031,0.452,0.259,0.452,0.509V9.417z"/>
</g>
<g>
	<path fill="#FFFFFF" d="M14.492,9.676c0,0.25-0.204,0.427-0.451,0.396l0,0c-0.25-0.031-0.452-0.259-0.452-0.509V8.298
		c0-0.25,0.202-0.426,0.452-0.395l0,0c0.247,0.031,0.451,0.258,0.451,0.508V9.676z"/>
</g>
</svg>
