<?xml version="1.0" encoding="utf-8"?>
<!-- Generator: Adobe Illustrator 16.0.3, SVG Export Plug-In . SVG Version: 6.00 Build 0)  -->
<!DOCTYPE svg PUBLIC "-//W3C//DTD SVG 1.1//EN" "http://www.w3.org/Graphics/SVG/1.1/DTD/svg11.dtd">
<svg version="1.1" id="圖層_1" xmlns="http://www.w3.org/2000/svg" xmlns:xlink="http://www.w3.org/1999/xlink" x="0px" y="0px"
	 width="24px" height="26.125px" viewBox="0 0 24 26.125" enable-background="new 0 0 24 26.125" xml:space="preserve">
<polygon fill="#3558A0" points="24,23.975 0,26.15 0,2.15 24,-0.025 "/>
<g enable-background="new    ">
	<path fill="#FFFFFF" d="M8.563,21.778L6.898,21.93v0.633c0.128-0.039,0.309-0.117,0.541-0.228v0.29
		c-0.219,0.104-0.487,0.205-0.806,0.308L6.566,22.71c0.042-0.049,0.063-0.094,0.063-0.133v-0.624l-0.322,0.029
		c-0.037,0.404-0.12,0.734-0.249,0.992l-0.237-0.155c0.154-0.302,0.231-0.734,0.231-1.297v-1.26l2.367-0.215v0.723l-2.084,0.188
		v0.289L6.858,21.2v-0.192l0.269-0.024v0.192l0.606-0.055v-0.192L8,20.904v0.192l0.458-0.042v0.23L8,21.327v0.265l0.563-0.051
		V21.778z M6.858,21.695v-0.265l-0.524,0.048c0.003,0.102,0.001,0.189-0.006,0.265L6.858,21.695z M8.136,20.549v-0.223L6.337,20.49
		v0.221L8.136,20.549z M7.732,21.616v-0.265l-0.606,0.055v0.265L7.732,21.616z M8.614,22.53l-0.156,0.251
		C7.909,22.656,7.523,22.416,7.3,22.06l0.251-0.123c0.074,0.106,0.172,0.205,0.294,0.296c0.128-0.08,0.247-0.193,0.356-0.34
		l0.256,0.115c-0.108,0.137-0.228,0.26-0.359,0.364C8.236,22.438,8.408,22.49,8.614,22.53z"/>
	<path fill="#FFFFFF" d="M10.227,20.32l-0.148,0.238c-0.048-0.057-0.102-0.108-0.162-0.156v0.205L9.332,20.66v-0.123
		c-0.078,0.077-0.175,0.157-0.292,0.24L8.96,20.505c0.232-0.159,0.442-0.38,0.627-0.659l0.256,0.067
		c-0.014,0.03-0.03,0.056-0.046,0.073C9.988,20.112,10.131,20.223,10.227,20.32z M10.205,22.393l-0.25,0.152
		c-0.027-0.086-0.051-0.15-0.072-0.191c-0.28,0.146-0.523,0.254-0.729,0.324l-0.076-0.232c0.039-0.033,0.059-0.072,0.059-0.117
		v-1.512L10.1,20.73v1.029l-0.697,0.063v0.479c0.108-0.042,0.229-0.102,0.362-0.177c-0.017-0.047-0.047-0.102-0.091-0.163
		l0.242-0.136C10.033,22,10.13,22.189,10.205,22.393z M9.841,21.15v-0.16l-0.438,0.04v0.16L9.841,21.15z M9.841,21.545v-0.191
		l-0.438,0.039v0.192L9.841,21.545z M9.889,20.379c-0.071-0.061-0.153-0.121-0.247-0.183c-0.053,0.069-0.117,0.144-0.193,0.222
		L9.889,20.379z M11.72,20.577l-0.177,0.017v0.701l-0.868,0.078v0.214l0.976-0.089v0.826l-0.976,0.089v0.136l-0.278,0.025v-1.877
		l-0.136,0.012V20.15l0.565-0.052c-0.02-0.06-0.062-0.149-0.126-0.267l0.285-0.104c0.054,0.099,0.102,0.213,0.145,0.344l0.59-0.054
		V20.577z M11.446,20.525v-0.24l-0.904,0.082v0.24L11.446,20.525z M11.265,21.072v-0.285l-0.59,0.054v0.285L11.265,21.072z
		 M11.379,22.104v-0.328l-0.705,0.064v0.328L11.379,22.104z"/>
	<path fill="#FFFFFF" d="M14.92,20.371l-0.148,0.267c-0.52-0.179-0.934-0.444-1.244-0.794c-0.307,0.384-0.724,0.715-1.25,0.996
		l-0.167-0.231c0.566-0.279,1.013-0.649,1.341-1.112l0.286,0.049c-0.007,0.021-0.021,0.047-0.039,0.076
		C14.012,19.963,14.418,20.213,14.92,20.371z M13.087,20.724c0,0.312-0.011,0.549-0.032,0.713c-0.021,0.163-0.077,0.325-0.17,0.487
		c-0.092,0.16-0.236,0.324-0.433,0.49l-0.225-0.185c0.179-0.146,0.309-0.286,0.39-0.421c0.08-0.135,0.132-0.277,0.153-0.424
		c0.021-0.148,0.032-0.359,0.032-0.635L13.087,20.724z M14.244,22.226l-0.293,0.026v-1.6l0.293-0.026V22.226z"/>
	<path fill="#FFFFFF" d="M15.717,21.366c-0.051,0.299-0.118,0.553-0.203,0.765l-0.233-0.105c0.073-0.188,0.136-0.42,0.187-0.697
		L15.717,21.366z M16.518,19.839c-0.244,0.437-0.492,0.792-0.746,1.067c0.105-0.027,0.229-0.066,0.373-0.115
		c-0.014-0.047-0.036-0.091-0.065-0.133l0.237-0.115c0.083,0.145,0.148,0.311,0.195,0.496l-0.23,0.116l-0.037-0.14
		c-0.274,0.095-0.565,0.182-0.873,0.263l-0.061-0.237c0.195-0.165,0.387-0.384,0.572-0.658l-0.492,0.111l-0.057-0.244
		c0.219-0.229,0.41-0.545,0.576-0.95l0.273,0.071c-0.138,0.303-0.301,0.567-0.49,0.795c0.119-0.018,0.246-0.047,0.379-0.089
		c0.074-0.108,0.14-0.222,0.196-0.34L16.518,19.839z M16.127,21.933l-0.25,0.103c-0.006-0.201-0.033-0.424-0.085-0.668l0.229-0.071
		C16.066,21.477,16.102,21.689,16.127,21.933z M16.533,21.762l-0.217,0.1c-0.033-0.176-0.092-0.366-0.178-0.57l0.23-0.081
		C16.436,21.379,16.49,21.563,16.533,21.762z M18.014,19.192c0,0.214-0.011,0.425-0.031,0.634c-0.021,0.208-0.039,0.336-0.053,0.383
		c-0.014,0.046-0.038,0.09-0.074,0.129c-0.035,0.039-0.092,0.068-0.172,0.086c-0.078,0.017-0.188,0.029-0.33,0.037l-0.1-0.275
		c0.05-0.002,0.161-0.012,0.334-0.027c0.04-0.003,0.067-0.029,0.083-0.08s0.033-0.246,0.053-0.585l-0.458,0.042
		c-0.051,0.459-0.273,0.818-0.669,1.076l-0.202-0.184c0.16-0.086,0.293-0.208,0.4-0.367c0.105-0.158,0.168-0.326,0.184-0.5
		l-0.508,0.047v-0.275L18.014,19.192z M17.938,21.894l-0.283,0.026v-0.154l-0.765,0.068v0.16l-0.28,0.025v-1.307l1.328-0.121V21.894
		z M17.654,21.494v-0.605l-0.765,0.068v0.607L17.654,21.494z"/>
</g>
<g>
	<path fill="#FFFFFF" d="M14.083,16.349c-1.492,0.173-2.707-0.901-2.707-2.396c0-1.492,1.215-2.846,2.707-3.019
		s2.706,0.901,2.706,2.394C16.789,14.821,15.575,16.176,14.083,16.349z M14.083,11.562c-1.147,0.133-2.081,1.174-2.081,2.321
		c0,1.146,0.934,1.972,2.081,1.839c1.146-0.132,2.08-1.173,2.08-2.319C16.163,12.254,15.23,11.429,14.083,11.562z"/>
</g>
<g>
	<path fill="#FFFFFF" d="M12.324,15.051l-3.702,0.428c-0.242,0.027-0.437-0.147-0.437-0.388V7.8c0-0.242,0.196-0.46,0.437-0.488
		l5.539-0.64c0.241-0.028,0.438,0.146,0.438,0.387v4.48l-0.339,0.009c-0.065,0.003-0.123,0.006-0.178,0.013
		c-1.146,0.132-2.08,1.173-2.08,2.32c0,0.268,0.05,0.521,0.149,0.758L12.324,15.051z M8.811,14.83l2.627-0.304
		c-0.041-0.185-0.063-0.376-0.063-0.571c0-1.457,1.155-2.781,2.598-3.005V7.32L8.811,7.917V14.83z"/>
</g>
<g>
	<path fill="#FFFFFF" d="M12.122,8.49c0.771-0.089,0.013,0.004,0.784-0.092c0.245-0.03,0.429,0.032,0.423,0.292
		c-0.006,0.243-0.192,0.335-0.42,0.36c-1.552,0.176-1.577,0.18-3.13,0.361c-0.22,0.025-0.41,0.003-0.417-0.259
		C9.353,8.877,9.535,8.787,9.776,8.76C10.558,8.674,11.339,8.581,12.122,8.49z"/>
</g>
<g>
	<path fill="#FFFFFF" d="M12.122,9.898c0.771-0.089,0.013,0.003,0.784-0.093c0.245-0.03,0.429,0.032,0.423,0.292
		c-0.005,0.243-0.191,0.334-0.42,0.361c-1.552,0.176-1.576,0.18-3.129,0.361c-0.22,0.025-0.411,0.002-0.418-0.26
		c-0.009-0.274,0.173-0.364,0.415-0.391C10.558,10.082,11.339,9.988,12.122,9.898z"/>
</g>
<g>
	<path fill="#FFFFFF" d="M12.122,11.337c0.771-0.088,0.013,0.003,0.784-0.092c0.245-0.03,0.429,0.032,0.423,0.291
		c-0.006,0.243-0.192,0.335-0.42,0.361c-1.552,0.177-1.577,0.181-3.13,0.362c-0.22,0.025-0.41,0.002-0.417-0.26
		c-0.008-0.274,0.174-0.364,0.415-0.391C10.558,11.521,11.339,11.428,12.122,11.337z"/>
</g>
<g>
	<polygon fill="#FFFFFF" points="13.676,13.33 14.396,13.246 14.396,15.187 13.676,15.27 	"/>
</g>
<g>
	<path fill="#FFFFFF" d="M14.036,12.161c0.241-0.028,0.438,0.146,0.438,0.387c0,0.242-0.196,0.46-0.438,0.488
		c-0.242,0.028-0.438-0.146-0.438-0.387C13.599,12.408,13.794,12.189,14.036,12.161z"/>
</g>
</svg>
