<?xml version="1.0" encoding="utf-8"?>
<!-- Generator: Adobe Illustrator 16.0.3, SVG Export Plug-In . SVG Version: 6.00 Build 0)  -->
<!DOCTYPE svg PUBLIC "-//W3C//DTD SVG 1.1//EN" "http://www.w3.org/Graphics/SVG/1.1/DTD/svg11.dtd">
<svg version="1.1" id="圖層_1" xmlns="http://www.w3.org/2000/svg" xmlns:xlink="http://www.w3.org/1999/xlink" x="0px" y="0px"
	 width="24px" height="26.125px" viewBox="0 0 24 26.125" enable-background="new 0 0 24 26.125" xml:space="preserve">
<polygon fill="#396787" points="24,23.975 0,26.15 0,2.15 24,-0.025 "/>
<g enable-background="new    ">
	<path fill="#FFFFFF" d="M8.614,21.539l-0.108,0.244c-0.49-0.043-0.917-0.17-1.282-0.38c-0.37,0.276-0.798,0.479-1.284,0.61
		l-0.136-0.226c0.533-0.124,0.997-0.339,1.392-0.644l0.161,0.036l-0.043-0.129c0.136-0.101,0.246-0.25,0.332-0.446l0.247,0.059
		c-0.071,0.129-0.145,0.233-0.222,0.313c0.151-0.02,0.304-0.052,0.458-0.097C8.098,20.839,8.056,20.791,8,20.736l0.215-0.123
		c0.156,0.155,0.276,0.311,0.36,0.469l-0.224,0.123c-0.018-0.046-0.047-0.091-0.086-0.139c-0.281,0.064-0.56,0.121-0.835,0.167
		C7.764,21.401,8.158,21.504,8.614,21.539z M7.163,21.119l-0.229,0.118c-0.011-0.016-0.022-0.028-0.035-0.036
		c-0.392,0.117-0.72,0.195-0.985,0.236l-0.037-0.195c0.144-0.098,0.275-0.256,0.395-0.473l0.243,0.064
		c-0.084,0.138-0.17,0.247-0.259,0.329c0.146-0.024,0.312-0.064,0.498-0.121c-0.042-0.049-0.085-0.09-0.13-0.12l0.222-0.121
		C6.952,20.877,7.057,20.984,7.163,21.119z M7.445,21.643c-0.326,0.288-0.738,0.495-1.238,0.621L6.09,22.066
		c0.473-0.109,0.855-0.288,1.147-0.534L7.445,21.643z M8.329,21.992c-0.512,0.509-1.203,0.833-2.073,0.975l-0.114-0.205
		c0.836-0.125,1.493-0.418,1.97-0.879L8.329,21.992z M7.88,21.817c-0.458,0.394-0.998,0.656-1.622,0.788l-0.114-0.201
		c0.607-0.116,1.112-0.348,1.515-0.691L7.88,21.817z M8.165,20.46l-0.216,0.148c-0.038-0.048-0.074-0.085-0.106-0.114
		c-0.477,0.112-0.945,0.197-1.406,0.258l-0.043-0.198c0.188-0.108,0.364-0.257,0.527-0.448l0.303,0.038
		c-0.137,0.162-0.271,0.277-0.401,0.347c0.267-0.031,0.542-0.08,0.825-0.15c-0.044-0.049-0.097-0.089-0.158-0.117l0.225-0.159
		C7.879,20.17,8.029,20.301,8.165,20.46z"/>
	<path fill="#FFFFFF" d="M10.434,21.395l-0.395,0.036v0.142l0.354-0.032v0.205l-0.354,0.032v0.148l0.354-0.032v0.208l-0.354,0.032
		v0.171l0.379-0.034v0.228l-0.976,0.088v0.073l-0.262,0.024v-0.949c-0.043,0.051-0.088,0.098-0.135,0.139l-0.108-0.239
		c0.162-0.178,0.285-0.368,0.369-0.57l0.247,0.044c-0.016,0.047-0.039,0.098-0.066,0.151l0.256-0.022
		c-0.018-0.041-0.04-0.08-0.066-0.119l0.233-0.099c0.039,0.056,0.074,0.12,0.105,0.192l0.419-0.037V21.395z M9.624,20.395
		l-0.259,0.023v-0.119l-0.373,0.033v-0.216l0.373-0.034V19.91l0.259-0.023V20.395z M9.68,20.999l-0.628,0.058V20.52l0.628-0.058
		V20.999z M9.456,20.833v-0.154l-0.179,0.017v0.154L9.456,20.833z M9.784,21.596v-0.143l-0.341,0.031v0.142L9.784,21.596z
		 M9.784,21.949v-0.148l-0.341,0.03v0.148L9.784,21.949z M9.784,22.328v-0.172l-0.341,0.031v0.171L9.784,22.328z M10.425,20.932
		l-0.621,0.057v-0.537l0.621-0.057V20.932z M10.482,20.197l-0.358,0.032v0.119l-0.265,0.024v-0.508l0.265-0.024v0.173l0.358-0.032
		V20.197z M10.202,20.766v-0.154l-0.174,0.016v0.154L10.202,20.766z M11.763,21.874c-0.002,0.149-0.014,0.269-0.034,0.355
		c-0.021,0.088-0.05,0.146-0.089,0.177c-0.039,0.031-0.102,0.051-0.188,0.059c-0.113,0.01-0.191,0.002-0.235-0.024
		c-0.043-0.026-0.065-0.073-0.065-0.141v-0.695l-0.117,0.011c-0.012,0.419-0.138,0.74-0.377,0.965l-0.209-0.139
		c0.217-0.217,0.331-0.484,0.342-0.805l-0.212,0.02v-1.777l1.051-0.096v1.777l-0.227,0.021v0.59c0,0.031,0.017,0.046,0.05,0.043
		c0.038-0.004,0.061-0.033,0.071-0.092s0.015-0.156,0.015-0.295L11.763,21.874z M11.368,20.303v-0.242l-0.53,0.048v0.242
		L11.368,20.303z M11.368,20.816v-0.268l-0.53,0.048v0.269L11.368,20.816z M11.368,21.322v-0.266l-0.53,0.049v0.265L11.368,21.322z"
		/>
	<path fill="#FFFFFF" d="M14.922,20.368l-0.132,0.265c-0.081-0.01-0.173-0.026-0.274-0.053v1.186l-1.332,0.121l0.137,0.145
		c-0.298,0.164-0.648,0.297-1.052,0.399l-0.136-0.24c0.3-0.063,0.588-0.159,0.861-0.286l-0.464,0.042v-1.193l0.597-0.054
		l-0.121-0.164c0.369-0.127,0.645-0.315,0.826-0.566l0.286,0.037c-0.031,0.061-0.054,0.098-0.069,0.113
		C14.273,20.243,14.564,20.327,14.922,20.368z M13.076,20.447l-0.918,0.084v-0.26l0.918-0.083V20.447z M13.049,19.948l-0.85,0.077
		v-0.254l0.85-0.076V19.948z M14.232,20.934v-0.111l-1.408,0.127v0.111L14.232,20.934z M14.232,21.256v-0.117l-1.408,0.127v0.117
		L14.232,21.256z M14.232,21.584v-0.123l-1.408,0.127v0.123L14.232,21.584z M14.867,19.818c-0.098,0.148-0.189,0.275-0.275,0.379
		l-0.24-0.121c0.027-0.033,0.084-0.108,0.17-0.227l-0.994,0.09c-0.096,0.12-0.188,0.221-0.277,0.303l-0.215-0.164
		c0.164-0.133,0.321-0.326,0.471-0.578l0.26,0.064c-0.01,0.036-0.03,0.075-0.061,0.116l1.162-0.105V19.818z M14.484,20.576
		c-0.211-0.05-0.416-0.133-0.616-0.248c-0.132,0.131-0.302,0.248-0.513,0.35L14.484,20.576z M14.904,21.961l-0.151,0.258
		c-0.275-0.064-0.583-0.101-0.925-0.109l0.145-0.251C14.307,21.857,14.616,21.891,14.904,21.961z"/>
	<path fill="#FFFFFF" d="M16.328,19.801l-1.023,0.094v-0.254l0.404-0.037c-0.017-0.047-0.05-0.109-0.1-0.187l0.277-0.13
		c0.055,0.1,0.102,0.194,0.139,0.287l0.303-0.027V19.801z M16.26,20.276l-0.879,0.079v-0.252l0.879-0.08V20.276z M16.26,20.737
		l-0.879,0.079v-0.248l0.879-0.08V20.737z M16.262,21.967l-0.277,0.025v-0.141l-0.331,0.029v0.217l-0.272,0.025v-1.096l0.881-0.08
		V21.967z M15.984,21.592v-0.355l-0.331,0.029v0.355L15.984,21.592z M18.09,21.139c-0.014,0.164-0.043,0.317-0.085,0.457
		c-0.042,0.141-0.084,0.229-0.123,0.266c-0.04,0.038-0.085,0.061-0.137,0.064c-0.063,0.006-0.116-0.014-0.163-0.058
		c-0.045-0.044-0.089-0.181-0.131-0.411c-0.041-0.23-0.063-0.439-0.063-0.626v-1.316l-0.427,0.038v0.852l0.339-0.031v0.272
		l-0.339,0.03v1.307l-0.271,0.024v-1.306l-0.293,0.026v-0.272l0.293-0.026v-0.851l-0.256,0.023v-0.266l1.225-0.111v1.645
		c0,0.245,0.034,0.479,0.102,0.699c0.039-0.146,0.064-0.334,0.076-0.561L18.09,21.139z"/>
</g>
<g>
	<g>
		<g>
			<g>
				<path fill="#FFFFFF" d="M7.255,11.468c-0.104,0.322-0.208,0.634-0.305,0.932c-0.098,0.297-0.189,0.575-0.267,0.812
					c-0.079,0.239-0.144,0.431-0.189,0.568c-0.027,0.08-0.048,0.141-0.059,0.178v-0.131c0.013-0.041,0.031-0.102,0.055-0.184
					c0.045-0.152,0.109-0.372,0.187-0.63c0.077-0.258,0.167-0.56,0.264-0.884c0.097-0.321,0.201-0.669,0.304-1.008
					c0.207-0.682,0.414-1.363,0.569-1.875c0.14-0.46,0.239-0.782,0.256-0.836v0.547c-0.036,0.112-0.125,0.385-0.241,0.75
					C7.671,10.187,7.463,10.827,7.255,11.468z"/>
				<path fill="#FFFFFF" d="M7.254,12.347c-0.104,0.26-0.208,0.512-0.306,0.753c-0.098,0.239-0.188,0.462-0.267,0.654
					c-0.078,0.191-0.143,0.348-0.188,0.457c-0.027,0.064-0.046,0.113-0.059,0.142v-0.127c0.012-0.033,0.032-0.086,0.055-0.152
					c0.045-0.127,0.11-0.308,0.188-0.519c0.078-0.214,0.168-0.462,0.264-0.729c0.097-0.266,0.201-0.553,0.304-0.831
					c0.207-0.559,0.414-1.119,0.569-1.54c0.137-0.368,0.234-0.627,0.254-0.682v0.535c-0.036,0.09-0.124,0.313-0.243,0.612
					C7.669,11.31,7.461,11.828,7.254,12.347z"/>
				<path fill="#FFFFFF" d="M7.252,13.226c-0.104,0.2-0.208,0.39-0.306,0.573c-0.096,0.182-0.188,0.352-0.266,0.497
					c-0.079,0.147-0.143,0.264-0.189,0.349c-0.026,0.047-0.045,0.082-0.058,0.104v-0.125c0.013-0.026,0.031-0.067,0.055-0.122
					c0.045-0.098,0.11-0.242,0.188-0.408c0.078-0.166,0.168-0.361,0.264-0.57c0.097-0.209,0.201-0.435,0.304-0.652
					c0.207-0.438,0.414-0.877,0.569-1.206c0.134-0.28,0.23-0.478,0.253-0.527v0.525c-0.035,0.067-0.124,0.24-0.244,0.473
					C7.668,12.433,7.46,12.83,7.252,13.226z"/>
				<path fill="#FFFFFF" d="M7.252,14.104c-0.104,0.14-0.207,0.267-0.305,0.395c-0.098,0.124-0.188,0.239-0.266,0.34
					c-0.077,0.101-0.143,0.18-0.188,0.235c-0.027,0.033-0.046,0.059-0.058,0.073v-0.125c0.013-0.019,0.031-0.048,0.055-0.089
					c0.045-0.072,0.111-0.178,0.187-0.297c0.078-0.125,0.169-0.264,0.266-0.416c0.097-0.151,0.201-0.317,0.305-0.475
					c0.208-0.315,0.414-0.632,0.569-0.87c0.132-0.196,0.226-0.337,0.252-0.376v0.521c-0.033,0.045-0.124,0.165-0.246,0.331
					C7.667,13.557,7.459,13.83,7.252,14.104z"/>
				<path fill="#FFFFFF" d="M7.25,14.982c-0.104,0.078-0.207,0.146-0.305,0.214c-0.097,0.067-0.188,0.13-0.266,0.186
					c-0.078,0.054-0.143,0.095-0.188,0.124c-0.026,0.018-0.045,0.029-0.057,0.038v-0.125c0.013-0.011,0.031-0.03,0.057-0.056
					c0.044-0.045,0.109-0.113,0.187-0.189s0.168-0.164,0.266-0.259s0.201-0.2,0.304-0.296c0.207-0.191,0.415-0.387,0.569-0.533
					c0.13-0.117,0.223-0.203,0.251-0.227v0.52c-0.032,0.023-0.124,0.094-0.247,0.186C7.666,14.68,7.458,14.831,7.25,14.982z"/>
				<path fill="#FFFFFF" d="M6.492,15.793c0.045-0.016,0.109-0.049,0.187-0.076c0.078-0.031,0.169-0.066,0.266-0.104
					c0.097-0.036,0.201-0.079,0.304-0.116c0.208-0.071,0.415-0.143,0.569-0.199c0.127-0.039,0.22-0.066,0.25-0.078v0.545
					c-0.031,0.004-1.622,0.18-1.634,0.181v-0.125C6.446,15.814,6.466,15.805,6.492,15.793z"/>
			</g>
			<g>
				<path fill="#FFFFFF" d="M15.45,11.46c0.533,0.228,1.029,0.44,1.457,0.621c0.426,0.184,0.781,0.33,1.03,0.434
					c0.146,0.06,0.253,0.107,0.319,0.135v-0.13c-0.067-0.033-0.166-0.081-0.296-0.145c-0.247-0.121-0.598-0.293-1.021-0.497
					c-0.422-0.203-0.915-0.44-1.442-0.695c-0.11-0.052-0.224-0.105-0.337-0.16l-0.028,0.301C15.24,11.37,15.346,11.415,15.45,11.46z
					"/>
				<path fill="#FFFFFF" d="M15.455,12.16c0.533,0.168,1.029,0.328,1.454,0.463c0.426,0.136,0.782,0.246,1.029,0.323
					c0.145,0.044,0.252,0.08,0.318,0.1v-0.127c-0.067-0.024-0.168-0.064-0.298-0.113c-0.247-0.095-0.598-0.23-1.021-0.385
					c-0.423-0.158-0.917-0.342-1.445-0.54c-0.131-0.049-0.263-0.097-0.398-0.148l-0.028,0.303
					C15.197,12.076,15.327,12.118,15.455,12.16z"/>
				<path fill="#FFFFFF" d="M8.069,9.775v0.534c0.208,0.057,0.71,0.196,1.386,0.381l0.001-0.5C8.707,9.965,8.188,9.809,8.069,9.775z
					"/>
				<path fill="#FFFFFF" d="M8.069,11.138v0.525c0.201,0.036,0.703,0.127,1.382,0.251l0.001-0.493
					C8.719,11.271,8.204,11.166,8.069,11.138z"/>
				<path fill="#FFFFFF" d="M15.459,12.857c0.533,0.113,1.028,0.218,1.454,0.308c0.426,0.091,0.781,0.162,1.029,0.214
					c0.142,0.027,0.25,0.05,0.315,0.063v-0.125c-0.067-0.018-0.168-0.046-0.301-0.082c-0.246-0.064-0.599-0.164-1.021-0.274
					c-0.424-0.111-0.918-0.243-1.446-0.382c-0.15-0.04-0.307-0.08-0.464-0.123l-0.028,0.303
					C15.153,12.792,15.308,12.825,15.459,12.857z"/>
				<path fill="#FFFFFF" d="M8.069,12.5v0.521c0.193,0.016,0.695,0.06,1.379,0.12l0.001-0.488C8.729,12.573,8.217,12.517,8.069,12.5
					z"/>
				<path fill="#FFFFFF" d="M15.464,13.558c0.532,0.054,1.027,0.104,1.452,0.149c0.426,0.045,0.781,0.078,1.029,0.102
					c0.14,0.014,0.247,0.025,0.313,0.031v-0.125c-0.067-0.01-0.169-0.025-0.303-0.048c-0.247-0.041-0.6-0.1-1.023-0.164
					c-0.424-0.069-0.918-0.143-1.446-0.227c-0.174-0.026-0.351-0.055-0.53-0.083L14.927,13.5
					C15.108,13.519,15.288,13.538,15.464,13.558z"/>
				<path fill="#FFFFFF" d="M15.469,14.254C16,14.252,16.496,14.25,16.92,14.25c0.425,0,0.779-0.008,1.026-0.008
					c0.14-0.004,0.246-0.004,0.312-0.006v-0.123c-0.067-0.004-0.17-0.008-0.305-0.017c-0.247-0.014-0.601-0.035-1.024-0.055
					c-0.425-0.019-0.919-0.045-1.448-0.068c-0.194-0.01-0.395-0.021-0.597-0.032l-0.029,0.316
					C15.062,14.258,15.269,14.255,15.469,14.254z"/>
				<path fill="#FFFFFF" d="M8.069,13.859v0.52c0.186-0.001,0.687-0.004,1.375-0.008l0.001-0.488
					C8.736,13.871,8.23,13.862,8.069,13.859z"/>
				<path fill="#FFFFFF" d="M8.069,15.219v0.545c0.042-0.005,0.574-0.063,1.372-0.152l0.001-0.498
					C8.745,15.166,8.239,15.205,8.069,15.219z"/>
				<path fill="#FFFFFF" d="M18.257,14.638v-0.125c-0.066,0.003-0.17,0.007-0.308,0.015c-0.247,0.016-0.601,0.029-1.025,0.057
					c-0.424,0.025-0.919,0.055-1.449,0.086c-0.216,0.014-0.438,0.027-0.664,0.04l-0.029,0.312
					C16.624,14.818,18.229,14.641,18.257,14.638z"/>
			</g>
			<g>
				<g>
					<path fill="#FFFFFF" d="M9.679,9.467c0.082-0.035,0.183-0.074,0.298-0.118c0.076-0.028,0.16-0.058,0.248-0.088
						C10.032,9.183,9.846,9.109,9.671,9.04C8.79,8.693,8.174,8.451,8.069,8.408v0.547C8.297,9.039,8.846,9.242,9.58,9.513
						c0.003,0,0.006,0.002,0.01,0.003l-0.001-0.01C9.618,9.494,9.649,9.48,9.679,9.467z"/>
					<path fill="#FFFFFF" d="M15.09,9.619c-0.028-0.107-0.096-0.217-0.19-0.304c-0.096-0.089-0.217-0.156-0.353-0.211
						c-0.068-0.026-0.142-0.052-0.216-0.072C14.255,9.01,14.178,8.993,14.1,8.976c-0.16-0.035-0.33-0.062-0.507-0.085
						c-0.044-0.007-0.091-0.012-0.136-0.016s-0.092-0.01-0.138-0.013c-0.092-0.005-0.183-0.014-0.274-0.016
						c-0.188-0.008-0.379-0.008-0.57,0C12.283,8.852,12.09,8.865,11.9,8.888c-0.189,0.021-0.375,0.05-0.555,0.083
						c-0.36,0.068-0.695,0.156-0.981,0.245c-0.047,0.015-0.093,0.03-0.139,0.045c-0.088,0.03-0.172,0.061-0.248,0.088
						C9.861,9.393,9.761,9.432,9.679,9.467c-0.03,0.014-0.061,0.027-0.09,0.04l0,0.01l0.05,0.513
						c0.14-0.067,0.281-0.128,0.423-0.186c0.11-0.045,0.235-0.092,0.371-0.141c0.273-0.099,0.595-0.2,0.942-0.283
						c0.173-0.043,0.353-0.081,0.536-0.114c0.183-0.033,0.37-0.06,0.556-0.082c0.1-0.01,0.197-0.019,0.296-0.028
						c0.267-0.021,0.533-0.026,0.798-0.018c0.245,0.007,0.49,0.025,0.73,0.059c0.075,0.01,0.143,0.023,0.209,0.041
						c0.066,0.018,0.128,0.039,0.186,0.063c0.057,0.026,0.108,0.054,0.153,0.085c0.093,0.063,0.158,0.146,0.19,0.229
						c0.032,0.084,0.034,0.165,0.03,0.217c-0.003,0.027-0.008,0.047-0.011,0.061c-0.001,0.005-0.003,0.014-0.005,0.02
						c0,0.002,0.006,0.004,0.008,0.004c0.006,0.003,0.013,0.007,0.02,0.011c0,0,0.004-0.008,0.009-0.023
						c0.005-0.015,0.013-0.037,0.018-0.067C15.112,9.819,15.12,9.725,15.09,9.619z"/>
				</g>
				<path fill="#FFFFFF" d="M14.484,15.104c0,0,0.001-0.029,0.001-0.033c-0.116-0.005-0.232-0.01-0.348-0.015
					c-0.233-0.009-0.468-0.013-0.702-0.019c-0.262-0.006-0.523-0.01-0.783-0.013c-0.27-0.003-0.539-0.005-0.809-0.005
					c-0.266,0-0.532,0.003-0.798,0.011c-0.253,0.007-0.507,0.013-0.761,0.023c-0.053,0.002-0.104,0.004-0.156,0.006l0.049,0.52
					C10.186,15.578,14.478,15.104,14.484,15.104z"/>
				<path fill="#FFFFFF" d="M13.143,10.414c0.515,0.003,0.963,0.02,1.245,0.104c0.488,0.144,0.534,0.365,0.542,0.472l0.029,0
					c0,0,0.02-0.206-0.183-0.402c-0.196-0.192-0.529-0.328-1.146-0.419c-2.024-0.301-3.787,0.378-3.936,0.438l0.049,0.51
					C9.912,11.05,11.598,10.405,13.143,10.414z"/>
				<path fill="#FFFFFF" d="M12.868,11.666c0.489-0.015,0.93-0.019,1.271,0.043c0.447,0.082,0.594,0.205,0.673,0.315l0.028-0.009
					c0,0-0.014-0.104-0.226-0.264c-0.195-0.145-0.611-0.285-1.119-0.347c-0.635-0.076-1.217-0.09-1.76-0.048
					c-1.068,0.082-1.86,0.332-1.935,0.356l0.05,0.509C9.987,12.174,11.345,11.714,12.868,11.666z"/>
				<path fill="#FFFFFF" d="M13.125,12.884c1.208-0.047,1.575,0.176,1.575,0.176l0.021-0.032c0,0-0.268-0.227-1.002-0.353
					c-1.757-0.303-3.632,0.099-3.812,0.139l0.048,0.503C10.089,13.281,11.332,12.955,13.125,12.884z"/>
				<path fill="#FFFFFF" d="M13.011,14.107c1.189-0.068,1.579-0.021,1.579-0.021l0.01-0.037c0,0-0.641-0.211-2.297-0.248
					c-1.07-0.021-2.183,0.115-2.286,0.129l0.049,0.512C10.19,14.42,11.503,14.196,13.011,14.107z"/>
			</g>
		</g>
	</g>
</g>
</svg>
