<?xml version="1.0" encoding="utf-8"?>
<!-- Generator: Adobe Illustrator 16.0.3, SVG Export Plug-In . SVG Version: 6.00 Build 0)  -->
<!DOCTYPE svg PUBLIC "-//W3C//DTD SVG 1.1//EN" "http://www.w3.org/Graphics/SVG/1.1/DTD/svg11.dtd">
<svg version="1.1" id="圖層_1" xmlns="http://www.w3.org/2000/svg" xmlns:xlink="http://www.w3.org/1999/xlink" x="0px" y="0px"
	 width="24px" height="26.125px" viewBox="0 0 24 26.125" enable-background="new 0 0 24 26.125" xml:space="preserve">
<polygon fill="#6699B6" points="24,23.975 0,26.15 0,2.15 24,-0.025 "/>
<g>
	<path fill="#FFFFFF" d="M8.62,22.48l-0.108,0.284c-0.53-0.052-0.964-0.182-1.3-0.391c-0.35,0.267-0.785,0.467-1.304,0.601
		L5.81,22.699c0.452-0.094,0.847-0.26,1.184-0.495c-0.185-0.175-0.343-0.413-0.473-0.718l0.248-0.133
		c0.128,0.299,0.274,0.521,0.439,0.664c0.172-0.173,0.326-0.411,0.461-0.715l0.263,0.065c-0.139,0.324-0.311,0.594-0.516,0.81
		C7.752,22.364,8.153,22.466,8.62,22.48z M6.898,20.896c-0.229,0.363-0.514,0.68-0.858,0.948l-0.203-0.195
		c0.314-0.227,0.585-0.514,0.816-0.863L6.898,20.896z M8.569,20.293l-0.003,0.266l-2.677,0.243v-0.266l1.226-0.111
		c-0.032-0.088-0.075-0.17-0.129-0.244l0.292-0.114c0.069,0.113,0.117,0.225,0.145,0.33L8.569,20.293z M8.559,21.469l-0.212,0.193
		c-0.21-0.258-0.482-0.515-0.817-0.77l0.211-0.189C8.097,20.973,8.371,21.228,8.559,21.469z"/>
	<path fill="#FFFFFF" d="M11.753,22.13l-0.072,0.281c-0.182,0.021-0.353,0.038-0.511,0.053c-0.596,0.054-0.986,0.068-1.174,0.044
		c-0.188-0.023-0.351-0.097-0.489-0.219c-0.102,0.157-0.205,0.297-0.31,0.42l-0.221-0.151c0.281-0.306,0.456-0.621,0.524-0.945
		l-0.449,0.04v-0.271c0.175-0.224,0.309-0.409,0.401-0.556l-0.461,0.042v-0.27l0.798-0.072v0.27
		c-0.099,0.164-0.225,0.349-0.375,0.553l0.382-0.034v0.271c-0.037,0.16-0.091,0.313-0.165,0.458c0.076,0.08,0.175,0.139,0.297,0.178
		c0.123,0.037,0.276,0.051,0.461,0.039c0.186-0.012,0.379-0.026,0.582-0.045C11.266,22.188,11.527,22.159,11.753,22.13z
		 M9.755,20.262l-0.198,0.2c-0.166-0.151-0.329-0.271-0.49-0.358l0.187-0.214C9.463,20.01,9.63,20.134,9.755,20.262z M11.66,21.75
		c0,0.086-0.031,0.154-0.093,0.204c-0.062,0.048-0.186,0.078-0.371,0.086l-0.082-0.249c0.051-0.003,0.099-0.006,0.145-0.011
		c0.083-0.007,0.126-0.034,0.126-0.083v-0.135l-0.434,0.039v0.452l-0.271,0.024v-0.452l-0.433,0.039v0.458l-0.271,0.024v-1.618
		l0.619-0.056c-0.108-0.045-0.241-0.088-0.4-0.129l0.211-0.18c0.133,0.035,0.246,0.071,0.34,0.108c0.127-0.07,0.248-0.144,0.36-0.22
		L9.934,20.16v-0.256l1.66-0.15v0.256c-0.21,0.153-0.402,0.283-0.576,0.394l0.042,0.028l0.6-0.055V21.75z M10.681,20.936v-0.234
		l-0.433,0.039v0.234L10.681,20.936z M10.681,21.394v-0.229l-0.433,0.039v0.229L10.681,21.394z M11.386,20.871v-0.234l-0.434,0.04
		v0.234L11.386,20.871z M11.386,21.33v-0.229l-0.434,0.039v0.229L11.386,21.33z"/>
	<path fill="#FFFFFF" d="M14.923,20.367l-0.132,0.265c-0.082-0.009-0.174-0.025-0.274-0.053v1.187l-1.333,0.121l0.137,0.145
		c-0.298,0.164-0.648,0.297-1.052,0.399l-0.136-0.241c0.301-0.063,0.587-0.158,0.862-0.286l-0.464,0.042v-1.193l0.598-0.054
		l-0.121-0.163c0.368-0.127,0.644-0.316,0.825-0.566l0.286,0.037c-0.03,0.06-0.054,0.097-0.069,0.112
		C14.273,20.242,14.564,20.326,14.923,20.367z M13.076,20.447l-0.918,0.083v-0.259l0.918-0.083V20.447z M13.049,19.947L12.2,20.024
		v-0.253l0.849-0.077V19.947z M14.232,20.933v-0.111l-1.407,0.128v0.111L14.232,20.933z M14.232,21.255v-0.117l-1.407,0.128v0.117
		L14.232,21.255z M14.232,21.583V21.46l-1.407,0.128v0.123L14.232,21.583z M14.867,19.817c-0.097,0.148-0.189,0.275-0.276,0.379
		l-0.238-0.121c0.026-0.032,0.083-0.108,0.17-0.227l-0.994,0.091c-0.098,0.12-0.189,0.22-0.278,0.302l-0.214-0.164
		c0.163-0.133,0.32-0.325,0.471-0.578l0.259,0.064c-0.01,0.036-0.029,0.075-0.061,0.116l1.162-0.105V19.817z M14.485,20.575
		c-0.212-0.05-0.417-0.132-0.617-0.248c-0.131,0.131-0.302,0.248-0.513,0.351L14.485,20.575z M14.904,21.96l-0.15,0.258
		c-0.275-0.064-0.584-0.101-0.925-0.109l0.145-0.251C14.307,21.856,14.616,21.891,14.904,21.96z"/>
	<path fill="#FFFFFF" d="M16.328,19.801l-1.024,0.093V19.64l0.405-0.037c-0.017-0.046-0.051-0.108-0.101-0.186l0.277-0.131
		c0.056,0.1,0.102,0.194,0.138,0.288l0.305-0.027V19.801z M16.258,20.275l-0.878,0.08v-0.253l0.878-0.08V20.275z M16.258,20.736
		l-0.878,0.08v-0.249l0.878-0.08V20.736z M16.262,21.967l-0.277,0.025v-0.142l-0.332,0.03v0.217l-0.272,0.024v-1.095l0.882-0.08
		V21.967z M15.984,21.591v-0.355l-0.332,0.03v0.355L15.984,21.591z M18.09,21.138c-0.015,0.165-0.043,0.317-0.086,0.457
		c-0.043,0.141-0.084,0.229-0.123,0.267s-0.085,0.059-0.137,0.063c-0.063,0.006-0.116-0.014-0.162-0.058
		c-0.046-0.043-0.09-0.18-0.132-0.41c-0.041-0.231-0.062-0.44-0.062-0.627v-1.316l-0.428,0.039v0.851l0.34-0.031v0.272l-0.34,0.031
		v1.306l-0.271,0.024V20.7l-0.293,0.026v-0.272l0.293-0.026v-0.851l-0.256,0.023v-0.266l1.226-0.111v1.645
		c0,0.245,0.033,0.479,0.102,0.7c0.039-0.147,0.064-0.334,0.075-0.562L18.09,21.138z"/>
</g>
<path fill="#FFFFFF" d="M9.772,15.739c-0.074,0.45,0.168,1.063-0.55,1.138c-0.718,0.075-0.482-0.587-0.549-1.024
	c-0.187,0.01-0.369,0.02-0.587,0.03c-0.005-0.106-0.015-0.209-0.015-0.313c0-1.07-0.048-2.138,0.013-3.21
	c0.058-0.993,0.223-1.991,0.36-2.986c0.049-0.367,0.307-0.62,0.628-0.788c1.167-0.607,2.382-0.905,3.63-0.828
	c0.537,0.033,1.071,0.127,1.592,0.24c0.478,0.105,0.711,0.431,0.803,0.938c0.363,2.016,0.34,4.086,0.299,6.197
	c-0.092,0.014-0.185,0.03-0.279,0.041c-0.087,0.01-0.175,0.019-0.317,0.032c0,0.195,0.005,0.375,0,0.558
	c-0.011,0.346-0.202,0.568-0.518,0.609c-0.319,0.043-0.533-0.153-0.547-0.505c-0.007-0.175-0.001-0.349-0.001-0.537
	C12.397,15.47,11.095,15.603,9.772,15.739z M11.728,12.078c0.873-0.089,1.746-0.178,2.62-0.269c0.381-0.041,0.462-0.131,0.413-0.496
	c-0.082-0.614-0.17-1.226-0.264-1.836c-0.053-0.34-0.152-0.41-0.514-0.373C12.491,9.256,11,9.409,9.509,9.564
	c-0.371,0.039-0.47,0.138-0.521,0.503c-0.083,0.601-0.165,1.202-0.248,1.803c-0.062,0.447,0.001,0.515,0.457,0.468
	C10.041,12.252,10.884,12.165,11.728,12.078z M11.729,8.896c0.47-0.048,0.941-0.096,1.411-0.145c0.165-0.017,0.337-0.034,0.334-0.26
	c-0.004-0.207-0.162-0.192-0.318-0.176c-0.941,0.099-1.883,0.195-2.824,0.289c-0.161,0.016-0.317,0.049-0.32,0.244
	c-0.005,0.218,0.167,0.209,0.335,0.19C10.808,8.99,11.269,8.944,11.729,8.896z M9.248,13.6c-0.286,0.017-0.521,0.243-0.542,0.521
	c-0.021,0.285,0.208,0.508,0.501,0.488c0.279-0.018,0.511-0.257,0.521-0.537C9.74,13.788,9.533,13.584,9.248,13.6z M14.27,13.084
	c-0.29,0.03-0.508,0.262-0.513,0.544c-0.002,0.289,0.232,0.496,0.526,0.458c0.281-0.034,0.495-0.276,0.493-0.561
	C14.773,13.241,14.561,13.054,14.27,13.084z"/>
</svg>
