<?xml version="1.0" encoding="utf-8"?>
<!-- Generator: Adobe Illustrator 16.0.3, SVG Export Plug-In . SVG Version: 6.00 Build 0)  -->
<!DOCTYPE svg PUBLIC "-//W3C//DTD SVG 1.1//EN" "http://www.w3.org/Graphics/SVG/1.1/DTD/svg11.dtd">
<svg version="1.1" id="圖層_1" xmlns="http://www.w3.org/2000/svg" xmlns:xlink="http://www.w3.org/1999/xlink" x="0px" y="0px"
	 width="24px" height="26.125px" viewBox="0 0 24 26.125" enable-background="new 0 0 24 26.125" xml:space="preserve">
<polygon fill="#4D7E9F" points="24,26.111 0,24.014 0,0.013 24,2.112 "/>
<g enable-background="new    ">
	<path fill="#FFFFFF" d="M8.572,19.894c-0.039,0.207-0.105,0.401-0.198,0.581l-0.262-0.116c0.051-0.104,0.087-0.188,0.108-0.256
		l-1.03-0.09v0.165l0.826,0.04l0.014,0.219l-0.84-0.038v0.072c0,0.047,0.024,0.071,0.072,0.076l1.006,0.088v0.225L7.22,20.768
		c-0.204-0.018-0.305-0.121-0.305-0.309v-0.078l-0.458-0.021l-0.006-0.221l0.464,0.024v-0.175l-0.584-0.051v0.865
		c0,0.456-0.096,0.833-0.285,1.131l-0.221-0.209c0.152-0.257,0.228-0.563,0.228-0.918v-1.134l0.935,0.082v-0.517l0.277,0.024v0.136
		l1.112,0.098v0.235l-1.112-0.098v0.146L8.572,19.894z M8.587,22.077l-2.28-0.199v-0.24l0.774,0.067v-0.184l-0.521-0.045v-0.582
		l0.262,0.023v0.363l0.259,0.023v-0.439l0.259,0.022v0.841l0.217,0.019v-0.841l0.27,0.023v0.439l0.248,0.022v-0.364l0.256,0.023
		v0.58l-0.504-0.044v0.184l0.76,0.066V22.077z"/>
	<path fill="#FFFFFF" d="M9.744,20.252l-0.219-0.02v0.361c0.067-0.041,0.128-0.085,0.18-0.129l0.019,0.323
		c-0.046,0.035-0.113,0.077-0.199,0.127v1.079c0,0.057-0.025,0.108-0.074,0.154c-0.049,0.047-0.177,0.056-0.384,0.026L8.995,21.9
		c0.116,0.014,0.19,0.02,0.223,0.02c0.032,0.001,0.049-0.012,0.049-0.036v-0.798c-0.08,0.053-0.152,0.094-0.218,0.119l-0.082-0.27
		c0.132-0.064,0.232-0.121,0.299-0.166v-0.56l-0.284-0.024V19.92l0.284,0.025v-0.504l0.259,0.022v0.504l0.219,0.019V20.252z
		 M10.636,21.414l-0.296-0.026c-0.005,0.03-0.01,0.052-0.015,0.062c0.083,0.071,0.171,0.163,0.265,0.275l-0.159,0.217
		c-0.043-0.063-0.104-0.139-0.184-0.228c-0.086,0.202-0.238,0.384-0.455,0.548l-0.188-0.2c0.29-0.204,0.448-0.437,0.473-0.696
		L9.683,21.33v-0.25l0.414,0.037c0.01-0.084,0.015-0.166,0.015-0.249l-0.084-0.008c-0.057,0.097-0.103,0.167-0.139,0.21
		l-0.206-0.138c0.115-0.138,0.199-0.305,0.253-0.503l0.221,0.102c-0.008,0.041-0.018,0.071-0.028,0.089l0.467,0.04v0.25l-0.225-0.02
		c-0.004,0.111-0.009,0.193-0.016,0.248l0.281,0.025V21.414z M10.648,20.461l-0.586-0.052c-0.065-0.006-0.12-0.034-0.163-0.086
		c-0.043-0.052-0.065-0.114-0.065-0.19V19.49l0.256,0.023v0.178l0.537,0.047v0.25l-0.537-0.047v0.136
		c0,0.021,0.008,0.041,0.023,0.06c0.016,0.018,0.032,0.027,0.05,0.028l0.485,0.042V20.461z M11.777,22.109L11.7,22.374
		c-0.417-0.019-0.708-0.151-0.875-0.398c-0.063,0.157-0.131,0.276-0.205,0.358l-0.202-0.145c0.2-0.253,0.311-0.614,0.331-1.082
		l0.231,0.045c-0.005,0.185-0.029,0.363-0.07,0.538c0.042,0.09,0.09,0.161,0.143,0.214v-1.127l-0.342-0.029v-0.262l0.415,0.035
		c-0.097-0.144-0.214-0.279-0.351-0.409l0.195-0.145c0.078,0.073,0.149,0.149,0.216,0.228c0.071-0.082,0.129-0.168,0.175-0.256
		l-0.609-0.054v-0.258l0.916,0.081v0.25c-0.092,0.158-0.198,0.308-0.316,0.451c0.007,0.006,0.039,0.053,0.096,0.141l0.292,0.025
		c-0.039,0.221-0.079,0.392-0.12,0.514l-0.23-0.084c0.02-0.055,0.039-0.119,0.058-0.193l-0.141-0.012v0.449l0.367,0.033v0.256
		l-0.367-0.033v0.545c0.092,0.023,0.2,0.04,0.322,0.051C11.68,22.105,11.728,22.108,11.777,22.109z"/>
	<path fill="#FFFFFF" d="M14.908,20.862l-0.475-0.042l-0.03,0.307l-1.828-0.16L12.6,20.66l-0.452-0.039v-0.187l0.463,0.04
		l0.033-0.28l1.825,0.159l-0.023,0.281l0.462,0.041V20.862z M14.545,22.247l-1.392-0.122l0.139,0.172
		c-0.286,0.109-0.627,0.168-1.023,0.178l-0.111-0.25c0.364,0.004,0.662-0.033,0.892-0.108l-0.531-0.046v-0.998l2.027,0.178V22.247z
		 M14.828,20.546l-0.277-0.024v-0.274l-2.054-0.18v0.274l-0.276-0.024v-0.479l1.117,0.098l-0.063-0.144l0.297-0.013
		c0.025,0.059,0.049,0.12,0.069,0.184l1.187,0.104V20.546z M14.271,21.51v-0.101l-1.477-0.129v0.101L14.271,21.51z M14.271,21.779
		v-0.107l-1.477-0.129v0.107L14.271,21.779z M14.271,22.047v-0.107l-1.477-0.129v0.107L14.271,22.047z M13.383,20.729l-0.516-0.045
		l-0.012,0.129l0.512,0.045L13.383,20.729z M13.415,20.44l-0.521-0.046l-0.014,0.104l0.521,0.046L13.415,20.44z M14.162,20.797
		l-0.508-0.045l-0.016,0.129l0.508,0.045L14.162,20.797z M14.188,20.508l-0.508-0.045l-0.01,0.104l0.508,0.044L14.188,20.508z
		 M14.898,22.486l-0.092,0.223c-0.341-0.115-0.674-0.199-1.002-0.252l0.084-0.217C14.273,22.307,14.61,22.389,14.898,22.486z"/>
	<path fill="#FFFFFF" d="M16.181,22.209c-0.257,0.117-0.528,0.223-0.815,0.318l-0.078-0.275c0.137-0.042,0.236-0.077,0.3-0.104
		v-1.106l-0.259-0.022v-0.27l0.259,0.022V19.98l0.274,0.023v0.793l0.227,0.02v0.27l-0.227-0.02v0.977
		c0.097-0.039,0.192-0.08,0.287-0.123L16.181,22.209z M18.088,22.467c-0.014,0.148-0.035,0.255-0.064,0.319
		c-0.028,0.063-0.066,0.105-0.113,0.124s-0.155,0.02-0.324,0.006c-0.125-0.012-0.219-0.035-0.277-0.072
		c-0.059-0.035-0.088-0.095-0.088-0.176v-0.545l-0.302-0.027c-0.013,0.221-0.081,0.391-0.202,0.508
		c-0.123,0.117-0.326,0.189-0.613,0.219l-0.136-0.261c0.237-0.009,0.407-0.052,0.507-0.128c0.102-0.076,0.158-0.196,0.174-0.361
		l-0.361-0.031V21.08l1.635,0.143v0.961l-0.428-0.037v0.432c0,0.053,0.027,0.082,0.085,0.088c0.104,0.008,0.168-0.001,0.194-0.029
		c0.025-0.027,0.043-0.122,0.053-0.281L18.088,22.467z M18.033,21.098l-1.855-0.162v-0.232l0.438,0.037
		c-0.037-0.093-0.073-0.172-0.109-0.237l-0.222-0.02v-0.247l0.666,0.059c-0.014-0.047-0.036-0.104-0.067-0.172l0.301-0.027
		c0.025,0.041,0.051,0.116,0.079,0.227l0.663,0.059v0.246l-0.221-0.02c-0.027,0.07-0.063,0.143-0.107,0.219l0.436,0.039V21.098z
		 M17.642,21.572v-0.133l-1.069-0.094v0.133L17.642,21.572z M17.642,21.918v-0.139l-1.069-0.094v0.139L17.642,21.918z M17.383,20.58
		l-0.559-0.05c0.036,0.063,0.072,0.143,0.107,0.238l0.338,0.029C17.317,20.727,17.355,20.654,17.383,20.58z"/>
</g>
<g>
	<path fill="#FFFFFF" d="M13.979,13.825c-0.863,0.479-1.706,0.951-2.575,1.436c0-0.111,0-0.2,0-0.287
		c0-0.164-0.003-0.328,0.002-0.49c0.002-0.084-0.021-0.116-0.112-0.132c-0.9-0.152-1.775-0.409-2.596-0.864
		c-0.474-0.262-0.91-0.575-1.252-1.009c-0.289-0.367-0.457-0.768-0.42-1.225c0.03-0.384,0.205-0.694,0.456-0.959
		c0.329-0.347,0.738-0.582,1.184-0.76C8.68,9.528,8.699,9.529,8.729,9.524c0,0.24,0.002,0.471-0.002,0.701
		c0,0.032-0.032,0.063-0.057,0.089c-0.391,0.398-0.384,0.844,0.027,1.289c0.279,0.301,0.626,0.499,0.99,0.667
		c0.502,0.229,1.027,0.37,1.558,0.473c0.046,0.009,0.091,0.007,0.152,0.013c0-0.253,0-0.504,0-0.787
		C12.268,12.594,13.112,13.201,13.979,13.825z"/>
	<path fill="#FFFFFF" d="M15.278,9.894c0.459,0.22,0.869,0.471,1.23,0.8c0.352,0.32,0.634,0.683,0.741,1.149
		c0.097,0.413,0.017,0.785-0.193,1.12c-0.218,0.351-0.529,0.603-0.886,0.8c-0.172,0.097-0.354,0.177-0.535,0.258
		c-0.033,0.015-0.093,0.017-0.122-0.005c-0.531-0.38-1.062-0.762-1.591-1.145c-0.011-0.008-0.02-0.022-0.028-0.033
		c0.26-0.064,0.517-0.118,0.769-0.189c0.333-0.096,0.644-0.238,0.909-0.458c0.163-0.136,0.29-0.298,0.342-0.513
		c0.068-0.287-0.038-0.543-0.229-0.769c-0.1-0.117-0.224-0.211-0.331-0.321c-0.035-0.036-0.069-0.095-0.071-0.141
		C15.273,10.271,15.278,10.093,15.278,9.894z"/>
	<path fill="#FFFFFF" d="M14.856,9.805c-0.015,0.259-0.05,0.506-0.157,0.734c-0.142,0.303-0.386,0.446-0.731,0.426
		c-0.352-0.022-0.601-0.206-0.749-0.532c-0.125-0.277-0.162-0.566-0.14-0.854c0.015-0.178,0.046-0.358,0.103-0.523
		c0.131-0.379,0.428-0.566,0.799-0.531c0.379,0.037,0.669,0.291,0.779,0.706C14.809,9.417,14.825,9.613,14.856,9.805z M14.311,9.787
		c-0.006-0.002-0.013-0.003-0.018-0.004c-0.007-0.111,0-0.223-0.023-0.331c-0.027-0.133-0.061-0.273-0.126-0.394
		c-0.092-0.17-0.281-0.18-0.392-0.035c-0.027,0.034-0.05,0.073-0.063,0.115c-0.122,0.384-0.127,0.78-0.002,1.185
		c0.048,0.154,0.153,0.241,0.269,0.245c0.143,0.002,0.221-0.089,0.25-0.209C14.251,10.17,14.276,9.977,14.311,9.787z"/>
	<path fill="#FFFFFF" d="M11.655,9.347c0.207-0.141,0.433-0.168,0.672-0.09c0.4,0.133,0.564,0.48,0.536,0.824
		c-0.044,0.493-0.389,0.774-0.863,0.737c-0.502-0.04-0.855-0.385-0.919-0.885c-0.03-0.233-0.015-0.457,0.051-0.671
		c0.157-0.511,0.525-0.767,1.052-0.817c0.108-0.011,0.22-0.003,0.328-0.004c0.069-0.001,0.092,0.032,0.093,0.1
		c0.013,0.281,0.014,0.276-0.265,0.295c-0.308,0.021-0.57,0.118-0.685,0.429c-0.005,0.014-0.009,0.028-0.012,0.043
		C11.643,9.315,11.648,9.323,11.655,9.347z M11.977,9.575c-0.157-0.013-0.3,0.067-0.35,0.196c-0.06,0.158,0.012,0.431,0.145,0.554
		c0.175,0.16,0.442,0.123,0.511-0.089c0.036-0.113,0.039-0.25,0.019-0.375C12.276,9.695,12.137,9.589,11.977,9.575z"/>
	<path fill="#FFFFFF" d="M10.373,9.428c0.166,0.053,0.304,0.139,0.4,0.283c0.178,0.271,0.111,0.628-0.156,0.807
		c-0.266,0.179-0.574,0.184-0.889,0.125c-0.142-0.027-0.278-0.088-0.417-0.136c-0.068-0.024-0.085-0.069-0.064-0.136
		c0.032-0.102,0.057-0.207,0.084-0.305c0.168,0.054,0.33,0.119,0.495,0.154c0.097,0.021,0.204,0.005,0.299-0.018
		c0.116-0.027,0.185-0.115,0.193-0.241c0.007-0.13-0.044-0.248-0.163-0.3c-0.132-0.058-0.276-0.091-0.418-0.115
		C9.648,9.53,9.621,9.506,9.621,9.417C9.622,9.168,9.618,9.17,9.873,9.172c0.071,0.001,0.144-0.009,0.208-0.029
		c0.125-0.039,0.175-0.125,0.162-0.244c-0.011-0.103-0.091-0.206-0.211-0.222C9.891,8.659,9.748,8.667,9.606,8.674
		c-0.069,0.004-0.134,0.037-0.213,0.06C9.356,8.61,9.322,8.489,9.284,8.362c0.163-0.091,0.344-0.113,0.528-0.12
		c0.216-0.009,0.432,0.014,0.635,0.126c0.209,0.115,0.335,0.282,0.337,0.522c0.002,0.244-0.115,0.399-0.334,0.479
		c-0.02,0.008-0.041,0.015-0.06,0.026C10.384,9.398,10.382,9.407,10.373,9.428z"/>
	<path fill="#FFFFFF" d="M15.623,9.621c-0.312-0.023-0.537-0.249-0.544-0.546c-0.006-0.294,0.238-0.52,0.542-0.498
		c0.314,0.022,0.546,0.263,0.545,0.57C16.165,9.445,15.937,9.644,15.623,9.621z M15.895,9.136c0-0.175-0.111-0.303-0.273-0.318
		c-0.158-0.014-0.265,0.095-0.265,0.27c0.001,0.17,0.117,0.3,0.28,0.313C15.79,9.412,15.896,9.304,15.895,9.136z"/>
</g>
</svg>
