<?xml version="1.0" encoding="utf-8"?>
<!-- Generator: Adobe Illustrator 16.0.3, SVG Export Plug-In . SVG Version: 6.00 Build 0)  -->
<!DOCTYPE svg PUBLIC "-//W3C//DTD SVG 1.1//EN" "http://www.w3.org/Graphics/SVG/1.1/DTD/svg11.dtd">
<svg version="1.1" id="分離模式" xmlns="http://www.w3.org/2000/svg" xmlns:xlink="http://www.w3.org/1999/xlink" x="0px"
	 y="0px" width="396px" height="288px" viewBox="0 0 396 288" enable-background="new 0 0 396 288" xml:space="preserve">
<g opacity="0.6">
	<defs>
		<rect id="SVGID_1_" opacity="0.6" width="396" height="288"/>
	</defs>
	<clipPath id="SVGID_2_">
		<use xlink:href="#SVGID_1_"  overflow="visible"/>
	</clipPath>
	<g opacity="0.8" clip-path="url(#SVGID_2_)">
		<g>
			<g>
				<g>
					<line fill="#7AC2F7" x1="62.179" y1="132.153" x2="65.88" y2="157.965"/>
					
						<rect x="50.992" y="144.948" transform="matrix(0.1419 0.9899 -0.9899 0.1419 198.5327 61.0906)" fill="#7AC2F7" width="26.075" height="0.222"/>
				</g>
				<g>
					<line fill="#7AC2F7" x1="62.179" y1="132.153" x2="65.88" y2="157.965"/>
					
						<rect x="50.992" y="144.948" transform="matrix(0.1419 0.9899 -0.9899 0.1419 198.5327 61.0906)" fill="#7AC2F7" width="26.075" height="0.222"/>
				</g>
			</g>
			<g>
				<g>
					<line fill="#7AC2F7" x1="70.002" y1="215.94" x2="62.179" y2="132.153"/>
					
						<rect x="24.015" y="173.835" transform="matrix(0.0929 0.9957 -0.9957 0.0929 233.2417 92.0667)" fill="#7AC2F7" width="84.152" height="0.424"/>
				</g>
				<g>
					<line fill="#7AC2F7" x1="70.002" y1="215.94" x2="65.88" y2="157.965"/>
					
						<rect x="38.882" y="186.785" transform="matrix(0.0709 0.9975 -0.9975 0.0709 249.6042 105.9205)" fill="#7AC2F7" width="58.121" height="0.335"/>
				</g>
				<g>
					<line fill="#7AC2F7" x1="70.002" y1="215.94" x2="65.88" y2="157.965"/>
					
						<rect x="38.882" y="186.785" transform="matrix(0.0709 0.9975 -0.9975 0.0709 249.6042 105.9205)" fill="#7AC2F7" width="58.121" height="0.335"/>
				</g>
			</g>
			<g>
				<g>
					<line fill="#7AC2F7" x1="147.324" y1="163.839" x2="65.88" y2="157.965"/>
					
						<rect x="65.774" y="160.695" transform="matrix(0.9974 0.072 -0.072 0.9974 11.8533 -7.2529)" fill="#7AC2F7" width="81.654" height="0.415"/>
				</g>
				<g>
					<line fill="#7AC2F7" x1="147.324" y1="163.839" x2="65.88" y2="157.965"/>
					
						<rect x="65.774" y="160.695" transform="matrix(0.9974 0.072 -0.072 0.9974 11.8533 -7.2529)" fill="#7AC2F7" width="81.654" height="0.415"/>
				</g>
			</g>
			<g>
				<g>
					<line fill="#7AC2F7" x1="168.04" y1="140.232" x2="147.324" y2="163.839"/>
					
						<rect x="157.562" y="136.332" transform="matrix(0.7535 0.6575 -0.6575 0.7535 138.8367 -66.192)" fill="#7AC2F7" width="0.239" height="31.408"/>
				</g>
			</g>
			<g>
				<g>
					<line fill="#7AC2F7" x1="137.79" y1="109.93" x2="168.04" y2="140.232"/>
					
						<rect x="131.505" y="124.941" transform="matrix(0.7065 0.7077 -0.7077 0.7065 133.3994 -71.5073)" fill="#7AC2F7" width="42.816" height="0.28"/>
				</g>
				<g>
					<line fill="#7AC2F7" x1="137.79" y1="109.93" x2="147.324" y2="163.839"/>
					
						<rect x="115.184" y="136.723" transform="matrix(0.1742 0.9847 -0.9847 0.1742 252.5201 -27.335)" fill="#7AC2F7" width="54.746" height="0.322"/>
				</g>
				<g>
					<line fill="#7AC2F7" x1="137.79" y1="109.93" x2="62.179" y2="132.153"/>
					
						<rect x="99.781" y="81.639" transform="matrix(0.2811 0.9597 -0.9597 0.2811 188.0453 -8.9319)" fill="#7AC2F7" width="0.407" height="78.806"/>
				</g>
				<g>
					<line fill="#7AC2F7" x1="137.79" y1="109.93" x2="65.88" y2="157.965"/>
					
						<rect x="101.618" y="90.71" transform="matrix(0.5581 0.8298 -0.8298 0.5581 156.1511 -25.3069)" fill="#7AC2F7" width="0.433" height="86.475"/>
				</g>
				<g>
					<line fill="#7AC2F7" x1="137.79" y1="109.93" x2="65.88" y2="157.965"/>
					
						<rect x="101.618" y="90.71" transform="matrix(0.5581 0.8298 -0.8298 0.5581 156.1511 -25.3069)" fill="#7AC2F7" width="0.433" height="86.475"/>
				</g>
			</g>
			<g>
				<g>
					<line fill="#7AC2F7" x1="47.1" y1="120.575" x2="62.179" y2="132.153"/>
					
						<rect x="45.136" y="126.267" transform="matrix(0.7932 0.609 -0.609 0.7932 88.2585 -7.1401)" fill="#7AC2F7" width="19.011" height="0.196"/>
				</g>
				<g>
					<line fill="#7AC2F7" x1="47.1" y1="120.575" x2="65.88" y2="157.965"/>
					
						<rect x="35.571" y="139.131" transform="matrix(0.4489 0.8936 -0.8936 0.4489 155.5835 26.274)" fill="#7AC2F7" width="41.841" height="0.279"/>
				</g>
				<g>
					<line fill="#7AC2F7" x1="47.1" y1="120.575" x2="65.88" y2="157.965"/>
					
						<rect x="35.571" y="139.131" transform="matrix(0.4489 0.8936 -0.8936 0.4489 155.5835 26.274)" fill="#7AC2F7" width="41.841" height="0.279"/>
				</g>
			</g>
			<g>
				<g>
					<line fill="#7AC2F7" x1="-92.26" y1="171.385" x2="-148.828" y2="154.463"/>
					
						<rect x="-150.066" y="162.755" transform="matrix(0.9581 0.2866 -0.2866 0.9581 41.6365 41.382)" fill="#7AC2F7" width="59.044" height="0.337"/>
				</g>
			</g>
			<g>
				<g>
					<line fill="#7AC2F7" x1="41.391" y1="182.464" x2="47.1" y2="120.575"/>
					
						<rect x="44.071" y="120.444" transform="matrix(0.9954 0.0955 -0.0955 0.9954 14.6679 -3.5321)" fill="#7AC2F7" width="0.348" height="62.15"/>
				</g>
				<g>
					<line fill="#7AC2F7" x1="41.391" y1="182.464" x2="70.002" y2="215.94"/>
					
						<rect x="33.679" y="199.059" transform="matrix(0.6497 0.7602 -0.7602 0.6497 170.939 27.4374)" fill="#7AC2F7" width="44.038" height="0.284"/>
				</g>
				<g>
					<line fill="#7AC2F7" x1="41.391" y1="182.464" x2="62.179" y2="132.153"/>
					
						<rect x="51.626" y="130.09" transform="matrix(0.9229 0.385 -0.385 0.9229 64.5643 -7.8111)" fill="#7AC2F7" width="0.32" height="54.435"/>
				</g>
				<g>
					<line fill="#7AC2F7" x1="41.391" y1="182.464" x2="65.88" y2="157.965"/>
					
						<rect x="53.511" y="152.893" transform="matrix(0.71 0.7042 -0.7042 0.71 135.4149 11.5888)" fill="#7AC2F7" width="0.251" height="34.641"/>
				</g>
				<g>
					<line fill="#7AC2F7" x1="41.391" y1="182.464" x2="65.88" y2="157.965"/>
					
						<rect x="53.511" y="152.893" transform="matrix(0.71 0.7042 -0.7042 0.71 135.4149 11.5888)" fill="#7AC2F7" width="0.251" height="34.641"/>
				</g>
			</g>
			<g>
				<g>
					<line fill="#7AC2F7" x1="41.391" y1="182.464" x2="47.1" y2="120.575"/>
					
						<rect x="44.071" y="120.444" transform="matrix(0.9954 0.0955 -0.0955 0.9954 14.6679 -3.5321)" fill="#7AC2F7" width="0.348" height="62.15"/>
				</g>
				<g>
					<line fill="#7AC2F7" x1="41.391" y1="182.464" x2="70.002" y2="215.94"/>
					
						<rect x="33.679" y="199.059" transform="matrix(0.6497 0.7602 -0.7602 0.6497 170.939 27.4374)" fill="#7AC2F7" width="44.038" height="0.284"/>
				</g>
				<g>
					<line fill="#7AC2F7" x1="41.391" y1="182.464" x2="62.179" y2="132.153"/>
					
						<rect x="51.626" y="130.09" transform="matrix(0.9229 0.385 -0.385 0.9229 64.5643 -7.8111)" fill="#7AC2F7" width="0.32" height="54.435"/>
				</g>
				<g>
					<line fill="#7AC2F7" x1="41.391" y1="182.464" x2="65.88" y2="157.965"/>
					
						<rect x="53.511" y="152.893" transform="matrix(0.71 0.7042 -0.7042 0.71 135.4149 11.5888)" fill="#7AC2F7" width="0.251" height="34.641"/>
				</g>
				<g>
					<line fill="#7AC2F7" x1="41.391" y1="182.464" x2="65.88" y2="157.965"/>
					
						<rect x="53.511" y="152.893" transform="matrix(0.71 0.7042 -0.7042 0.71 135.4149 11.5888)" fill="#7AC2F7" width="0.251" height="34.641"/>
				</g>
			</g>
			<g>
				<g>
					<line fill="#7AC2F7" x1="-47.689" y1="171.223" x2="-92.26" y2="171.385"/>
					<rect x="-92.26" y="171.161" fill="#7AC2F7" width="44.571" height="0.285"/>
				</g>
			</g>
			<g>
				<g>
					<line fill="#7AC2F7" x1="147.251" y1="190.542" x2="137.79" y2="109.93"/>
					
						<rect x="101.937" y="150.029" transform="matrix(0.1166 0.9932 -0.9932 0.1166 275.1134 -8.8298)" fill="#7AC2F7" width="81.166" height="0.415"/>
				</g>
				<g>
					<line fill="#7AC2F7" x1="147.251" y1="190.542" x2="168.04" y2="140.232"/>
					
						<rect x="157.485" y="138.168" transform="matrix(0.9251 0.3798 -0.3798 0.9251 74.6162 -47.4771)" fill="#7AC2F7" width="0.321" height="54.436"/>
				</g>
				<g>
					<line fill="#7AC2F7" x1="147.251" y1="190.542" x2="147.324" y2="163.839"/>
					<rect x="147.176" y="163.839" fill="#7AC2F7" width="0.224" height="26.703"/>
				</g>
				<g>
					<line fill="#7AC2F7" x1="147.251" y1="190.542" x2="70.002" y2="215.94"/>
					
						<rect x="108.42" y="162.582" transform="matrix(0.3123 0.95 -0.95 0.3123 267.7723 36.5692)" fill="#7AC2F7" width="0.414" height="81.319"/>
				</g>
			</g>
			<g>
				<g>
					<line fill="#7AC2F7" x1="87.443" y1="70.431" x2="47.1" y2="120.575"/>
					
						<rect x="67.095" y="63.323" transform="matrix(0.7797 0.6262 -0.6262 0.7797 74.6267 -21.0834)" fill="#7AC2F7" width="0.356" height="64.36"/>
				</g>
				<g>
					<line fill="#7AC2F7" x1="87.443" y1="70.431" x2="137.79" y2="109.93"/>
					
						<rect x="80.622" y="90.003" transform="matrix(0.7867 0.6173 -0.6173 0.7867 79.6823 -50.2842)" fill="#7AC2F7" width="63.99" height="0.354"/>
				</g>
				<g>
					<line fill="#7AC2F7" x1="87.443" y1="70.431" x2="62.179" y2="132.153"/>
					
						<rect x="74.629" y="67.946" transform="matrix(0.925 0.3799 -0.3799 0.925 44.0949 -20.828)" fill="#7AC2F7" width="0.364" height="66.693"/>
				</g>
			</g>
			<g>
				<g>
					<line fill="#7AC2F7" x1="404.767" y1="107.074" x2="375.406" y2="80.545"/>
					
						<rect x="370.302" y="93.676" transform="matrix(0.742 0.6704 -0.6704 0.742 163.5427 -237.3181)" fill="#7AC2F7" width="39.57" height="0.269"/>
				</g>
			</g>
			<g>
				<g>
					<line fill="#7AC2F7" x1="231.144" y1="174.729" x2="296.982" y2="144.854"/>
					
						<rect x="263.872" y="123.643" transform="matrix(0.4132 0.9106 -0.9106 0.4132 300.4561 -146.7017)" fill="#7AC2F7" width="0.383" height="72.298"/>
				</g>
				<g>
					<line fill="#7AC2F7" x1="231.144" y1="174.729" x2="147.251" y2="190.542"/>
					
						<rect x="188.984" y="139.951" transform="matrix(0.1876 0.9822 -0.9822 0.1876 333.102 -37.4635)" fill="#7AC2F7" width="0.429" height="85.37"/>
				</g>
				<g>
					<line fill="#7AC2F7" x1="231.144" y1="174.729" x2="168.04" y2="140.232"/>
					
						<rect x="163.634" y="157.289" transform="matrix(0.8774 0.4797 -0.4797 0.8774 100.0006 -76.44)" fill="#7AC2F7" width="71.917" height="0.382"/>
				</g>
				<g>
					<line fill="#7AC2F7" x1="231.144" y1="174.729" x2="147.324" y2="163.839"/>
					
						<rect x="146.971" y="169.071" transform="matrix(0.9917 0.1288 -0.1288 0.9917 23.3863 -22.9687)" fill="#7AC2F7" width="84.526" height="0.427"/>
				</g>
			</g>
			<g>
				<g>
					<line fill="#7AC2F7" x1="264.424" y1="82.835" x2="264.895" y2="54.447"/>
					<rect x="264.544" y="54.444" fill="#7AC2F7" width="0.229" height="28.394"/>
				</g>
				<g>
					<line fill="#7AC2F7" x1="264.424" y1="82.835" x2="296.982" y2="144.854"/>
					
						<rect x="245.681" y="113.658" transform="matrix(0.4648 0.8854 -0.8854 0.4648 251.0245 -187.6082)" fill="#7AC2F7" width="70.045" height="0.375"/>
				</g>
			</g>
			<g>
				<g>
					<line fill="#7AC2F7" x1="437.058" y1="132.513" x2="404.767" y2="107.074"/>
					
						<rect x="400.359" y="119.655" transform="matrix(0.7855 0.6188 -0.6188 0.7855 164.4044 -234.7789)" fill="#7AC2F7" width="41.106" height="0.275"/>
				</g>
				<g>
					<line fill="#7AC2F7" x1="437.058" y1="132.513" x2="375.406" y2="80.545"/>
					
						<rect x="365.915" y="106.323" transform="matrix(0.7646 0.6445 -0.6445 0.7646 164.2833 -236.7397)" fill="#7AC2F7" width="80.632" height="0.412"/>
				</g>
			</g>
			<g>
				<g>
					<line fill="#7AC2F7" x1="240.369" y1="124.359" x2="264.424" y2="82.835"/>
					
						<rect x="252.247" y="79.603" transform="matrix(0.8667 0.4988 -0.4988 0.8667 85.309 -112.0835)" fill="#7AC2F7" width="0.299" height="47.988"/>
				</g>
				<g>
					<line fill="#7AC2F7" x1="240.369" y1="124.359" x2="231.144" y2="174.729"/>
					
						<rect x="235.601" y="123.939" transform="matrix(0.9843 0.1767 -0.1767 0.9843 30.1271 -39.2975)" fill="#7AC2F7" width="0.31" height="51.208"/>
				</g>
				<g>
					<line fill="#7AC2F7" x1="240.369" y1="124.359" x2="264.895" y2="54.447"/>
					
						<rect x="252.437" y="52.358" transform="matrix(0.9434 0.3316 -0.3316 0.9434 43.9357 -78.7091)" fill="#7AC2F7" width="0.39" height="74.09"/>
				</g>
				<g>
					<line fill="#7AC2F7" x1="240.369" y1="124.359" x2="296.982" y2="144.854"/>
					
						<rect x="238.57" y="134.436" transform="matrix(0.9403 0.3404 -0.3404 0.9403 61.8719 -83.4248)" fill="#7AC2F7" width="60.21" height="0.341"/>
				</g>
				<g>
					<line fill="#7AC2F7" x1="240.369" y1="124.359" x2="168.04" y2="140.232"/>
					
						<rect x="204.009" y="95.27" transform="matrix(0.2132 0.977 -0.977 0.2132 289.9191 -95.42)" fill="#7AC2F7" width="0.389" height="74.05"/>
				</g>
			</g>
			<g>
				<g>
					<line fill="#7AC2F7" x1="407.051" y1="104.942" x2="437.058" y2="132.513"/>
					
						<rect x="401.679" y="118.592" transform="matrix(0.7363 0.6766 -0.6766 0.7363 191.6137 -254.2644)" fill="#7AC2F7" width="40.75" height="0.272"/>
				</g>
				<g>
					<line fill="#7AC2F7" x1="407.051" y1="104.942" x2="404.767" y2="107.074"/>
					
						<rect x="405.838" y="104.446" transform="matrix(0.6862 0.7274 -0.7274 0.6862 204.4756 -261.9922)" fill="#7AC2F7" width="0.142" height="3.124"/>
				</g>
				<g>
					<line fill="#7AC2F7" x1="407.051" y1="104.942" x2="375.406" y2="80.545"/>
					
						<rect x="371.25" y="92.61" transform="matrix(0.792 0.6106 -0.6106 0.792 138.016 -219.5772)" fill="#7AC2F7" width="39.957" height="0.269"/>
				</g>
			</g>
			<g>
				<g>
					<line fill="#7AC2F7" x1="407.051" y1="104.942" x2="437.058" y2="132.513"/>
					
						<rect x="401.679" y="118.592" transform="matrix(0.7363 0.6766 -0.6766 0.7363 191.6137 -254.2644)" fill="#7AC2F7" width="40.75" height="0.272"/>
				</g>
				<g>
					<line fill="#7AC2F7" x1="407.051" y1="104.942" x2="404.767" y2="107.074"/>
					
						<rect x="405.838" y="104.446" transform="matrix(0.6862 0.7274 -0.7274 0.6862 204.4756 -261.9922)" fill="#7AC2F7" width="0.142" height="3.124"/>
				</g>
				<g>
					<line fill="#7AC2F7" x1="407.051" y1="104.942" x2="375.406" y2="80.545"/>
					
						<rect x="371.25" y="92.61" transform="matrix(0.792 0.6106 -0.6106 0.792 138.016 -219.5772)" fill="#7AC2F7" width="39.957" height="0.269"/>
				</g>
			</g>
			<g>
				<g>
					<line fill="#7AC2F7" x1="284.832" y1="132.188" x2="240.369" y2="124.359"/>
					
						<rect x="240.025" y="128.131" transform="matrix(0.9848 0.1734 -0.1734 0.9848 26.2286 -43.6024)" fill="#7AC2F7" width="45.15" height="0.287"/>
				</g>
				<g>
					<line fill="#7AC2F7" x1="284.832" y1="132.188" x2="264.424" y2="82.835"/>
					
						<rect x="247.925" y="107.354" transform="matrix(0.3821 0.9241 -0.9241 0.3821 269.0358 -187.3573)" fill="#7AC2F7" width="53.406" height="0.317"/>
				</g>
				<g>
					<line fill="#7AC2F7" x1="284.832" y1="132.188" x2="231.144" y2="174.729"/>
					
						<rect x="257.804" y="119.209" transform="matrix(0.6202 0.7845 -0.7845 0.6202 218.3788 -144.0953)" fill="#7AC2F7" width="0.368" height="68.499"/>
				</g>
				<g>
					<line fill="#7AC2F7" x1="284.832" y1="132.188" x2="264.895" y2="54.447"/>
					
						<rect x="234.736" y="93.112" transform="matrix(0.2484 0.9687 -0.9687 0.2484 296.9748 -196.1129)" fill="#7AC2F7" width="80.257" height="0.41"/>
				</g>
				<g>
					<line fill="#7AC2F7" x1="284.832" y1="132.188" x2="296.982" y2="144.854"/>
					
						<rect x="282.132" y="138.425" transform="matrix(0.6922 0.7217 -0.7217 0.6922 189.4981 -167.3076)" fill="#7AC2F7" width="17.55" height="0.192"/>
				</g>
			</g>
			<g>
				<g>
					<line fill="#7AC2F7" x1="367.971" y1="187.449" x2="296.982" y2="144.854"/>
					
						<rect x="291.083" y="165.942" transform="matrix(0.8575 0.5145 -0.5145 0.8575 132.8671 -147.3816)" fill="#7AC2F7" width="82.786" height="0.42"/>
				</g>
			</g>
			<g>
				<g>
					<line fill="#7AC2F7" x1="205.447" y1="219.427" x2="231.144" y2="174.729"/>
					
						<rect x="218.141" y="171.299" transform="matrix(0.8671 0.4982 -0.4982 0.8671 127.1955 -82.5534)" fill="#7AC2F7" width="0.31" height="51.557"/>
				</g>
				<g>
					<line fill="#7AC2F7" x1="205.447" y1="219.427" x2="147.251" y2="190.542"/>
					
						<rect x="143.865" y="204.806" transform="matrix(0.8957 0.4446 -0.4446 0.8957 109.5237 -57.031)" fill="#7AC2F7" width="64.968" height="0.356"/>
				</g>
				<g>
					<line fill="#7AC2F7" x1="205.447" y1="219.427" x2="147.324" y2="163.839"/>
					
						<rect x="136.172" y="191.428" transform="matrix(0.7227 0.6912 -0.6912 0.7227 181.36 -68.7712)" fill="#7AC2F7" width="80.427" height="0.411"/>
				</g>
			</g>
			<g>
				<g>
					<line fill="#7AC2F7" x1="82.504" y1="223.345" x2="147.251" y2="190.542"/>
					
						<rect x="114.686" y="170.651" transform="matrix(0.4503 0.8929 -0.8929 0.4503 247.9313 11.1905)" fill="#7AC2F7" width="0.384" height="72.585"/>
				</g>
				<g>
					<line fill="#7AC2F7" x1="82.504" y1="223.345" x2="41.391" y2="182.464"/>
					
						<rect x="32.958" y="202.738" transform="matrix(0.7091 0.7051 -0.7051 0.7091 161.0889 15.3446)" fill="#7AC2F7" width="57.98" height="0.332"/>
				</g>
				<g>
					<line fill="#7AC2F7" x1="82.504" y1="223.345" x2="41.391" y2="182.464"/>
					
						<rect x="32.958" y="202.738" transform="matrix(0.7091 0.7051 -0.7051 0.7091 161.0889 15.3446)" fill="#7AC2F7" width="57.98" height="0.332"/>
				</g>
				<g>
					<line fill="#7AC2F7" x1="82.504" y1="223.345" x2="70.002" y2="215.94"/>
					
						<rect x="68.988" y="219.552" transform="matrix(0.8604 0.5096 -0.5096 0.8604 122.5697 -8.2)" fill="#7AC2F7" width="14.53" height="0.181"/>
				</g>
				<g>
					<line fill="#7AC2F7" x1="82.504" y1="223.345" x2="65.88" y2="157.965"/>
					
						<rect x="40.462" y="190.473" transform="matrix(0.2464 0.9692 -0.9692 0.2464 240.6885 71.774)" fill="#7AC2F7" width="67.461" height="0.365"/>
				</g>
				<g>
					<line fill="#7AC2F7" x1="82.504" y1="223.345" x2="65.88" y2="157.965"/>
					
						<rect x="40.462" y="190.473" transform="matrix(0.2464 0.9692 -0.9692 0.2464 240.6885 71.774)" fill="#7AC2F7" width="67.461" height="0.365"/>
				</g>
			</g>
			<g>
				<g>
					<line fill="#7AC2F7" x1="252.395" y1="224.28" x2="205.447" y2="219.427"/>
					
						<rect x="205.322" y="221.705" transform="matrix(0.9947 0.1028 -0.1028 0.9947 24.0272 -22.3644)" fill="#7AC2F7" width="47.198" height="0.295"/>
				</g>
				<g>
					<line fill="#7AC2F7" x1="252.395" y1="224.28" x2="231.144" y2="174.729"/>
					
						<rect x="214.811" y="199.345" transform="matrix(0.3942 0.919 -0.919 0.3942 329.8259 -101.3287)" fill="#7AC2F7" width="53.917" height="0.319"/>
				</g>
			</g>
			<g>
				<g>
					<line fill="#7AC2F7" x1="344.444" y1="189.017" x2="367.971" y2="187.449"/>
					
						<rect x="356.101" y="176.444" transform="matrix(0.0686 0.9976 -0.9976 0.0686 519.5455 -180.0557)" fill="#7AC2F7" width="0.213" height="23.579"/>
				</g>
				<g>
					<line fill="#7AC2F7" x1="344.444" y1="189.017" x2="284.832" y2="132.188"/>
					
						<rect x="273.458" y="160.394" transform="matrix(0.7238 0.69 -0.69 0.7238 197.7172 -172.7436)" fill="#7AC2F7" width="82.359" height="0.418"/>
				</g>
				<g>
					<line fill="#7AC2F7" x1="344.444" y1="189.017" x2="296.982" y2="144.854"/>
					
						<rect x="288.298" y="166.758" transform="matrix(0.7321 0.6812 -0.6812 0.7321 199.6421 -173.7491)" fill="#7AC2F7" width="64.831" height="0.357"/>
				</g>
			</g>
			<g>
				<g>
					<line fill="#7AC2F7" x1="381.063" y1="143.336" x2="344.444" y2="189.017"/>
					
						<rect x="362.585" y="136.903" transform="matrix(0.7837 0.6211 -0.6211 0.7837 181.6866 -189.3787)" fill="#7AC2F7" width="0.336" height="58.547"/>
				</g>
				<g>
					<line fill="#7AC2F7" x1="381.063" y1="143.336" x2="367.971" y2="187.449"/>
					
						<rect x="374.371" y="142.385" transform="matrix(0.9589 0.2836 -0.2836 0.9589 62.2897 -99.4312)" fill="#7AC2F7" width="0.289" height="46.015"/>
				</g>
				<g>
					<line fill="#7AC2F7" x1="381.063" y1="143.336" x2="407.051" y2="104.942"/>
					
						<rect x="393.91" y="100.958" transform="matrix(0.8261 0.5635 -0.5635 0.8261 138.4898 -200.4783)" fill="#7AC2F7" width="0.292" height="46.363"/>
				</g>
				<g>
					<line fill="#7AC2F7" x1="381.063" y1="143.336" x2="407.051" y2="104.942"/>
					
						<rect x="393.91" y="100.958" transform="matrix(0.8261 0.5635 -0.5635 0.8261 138.4898 -200.4783)" fill="#7AC2F7" width="0.292" height="46.363"/>
				</g>
				<g>
					<line fill="#7AC2F7" x1="381.063" y1="143.336" x2="437.058" y2="132.513"/>
					
						<rect x="408.894" y="109.41" transform="matrix(0.1841 0.9829 -0.9829 0.1841 469.3142 -289.5345)" fill="#7AC2F7" width="0.329" height="57.031"/>
				</g>
				<g>
					<line fill="#7AC2F7" x1="381.063" y1="143.336" x2="404.767" y2="107.074"/>
					
						<rect x="392.774" y="103.543" transform="matrix(0.8381 0.5455 -0.5455 0.8381 131.8984 -194.0579)" fill="#7AC2F7" width="0.282" height="43.323"/>
				</g>
				<g>
					<line fill="#7AC2F7" x1="381.063" y1="143.336" x2="375.406" y2="80.545"/>
					
						<rect x="346.711" y="111.765" transform="matrix(0.0897 0.996 -0.996 0.0897 455.794 -274.8095)" fill="#7AC2F7" width="63.045" height="0.35"/>
				</g>
				<g>
					<line fill="#7AC2F7" x1="381.063" y1="143.336" x2="296.982" y2="144.854"/>
					
						<rect x="338.81" y="102.048" transform="matrix(0.0184 0.9998 -0.9998 0.0184 476.8438 -197.5246)" fill="#7AC2F7" width="0.424" height="84.094"/>
				</g>
			</g>
			<g>
				<g>
					<line fill="#7AC2F7" x1="332.006" y1="105.922" x2="381.063" y2="143.336"/>
					
						<rect x="325.687" y="124.456" transform="matrix(0.7951 0.6064 -0.6064 0.7951 148.6189 -190.681)" fill="#7AC2F7" width="61.696" height="0.346"/>
				</g>
				<g>
					<line fill="#7AC2F7" x1="332.006" y1="105.922" x2="344.444" y2="189.017"/>
					
						<rect x="296.215" y="147.258" transform="matrix(0.148 0.989 -0.989 0.148 433.9997 -208.8603)" fill="#7AC2F7" width="84.021" height="0.424"/>
				</g>
				<g>
					<line fill="#7AC2F7" x1="332.006" y1="105.922" x2="284.832" y2="132.188"/>
					
						<rect x="308.259" y="92.059" transform="matrix(0.4882 0.8727 -0.8727 0.4882 261.7406 -208.2326)" fill="#7AC2F7" width="0.32" height="53.994"/>
				</g>
				<g>
					<line fill="#7AC2F7" x1="332.006" y1="105.922" x2="407.051" y2="104.942"/>
					<rect x="332.003" y="105.236" fill="#7AC2F7" width="75.051" height="0.393"/>
				</g>
				<g>
					<line fill="#7AC2F7" x1="332.006" y1="105.922" x2="407.051" y2="104.942"/>
					<rect x="332.003" y="105.236" fill="#7AC2F7" width="75.051" height="0.393"/>
				</g>
				<g>
					<line fill="#7AC2F7" x1="332.006" y1="105.922" x2="264.424" y2="82.835"/>
					
						<rect x="262.507" y="94.189" transform="matrix(0.9463 0.3233 -0.3233 0.9463 46.5198 -91.3333)" fill="#7AC2F7" width="71.416" height="0.38"/>
				</g>
				<g>
					<line fill="#7AC2F7" x1="332.006" y1="105.922" x2="404.767" y2="107.074"/>
					
						<rect x="332" y="106.306" transform="matrix(0.9999 0.0158 -0.0158 0.9999 1.7318 -5.8175)" fill="#7AC2F7" width="72.773" height="0.384"/>
				</g>
				<g>
					<line fill="#7AC2F7" x1="332.006" y1="105.922" x2="264.895" y2="54.447"/>
					
						<rect x="256.16" y="79.972" transform="matrix(0.7935 0.6086 -0.6086 0.7935 110.4402 -165.0794)" fill="#7AC2F7" width="84.58" height="0.425"/>
				</g>
				<g>
					<line fill="#7AC2F7" x1="332.006" y1="105.922" x2="375.406" y2="80.545"/>
					
						<rect x="353.552" y="68.097" transform="matrix(0.5037 0.8639 -0.8639 0.5037 256.0979 -259.2892)" fill="#7AC2F7" width="0.306" height="50.275"/>
				</g>
				<g>
					<line fill="#7AC2F7" x1="332.006" y1="105.922" x2="296.982" y2="144.854"/>
					
						<rect x="314.337" y="99.204" transform="matrix(0.7456 0.6664 -0.6664 0.7456 163.5622 -177.677)" fill="#7AC2F7" width="0.314" height="52.369"/>
				</g>
			</g>
			<g>
				<g>
					<line fill="#7AC2F7" x1="-34.778" y1="161.803" x2="-47.689" y2="171.223"/>
					
						<rect x="-41.327" y="158.521" transform="matrix(0.5899 0.8075 -0.8075 0.5899 117.5462 101.5852)" fill="#7AC2F7" width="0.186" height="15.984"/>
				</g>
				<g>
					<line fill="#7AC2F7" x1="-34.778" y1="161.803" x2="41.391" y2="182.464"/>
					
						<rect x="-36.154" y="171.93" transform="matrix(0.9651 0.2618 -0.2618 0.9651 45.1753 5.1366)" fill="#7AC2F7" width="78.924" height="0.405"/>
				</g>
				<g>
					<line fill="#7AC2F7" x1="-34.778" y1="161.803" x2="41.391" y2="182.464"/>
					
						<rect x="-36.154" y="171.93" transform="matrix(0.9651 0.2618 -0.2618 0.9651 45.1753 5.1366)" fill="#7AC2F7" width="78.924" height="0.405"/>
				</g>
				<g>
					<line fill="#7AC2F7" x1="-34.778" y1="161.803" x2="-92.26" y2="171.385"/>
					
						<rect x="-63.686" y="137.455" transform="matrix(0.1682 0.9858 -0.9858 0.1682 111.3847 201.1884)" fill="#7AC2F7" width="0.334" height="58.277"/>
				</g>
			</g>
			<g>
				<g>
					<line fill="#7AC2F7" x1="-23.356" y1="215.268" x2="-34.778" y2="161.803"/>
					
						<rect x="-56.404" y="188.376" transform="matrix(0.2089 0.9779 -0.9779 0.2089 161.3798 177.5818)" fill="#7AC2F7" width="54.671" height="0.319"/>
				</g>
				<g>
					<line fill="#7AC2F7" x1="-23.356" y1="215.268" x2="-47.689" y2="171.223"/>
					
						<rect x="-60.683" y="193.091" transform="matrix(0.4836 0.8753 -0.8753 0.4836 150.8018 130.8889)" fill="#7AC2F7" width="50.319" height="0.307"/>
				</g>
				<g>
					<line fill="#7AC2F7" x1="-23.356" y1="215.268" x2="41.391" y2="182.464"/>
					
						<rect x="8.825" y="162.573" transform="matrix(0.4513 0.8924 -0.8924 0.4513 182.412 101.0753)" fill="#7AC2F7" width="0.384" height="72.585"/>
				</g>
				<g>
					<line fill="#7AC2F7" x1="-23.356" y1="215.268" x2="41.391" y2="182.464"/>
					
						<rect x="8.825" y="162.573" transform="matrix(0.4513 0.8924 -0.8924 0.4513 182.412 101.0753)" fill="#7AC2F7" width="0.384" height="72.585"/>
				</g>
				<g>
					<line fill="#7AC2F7" x1="-23.356" y1="215.268" x2="-92.26" y2="171.385"/>
					
						<rect x="-98.653" y="193.117" transform="matrix(0.8435 0.5372 -0.5372 0.8435 94.8006 61.3141)" fill="#7AC2F7" width="81.69" height="0.416"/>
				</g>
			</g>
			<g>
				<g>
					<line fill="#7AC2F7" x1="-0.457" y1="133.392" x2="-23.356" y2="215.268"/>
					
						<rect x="-12.122" y="131.821" transform="matrix(0.963 0.2696 -0.2696 0.963 46.5561 9.6646)" fill="#7AC2F7" width="0.427" height="85.017"/>
				</g>
				<g>
					<line fill="#7AC2F7" x1="-0.457" y1="133.392" x2="-34.778" y2="161.803"/>
					
						<rect x="-17.761" y="125.321" transform="matrix(0.6324 0.7746 -0.7746 0.6324 107.8588 67.9054)" fill="#7AC2F7" width="0.285" height="44.553"/>
				</g>
				<g>
					<line fill="#7AC2F7" x1="-0.457" y1="133.392" x2="-47.689" y2="171.223"/>
					
						<rect x="-24.245" y="122.05" transform="matrix(0.6222 0.7828 -0.7828 0.6222 110.1357 76.3811)" fill="#7AC2F7" width="0.341" height="60.516"/>
				</g>
				<g>
					<line fill="#7AC2F7" x1="-0.457" y1="133.392" x2="41.391" y2="182.464"/>
					
						<rect x="-11.78" y="157.749" transform="matrix(0.6489 0.7609 -0.7609 0.6489 127.3478 39.8751)" fill="#7AC2F7" width="64.493" height="0.356"/>
				</g>
				<g>
					<line fill="#7AC2F7" x1="-0.457" y1="133.392" x2="41.391" y2="182.464"/>
					
						<rect x="-11.78" y="157.749" transform="matrix(0.6489 0.7609 -0.7609 0.6489 127.3478 39.8751)" fill="#7AC2F7" width="64.493" height="0.356"/>
				</g>
				<g>
					<line fill="#7AC2F7" x1="-0.457" y1="133.392" x2="47.1" y2="120.575"/>
					
						<rect x="23.17" y="102.356" transform="matrix(0.2641 0.9645 -0.9645 0.2641 139.6395 70.9572)" fill="#7AC2F7" width="0.303" height="49.256"/>
				</g>
				<g>
					<line fill="#7AC2F7" x1="-0.457" y1="133.392" x2="62.179" y2="132.153"/>
					
						<rect x="30.687" y="101.447" transform="matrix(0.0224 0.9997 -0.9997 0.0224 162.9086 98.9439)" fill="#7AC2F7" width="0.349" height="62.651"/>
				</g>
				<g>
					<line fill="#7AC2F7" x1="-0.457" y1="133.392" x2="65.88" y2="157.965"/>
					
						<rect x="-2.66" y="145.49" transform="matrix(0.9377 0.3474 -0.3474 0.9377 52.6389 -2.2916)" fill="#7AC2F7" width="70.744" height="0.376"/>
				</g>
				<g>
					<line fill="#7AC2F7" x1="-0.457" y1="133.392" x2="65.88" y2="157.965"/>
					
						<rect x="-2.66" y="145.49" transform="matrix(0.9377 0.3474 -0.3474 0.9377 52.6389 -2.2916)" fill="#7AC2F7" width="70.744" height="0.376"/>
				</g>
			</g>
			<g>
				<g>
					<line fill="#7AC2F7" x1="168.149" y1="68.115" x2="87.443" y2="70.431"/>
					
						<rect x="127.591" y="28.903" transform="matrix(0.0295 0.9996 -0.9996 0.0295 193.2652 -60.5153)" fill="#7AC2F7" width="0.413" height="80.739"/>
				</g>
				<g>
					<line fill="#7AC2F7" x1="168.149" y1="68.115" x2="137.79" y2="109.93"/>
					
						<rect x="152.813" y="63.186" transform="matrix(0.8091 0.5876 -0.5876 0.8091 81.5056 -72.8953)" fill="#7AC2F7" width="0.311" height="51.674"/>
				</g>
				<g>
					<line fill="#7AC2F7" x1="168.149" y1="68.115" x2="168.04" y2="140.232"/>
					<rect x="167.904" y="68.115" fill="#7AC2F7" width="0.383" height="72.117"/>
				</g>
			</g>
			<g>
				<g>
					<line fill="#7AC2F7" x1="230.342" y1="64.99" x2="168.149" y2="68.115"/>
					
						<rect x="199.072" y="35.416" transform="matrix(0.0561 0.9984 -0.9984 0.0561 254.5178 -136.1139)" fill="#7AC2F7" width="0.348" height="62.273"/>
				</g>
				<g>
					<line fill="#7AC2F7" x1="230.342" y1="64.99" x2="284.832" y2="132.188"/>
					
						<rect x="214.329" y="98.372" transform="matrix(0.6298 0.7767 -0.7767 0.6298 171.9233 -163.5799)" fill="#7AC2F7" width="86.515" height="0.434"/>
				</g>
				<g>
					<line fill="#7AC2F7" x1="230.342" y1="64.99" x2="240.369" y2="124.359"/>
					
						<rect x="205.25" y="94.504" transform="matrix(0.1665 0.986 -0.986 0.1665 289.5109 -153.161)" fill="#7AC2F7" width="60.21" height="0.342"/>
				</g>
				<g>
					<line fill="#7AC2F7" x1="230.342" y1="64.99" x2="264.424" y2="82.835"/>
					
						<rect x="228.147" y="73.781" transform="matrix(0.8859 0.4639 -0.4639 0.8859 62.5091 -106.3177)" fill="#7AC2F7" width="38.472" height="0.264"/>
				</g>
				<g>
					<line fill="#7AC2F7" x1="230.342" y1="64.99" x2="264.895" y2="54.447"/>
					
						<rect x="247.49" y="41.655" transform="matrix(0.2863 0.9581 -0.9581 0.2863 233.9435 -194.6319)" fill="#7AC2F7" width="0.256" height="36.125"/>
				</g>
			</g>
			<g>
				<g>
					<line fill="#7AC2F7" x1="200.379" y1="105.119" x2="230.342" y2="64.99"/>
					
						<rect x="215.208" y="60.014" transform="matrix(0.803 0.5959 -0.5959 0.803 93.1006 -111.5851)" fill="#7AC2F7" width="0.306" height="50.081"/>
				</g>
				<g>
					<line fill="#7AC2F7" x1="200.379" y1="105.119" x2="168.149" y2="68.115"/>
					
						<rect x="159.729" y="86.465" transform="matrix(0.6568 0.754 -0.754 0.6568 128.5497 -109.2198)" fill="#7AC2F7" width="49.073" height="0.303"/>
				</g>
				<g>
					<line fill="#7AC2F7" x1="200.379" y1="105.119" x2="240.369" y2="124.359"/>
					
						<rect x="198.186" y="114.595" transform="matrix(0.9011 0.4336 -0.4336 0.9011 71.5397 -84.2038)" fill="#7AC2F7" width="44.375" height="0.286"/>
				</g>
				<g>
					<line fill="#7AC2F7" x1="200.379" y1="105.119" x2="264.424" y2="82.835"/>
					
						<rect x="232.218" y="60.073" transform="matrix(0.3246 0.9459 -0.9459 0.3246 245.8532 -156.345)" fill="#7AC2F7" width="0.367" height="67.808"/>
				</g>
				<g>
					<line fill="#7AC2F7" x1="200.379" y1="105.119" x2="231.144" y2="174.729"/>
					
						<rect x="177.709" y="139.725" transform="matrix(0.4042 0.9147 -0.9147 0.4042 256.5255 -113.9865)" fill="#7AC2F7" width="76.106" height="0.397"/>
				</g>
				<g>
					<line fill="#7AC2F7" x1="200.379" y1="105.119" x2="264.895" y2="54.447"/>
					
						<rect x="232.43" y="38.764" transform="matrix(0.6155 0.7881 -0.7881 0.6155 152.3329 -152.6758)" fill="#7AC2F7" width="0.416" height="82.036"/>
				</g>
				<g>
					<line fill="#7AC2F7" x1="200.379" y1="105.119" x2="137.79" y2="109.93"/>
					
						<rect x="168.91" y="76.136" transform="matrix(0.0768 0.997 -0.997 0.0768 263.3048 -69.3191)" fill="#7AC2F7" width="0.35" height="62.777"/>
				</g>
				<g>
					<line fill="#7AC2F7" x1="200.379" y1="105.119" x2="168.04" y2="140.232"/>
					
						<rect x="184.061" y="98.806" transform="matrix(0.7376 0.6753 -0.6753 0.7376 131.1835 -92.199)" fill="#7AC2F7" width="0.298" height="47.738"/>
				</g>
				<g>
					<line fill="#7AC2F7" x1="200.379" y1="105.119" x2="147.324" y2="163.839"/>
					
						<rect x="173.648" y="94.909" transform="matrix(0.7428 0.6696 -0.6696 0.7428 134.7639 -81.8105)" fill="#7AC2F7" width="0.407" height="79.139"/>
				</g>
			</g>
			<g>
				<g>
					<line fill="#7AC2F7" x1="291.039" y1="188.874" x2="344.444" y2="189.017"/>
					
						<rect x="291.04" y="188.788" transform="matrix(1 0.0027 -0.0027 1 0.5091 -0.8534)" fill="#7AC2F7" width="53.405" height="0.316"/>
				</g>
				<g>
					<line fill="#7AC2F7" x1="291.039" y1="188.874" x2="252.395" y2="224.28"/>
					
						<rect x="271.561" y="180.372" transform="matrix(0.6753 0.7375 -0.7375 0.6753 240.586 -133.3281)" fill="#7AC2F7" width="0.314" height="52.412"/>
				</g>
				<g>
					<line fill="#7AC2F7" x1="291.039" y1="188.874" x2="367.971" y2="187.449"/>
					
						<rect x="329.306" y="149.689" transform="matrix(0.0195 0.9998 -0.9998 0.0195 511.204 -144.9528)" fill="#7AC2F7" width="0.4" height="76.946"/>
				</g>
				<g>
					<line fill="#7AC2F7" x1="291.039" y1="188.874" x2="284.832" y2="132.188"/>
					
						<rect x="259.423" y="160.368" transform="matrix(0.1088 0.9941 -0.9941 0.1088 416.1725 -143.1664)" fill="#7AC2F7" width="57.025" height="0.328"/>
				</g>
				<g>
					<line fill="#7AC2F7" x1="291.039" y1="188.874" x2="240.369" y2="124.359"/>
					
						<rect x="224.685" y="156.408" transform="matrix(0.6177 0.7864 -0.7864 0.6177 224.7531 -149.08)" fill="#7AC2F7" width="82.038" height="0.418"/>
				</g>
				<g>
					<line fill="#7AC2F7" x1="291.039" y1="188.874" x2="231.144" y2="174.729"/>
					
						<rect x="230.321" y="181.629" transform="matrix(0.9732 0.2298 -0.2298 0.9732 48.7767 -55.1438)" fill="#7AC2F7" width="61.543" height="0.345"/>
				</g>
				<g>
					<line fill="#7AC2F7" x1="291.039" y1="188.874" x2="296.982" y2="144.854"/>
					
						<rect x="293.868" y="144.655" transform="matrix(0.9906 0.1366 -0.1366 0.9906 25.5574 -38.6078)" fill="#7AC2F7" width="0.286" height="44.419"/>
				</g>
			</g>
			<g>
				<g>
					<line fill="#7AC2F7" x1="414.395" y1="168.131" x2="381.063" y2="143.336"/>
					
						<rect x="376.956" y="155.596" transform="matrix(0.8024 0.5968 -0.5968 0.8024 171.5492 -206.597)" fill="#7AC2F7" width="41.542" height="0.274"/>
				</g>
				<g>
					<line fill="#7AC2F7" x1="414.395" y1="168.131" x2="344.444" y2="189.017"/>
					
						<rect x="379.227" y="142.073" transform="matrix(0.2911 0.9567 -0.9567 0.2911 439.8275 -236.3944)" fill="#7AC2F7" width="0.386" height="73.001"/>
				</g>
				<g>
					<line fill="#7AC2F7" x1="414.395" y1="168.131" x2="367.971" y2="187.449"/>
					
						<rect x="391.029" y="152.649" transform="matrix(0.3824 0.924 -0.924 0.3824 405.8942 -251.6476)" fill="#7AC2F7" width="0.306" height="50.283"/>
				</g>
				<g>
					<line fill="#7AC2F7" x1="414.395" y1="168.131" x2="407.051" y2="104.942"/>
					
						<rect x="378.916" y="136.36" transform="matrix(0.1154 0.9933 -0.9933 0.1154 498.9373 -287.2011)" fill="#7AC2F7" width="63.613" height="0.353"/>
				</g>
				<g>
					<line fill="#7AC2F7" x1="414.395" y1="168.131" x2="407.051" y2="104.942"/>
					
						<rect x="378.916" y="136.36" transform="matrix(0.1154 0.9933 -0.9933 0.1154 498.9373 -287.2011)" fill="#7AC2F7" width="63.613" height="0.353"/>
				</g>
				<g>
					<line fill="#7AC2F7" x1="414.395" y1="168.131" x2="437.058" y2="132.513"/>
					
						<rect x="425.586" y="129.214" transform="matrix(0.8432 0.5376 -0.5376 0.8432 147.5485 -205.285)" fill="#7AC2F7" width="0.278" height="42.215"/>
				</g>
				<g>
					<line fill="#7AC2F7" x1="414.395" y1="168.131" x2="404.767" y2="107.074"/>
					
						<rect x="378.675" y="137.429" transform="matrix(0.1558 0.9878 -0.9878 0.1558 481.7057 -288.4123)" fill="#7AC2F7" width="61.811" height="0.346"/>
				</g>
			</g>
			<g>
				<g>
					<line fill="#7AC2F7" x1="512.5" y1="129.845" x2="437.058" y2="132.513"/>
					
						<rect x="474.582" y="93.433" transform="matrix(0.0322 0.9995 -0.9995 0.0322 590.5826 -347.5819)" fill="#7AC2F7" width="0.394" height="75.492"/>
				</g>
			</g>
			<g>
				<g>
					<line fill="#7AC2F7" x1="317.503" y1="57.965" x2="332.006" y2="105.922"/>
					
						<rect x="299.704" y="81.79" transform="matrix(0.2895 0.9572 -0.9572 0.2895 309.1776 -252.6277)" fill="#7AC2F7" width="50.102" height="0.306"/>
				</g>
				<g>
					<line fill="#7AC2F7" x1="317.503" y1="57.965" x2="284.832" y2="132.188"/>
					
						<rect x="300.961" y="54.529" transform="matrix(0.9147 0.4042 -0.4042 0.9147 64.1201 -113.6097)" fill="#7AC2F7" width="0.413" height="81.096"/>
				</g>
				<g>
					<line fill="#7AC2F7" x1="317.503" y1="57.965" x2="264.424" y2="82.835"/>
					
						<rect x="290.796" y="41.092" transform="matrix(0.4202 0.9074 -0.9074 0.4202 232.5944 -223.2133)" fill="#7AC2F7" width="0.335" height="58.617"/>
				</g>
				<g>
					<line fill="#7AC2F7" x1="317.503" y1="57.965" x2="264.895" y2="54.447"/>
					
						<rect x="264.837" y="56.048" transform="matrix(0.9978 0.0667 -0.0667 0.9978 4.3992 -19.3047)" fill="#7AC2F7" width="52.726" height="0.315"/>
				</g>
				<g>
					<line fill="#7AC2F7" x1="317.503" y1="57.965" x2="375.406" y2="80.545"/>
					
						<rect x="315.379" y="69.081" transform="matrix(0.9317 0.3633 -0.3633 0.9317 48.8372 -121.1417)" fill="#7AC2F7" width="62.15" height="0.348"/>
				</g>
			</g>
			<g>
				<g>
					<line fill="#7AC2F7" x1="469.243" y1="101.816" x2="512.5" y2="129.845"/>
					
						<rect x="465.101" y="115.676" transform="matrix(0.8392 0.5438 -0.5438 0.8392 141.9076 -248.3067)" fill="#7AC2F7" width="51.544" height="0.31"/>
				</g>
				<g>
					<line fill="#7AC2F7" x1="469.243" y1="101.816" x2="414.395" y2="168.131"/>
					
						<rect x="441.603" y="91.945" transform="matrix(0.7708 0.6371 -0.6371 0.7708 187.2435 -250.5302)" fill="#7AC2F7" width="0.431" height="86.057"/>
				</g>
				<g>
					<line fill="#7AC2F7" x1="469.243" y1="101.816" x2="407.051" y2="104.942"/>
					
						<rect x="437.974" y="72.243" transform="matrix(0.0559 0.9984 -0.9984 0.0559 516.8585 -339.8654)" fill="#7AC2F7" width="0.349" height="62.274"/>
				</g>
				<g>
					<line fill="#7AC2F7" x1="469.243" y1="101.816" x2="407.051" y2="104.942"/>
					
						<rect x="437.974" y="72.243" transform="matrix(0.0559 0.9984 -0.9984 0.0559 516.8585 -339.8654)" fill="#7AC2F7" width="0.349" height="62.274"/>
				</g>
				<g>
					<line fill="#7AC2F7" x1="469.243" y1="101.816" x2="437.058" y2="132.513"/>
					
						<rect x="453.007" y="94.926" transform="matrix(0.6933 0.7206 -0.7206 0.6933 223.4085 -290.6236)" fill="#7AC2F7" width="0.286" height="44.479"/>
				</g>
				<g>
					<line fill="#7AC2F7" x1="469.243" y1="101.816" x2="404.767" y2="107.074"/>
					
						<rect x="436.827" y="72.101" transform="matrix(0.0823 0.9966 -0.9966 0.0823 505.1525 -339.6692)" fill="#7AC2F7" width="0.356" height="64.691"/>
				</g>
			</g>
			<g>
				<g>
					<line fill="#7AC2F7" x1="14.664" y1="212.667" x2="-0.457" y2="133.392"/>
					
						<rect x="-33.249" y="172.822" transform="matrix(0.1874 0.9823 -0.9823 0.1874 175.7367 133.6294)" fill="#7AC2F7" width="80.705" height="0.415"/>
				</g>
				<g>
					<line fill="#7AC2F7" x1="14.664" y1="212.667" x2="-23.356" y2="215.268"/>
					
						<rect x="-4.478" y="194.911" transform="matrix(0.0652 0.9979 -0.9979 0.0652 209.4489 204.362)" fill="#7AC2F7" width="0.262" height="38.111"/>
				</g>
				<g>
					<line fill="#7AC2F7" x1="14.664" y1="212.667" x2="-34.778" y2="161.803"/>
					
						<rect x="-45.523" y="187.047" transform="matrix(0.697 0.7171 -0.7171 0.697 131.213 63.9421)" fill="#7AC2F7" width="70.934" height="0.377"/>
				</g>
				<g>
					<line fill="#7AC2F7" x1="14.664" y1="212.667" x2="82.504" y2="223.345"/>
					
						<rect x="14.246" y="217.82" transform="matrix(0.9878 0.1555 -0.1555 0.9878 34.4832 -4.9024)" fill="#7AC2F7" width="68.676" height="0.371"/>
				</g>
				<g>
					<line fill="#7AC2F7" x1="14.664" y1="212.667" x2="-47.689" y2="171.223"/>
					
						<rect x="-53.95" y="191.749" transform="matrix(0.8328 0.5535 -0.5535 0.8328 103.4892 41.2301)" fill="#7AC2F7" width="74.873" height="0.392"/>
				</g>
				<g>
					<line fill="#7AC2F7" x1="14.664" y1="212.667" x2="41.391" y2="182.464"/>
					
						<rect x="27.893" y="177.4" transform="matrix(0.7456 0.6664 -0.6664 0.7456 138.7822 31.5799)" fill="#7AC2F7" width="0.271" height="40.331"/>
				</g>
				<g>
					<line fill="#7AC2F7" x1="14.664" y1="212.667" x2="41.391" y2="182.464"/>
					
						<rect x="27.893" y="177.4" transform="matrix(0.7456 0.6664 -0.6664 0.7456 138.7822 31.5799)" fill="#7AC2F7" width="0.271" height="40.331"/>
				</g>
				<g>
					<line fill="#7AC2F7" x1="14.664" y1="212.667" x2="70.002" y2="215.94"/>
					
						<rect x="14.615" y="214.141" transform="matrix(0.9983 0.059 -0.059 0.9983 12.7245 -2.1252)" fill="#7AC2F7" width="55.436" height="0.325"/>
				</g>
				<g>
					<line fill="#7AC2F7" x1="14.664" y1="212.667" x2="65.88" y2="157.965"/>
					
						<rect x="40.077" y="147.847" transform="matrix(0.728 0.6856 -0.6856 0.728 138.0072 22.7987)" fill="#7AC2F7" width="0.392" height="74.937"/>
				</g>
				<g>
					<line fill="#7AC2F7" x1="14.664" y1="212.667" x2="65.88" y2="157.965"/>
					
						<rect x="40.077" y="147.847" transform="matrix(0.728 0.6856 -0.6856 0.728 138.0072 22.7987)" fill="#7AC2F7" width="0.392" height="74.937"/>
				</g>
			</g>
		</g>
		<circle fill="#7AC2F7" cx="65.88" cy="157.965" r="1.219"/>
		<circle fill="#7AC2F7" cx="62.179" cy="132.153" r="1.219"/>
		<circle fill="#7AC2F7" cx="65.88" cy="157.965" r="1.219"/>
		<circle fill="#7AC2F7" cx="62.179" cy="132.153" r="1.219"/>
		<circle fill="#7AC2F7" cx="62.179" cy="132.153" r="1.219"/>
		<circle fill="#7AC2F7" cx="70.002" cy="215.94" r="1.219"/>
		<circle fill="#7AC2F7" cx="65.88" cy="157.965" r="1.219"/>
		<circle fill="#7AC2F7" cx="70.002" cy="215.94" r="1.219"/>
		<circle fill="#7AC2F7" cx="65.88" cy="157.965" r="1.219"/>
		<circle fill="#7AC2F7" cx="70.002" cy="215.94" r="1.219"/>
		<circle fill="#7AC2F7" cx="65.88" cy="157.965" r="1.219"/>
		<circle fill="#7AC2F7" cx="147.324" cy="163.839" r="1.219"/>
		<circle fill="#7AC2F7" cx="65.88" cy="157.965" r="1.219"/>
		<circle fill="#7AC2F7" cx="147.324" cy="163.839" r="1.219"/>
		<circle fill="#7AC2F7" cx="147.324" cy="163.839" r="1.219"/>
		<circle fill="#7AC2F7" cx="168.04" cy="140.232" r="1.219"/>
		<circle fill="#7AC2F7" cx="168.04" cy="140.232" r="1.219"/>
		<circle fill="#7AC2F7" cx="137.789" cy="109.93" r="1.219"/>
		<circle fill="#7AC2F7" cx="147.324" cy="163.839" r="1.219"/>
		<circle fill="#7AC2F7" cx="137.789" cy="109.93" r="1.219"/>
		<circle fill="#7AC2F7" cx="62.179" cy="132.153" r="1.219"/>
		<circle fill="#7AC2F7" cx="137.789" cy="109.93" r="1.219"/>
		<circle fill="#7AC2F7" cx="65.88" cy="157.965" r="1.219"/>
		<circle fill="#7AC2F7" cx="137.789" cy="109.93" r="1.219"/>
		<circle fill="#7AC2F7" cx="65.88" cy="157.965" r="1.219"/>
		<circle fill="#7AC2F7" cx="137.789" cy="109.93" r="1.219"/>
		<circle fill="#7AC2F7" cx="62.179" cy="132.153" r="1.219"/>
		<circle fill="#7AC2F7" cx="47.1" cy="120.575" r="1.219"/>
		<circle fill="#7AC2F7" cx="65.88" cy="157.965" r="1.219"/>
		<circle fill="#7AC2F7" cx="47.1" cy="120.575" r="1.219"/>
		<circle fill="#7AC2F7" cx="65.88" cy="157.965" r="1.219"/>
		<circle fill="#7AC2F7" cx="47.1" cy="120.575" r="1.219"/>
		<circle fill="#7AC2F7" cx="-148.828" cy="154.463" r="1.219"/>
		<circle fill="#7AC2F7" cx="-92.26" cy="171.385" r="1.219"/>
		<circle fill="#7AC2F7" cx="47.1" cy="120.575" r="1.219"/>
		<circle fill="#7AC2F7" cx="41.391" cy="182.464" r="1.219"/>
		<circle fill="#7AC2F7" cx="70.002" cy="215.94" r="1.219"/>
		<circle fill="#7AC2F7" cx="41.391" cy="182.464" r="1.219"/>
		<circle fill="#7AC2F7" cx="62.179" cy="132.153" r="1.219"/>
		<circle fill="#7AC2F7" cx="41.391" cy="182.464" r="1.219"/>
		<circle fill="#7AC2F7" cx="65.88" cy="157.965" r="1.219"/>
		<circle fill="#7AC2F7" cx="41.391" cy="182.464" r="1.219"/>
		<circle fill="#7AC2F7" cx="65.88" cy="157.965" r="1.219"/>
		<circle fill="#7AC2F7" cx="41.391" cy="182.464" r="1.219"/>
		<circle fill="#7AC2F7" cx="47.1" cy="120.575" r="1.219"/>
		<circle fill="#7AC2F7" cx="41.391" cy="182.464" r="1.219"/>
		<circle fill="#7AC2F7" cx="70.002" cy="215.94" r="1.219"/>
		<circle fill="#7AC2F7" cx="41.391" cy="182.464" r="1.219"/>
		<circle fill="#7AC2F7" cx="62.179" cy="132.153" r="1.219"/>
		<circle fill="#7AC2F7" cx="41.391" cy="182.464" r="1.219"/>
		<circle fill="#7AC2F7" cx="65.88" cy="157.965" r="1.219"/>
		<circle fill="#7AC2F7" cx="41.391" cy="182.464" r="1.219"/>
		<circle fill="#7AC2F7" cx="65.88" cy="157.965" r="1.219"/>
		<circle fill="#7AC2F7" cx="41.391" cy="182.464" r="1.219"/>
		<circle fill="#7AC2F7" cx="-92.26" cy="171.385" r="1.219"/>
		<circle fill="#7AC2F7" cx="-47.69" cy="171.223" r="1.219"/>
		<circle fill="#7AC2F7" cx="137.789" cy="109.93" r="1.219"/>
		<circle fill="#7AC2F7" cx="147.251" cy="190.542" r="1.219"/>
		<circle fill="#7AC2F7" cx="168.04" cy="140.232" r="1.219"/>
		<circle fill="#7AC2F7" cx="147.251" cy="190.542" r="1.219"/>
		<circle fill="#7AC2F7" cx="147.324" cy="163.839" r="1.219"/>
		<circle fill="#7AC2F7" cx="147.251" cy="190.542" r="1.219"/>
		<circle fill="#7AC2F7" cx="70.002" cy="215.94" r="1.219"/>
		<circle fill="#7AC2F7" cx="147.251" cy="190.542" r="1.219"/>
		<circle fill="#7AC2F7" cx="47.1" cy="120.575" r="1.219"/>
		<circle fill="#7AC2F7" cx="87.444" cy="70.431" r="1.219"/>
		<circle fill="#7AC2F7" cx="137.789" cy="109.93" r="1.219"/>
		<circle fill="#7AC2F7" cx="87.444" cy="70.431" r="1.219"/>
		<circle fill="#7AC2F7" cx="62.179" cy="132.153" r="1.219"/>
		<circle fill="#7AC2F7" cx="87.444" cy="70.431" r="1.219"/>
		<circle fill="#7AC2F7" cx="375.407" cy="80.545" r="1.219"/>
		<circle fill="#7AC2F7" cx="404.767" cy="107.074" r="1.219"/>
		<circle fill="#7AC2F7" cx="296.982" cy="144.854" r="1.219"/>
		<circle fill="#7AC2F7" cx="231.144" cy="174.729" r="1.219"/>
		<circle fill="#7AC2F7" cx="147.251" cy="190.542" r="1.219"/>
		<circle fill="#7AC2F7" cx="231.144" cy="174.729" r="1.219"/>
		<circle fill="#7AC2F7" cx="168.04" cy="140.232" r="1.219"/>
		<circle fill="#7AC2F7" cx="231.144" cy="174.729" r="1.219"/>
		<circle fill="#7AC2F7" cx="147.324" cy="163.839" r="1.219"/>
		<circle fill="#7AC2F7" cx="231.144" cy="174.729" r="1.219"/>
		<circle fill="#7AC2F7" cx="264.895" cy="54.447" r="1.219"/>
		<circle fill="#7AC2F7" cx="264.424" cy="82.835" r="1.219"/>
		<circle fill="#7AC2F7" cx="296.982" cy="144.854" r="1.219"/>
		<circle fill="#7AC2F7" cx="264.424" cy="82.835" r="1.219"/>
		<circle fill="#7AC2F7" cx="404.767" cy="107.074" r="1.219"/>
		<circle fill="#7AC2F7" cx="437.058" cy="132.513" r="1.219"/>
		<circle fill="#7AC2F7" cx="375.407" cy="80.545" r="1.219"/>
		<circle fill="#7AC2F7" cx="437.058" cy="132.513" r="1.219"/>
		<circle fill="#7AC2F7" cx="264.424" cy="82.835" r="1.219"/>
		<circle fill="#7AC2F7" cx="240.369" cy="124.359" r="1.219"/>
		<circle fill="#7AC2F7" cx="231.144" cy="174.729" r="1.219"/>
		<circle fill="#7AC2F7" cx="240.369" cy="124.359" r="1.219"/>
		<circle fill="#7AC2F7" cx="264.895" cy="54.447" r="1.219"/>
		<circle fill="#7AC2F7" cx="240.369" cy="124.359" r="1.219"/>
		<circle fill="#7AC2F7" cx="296.982" cy="144.854" r="1.219"/>
		<circle fill="#7AC2F7" cx="240.369" cy="124.359" r="1.219"/>
		<circle fill="#7AC2F7" cx="168.04" cy="140.232" r="1.219"/>
		<circle fill="#7AC2F7" cx="240.369" cy="124.359" r="1.219"/>
		<circle fill="#7AC2F7" cx="437.058" cy="132.513" r="1.219"/>
		<circle fill="#7AC2F7" cx="407.051" cy="104.942" r="1.219"/>
		<circle fill="#7AC2F7" cx="404.767" cy="107.074" r="1.219"/>
		<circle fill="#7AC2F7" cx="407.051" cy="104.942" r="1.219"/>
		<circle fill="#7AC2F7" cx="375.407" cy="80.545" r="1.219"/>
		<circle fill="#7AC2F7" cx="407.051" cy="104.942" r="1.219"/>
		<circle fill="#7AC2F7" cx="437.058" cy="132.513" r="1.219"/>
		<circle fill="#7AC2F7" cx="407.051" cy="104.942" r="1.219"/>
		<circle fill="#7AC2F7" cx="404.767" cy="107.074" r="1.219"/>
		<circle fill="#7AC2F7" cx="407.051" cy="104.942" r="1.219"/>
		<circle fill="#7AC2F7" cx="375.407" cy="80.545" r="1.219"/>
		<circle fill="#7AC2F7" cx="407.051" cy="104.942" r="1.219"/>
		<circle fill="#7AC2F7" cx="240.369" cy="124.359" r="1.219"/>
		<circle fill="#7AC2F7" cx="284.832" cy="132.188" r="1.219"/>
		<circle fill="#7AC2F7" cx="264.424" cy="82.835" r="1.219"/>
		<circle fill="#7AC2F7" cx="284.832" cy="132.188" r="1.219"/>
		<circle fill="#7AC2F7" cx="231.144" cy="174.729" r="1.219"/>
		<circle fill="#7AC2F7" cx="284.832" cy="132.188" r="1.219"/>
		<circle fill="#7AC2F7" cx="264.895" cy="54.447" r="1.219"/>
		<circle fill="#7AC2F7" cx="284.832" cy="132.188" r="1.219"/>
		<circle fill="#7AC2F7" cx="296.982" cy="144.854" r="1.219"/>
		<circle fill="#7AC2F7" cx="284.832" cy="132.188" r="1.219"/>
		<circle fill="#7AC2F7" cx="296.982" cy="144.854" r="1.219"/>
		<circle fill="#7AC2F7" cx="367.971" cy="187.449" r="1.219"/>
		<circle fill="#7AC2F7" cx="231.144" cy="174.729" r="1.219"/>
		<circle fill="#7AC2F7" cx="205.447" cy="219.427" r="1.219"/>
		<circle fill="#7AC2F7" cx="147.251" cy="190.542" r="1.219"/>
		<circle fill="#7AC2F7" cx="205.447" cy="219.427" r="1.219"/>
		<circle fill="#7AC2F7" cx="147.324" cy="163.839" r="1.219"/>
		<circle fill="#7AC2F7" cx="205.447" cy="219.427" r="1.219"/>
		<circle fill="#7AC2F7" cx="147.251" cy="190.542" r="1.219"/>
		<circle fill="#7AC2F7" cx="82.504" cy="223.345" r="1.219"/>
		<circle fill="#7AC2F7" cx="41.391" cy="182.464" r="1.219"/>
		<circle fill="#7AC2F7" cx="82.504" cy="223.345" r="1.219"/>
		<circle fill="#7AC2F7" cx="41.391" cy="182.464" r="1.219"/>
		<circle fill="#7AC2F7" cx="82.504" cy="223.345" r="1.219"/>
		<circle fill="#7AC2F7" cx="70.002" cy="215.94" r="1.219"/>
		<circle fill="#7AC2F7" cx="82.504" cy="223.345" r="1.219"/>
		<circle fill="#7AC2F7" cx="65.88" cy="157.965" r="1.219"/>
		<circle fill="#7AC2F7" cx="82.504" cy="223.345" r="1.219"/>
		<circle fill="#7AC2F7" cx="65.88" cy="157.965" r="1.219"/>
		<circle fill="#7AC2F7" cx="82.504" cy="223.345" r="1.219"/>
		<circle fill="#7AC2F7" cx="205.447" cy="219.427" r="1.219"/>
		<circle fill="#7AC2F7" cx="252.395" cy="224.28" r="1.219"/>
		<circle fill="#7AC2F7" cx="231.144" cy="174.729" r="1.219"/>
		<circle fill="#7AC2F7" cx="252.395" cy="224.28" r="1.219"/>
		<circle fill="#7AC2F7" cx="367.971" cy="187.449" r="1.219"/>
		<circle fill="#7AC2F7" cx="344.445" cy="189.017" r="1.219"/>
		<circle fill="#7AC2F7" cx="284.832" cy="132.188" r="1.219"/>
		<circle fill="#7AC2F7" cx="344.445" cy="189.017" r="1.219"/>
		<circle fill="#7AC2F7" cx="296.982" cy="144.854" r="1.219"/>
		<circle fill="#7AC2F7" cx="344.445" cy="189.017" r="1.219"/>
		<circle fill="#7AC2F7" cx="344.445" cy="189.017" r="1.219"/>
		<circle fill="#7AC2F7" cx="381.063" cy="143.336" r="1.219"/>
		<circle fill="#7AC2F7" cx="367.971" cy="187.449" r="1.219"/>
		<circle fill="#7AC2F7" cx="381.063" cy="143.336" r="1.219"/>
		<circle fill="#7AC2F7" cx="407.051" cy="104.942" r="1.219"/>
		<circle fill="#7AC2F7" cx="381.063" cy="143.336" r="1.219"/>
		<circle fill="#7AC2F7" cx="407.051" cy="104.942" r="1.219"/>
		<circle fill="#7AC2F7" cx="381.063" cy="143.336" r="1.219"/>
		<circle fill="#7AC2F7" cx="437.058" cy="132.513" r="1.219"/>
		<circle fill="#7AC2F7" cx="381.063" cy="143.336" r="1.219"/>
		<circle fill="#7AC2F7" cx="404.767" cy="107.074" r="1.219"/>
		<circle fill="#7AC2F7" cx="381.063" cy="143.336" r="1.219"/>
		<circle fill="#7AC2F7" cx="375.407" cy="80.545" r="1.219"/>
		<circle fill="#7AC2F7" cx="381.063" cy="143.336" r="1.219"/>
		<circle fill="#7AC2F7" cx="296.982" cy="144.854" r="1.219"/>
		<circle fill="#7AC2F7" cx="381.063" cy="143.336" r="1.219"/>
		<circle fill="#7AC2F7" cx="381.063" cy="143.336" r="1.219"/>
		<circle fill="#7AC2F7" cx="332.006" cy="105.922" r="1.219"/>
		<circle fill="#7AC2F7" cx="344.445" cy="189.017" r="1.219"/>
		<circle fill="#7AC2F7" cx="332.006" cy="105.922" r="1.219"/>
		<circle fill="#7AC2F7" cx="284.832" cy="132.188" r="1.219"/>
		<circle fill="#7AC2F7" cx="332.006" cy="105.922" r="1.219"/>
		<circle fill="#7AC2F7" cx="407.051" cy="104.942" r="1.219"/>
		<circle fill="#7AC2F7" cx="332.006" cy="105.922" r="1.219"/>
		<circle fill="#7AC2F7" cx="407.051" cy="104.942" r="1.219"/>
		<circle fill="#7AC2F7" cx="332.006" cy="105.922" r="1.219"/>
		<circle fill="#7AC2F7" cx="264.424" cy="82.835" r="1.219"/>
		<circle fill="#7AC2F7" cx="332.006" cy="105.922" r="1.219"/>
		<circle fill="#7AC2F7" cx="404.767" cy="107.074" r="1.219"/>
		<circle fill="#7AC2F7" cx="332.006" cy="105.922" r="1.219"/>
		<circle fill="#7AC2F7" cx="264.895" cy="54.447" r="1.219"/>
		<circle fill="#7AC2F7" cx="332.006" cy="105.922" r="1.219"/>
		<circle fill="#7AC2F7" cx="375.407" cy="80.545" r="1.219"/>
		<circle fill="#7AC2F7" cx="332.006" cy="105.922" r="1.219"/>
		<circle fill="#7AC2F7" cx="296.982" cy="144.854" r="1.219"/>
		<circle fill="#7AC2F7" cx="332.006" cy="105.922" r="1.219"/>
		<circle fill="#7AC2F7" cx="-47.69" cy="171.223" r="1.219"/>
		<circle fill="#7AC2F7" cx="-34.778" cy="161.803" r="1.219"/>
		<circle fill="#7AC2F7" cx="41.391" cy="182.464" r="1.219"/>
		<circle fill="#7AC2F7" cx="-34.778" cy="161.803" r="1.219"/>
		<circle fill="#7AC2F7" cx="41.391" cy="182.464" r="1.219"/>
		<circle fill="#7AC2F7" cx="-34.778" cy="161.803" r="1.219"/>
		<circle fill="#7AC2F7" cx="-92.26" cy="171.385" r="1.219"/>
		<circle fill="#7AC2F7" cx="-34.778" cy="161.803" r="1.219"/>
		<circle fill="#7AC2F7" cx="-34.778" cy="161.803" r="1.219"/>
		<circle fill="#7AC2F7" cx="-23.356" cy="215.268" r="1.219"/>
		<circle fill="#7AC2F7" cx="-47.69" cy="171.223" r="1.219"/>
		<circle fill="#7AC2F7" cx="-23.356" cy="215.268" r="1.219"/>
		<circle fill="#7AC2F7" cx="41.391" cy="182.464" r="1.219"/>
		<circle fill="#7AC2F7" cx="-23.356" cy="215.268" r="1.219"/>
		<circle fill="#7AC2F7" cx="41.391" cy="182.464" r="1.219"/>
		<circle fill="#7AC2F7" cx="-23.356" cy="215.268" r="1.219"/>
		<circle fill="#7AC2F7" cx="-92.26" cy="171.385" r="1.219"/>
		<circle fill="#7AC2F7" cx="-23.356" cy="215.268" r="1.219"/>
		<circle fill="#7AC2F7" cx="-23.356" cy="215.268" r="1.219"/>
		<circle fill="#7AC2F7" cx="-0.457" cy="133.392" r="1.219"/>
		<circle fill="#7AC2F7" cx="-34.778" cy="161.803" r="1.219"/>
		<circle fill="#7AC2F7" cx="-0.457" cy="133.392" r="1.219"/>
		<circle fill="#7AC2F7" cx="-47.69" cy="171.223" r="1.219"/>
		<circle fill="#7AC2F7" cx="-0.457" cy="133.392" r="1.219"/>
		<circle fill="#7AC2F7" cx="41.391" cy="182.464" r="1.219"/>
		<circle fill="#7AC2F7" cx="-0.457" cy="133.392" r="1.219"/>
		<circle fill="#7AC2F7" cx="41.391" cy="182.464" r="1.219"/>
		<circle fill="#7AC2F7" cx="-0.457" cy="133.392" r="1.219"/>
		<circle fill="#7AC2F7" cx="47.1" cy="120.575" r="1.219"/>
		<circle fill="#7AC2F7" cx="-0.457" cy="133.392" r="1.219"/>
		<circle fill="#7AC2F7" cx="62.179" cy="132.153" r="1.219"/>
		<circle fill="#7AC2F7" cx="-0.457" cy="133.392" r="1.219"/>
		<circle fill="#7AC2F7" cx="65.88" cy="157.965" r="1.219"/>
		<circle fill="#7AC2F7" cx="-0.457" cy="133.392" r="1.219"/>
		<circle fill="#7AC2F7" cx="65.88" cy="157.965" r="1.219"/>
		<circle fill="#7AC2F7" cx="-0.457" cy="133.392" r="1.219"/>
		<circle fill="#7AC2F7" cx="87.444" cy="70.431" r="1.219"/>
		<circle fill="#7AC2F7" cx="168.149" cy="68.115" r="1.219"/>
		<circle fill="#7AC2F7" cx="137.789" cy="109.93" r="1.219"/>
		<circle fill="#7AC2F7" cx="168.149" cy="68.115" r="1.219"/>
		<circle fill="#7AC2F7" cx="168.04" cy="140.232" r="1.219"/>
		<circle fill="#7AC2F7" cx="168.149" cy="68.115" r="1.219"/>
		<circle fill="#7AC2F7" cx="168.149" cy="68.115" r="1.219"/>
		<circle fill="#7AC2F7" cx="230.341" cy="64.99" r="1.219"/>
		<circle fill="#7AC2F7" cx="284.832" cy="132.188" r="1.219"/>
		<circle fill="#7AC2F7" cx="230.341" cy="64.99" r="1.219"/>
		<circle fill="#7AC2F7" cx="240.369" cy="124.359" r="1.219"/>
		<circle fill="#7AC2F7" cx="230.341" cy="64.99" r="1.219"/>
		<circle fill="#7AC2F7" cx="264.424" cy="82.835" r="1.219"/>
		<circle fill="#7AC2F7" cx="230.341" cy="64.99" r="1.219"/>
		<circle fill="#7AC2F7" cx="264.895" cy="54.447" r="1.219"/>
		<circle fill="#7AC2F7" cx="230.341" cy="64.99" r="1.219"/>
		<circle fill="#7AC2F7" cx="230.341" cy="64.99" r="1.219"/>
		<circle fill="#7AC2F7" cx="200.379" cy="105.119" r="1.219"/>
		<circle fill="#7AC2F7" cx="168.149" cy="68.115" r="1.219"/>
		<circle fill="#7AC2F7" cx="200.379" cy="105.119" r="1.219"/>
		<circle fill="#7AC2F7" cx="240.369" cy="124.359" r="1.219"/>
		<circle fill="#7AC2F7" cx="200.379" cy="105.119" r="1.219"/>
		<circle fill="#7AC2F7" cx="264.424" cy="82.835" r="1.219"/>
		<circle fill="#7AC2F7" cx="200.379" cy="105.119" r="1.219"/>
		<circle fill="#7AC2F7" cx="231.144" cy="174.729" r="1.219"/>
		<circle fill="#7AC2F7" cx="200.379" cy="105.119" r="1.219"/>
		<circle fill="#7AC2F7" cx="264.895" cy="54.447" r="1.219"/>
		<circle fill="#7AC2F7" cx="200.379" cy="105.119" r="1.219"/>
		<circle fill="#7AC2F7" cx="137.789" cy="109.93" r="1.219"/>
		<circle fill="#7AC2F7" cx="200.379" cy="105.119" r="1.219"/>
		<circle fill="#7AC2F7" cx="168.04" cy="140.232" r="1.219"/>
		<circle fill="#7AC2F7" cx="200.379" cy="105.119" r="1.219"/>
		<circle fill="#7AC2F7" cx="147.324" cy="163.839" r="1.219"/>
		<circle fill="#7AC2F7" cx="200.379" cy="105.119" r="1.219"/>
		<circle fill="#7AC2F7" cx="344.445" cy="189.017" r="1.219"/>
		<circle fill="#7AC2F7" cx="291.039" cy="188.874" r="1.219"/>
		<circle fill="#7AC2F7" cx="252.395" cy="224.28" r="1.219"/>
		<circle fill="#7AC2F7" cx="291.039" cy="188.874" r="1.219"/>
		<circle fill="#7AC2F7" cx="367.971" cy="187.449" r="1.219"/>
		<circle fill="#7AC2F7" cx="291.039" cy="188.874" r="1.219"/>
		<circle fill="#7AC2F7" cx="284.832" cy="132.188" r="1.219"/>
		<circle fill="#7AC2F7" cx="291.039" cy="188.874" r="1.219"/>
		<circle fill="#7AC2F7" cx="240.369" cy="124.359" r="1.219"/>
		<circle fill="#7AC2F7" cx="291.039" cy="188.874" r="1.219"/>
		<circle fill="#7AC2F7" cx="231.144" cy="174.729" r="1.219"/>
		<circle fill="#7AC2F7" cx="291.039" cy="188.874" r="1.219"/>
		<circle fill="#7AC2F7" cx="296.982" cy="144.854" r="1.219"/>
		<circle fill="#7AC2F7" cx="291.039" cy="188.874" r="1.219"/>
		<circle fill="#7AC2F7" cx="381.063" cy="143.336" r="1.219"/>
		<circle fill="#7AC2F7" cx="414.395" cy="168.131" r="1.219"/>
		<circle fill="#7AC2F7" cx="344.445" cy="189.017" r="1.219"/>
		<circle fill="#7AC2F7" cx="414.395" cy="168.131" r="1.219"/>
		<circle fill="#7AC2F7" cx="367.971" cy="187.449" r="1.219"/>
		<circle fill="#7AC2F7" cx="414.395" cy="168.131" r="1.219"/>
		<circle fill="#7AC2F7" cx="407.051" cy="104.942" r="1.219"/>
		<circle fill="#7AC2F7" cx="414.395" cy="168.131" r="1.219"/>
		<circle fill="#7AC2F7" cx="407.051" cy="104.942" r="1.219"/>
		<circle fill="#7AC2F7" cx="414.395" cy="168.131" r="1.219"/>
		<circle fill="#7AC2F7" cx="437.058" cy="132.513" r="1.219"/>
		<circle fill="#7AC2F7" cx="414.395" cy="168.131" r="1.219"/>
		<circle fill="#7AC2F7" cx="404.767" cy="107.074" r="1.219"/>
		<circle fill="#7AC2F7" cx="414.395" cy="168.131" r="1.219"/>
		<circle fill="#7AC2F7" cx="437.058" cy="132.513" r="1.219"/>
		<circle fill="#7AC2F7" cx="512.5" cy="129.845" r="1.219"/>
		<circle fill="#7AC2F7" cx="332.006" cy="105.922" r="1.219"/>
		<circle fill="#7AC2F7" cx="317.503" cy="57.965" r="1.219"/>
		<circle fill="#7AC2F7" cx="284.832" cy="132.188" r="1.219"/>
		<circle fill="#7AC2F7" cx="317.503" cy="57.965" r="1.219"/>
		<circle fill="#7AC2F7" cx="264.424" cy="82.835" r="1.219"/>
		<circle fill="#7AC2F7" cx="317.503" cy="57.965" r="1.219"/>
		<circle fill="#7AC2F7" cx="264.895" cy="54.447" r="1.219"/>
		<circle fill="#7AC2F7" cx="317.503" cy="57.965" r="1.219"/>
		<circle fill="#7AC2F7" cx="375.407" cy="80.545" r="1.219"/>
		<circle fill="#7AC2F7" cx="317.503" cy="57.965" r="1.219"/>
		<circle fill="#7AC2F7" cx="512.5" cy="129.845" r="1.219"/>
		<circle fill="#7AC2F7" cx="469.243" cy="101.816" r="1.219"/>
		<circle fill="#7AC2F7" cx="414.395" cy="168.131" r="1.219"/>
		<circle fill="#7AC2F7" cx="469.243" cy="101.816" r="1.219"/>
		<circle fill="#7AC2F7" cx="407.051" cy="104.942" r="1.219"/>
		<circle fill="#7AC2F7" cx="469.243" cy="101.816" r="1.219"/>
		<circle fill="#7AC2F7" cx="407.051" cy="104.942" r="1.219"/>
		<circle fill="#7AC2F7" cx="469.243" cy="101.816" r="1.219"/>
		<circle fill="#7AC2F7" cx="437.058" cy="132.513" r="1.219"/>
		<circle fill="#7AC2F7" cx="469.243" cy="101.816" r="1.219"/>
		<circle fill="#7AC2F7" cx="404.767" cy="107.074" r="1.219"/>
		<circle fill="#7AC2F7" cx="469.243" cy="101.816" r="1.219"/>
		<circle fill="#7AC2F7" cx="-0.457" cy="133.392" r="1.219"/>
		<circle fill="#7AC2F7" cx="14.663" cy="212.667" r="1.219"/>
		<circle fill="#7AC2F7" cx="-23.356" cy="215.268" r="1.219"/>
		<circle fill="#7AC2F7" cx="14.663" cy="212.667" r="1.219"/>
		<circle fill="#7AC2F7" cx="-34.778" cy="161.803" r="1.219"/>
		<circle fill="#7AC2F7" cx="14.663" cy="212.667" r="1.219"/>
		<circle fill="#7AC2F7" cx="82.504" cy="223.345" r="1.219"/>
		<circle fill="#7AC2F7" cx="14.663" cy="212.667" r="1.219"/>
		<circle fill="#7AC2F7" cx="-47.69" cy="171.223" r="1.219"/>
		<circle fill="#7AC2F7" cx="14.663" cy="212.667" r="1.219"/>
		<circle fill="#7AC2F7" cx="41.391" cy="182.464" r="1.219"/>
		<circle fill="#7AC2F7" cx="14.663" cy="212.667" r="1.219"/>
		<circle fill="#7AC2F7" cx="41.391" cy="182.464" r="1.219"/>
		<circle fill="#7AC2F7" cx="14.663" cy="212.667" r="1.219"/>
		<circle fill="#7AC2F7" cx="70.002" cy="215.94" r="1.219"/>
		<circle fill="#7AC2F7" cx="14.663" cy="212.667" r="1.219"/>
		<circle fill="#7AC2F7" cx="65.88" cy="157.965" r="1.219"/>
		<circle fill="#7AC2F7" cx="14.663" cy="212.667" r="1.219"/>
		<circle fill="#7AC2F7" cx="65.88" cy="157.965" r="1.219"/>
		<circle fill="#7AC2F7" cx="14.663" cy="212.667" r="1.219"/>
	</g>
</g>
</svg>
