<?xml version="1.0" encoding="utf-8"?>
<!-- Generator: Adobe Illustrator 16.0.3, SVG Export Plug-In . SVG Version: 6.00 Build 0)  -->
<!DOCTYPE svg PUBLIC "-//W3C//DTD SVG 1.1//EN" "http://www.w3.org/Graphics/SVG/1.1/DTD/svg11.dtd">
<svg version="1.1" id="圖層_1" xmlns="http://www.w3.org/2000/svg" xmlns:xlink="http://www.w3.org/1999/xlink" x="0px" y="0px"
	 width="24px" height="24px" viewBox="0 0 24 24" enable-background="new 0 0 24 24" xml:space="preserve">
<g>
	<linearGradient id="SVGID_1_" gradientUnits="userSpaceOnUse" x1="13.1045" y1="-0.1665" x2="13.1045" y2="22.9871">
		<stop  offset="0" style="stop-color:#2196EB"/>
		<stop  offset="0.9694" style="stop-color:#619CA3"/>
	</linearGradient>
	<path fill="url(#SVGID_1_)" d="M3.875,17.695c0.082,0,0.118,0,0.155,0c2.762,0.003,5.523,0.003,8.285,0.007
		c0.662,0,1.324,0.007,1.983,0.019c0.114,0.002,0.158-0.021,0.158-0.15c-0.004-1.496-0.003-2.993-0.003-4.49
		c0-0.041,0-0.082,0-0.135c-1.357,0-2.703,0-4.062,0c-0.004-0.057-0.01-0.102-0.01-0.146c0-1.447,0.001-2.895-0.002-4.342
		c0-0.109,0.029-0.143,0.14-0.142c3.618,0.002,7.236,0.002,10.855,0c0.087,0,0.135,0.025,0.167,0.109
		c0.09,0.245,0.188,0.486,0.294,0.761c-1.871,0-3.712,0-5.552,0c-0.004,0.012-0.006,0.023-0.008,0.035
		c0.104,0.078,0.217,0.151,0.315,0.237c0.241,0.209,0.481,0.422,0.716,0.641c0.073,0.071,0.146,0.104,0.25,0.104
		c1.457-0.003,2.911-0.002,4.368-0.002c0.185,0,0.187,0,0.22,0.182c0.035,0.205,0.067,0.409,0.102,0.614
		c0.002,0.015-0.003,0.032-0.007,0.065c-1.367,0-2.731,0-4.122,0c0.033,0.059,0.051,0.094,0.07,0.128
		c0.146,0.256,0.295,0.51,0.434,0.771c0.046,0.086,0.095,0.118,0.191,0.118c1.114-0.003,2.229-0.002,3.344-0.002
		c0.172,0,0.176,0,0.177,0.167c0,0.208-0.007,0.416-0.011,0.624c-0.002,0.016-0.006,0.032-0.01,0.065c-1.078,0-2.155,0-3.252,0
		c0.017,0.061,0.024,0.099,0.035,0.137c0.066,0.252,0.144,0.503,0.196,0.758c0.022,0.104,0.063,0.125,0.157,0.124
		c0.859-0.002,1.722-0.001,2.583-0.001c0.049,0,0.098,0,0.171,0c-0.03,0.172-0.055,0.33-0.088,0.484
		c-0.025,0.121-0.028,0.283-0.106,0.348c-0.077,0.061-0.235,0.025-0.36,0.025c-0.701,0.002-1.403,0.002-2.106,0.002
		c-0.175,0-0.183,0-0.192,0.168c-0.017,0.258-0.023,0.517-0.029,0.772c-0.002,0.022,0.035,0.058,0.063,0.069
		c0.028,0.011,0.064,0.004,0.1,0.004c0.689,0,1.381,0,2.07,0c0.045,0,0.09,0,0.161,0c-0.078,0.188-0.163,0.35-0.209,0.521
		c-0.078,0.288-0.247,0.358-0.534,0.346c-0.548-0.027-1.098-0.006-1.646-0.012c-0.11-0.002-0.161,0.026-0.189,0.139
		c-0.067,0.252-0.153,0.5-0.231,0.748c-0.01,0.035-0.021,0.07-0.036,0.125c0.638,0,1.262,0,1.919,0
		c-0.092,0.137-0.161,0.246-0.237,0.354c-0.104,0.145-0.208,0.291-0.321,0.428c-0.037,0.043-0.107,0.079-0.162,0.08
		c-0.508,0.006-1.017,0.002-1.522,0.008c-0.056,0-0.128,0.037-0.161,0.08c-0.216,0.291-0.425,0.586-0.635,0.879
		c-0.016,0.022-0.03,0.047-0.059,0.092c0.5,0,0.98,0,1.463,0c0.005,0.01,0.01,0.02,0.014,0.029c-0.047,0.043-0.091,0.09-0.141,0.131
		c-0.271,0.221-0.541,0.44-0.815,0.655c-0.041,0.032-0.104,0.05-0.16,0.05c-0.378,0.004-0.757,0-1.136,0.004
		c-0.063,0.002-0.133,0.018-0.186,0.052c-0.422,0.28-0.84,0.567-1.26,0.853c-0.012,0.01-0.021,0.021-0.056,0.051
		c0.353,0,0.677,0,1.003,0c0,0.016,0,0.028,0,0.043c-2.721,1.147-5.438,1.147-8.162-0.027c0.034-0.002,0.067-0.008,0.101-0.008
		c0.628,0,1.256-0.002,1.884,0.004c0.117,0,0.15-0.036,0.146-0.149c-0.007-0.224-0.008-0.448,0-0.673
		c0.004-0.118-0.04-0.146-0.151-0.146c-1.186,0.004-2.371,0.002-3.556,0.004c-0.105,0-0.192-0.021-0.274-0.09
		c-0.271-0.228-0.544-0.449-0.818-0.674c-0.028-0.023-0.063-0.037-0.095-0.057c0.009-0.014,0.018-0.028,0.027-0.043
		c0.044,0,0.087,0,0.131,0c1.514,0,3.027,0,4.542,0c0.192,0,0.192,0,0.192-0.198c0-0.235-0.006-0.474,0.003-0.71
		c0.004-0.123-0.039-0.154-0.157-0.154c-1.847,0.004-3.693,0-5.54,0.004c-0.141,0.002-0.229-0.039-0.306-0.153
		C4.228,18.174,4.06,17.953,3.875,17.695z"/>
	<linearGradient id="SVGID_2_" gradientUnits="userSpaceOnUse" x1="12.3589" y1="-0.1665" x2="12.3589" y2="22.9871">
		<stop  offset="0" style="stop-color:#2196EB"/>
		<stop  offset="0.9694" style="stop-color:#619CA3"/>
	</linearGradient>
	<path fill="url(#SVGID_2_)" d="M16.54,3.275c-2.788,0-5.575,0-8.362,0C10.966,2.037,13.754,2.038,16.54,3.275z"/>
	<linearGradient id="SVGID_3_" gradientUnits="userSpaceOnUse" x1="17.6602" y1="-0.1665" x2="17.6602" y2="22.9871">
		<stop  offset="0" style="stop-color:#2196EB"/>
		<stop  offset="0.9694" style="stop-color:#619CA3"/>
	</linearGradient>
	<path fill="url(#SVGID_3_)" d="M20.913,7.173c-0.085,0-0.126,0-0.168,0c-2.058,0-4.114,0-6.171,0c-0.166,0-0.166,0-0.166-0.172
		c0-0.187,0.004-0.374-0.002-0.561c-0.004-0.094,0.023-0.131,0.126-0.131c1.896,0.003,3.79,0.001,5.685,0.005
		c0.053,0,0.121,0.036,0.151,0.078C20.548,6.639,20.721,6.893,20.913,7.173z"/>
	<linearGradient id="SVGID_4_" gradientUnits="userSpaceOnUse" x1="5.8491" y1="-0.1665" x2="5.8491" y2="22.9871">
		<stop  offset="0" style="stop-color:#2196EB"/>
		<stop  offset="0.9694" style="stop-color:#619CA3"/>
	</linearGradient>
	<path fill="url(#SVGID_4_)" d="M8.749,16.684c-0.069,0-0.109,0-0.149,0c-1.712,0-3.424,0-5.136,0.004
		c-0.108,0-0.162-0.035-0.202-0.133c-0.095-0.238-0.201-0.472-0.313-0.729c0.071,0,0.115,0,0.158,0c1.488,0,2.976,0,4.463-0.002
		c0.093,0,0.162,0.024,0.234,0.086c0.285,0.241,0.578,0.475,0.867,0.711C8.69,16.635,8.707,16.648,8.749,16.684z"/>
	<linearGradient id="SVGID_5_" gradientUnits="userSpaceOnUse" x1="16.8623" y1="-0.1665" x2="16.8623" y2="22.9871">
		<stop  offset="0" style="stop-color:#2196EB"/>
		<stop  offset="0.9694" style="stop-color:#619CA3"/>
	</linearGradient>
	<path fill="url(#SVGID_5_)" d="M19.3,5.203c-0.04,0-0.079,0-0.12,0c-1.539,0-3.076-0.002-4.615,0.002
		c-0.127,0-0.164-0.033-0.16-0.159c0.012-0.195,0.007-0.391,0.003-0.586c-0.001-0.081,0.018-0.12,0.11-0.12
		c1.246,0.002,2.494,0.001,3.74,0.003c0.039,0,0.088,0.007,0.117,0.03c0.316,0.261,0.631,0.525,0.945,0.788
		C19.313,5.175,19.307,5.188,19.3,5.203z"/>
	<linearGradient id="SVGID_6_" gradientUnits="userSpaceOnUse" x1="4.6099" y1="-0.1665" x2="4.6099" y2="22.9871">
		<stop  offset="0" style="stop-color:#2196EB"/>
		<stop  offset="0.9694" style="stop-color:#619CA3"/>
	</linearGradient>
	<path fill="url(#SVGID_6_)" d="M6.744,14.807c-0.049,0.002-0.089,0.004-0.129,0.004c-1.279,0.002-2.56,0-3.839,0.004
		c-0.099,0-0.149-0.021-0.168-0.127c-0.036-0.213-0.087-0.422-0.13-0.633c-0.005-0.027,0-0.058,0-0.098
		c0.05-0.002,0.095-0.006,0.139-0.006c1.155,0,2.31,0.001,3.465-0.002c0.097-0.001,0.147,0.031,0.195,0.111
		C6.424,14.309,6.581,14.547,6.744,14.807z"/>
	<linearGradient id="SVGID_7_" gradientUnits="userSpaceOnUse" x1="4.0356" y1="-0.1665" x2="4.0356" y2="22.9871">
		<stop  offset="0" style="stop-color:#2196EB"/>
		<stop  offset="0.9694" style="stop-color:#619CA3"/>
	</linearGradient>
	<path fill="url(#SVGID_7_)" d="M2.329,12.93c0-0.253,0.001-0.494-0.001-0.735c-0.001-0.091,0.038-0.12,0.129-0.12
		c0.981,0.002,1.963,0.002,2.944,0c0.077,0,0.116,0.017,0.137,0.103c0.059,0.249,0.133,0.494,0.205,0.75
		C4.615,12.93,3.491,12.93,2.329,12.93z"/>
	<linearGradient id="SVGID_8_" gradientUnits="userSpaceOnUse" x1="3.8892" y1="-0.1665" x2="3.8892" y2="22.9871">
		<stop  offset="0" style="stop-color:#2196EB"/>
		<stop  offset="0.9694" style="stop-color:#619CA3"/>
	</linearGradient>
	<path fill="url(#SVGID_8_)" d="M5.356,11.058c-0.972,0-1.942,0-2.938,0c0.02-0.151,0.036-0.296,0.059-0.44
		c0.017-0.106,0.051-0.21,0.063-0.317c0.011-0.083,0.053-0.1,0.125-0.1c0.196,0.002,0.391,0,0.586,0
		c0.652,0,1.305,0.003,1.958-0.002c0.122-0.001,0.156,0.034,0.15,0.156C5.349,10.586,5.356,10.818,5.356,11.058z"/>
	<linearGradient id="SVGID_9_" gradientUnits="userSpaceOnUse" x1="7.2656" y1="-0.1665" x2="7.2656" y2="22.9871">
		<stop  offset="0" style="stop-color:#2196EB"/>
		<stop  offset="0.9694" style="stop-color:#619CA3"/>
	</linearGradient>
	<path fill="url(#SVGID_9_)" d="M5.352,5.168c0.26-0.224,0.523-0.444,0.779-0.673c0.131-0.118,0.272-0.159,0.45-0.158
		c0.815,0.01,1.63,0.004,2.445,0.004c0.043,0,0.088,0,0.153,0c-0.237,0.15-0.457,0.28-0.669,0.424C8.334,4.883,8.171,5.019,8,5.144
		C7.962,5.171,7.913,5.2,7.869,5.2C7.037,5.203,6.206,5.202,5.374,5.202C5.367,5.191,5.359,5.179,5.352,5.168z"/>
	<linearGradient id="SVGID_10_" gradientUnits="userSpaceOnUse" x1="4.2881" y1="-0.1665" x2="4.2881" y2="22.9871">
		<stop  offset="0" style="stop-color:#2196EB"/>
		<stop  offset="0.9694" style="stop-color:#619CA3"/>
	</linearGradient>
	<path fill="url(#SVGID_10_)" d="M2.833,9.183C2.947,8.894,3.046,8.636,3.151,8.38c0.012-0.029,0.062-0.06,0.094-0.06
		c0.822-0.002,1.644,0,2.466,0.001c0.007,0,0.014,0.007,0.032,0.016C5.695,8.504,5.646,8.673,5.596,8.841
		c-0.012,0.04-0.024,0.08-0.035,0.12c-0.057,0.222-0.057,0.222-0.29,0.222c-0.748,0-1.495,0-2.243,0
		C2.976,9.183,2.923,9.183,2.833,9.183z"/>
	<linearGradient id="SVGID_11_" gradientUnits="userSpaceOnUse" x1="5.3022" y1="-0.1665" x2="5.3022" y2="22.9871">
		<stop  offset="0" style="stop-color:#2196EB"/>
		<stop  offset="0.9694" style="stop-color:#619CA3"/>
	</linearGradient>
	<path fill="url(#SVGID_11_)" d="M3.755,7.173C3.96,6.878,4.143,6.612,4.331,6.349c0.017-0.023,0.064-0.036,0.098-0.036
		c0.786-0.002,1.572-0.001,2.358-0.001c0.016,0,0.031,0.006,0.063,0.013C6.777,6.428,6.708,6.52,6.645,6.615
		C6.54,6.774,6.44,6.938,6.331,7.095C6.307,7.13,6.258,7.169,6.22,7.17C5.413,7.174,4.606,7.173,3.755,7.173z"/>
</g>
</svg>
