<?xml version="1.0" encoding="utf-8"?>
<!-- Generator: Adobe Illustrator 16.0.3, SVG Export Plug-In . SVG Version: 6.00 Build 0)  -->
<!DOCTYPE svg PUBLIC "-//W3C//DTD SVG 1.1//EN" "http://www.w3.org/Graphics/SVG/1.1/DTD/svg11.dtd">
<svg version="1.1" id="圖層_1" xmlns="http://www.w3.org/2000/svg" xmlns:xlink="http://www.w3.org/1999/xlink" x="0px" y="0px"
	 width="24px" height="24px" viewBox="0 0 24 24" enable-background="new 0 0 24 24" xml:space="preserve">
<g>
	<linearGradient id="SVGID_1_" gradientUnits="userSpaceOnUse" x1="11.6987" y1="-0.8335" x2="11.6987" y2="23.8893">
		<stop  offset="0" style="stop-color:#2196EB"/>
		<stop  offset="0.9694" style="stop-color:#619CA3"/>
	</linearGradient>
	<path fill="url(#SVGID_1_)" d="M12.209,2.491c0.249,0.046,0.5,0.083,0.746,0.141c0.883,0.207,1.596,0.691,2.197,1.355
		c0.369,0.409,0.723,0.832,1.096,1.237c0.729,0.792,1.66,1.155,2.715,1.232c0.417,0.031,0.839,0.027,1.26,0.039
		c0.072,0.002,0.146,0,0.24,0c0,0.366,0.005,0.708-0.001,1.05c-0.028,1.99-0.249,3.956-0.808,5.873
		c-0.688,2.357-1.797,4.479-3.555,6.225c-1.152,1.145-2.474,2.035-4.015,2.582c-0.268,0.096-0.51,0.094-0.776,0
		c-1.651-0.586-3.043-1.562-4.245-2.817c-1.635-1.708-2.676-3.753-3.33-6.007C3.094,11.183,2.9,8.913,2.938,6.616
		c0-0.032,0.007-0.065,0.013-0.121c0.22,0,0.433,0.015,0.642-0.003C4.14,6.445,4.694,6.422,5.23,6.317
		C6.057,6.153,6.706,5.67,7.26,5.048c0.444-0.498,0.877-1.01,1.359-1.47c0.675-0.644,1.512-0.964,2.437-1.051
		c0.054-0.005,0.106-0.024,0.159-0.037C11.547,2.491,11.877,2.491,12.209,2.491z M4.479,8.015c0,0.064-0.003,0.138,0,0.213
		c0.055,1.428,0.227,2.84,0.582,4.227c0.544,2.132,1.457,4.077,2.952,5.717c0.982,1.078,2.127,1.932,3.479,2.497
		c0.145,0.062,0.273,0.067,0.414-0.001c0.29-0.145,0.591-0.266,0.871-0.422c2.136-1.182,3.621-2.952,4.634-5.145
		c0.96-2.078,1.374-4.287,1.495-6.56c0.009-0.182,0.001-0.366,0.001-0.55c-0.07-0.011-0.132-0.023-0.192-0.029
		c-1.646-0.15-2.971-0.89-4.009-2.167c-0.233-0.288-0.481-0.566-0.733-0.84c-0.34-0.371-0.732-0.682-1.229-0.801
		c-1.35-0.324-2.575-0.158-3.532,0.967C8.906,5.48,8.6,5.835,8.285,6.181C7.587,6.947,6.751,7.5,5.742,7.76
		C5.332,7.865,4.91,7.929,4.479,8.015z"/>
	<linearGradient id="SVGID_2_" gradientUnits="userSpaceOnUse" x1="12.2378" y1="-0.8335" x2="12.2378" y2="23.8893">
		<stop  offset="0" style="stop-color:#2196EB"/>
		<stop  offset="0.9694" style="stop-color:#619CA3"/>
	</linearGradient>
	<path fill="url(#SVGID_2_)" d="M11.215,16.396c-1.307-1.304-2.629-2.623-3.932-3.922c0.652-0.651,1.31-1.308,1.981-1.979
		c0.623,0.634,1.274,1.296,1.928,1.961c1.373-1.373,2.703-2.701,4.015-4.014c0.689,0.689,1.35,1.346,1.986,1.982
		C15.21,12.405,13.213,14.398,11.215,16.396z"/>
</g>
</svg>
