<?xml version="1.0" encoding="utf-8"?>
<!-- Generator: Adobe Illustrator 16.0.3, SVG Export Plug-In . SVG Version: 6.00 Build 0)  -->
<!DOCTYPE svg PUBLIC "-//W3C//DTD SVG 1.1//EN" "http://www.w3.org/Graphics/SVG/1.1/DTD/svg11.dtd">
<svg version="1.1" id="圖層_1" xmlns="http://www.w3.org/2000/svg" xmlns:xlink="http://www.w3.org/1999/xlink" x="0px" y="0px"
	 width="24px" height="24px" viewBox="0 0 24 24" enable-background="new 0 0 24 24" xml:space="preserve">
<g>
	<linearGradient id="SVGID_1_" gradientUnits="userSpaceOnUse" x1="12.4077" y1="1.75" x2="12.4077" y2="22.5015">
		<stop  offset="0" style="stop-color:#2196EB"/>
		<stop  offset="0.9694" style="stop-color:#619CA3"/>
	</linearGradient>
	<path fill="url(#SVGID_1_)" d="M19.268,13.425c0,0.599,0,1.195,0,1.794c-0.033,0.146-0.064,0.295-0.099,0.44
		c-0.62,2.76-2.208,4.64-4.969,5.446c-0.246,0.071-0.499,0.115-0.75,0.172c-0.695,0-1.39,0-2.084,0
		c-0.044-0.017-0.087-0.037-0.133-0.047c-2.731-0.526-4.477-2.168-5.345-4.771c-0.17-0.508-0.229-1.053-0.34-1.579
		c0-0.372,0-0.744,0-1.114c0.015-0.07,0.038-0.14,0.045-0.211c0.13-1.187,0.538-2.271,1.215-3.253
		c1.734-2.51,3.47-5.019,5.207-7.528c0.26-0.375,0.57-0.377,0.828-0.005c1.737,2.518,3.476,5.035,5.212,7.554
		c0.538,0.78,0.9,1.637,1.098,2.565C19.189,13.066,19.229,13.245,19.268,13.425z M10.543,14.096c0.444,0,0.888,0,1.333,0
		c0.366,0,0.41,0.053,0.346,0.414c-0.129,0.731-0.263,1.463-0.377,2.195c-0.017,0.104,0.065,0.221,0.101,0.331
		c0.1-0.048,0.23-0.07,0.293-0.147c1.212-1.482,2.418-2.971,3.616-4.462c0.066-0.083,0.131-0.242,0.095-0.312
		c-0.039-0.073-0.2-0.113-0.308-0.114c-0.842-0.009-1.683-0.005-2.521-0.005c-0.409-0.001-0.448-0.051-0.377-0.451
		c0.139-0.779,0.281-1.558,0.406-2.339c0.018-0.104-0.064-0.222-0.102-0.334c-0.1,0.048-0.23,0.069-0.294,0.147
		c-1.268,1.551-2.529,3.108-3.787,4.667c-0.058,0.072-0.116,0.217-0.083,0.271c0.046,0.074,0.179,0.129,0.275,0.132
		C9.622,14.102,10.083,14.094,10.543,14.096z"/>
</g>
</svg>
