<?xml version="1.0" encoding="utf-8"?>
<!-- Generator: Adobe Illustrator 16.0.3, SVG Export Plug-In . SVG Version: 6.00 Build 0)  -->
<!DOCTYPE svg PUBLIC "-//W3C//DTD SVG 1.1//EN" "http://www.w3.org/Graphics/SVG/1.1/DTD/svg11.dtd">
<svg version="1.1" id="圖層_1" xmlns="http://www.w3.org/2000/svg" xmlns:xlink="http://www.w3.org/1999/xlink" x="0px" y="0px"
	 width="24px" height="24px" viewBox="0 0 24 24" enable-background="new 0 0 24 24" xml:space="preserve">
<g>
	
		<linearGradient id="SVGID_1_" gradientUnits="userSpaceOnUse" x1="294.3652" y1="-387.2939" x2="294.3652" y2="-408.9722" gradientTransform="matrix(1 0 0 -1 -285.6602 -383.96)">
		<stop  offset="0" style="stop-color:#2196EB"/>
		<stop  offset="0.9694" style="stop-color:#619CA3"/>
	</linearGradient>
	<path fill="url(#SVGID_1_)" d="M6,2.035C6.029,2.047,6.057,2.06,6.085,2.071c0.198,0.081,0.27,0.187,0.271,0.397
		C6.37,4.21,6.383,5.953,6.398,7.695C6.4,7.882,6.419,8.07,6.415,8.257c-0.01,0.404,0.169,0.708,0.476,0.95
		c0.104,0.082,0.212,0.158,0.317,0.237c0.574,0.432,0.901,0.998,0.896,1.725c-0.007,0.921-0.024,1.843-0.047,2.765
		c-0.025,1.008-0.064,2.018-0.093,3.023c-0.035,1.209-0.065,2.419-0.097,3.629c-0.006,0.209-0.007,0.418-0.007,0.626
		c-0.001,0.173,0.074,0.269,0.243,0.295c0.395,0.063,0.789,0.067,1.184,0.009c0.198-0.029,0.233-0.051,0.24-0.255
		c0.014-0.399,0.021-0.801,0.008-1.198c-0.039-1.141-0.089-2.278-0.136-3.42c-0.059-1.451-0.12-2.902-0.179-4.354
		c-0.015-0.379-0.045-0.758-0.034-1.136c0.021-0.709,0.352-1.264,0.903-1.698c0.208-0.163,0.422-0.321,0.605-0.509
		c0.21-0.215,0.315-0.482,0.316-0.798c0.006-1.729,0.025-3.457,0.041-5.185c0.001-0.174,0.018-0.348,0.018-0.521
		c-0.001-0.253,0.142-0.344,0.33-0.386c0.016-0.003,0.031-0.012,0.046-0.019c0.035,0,0.07,0,0.105,0
		c0.026,0.008,0.051,0.017,0.078,0.023c0.192,0.048,0.293,0.163,0.296,0.362c0.012,0.97,0.027,1.94,0.027,2.91
		c0,0.932-0.024,1.863-0.022,2.795c0.001,0.787-0.353,1.375-0.961,1.837c-0.141,0.107-0.287,0.208-0.421,0.324
		c-0.297,0.254-0.443,0.58-0.428,0.974c0.048,1.252,0.092,2.502,0.141,3.754c0.058,1.44,0.122,2.883,0.178,4.323
		c0.025,0.657,0.037,1.313,0.05,1.972c0.007,0.379-0.183,0.653-0.469,0.875c-0.269,0.207-0.587,0.256-0.913,0.279
		c-0.055,0.004-0.109,0.014-0.164,0.021c-0.215,0-0.431,0-0.646,0C8.15,22.459,8.002,22.438,7.858,22.4
		c-0.541-0.141-0.957-0.568-0.937-1.215c0.015-0.479,0.015-0.959,0.028-1.438c0.037-1.313,0.076-2.628,0.115-3.94
		c0.032-1.07,0.067-2.141,0.095-3.211c0.013-0.51,0.017-1.021,0.015-1.532c-0.002-0.266-0.118-0.494-0.307-0.675
		c-0.136-0.128-0.286-0.244-0.437-0.354C5.835,9.6,5.487,9.042,5.492,8.282C5.497,7.618,5.479,6.954,5.47,6.29
		C5.469,6.235,5.462,6.18,5.458,6.125c0-1.134,0-2.268,0-3.402c0.006-0.065,0.021-0.129,0.017-0.194
		C5.462,2.277,5.577,2.115,5.813,2.035C5.875,2.035,5.938,2.035,6,2.035z"/>
	
		<linearGradient id="SVGID_2_" gradientUnits="userSpaceOnUse" x1="301.8164" y1="-387.2939" x2="301.8164" y2="-408.9712" gradientTransform="matrix(1 0 0 -1 -285.6602 -383.96)">
		<stop  offset="0" style="stop-color:#2196EB"/>
		<stop  offset="0.9694" style="stop-color:#619CA3"/>
	</linearGradient>
	<path fill="url(#SVGID_2_)" d="M18.479,16.977c-0.004,0.064-0.01,0.131-0.01,0.195c-0.003,1.371-0.008,2.74-0.006,4.111
		c0,0.152-0.033,0.289-0.099,0.427c-0.222,0.474-0.597,0.717-1.105,0.744c-0.301,0.019-0.604,0.015-0.905-0.011
		c-0.424-0.035-0.739-0.254-0.959-0.62c-0.099-0.166-0.145-0.341-0.146-0.541c-0.006-2.724-0.021-5.445-0.028-8.169
		c-0.003-0.107-0.031-0.18-0.113-0.256c-0.393-0.36-0.65-0.812-0.842-1.301c-0.25-0.645-0.369-1.317-0.412-2.003
		c-0.093-1.487,0.112-2.933,0.625-4.333c0.274-0.753,0.646-1.454,1.188-2.054C16.104,2.68,16.614,2.3,17.258,2.13
		c0.182-0.047,0.369-0.065,0.553-0.097c0.07,0,0.141,0,0.209,0c0.026,0.006,0.054,0.015,0.08,0.019
		c0.225,0.029,0.338,0.141,0.346,0.365c0.015,0.346,0.015,0.693,0.02,1.039c0.003,0.152,0.012,0.304,0.018,0.456
		C18.479,8.267,18.479,12.622,18.479,16.977z M17.541,3.002c-0.143,0.061-0.27,0.11-0.389,0.168
		c-0.508,0.248-0.87,0.654-1.176,1.112c-0.664,0.998-0.966,2.124-1.127,3.293c-0.091,0.639-0.086,1.284-0.062,1.927
		c0.028,0.683,0.176,1.342,0.461,1.966c0.151,0.335,0.343,0.648,0.673,0.842c0.111,0.065,0.166,0.154,0.178,0.275
		c0.018,0.197,0.039,0.396,0.041,0.593c0.008,1.771,0.012,3.539,0.02,5.312c0.002,0.735,0.002,1.475,0.013,2.211
		c0.002,0.219,0.03,0.438,0.054,0.653c0.01,0.086,0.063,0.14,0.154,0.157c0.297,0.063,0.594,0.063,0.891,0.011
		c0.174-0.03,0.248-0.129,0.25-0.304c0.012-0.622,0.024-1.245,0.024-1.868c0-5.41-0.002-10.822-0.005-16.231
		C17.541,3.086,17.541,3.055,17.541,3.002z"/>
	
		<linearGradient id="SVGID_3_" gradientUnits="userSpaceOnUse" x1="293.4482" y1="-387.2939" x2="293.4482" y2="-408.9742" gradientTransform="matrix(1 0 0 -1 -285.6602 -383.96)">
		<stop  offset="0" style="stop-color:#2196EB"/>
		<stop  offset="0.9694" style="stop-color:#619CA3"/>
	</linearGradient>
	<path fill="url(#SVGID_3_)" d="M7.857,2.035c0.022,0.01,0.043,0.02,0.065,0.027c0.195,0.069,0.3,0.206,0.31,0.413
		c0.01,0.236,0.021,0.473,0.021,0.708C8.248,4.577,8.24,5.97,8.231,7.363c0,0.118-0.009,0.237-0.021,0.354
		C8.193,7.911,8.014,8.056,7.793,8.063C7.577,8.07,7.375,7.935,7.354,7.746c-0.023-0.2-0.032-0.402-0.031-0.604
		c0.002-1.48,0.008-2.961,0.013-4.441c0-0.107,0.016-0.214,0.022-0.321c0.012-0.166,0.1-0.268,0.257-0.316
		c0.026-0.008,0.051-0.02,0.076-0.029C7.746,2.035,7.802,2.035,7.857,2.035z"/>
	
		<linearGradient id="SVGID_4_" gradientUnits="userSpaceOnUse" x1="295.2988" y1="-387.2939" x2="295.2988" y2="-408.9724" gradientTransform="matrix(1 0 0 -1 -285.6602 -383.96)">
		<stop  offset="0" style="stop-color:#2196EB"/>
		<stop  offset="0.9694" style="stop-color:#619CA3"/>
	</linearGradient>
	<path fill="url(#SVGID_4_)" d="M9.757,2.035c0.024,0.012,0.049,0.022,0.072,0.036c0.151,0.09,0.264,0.182,0.263,0.398
		c-0.011,1.721-0.017,3.442,0.004,5.163C10.1,7.929,9.689,8.156,9.483,8.023C9.38,7.957,9.29,7.868,9.199,7.784
		C9.181,7.767,9.182,7.726,9.182,7.695c-0.001-1.77-0.001-3.539,0.001-5.309c0-0.042,0.022-0.098,0.052-0.125
		C9.328,2.18,9.429,2.11,9.527,2.035C9.604,2.035,9.681,2.035,9.757,2.035z"/>
</g>
</svg>
