<?xml version="1.0" encoding="utf-8"?>
<!-- Generator: Adobe Illustrator 16.0.3, SVG Export Plug-In . SVG Version: 6.00 Build 0)  -->
<!DOCTYPE svg PUBLIC "-//W3C//DTD SVG 1.1//EN" "http://www.w3.org/Graphics/SVG/1.1/DTD/svg11.dtd">
<svg version="1.1" id="圖層_1" xmlns="http://www.w3.org/2000/svg" xmlns:xlink="http://www.w3.org/1999/xlink" x="0px" y="0px"
	 width="24px" height="24px" viewBox="0 0 24 24" enable-background="new 0 0 24 24" xml:space="preserve">
<path fill="#445B65" d="M8.522,20.882c0,0.232-0.189,0.422-0.423,0.422H6.016c-0.233,0-0.422-0.189-0.422-0.422v-1.577
	c0-0.233,0.189-0.423,0.422-0.423H8.1c0.233,0,0.423,0.189,0.423,0.423V20.882z"/>
<path fill="#445B65" d="M18.604,20.882c0,0.232-0.189,0.422-0.423,0.422h-2.083c-0.234,0-0.423-0.189-0.423-0.422v-1.577
	c0-0.233,0.188-0.423,0.423-0.423h2.083c0.233,0,0.423,0.189,0.423,0.423V20.882z"/>
<path fill="#9ACB65" d="M18.857,3.505H5.452c-0.233,0-0.422,0.189-0.422,0.423v15.097c0,0.232,0.189,0.422,0.422,0.422h2.787
	c0.156,0.084,0.227,0.225,0.227,0.225c0.057,0.338,0.507,0.281,0.507,0.281h6.083c0.563-0.058,0.677-0.281,0.677-0.281
	c0.056-0.112,0.268-0.185,0.464-0.225h2.662c0.233,0,0.422-0.189,0.422-0.422V3.928C19.279,3.694,19.092,3.505,18.857,3.505z"/>
<path fill="#556F7A" d="M19.336,12.131c0,0.239-0.192,0.431-0.431,0.431H5.46c-0.238,0-0.431-0.192-0.431-0.431V5.006
	c0-0.238,0.193-0.43,0.431-0.43h13.445c0.238,0,0.43,0.192,0.43,0.43L19.336,12.131L19.336,12.131z"/>
<path fill="#0298E2" d="M19.336,13.854c0,0.238-0.192,0.432-0.431,0.432H5.46c-0.238,0-0.431-0.193-0.431-0.432V6.73
	C5.03,6.493,5.223,6.3,5.46,6.3h13.445c0.238,0,0.43,0.193,0.43,0.431L19.336,13.854L19.336,13.854z"/>
<rect x="8.522" y="4.97" fill="#AEBCC1" width="7.436" height="0.957"/>
<path fill="#679A37" d="M5.03,16.292v2.73c0,0.234,0.189,0.424,0.422,0.424h2.787c0.156,0.085,0.227,0.225,0.227,0.225
	c0.057,0.338,0.507,0.282,0.507,0.282h6.083c0.563-0.059,0.677-0.282,0.677-0.282c0.056-0.114,0.268-0.185,0.464-0.225h2.662
	c0.233,0,0.422-0.189,0.422-0.424v-2.73H5.03z"/>
<path fill="#FBFEFA" d="M8.748,18.146c0,0.106-0.086,0.192-0.191,0.192H6.234c-0.105,0-0.191-0.086-0.191-0.192v-1.325
	c0-0.106,0.086-0.193,0.191-0.193h2.321c0.106,0,0.192,0.087,0.192,0.193L8.748,18.146L8.748,18.146z"/>
<path fill="#FBFEFA" d="M17.984,18.146c0,0.106-0.086,0.192-0.191,0.192h-2.32c-0.106,0-0.192-0.086-0.192-0.192v-1.325
	c0-0.106,0.086-0.193,0.192-0.193h2.32c0.105,0,0.191,0.087,0.191,0.193V18.146z"/>
<path fill="#435967" d="M14.446,17.9c0,0.107-0.121,0.193-0.27,0.193H9.804c-0.148,0-0.268-0.086-0.268-0.193v-0.741
	c0-0.106,0.12-0.192,0.268-0.192h4.373c0.148,0,0.27,0.086,0.27,0.192V17.9z"/>
<path fill="#28B3F5" d="M5.117,7.349c0,0-0.061-0.971,1.062-0.971H16.83l-7.312,7.798H6.724c0,0-1.638,0.274-1.638-1.001
	L5.117,7.349z"/>
</svg>
