<?xml version="1.0" encoding="utf-8"?>
<!-- Generator: Adobe Illustrator 16.0.3, SVG Export Plug-In . SVG Version: 6.00 Build 0)  -->
<!DOCTYPE svg PUBLIC "-//W3C//DTD SVG 1.1//EN" "http://www.w3.org/Graphics/SVG/1.1/DTD/svg11.dtd">
<svg version="1.1" id="圖層_1" xmlns="http://www.w3.org/2000/svg" xmlns:xlink="http://www.w3.org/1999/xlink" x="0px" y="0px"
	 width="24px" height="24px" viewBox="0 0 24 24" enable-background="new 0 0 24 24" xml:space="preserve">
<path fill="#FFFFFF" d="M22,10.392c0-2.523-2.046-4.57-4.57-4.57c-0.088,0-0.177,0.003-0.266,0.009
	c-0.539-1.921-2.303-3.329-4.396-3.329c-2.094,0-3.857,1.41-4.398,3.331c-0.099-0.006-0.2-0.011-0.301-0.011
	c-2.524,0-4.569,2.045-4.569,4.569c0,1.639,0.863,3.077,2.161,3.883c-0.214,0.528-0.333,1.106-0.333,1.711
	c0,2.523,2.045,4.57,4.569,4.57c1.124,0,2.153-0.407,2.949-1.081c0.789,0.65,1.801,1.044,2.906,1.044
	c2.523,0,4.569-2.046,4.569-4.569c0-0.624-0.125-1.219-0.351-1.76C21.194,13.371,22,11.976,22,10.392z"/>
<path fill="#00A960" d="M21.049,10.485c0-2.132-1.728-3.86-3.859-3.86c-0.234,0-0.461,0.021-0.684,0.061
	c-0.227-1.863-1.813-3.306-3.736-3.306c-1.95,0-3.553,1.481-3.748,3.378C8.751,6.696,8.47,6.663,8.181,6.663
	c-2.06,0-3.73,1.67-3.73,3.729c0,1.566,0.964,2.903,2.331,3.458c-0.389,0.593-0.615,1.302-0.615,2.062
	c0,2.081,1.687,3.768,3.767,3.768c1.165,0,2.205-0.529,2.897-1.359c0.683,0.809,1.705,1.322,2.848,1.322
	c2.06,0,3.729-1.671,3.729-3.73c0-0.713-0.2-1.378-0.547-1.945C20.155,13.344,21.049,12.019,21.049,10.485z"/>
<path fill="#FFFFFF" d="M20.304,10.485c0-1.689-1.37-3.059-3.06-3.059c-0.585,0-1.13,0.165-1.596,0.45
	c0.043-0.205,0.065-0.417,0.065-0.636c0-1.689-1.369-3.059-3.058-3.059c-1.69,0-3.059,1.37-3.059,3.06
	c0,0.163,0.014,0.323,0.037,0.478C9.221,7.509,8.752,7.39,8.255,7.39c-1.689,0-3.059,1.369-3.059,3.059
	c0,1.598,1.227,2.909,2.789,3.047c-0.656,0.561-1.072,1.394-1.072,2.325c0,1.688,1.37,3.059,3.059,3.059
	c1.24,0,2.307-0.739,2.787-1.8c0.489,1.041,1.545,1.763,2.77,1.763c1.691,0,3.059-1.369,3.059-3.06c0-0.894-0.385-1.699-0.994-2.258
	C19.116,13.351,20.304,12.058,20.304,10.485z"/>
<polygon fill="#00A960" points="12.104,4.102 11.805,7.246 13.856,7.246 13.633,4.064 "/>
<polygon fill="#00A960" points="11.843,8.723 13.895,8.723 14.863,18.909 12.85,18.192 10.948,18.872 "/>
</svg>
