<?xml version="1.0" encoding="utf-8"?>
<!-- Generator: Adobe Illustrator 16.0.3, SVG Export Plug-In . SVG Version: 6.00 Build 0)  -->
<!DOCTYPE svg PUBLIC "-//W3C//DTD SVG 1.1//EN" "http://www.w3.org/Graphics/SVG/1.1/DTD/svg11.dtd">
<svg version="1.1" id="圖層_1" xmlns="http://www.w3.org/2000/svg" xmlns:xlink="http://www.w3.org/1999/xlink" x="0px" y="0px"
	 width="24px" height="24px" viewBox="0 0 24 24" enable-background="new 0 0 24 24" xml:space="preserve">
<g>
	<path fill="#0A51A1" d="M6.521,8.953l1.157-1.077c0,0,1.875-4.149,5.705-3.989c0,0,2.752,0.08,2.832,3.351h2.074
		c0,0,0.2-4.308-4.428-4.468c0,0-3.79-0.12-6.184,3.511C7.678,6.28,6.601,7.795,6.521,8.953z"/>
	<path fill="#66B822" d="M6.322,9.67h2.154c0,0-0.199,3.47,3.231,3.431c0,0,3.351,0.039,5.146-3.79l1.276-1.316
		c0,0-0.997,4.907-6.224,6.144c0,0-2.992,0.479-4.548-1.396C7.358,12.742,6.441,11.904,6.322,9.67z"/>
	<path fill="#66B822" d="M6.96,9.152l1.555-1.556h0.998l1.995-2.074h2.914L14.658,6h-2.153l-1.556,1.556h0.599
		c0,0,0.12,0.04,0.319-0.239l0.718-0.718c0,0,0.16-0.08,0.439-0.08h2.234l0.438,0.837l-2.832-0.08l-1.794,1.676
		c0,0-0.16,0.24-0.718,0.24L6.96,9.152z"/>
	<path fill="#0A51A1" d="M17.651,7.816l-1.556,1.555h-0.997l-1.995,2.075h-2.913l-0.239-0.479h2.154l1.555-1.556h-0.599
		c0,0-0.119-0.04-0.318,0.24l-0.718,0.718c0,0-0.16,0.08-0.438,0.08H9.354L8.915,9.611l2.833,0.08l1.795-1.675
		c0,0,0.16-0.239,0.718-0.239L17.651,7.816z"/>
	<path d="M3.37,18.825l0.618-2.612c0,0,0.1-0.339-0.08-0.399h0.958c0,0,1.037-0.278,1.516,0.18c0,0,1.556-0.658,2.194,0.021
		c0,0,0.28,0.3,0.16,0.737l-0.398,1.735c0,0-0.04,0.221,0.06,0.359H7.339l0.159-0.997l0.2-1.037c0,0,0.16-0.498-0.379-0.498
		c0,0-0.438,0.039-0.539,0.519l-0.359,1.654l0.021,0.359l-1.098-0.021l0.439-1.954c0,0,0.2-0.638-0.379-0.558
		c0,0-0.458-0.021-0.578,0.617l-0.319,1.556c0,0-0.08,0.261,0,0.359L3.37,18.825z"/>
	<path d="M11.527,15.813c0,0-1.416-0.538-2.194,0.818c0,0-0.738,1.416,0.539,2.134c0,0,0.299,0.08,0.519,0.12
		c0,0,0.978,0.08,1.396-0.061l0.299-0.657c0,0-1.057,0.339-1.636,0.06c0,0-0.319-0.08-0.339-0.599l2.174-0.02
		C12.285,17.609,12.744,16.152,11.527,15.813z M11.408,17.031l-1.217-0.02c0.08-0.698,0.738-0.719,0.738-0.719
		C11.527,16.313,11.408,17.031,11.408,17.031z"/>
	<path d="M13.203,15.355c0,0,0.957-0.18,1.275-0.359l-0.219,0.799h0.839l-0.141,0.637H14.16l-0.438,1.916c0,0-0.04,0.259,0.04,0.458
		h-1.157l0.379-1.875C12.983,16.931,13.322,15.675,13.203,15.355z"/>
	<path d="M15.477,15.795c0,0,0.08,0.259,0.04,0.478l-0.598,2.573h1.156c0,0,0-1.196,0.278-1.834c0,0,0.141-1.097,1.197-0.519
		l0.439-0.619c0,0-0.619-0.318-1.535-0.04L15.477,15.795z"/>
	<path d="M20.065,15.754c-1.218-0.198-1.896,0.5-1.896,0.5c-0.738,0.896-0.399,1.734-0.399,1.734
		c0.359,1.157,1.815,0.918,1.815,0.918c1.476,0,1.655-1.396,1.655-1.396C21.581,15.993,20.065,15.754,20.065,15.754z M20.184,17.29
		c0,0-0.02,1.117-0.837,1.077c0,0-0.759,0.04-0.519-1.296c0,0,0.139-0.799,0.917-0.758C19.745,16.313,20.363,16.413,20.184,17.29z"
		/>
	<g>
		<path d="M9.577,21.524H9.235l0.291-1.382H9.039l0.057-0.277h1.308l-0.058,0.277h-0.48L9.577,21.524z"/>
		<path d="M10.642,20.663l-0.317-0.026c0.036-0.107,0.099-0.191,0.189-0.252s0.209-0.091,0.358-0.091
			c0.155,0,0.269,0.031,0.343,0.093c0.074,0.063,0.111,0.139,0.111,0.229c0,0.037-0.003,0.075-0.01,0.115
			c-0.007,0.042-0.029,0.148-0.067,0.322c-0.032,0.144-0.048,0.244-0.048,0.301c0,0.052,0.009,0.108,0.027,0.171h-0.316
			c-0.013-0.044-0.021-0.089-0.023-0.136c-0.048,0.054-0.103,0.093-0.165,0.122c-0.062,0.028-0.124,0.042-0.187,0.042
			c-0.1,0-0.182-0.033-0.247-0.098c-0.065-0.065-0.098-0.148-0.098-0.252c0-0.114,0.036-0.206,0.107-0.274
			c0.071-0.069,0.199-0.11,0.382-0.125c0.154-0.013,0.258-0.028,0.31-0.046c0.013-0.045,0.02-0.082,0.02-0.109
			c0-0.034-0.014-0.063-0.042-0.087c-0.028-0.024-0.069-0.035-0.125-0.035c-0.059,0-0.104,0.013-0.138,0.036
			S10.654,20.619,10.642,20.663z M10.951,20.964c-0.02,0.006-0.046,0.011-0.078,0.015c-0.163,0.021-0.27,0.049-0.319,0.087
			c-0.036,0.026-0.054,0.063-0.054,0.109c0,0.039,0.014,0.07,0.041,0.096c0.027,0.026,0.063,0.039,0.108,0.039
			c0.049,0,0.095-0.012,0.139-0.035c0.043-0.024,0.076-0.055,0.097-0.093c0.022-0.037,0.041-0.095,0.057-0.174L10.951,20.964z"/>
		<path d="M11.724,20.323h0.325l-0.251,1.201h-0.325L11.724,20.323z M11.819,19.865h0.325l-0.061,0.294h-0.325L11.819,19.865z"/>
		<path d="M12.357,20.323h0.308l-0.026,0.122c0.066-0.054,0.127-0.093,0.186-0.115c0.057-0.023,0.118-0.036,0.184-0.036
			c0.127,0,0.228,0.044,0.305,0.13c0.076,0.088,0.114,0.217,0.114,0.389c0,0.217-0.065,0.399-0.197,0.549
			c-0.114,0.128-0.247,0.191-0.401,0.191c-0.16,0-0.28-0.064-0.362-0.193l-0.13,0.623h-0.325L12.357,20.323z M12.554,21.013
			c0,0.093,0.022,0.166,0.068,0.217c0.046,0.053,0.099,0.078,0.161,0.078c0.054,0,0.105-0.021,0.154-0.059
			c0.051-0.039,0.092-0.103,0.125-0.194c0.033-0.09,0.049-0.173,0.049-0.25c0-0.09-0.021-0.158-0.064-0.206
			s-0.098-0.072-0.164-0.072c-0.063,0-0.118,0.021-0.17,0.066c-0.051,0.044-0.09,0.108-0.117,0.194
			C12.567,20.873,12.554,20.947,12.554,21.013z"/>
		<path d="M14.703,21.023h-0.814c-0.002,0.014-0.003,0.023-0.003,0.03c0,0.08,0.023,0.146,0.07,0.193
			c0.045,0.05,0.101,0.074,0.166,0.074c0.107,0,0.192-0.057,0.252-0.167l0.291,0.048c-0.056,0.117-0.133,0.204-0.227,0.264
			c-0.095,0.058-0.201,0.087-0.319,0.087c-0.161,0-0.291-0.051-0.393-0.153c-0.102-0.102-0.152-0.237-0.152-0.406
			c0-0.164,0.046-0.311,0.137-0.438c0.126-0.173,0.303-0.261,0.533-0.261c0.147,0,0.264,0.046,0.352,0.137
			c0.086,0.091,0.13,0.218,0.13,0.382C14.726,20.892,14.718,20.962,14.703,21.023z M14.43,20.826c0-0.015,0-0.024,0-0.032
			c0-0.09-0.021-0.156-0.06-0.201c-0.039-0.044-0.094-0.066-0.161-0.066s-0.128,0.025-0.181,0.076s-0.089,0.125-0.107,0.224H14.43z"
			/>
		<path d="M15.072,20.323h0.325l-0.252,1.201h-0.323L15.072,20.323z M15.168,19.865h0.326l-0.063,0.294h-0.324L15.168,19.865z"/>
	</g>
</g>
</svg>
