<?xml version="1.0" encoding="utf-8"?>
<!-- Generator: Adobe Illustrator 16.0.3, SVG Export Plug-In . SVG Version: 6.00 Build 0)  -->
<!DOCTYPE svg PUBLIC "-//W3C//DTD SVG 1.1//EN" "http://www.w3.org/Graphics/SVG/1.1/DTD/svg11.dtd">
<svg version="1.1" id="圖層_1" xmlns="http://www.w3.org/2000/svg" xmlns:xlink="http://www.w3.org/1999/xlink" x="0px" y="0px"
	 width="24px" height="24px" viewBox="0 0 24 24" enable-background="new 0 0 24 24" xml:space="preserve">
<g>
	<path fill-rule="evenodd" clip-rule="evenodd" fill="#DB5426" d="M16.213,6.028c0.157,0.017,0.313,0.031,0.471,0.049
		c0.883,0.101,1.718,0.367,2.514,0.758c0.083,0.041,0.164,0.083,0.245,0.127c0.018,0.009,0.031,0.028,0.046,0.042
		c-0.003,0.007-0.006,0.015-0.008,0.022c-0.035-0.001-0.067,0.001-0.101-0.006c-1.431-0.281-2.877-0.394-4.334-0.327
		c-0.857,0.04-1.709,0.145-2.529,0.41c-0.304,0.099-0.594,0.239-0.892,0.358c-0.027,0.011-0.058,0.013-0.087,0.018
		c0.016-0.024,0.027-0.055,0.048-0.071c0.926-0.646,1.943-1.076,3.056-1.271c0.267-0.048,0.537-0.065,0.807-0.096
		c0.022-0.003,0.045-0.009,0.068-0.014C15.748,6.028,15.981,6.028,16.213,6.028z"/>
	<path fill-rule="evenodd" clip-rule="evenodd" fill="#5A5858" d="M1.203,15.178c0.065-0.068,0.128-0.14,0.195-0.206
		c0.271-0.269,0.542-0.536,0.815-0.802c0.028-0.026,0.076-0.044,0.116-0.047c0.108-0.006,0.218-0.002,0.335-0.002
		c-0.324,0.33-0.64,0.65-0.963,0.979c0.686,0,1.36,0,2.043,0c-0.087-0.222-0.174-0.439-0.268-0.677c0.118,0,0.219-0.002,0.321,0.001
		c0.014,0.001,0.035,0.022,0.04,0.039c0.107,0.309,0.267,0.59,0.469,0.87c-0.142,0-0.268,0.005-0.393-0.003
		c-0.025-0.002-0.05-0.045-0.071-0.072c-0.019-0.025-0.033-0.055-0.049-0.082c-0.01,0.004-0.018,0.006-0.02,0.01
		c-0.076,0.147-0.206,0.154-0.353,0.152c-0.679-0.006-1.357-0.001-2.036-0.006c-0.061,0-0.122-0.043-0.183-0.066
		C1.203,15.237,1.203,15.208,1.203,15.178z"/>
	<path fill-rule="evenodd" clip-rule="evenodd" fill="#938874" d="M14.675,9.394c0.038-0.008,0.077-0.024,0.115-0.024
		c0.497,0,0.995-0.018,1.489,0.008c0.551,0.029,1.098,0.092,1.646,0.151c0.592,0.064,1.17,0.209,1.737,0.39
		c0.498,0.16,0.993,0.329,1.491,0.489c0.151,0.048,0.308,0.081,0.479,0.125c-0.032,0.02-0.055,0.036-0.078,0.047
		c-0.291,0.13-0.599,0.173-0.914,0.174c-0.624,0.004-1.229-0.123-1.826-0.29c-0.644-0.182-1.282-0.382-1.925-0.564
		c-0.653-0.185-1.313-0.34-1.985-0.434c-0.077-0.01-0.153-0.022-0.23-0.034C14.674,9.421,14.674,9.407,14.675,9.394z"/>
	<path fill-rule="evenodd" clip-rule="evenodd" fill="#938874" d="M14.354,10.584c0.032-0.006,0.064-0.02,0.096-0.018
		c0.403,0.018,0.811,0.014,1.212,0.062c0.643,0.077,1.285,0.173,1.922,0.29c0.639,0.116,1.25,0.337,1.855,0.57
		c0.446,0.172,0.895,0.339,1.342,0.507c0.056,0.02,0.114,0.029,0.177,0.063c-0.027,0.014-0.055,0.033-0.085,0.042
		c-0.342,0.106-0.694,0.128-1.051,0.103c-0.81-0.058-1.575-0.292-2.331-0.569c-0.569-0.209-1.132-0.437-1.707-0.626
		c-0.442-0.146-0.899-0.246-1.35-0.366c-0.028-0.007-0.055-0.017-0.081-0.024C14.354,10.606,14.354,10.595,14.354,10.584z"/>
	<path fill-rule="evenodd" clip-rule="evenodd" fill="#938874" d="M14.055,11.792c0.069,0,0.14-0.002,0.209,0.001
		c0.623,0.029,1.233,0.146,1.844,0.263c1.169,0.224,2.263,0.658,3.332,1.165c0.263,0.124,0.539,0.219,0.81,0.327
		c0.01,0.004,0.02,0.011,0.047,0.026c-0.043,0.019-0.071,0.034-0.103,0.043c-0.346,0.095-0.699,0.105-1.054,0.067
		c-0.769-0.083-1.483-0.353-2.183-0.662c-0.559-0.247-1.105-0.517-1.667-0.75c-0.382-0.158-0.78-0.271-1.17-0.406
		c-0.024-0.008-0.049-0.021-0.073-0.033C14.05,11.819,14.052,11.806,14.055,11.792z"/>
	<path fill-rule="evenodd" clip-rule="evenodd" fill="#938874" d="M22.603,9.065c-0.098,0.048-0.191,0.103-0.292,0.142
		c-0.365,0.143-0.745,0.173-1.132,0.153c-0.688-0.034-1.351-0.202-2.006-0.403c-0.808-0.247-1.633-0.405-2.47-0.5
		c-0.272-0.031-0.545-0.054-0.817-0.082c-0.029-0.003-0.057-0.014-0.086-0.022c0-0.008,0.001-0.018,0.002-0.026
		c0.027-0.009,0.057-0.022,0.086-0.026c0.744-0.082,1.49-0.097,2.238-0.066c1.043,0.042,2.058,0.259,3.067,0.497
		c0.403,0.095,0.808,0.182,1.211,0.271c0.063,0.013,0.126,0.018,0.189,0.027C22.596,9.042,22.6,9.054,22.603,9.065z"/>
	<path fill-rule="evenodd" clip-rule="evenodd" fill="#5A5858" d="M13.901,15.84c0.071-0.217,0.148-0.431,0.21-0.649
		c0.024-0.083,0.055-0.122,0.143-0.108c0.043,0.006,0.089,0.001,0.145,0.001c-0.014,0.047-0.021,0.084-0.033,0.12
		c-0.125,0.397-0.274,0.784-0.467,1.156c-0.054,0.104-0.014,0.259-0.006,0.391c0.001,0.02,0.063,0.048,0.099,0.052
		c0.07,0.009,0.141,0.002,0.237,0.002c-0.088,0.08-0.053,0.227-0.189,0.229c-0.099,0.002-0.203-0.007-0.297-0.036
		c-0.111-0.033-0.127-0.144-0.127-0.269c-0.084,0.096-0.153,0.171-0.217,0.247c-0.038,0.045-0.078,0.066-0.139,0.063
		c-0.08-0.006-0.16-0.002-0.267-0.002c0.065-0.053,0.114-0.094,0.163-0.134c-0.007-0.008-0.013-0.016-0.019-0.023
		c-0.252,0.029-0.504,0.058-0.772,0.089c0.01-0.083,0.019-0.158,0.028-0.24c0.093-0.006,0.181-0.015,0.27-0.016
		c0.066-0.002,0.098-0.027,0.099-0.094c0.002-0.047,0.01-0.095,0.016-0.155c-0.088,0-0.175,0-0.273,0
		c0.01-0.083,0.019-0.151,0.028-0.229c0.075,0,0.143-0.002,0.211,0.001c0.053,0.003,0.075-0.015,0.076-0.069
		c0.002-0.049,0.012-0.099,0.02-0.159c-0.111,0-0.215,0-0.33,0c0.009-0.074,0.016-0.137,0.023-0.202c0.326,0,0.647,0,0.974,0
		c-0.008,0.067-0.016,0.129-0.024,0.2c-0.119,0-0.233,0-0.353,0c-0.011,0.081-0.02,0.15-0.029,0.229c0.106,0,0.203,0,0.313,0
		c-0.009,0.079-0.018,0.148-0.027,0.224c-0.105,0-0.206,0-0.313,0c-0.009,0.065-0.017,0.123-0.028,0.201
		c0.121-0.018,0.234-0.025,0.34-0.054c0.043-0.013,0.069-0.077,0.106-0.114c0.089-0.094,0.11-0.205,0.115-0.333
		c0.019-0.371,0.052-0.742,0.08-1.113c0.001-0.023,0.003-0.047,0.006-0.08c-0.357,0-0.711,0-1.075,0
		c0.009-0.076,0.017-0.143,0.024-0.219c0.09,0,0.176-0.005,0.262,0.002c0.084,0.008,0.122-0.021,0.115-0.106
		c-0.001-0.022,0.005-0.046,0.008-0.081c-0.104,0-0.205,0-0.313,0c0.011-0.075,0.021-0.139,0.03-0.207c0.104,0,0.203,0,0.309,0
		c0.013-0.082,0.025-0.16,0.038-0.241c0.095,0,0.186,0,0.283,0c-0.008,0.079-0.016,0.151-0.023,0.237c0.11,0,0.216,0,0.315,0
		c0.006,0.018,0.01,0.023,0.01,0.027c-0.016,0.184-0.016,0.184-0.199,0.184c-0.048,0-0.095,0-0.153,0
		c-0.009,0.06-0.018,0.116-0.027,0.181c0.142,0,0.274,0,0.415,0c0.025-0.187,0.053-0.372,0.073-0.557
		c0.007-0.062,0.028-0.082,0.088-0.078c0.057,0.004,0.113,0.001,0.182,0.001c-0.023,0.215-0.047,0.423-0.07,0.638
		c0.155,0,0.304,0,0.463,0c-0.008,0.074-0.016,0.14-0.023,0.216c-0.153,0-0.303,0-0.461,0c-0.031,0.297-0.063,0.583-0.094,0.869
		C13.878,15.834,13.89,15.836,13.901,15.84z"/>
	<path fill-rule="evenodd" clip-rule="evenodd" fill="#5A5858" d="M2.495,17.015c-0.321,0-0.643,0-0.964,0
		c-0.219,0-0.313-0.1-0.29-0.317c0.026-0.245,0.057-0.49,0.093-0.734c0.027-0.179,0.172-0.302,0.355-0.303
		c0.655-0.002,1.31-0.002,1.965,0c0.168,0.001,0.28,0.11,0.264,0.279c-0.026,0.271-0.061,0.543-0.107,0.813
		c-0.029,0.172-0.157,0.263-0.333,0.263C3.15,17.016,2.822,17.015,2.495,17.015z M2.516,16.77c0.292,0,0.583-0.001,0.875,0
		c0.078,0.001,0.125-0.028,0.135-0.108c0.025-0.213,0.053-0.426,0.079-0.638c0.011-0.093-0.01-0.12-0.105-0.12
		c-0.574-0.002-1.148-0.001-1.723-0.001c-0.078,0-0.122,0.034-0.131,0.114c-0.027,0.218-0.056,0.437-0.086,0.654
		c-0.01,0.073,0.015,0.101,0.092,0.101C1.939,16.768,2.228,16.77,2.516,16.77z"/>
	<path fill-rule="evenodd" clip-rule="evenodd" fill="#5A5858" d="M5.199,16.817c0.042,0,0.073,0,0.106,0c0.527,0,1.054,0,1.581,0
		c0.108,0,0.155-0.054,0.125-0.158c-0.007-0.024-0.061-0.049-0.093-0.05c-0.482-0.003-0.964-0.003-1.447-0.003
		c-0.027,0-0.054,0.001-0.081,0c-0.14-0.003-0.193-0.061-0.185-0.2c0.002-0.035,0.007-0.071,0.013-0.105
		c0.03-0.18,0.104-0.243,0.29-0.247c0.071-0.002,0.143-0.001,0.215-0.001c0.398,0,0.797,0,1.196,0c0.024,0,0.057,0.01,0.069-0.003
		c0.031-0.029,0.065-0.066,0.074-0.104c0.012-0.056-0.04-0.053-0.079-0.054c-0.021-0.001-0.042-0.001-0.063-0.001c-0.5,0-1,0-1.5,0
		c-0.032,0-0.064,0-0.102,0c0.009-0.069,0.016-0.127,0.024-0.191c0.034-0.002,0.063-0.004,0.092-0.004c0.566,0,1.131,0,1.697,0
		c0.042,0,0.084,0,0.124,0.009c0.09,0.02,0.13,0.074,0.127,0.166c0,0.009-0.001,0.019-0.002,0.027
		c-0.036,0.315-0.078,0.353-0.399,0.353c-0.453,0-0.905-0.001-1.358,0.001c-0.035,0.001-0.088,0.018-0.104,0.043
		c-0.046,0.078-0.01,0.13,0.081,0.13c0.482,0,0.965,0,1.447,0c0.036,0,0.072,0,0.107,0.003c0.111,0.008,0.171,0.07,0.166,0.179
		c-0.004,0.074-0.012,0.148-0.027,0.221c-0.023,0.117-0.136,0.196-0.275,0.196c-0.467,0-0.935,0-1.402,0c-0.054,0-0.107,0-0.161,0
		C5.265,17.022,5.265,17.022,5.199,16.817z"/>
	<path fill-rule="evenodd" clip-rule="evenodd" fill="#5A5858" d="M11.8,15.718c-0.066,0-0.125,0-0.185,0c-0.059,0-0.118,0-0.185,0
		c0.009-0.076,0.016-0.143,0.024-0.219c0.125,0,0.245,0,0.371,0c0.013-0.105,0.026-0.201,0.04-0.311
		c-0.078-0.003-0.149-0.006-0.227-0.009c0.005-0.05,0.009-0.093,0.013-0.144c-0.063,0-0.121,0-0.191,0
		c0.014-0.024,0.022-0.038,0.03-0.053c0.116-0.207,0.24-0.41,0.345-0.622c0.065-0.132,0.151-0.201,0.296-0.195
		c0.003,0,0.006,0,0.009,0c0.278-0.008,0.292,0.035,0.33,0.26c0.025,0.151,0.078,0.297,0.12,0.452c-0.098,0-0.195,0-0.308,0
		c-0.026-0.129-0.05-0.263-0.08-0.395c-0.007-0.032-0.035-0.062-0.053-0.092c-0.021,0.024-0.051,0.045-0.066,0.073
		c-0.081,0.158-0.159,0.317-0.241,0.484c0.197,0,0.394,0,0.602,0c-0.008,0.073-0.011,0.135-0.025,0.194
		c-0.004,0.018-0.041,0.035-0.064,0.038c-0.069,0.011-0.164-0.011-0.201,0.026c-0.04,0.041-0.025,0.135-0.035,0.205
		c-0.003,0.023-0.006,0.047-0.011,0.082c0.117,0,0.231,0,0.339,0c0.006,0.015,0.008,0.017,0.008,0.019
		c-0.014,0.204-0.014,0.204-0.216,0.204c-0.156,0-0.16-0.001-0.181,0.152c-0.034,0.244-0.063,0.489-0.098,0.752
		c0.124-0.032,0.234-0.063,0.361-0.098c-0.009,0.073-0.014,0.142-0.026,0.21c-0.002,0.014-0.027,0.03-0.044,0.035
		c-0.332,0.092-0.664,0.184-1.012,0.279c0.009-0.087,0.012-0.154,0.026-0.22c0.004-0.019,0.032-0.039,0.052-0.045
		c0.099-0.025,0.197-0.045,0.295-0.071c0.023-0.007,0.056-0.031,0.058-0.05C11.717,16.352,11.757,16.039,11.8,15.718z"/>
	<path fill-rule="evenodd" clip-rule="evenodd" fill="#5A5858" d="M9.84,16.805c0.143,0,0.277-0.002,0.41,0.001
		c0.077,0.001,0.116-0.028,0.124-0.106c0.032-0.26,0.066-0.52,0.103-0.778c0.01-0.077-0.019-0.112-0.097-0.112
		c-0.643,0.001-1.286,0.001-1.929,0c-0.085,0-0.109,0.049-0.119,0.124c-0.044,0.354-0.092,0.708-0.139,1.062
		c-0.002,0.012-0.004,0.023-0.007,0.038c-0.099,0-0.195,0-0.301,0c0.02-0.163,0.04-0.322,0.06-0.48
		c0.028-0.215,0.058-0.43,0.085-0.646c0.024-0.192,0.128-0.299,0.323-0.3c0.732-0.003,1.464-0.003,2.197,0
		c0.164,0,0.261,0.109,0.242,0.274c-0.031,0.283-0.066,0.566-0.11,0.849c-0.031,0.2-0.149,0.291-0.353,0.293
		c-0.111,0.001-0.221-0.004-0.331,0.002c-0.067,0.003-0.105-0.015-0.117-0.085C9.874,16.896,9.855,16.854,9.84,16.805z"/>
	<path fill-rule="evenodd" clip-rule="evenodd" fill="#DB5426" d="M11.886,11.261c-0.028,0.055-0.044,0.102-0.071,0.138
		c-0.203,0.271-0.466,0.424-0.81,0.458c-0.563,0.056-1.124,0.139-1.646,0.373c-0.262,0.117-0.509,0.269-0.762,0.406
		c-0.023,0.013-0.043,0.033-0.067,0.043c-0.021,0.01-0.046,0.01-0.07,0.014c0.01-0.023,0.016-0.052,0.032-0.07
		c0.025-0.029,0.058-0.052,0.087-0.077c0.5-0.426,1.033-0.803,1.642-1.062c0.465-0.198,0.949-0.309,1.457-0.306
		c0.044,0,0.09,0.003,0.131,0.017C11.836,11.205,11.857,11.235,11.886,11.261z"/>
	<path fill-rule="evenodd" clip-rule="evenodd" fill="#DB5426" d="M12.511,8.783c-0.021,0.037-0.044,0.104-0.088,0.154
		c-0.184,0.216-0.411,0.369-0.69,0.433c-0.544,0.123-1.078,0.271-1.579,0.519c-0.308,0.152-0.595,0.338-0.863,0.551
		c-0.016,0.013-0.03,0.03-0.049,0.039c-0.029,0.014-0.06,0.023-0.09,0.035c0.013-0.029,0.018-0.066,0.039-0.086
		c0.147-0.149,0.292-0.298,0.447-0.438c0.5-0.452,1.048-0.83,1.678-1.08c0.334-0.133,0.679-0.215,1.037-0.25
		C12.456,8.65,12.514,8.686,12.511,8.783z"/>
	<path fill-rule="evenodd" clip-rule="evenodd" fill="#DB5426" d="M12.033,9.905c0.017,0,0.03,0,0.041,0
		c0.147,0,0.192,0.064,0.112,0.188c-0.172,0.269-0.422,0.431-0.735,0.491c-0.525,0.101-1.051,0.196-1.548,0.406
		c-0.354,0.148-0.674,0.35-0.96,0.607c-0.011,0.009-0.021,0.023-0.034,0.029c-0.021,0.009-0.045,0.012-0.067,0.018
		c0.008-0.023,0.01-0.052,0.025-0.067c0.624-0.62,1.311-1.147,2.145-1.456C11.344,9.999,11.686,9.928,12.033,9.905z"/>
	<path fill-rule="evenodd" clip-rule="evenodd" fill="#5A5858" d="M9.563,14.723c0.268,0,0.537,0,0.804,0.001
		c0.047,0,0.095,0.001,0.142,0.006c0.117,0.014,0.18,0.08,0.174,0.196c-0.005,0.098-0.021,0.196-0.042,0.291
		c-0.026,0.118-0.111,0.179-0.228,0.194c-0.014,0.002-0.03,0.003-0.044,0.003c-0.604,0.001-1.208,0.002-1.813,0
		c-0.127,0-0.205-0.083-0.204-0.21c0-0.077,0.01-0.154,0.023-0.231c0.028-0.167,0.125-0.247,0.305-0.249
		C8.973,14.722,9.268,14.724,9.563,14.723z M9.492,15.196c0.236,0,0.471,0,0.706,0c0.144,0,0.173-0.031,0.17-0.181
		c-0.002-0.118-0.095-0.084-0.159-0.085c-0.453-0.002-0.905-0.001-1.358-0.001c-0.163,0-0.162,0.001-0.187,0.166
		c-0.012,0.075,0.009,0.103,0.087,0.102C8.998,15.194,9.245,15.196,9.492,15.196z"/>
	<path fill-rule="evenodd" clip-rule="evenodd" fill="#5A5858" d="M6.094,14.444c-0.137,0.122-0.285,0.254-0.447,0.399
		c0.082,0,0.145,0,0.215,0c0-0.047,0-0.094,0-0.146c0.06,0,0.115,0,0.171,0c0.015,0.104,0.029,0.205,0.044,0.308
		c-0.126,0.042-0.173,0.026-0.211-0.071c-0.137,0.159-0.317,0.07-0.479,0.08c-0.061,0.005-0.084-0.084-0.037-0.139
		c0.057-0.063,0.124-0.119,0.186-0.179c0.032-0.03,0.064-0.061,0.116-0.111c-0.062,0-0.102,0.008-0.139-0.001
		c-0.038-0.009-0.088-0.025-0.102-0.054c-0.014-0.029-0.006-0.09,0.017-0.114c0.098-0.104,0.194-0.215,0.312-0.29
		c0.066-0.043,0.176-0.017,0.266-0.022c0.003,0.007,0.006,0.015,0.009,0.021c-0.102,0.096-0.204,0.192-0.315,0.299
		c0.081,0.015,0.142,0.016,0.192-0.047c0.014-0.016,0.037-0.031,0.058-0.035c0.147-0.025,0.295-0.047,0.456-0.072
		c0.008-0.042,0.019-0.096,0.029-0.155c0.093,0,0.184,0,0.28,0c-0.004,0.054-0.008,0.106-0.012,0.156
		c0.088,0.044,0.206-0.034,0.306,0.081c0.029-0.034,0.077-0.08,0.111-0.134c0.085-0.131,0.21-0.116,0.359-0.104
		c-0.1,0.106-0.188,0.199-0.277,0.292c0.002,0.01,0.006,0.019,0.009,0.026c0.048-0.016,0.117-0.016,0.14-0.049
		c0.09-0.128,0.213-0.1,0.332-0.098c-0.171,0.185-0.341,0.368-0.508,0.547c0.055,0,0.124,0,0.194,0c0-0.051,0-0.098,0-0.149
		c0.057,0,0.112,0,0.171,0c0.014,0.106,0.03,0.213,0.045,0.325c-0.059,0-0.111,0-0.17,0c-0.011-0.035-0.021-0.072-0.033-0.108
		c-0.004,0-0.012-0.002-0.015,0c-0.037,0.037-0.07,0.103-0.11,0.106c-0.117,0.012-0.238,0.006-0.355-0.007
		c-0.061-0.008-0.076-0.081-0.031-0.136c0.052-0.065,0.114-0.122,0.173-0.181c0.032-0.031,0.067-0.058,0.101-0.086
		c-0.003-0.009-0.006-0.018-0.01-0.026c-0.03,0-0.061,0.004-0.091-0.001c-0.031-0.004-0.079-0.008-0.088-0.027
		c-0.035-0.077-0.098-0.062-0.158-0.062c-0.2-0.001-0.398,0.001-0.598-0.001C6.17,14.479,6.142,14.46,6.094,14.444z"/>
	<path fill-rule="evenodd" clip-rule="evenodd" fill="#5A5858" d="M9.387,15.996c0.208,0,0.417-0.001,0.625,0.001
		c0.209,0.002,0.284,0.09,0.255,0.297c-0.044,0.328-0.108,0.384-0.442,0.384c-0.372,0-0.744,0.001-1.116,0
		c-0.049,0-0.104-0.002-0.148-0.02c-0.041-0.017-0.083-0.051-0.104-0.088c-0.054-0.097-0.005-0.422,0.082-0.488
		C8.594,16.038,8.673,16.004,8.745,16C8.958,15.99,9.172,15.997,9.387,15.996z M9.333,16.467c0.17,0,0.339,0.001,0.509,0
		c0.111,0,0.132-0.032,0.137-0.178c0.003-0.104-0.071-0.086-0.129-0.086c-0.313-0.002-0.625-0.001-0.938-0.001
		c-0.149,0-0.153,0.008-0.171,0.161c-0.009,0.077,0.01,0.108,0.093,0.105C9,16.464,9.167,16.467,9.333,16.467z"/>
	<path fill-rule="evenodd" clip-rule="evenodd" fill="#5A5858" d="M8.124,14.545c0.009-0.072,0.017-0.139,0.026-0.212
		c0.038-0.003,0.069-0.005,0.101-0.005c0.369-0.001,0.738-0.004,1.107,0.002c0.091,0.001,0.125-0.026,0.121-0.113
		c-0.001-0.032,0.009-0.065,0.015-0.103c0.096,0,0.189,0,0.291,0c-0.007,0.068-0.014,0.133-0.021,0.211c0.434,0,0.866,0,1.307,0
		c-0.01,0.081-0.02,0.148-0.029,0.22C10.068,14.545,9.099,14.545,8.124,14.545z"/>
	<path fill-rule="evenodd" clip-rule="evenodd" fill="#5A5858" d="M5.3,18.989c-0.083-0.372-0.167-0.748-0.252-1.128
		c0.073,0,0.137,0,0.21,0c0.056,0.281,0.111,0.563,0.171,0.865c0.052-0.101,0.094-0.184,0.137-0.267
		c0.026-0.05,0.052-0.1,0.079-0.149c0.075-0.139,0.169-0.272,0.063-0.446c0.078,0,0.139,0,0.204,0
		c0.061,0.279,0.121,0.557,0.181,0.835c0.006,0.001,0.012,0.003,0.018,0.004c0.014-0.03,0.028-0.06,0.042-0.089
		c0.103-0.218,0.21-0.434,0.308-0.653c0.035-0.079,0.077-0.12,0.166-0.104c0.022,0.005,0.047,0.001,0.077,0.001
		c-0.006,0.021-0.009,0.035-0.016,0.047c-0.173,0.345-0.349,0.689-0.518,1.037c-0.048,0.097-0.122,0.04-0.19,0.063
		c-0.053-0.229-0.104-0.448-0.157-0.677c-0.014,0.018-0.026,0.029-0.034,0.043c-0.092,0.173-0.191,0.343-0.273,0.521
		C5.469,18.993,5.407,19.02,5.3,18.989z"/>
	<path fill-rule="evenodd" clip-rule="evenodd" fill="#DB5426" d="M9.456,9.315c0.012-0.021,0.021-0.044,0.036-0.062
		c0.361-0.408,0.715-0.822,1.13-1.177c0.102-0.087,0.208-0.168,0.319-0.243c0.056-0.037,0.122-0.063,0.188-0.079
		c0.119-0.031,0.175,0.03,0.135,0.146c-0.109,0.307-0.286,0.558-0.586,0.71C10.321,8.79,9.967,8.973,9.65,9.219
		C9.596,9.261,9.54,9.302,9.484,9.343C9.475,9.333,9.465,9.324,9.456,9.315z"/>
	<path fill-rule="evenodd" clip-rule="evenodd" fill="#5A5858" d="M8.533,18.691c0.042-0.288,0.082-0.557,0.122-0.829
		c0.063,0,0.121,0,0.191,0c-0.056,0.38-0.112,0.757-0.167,1.126c-0.124,0.036-0.195-0.002-0.258-0.104
		c-0.148-0.245-0.312-0.482-0.477-0.734c-0.043,0.29-0.085,0.567-0.127,0.846c-0.063,0-0.119,0-0.187,0
		c0.056-0.382,0.11-0.756,0.164-1.128c0.13-0.032,0.213,0.001,0.282,0.119C8.215,18.221,8.372,18.444,8.533,18.691z"/>
	<path fill-rule="evenodd" clip-rule="evenodd" fill="#5A5858" d="M19.755,18.438c0.093,0.177,0.188,0.363,0.293,0.562
		c-0.075,0-0.132,0.006-0.185-0.002c-0.025-0.004-0.055-0.031-0.068-0.055c-0.06-0.109-0.114-0.222-0.168-0.334
		c-0.045-0.095-0.114-0.132-0.224-0.098c-0.024,0.157-0.048,0.317-0.075,0.482c-0.063,0-0.119,0-0.188,0
		c0.062-0.415,0.121-0.825,0.184-1.247c0.175,0.001,0.351-0.026,0.519,0.034c0.195,0.07,0.25,0.309,0.108,0.489
		C19.899,18.337,19.819,18.384,19.755,18.438z M19.432,18.313c0.198,0.037,0.339-0.028,0.382-0.175
		c0.027-0.094-0.013-0.184-0.103-0.205c-0.069-0.017-0.145-0.015-0.22-0.022C19.47,18.057,19.45,18.185,19.432,18.313z"/>
	<path fill-rule="evenodd" clip-rule="evenodd" fill="#5A5858" d="M9.48,17.747c0.065,0,0.121,0,0.188,0
		c-0.024,0.178-0.048,0.35-0.072,0.529c0.229,0,0.451,0,0.682,0c0.026-0.173,0.052-0.349,0.079-0.528c0.063,0,0.12,0,0.188,0
		c-0.03,0.206-0.058,0.405-0.088,0.604c-0.026,0.179-0.063,0.357-0.078,0.539c-0.008,0.098-0.048,0.12-0.133,0.108
		c-0.02-0.003-0.041-0.001-0.073-0.001c0.026-0.189,0.051-0.37,0.077-0.556c-0.231,0-0.453,0-0.681,0
		c-0.023,0.151-0.054,0.301-0.065,0.452C9.495,18.989,9.456,19.012,9.374,19c-0.023-0.003-0.046-0.003-0.079-0.006
		C9.357,18.578,9.418,18.166,9.48,17.747z"/>
	<path fill-rule="evenodd" clip-rule="evenodd" fill="#5A5858" d="M17.657,18.997c0.057-0.382,0.111-0.756,0.169-1.154
		c0.2,0.018,0.403,0.018,0.598,0.058c0.209,0.043,0.313,0.208,0.312,0.422c-0.001,0.373-0.27,0.644-0.68,0.674
		C17.926,19.005,17.796,18.997,17.657,18.997z M17.868,18.856c0.127-0.017,0.241-0.023,0.352-0.049
		c0.108-0.026,0.191-0.098,0.242-0.197c0.143-0.272,0.089-0.596-0.33-0.595c-0.136,0.001-0.138-0.003-0.158,0.129
		C17.938,18.374,17.905,18.603,17.868,18.856z"/>
	<path fill-rule="evenodd" clip-rule="evenodd" fill="#5A5858" d="M12.536,17.861c0.066,0,0.125,0,0.191,0
		c-0.023,0.159-0.046,0.313-0.069,0.474c0.202,0,0.4,0,0.604,0c0.023-0.157,0.047-0.313,0.07-0.472c0.063,0,0.12,0,0.189,0
		c-0.056,0.379-0.111,0.754-0.167,1.131c-0.065,0-0.123,0-0.19,0c0.023-0.164,0.047-0.322,0.07-0.487c-0.2,0-0.396,0-0.6,0
		c-0.02,0.125-0.048,0.252-0.057,0.381c-0.008,0.102-0.052,0.127-0.141,0.112c-0.021-0.003-0.041-0.004-0.069-0.007
		C12.426,18.616,12.48,18.243,12.536,17.861z"/>
	<path fill-rule="evenodd" clip-rule="evenodd" fill="#5A5858" d="M12,18.436c0.065,0,0.123,0,0.188,0
		c-0.022,0.152-0.042,0.299-0.067,0.444c-0.003,0.021-0.023,0.048-0.043,0.056c-0.192,0.078-0.389,0.109-0.593,0.056
		c-0.279-0.073-0.404-0.319-0.32-0.625c0.092-0.334,0.42-0.553,0.78-0.517c0.091,0.009,0.18,0.032,0.277,0.051
		c-0.01,0.068-0.019,0.123-0.028,0.185c-0.146-0.063-0.286-0.1-0.438-0.07c-0.279,0.054-0.458,0.313-0.399,0.589
		c0.021,0.103,0.079,0.18,0.178,0.218c0.046,0.019,0.097,0.031,0.146,0.035c0.22,0.019,0.25-0.005,0.286-0.22
		C11.979,18.572,11.988,18.508,12,18.436z"/>
	<path fill-rule="evenodd" clip-rule="evenodd" fill="#5A5858" d="M14.817,17.982c-0.123-0.059-0.238-0.104-0.368-0.073
		c-0.078,0.019-0.142,0.054-0.157,0.138c-0.015,0.08,0.038,0.129,0.096,0.167c0.072,0.048,0.15,0.086,0.222,0.134
		c0.217,0.144,0.23,0.386,0.033,0.553c-0.184,0.156-0.544,0.159-0.726,0.001c0.033-0.045,0.066-0.089,0.102-0.139
		c0.112,0.065,0.225,0.106,0.352,0.082c0.09-0.019,0.169-0.055,0.191-0.15c0.023-0.098-0.042-0.154-0.115-0.202
		c-0.072-0.048-0.148-0.089-0.216-0.141c-0.179-0.134-0.189-0.334-0.033-0.491c0.166-0.167,0.456-0.147,0.611-0.075
		c0.016,0.007,0.029,0.036,0.029,0.054C14.837,17.884,14.826,17.928,14.817,17.982z"/>
	<path fill-rule="evenodd" clip-rule="evenodd" fill="#5A5858" d="M3.277,18.991c0.014-0.028,0.025-0.054,0.039-0.079
		c0.181-0.328,0.363-0.655,0.54-0.985c0.033-0.062,0.074-0.09,0.133-0.068c0.029,0.01,0.057,0.054,0.065,0.086
		c0.091,0.329,0.178,0.661,0.265,0.99c0.005,0.018,0.008,0.034,0.013,0.059c-0.066,0-0.126,0-0.196,0
		c-0.02-0.074-0.035-0.152-0.062-0.228c-0.009-0.023-0.046-0.054-0.071-0.055c-0.11-0.007-0.221-0.007-0.331,0
		C3.644,18.712,3.61,18.736,3.59,18.76c-0.026,0.031-0.041,0.072-0.06,0.108C3.454,19.013,3.454,19.013,3.277,18.991z M4.022,18.551
		c-0.03-0.14-0.058-0.274-0.09-0.427c-0.08,0.15-0.151,0.285-0.227,0.427C3.816,18.551,3.916,18.551,4.022,18.551z"/>
	<path fill-rule="evenodd" clip-rule="evenodd" fill="#5A5858" d="M7.468,18.991c-0.195,0.021-0.195,0.021-0.24-0.151
		c-0.035-0.132-0.035-0.132-0.167-0.132c-0.003,0-0.006,0-0.009,0c-0.209-0.036-0.368,0.017-0.433,0.243
		c-0.006,0.021-0.045,0.041-0.072,0.046c-0.04,0.008-0.083,0.002-0.14,0.002c0.018-0.036,0.03-0.064,0.044-0.09
		c0.176-0.32,0.356-0.639,0.527-0.962c0.044-0.083,0.095-0.111,0.19-0.083C7.268,18.234,7.367,18.609,7.468,18.991z M7.063,18.123
		c-0.081,0.153-0.152,0.287-0.225,0.426c0.112,0,0.211,0,0.314,0C7.124,18.41,7.096,18.277,7.063,18.123z"/>
	<path fill-rule="evenodd" clip-rule="evenodd" fill="#5A5858" d="M21.216,18.993c-0.197,0.016-0.204,0.018-0.241-0.158
		c-0.021-0.101-0.061-0.147-0.164-0.127c-0.005,0.001-0.012,0.001-0.017,0c-0.211-0.036-0.367,0.018-0.434,0.243
		c-0.018,0.062-0.038,0.059-0.204,0.042c0.015-0.031,0.027-0.061,0.042-0.088c0.175-0.317,0.353-0.634,0.522-0.953
		c0.043-0.08,0.089-0.121,0.192-0.086C21.012,18.233,21.112,18.611,21.216,18.993z M20.912,18.551
		c-0.029-0.139-0.058-0.274-0.09-0.428c-0.08,0.151-0.152,0.286-0.229,0.428C20.707,18.551,20.806,18.551,20.912,18.551z"/>
	<path fill-rule="evenodd" clip-rule="evenodd" fill="#5A5858" d="M13.032,15.672c-0.086,0-0.172,0.002-0.258-0.001
		c-0.138-0.005-0.195-0.067-0.188-0.203c0.003-0.064,0.011-0.13,0.023-0.193c0.021-0.107,0.106-0.184,0.221-0.188
		c0.19-0.006,0.38-0.005,0.57-0.001c0.092,0.001,0.156,0.072,0.165,0.166c0.002,0.019,0.001,0.036-0.001,0.054
		c-0.032,0.315-0.089,0.366-0.408,0.366C13.115,15.672,13.074,15.672,13.032,15.672L13.032,15.672z M13.059,15.474
		C13.059,15.474,13.059,15.474,13.059,15.474c0.049-0.001,0.096,0.002,0.145-0.002c0.081-0.007,0.07-0.076,0.076-0.129
		c0.01-0.061-0.037-0.064-0.081-0.065c-0.071,0-0.143-0.001-0.214,0c-0.09,0.002-0.113,0.032-0.113,0.131
		c0,0.086,0.063,0.061,0.108,0.065C13.006,15.476,13.032,15.474,13.059,15.474z"/>
	<path fill-rule="evenodd" clip-rule="evenodd" fill="#5A5858" d="M15.132,17.867c0.14,0,0.27-0.015,0.394,0.003
		c0.212,0.03,0.301,0.183,0.251,0.39c-0.044,0.182-0.188,0.307-0.386,0.331c-0.056,0.007-0.111,0.01-0.175,0.015
		c-0.011,0.063-0.022,0.127-0.033,0.191c-0.01,0.063-0.02,0.128-0.029,0.197c-0.063,0-0.12,0-0.188,0
		C15.021,18.616,15.076,18.242,15.132,17.867z M15.245,18.44c0.126,0.012,0.237,0.004,0.308-0.107
		c0.047-0.076,0.066-0.164,0.013-0.243c-0.063-0.092-0.163-0.077-0.262-0.07C15.284,18.162,15.265,18.299,15.245,18.44z"/>
	<path fill-rule="evenodd" clip-rule="evenodd" fill="#5A5858" d="M16.088,18.843c0.151,0,0.297,0,0.448,0
		c-0.01,0.057-0.018,0.102-0.025,0.152c-0.211,0-0.419,0-0.637,0c0.056-0.379,0.11-0.754,0.165-1.132c0.212,0,0.418,0,0.625,0
		c-0.048,0.15-0.048,0.15-0.192,0.15c-0.068,0-0.138-0.004-0.206,0.004c-0.023,0.002-0.045,0.03-0.064,0.05
		c-0.008,0.006-0.004,0.022-0.006,0.034c-0.011,0.076-0.021,0.152-0.034,0.237c0.131,0,0.255,0,0.381,0
		c-0.003,0.036-0.007,0.063-0.006,0.09c0.001,0.05-0.021,0.066-0.071,0.065c-0.087-0.003-0.173,0.001-0.259-0.001
		c-0.053-0.002-0.075,0.016-0.081,0.069C16.115,18.652,16.101,18.742,16.088,18.843z"/>
	<path fill-rule="evenodd" clip-rule="evenodd" fill="#5A5858" d="M16.986,18.842c0.151,0,0.294,0,0.447,0
		c-0.006,0.057-0.011,0.104-0.017,0.152c-0.217,0-0.424,0-0.642,0c0.057-0.38,0.111-0.753,0.167-1.13c0.211,0,0.416,0,0.622,0
		c-0.049,0.149-0.049,0.149-0.192,0.15c-0.081,0-0.16,0.001-0.241,0.003c-0.005,0-0.01,0.004-0.022,0.009
		c-0.014,0.098-0.028,0.2-0.044,0.312c0.132,0,0.253,0,0.383,0c-0.007,0.055-0.013,0.1-0.021,0.155c-0.13,0-0.256,0-0.388,0
		C17.021,18.61,17.005,18.719,16.986,18.842z"/>
	<path fill-rule="evenodd" clip-rule="evenodd" fill="#5A5858" d="M2.915,18.994c-0.067,0-0.126,0-0.19,0
		c0.053-0.36,0.105-0.715,0.159-1.078c-0.133,0-0.257,0-0.39,0c0.006-0.049,0.006-0.091,0.018-0.128
		c0.006-0.019,0.034-0.043,0.052-0.043c0.314-0.002,0.63-0.002,0.945-0.002c-0.021,0.144-0.051,0.171-0.18,0.173
		c-0.083,0-0.188-0.023-0.241,0.017c-0.046,0.036-0.037,0.147-0.049,0.226C2.997,18.436,2.956,18.711,2.915,18.994z"/>
	<path fill-rule="evenodd" clip-rule="evenodd" fill="#5A5858" d="M4.422,17.022c0.153-0.407,0.302-0.808,0.456-1.218
		c0.068,0,0.16,0,0.265,0c-0.05,0.165-0.094,0.325-0.147,0.48c-0.078,0.226-0.164,0.447-0.244,0.671
		c-0.018,0.049-0.042,0.071-0.097,0.068C4.575,17.019,4.495,17.022,4.422,17.022z"/>
	<path fill-rule="evenodd" clip-rule="evenodd" fill="#5A5858" d="M6.389,15.576c-0.074,0-0.149,0.004-0.223,0
		c-0.083-0.005-0.122-0.054-0.121-0.136c0-0.006,0-0.013,0-0.018c0.034-0.238,0.003-0.347,0.348-0.332
		c0.081,0.003,0.161-0.002,0.241,0c0.123,0.004,0.17,0.055,0.156,0.174C6.759,15.584,6.74,15.584,6.389,15.576z M6.407,15.405
		c0.019,0,0.031-0.001,0.042,0c0.07,0.011,0.105-0.018,0.105-0.092c0-0.079-0.06-0.055-0.102-0.06c-0.024-0.003-0.048,0.001-0.071,0
		c-0.074-0.007-0.094,0.034-0.09,0.098C6.297,15.445,6.373,15.387,6.407,15.405z"/>
	<path fill-rule="evenodd" clip-rule="evenodd" fill="#5A5858" d="M22.239,17.863c-0.048,0.326-0.095,0.647-0.145,0.978
		c0.146,0,0.287,0,0.429,0C22.522,18.999,22.522,19,22.381,19c-0.16,0-0.32,0-0.495,0c0.056-0.387,0.11-0.761,0.165-1.137
		C22.117,17.863,22.176,17.863,22.239,17.863z"/>
	<path fill-rule="evenodd" clip-rule="evenodd" fill="#5A5858" d="M4.773,14.111c0.123,0,0.217,0,0.3,0
		c0.073,0.235,0.143,0.464,0.217,0.705c-0.092,0-0.188,0-0.284-0.002c-0.012-0.001-0.029-0.021-0.033-0.033
		C4.907,14.563,4.842,14.345,4.773,14.111z"/>
	<path fill-rule="evenodd" clip-rule="evenodd" fill="#5A5858" d="M4.521,19c0.057-0.387,0.112-0.761,0.168-1.138
		c0.065,0,0.123,0,0.189,0c-0.043,0.296-0.085,0.585-0.127,0.875c-0.008,0.056-0.023,0.111-0.024,0.167
		c0,0.078-0.032,0.107-0.108,0.096C4.59,18.996,4.56,19,4.521,19z"/>
	<path fill-rule="evenodd" clip-rule="evenodd" fill="#5A5858" d="M10.804,17.863c0.069,0,0.127,0,0.189,0
		c-0.053,0.363-0.105,0.722-0.161,1.08c-0.003,0.021-0.035,0.049-0.058,0.054c-0.04,0.009-0.083,0.002-0.138,0.002
		C10.693,18.617,10.748,18.243,10.804,17.863z"/>
	<path fill-rule="evenodd" clip-rule="evenodd" fill="#5A5858" d="M21.415,19c0.057-0.386,0.112-0.76,0.168-1.138
		c0.065,0,0.124,0,0.189,0c-0.033,0.226-0.065,0.444-0.097,0.665c-0.021,0.129-0.047,0.257-0.059,0.387
		c-0.006,0.077-0.04,0.095-0.106,0.086C21.481,18.997,21.452,19,21.415,19z"/>
	<path fill-rule="evenodd" clip-rule="evenodd" fill="#5A5858" d="M4.975,14.936c0.066,0.211,0.132,0.419,0.201,0.642
		c-0.092,0-0.185,0.001-0.278-0.001c-0.011,0-0.028-0.012-0.033-0.023c-0.08-0.197-0.159-0.396-0.182-0.617
		C4.787,14.936,4.884,14.936,4.975,14.936z"/>
	<path fill-rule="evenodd" clip-rule="evenodd" fill="#5A5858" d="M11.616,15.878c0.012,0.223,0.022,0.432,0.033,0.646
		c-0.084,0-0.166,0-0.258,0c0-0.203,0-0.402,0.002-0.603c0.001-0.015,0.033-0.039,0.052-0.041
		C11.5,15.874,11.557,15.878,11.616,15.878z"/>
	<path fill-rule="evenodd" clip-rule="evenodd" fill="#5A5858" d="M12.054,16.424c0.057-0.181,0.107-0.345,0.161-0.507
		c0.006-0.017,0.033-0.036,0.051-0.037c0.065-0.005,0.13-0.002,0.218-0.002c-0.064,0.183-0.122,0.353-0.184,0.521
		c-0.005,0.012-0.033,0.022-0.05,0.023C12.189,16.426,12.13,16.424,12.054,16.424z"/>
	<path fill-rule="evenodd" clip-rule="evenodd" fill="#5A5858" d="M6.82,14.826c-0.008,0.064-0.014,0.113-0.021,0.168
		c-0.219,0-0.434,0-0.65,0c-0.001-0.01-0.004-0.019-0.003-0.027c0.02-0.157-0.014-0.14,0.153-0.141
		C6.468,14.825,6.637,14.826,6.82,14.826z"/>
	<path fill-rule="evenodd" clip-rule="evenodd" fill="#5A5858" d="M6.84,14.577c-0.012,0.169-0.012,0.169-0.175,0.169
		c-0.16,0-0.319,0-0.488,0c0.006-0.06,0.011-0.111,0.018-0.169C6.409,14.577,6.622,14.577,6.84,14.577z"/>
	<path fill-rule="evenodd" clip-rule="evenodd" fill="#5A5858" d="M14.455,14.624c-0.092,0-0.179,0-0.276,0
		c-0.01-0.128-0.02-0.251-0.029-0.381c0.094,0,0.178,0,0.266,0C14.429,14.366,14.441,14.489,14.455,14.624z"/>
	<path fill-rule="evenodd" clip-rule="evenodd" fill="#5A5858" d="M6.932,15.095c0.049,0,0.097,0,0.169,0
		c-0.042,0.157-0.072,0.311-0.127,0.454c-0.012,0.031-0.112,0.027-0.187,0.043C6.839,15.413,6.884,15.258,6.932,15.095z"/>
	<path fill-rule="evenodd" clip-rule="evenodd" fill="#5A5858" d="M5.569,15.091c-0.039,0.153-0.073,0.298-0.116,0.438
		c-0.007,0.022-0.055,0.039-0.086,0.047c-0.033,0.008-0.069,0.002-0.106,0.002c0.043-0.158,0.083-0.307,0.127-0.452
		c0.005-0.018,0.044-0.029,0.069-0.034C5.488,15.087,5.521,15.091,5.569,15.091z"/>
	<path fill-rule="evenodd" clip-rule="evenodd" fill="#5A5858" d="M5.983,15.09c0,0.168,0,0.321,0,0.481c-0.047,0-0.093,0-0.149,0
		c0-0.145-0.01-0.293,0.004-0.438C5.847,15.047,5.928,15.107,5.983,15.09z"/>
	<path fill-rule="evenodd" clip-rule="evenodd" fill="#5A5858" d="M7.516,15.574c-0.052,0-0.095,0-0.149,0c0-0.158,0-0.314,0-0.477
		c0.054,0,0.099,0,0.149,0C7.516,15.255,7.516,15.41,7.516,15.574z"/>
	<path fill-rule="evenodd" clip-rule="evenodd" fill="#5A5858" d="M7.122,15.572c0.009-0.165,0.017-0.318,0.024-0.477
		c0.056,0,0.102,0,0.151,0c-0.008,0.161-0.016,0.316-0.024,0.477C7.225,15.572,7.18,15.572,7.122,15.572z"/>
	<path fill-rule="evenodd" clip-rule="evenodd" fill="#5A5858" d="M5.608,15.095c0.065,0,0.109,0,0.156,0
		c-0.009,0.159-0.017,0.314-0.026,0.478c-0.045,0-0.09,0-0.13,0C5.608,15.412,5.608,15.256,5.608,15.095z"/>
</g>
</svg>
