<?xml version="1.0" encoding="utf-8"?>
<!-- Generator: Adobe Illustrator 16.0.3, SVG Export Plug-In . SVG Version: 6.00 Build 0)  -->
<!DOCTYPE svg PUBLIC "-//W3C//DTD SVG 1.1//EN" "http://www.w3.org/Graphics/SVG/1.1/DTD/svg11.dtd">
<svg version="1.1" id="圖層_1" xmlns="http://www.w3.org/2000/svg" xmlns:xlink="http://www.w3.org/1999/xlink" x="0px" y="0px"
	 width="24px" height="24px" viewBox="0 0 24 24" enable-background="new 0 0 24 24" xml:space="preserve">
<image overflow="visible" width="2000" height="836" xlink:href="../../2000px-Taoyuan_International_Airport_Logo.svg.png"  transform="matrix(1 0 0 1 -2504 -330)">
</image>
<g>
	<rect x="5.922" y="4.354" fill-rule="evenodd" clip-rule="evenodd" fill="#00ACDC" width="1.447" height="5.646"/>
	<rect x="5.922" y="10" fill-rule="evenodd" clip-rule="evenodd" fill="#169F5B" width="1.447" height="1.447"/>
	<rect x="3.167" y="10" fill-rule="evenodd" clip-rule="evenodd" fill="#00ACDC" width="2.753" height="1.447"/>
	<rect x="8.815" y="8.553" fill-rule="evenodd" clip-rule="evenodd" fill="#F08500" width="5.645" height="1.447"/>
	<rect x="7.369" y="8.553" fill-rule="evenodd" clip-rule="evenodd" fill="#E0582D" width="1.446" height="1.447"/>
	<rect x="7.369" y="10" fill-rule="evenodd" clip-rule="evenodd" fill="#424E3C" width="1.446" height="1.447"/>
	<rect x="7.369" y="5.802" fill-rule="evenodd" clip-rule="evenodd" fill="#F08500" width="1.446" height="2.752"/>
	<rect x="8.815" y="11.447" fill-rule="evenodd" clip-rule="evenodd" fill="#9FCE82" width="1.447" height="5.645"/>
	<rect x="8.815" y="10" fill-rule="evenodd" clip-rule="evenodd" fill="#169F5B" width="1.447" height="1.447"/>
	<rect x="10.25" y="10" fill-rule="evenodd" clip-rule="evenodd" fill="#9FCE82" width="2.752" height="1.447"/>
	<rect x="1.724" y="11.447" fill-rule="evenodd" clip-rule="evenodd" fill="#FCD78B" width="5.646" height="1.446"/>
	<rect x="7.369" y="11.447" fill-rule="evenodd" clip-rule="evenodd" fill="#E0582D" width="1.446" height="1.446"/>
	<rect x="7.369" y="12.881" fill-rule="evenodd" clip-rule="evenodd" fill="#FCD78B" width="1.446" height="2.754"/>
	<g>
		<path fill-rule="evenodd" clip-rule="evenodd" fill="#9D9D9E" d="M14.634,17.57c-0.097,0-0.187,0.002-0.275-0.004
			c-0.017,0-0.04-0.027-0.048-0.049c-0.041-0.109-0.08-0.219-0.117-0.328c-0.014-0.041-0.034-0.057-0.078-0.057
			c-0.18,0.004-0.358,0.004-0.538,0c-0.046,0-0.069,0.014-0.084,0.059c-0.035,0.107-0.077,0.215-0.113,0.322
			c-0.013,0.041-0.03,0.061-0.075,0.057c-0.077-0.004-0.153,0-0.242,0c0.034-0.09,0.065-0.17,0.095-0.248
			c0.171-0.445,0.343-0.891,0.512-1.338c0.018-0.047,0.04-0.068,0.094-0.064c0.077,0.006,0.175-0.025,0.227,0.012
			c0.056,0.039,0.07,0.137,0.099,0.211c0.174,0.451,0.347,0.9,0.52,1.352C14.616,17.516,14.623,17.537,14.634,17.57z M13.596,16.908
			c0.17,0,0.331,0,0.499,0c-0.082-0.234-0.162-0.463-0.249-0.711C13.758,16.447,13.679,16.674,13.596,16.908z"/>
		<path fill-rule="evenodd" clip-rule="evenodd" fill="#9D9D9E" d="M16.715,17.572c0,0.135,0,0.281,0,0.43c-0.082,0-0.159,0-0.244,0
			c0-0.025,0-0.049,0-0.072c0-0.49,0-0.98-0.002-1.471c-0.001-0.057,0.019-0.082,0.069-0.1c0.169-0.055,0.337-0.107,0.519-0.105
			c0.318,0.002,0.505,0.148,0.564,0.463c0.034,0.184,0.03,0.367-0.033,0.545c-0.076,0.209-0.229,0.324-0.449,0.334
			C17,17.602,16.86,17.58,16.715,17.572z M16.715,16.924c0,0.109,0.002,0.219,0,0.328c-0.002,0.041,0.01,0.066,0.052,0.07
			c0.115,0.012,0.231,0.029,0.346,0.029c0.138,0,0.217-0.09,0.255-0.213c0.043-0.139,0.043-0.283,0-0.424
			c-0.035-0.113-0.104-0.207-0.232-0.209c-0.122-0.004-0.245,0.016-0.367,0.027c-0.041,0.004-0.055,0.029-0.054,0.07
			C16.718,16.711,16.715,16.818,16.715,16.924z"/>
		<path fill-rule="evenodd" clip-rule="evenodd" fill="#9D9D9E" d="M20.893,14.395c0.029-0.197-0.031-0.277-0.229-0.285
			c-0.13-0.006-0.261,0.006-0.393,0.012c-0.025,0-0.051,0.002-0.082,0.006c-0.008-0.072-0.015-0.135-0.022-0.209
			c0.156-0.045,0.314-0.066,0.473-0.051c0.098,0.008,0.197,0.031,0.288,0.068c0.132,0.053,0.21,0.162,0.213,0.305
			c0.008,0.277,0.003,0.557,0.003,0.836c-0.265,0.104-0.53,0.18-0.816,0.107c-0.262-0.068-0.384-0.268-0.32-0.521
			c0.031-0.119,0.104-0.201,0.216-0.248c0.188-0.082,0.383-0.074,0.579-0.037C20.832,14.381,20.861,14.389,20.893,14.395z
			 M20.552,14.977c0.095-0.012,0.17-0.018,0.243-0.033c0.105-0.02,0.105-0.023,0.105-0.129c0-0.043,0.002-0.086-0.002-0.131
			c-0.001-0.016-0.012-0.041-0.023-0.045c-0.185-0.051-0.371-0.078-0.555-0.002c-0.064,0.025-0.083,0.082-0.082,0.148
			c0.002,0.064,0.022,0.119,0.085,0.139C20.403,14.949,20.486,14.961,20.552,14.977z"/>
		<path fill-rule="evenodd" clip-rule="evenodd" fill="#9D9D9E" d="M14.688,14.127c-0.008-0.07-0.016-0.135-0.022-0.209
			c0.156-0.045,0.313-0.064,0.474-0.051c0.091,0.008,0.183,0.027,0.268,0.059c0.144,0.055,0.229,0.166,0.232,0.322
			c0.005,0.264,0.004,0.525,0.003,0.787c0,0.018-0.014,0.045-0.027,0.051c-0.257,0.1-0.519,0.17-0.795,0.096
			c-0.247-0.064-0.357-0.232-0.321-0.482c0.02-0.137,0.097-0.23,0.221-0.285c0.196-0.084,0.397-0.076,0.602-0.033
			c0.023,0.004,0.047,0.008,0.07,0.014c0.033-0.178-0.014-0.26-0.185-0.277c-0.134-0.016-0.271-0.002-0.406,0.002
			C14.767,14.119,14.733,14.123,14.688,14.127z M15.06,14.975c0.086-0.012,0.161-0.016,0.234-0.031
			C15.4,14.922,15.4,14.92,15.4,14.814c0-0.043,0.002-0.088-0.001-0.131c-0.002-0.016-0.014-0.041-0.026-0.045
			c-0.177-0.051-0.355-0.074-0.536-0.012c-0.073,0.025-0.103,0.082-0.102,0.158s0.035,0.129,0.106,0.148
			C14.915,14.955,14.992,14.963,15.06,14.975z"/>
		<path fill-rule="evenodd" clip-rule="evenodd" fill="#9D9D9E" d="M17.042,14.543c-0.009,0.074-0.011,0.152-0.026,0.227
			c-0.07,0.324-0.311,0.482-0.647,0.438c-0.22-0.029-0.367-0.145-0.434-0.355c-0.068-0.217-0.066-0.436,0.008-0.65
			c0.07-0.197,0.215-0.309,0.421-0.33c0.088-0.01,0.181-0.008,0.267,0.012c0.236,0.051,0.348,0.223,0.39,0.447
			C17.033,14.398,17.034,14.469,17.042,14.543z M16.8,14.539c-0.003,0-0.005,0-0.007,0c-0.002-0.043-0.002-0.084-0.007-0.125
			c-0.024-0.189-0.127-0.297-0.292-0.307c-0.182-0.012-0.296,0.068-0.339,0.248c-0.031,0.131-0.031,0.266,0.009,0.396
			c0.046,0.146,0.144,0.215,0.299,0.215c0.158,0,0.254-0.064,0.299-0.215C16.783,14.684,16.788,14.611,16.8,14.539z"/>
		<path fill-rule="evenodd" clip-rule="evenodd" fill="#9D9D9E" d="M17.841,16.922c0.031-0.127,0.055-0.256,0.097-0.377
			c0.043-0.125,0.142-0.205,0.266-0.252c0.391-0.152,0.764,0.078,0.799,0.494c0.016,0.172,0.013,0.344-0.057,0.508
			c-0.078,0.186-0.22,0.285-0.418,0.301c-0.081,0.006-0.166,0.006-0.246-0.01c-0.246-0.049-0.395-0.246-0.415-0.535
			c-0.003-0.043-0.001-0.084-0.001-0.125C17.857,16.924,17.85,16.924,17.841,16.922z M18.092,16.93
			c0.025,0.096,0.04,0.193,0.077,0.281c0.048,0.113,0.151,0.148,0.269,0.148c0.118,0,0.219-0.037,0.27-0.148
			c0.085-0.188,0.085-0.379,0-0.564c-0.052-0.111-0.151-0.148-0.271-0.148s-0.221,0.037-0.269,0.148
			C18.132,16.736,18.117,16.832,18.092,16.93z"/>
		<path fill-rule="evenodd" clip-rule="evenodd" fill="#9D9D9E" d="M22.585,15.172c-0.071,0-0.146,0-0.232,0
			c0-0.025,0-0.051,0-0.076c0-0.195,0-0.389,0-0.582c0-0.029,0-0.059-0.001-0.088c-0.014-0.229-0.112-0.324-0.342-0.318
			c-0.089,0.002-0.178,0.02-0.268,0.031c-0.054,0.006-0.073,0.031-0.073,0.09c0.004,0.287,0.002,0.574,0.002,0.859
			c0,0.025,0,0.053,0,0.084c-0.084,0-0.16,0-0.245,0c0-0.027,0-0.051,0-0.074c0-0.342,0.001-0.684-0.002-1.027
			c0-0.051,0.017-0.076,0.066-0.092c0.21-0.068,0.42-0.133,0.646-0.109c0.256,0.027,0.426,0.172,0.444,0.428
			c0.02,0.285,0.011,0.572,0.014,0.857C22.595,15.158,22.591,15.164,22.585,15.172z"/>
		<path fill-rule="evenodd" clip-rule="evenodd" fill="#9D9D9E" d="M19.493,13.902c0.084,0,0.158,0,0.238,0
			c0.001,0.025,0.004,0.049,0.004,0.072c0,0.342-0.002,0.686,0.001,1.027c0.001,0.057-0.019,0.078-0.07,0.096
			c-0.202,0.07-0.404,0.137-0.624,0.105c-0.252-0.035-0.411-0.174-0.428-0.428c-0.018-0.287-0.004-0.576-0.004-0.871
			c0.068,0,0.145,0,0.232,0c0,0.023,0,0.049,0,0.074c0,0.205,0,0.412,0.001,0.619c0,0.047,0.004,0.096,0.014,0.143
			c0.026,0.141,0.112,0.221,0.256,0.223c0.105,0.002,0.211-0.02,0.316-0.029c0.051-0.006,0.065-0.035,0.064-0.086
			c-0.003-0.283-0.001-0.566-0.001-0.852C19.493,13.969,19.493,13.939,19.493,13.902z"/>
		<path fill-rule="evenodd" clip-rule="evenodd" fill="#9D9D9E" d="M17.234,15.66c0.008-0.057,0.016-0.107,0.024-0.17
			c0.05,0,0.098,0,0.146,0c0.109,0.002,0.189-0.047,0.245-0.141c0.069-0.117,0.096-0.225,0.027-0.363
			c-0.159-0.33-0.297-0.668-0.444-1.004c-0.01-0.023-0.02-0.049-0.033-0.084c0.077,0,0.144-0.004,0.211,0.004
			c0.02,0.002,0.043,0.031,0.053,0.055c0.116,0.264,0.229,0.529,0.344,0.795c0.011,0.023,0.022,0.047,0.038,0.084
			c0.054-0.15,0.102-0.289,0.15-0.428c0.054-0.152,0.108-0.307,0.159-0.459c0.013-0.037,0.029-0.051,0.067-0.049
			c0.061,0.002,0.12,0,0.188,0c-0.01,0.031-0.015,0.055-0.022,0.076c-0.16,0.438-0.319,0.873-0.479,1.311
			c-0.006,0.018-0.012,0.033-0.019,0.049C17.771,15.633,17.561,15.738,17.234,15.66z"/>
		<path fill-rule="evenodd" clip-rule="evenodd" fill="#9D9D9E" d="M13.154,13.584c0.44,0,0.876,0,1.316,0c0,0.076,0,0.146,0,0.229
			c-0.172,0-0.343,0-0.521,0c0,0.467,0,0.928,0,1.391c-0.092,0-0.177,0-0.27,0c0-0.459,0-0.918,0-1.387c-0.179,0-0.35,0-0.525,0
			C13.154,13.736,13.154,13.664,13.154,13.584z"/>
		<path fill-rule="evenodd" clip-rule="evenodd" fill="#9D9D9E" d="M20.389,16.504c-0.057,0-0.102,0-0.171,0
			c0.021-0.063,0.029-0.117,0.057-0.16c0.055-0.088,0.125-0.168,0.18-0.256c0.042-0.068,0.093-0.092,0.178-0.068
			c0,0.084,0,0.172,0,0.268c0.142,0,0.274,0,0.413,0c0,0.072,0,0.141,0,0.217c-0.134,0-0.267,0-0.405,0
			c-0.003,0.023-0.007,0.041-0.007,0.059c0,0.221,0,0.441,0.001,0.662c0,0.107,0.035,0.152,0.143,0.164
			c0.112,0.012,0.227,0.014,0.349,0.02c-0.012,0.049-0.02,0.098-0.037,0.145c-0.006,0.016-0.033,0.037-0.051,0.037
			c-0.133-0.004-0.268,0.004-0.397-0.021c-0.144-0.027-0.232-0.133-0.24-0.283c-0.011-0.211-0.008-0.42-0.01-0.633
			C20.389,16.607,20.389,16.563,20.389,16.504z"/>
		<path fill-rule="evenodd" clip-rule="evenodd" fill="#9D9D9E" d="M19.512,17.57c-0.085,0-0.161,0-0.241,0
			c-0.001-0.018-0.004-0.033-0.004-0.047c-0.001-0.355-0.001-0.713,0.001-1.07c0-0.021,0.014-0.055,0.03-0.063
			c0.235-0.098,0.477-0.166,0.735-0.107c0.019,0.004,0.037,0.01,0.063,0.018c-0.006,0.064-0.012,0.129-0.02,0.203
			c-0.082,0-0.161-0.006-0.24,0c-0.089,0.008-0.178,0.023-0.266,0.035c-0.047,0.006-0.061,0.031-0.061,0.078
			c0.002,0.289,0.001,0.578,0.001,0.867C19.512,17.51,19.512,17.537,19.512,17.57z"/>
		<path fill-rule="evenodd" clip-rule="evenodd" fill="#9D9D9E" d="M16.287,16.305c-0.007,0.066-0.015,0.129-0.022,0.209
			c-0.127,0-0.251-0.01-0.373,0.002c-0.191,0.016-0.19,0.021-0.19,0.215c0,0.252,0,0.506,0,0.758c0,0.025,0,0.053,0,0.082
			c-0.084,0-0.158,0-0.239,0c-0.001-0.023-0.005-0.047-0.005-0.07c0-0.344,0.001-0.689,0-1.033
			c-0.001-0.049,0.012-0.072,0.059-0.092c0.225-0.086,0.452-0.145,0.695-0.094c0.015,0.002,0.028,0.006,0.042,0.01
			C16.263,16.293,16.271,16.297,16.287,16.305z"/>
		<path fill-rule="evenodd" clip-rule="evenodd" fill="#9D9D9E" d="M14.877,17.57c0-0.387,0-0.768,0-1.158c0.076,0,0.151,0,0.232,0
			c0,0.385,0,0.768,0,1.158C15.035,17.57,14.961,17.57,14.877,17.57z"/>
		<path fill-rule="evenodd" clip-rule="evenodd" fill="#9D9D9E" d="M15.138,16.059c0.001,0.078-0.065,0.145-0.145,0.145
			c-0.075-0.002-0.14-0.063-0.142-0.139c-0.004-0.076,0.062-0.145,0.14-0.146C15.069,15.918,15.137,15.982,15.138,16.059z"/>
		<g>
			<path fill-rule="evenodd" clip-rule="evenodd" fill="#9D9D9E" d="M16.204,19.209c0,0.166,0.001,0.33,0,0.496
				c-0.001,0.123-0.055,0.176-0.18,0.176c-0.283,0.002-0.567,0.002-0.851,0c-0.131,0-0.19-0.061-0.191-0.191
				c-0.001-0.332-0.001-0.666,0-0.998c0.001-0.121,0.057-0.178,0.18-0.178c0.287,0,0.573,0,0.859,0c0.119,0,0.181,0.059,0.182,0.18
				C16.206,18.863,16.204,19.037,16.204,19.209z M15.252,18.686c0.079,0,0.15,0.002,0.22-0.002c0.018-0.002,0.034-0.021,0.052-0.031
				c-0.019-0.01-0.036-0.029-0.055-0.029c-0.087-0.004-0.175,0-0.262-0.002c-0.065-0.002-0.092,0.027-0.092,0.092
				c0.001,0.322,0.002,0.645,0,0.969c0,0.068,0.031,0.096,0.098,0.096c0.256-0.002,0.514-0.002,0.771,0
				c0.066,0,0.09-0.027,0.089-0.092c-0.002-0.322-0.002-0.646,0.001-0.969c0-0.066-0.028-0.094-0.09-0.094
				c-0.098-0.002-0.194-0.004-0.292,0c-0.016,0-0.031,0.027-0.047,0.041c0.004,0.006,0.009,0.014,0.013,0.021
				c0.094,0,0.188,0,0.282,0c0,0.033,0,0.059,0,0.092c-0.097,0-0.19,0-0.281,0c-0.017,0.053-0.001,0.068,0.046,0.068
				c0.091-0.002,0.183-0.002,0.276-0.002c0,0.035,0,0.063,0,0.09c-0.259,0-0.513,0-0.767,0c0-0.031,0-0.057,0-0.09
				c0.088,0,0.173,0,0.257,0c0.047,0.002,0.062-0.016,0.042-0.068c-0.085,0-0.173,0-0.262,0
				C15.252,18.74,15.252,18.717,15.252,18.686z"/>
			<path fill-rule="evenodd" clip-rule="evenodd" fill="#9D9D9E" d="M19.775,19.09c0,0.041,0,0.072,0,0.111
				c-0.027,0.002-0.052,0.004-0.078,0.004c-0.164,0-0.33,0-0.494,0c-0.041,0-0.075,0.004-0.063,0.066c0.155,0,0.312,0,0.47,0
				c0.145,0,0.167,0.023,0.167,0.17c0,0.074,0.001,0.15,0.001,0.227c-0.001,0.189-0.065,0.244-0.26,0.223
				c-0.008-0.025-0.016-0.053-0.025-0.084c0.021-0.004,0.036-0.008,0.052-0.01c0.07-0.002,0.102-0.039,0.102-0.105
				c-0.001-0.082-0.002-0.16,0-0.24c0.001-0.059-0.023-0.082-0.08-0.072c-0.034,0.113-0.069,0.227-0.104,0.34
				c-0.007,0.023-0.017,0.047-0.026,0.066c-0.066,0.135-0.033,0.111-0.179,0.109c0.062-0.166,0.123-0.334,0.186-0.502
				c-0.084-0.033-0.11-0.008-0.133,0.055c-0.043,0.121-0.093,0.24-0.147,0.355c-0.052,0.107-0.061,0.107-0.192,0.086
				c0.105-0.154,0.192-0.318,0.231-0.502c-0.067-0.027-0.095-0.006-0.113,0.059c-0.04,0.139-0.105,0.264-0.228,0.367
				c-0.007-0.078-0.018-0.145,0.029-0.211c0.079-0.111,0.114-0.24,0.128-0.375c0.013-0.111,0.04-0.137,0.154-0.137
				C19.37,19.09,19.568,19.09,19.775,19.09z"/>
			<path fill-rule="evenodd" clip-rule="evenodd" fill="#9D9D9E" d="M17.515,19.914c-0.026-0.098-0.013-0.154,0.071-0.186
				c0.046-0.018,0.084-0.053,0.121-0.078c-0.034-0.105-0.065-0.201-0.099-0.305c-0.063,0-0.131,0-0.2,0
				c-0.023,0.117-0.023,0.117,0.08,0.162c0.076,0.031,0.076,0.031,0.062,0.148c-0.05-0.02-0.098-0.037-0.146-0.055
				c-0.029,0.061-0.05,0.121-0.085,0.17c-0.034,0.051-0.082,0.09-0.132,0.129c-0.02-0.066-0.026-0.119,0.019-0.178
				c0.036-0.045,0.054-0.113,0.063-0.172c0.01-0.074,0.002-0.15,0.003-0.227c0.002-0.08,0.026-0.104,0.104-0.105
				c0.056-0.002,0.111-0.002,0.167,0c0.041,0,0.079,0.002,0.06-0.061c0.046,0,0.083,0,0.126,0c0.004,0.018,0.007,0.035,0.012,0.057
				c0.042,0,0.081,0,0.125,0c-0.002-0.021-0.005-0.039-0.007-0.057c0.066-0.01,0.127-0.02,0.143,0.072
				c0.012,0.068-0.006,0.105-0.075,0.109c-0.06,0.004-0.12,0-0.193,0c0.021,0.08,0.04,0.148,0.065,0.238
				c0.059-0.063,0.105-0.113,0.157-0.168c0.019,0.102,0.018,0.189-0.083,0.244c0.047,0.082,0.185,0.111,0.109,0.248
				c-0.064-0.049-0.133-0.1-0.203-0.152C17.696,19.801,17.607,19.855,17.515,19.914z"/>
			<path fill-rule="evenodd" clip-rule="evenodd" fill="#9D9D9E" d="M14.525,19.766c-0.021,0.125-0.021,0.125-0.136,0.123
				c-0.196-0.004-0.268-0.074-0.268-0.27c-0.001-0.348-0.001-0.697-0.001-1.047c0.001-0.02,0.002-0.039,0.003-0.063
				c0.041,0,0.079,0,0.123,0c0,0.1,0,0.197,0,0.314c0.076-0.053,0.139-0.094,0.201-0.137c0.018,0.168,0.029,0.15-0.13,0.248
				c-0.092,0.057-0.103,0.172-0.018,0.24c0.024,0.021,0.05,0.039,0.075,0.059c0.092,0.066,0.092,0.066,0.074,0.201
				c-0.064-0.043-0.127-0.086-0.206-0.139c0.006,0.139,0.006,0.268,0.022,0.395c0.004,0.027,0.063,0.063,0.101,0.072
				C14.417,19.775,14.472,19.766,14.525,19.766z"/>
			<path fill-rule="evenodd" clip-rule="evenodd" fill="#9D9D9E" d="M19.392,19.023c-0.077,0-0.155-0.002-0.232,0
				c-0.064,0.002-0.096-0.033-0.096-0.094c-0.003-0.107-0.002-0.217-0.001-0.326c0.001-0.059,0.032-0.09,0.092-0.09
				c0.162,0,0.325,0,0.487,0c0.066,0.002,0.098,0.037,0.098,0.102c0,0.1,0.002,0.199,0,0.299c-0.003,0.076-0.038,0.107-0.115,0.109
				C19.547,19.023,19.469,19.023,19.392,19.023z M19.609,18.824c-0.119,0-0.24-0.002-0.36,0c-0.022,0.002-0.061,0.018-0.064,0.031
				c-0.009,0.043,0.022,0.059,0.062,0.059c0.103,0,0.204,0,0.306,0C19.611,18.914,19.628,18.885,19.609,18.824z M19.612,18.713
				c0.016-0.064-0.006-0.088-0.064-0.086c-0.1,0.002-0.198,0.002-0.297,0c-0.065-0.002-0.076,0.029-0.063,0.086
				C19.332,18.713,19.471,18.713,19.612,18.713z"/>
			<path fill-rule="evenodd" clip-rule="evenodd" fill="#9D9D9E" d="M13.698,18.701c0.062,0.045,0.117,0.086,0.187,0.137
				c0-0.121,0-0.223,0-0.326c0.047,0,0.085,0,0.131,0c0,0.035,0,0.066-0.001,0.098c-0.003,0.266-0.002,0.533-0.011,0.801
				c-0.005,0.141-0.064,0.264-0.144,0.381c-0.065,0.098-0.146,0.115-0.246,0.092c0.064-0.086,0.14-0.166,0.188-0.262
				c0.047-0.092,0.065-0.199,0.097-0.299c-0.007-0.004-0.014-0.008-0.021-0.012c-0.055,0.043-0.11,0.086-0.175,0.135
				c-0.011-0.088-0.016-0.154,0.066-0.203c0.077-0.047,0.144-0.113,0.116-0.219c-0.006-0.025-0.021-0.049-0.039-0.068
				c-0.012-0.014-0.032-0.02-0.048-0.031C13.691,18.855,13.686,18.842,13.698,18.701z"/>
			<path fill-rule="evenodd" clip-rule="evenodd" fill="#9D9D9E" d="M17.203,18.826c-0.051,0-0.096,0-0.15,0
				c0,0.357,0,0.707,0,1.063c-0.043,0-0.079,0-0.124,0c0-0.352,0-0.701,0-1.057c-0.058-0.004-0.104-0.006-0.157-0.008
				c0-0.041,0-0.078,0-0.123c0.049,0,0.096,0,0.153,0c0-0.068,0-0.129,0-0.195c0.044,0,0.08,0,0.123,0c0,0.061,0,0.123,0,0.191
				c0.056,0,0.102,0,0.155,0C17.203,18.742,17.203,18.779,17.203,18.826z"/>
			<path fill-rule="evenodd" clip-rule="evenodd" fill="#9D9D9E" d="M18.641,18.908c-0.057,0-0.104,0-0.158,0
				c0-0.039,0-0.074,0-0.115c0.049,0,0.099,0,0.157,0c0-0.09,0-0.174,0-0.26c0.049,0,0.09,0,0.137,0c0,0.082,0,0.164,0,0.254
				c0.059,0,0.11,0,0.167,0c0,0.043,0,0.078,0,0.119c-0.053,0-0.103,0-0.159,0c0,0.145,0,0.283,0,0.432
				c0.053-0.025,0.1-0.051,0.146-0.074c0.028,0.1,0.024,0.115-0.061,0.16c-0.125,0.066-0.253,0.129-0.383,0.195
				c-0.025-0.129-0.027-0.133,0.073-0.17c0.06-0.023,0.086-0.053,0.082-0.123C18.636,19.191,18.641,19.055,18.641,18.908z"/>
			<path fill-rule="evenodd" clip-rule="evenodd" fill="#9D9D9E" d="M13.379,18.818c-0.061,0-0.106,0-0.157,0
				c0-0.039,0-0.078,0-0.121c0.047-0.002,0.095-0.004,0.15-0.008c0-0.059,0-0.115,0-0.178c0.046,0,0.082,0,0.129,0
				c0,0.061,0,0.117,0,0.182c0.054,0,0.099,0,0.15,0c0,0.043,0,0.08,0,0.125c-0.047,0-0.095,0-0.149,0c0,0.357,0,0.709,0,1.064
				c-0.043,0-0.078,0-0.123,0C13.379,19.533,13.379,19.18,13.379,18.818z"/>
			<path fill-rule="evenodd" clip-rule="evenodd" fill="#9D9D9E" d="M17.952,18.521c-0.041,0.051-0.082,0.105-0.13,0.166
				c0.029,0.002,0.05,0.002,0.068,0.008c0.029,0.01,0.074,0.018,0.082,0.039s-0.013,0.063-0.032,0.086
				c-0.041,0.051-0.088,0.096-0.145,0.156c0.074,0,0.135,0,0.194,0c0,0.109-0.006,0.117-0.103,0.117
				c-0.061,0-0.121,0.004-0.182-0.002c-0.029-0.004-0.068-0.02-0.083-0.041c-0.009-0.016,0.012-0.059,0.028-0.08
				c0.046-0.059,0.099-0.111,0.161-0.18c-0.051,0-0.081,0.002-0.111,0c-0.053-0.006-0.074-0.045-0.043-0.086
				c0.045-0.063,0.09-0.129,0.148-0.178c0.032-0.025,0.093-0.018,0.139-0.023C17.948,18.51,17.95,18.516,17.952,18.521z"/>
			<path fill-rule="evenodd" clip-rule="evenodd" fill="#9D9D9E" d="M17.4,18.982c0.075,0,0.127,0,0.181,0
				c0.004,0.098-0.007,0.111-0.093,0.111c-0.061,0-0.121,0.004-0.182-0.002c-0.027-0.004-0.063-0.02-0.075-0.041
				c-0.009-0.016,0.008-0.055,0.023-0.076c0.048-0.059,0.101-0.111,0.166-0.184c-0.05,0-0.081,0.002-0.112,0
				c-0.054-0.006-0.073-0.045-0.042-0.088c0.046-0.063,0.091-0.129,0.149-0.178c0.031-0.025,0.09-0.016,0.146-0.008
				c-0.042,0.055-0.083,0.109-0.132,0.172c0.031,0.002,0.054,0,0.073,0.006c0.027,0.008,0.073,0.018,0.077,0.035
				c0.006,0.025-0.011,0.064-0.029,0.088C17.51,18.871,17.46,18.918,17.4,18.982z"/>
			<path fill-rule="evenodd" clip-rule="evenodd" fill="#9D9D9E" d="M16.814,18.93c0.024,0,0.052,0,0.102,0
				c-0.031,0.27-0.063,0.537-0.094,0.807c-0.046,0-0.079,0-0.113,0C16.744,19.467,16.778,19.201,16.814,18.93z"/>
			<path fill-rule="evenodd" clip-rule="evenodd" fill="#9D9D9E" d="M13.271,19.736c-0.049,0-0.08,0-0.112,0
				c0.034-0.271,0.069-0.539,0.104-0.811c0.024,0,0.055,0,0.103,0C13.334,19.195,13.303,19.463,13.271,19.736z"/>
			<path fill-rule="evenodd" clip-rule="evenodd" fill="#9D9D9E" d="M13.69,19.672c-0.098,0.01-0.099,0.01-0.108-0.082
				c-0.025-0.219-0.049-0.438-0.074-0.664c0.045,0,0.075,0,0.103,0C13.637,19.172,13.663,19.42,13.69,19.672z"/>
			<path fill-rule="evenodd" clip-rule="evenodd" fill="#9D9D9E" d="M17.228,19.6c-0.033,0-0.063,0-0.104,0
				c-0.02-0.223-0.04-0.443-0.061-0.666c0.025-0.004,0.037-0.008,0.048-0.008c0.017,0,0.033,0.002,0.052,0.002
				C17.185,19.152,17.206,19.373,17.228,19.6z"/>
			<path fill-rule="evenodd" clip-rule="evenodd" fill="#9D9D9E" d="M15.565,19.299c0,0.088,0.003,0.166,0,0.244
				c-0.004,0.064,0.021,0.094,0.087,0.09c0.022-0.002,0.043,0,0.073,0.002c-0.012,0.037-0.021,0.068-0.032,0.104
				c-0.08-0.008-0.178,0.031-0.218-0.061c-0.031-0.068-0.027-0.154-0.038-0.227c-0.062,0.086-0.126,0.178-0.19,0.268
				c-0.026-0.072-0.034-0.133,0.012-0.195c0.048-0.064,0.084-0.139,0.125-0.207c-0.014-0.01-0.016-0.016-0.02-0.016
				c-0.047-0.016-0.124-0.018-0.132-0.045c-0.021-0.066-0.017-0.141-0.011-0.213c0.002-0.016,0.049-0.041,0.074-0.043
				c0.199-0.004,0.398-0.002,0.597,0c0.06,0,0.089,0.033,0.09,0.09c0.002,0.029,0.002,0.059,0.001,0.088
				c-0.002,0.086-0.033,0.119-0.119,0.119C15.768,19.299,15.671,19.299,15.565,19.299z M15.863,19.107
				c-0.025-0.002-0.051-0.004-0.076-0.004c-0.134,0-0.267,0-0.399,0c-0.029,0-0.067-0.014-0.066,0.039
				c0.001,0.051,0.034,0.051,0.07,0.051c0.138,0,0.275-0.002,0.414,0C15.868,19.195,15.88,19.166,15.863,19.107z"/>
			<path fill-rule="evenodd" clip-rule="evenodd" fill="#9D9D9E" d="M15.972,19.342c0,0.037,0,0.066,0,0.105
				c-0.033,0-0.067-0.004-0.099,0c-0.021,0.002-0.055,0.008-0.057,0.02c-0.005,0.02,0.003,0.049,0.016,0.064
				c0.055,0.066,0.112,0.131,0.174,0.203c-0.084,0.014-0.154,0.014-0.203-0.066c-0.035-0.057-0.079-0.105-0.108-0.162
				c-0.048-0.092-0.006-0.16,0.096-0.164C15.848,19.342,15.905,19.342,15.972,19.342z"/>
		</g>
	</g>
</g>
</svg>
