<?xml version="1.0" encoding="utf-8"?>
<!-- Generator: Adobe Illustrator 16.0.3, SVG Export Plug-In . SVG Version: 6.00 Build 0)  -->
<!DOCTYPE svg PUBLIC "-//W3C//DTD SVG 1.1//EN" "http://www.w3.org/Graphics/SVG/1.1/DTD/svg11.dtd">
<svg version="1.1" id="圖層_1" xmlns="http://www.w3.org/2000/svg" xmlns:xlink="http://www.w3.org/1999/xlink" x="0px" y="0px"
	 width="24px" height="24px" viewBox="0 0 24 24" enable-background="new 0 0 24 24" xml:space="preserve">
<path fill="#125AB3" d="M19.547,18.475c0,0.862-0.699,1.562-1.562,1.562H5.608c-0.862,0-1.562-0.699-1.562-1.562V6.098
	c0-0.862,0.699-1.562,1.562-1.562h12.377c0.862,0,1.562,0.699,1.562,1.562V18.475z"/>
<path fill="#FFFFFF" d="M11.333,6.84H6.83v10.887h1.705v-4.372h2.754c0,0,2.536-0.044,2.711-3.104
	C14,10.25,14.307,7.146,11.333,6.84z M12.251,10.031c0,1.793-1.53,1.618-1.53,1.618H8.623V8.457h2.273
	C12.383,8.633,12.251,10.031,12.251,10.031z"/>
<g>
	<circle fill="#FFFFFF" cx="15.717" cy="13.879" r="0.459"/>
	<path fill="#FFFFFF" d="M17.329,14.85l-0.568-1.421c-0.219-0.524-0.766-0.503-0.766-0.503h-2.448c-0.547,0-0.787,0.459-0.787,0.459
		l-0.568,1.465c-0.284,0.065-0.307,0.438-0.307,0.438v0.896c0,0.438,0.163,0.615,0.328,0.681v0.478c0,0.242,0.196,0.438,0.438,0.438
		h0.219c0.241,0,0.438-0.195,0.438-0.438v-0.459h2.886v0.459c0,0.242,0.195,0.438,0.437,0.438h0.219
		c0.242,0,0.438-0.195,0.438-0.438v-0.497c0.267-0.142,0.284-0.574,0.284-0.574v-1.071C17.548,14.871,17.329,14.85,17.329,14.85z
		 M13.05,16.131c-0.199,0-0.361-0.161-0.361-0.36s0.162-0.361,0.361-0.361s0.36,0.162,0.36,0.361S13.249,16.131,13.05,16.131z
		 M16.536,16.131c-0.199,0-0.36-0.161-0.36-0.36s0.161-0.361,0.36-0.361s0.361,0.162,0.361,0.361S16.735,16.131,16.536,16.131z
		 M16.667,14.768c-0.044-0.195-0.218-0.342-0.426-0.342h-1.049c-0.209,0-0.383,0.146-0.427,0.342h-2.323l0.525-1.203
		c0.087-0.438,0.59-0.415,0.59-0.415s2.361-0.022,2.427,0c0.459,0,0.547,0.35,0.547,0.35l0.48,1.269H16.667z"/>
</g>
</svg>
