<?xml version="1.0" encoding="utf-8"?>
<!-- Generator: Adobe Illustrator 16.0.3, SVG Export Plug-In . SVG Version: 6.00 Build 0)  -->
<!DOCTYPE svg PUBLIC "-//W3C//DTD SVG 1.1//EN" "http://www.w3.org/Graphics/SVG/1.1/DTD/svg11.dtd">
<svg version="1.1" id="Layer_1" xmlns="http://www.w3.org/2000/svg" xmlns:xlink="http://www.w3.org/1999/xlink" x="0px" y="0px"
	 width="24px" height="24px" viewBox="285.64 408.945 24 24" enable-background="new 285.64 408.945 24 24" xml:space="preserve">
<path fill="#2DA4C5" d="M308.39,427.169c0,2.5-2.026,4.526-4.526,4.526h-12.447c-2.5,0-4.526-2.026-4.526-4.526v-12.447
	c0-2.5,2.027-4.526,4.526-4.526h12.447c2.5,0,4.526,2.027,4.526,4.526V427.169z"/>
<g>
	<path fill-rule="evenodd" clip-rule="evenodd" fill="#FFFFFF" d="M292.641,423.682c-0.214,0-0.354,0-0.543,0
		c0,1.211,0,2.406,0,3.604c0,0.191,0,0.383-0.001,0.576c-0.001,0.352-0.196,0.543-0.531,0.549c-0.337,0.008-0.543-0.189-0.551-0.533
		c-0.016-0.559-0.011-1.119-0.012-1.678c-0.001-0.828-0.001-1.656-0.001-2.52c-0.498,0-0.94,0-1.442,0
		c0.501-1.813,0.988-3.574,1.476-5.332c-0.333-0.143-0.483-0.025-0.571,0.287c-0.241,0.859-0.508,1.713-0.758,2.57
		c-0.097,0.326-0.264,0.572-0.644,0.469c-0.393-0.107-0.392-0.438-0.303-0.742c0.318-1.088,0.645-2.172,0.993-3.25
		c0.206-0.639,0.739-1.014,1.411-1.027c0.768-0.014,1.535-0.016,2.303,0c0.738,0.016,1.359,0.479,1.578,1.182
		c0.319,1.02,0.616,2.047,0.93,3.068c0.107,0.35,0.086,0.658-0.308,0.777c-0.392,0.117-0.539-0.174-0.632-0.482
		c-0.286-0.947-0.566-1.895-0.858-2.871c-0.146,0-0.296,0-0.496,0c0.498,1.779,0.989,3.539,1.492,5.338c-0.483,0-0.926,0-1.445,0
		c0,0.197,0,0.365,0,0.533c0,1.184-0.006,2.365,0.003,3.549c0.003,0.377-0.12,0.646-0.52,0.66c-0.429,0.014-0.573-0.262-0.571-0.658
		c0.005-1.168,0.001-2.336,0.001-3.502C292.641,424.075,292.641,423.901,292.641,423.682z"/>
	<path fill-rule="evenodd" clip-rule="evenodd" fill="#FFFFFF" d="M305.875,418.296c-0.2,0-0.336,0-0.527,0c0,0.186,0,0.357,0,0.527
		c0,2.832-0.001,5.664-0.001,8.494c0,0.111,0.002,0.225-0.001,0.336c-0.016,0.482-0.27,0.756-0.685,0.744
		c-0.393-0.012-0.641-0.279-0.645-0.736c-0.008-1.168-0.002-2.336-0.002-3.504c0-0.621,0-1.242,0-1.895
		c-0.172-0.01-0.309-0.016-0.472-0.023c-0.019,0.125-0.047,0.23-0.047,0.336c-0.003,1.615-0.001,3.23-0.004,4.846
		c0,0.16,0.002,0.324-0.036,0.477c-0.093,0.359-0.341,0.531-0.712,0.494c-0.353-0.037-0.541-0.25-0.57-0.6
		c-0.012-0.143-0.007-0.287-0.007-0.43c0-2.832,0-5.664,0-8.496c0-0.172,0-0.346,0-0.559c-0.184-0.016-0.334-0.027-0.561-0.047
		c0,0.582,0,1.133,0,1.684c-0.001,0.592-0.003,1.186,0.001,1.775c0.001,0.293-0.104,0.516-0.417,0.543
		c-0.343,0.029-0.51-0.199-0.513-0.502c-0.012-1.248-0.038-2.498,0.013-3.742c0.031-0.799,0.639-1.361,1.45-1.385
		c1.087-0.033,2.176-0.025,3.262,0.014c0.81,0.031,1.383,0.662,1.395,1.484c0.015,1.168,0.002,2.334,0.007,3.504
		c0.001,0.336-0.063,0.643-0.469,0.635s-0.458-0.336-0.459-0.658C305.873,420.526,305.875,419.44,305.875,418.296z"/>
	<path fill-rule="evenodd" clip-rule="evenodd" fill="#FFFFFF" d="M298.686,428.432c-0.376,0-0.721,0-1.103,0
		c0-4.801,0-9.586,0-14.404c0.361,0,0.719,0,1.103,0C298.686,418.825,298.686,423.6,298.686,428.432z"/>
	<path fill-rule="evenodd" clip-rule="evenodd" fill="#FFFFFF" d="M292.379,416.411c-0.657,0.006-1.185-0.523-1.182-1.18
		c0.003-0.645,0.499-1.148,1.144-1.162c0.674-0.014,1.188,0.48,1.197,1.148S293.041,416.407,292.379,416.411z"/>
	<path fill-rule="evenodd" clip-rule="evenodd" fill="#FFFFFF" d="M303.758,416.38c-0.667,0.004-1.188-0.508-1.187-1.166
		c0.001-0.652,0.538-1.18,1.193-1.172c0.63,0.008,1.16,0.531,1.173,1.154C304.951,415.841,304.417,416.376,303.758,416.38z"/>
</g>
</svg>
