<?xml version="1.0" encoding="utf-8"?>
<!-- Generator: Adobe Illustrator 16.0.3, SVG Export Plug-In . SVG Version: 6.00 Build 0)  -->
<!DOCTYPE svg PUBLIC "-//W3C//DTD SVG 1.1//EN" "http://www.w3.org/Graphics/SVG/1.1/DTD/svg11.dtd">
<svg version="1.1" id="Layer_1" xmlns="http://www.w3.org/2000/svg" xmlns:xlink="http://www.w3.org/1999/xlink" x="0px" y="0px"
	 width="24px" height="24px" viewBox="285.64 408.945 24 24" enable-background="new 285.64 408.945 24 24" xml:space="preserve">
<path fill="#2DA4C5" d="M308.39,427.169c0,2.5-2.026,4.526-4.526,4.526h-12.447c-2.5,0-4.526-2.026-4.526-4.526v-12.447
	c0-2.5,2.027-4.526,4.526-4.526h12.447c2.5,0,4.526,2.027,4.526,4.526V427.169z"/>
<path fill="#FFFFFF" d="M297.408,417.908v2.223c0,0.109-0.044,0.214-0.122,0.291l-1.33,1.319l-0.751,0.746
	c-0.246,0.244-0.676,0.096-0.699-0.25c-0.001-0.013-0.001-0.023-0.001-0.034v-4.269c0-0.805,0.651-1.478,1.452-1.479
	c0.009,0,0.017,0.002,0.025,0.002C296.77,416.47,297.408,417.117,297.408,417.908z"/>
<path fill="#FFFFFF" d="M297.396,414.635c0,0.796-0.646,1.443-1.44,1.447h-0.005c-0.797,0-1.447-0.649-1.447-1.447
	c0-0.796,0.649-1.445,1.447-1.445h0.005C296.75,413.194,297.396,413.841,297.396,414.635z"/>
<path fill="#FFFFFF" d="M305.506,418.728c0.009,0.509-0.183,0.989-0.539,1.35c-0.356,0.363-0.833,0.563-1.341,0.563h-2.295
	l-4.218,4.281l-2.079,2.11c-0.417,0.423-0.997,0.665-1.59,0.665h-2.808c-1.032,0-1.886-0.828-1.903-1.848
	c-0.009-0.509,0.184-0.988,0.54-1.352c0.356-0.361,0.832-0.561,1.341-0.561h2.024l4.476-4.544l1.821-1.848
	c0.417-0.422,0.996-0.665,1.59-0.665h3.078C304.636,416.88,305.49,417.709,305.506,418.728z"/>
<polygon fill="#FFFFFF" points="300.64,425.57 306.265,425.57 303.515,422.195 "/>
<rect x="302.265" y="425.445" fill="#FFFFFF" width="2.375" height="3.75"/>
</svg>
