<?xml version="1.0" encoding="utf-8"?>
<!-- Generator: Adobe Illustrator 16.0.3, SVG Export Plug-In . SVG Version: 6.00 Build 0)  -->
<!DOCTYPE svg PUBLIC "-//W3C//DTD SVG 1.1//EN" "http://www.w3.org/Graphics/SVG/1.1/DTD/svg11.dtd">
<svg version="1.1" id="Layer_1" xmlns="http://www.w3.org/2000/svg" xmlns:xlink="http://www.w3.org/1999/xlink" x="0px" y="0px"
	 width="24px" height="24px" viewBox="285.64 408.945 24 24" enable-background="new 285.64 408.945 24 24" xml:space="preserve">
<path fill="#2DA4C5" d="M308.39,427.169c0,2.5-2.026,4.526-4.526,4.526h-12.447c-2.5,0-4.526-2.026-4.526-4.526v-12.447
	c0-2.5,2.027-4.526,4.526-4.526h12.447c2.5,0,4.526,2.027,4.526,4.526V427.169z"/>
<path fill="#FFFFFF" d="M300.632,416.706h-7.481l-3.74,4.489v2.244h1.496c0,1.239,1.005,2.244,2.244,2.244
	c1.24,0,2.245-1.005,2.245-2.244h4.488c0,1.239,1.006,2.244,2.244,2.244c1.239,0,2.245-1.005,2.245-2.244h1.496v-2.244
	c0-0.831-0.666-1.496-1.496-1.496h-1.497L300.632,416.706 M293.525,417.828h2.993v1.871h-4.489L293.525,417.828 M297.64,417.828
	h2.619l1.465,1.871h-4.084V417.828 M293.151,422.317c0.62,0,1.122,0.502,1.122,1.122s-0.502,1.122-1.122,1.122
	s-1.122-0.502-1.122-1.122S292.532,422.317,293.151,422.317 M302.128,422.317c0.62,0,1.122,0.502,1.122,1.122
	s-0.502,1.122-1.122,1.122c-0.619,0-1.122-0.502-1.122-1.122S301.509,422.317,302.128,422.317z"/>
</svg>
