<?xml version="1.0" encoding="utf-8"?>
<!-- Generator: Adobe Illustrator 16.0.3, SVG Export Plug-In . SVG Version: 6.00 Build 0)  -->
<!DOCTYPE svg PUBLIC "-//W3C//DTD SVG 1.1//EN" "http://www.w3.org/Graphics/SVG/1.1/DTD/svg11.dtd">
<svg version="1.1" id="Layer_1" xmlns="http://www.w3.org/2000/svg" xmlns:xlink="http://www.w3.org/1999/xlink" x="0px" y="0px"
	 width="24px" height="24px" viewBox="285.64 408.945 24 24" enable-background="new 285.64 408.945 24 24" xml:space="preserve">
<path fill="#2DA4C5" d="M308.39,427.169c0,2.5-2.026,4.526-4.526,4.526h-12.447c-2.5,0-4.526-2.026-4.526-4.526v-12.447
	c0-2.5,2.027-4.526,4.526-4.526h12.447c2.5,0,4.526,2.027,4.526,4.526V427.169z"/>
<g>
	<path fill="#FFFFFF" d="M289.3,421.918l1.613-1.503c0,0,2.613-5.783,7.952-5.559c0,0,3.836,0.11,3.947,4.67h2.891
		c0,0,0.279-6.004-6.172-6.228c0,0-5.283-0.167-8.62,4.895C290.913,418.191,289.412,420.303,289.3,421.918z"/>
	<path fill="#FFFFFF" d="M289.022,422.918h3.003c0,0-0.277,4.836,4.504,4.783c0,0,4.672,0.053,7.174-5.285l1.777-1.835
		c0,0-1.389,6.841-8.676,8.565c0,0-4.17,0.666-6.339-1.947C290.466,427.199,289.188,426.029,289.022,422.918z"/>
	<path fill="#FFFFFF" d="M289.912,422.193l2.168-2.167h1.391l2.78-2.892h4.061l0.33,0.667h-3.001l-2.168,2.168h0.834
		c0,0,0.167,0.056,0.445-0.333l1-1c0,0,0.223-0.111,0.61-0.111h3.115l0.609,1.167l-3.945-0.112l-2.501,2.336
		c0,0-0.223,0.335-1,0.335L289.912,422.193z"/>
	<path fill="#FFFFFF" d="M304.814,420.332l-2.168,2.168h-1.391l-2.779,2.893h-4.062l-0.333-0.668h3.002l2.168-2.17h-0.836
		c0,0-0.166-0.055-0.442,0.336l-1.001,1.002c0,0-0.223,0.111-0.61,0.111h-3.112l-0.612-1.17l3.949,0.111l2.501-2.334
		c0,0,0.225-0.333,1-0.333L304.814,420.332z"/>
</g>
</svg>
