<?xml version="1.0" encoding="utf-8"?>
<!-- Generator: Adobe Illustrator 16.0.3, SVG Export Plug-In . SVG Version: 6.00 Build 0)  -->
<!DOCTYPE svg PUBLIC "-//W3C//DTD SVG 1.1//EN" "http://www.w3.org/Graphics/SVG/1.1/DTD/svg11.dtd">
<svg version="1.1" id="Layer_1" xmlns="http://www.w3.org/2000/svg" xmlns:xlink="http://www.w3.org/1999/xlink" x="0px" y="0px"
	 width="24px" height="24px" viewBox="285.64 408.945 24 24" enable-background="new 285.64 408.945 24 24" xml:space="preserve">
<path fill="#2DA4C5" d="M308.39,427.169c0,2.5-2.026,4.526-4.526,4.526h-12.447c-2.5,0-4.526-2.026-4.526-4.526v-12.447
	c0-2.5,2.027-4.526,4.526-4.526h12.447c2.5,0,4.526,2.027,4.526,4.526V427.169z"/>
<path fill="#FFFFFF" d="M290.724,428.028h13.5v-1.5h-13.5 M304.224,418.278h-1.5v-2.25h1.5 M304.224,414.528h-12v7.5
	c0,1.656,1.343,3,3,3h4.5c1.656,0,3-1.344,3-3v-2.25h1.5c0.828,0,1.5-0.672,1.5-1.5v-2.25
	C305.724,415.195,305.048,414.528,304.224,414.528z"/>
</svg>
