<?xml version="1.0" encoding="utf-8"?>
<!-- Generator: Adobe Illustrator 16.0.3, SVG Export Plug-In . SVG Version: 6.00 Build 0)  -->
<!DOCTYPE svg PUBLIC "-//W3C//DTD SVG 1.1//EN" "http://www.w3.org/Graphics/SVG/1.1/DTD/svg11.dtd">
<svg version="1.1" id="Layer_1" xmlns="http://www.w3.org/2000/svg" xmlns:xlink="http://www.w3.org/1999/xlink" x="0px" y="0px"
	 width="24px" height="24px" viewBox="285.64 408.945 24 24" enable-background="new 285.64 408.945 24 24" xml:space="preserve">
<path fill="#2DA4C5" d="M308.39,427.169c0,2.5-2.026,4.526-4.526,4.526h-12.447c-2.5,0-4.526-2.026-4.526-4.526v-12.447
	c0-2.5,2.027-4.526,4.526-4.526h12.447c2.5,0,4.526,2.027,4.526,4.526V427.169z"/>
<path fill="#FFFFFF" d="M304.473,426.112h-13.333v-10h13.333 M304.473,414.445h-13.333c-0.925,0-1.667,0.742-1.667,1.667v10
	c0,0.919,0.746,1.666,1.667,1.666h13.333c0.921,0,1.667-0.747,1.667-1.666v-10C306.14,415.187,305.39,414.445,304.473,414.445
	 M296.974,425.278h1.667v-0.833h0.834c0.46,0,0.833-0.373,0.833-0.833v-2.5c0-0.46-0.373-0.833-0.833-0.833h-2.5v-0.833h3.333
	v-1.667h-1.667v-0.833h-1.667v0.833h-0.833c-0.46,0-0.833,0.373-0.833,0.833v2.5c0,0.46,0.373,0.833,0.833,0.833h2.5v0.834h-3.333
	v1.666h1.667V425.278z"/>
</svg>
