<?xml version="1.0" encoding="utf-8"?>
<!-- Generator: Adobe Illustrator 16.0.3, SVG Export Plug-In . SVG Version: 6.00 Build 0)  -->
<!DOCTYPE svg PUBLIC "-//W3C//DTD SVG 1.1//EN" "http://www.w3.org/Graphics/SVG/1.1/DTD/svg11.dtd">
<svg version="1.1" id="Layer_1" xmlns="http://www.w3.org/2000/svg" xmlns:xlink="http://www.w3.org/1999/xlink" x="0px" y="0px"
	 width="24px" height="24px" viewBox="285.64 408.945 24 24" enable-background="new 285.64 408.945 24 24" xml:space="preserve">
<path fill="#2DA4C5" d="M308.39,427.169c0,2.5-2.026,4.526-4.526,4.526h-12.447c-2.5,0-4.526-2.026-4.526-4.526v-12.447
	c0-2.5,2.027-4.526,4.526-4.526h12.447c2.5,0,4.526,2.027,4.526,4.526V427.169z"/>
<g>
	<path fill="#FFFFFF" d="M292.864,414.822l0.227-0.229l0.001,1.234c0,0.429,0.347,0.776,0.778,0.776c0.43,0,0.778-0.347,0.778-0.778
		l-0.001-1.234l0.228,0.23c0.152,0.151,0.352,0.226,0.55,0.226c0.199,0,0.399-0.075,0.551-0.226c0.304-0.304,0.304-0.796,0-1.102
		l-1.556-1.554c-0.304-0.304-0.796-0.304-1.101,0l-1.555,1.554c-0.304,0.306-0.304,0.798,0,1.102
		C292.068,415.125,292.56,415.125,292.864,414.822z"/>
	<path fill="#FFFFFF" d="M303.777,414.822c0.304-0.304,0.304-0.796,0-1.1c-0.304-0.305-0.795-0.305-1.101,0l-0.229,0.229
		l0.002-1.234c0-0.431-0.35-0.778-0.778-0.778c-0.43,0-0.777,0.347-0.777,0.776l-0.002,1.234l-0.227-0.229
		c-0.304-0.303-0.795-0.303-1.099,0c-0.304,0.306-0.304,0.798,0,1.102l1.556,1.556c0.15,0.151,0.349,0.226,0.549,0.226
		c0.199,0,0.397-0.075,0.55-0.226L303.777,414.822z"/>
</g>
<path fill="#FFFFFF" d="M302.188,418.051h-3.921h-5.732c-0.665,0-1.207,0.541-1.207,1.207v8.68c0,0.666,0.542,1.207,1.207,1.207
	h9.653c0.666,0,1.207-0.541,1.207-1.207v-8.68C303.395,418.592,302.854,418.051,302.188,418.051z M302.792,427.937
	c0,0.333-0.271,0.604-0.604,0.604h-9.653c-0.333,0-0.603-0.271-0.603-0.604v-8.68c0-0.333,0.271-0.604,0.603-0.604h9.653
	c0.333,0,0.604,0.271,0.604,0.604V427.937z"/>
<g>
	<g>
		<g>
			<path fill="#FFFFFF" d="M293.948,422.224c-0.593,0-1.075-0.482-1.075-1.075s0.482-1.074,1.075-1.074s1.075,0.481,1.075,1.074
				S294.541,422.224,293.948,422.224z"/>
			<g>
				<path fill="#FFFFFF" d="M295.107,424.802h-0.232c-0.128,0-0.232,0.104-0.232,0.231v2.087h-1.391v-2.087
					c0-0.128-0.104-0.231-0.232-0.231h-0.232v-1.613c0-0.084,0.043-0.161,0.112-0.199l0.079-0.044
					c0.207-0.119,0.402-0.23,0.969-0.23c0.566,0,0.762,0.111,0.969,0.23l0.079,0.044c0.069,0.038,0.112,0.115,0.112,0.199V424.802z"
					/>
			</g>
		</g>
	</g>
	<g>
		<g>
			<path fill="#FFFFFF" d="M297.362,422.224c-0.593,0-1.075-0.482-1.075-1.075s0.482-1.074,1.075-1.074s1.075,0.481,1.075,1.074
				S297.955,422.224,297.362,422.224z"/>
			<g>
				<path fill="#FFFFFF" d="M298.521,424.802h-0.231c-0.129,0-0.232,0.104-0.232,0.231v2.087h-1.392v-2.087
					c0-0.128-0.104-0.231-0.231-0.231h-0.232v-1.613c0-0.084,0.043-0.161,0.112-0.199l0.079-0.044
					c0.207-0.119,0.402-0.23,0.969-0.23s0.762,0.111,0.969,0.23l0.078,0.044c0.069,0.038,0.112,0.115,0.112,0.199V424.802z"/>
			</g>
		</g>
	</g>
	<g>
		<g>
			<path fill="#FFFFFF" d="M300.776,422.224c-0.593,0-1.075-0.482-1.075-1.075s0.482-1.074,1.075-1.074s1.075,0.481,1.075,1.074
				S301.369,422.224,300.776,422.224z"/>
			<g>
				<path fill="#FFFFFF" d="M301.935,424.802h-0.232c-0.128,0-0.231,0.104-0.231,0.231v2.087h-1.392v-2.087
					c0-0.128-0.104-0.231-0.231-0.231h-0.232v-1.613c0-0.084,0.043-0.161,0.112-0.199l0.079-0.044
					c0.207-0.119,0.401-0.23,0.969-0.23c0.566,0,0.762,0.111,0.969,0.23l0.078,0.044c0.069,0.038,0.112,0.115,0.112,0.199V424.802z"
					/>
			</g>
		</g>
	</g>
</g>
</svg>
