<?xml version="1.0" encoding="utf-8"?>
<!-- Generator: Adobe Illustrator 16.0.3, SVG Export Plug-In . SVG Version: 6.00 Build 0)  -->
<!DOCTYPE svg PUBLIC "-//W3C//DTD SVG 1.1//EN" "http://www.w3.org/Graphics/SVG/1.1/DTD/svg11.dtd">
<svg version="1.1" id="Layer_1" xmlns="http://www.w3.org/2000/svg" xmlns:xlink="http://www.w3.org/1999/xlink" x="0px" y="0px"
	 width="24px" height="24px" viewBox="285.64 408.945 24 24" enable-background="new 285.64 408.945 24 24" xml:space="preserve">
<path fill="#2DA4C5" d="M308.39,427.169c0,2.5-2.026,4.526-4.526,4.526h-12.447c-2.5,0-4.526-2.026-4.526-4.526v-12.447
	c0-2.5,2.027-4.526,4.526-4.526h12.447c2.5,0,4.526,2.027,4.526,4.526V427.169z"/>
<path fill="#FFFFFF" d="M300.689,416.107h1.543V414.6h-1.543v-0.746H302c-0.233-0.45-0.768-0.753-1.311-0.753
	c-0.845,0-1.534,0.676-1.534,1.499C299.155,415.431,299.844,416.107,300.689,416.107 M296.24,419.712l2.084-1.731l3.133,1.879
	h-5.069 M302.92,421.584l1.071-1.048c0.619-0.599,0.619-1.499,0-2.105l-1.304,1.281L299,416.107
	c-0.226-0.38-0.676-0.604-1.147-0.604c-0.388,0-0.691,0.153-0.937,0.379l-2.816,2.773c-0.246,0.226-0.394,0.528-0.394,0.902v0.379
	h-0.922c-0.768,0-1.387,0.677-1.387,1.5v0.303c0.239-0.077,0.542-0.077,0.767-0.077c2,0,3.696,1.577,3.696,3.603
	c0,0.227,0,0.528-0.084,0.755h3.604c-0.069-0.227-0.069-0.528-0.069-0.755C299.31,423.162,300.921,421.584,302.92,421.584
	 M292.241,426.992c-1.07,0-1.915-0.824-1.915-1.872c0-1.056,0.845-1.88,1.915-1.88c1.077,0,1.922,0.824,1.922,1.88
	C294.164,426.168,293.318,426.992,292.241,426.992 M292.241,422.112c-1.69,0-3.07,1.352-3.07,3.008c0,1.646,1.38,2.998,3.07,2.998
	c1.689,0,3.077-1.352,3.077-2.998C295.318,423.464,293.931,422.112,292.241,422.112 M302.999,426.992
	c-1.077,0-1.922-0.824-1.922-1.872c0-1.056,0.845-1.88,1.922-1.88c1.07,0,1.915,0.824,1.915,1.88
	C304.914,426.168,304.069,426.992,302.999,426.992 M302.999,422.112c-1.688,0-3.077,1.352-3.077,3.008
	c0,1.646,1.389,2.998,3.077,2.998c1.689,0,3.069-1.352,3.069-2.998C306.068,423.464,304.688,422.112,302.999,422.112z"/>
</svg>
