<?xml version="1.0" encoding="utf-8"?>
<!-- Generator: Adobe Illustrator 16.0.3, SVG Export Plug-In . SVG Version: 6.00 Build 0)  -->
<!DOCTYPE svg PUBLIC "-//W3C//DTD SVG 1.1//EN" "http://www.w3.org/Graphics/SVG/1.1/DTD/svg11.dtd">
<svg version="1.1" id="Layer_1" xmlns="http://www.w3.org/2000/svg" xmlns:xlink="http://www.w3.org/1999/xlink" x="0px" y="0px"
	 width="24px" height="24px" viewBox="285.64 408.945 24 24" enable-background="new 285.64 408.945 24 24" xml:space="preserve">
<path fill="#2DA4C5" d="M308.39,427.169c0,2.5-2.026,4.526-4.526,4.526h-12.447c-2.5,0-4.526-2.026-4.526-4.526v-12.447
	c0-2.5,2.027-4.526,4.526-4.526h12.447c2.5,0,4.526,2.027,4.526,4.526V427.169z"/>
<path fill="#FFFFFF" d="M303.093,420.746h-10.781v-4.492h10.781 M301.746,426.136c-0.744,0-1.348-0.604-1.348-1.348
	s0.604-1.348,1.348-1.348s1.348,0.604,1.348,1.348S302.49,426.136,301.746,426.136 M293.66,426.136
	c-0.745,0-1.348-0.604-1.348-1.348s0.603-1.348,1.348-1.348s1.348,0.604,1.348,1.348S294.404,426.136,293.66,426.136
	 M290.515,425.238c0,0.79,0.351,1.5,0.898,1.993v1.601c0,0.496,0.402,0.898,0.898,0.898h0.898c0.496,0,0.898-0.402,0.898-0.898
	v-0.898h7.188v0.898c0,0.496,0.402,0.898,0.898,0.898h0.898c0.496,0,0.898-0.402,0.898-0.898v-1.601
	c0.548-0.493,0.898-1.203,0.898-1.993v-8.984c0-3.145-3.217-3.594-7.188-3.594c-3.971,0-7.188,0.449-7.188,3.594V425.238z"/>
</svg>
