<?xml version="1.0" encoding="utf-8"?>
<!-- Generator: Adobe Illustrator 16.0.3, SVG Export Plug-In . SVG Version: 6.00 Build 0)  -->
<!DOCTYPE svg PUBLIC "-//W3C//DTD SVG 1.1//EN" "http://www.w3.org/Graphics/SVG/1.1/DTD/svg11.dtd">
<svg version="1.1" id="Layer_1" xmlns="http://www.w3.org/2000/svg" xmlns:xlink="http://www.w3.org/1999/xlink" x="0px" y="0px"
	 width="24px" height="24px" viewBox="285.64 408.945 24 24" enable-background="new 285.64 408.945 24 24" xml:space="preserve">
<path fill="#2DA4C5" d="M308.39,427.169c0,2.5-2.026,4.526-4.526,4.526h-12.447c-2.5,0-4.526-2.026-4.526-4.526v-12.447
	c0-2.5,2.027-4.526,4.526-4.526h12.447c2.5,0,4.526,2.027,4.526,4.526V427.169z"/>
<g>
	<g>
		<g>
			<path fill="#FFFFFF" d="M302.973,413.802L302.973,413.802c-0.446,0-0.83,0.333-0.894,0.773l-1.313,6.344
				c-0.062,0.438,0.215,0.85,0.644,0.957l0.439,0.109l-0.237,5.59c-0.014,0.313,0.096,0.609,0.313,0.836
				c0.214,0.229,0.507,0.352,0.819,0.352c0.624,0,1.132-0.506,1.132-1.131v-12.927C303.875,414.206,303.469,413.802,302.973,413.802
				z"/>
			<path fill="#FFFFFF" d="M299.48,414.064c-0.007-0.151-0.137-0.269-0.288-0.262c-0.151,0.008-0.269,0.137-0.261,0.288l0.235,4.693
				h-0.858v-4.707c0-0.151-0.124-0.275-0.275-0.275c-0.151,0-0.274,0.124-0.274,0.275v4.707h-0.858l0.235-4.693
				c0.006-0.151-0.109-0.28-0.261-0.288c-0.151-0.007-0.28,0.11-0.288,0.262l-0.276,5.526c-0.015,0.302,0.131,0.593,0.382,0.759
				l0.333,0.222c0.089,0.06,0.14,0.16,0.138,0.268l-0.261,6.764c-0.008,0.309,0.106,0.6,0.321,0.82
				c0.213,0.219,0.502,0.34,0.809,0.34c0.308,0,0.595-0.121,0.81-0.34c0.214-0.221,0.327-0.512,0.319-0.82l-0.259-6.764
				c-0.004-0.108,0.049-0.208,0.139-0.268l0.332-0.222c0.251-0.166,0.396-0.458,0.383-0.759L299.48,414.064z"/>
			<path fill="#FFFFFF" d="M293.346,413.802c-0.572,0-1.365,0.287-1.889,1.656c-0.323,0.842-0.437,1.834-0.437,2.428
				c0,0.817,0.417,1.559,1.116,1.985c0.194,0.119,0.307,0.319,0.302,0.535l-0.224,7.198c-0.008,0.307,0.106,0.598,0.321,0.818
				c0.215,0.219,0.502,0.34,0.811,0.34c0.308,0,0.596-0.121,0.811-0.34c0.215-0.221,0.329-0.512,0.322-0.818l-0.225-7.198
				c-0.005-0.216,0.108-0.416,0.302-0.535c0.7-0.426,1.116-1.168,1.116-1.985c0-0.594-0.115-1.586-0.437-2.428
				C294.71,414.09,293.918,413.802,293.346,413.802z"/>
		</g>
	</g>
</g>
</svg>
