<?xml version="1.0" encoding="utf-8"?>
<!-- Generator: Adobe Illustrator 16.0.3, SVG Export Plug-In . SVG Version: 6.00 Build 0)  -->
<!DOCTYPE svg PUBLIC "-//W3C//DTD SVG 1.1//EN" "http://www.w3.org/Graphics/SVG/1.1/DTD/svg11.dtd">
<svg version="1.1" id="Layer_1" xmlns="http://www.w3.org/2000/svg" xmlns:xlink="http://www.w3.org/1999/xlink" x="0px" y="0px"
	 width="24px" height="24px" viewBox="285.64 408.945 24 24" enable-background="new 285.64 408.945 24 24" xml:space="preserve">
<path fill="#2DA4C5" d="M308.39,427.169c0,2.5-2.026,4.526-4.526,4.526h-12.447c-2.5,0-4.526-2.026-4.526-4.526v-12.447
	c0-2.5,2.027-4.526,4.526-4.526h12.447c2.5,0,4.526,2.027,4.526,4.526V427.169z"/>
<path fill-rule="evenodd" clip-rule="evenodd" fill="#FFFFFF" d="M299.074,429.603c-0.356-0.335-0.678-0.695-0.928-1.118
	c-1.66-2.806-0.066-6.414,3.169-6.979c1.676-0.292,3.107,0.216,4.28,1.449c0.021,0.022,0.039,0.048,0.047,0.057
	c-0.858,0.858-1.715,1.715-2.574,2.573c-0.202-0.344-0.521-0.563-0.966-0.551c-0.308,0.007-0.561,0.142-0.763,0.371
	c-0.354,0.401-0.405,1.182,0.33,1.628c-0.034,0.035-0.065,0.07-0.099,0.104c-0.788,0.788-1.577,1.576-2.364,2.365
	c-0.03,0.03-0.054,0.067-0.081,0.102C299.109,429.603,299.091,429.603,299.074,429.603z"/>
<path fill-rule="evenodd" clip-rule="evenodd" fill="#FFFFFF" d="M289.007,419.405c0.034-0.029,0.067-0.056,0.099-0.088
	c0.789-0.788,1.578-1.576,2.364-2.366c0.036-0.037,0.059-0.089,0.097-0.146c0.289,0.477,0.667,0.692,1.172,0.595
	c0.445-0.085,0.735-0.374,0.822-0.819c0.1-0.505-0.113-0.885-0.552-1.149c0.866-0.855,1.727-1.707,2.594-2.565
	c0.453,0.387,0.83,0.869,1.102,1.427c1.126,2.302,0.247,5.011-2.016,6.213c-1.838,0.976-4.205,0.557-5.597-0.993
	c-0.026-0.03-0.057-0.055-0.085-0.082C289.007,419.423,289.007,419.413,289.007,419.405z"/>
<path fill-rule="evenodd" clip-rule="evenodd" fill="#FFFFFF" d="M299.153,412.791c0.859,0.855,1.72,1.709,2.585,2.572
	c-0.454,0.282-0.678,0.662-0.567,1.18c0.093,0.433,0.374,0.714,0.808,0.801c0.511,0.103,0.892-0.114,1.152-0.54
	c0.859,0.859,1.715,1.714,2.576,2.577c-0.337,0.391-0.736,0.722-1.195,0.981c-2.608,1.479-5.969,0.194-6.788-2.76
	c-0.5-1.805-0.037-3.388,1.308-4.704c0.034-0.033,0.063-0.071,0.095-0.106C299.136,412.791,299.145,412.791,299.153,412.791z"/>
<path fill-rule="evenodd" clip-rule="evenodd" fill="#FFFFFF" d="M295.623,429.53c-0.873-0.873-1.724-1.723-2.584-2.583
	c0.378-0.231,0.597-0.56,0.569-1.021c-0.018-0.298-0.151-0.539-0.378-0.731c-0.428-0.364-1.196-0.365-1.604,0.323
	c-0.854-0.854-1.71-1.712-2.581-2.584c1.198-1.281,2.672-1.812,4.418-1.497c1.835,0.331,3.305,1.782,3.657,3.622
	C297.456,426.817,296.93,428.309,295.623,429.53z"/>
</svg>
