<?xml version="1.0" encoding="utf-8"?>
<!-- Generator: Adobe Illustrator 16.0.3, SVG Export Plug-In . SVG Version: 6.00 Build 0)  -->
<!DOCTYPE svg PUBLIC "-//W3C//DTD SVG 1.1//EN" "http://www.w3.org/Graphics/SVG/1.1/DTD/svg11.dtd">
<svg version="1.1" id="Layer_1" xmlns="http://www.w3.org/2000/svg" xmlns:xlink="http://www.w3.org/1999/xlink" x="0px" y="0px"
	 width="24px" height="24px" viewBox="285.64 408.945 24 24" enable-background="new 285.64 408.945 24 24" xml:space="preserve">
<path fill="#2DA4C5" d="M308.39,427.169c0,2.5-2.026,4.526-4.526,4.526h-12.447c-2.5,0-4.526-2.026-4.526-4.526v-12.447
	c0-2.5,2.027-4.526,4.526-4.526h12.447c2.5,0,4.526,2.027,4.526,4.526V427.169z"/>
<path fill="#FFFFFF" d="M292.779,426.559c-1.342,0-2.431-1.088-2.431-2.431s1.088-2.431,2.431-2.431s2.43,1.088,2.43,2.431
	S294.122,426.559,292.779,426.559 M292.779,420.656c-1.917,0-3.472,1.555-3.472,3.473s1.555,3.472,3.472,3.472
	s3.472-1.554,3.472-3.472S294.697,420.656,292.779,420.656 M299.584,419.267h2.917v-1.25h-2.223l-1.348-2.271
	c-0.2-0.347-0.597-0.576-1.013-0.576c-0.327,0-0.625,0.131-0.833,0.347l-2.57,2.562c-0.215,0.215-0.347,0.494-0.347,0.841
	c0,0.437,0.229,0.806,0.59,1.02l2.327,1.411v3.472h1.25v-4.514l-1.563-1.146l1.611-1.631 M302.501,426.559
	c-1.343,0-2.431-1.088-2.431-2.431s1.088-2.431,2.431-2.431s2.43,1.088,2.43,2.431S303.844,426.559,302.501,426.559
	 M302.501,420.656c-1.918,0-3.473,1.555-3.473,3.473s1.555,3.472,3.473,3.472c1.917,0,3.472-1.554,3.472-3.472
	S304.418,420.656,302.501,420.656 M300.417,415.656c0.694,0,1.25-0.555,1.25-1.249s-0.556-1.25-1.25-1.25s-1.249,0.556-1.249,1.25
	S299.723,415.656,300.417,415.656z"/>
</svg>
