<?xml version="1.0" encoding="utf-8"?>
<!-- Generator: Adobe Illustrator 16.0.3, SVG Export Plug-In . SVG Version: 6.00 Build 0)  -->
<!DOCTYPE svg PUBLIC "-//W3C//DTD SVG 1.1//EN" "http://www.w3.org/Graphics/SVG/1.1/DTD/svg11.dtd">
<svg version="1.1" id="Layer_1" xmlns="http://www.w3.org/2000/svg" xmlns:xlink="http://www.w3.org/1999/xlink" x="0px" y="0px"
	 width="24px" height="24px" viewBox="285.64 408.945 24 24" enable-background="new 285.64 408.945 24 24" xml:space="preserve">
<path fill="#2DA4C5" d="M308.39,427.169c0,2.5-2.026,4.526-4.526,4.526h-12.447c-2.5,0-4.526-2.026-4.526-4.526v-12.447
	c0-2.5,2.027-4.526,4.526-4.526h12.447c2.5,0,4.526,2.027,4.526,4.526V427.169z"/>
<path fill="#FFFFFF" d="M291.76,420.093l1.278-3.833h9.371l1.278,3.833 M302.409,424.353c-0.704,0-1.276-0.573-1.276-1.279l0,0
	c0-0.706,0.572-1.278,1.276-1.278c0.706,0,1.278,0.572,1.278,1.278S303.115,424.353,302.409,424.353L302.409,424.353
	 M293.038,424.353c-0.706,0-1.278-0.573-1.278-1.279l0,0c0-0.706,0.572-1.278,1.278-1.278c0.707,0,1.278,0.572,1.278,1.278
	S293.745,424.353,293.038,424.353L293.038,424.353 M303.619,415.834c-0.17-0.495-0.648-0.852-1.21-0.852h-2.129v-1.704h-5.112v1.704
	h-2.13c-0.562,0-1.04,0.357-1.209,0.852l-1.772,5.111v6.816c0,0.471,0.381,0.851,0.852,0.851h0.852c0.47,0,0.852-0.38,0.852-0.851
	v-0.853h10.222v0.853c0,0.471,0.381,0.851,0.853,0.851h0.853c0.471,0,0.851-0.38,0.851-0.851v-6.816L303.619,415.834z"/>
</svg>
