<?xml version="1.0" encoding="utf-8"?>
<!-- Generator: Adobe Illustrator 16.0.3, SVG Export Plug-In . SVG Version: 6.00 Build 0)  -->
<!DOCTYPE svg PUBLIC "-//W3C//DTD SVG 1.1//EN" "http://www.w3.org/Graphics/SVG/1.1/DTD/svg11.dtd">
<svg version="1.1" id="Layer_1" xmlns="http://www.w3.org/2000/svg" xmlns:xlink="http://www.w3.org/1999/xlink" x="0px" y="0px"
	 width="24px" height="24px" viewBox="285.64 408.945 24 24" enable-background="new 285.64 408.945 24 24" xml:space="preserve">
<path fill="#2DA4C5" d="M308.39,427.169c0,2.5-2.026,4.526-4.526,4.526h-12.447c-2.5,0-4.526-2.026-4.526-4.526v-12.447
	c0-2.5,2.027-4.526,4.526-4.526h12.447c2.5,0,4.526,2.027,4.526,4.526V427.169z"/>
<path fill="#FFFFFF" d="M295.071,416.103c0-0.328,0.264-0.593,0.592-0.593h3.555c0.329,0,0.592,0.265,0.592,0.593v1.185h1.187
	v-1.778c0-0.653-0.532-1.185-1.187-1.185h-4.739c-0.654,0-1.186,0.53-1.186,1.185v1.778h1.186V416.103z"/>
<path fill="#FFFFFF" d="M303.531,416.895h-12.18c-0.48,0-0.87,0.389-0.87,0.87v8.7c0,0.48,0.39,0.869,0.87,0.869h12.18
	c0.48,0,0.87-0.389,0.87-0.869v-8.7C304.401,417.284,304.011,416.895,303.531,416.895z M300.657,422.877h-2.498v2.498h-1.697v-2.498
	h-2.499v-1.699h2.499v-2.499h1.697v2.499h2.498V422.877z"/>
</svg>
