<?xml version="1.0" encoding="utf-8"?>
<!-- Generator: Adobe Illustrator 16.0.3, SVG Export Plug-In . SVG Version: 6.00 Build 0)  -->
<!DOCTYPE svg PUBLIC "-//W3C//DTD SVG 1.1//EN" "http://www.w3.org/Graphics/SVG/1.1/DTD/svg11.dtd">
<svg version="1.1" id="Layer_1" xmlns="http://www.w3.org/2000/svg" xmlns:xlink="http://www.w3.org/1999/xlink" x="0px" y="0px"
	 width="24px" height="24px" viewBox="0 0 24 24" enable-background="new 0 0 24 24" xml:space="preserve">
<path fill="#2DA4C5" d="M22.865,18.025c0,2.5-2.025,4.526-4.525,4.526H5.893c-2.5,0-4.526-2.026-4.526-4.526V5.579
	c0-2.5,2.027-4.527,4.526-4.527H18.34c2.5,0,4.525,2.027,4.525,4.527V18.025z"/>
<g>
	<path fill-rule="evenodd" clip-rule="evenodd" fill="#FFFFFF" d="M4.858,19.569c0.693-0.795,1.394-1.586,2.075-2.392
		c0.16-0.189,0.315-0.273,0.556-0.252c0.208,0.018,0.417,0.004,0.639,0.004c0.071,0.426,0.103,0.815-0.301,1.104
		c-0.161,0.113-0.295,0.269-0.425,0.419c-0.074,0.085-0.12,0.196-0.208,0.349c0.216,0.013,0.358,0.027,0.502,0.027
		c2.514-0.002,5.027,0.005,7.542-0.022c0.244-0.003,0.486-0.19,0.729-0.298c0.033-0.015,0.051-0.063,0.078-0.097
		c1.27-1.608,1.057-1.066,1.069-2.957c0.007-1.12-0.004-2.242-0.007-3.361c0-0.104,0-0.206,0-0.31
		c-0.071-0.017-0.112-0.037-0.148-0.033c-0.98,0.123-1.651-0.473-2.348-1.003c-0.254-0.192-0.453-0.18-0.591,0.113
		c-0.229,0.494-0.472,0.986-0.632,1.5c-0.075,0.233-0.041,0.559,0.068,0.779c0.674,1.37,1.378,2.725,2.083,4.077
		c0.127,0.244,0.204,0.454-0.036,0.671c-0.246,0.222-0.539,0.283-0.801,0.1c-0.165-0.116-0.31-0.283-0.406-0.461
		c-0.658-1.189-1.301-2.387-1.948-3.581c-0.054-0.097-0.113-0.19-0.219-0.365c-0.098,0.201-0.199,0.327-0.222,0.468
		c-0.096,0.575-0.174,1.152-0.247,1.731c-0.072,0.574-0.156,0.656-0.721,0.659c-0.983,0.003-1.97,0.015-2.953,0.01
		c-0.524-0.002-0.856-0.427-0.718-0.892c0.097-0.331,0.376-0.509,0.812-0.511c0.638-0.001,1.278,0.005,1.916,0.005
		c0.402,0,0.528-0.121,0.531-0.52c0.003-0.514,0.027-1.028-0.002-1.539c-0.043-0.718,0.153-1.367,0.491-1.979
		c0.196-0.357,0.416-0.701,0.631-1.047c0.119-0.19,0.066-0.292-0.144-0.329c-0.364-0.062-0.651,0.052-0.873,0.356
		c-0.339,0.465-0.688,0.922-1.035,1.381c-0.063,0.082-0.122,0.207-0.206,0.229c-0.197,0.056-0.445,0.146-0.606,0.073
		c-0.227-0.103-0.153-0.383-0.053-0.559c0.472-0.802,0.952-1.598,1.461-2.375c0.091-0.141,0.323-0.263,0.494-0.265
		c0.816-0.018,1.634-0.013,2.45,0.022c0.71,0.031,1.26,0.342,1.749,0.899c0.468,0.534,1.087,0.936,1.663,1.366
		c0.121,0.091,0.338,0.056,0.565,0.085c0-0.139,0-0.238,0-0.339c0-1.424,0.002-2.849,0.002-4.273
		c-0.001-0.472-0.146-0.618-0.62-0.618C13.932,5.62,11.364,5.62,8.798,5.62c-0.508,0-0.631,0.119-0.631,0.63
		c-0.001,2.638,0,5.278,0,7.918c0,0.123,0,0.248,0,0.392c-0.319,0-0.606,0-0.922,0c0-0.138,0-0.261,0-0.385
		c0-2.691,0.015-5.385-0.007-8.075C7.231,5.245,7.689,4.71,8.419,4.704c0.028,0,0.059-0.022,0.087-0.035c2.743,0,5.489,0,8.235,0
		c0.24,0.085,0.495,0.143,0.719,0.262c0.412,0.22,0.532,0.63,0.601,1.061c0,3.75,0,7.502,0,11.252
		c-0.158,0.279-0.295,0.573-0.482,0.834c-0.225,0.313-0.476,0.611-0.748,0.886c-0.282,0.285-0.604,0.532-0.907,0.797
		c-3.688,0-7.376,0-11.064-0.001C4.858,19.696,4.858,19.633,4.858,19.569z"/>
	<path fill-rule="evenodd" clip-rule="evenodd" fill="#FFFFFF" d="M15.229,7.088c-0.03,0.513-0.488,0.929-0.984,0.896
		c-0.514-0.033-0.93-0.487-0.898-0.984c0.032-0.527,0.482-0.919,1.018-0.887C14.854,6.144,15.262,6.603,15.229,7.088z"/>
</g>
</svg>
