<?xml version="1.0" encoding="utf-8"?>
<!-- Generator: Adobe Illustrator 16.0.3, SVG Export Plug-In . SVG Version: 6.00 Build 0)  -->
<!DOCTYPE svg PUBLIC "-//W3C//DTD SVG 1.1//EN" "http://www.w3.org/Graphics/SVG/1.1/DTD/svg11.dtd">
<svg version="1.1" id="Layer_1" xmlns="http://www.w3.org/2000/svg" xmlns:xlink="http://www.w3.org/1999/xlink" x="0px" y="0px"
	 width="24px" height="24px" viewBox="0 0 24 24" enable-background="new 0 0 24 24" xml:space="preserve">
<path fill="#2DA4C5" d="M22.686,18.168c0,2.5-2.025,4.526-4.525,4.526H5.713c-2.5,0-4.526-2.026-4.526-4.526V5.722
	c0-2.5,2.027-4.527,4.526-4.527H18.16c2.5,0,4.525,2.027,4.525,4.527V18.168z"/>
<g>
	<path fill="#FFFFFF" d="M4.075,14.681c0.235-0.266,0.457-0.547,0.715-0.791c0.146-0.137,0.31-0.104,0.473,0.064
		c0.466,0.481,1.022,0.578,1.653,0.345c0.123-0.046,0.317-0.049,0.419,0.021c0.868,0.579,1.581,1.262,1.48,2.437
		c-0.008,0.095,0.034,0.195,0.054,0.293c0.048-0.004,0.095-0.007,0.143-0.01c0-0.25,0.02-0.501-0.003-0.748
		c-0.062-0.662,0.26-1.1,0.803-1.402c0.237-0.133,0.497-0.228,0.752-0.326c0.261-0.103,0.506-0.11,0.779,0.031
		c0.405,0.209,0.83,0.152,1.251-0.021c0.151-0.063,0.355-0.091,0.51-0.048c0.334,0.098,0.669,0.225,0.974,0.394
		c0.517,0.286,0.813,0.718,0.759,1.346c-0.02,0.252-0.003,0.506-0.003,0.761c0.044,0.004,0.087,0.01,0.129,0.013
		c0.017-0.123,0.052-0.247,0.045-0.37c-0.051-1.173,0.691-1.829,1.563-2.393c0.076-0.048,0.225-0.027,0.319,0.01
		c0.639,0.258,1.191,0.142,1.699-0.321c0.092-0.083,0.313-0.119,0.426-0.069c0.826,0.364,1.056,1.502,0.396,2.175
		c-0.354,0.364-0.813,0.658-1.277,0.879c-1.3,0.623-2.706,0.864-4.127,0.997c-2.36,0.224-4.7,0.116-6.996-0.521
		c-0.475-0.132-0.939-0.317-1.393-0.515c-0.659-0.284-1.218-0.698-1.544-1.366C4.075,15.257,4.075,14.968,4.075,14.681z"/>
	<path fill="#FFFFFF" d="M19.261,12.061c-1.8-0.965-2.348-1.144-4.529-1.49c-0.142-0.481-0.062-0.796,0.264-1.044
		c0.394-0.303,0.799-0.339,1.178-0.111c0.353,0.213,0.738,0.299,1.126,0.155c0.289-0.108,0.521-0.046,0.781,0.067
		C19.155,10.104,19.468,10.945,19.261,12.061z"/>
	<path fill="#FFFFFF" d="M4.552,11.969c0-0.256-0.017-0.569,0.005-0.88c0.045-0.696,0.92-1.55,1.627-1.595
		c0.098-0.006,0.201,0.04,0.3,0.068c0.438,0.129,0.85,0.075,1.235-0.173c0.55-0.353,1.423,0.093,1.461,0.745
		c0.008,0.129,0.002,0.26,0.002,0.381c-0.81,0.183-1.609,0.31-2.375,0.55C6.044,11.306,5.315,11.656,4.552,11.969z"/>
	<path fill="#FFFFFF" d="M14.397,10.46c-1.655,0-3.282,0-4.936,0c-0.073-0.366-0.004-0.735,0.313-0.995
		c0.512-0.417,1.044-0.764,1.778-0.505c0.246,0.087,0.578,0.045,0.836-0.039C13.32,8.615,14.479,9.492,14.397,10.46z"/>
	<path fill="#FFFFFF" d="M13.25,13.125c-0.006,0.722-0.616,1.32-1.338,1.313c-0.722-0.005-1.322-0.614-1.314-1.337
		c0.008-0.721,0.618-1.322,1.338-1.314S13.257,12.405,13.25,13.125z"/>
	<path fill="#FFFFFF" d="M7.62,12.868c-0.006,0.721-0.58,1.279-1.307,1.269c-0.699-0.01-1.263-0.58-1.267-1.279
		c-0.002-0.709,0.591-1.303,1.297-1.298C7.059,11.563,7.627,12.144,7.62,12.868z"/>
	<path fill="#FFFFFF" d="M17.489,14.137c-0.723-0.005-1.28-0.578-1.271-1.307c0.012-0.702,0.576-1.267,1.275-1.271
		c0.707-0.007,1.294,0.58,1.294,1.295C18.787,13.572,18.211,14.142,17.489,14.137z"/>
	<path fill="#FFFFFF" d="M10.811,7.629c0.006-0.621,0.503-1.112,1.124-1.108c0.618,0.002,1.111,0.499,1.114,1.121
		c0.003,0.631-0.525,1.152-1.146,1.134C11.286,8.759,10.805,8.253,10.811,7.629z"/>
	<path fill="#FFFFFF" d="M8.091,8.281c-0.006,0.62-0.508,1.12-1.122,1.117C6.354,9.396,5.854,8.893,5.852,8.274
		c-0.003-0.641,0.504-1.14,1.145-1.13C7.614,7.155,8.098,7.656,8.091,8.281z"/>
	<path fill="#FFFFFF" d="M15.757,8.266c0.001-0.624,0.49-1.118,1.112-1.121c0.638-0.002,1.139,0.506,1.126,1.146
		c-0.011,0.617-0.521,1.116-1.133,1.107C16.244,9.39,15.757,8.888,15.757,8.266z"/>
	<path fill="#FFFFFF" d="M8.477,6.966c0.01-0.542,0.471-0.991,1.012-0.988c0.539,0.003,0.997,0.463,1.001,1.001
		c0.002,0.553-0.483,1.029-1.033,1.012C8.915,7.971,8.468,7.505,8.477,6.966z"/>
	<path fill="#FFFFFF" d="M15.372,6.978c0.003,0.539-0.447,1.002-0.989,1.013c-0.551,0.011-1.03-0.469-1.02-1.021
		c0.009-0.543,0.47-0.995,1.01-0.991C14.915,5.98,15.369,6.434,15.372,6.978z"/>
	<path fill="#FFFFFF" d="M11.002,8.634c-0.666,0.209-1.304,0.438-1.628,1.012C8.946,9.411,8.539,9.188,8.123,8.96
		c0.043-0.136,0.113-0.314,0.156-0.502c0.079-0.339,0.284-0.485,0.6-0.359c0.44,0.176,0.853,0.156,1.277-0.06
		c0.224-0.113,0.452-0.092,0.589,0.18C10.814,8.355,10.905,8.479,11.002,8.634z"/>
	<path fill="#FFFFFF" d="M15.729,8.965c-0.415,0.22-0.815,0.435-1.252,0.668c-0.316-0.544-0.948-0.799-1.634-0.997
		c0.096-0.146,0.191-0.257,0.245-0.385c0.131-0.299,0.367-0.329,0.609-0.209c0.426,0.211,0.836,0.231,1.277,0.055
		c0.313-0.126,0.522,0.025,0.601,0.366C15.618,8.648,15.686,8.828,15.729,8.965z"/>
</g>
</svg>
