<?xml version="1.0" encoding="utf-8"?>
<!-- Generator: Adobe Illustrator 16.0.3, SVG Export Plug-In . SVG Version: 6.00 Build 0)  -->
<!DOCTYPE svg PUBLIC "-//W3C//DTD SVG 1.1//EN" "http://www.w3.org/Graphics/SVG/1.1/DTD/svg11.dtd">
<svg version="1.1" id="Layer_1" xmlns="http://www.w3.org/2000/svg" xmlns:xlink="http://www.w3.org/1999/xlink" x="0px" y="0px"
	 width="24px" height="24px" viewBox="0 0 24 24" enable-background="new 0 0 24 24" xml:space="preserve">
<path fill="#2DA4C5" d="M22.781,18.316c0,2.5-2.025,4.527-4.525,4.527H5.809c-2.5,0-4.526-2.027-4.526-4.527V5.871
	c0-2.5,2.027-4.527,4.526-4.527h12.447c2.5,0,4.525,2.027,4.525,4.527V18.316z"/>
<g>
	<path fill-rule="evenodd" clip-rule="evenodd" fill="#FFFFFF" d="M7.878,21.156c-0.475-0.209-0.645-0.586-0.642-1.088
		c0.011-1.512,0.004-3.025,0.004-4.537c0-0.129,0-0.258,0-0.43c-0.934,0-1.831,0-2.774,0c0.173-0.572,0.332-1.098,0.49-1.621
		c0.399-1.32,0.802-2.637,1.193-3.959c0.143-0.488,0.433-0.818,0.897-1.033C8.479,7.827,9.898,7.142,11.33,6.48
		c0.245-0.114,0.518-0.207,0.785-0.229c0.928-0.074,1.598,0.544,1.618,1.474c0.015,0.639,0.011,1.28-0.002,1.92
		C13.727,9.869,13.79,10,13.995,10.116c0.702,0.393,1.392,0.809,2.085,1.218c0.252,0.149,0.438,0.342,0.402,0.663
		c-0.054,0.464-0.492,0.72-0.923,0.542c-0.081-0.035-0.157-0.08-0.233-0.125c-0.781-0.457-1.553-0.926-2.344-1.366
		c-0.393-0.218-0.574-0.53-0.583-0.962c-0.005-0.23-0.001-0.461-0.001-0.747c-0.377,0.175-0.713,0.33-1.048,0.487
		c-0.338,0.158-0.675,0.318-1.032,0.489c0.478,1.587,0.949,3.155,1.436,4.768c-0.924,0-1.811,0-2.754,0c0,0.15,0,0.266,0,0.381
		c0,1.5-0.011,3.002,0.005,4.504c0.006,0.516-0.118,0.932-0.597,1.188C8.231,21.156,8.055,21.156,7.878,21.156z"/>
	<path fill-rule="evenodd" clip-rule="evenodd" fill="#FFFFFF" d="M15.065,14.238c0.112,0.008,0.163,0.014,0.216,0.014
		c0.451,0,0.902,0,1.41,0c0-0.277-0.01-0.535,0.002-0.795c0.021-0.508,0.424-0.795,0.809-0.543c0.153,0.1,0.272,0.357,0.283,0.549
		c0.034,0.639,0.027,1.281,0.008,1.92c-0.016,0.502-0.404,0.979-0.896,0.998c-0.989,0.045-1.986,0.082-2.971,0
		c-0.865-0.068-1.215-0.943-0.75-1.686c0.252-0.402,0.523-0.791,0.809-1.219c-0.371-0.215-0.737-0.412-1.088-0.635
		c-0.42-0.264-0.465-0.745-0.066-0.95c0.167-0.086,0.461-0.059,0.641,0.032c0.561,0.28,1.098,0.611,1.638,0.933
		c0.431,0.256,0.489,0.531,0.224,0.969C15.258,13.947,15.178,14.064,15.065,14.238z"/>
	<path fill-rule="evenodd" clip-rule="evenodd" fill="#FFFFFF" d="M15.111,7.518c-0.928,0.006-1.67-0.723-1.674-1.646
		c-0.004-0.922,0.731-1.669,1.65-1.676c0.92-0.007,1.672,0.734,1.678,1.651C16.771,6.771,16.037,7.512,15.111,7.518z"/>
	<path fill-rule="evenodd" clip-rule="evenodd" fill="#FFFFFF" d="M12.438,17.602c0-0.301,0-0.57,0-0.854c2.71,0,5.397,0,8.115,0
		c0,0.277,0,0.555,0,0.854C17.854,17.602,15.16,17.602,12.438,17.602z"/>
	<path fill-rule="evenodd" clip-rule="evenodd" fill="#FFFFFF" d="M19.31,14.113c0.692-0.006,1.253,0.545,1.249,1.227
		c-0.003,0.662-0.558,1.219-1.225,1.227c-0.679,0.008-1.25-0.559-1.247-1.234C18.09,14.66,18.634,14.117,19.31,14.113z"/>
</g>
</svg>
