<?xml version="1.0" encoding="utf-8"?>
<!-- Generator: Adobe Illustrator 16.0.3, SVG Export Plug-In . SVG Version: 6.00 Build 0)  -->
<!DOCTYPE svg PUBLIC "-//W3C//DTD SVG 1.1//EN" "http://www.w3.org/Graphics/SVG/1.1/DTD/svg11.dtd">
<svg version="1.1" id="Layer_1" xmlns="http://www.w3.org/2000/svg" xmlns:xlink="http://www.w3.org/1999/xlink" x="0px" y="0px"
	 width="24px" height="24px" viewBox="0 0 24 24" enable-background="new 0 0 24 24" xml:space="preserve">
<path fill="#2DA4C5" d="M22.828,18.211c0,2.5-2.025,4.526-4.525,4.526H5.856c-2.5,0-4.526-2.026-4.526-4.526V5.765
	c0-2.5,2.027-4.527,4.526-4.527h12.447c2.5,0,4.525,2.027,4.525,4.527V18.211z"/>
<g>
	<path fill-rule="evenodd" clip-rule="evenodd" fill="#FFFFFF" d="M19.474,19.801c-0.005-0.015-0.009-0.029-0.016-0.043
		c-0.565-1.104-1.131-2.206-1.696-3.308c-0.012-0.025-0.025-0.05-0.043-0.081c-0.131,0.073-0.256,0.145-0.383,0.216
		c-0.436,0.242-0.901,0.361-1.399,0.367c-0.321,0.003-0.644,0.021-0.965,0.028c-0.059,0.001-0.085,0.022-0.11,0.073
		c-0.446,0.878-0.895,1.756-1.342,2.633c-0.049,0.097-0.062,0.104-0.16,0.06c-0.129-0.058-0.252-0.122-0.393-0.191
		c0.427-0.856,0.85-1.707,1.279-2.572c-0.091-0.006-0.17-0.009-0.248-0.015c-0.132-0.011-0.266-0.011-0.395-0.037
		c-0.326-0.065-0.49-0.302-0.475-0.663c0.012-0.307,0.225-0.529,0.568-0.56c0.311-0.03,0.621-0.037,0.933-0.045
		c0.415-0.012,0.831-0.025,1.245-0.018c0.719,0.012,1.542-0.566,1.697-1.388c0.122-0.639,0.248-1.277,0.375-1.915
		c0.092-0.46,0.184-0.921,0.284-1.378c0.064-0.291,0.317-0.478,0.608-0.469c0.322,0.011,0.553,0.191,0.598,0.502
		c0.022,0.151,0.01,0.311-0.017,0.462c-0.186,1.052-0.378,2.102-0.57,3.152c-0.071,0.389-0.259,0.726-0.479,1.046
		c-0.057,0.081-0.113,0.162-0.176,0.237c-0.039,0.046-0.035,0.08-0.01,0.13c0.559,1.096,1.115,2.189,1.672,3.285
		c0.033,0.064,0.065,0.13,0.099,0.193c0,0.006,0,0.011,0,0.016c-0.15,0.094-0.302,0.187-0.451,0.281
		C19.494,19.801,19.483,19.801,19.474,19.801z"/>
	<path fill-rule="evenodd" clip-rule="evenodd" fill="#FFFFFF" d="M12.763,15.142c0-0.56,0-1.107,0-1.67c0.659,0,1.306,0,1.956,0
		c0-1.178,0-2.342,0-3.518c-0.025,0.022-0.045,0.039-0.065,0.058c-0.378,0.344-0.758,0.687-1.134,1.033
		c-0.118,0.109-0.246,0.163-0.41,0.163c-0.811-0.002-1.62,0.006-2.43,0.007c-0.131,0-0.251-0.026-0.365-0.107
		c-0.355-0.249-0.252-0.754,0.061-0.918c0.092-0.047,0.21-0.056,0.316-0.058c0.598-0.012,1.193-0.017,1.791-0.023
		c0.129-0.001,0.26-0.006,0.39-0.004c0.069,0.003,0.121-0.02,0.172-0.067c0.567-0.537,1.136-1.074,1.705-1.609
		c0.136-0.127,0.278-0.248,0.417-0.374c0.263-0.242,0.58-0.285,0.916-0.238c0.385,0.056,0.654,0.273,0.84,0.612
		c0.096,0.175,0.139,0.352,0.139,0.553c-0.007,1.725-0.004,3.448-0.006,5.172c0,0.049-0.014,0.102-0.034,0.148
		c-0.038,0.085-0.081,0.167-0.128,0.248c-0.197,0.343-0.486,0.551-0.891,0.563c-0.486,0.016-0.975,0.023-1.463,0.028
		c-0.563,0.005-1.126,0.001-1.689,0.001C12.818,15.142,12.789,15.142,12.763,15.142z"/>
	<path fill-rule="evenodd" clip-rule="evenodd" fill="#FFFFFF" d="M17.576,5.949c0.072,0.756-0.657,1.52-1.475,1.515
		c-1.018-0.006-1.557-0.834-1.553-1.507c0.006-0.808,0.66-1.516,1.527-1.521C16.967,4.433,17.652,5.239,17.576,5.949z"/>
	<path fill-rule="evenodd" clip-rule="evenodd" fill="#FFFFFF" d="M5.703,10.739c0.045,0,0.079,0,0.112,0
		c1.077,0.004,2.153,0.007,3.23,0.011c0.075,0.001,0.15,0.008,0.225,0.017c0.114,0.013,0.197,0.08,0.222,0.177
		c0.029,0.11-0.037,0.188-0.097,0.266c-0.01,0.015-0.042,0.016-0.064,0.016c-1.313,0-2.626,0-3.939,0
		c-0.069,0-0.128-0.062-0.139-0.156c-0.014-0.134-0.026-0.269-0.027-0.403c-0.004-1.174-0.005-2.346-0.005-3.52
		c0-0.031,0.024-0.073,0.05-0.094c0.181-0.146,0.244-0.144,0.407,0.022c0.019,0.02,0.024,0.06,0.024,0.091
		c0.001,1.048,0.001,2.096,0.001,3.146C5.703,10.449,5.703,10.59,5.703,10.739z"/>
</g>
<path fill-rule="evenodd" clip-rule="evenodd" fill="#FFFFFF" d="M4.695,11.79c0,0.034,0,0.061,0,0.089
	c-0.001,2.492-0.002,4.983-0.002,7.476c0,0.11,0.003,0.223,0,0.334c-0.001,0.054,0.022,0.077,0.071,0.08
	c0.073,0.006,0.146,0.012,0.218,0.016c0.111,0.007,0.222,0.011,0.333,0.017c0.08,0,0.159,0,0.238,0v-7.063h5.75v7.063
	c0.356,0,0.712,0,1.068,0c0.001-0.026,0.004-0.052,0.004-0.078c0-2.616,0-5.232,0-7.848c0-0.027,0-0.056,0-0.085
	C9.811,11.79,7.256,11.79,4.695,11.79z"/>
</svg>
