<?xml version="1.0" encoding="utf-8"?>
<!-- Generator: Adobe Illustrator 16.0.3, SVG Export Plug-In . SVG Version: 6.00 Build 0)  -->
<!DOCTYPE svg PUBLIC "-//W3C//DTD SVG 1.1//EN" "http://www.w3.org/Graphics/SVG/1.1/DTD/svg11.dtd">
<svg version="1.1" id="Layer_1" xmlns="http://www.w3.org/2000/svg" xmlns:xlink="http://www.w3.org/1999/xlink" x="0px" y="0px"
	 width="24px" height="24px" viewBox="0 0 24 24" enable-background="new 0 0 24 24" xml:space="preserve">
<path fill="#2DA4C5" d="M22.798,18.198c0,2.5-2.025,4.526-4.525,4.526H5.825c-2.5,0-4.526-2.026-4.526-4.526V5.752
	c0-2.5,2.027-4.527,4.526-4.527h12.447c2.5,0,4.525,2.027,4.525,4.527V18.198z"/>
<g>
	<path fill-rule="evenodd" clip-rule="evenodd" fill="#FFFFFF" d="M19.308,14.205c-0.016,0.029-0.031,0.059-0.046,0.089
		c-0.107,0.229-0.343,0.357-0.577,0.314c-0.256-0.046-0.438-0.249-0.442-0.515c-0.009-0.413-0.008-0.827-0.011-1.24
		c-0.005-0.861-0.01-1.722-0.016-2.583c0-0.044,0.012-0.095-0.006-0.131c-0.02-0.037-0.066-0.084-0.102-0.083
		c-0.033,0-0.08,0.05-0.096,0.088c-0.018,0.042-0.006,0.097-0.006,0.146c0,2.923-0.001,5.846-0.001,8.769
		c0,0.372-0.161,0.612-0.466,0.702c-0.373,0.109-0.754-0.134-0.807-0.519c-0.012-0.083-0.014-0.167-0.014-0.25
		c-0.002-1.59-0.001-3.179-0.001-4.768c0-0.063,0-0.126,0-0.197c-0.097,0-0.177,0-0.276,0c0,0.061,0,0.118,0,0.175
		c0,1.629,0.001,3.258,0,4.887c0,0.43-0.283,0.716-0.683,0.696c-0.304-0.015-0.558-0.254-0.589-0.559
		c-0.01-0.082-0.01-0.167-0.01-0.25c0.003-2.894,0.008-5.786,0.01-8.68c0-0.095,0.043-0.243-0.107-0.245
		c-0.162-0.002-0.118,0.151-0.119,0.251c-0.005,0.575-0.008,1.151-0.006,1.727c0,0.234-0.07,0.428-0.283,0.545
		c-0.209,0.114-0.406,0.07-0.599-0.051c-0.601-0.375-1.202-0.747-1.804-1.121c-0.215-0.133-0.31-0.324-0.27-0.575
		c0.033-0.203,0.197-0.369,0.408-0.418c0.16-0.037,0.301,0.008,0.436,0.091c0.301,0.188,0.602,0.374,0.902,0.56
		c0.04,0.025,0.082,0.047,0.146,0.083c0-0.325-0.002-0.629,0.001-0.932c0.004-0.433,0.158-0.795,0.508-1.063
		c0.227-0.174,0.486-0.253,0.769-0.259c0.133-0.003,0.267,0.006,0.398-0.003c0.097-0.007,0.135,0.033,0.168,0.119
		c0.159,0.412,0.325,0.822,0.489,1.232c0.021,0.054,0.045,0.106,0.093,0.152c-0.019-0.087-0.03-0.177-0.059-0.261
		c-0.065-0.2-0.056-0.388,0.079-0.557c0.113-0.143,0.111-0.28,0-0.422c-0.027-0.034-0.045-0.077-0.064-0.116
		c-0.044-0.086-0.012-0.137,0.079-0.14c0.163-0.006,0.325-0.006,0.487,0c0.082,0.003,0.111,0.054,0.077,0.133
		c-0.004,0.009-0.008,0.019-0.015,0.025c-0.189,0.218-0.143,0.422,0.007,0.646c0.056,0.085,0.047,0.224,0.038,0.336
		c-0.01,0.139-0.051,0.276-0.053,0.421c0.201-0.521,0.402-1.041,0.605-1.565c0.402,0.003,0.805-0.05,1.17,0.173
		c0.363,0.223,0.581,0.542,0.619,0.966c0.023,0.26,0.012,0.521,0.018,0.782c0.002,0.088,0.012,0.176,0.018,0.263
		C19.308,12.118,19.308,13.161,19.308,14.205z"/>
	<path fill-rule="evenodd" clip-rule="evenodd" fill="#FFFFFF" d="M4.189,5.642C4.31,5.423,4.497,5.368,4.74,5.369
		c2.75,0.006,5.5,0.008,8.25-0.001c0.337-0.001,0.513,0.178,0.51,0.507c-0.011,1.407-0.005,2.814-0.005,4.222
		c0,0.053,0,0.104,0,0.17c-0.26-0.142-0.503-0.274-0.768-0.419c0-1.208,0-2.446,0-3.695c-2.592,0-5.171,0-7.76,0
		c0,1.844,0,3.686,0,5.544c0.062,0,0.119,0,0.176,0c2.155,0,4.311-0.001,6.465,0.004c0.089,0.001,0.187,0.042,0.265,0.09
		c0.304,0.183,0.6,0.376,0.898,0.565c0.044,0.027,0.086,0.058,0.165,0.111c-0.095,0-0.146,0-0.197,0c-2.667,0-5.334-0.003-8,0.004
		c-0.243,0.001-0.431-0.054-0.55-0.274C4.189,10.012,4.189,7.826,4.189,5.642z"/>
	<path fill-rule="evenodd" clip-rule="evenodd" fill="#FFFFFF" d="M17.688,7.429c-0.003,0.607-0.505,1.108-1.108,1.105
		c-0.605-0.004-1.11-0.512-1.106-1.112c0.004-0.606,0.507-1.104,1.112-1.103C17.194,6.321,17.689,6.819,17.688,7.429z"/>
	<path fill-rule="evenodd" clip-rule="evenodd" fill="#FFFFFF" d="M11.901,10.018c-0.134,0.154-0.258,0.298-0.391,0.451
		c-0.422-0.335-0.859-0.676-1.289-1.026c-0.129-0.104-0.137-0.278-0.045-0.398c0.093-0.122,0.263-0.162,0.394-0.063
		C11.02,9.322,11.461,9.674,11.901,10.018z"/>
</g>
</svg>
