<?xml version="1.0" encoding="utf-8"?>
<!-- Generator: Adobe Illustrator 16.0.3, SVG Export Plug-In . SVG Version: 6.00 Build 0)  -->
<!DOCTYPE svg PUBLIC "-//W3C//DTD SVG 1.1//EN" "http://www.w3.org/Graphics/SVG/1.1/DTD/svg11.dtd">
<svg version="1.1" id="Layer_1" xmlns="http://www.w3.org/2000/svg" xmlns:xlink="http://www.w3.org/1999/xlink" x="0px" y="0px"
	 width="24px" height="24px" viewBox="0 0 24 24" enable-background="new 0 0 24 24" xml:space="preserve">
<path fill="#2DA4C5" d="M22.775,18.224c0,2.5-2.025,4.526-4.525,4.526H5.803c-2.5,0-4.526-2.026-4.526-4.526V5.777
	c0-2.5,2.027-4.527,4.526-4.527H18.25c2.5,0,4.525,2.027,4.525,4.527V18.224z"/>
<circle fill-rule="evenodd" clip-rule="evenodd" fill="#FFFFFF" cx="12.329" cy="5.865" r="1.782"/>
<path fill-rule="evenodd" clip-rule="evenodd" fill="#FFFFFF" d="M10.594,10.662l1.592-2.03c0,0,1.648-1.263,2.91,0.219
	c0,0,0.275,0.33,0.221,1.209l0.109,4.172c0,0,0.11,0.933-0.439,1.372l-1.592,1.867h2.745c0,0,1.482-0.219,1.647,1.318
	c0,0,0,1.098-1.592,0.988h-4.998c0,0-1.373-0.109-1.043-1.702l2.086-3.294l0.055-3.569l-1.154,1.372c0,0-0.714,0.66-1.427,0
	l-1.647-2.525c0,0-0.549-0.934,0.44-1.374c0,0,0.768-0.329,1.372,0.878L10.594,10.662z"/>
</svg>
