<?xml version="1.0" encoding="utf-8"?>
<!-- Generator: Adobe Illustrator 16.0.3, SVG Export Plug-In . SVG Version: 6.00 Build 0)  -->
<!DOCTYPE svg PUBLIC "-//W3C//DTD SVG 1.1//EN" "http://www.w3.org/Graphics/SVG/1.1/DTD/svg11.dtd">
<svg version="1.1" id="Layer_1" xmlns="http://www.w3.org/2000/svg" xmlns:xlink="http://www.w3.org/1999/xlink" x="0px" y="0px"
	 width="24px" height="24px" viewBox="0 0 24 24" enable-background="new 0 0 24 24" xml:space="preserve">
<path fill="#2DA4C5" d="M22.909,18.307c0,2.5-2.025,4.526-4.525,4.526H5.937c-2.5,0-4.526-2.026-4.526-4.526V5.86
	c0-2.5,2.027-4.527,4.526-4.527h12.447c2.5,0,4.525,2.027,4.525,4.527V18.307z"/>
<g>
	<path fill-rule="evenodd" clip-rule="evenodd" fill="#FFFFFF" d="M8.006,21.146c-0.475-0.209-0.645-0.586-0.642-1.088
		c0.011-1.512,0.004-3.024,0.004-4.536c0-0.13,0-0.259,0-0.43c-0.934,0-1.831,0-2.774,0c0.173-0.573,0.332-1.099,0.49-1.622
		c0.399-1.319,0.802-2.637,1.193-3.959c0.143-0.488,0.433-0.818,0.897-1.033c1.431-0.661,2.851-1.346,4.282-2.008
		c0.246-0.114,0.519-0.207,0.786-0.229c0.928-0.074,1.598,0.544,1.618,1.474c0.014,0.639,0.012,1.28-0.002,1.92
		c-0.004,0.225,0.059,0.356,0.264,0.472c0.703,0.393,1.393,0.809,2.086,1.218c0.252,0.149,0.438,0.342,0.4,0.663
		c-0.053,0.464-0.49,0.72-0.922,0.542c-0.08-0.034-0.157-0.079-0.233-0.124c-0.78-0.457-1.554-0.926-2.344-1.366
		c-0.392-0.218-0.573-0.53-0.583-0.962c-0.006-0.23-0.001-0.461-0.001-0.747c-0.377,0.175-0.713,0.33-1.048,0.487
		c-0.338,0.158-0.674,0.318-1.033,0.489c0.478,1.587,0.95,3.154,1.436,4.768c-0.924,0-1.811,0-2.754,0c0,0.15,0,0.267,0,0.381
		c0,1.501-0.011,3.003,0.005,4.505c0.006,0.515-0.118,0.931-0.597,1.187C8.359,21.146,8.183,21.146,8.006,21.146z"/>
	<path fill-rule="evenodd" clip-rule="evenodd" fill="#FFFFFF" d="M15.193,14.229c0.112,0.008,0.164,0.014,0.215,0.014
		c0.451,0,0.903,0,1.41,0c0-0.277-0.009-0.536,0.002-0.796c0.023-0.508,0.425-0.794,0.811-0.542
		c0.152,0.099,0.271,0.356,0.282,0.548c0.034,0.639,0.027,1.281,0.008,1.921c-0.016,0.501-0.404,0.978-0.896,0.998
		c-0.989,0.045-1.987,0.081-2.971,0c-0.864-0.069-1.214-0.944-0.749-1.686c0.251-0.402,0.523-0.792,0.807-1.219
		c-0.37-0.215-0.736-0.412-1.088-0.635c-0.418-0.265-0.463-0.745-0.066-0.95c0.168-0.086,0.461-0.059,0.641,0.032
		c0.562,0.28,1.1,0.61,1.639,0.933c0.431,0.257,0.488,0.531,0.224,0.969C15.386,13.937,15.306,14.055,15.193,14.229z"/>
	<path fill-rule="evenodd" clip-rule="evenodd" fill="#FFFFFF" d="M15.24,7.508c-0.93,0.006-1.671-0.723-1.676-1.646
		c-0.004-0.922,0.732-1.669,1.651-1.676s1.672,0.734,1.679,1.651C16.9,6.761,16.166,7.502,15.24,7.508z"/>
	<path fill-rule="evenodd" clip-rule="evenodd" fill="#FFFFFF" d="M12.566,17.592c0-0.302,0-0.571,0-0.854c2.711,0,5.396,0,8.115,0
		c0,0.277,0,0.555,0,0.854C17.982,17.592,15.288,17.592,12.566,17.592z"/>
	<path fill-rule="evenodd" clip-rule="evenodd" fill="#FFFFFF" d="M19.438,14.104c0.691-0.006,1.254,0.544,1.25,1.226
		c-0.004,0.663-0.559,1.219-1.225,1.227c-0.68,0.009-1.252-0.558-1.248-1.234C18.217,14.65,18.762,14.107,19.438,14.104z"/>
</g>
</svg>
