<?xml version="1.0" encoding="utf-8"?>
<!-- Generator: Adobe Illustrator 16.0.3, SVG Export Plug-In . SVG Version: 6.00 Build 0)  -->
<!DOCTYPE svg PUBLIC "-//W3C//DTD SVG 1.1//EN" "http://www.w3.org/Graphics/SVG/1.1/DTD/svg11.dtd">
<svg version="1.1" id="圖層_1" xmlns="http://www.w3.org/2000/svg" xmlns:xlink="http://www.w3.org/1999/xlink" x="0px" y="0px"
	 width="24px" height="24px" viewBox="0 0 24 24" enable-background="new 0 0 24 24" xml:space="preserve">
<linearGradient id="SVGID_1_" gradientUnits="userSpaceOnUse" x1="-279.3188" y1="356.9336" x2="-277.6999" y2="423.3113">
	<stop  offset="0" style="stop-color:#2196EB"/>
	<stop  offset="0.9694" style="stop-color:#619CA3"/>
</linearGradient>
<path fill="none" stroke="url(#SVGID_1_)" stroke-width="7" stroke-linecap="round" stroke-linejoin="round" stroke-miterlimit="10" d="
	M-251,360.5h-31c0,0-24,1-24,27v33"/>
<linearGradient id="SVGID_2_" gradientUnits="userSpaceOnUse" x1="-279.3184" y1="-800.0659" x2="-277.6994" y2="-733.6891" gradientTransform="matrix(1 0 0 -1 0 -263)">
	<stop  offset="0" style="stop-color:#2196EB"/>
	<stop  offset="0.9694" style="stop-color:#619CA3"/>
</linearGradient>
<path fill="none" stroke="url(#SVGID_2_)" stroke-width="7" stroke-linecap="round" stroke-linejoin="round" stroke-miterlimit="10" d="
	M-251,533.5h-31c0,0-24-1-24-27v-33"/>
<linearGradient id="SVGID_3_" gradientUnits="userSpaceOnUse" x1="-155.3184" y1="356.9326" x2="-153.6994" y2="423.3103" gradientTransform="matrix(-1 0 0 1 -309 0)">
	<stop  offset="0" style="stop-color:#2196EB"/>
	<stop  offset="0.9694" style="stop-color:#619CA3"/>
</linearGradient>
<path fill="none" stroke="url(#SVGID_3_)" stroke-width="7" stroke-linecap="round" stroke-linejoin="round" stroke-miterlimit="10" d="
	M-182,360.5h31c0,0,24,1,24,27v33"/>
<linearGradient id="SVGID_4_" gradientUnits="userSpaceOnUse" x1="-155.3184" y1="-800.0649" x2="-153.6994" y2="-733.6882" gradientTransform="matrix(-1 0 0 -1 -309 -263)">
	<stop  offset="0" style="stop-color:#2196EB"/>
	<stop  offset="0.9694" style="stop-color:#619CA3"/>
</linearGradient>
<path fill="none" stroke="url(#SVGID_4_)" stroke-width="7" stroke-linecap="round" stroke-linejoin="round" stroke-miterlimit="10" d="
	M-182,533.5h31c0,0,24-1,24-27v-33"/>
<linearGradient id="SVGID_5_" gradientUnits="userSpaceOnUse" x1="-254.311" y1="410.5068" x2="-253.6894" y2="435.9934">
	<stop  offset="0" style="stop-color:#2196EB"/>
	<stop  offset="0.9694" style="stop-color:#619CA3"/>
</linearGradient>
<path fill="url(#SVGID_5_)" d="M-249.875,431.875c0,2.277-1.847,4.125-4.125,4.125l0,0c-2.278,0-4.125-1.848-4.125-4.125v-17.25
	c0-2.277,1.847-4.125,4.125-4.125l0,0c2.278,0,4.125,1.848,4.125,4.125V431.875z"/>
<linearGradient id="SVGID_6_" gradientUnits="userSpaceOnUse" x1="-183.3105" y1="410.5068" x2="-182.6889" y2="435.9934">
	<stop  offset="0" style="stop-color:#2196EB"/>
	<stop  offset="0.9694" style="stop-color:#619CA3"/>
</linearGradient>
<path fill="url(#SVGID_6_)" d="M-178.875,431.875c0,2.277-1.847,4.125-4.125,4.125l0,0c-2.278,0-4.125-1.848-4.125-4.125v-17.25
	c0-2.277,1.847-4.125,4.125-4.125l0,0c2.278,0,4.125,1.848,4.125,4.125V431.875z"/>
<linearGradient id="SVGID_7_" gradientUnits="userSpaceOnUse" x1="-232" y1="440.0322" x2="-214" y2="440.0322">
	<stop  offset="0" style="stop-color:#2196EB"/>
	<stop  offset="0.9694" style="stop-color:#619CA3"/>
</linearGradient>
<path fill="none" stroke="url(#SVGID_7_)" stroke-width="7" stroke-linecap="round" stroke-linejoin="round" stroke-miterlimit="10" d="
	M-217.5,418.5v33c0,0,0,11-11,10"/>
<linearGradient id="SVGID_8_" gradientUnits="userSpaceOnUse" x1="-252" y1="487.5" x2="-185" y2="487.5">
	<stop  offset="0" style="stop-color:#2196EB"/>
	<stop  offset="0.9694" style="stop-color:#619CA3"/>
</linearGradient>
<path fill="none" stroke="url(#SVGID_8_)" stroke-width="7" stroke-linecap="round" stroke-linejoin="round" stroke-miterlimit="10" d="
	M-248.5,481.5c0,0,33,27,60,0"/>
<linearGradient id="SVGID_9_" gradientUnits="userSpaceOnUse" x1="7.8872" y1="3.6382" x2="8.3034" y2="20.7034">
	<stop  offset="0" style="stop-color:#2196EB"/>
	<stop  offset="0.9694" style="stop-color:#619CA3"/>
</linearGradient>
<path fill="none" stroke="url(#SVGID_9_)" stroke-linecap="round" stroke-linejoin="round" stroke-miterlimit="10" d="M9.958,20.162
	l0.206-1.685c0,0-0.411-0.616,0.658-0.534c0,0,2.713,0.492,2.753-0.987c0,0-0.657-1.027,0.124-1.273c0,0,0.74-0.535,0.083-0.904
	c0,0,0.904-0.617,0.122-0.987c0,0-0.287-0.494,0.042-0.534c0,0,1.397-0.165,0.698-1.069l-1.768-2.014c0,0-0.082-0.535,0.165-1.069
	c0,0-0.371-3.494-3.619-4.522c0,0-5.056-2.055-7.77,2.918c0,0-1.109,3.495,0.658,5.961c0,0,1.685,3.33,1.069,4.892l-0.37,1.851"/>
<linearGradient id="SVGID_10_" gradientUnits="userSpaceOnUse" x1="21.8018" y1="1.21" x2="22.2129" y2="18.0647">
	<stop  offset="0" style="stop-color:#2196EB"/>
	<stop  offset="0.9694" style="stop-color:#619CA3"/>
</linearGradient>
<path fill="url(#SVGID_10_)" d="M23.093,15.723c0,0.182-0.147,0.329-0.329,0.329h-1.356c-0.181,0-0.328-0.147-0.328-0.329V9.967
	c0-0.181,0.147-0.328,0.328-0.328h1.356c0.182,0,0.329,0.147,0.329,0.328V15.723z"/>
<linearGradient id="SVGID_11_" gradientUnits="userSpaceOnUse" x1="20.8555" y1="1.2319" x2="21.2666" y2="18.0877">
	<stop  offset="0" style="stop-color:#2196EB"/>
	<stop  offset="0.9694" style="stop-color:#619CA3"/>
</linearGradient>
<path fill="url(#SVGID_11_)" d="M22.106,14.531c0,0.182-0.147,0.329-0.33,0.329h-1.273c-0.182,0-0.328-0.147-0.328-0.329v-3.208
	c0-0.181,0.146-0.328,0.328-0.328h1.273c0.183,0,0.33,0.147,0.33,0.328V14.531z"/>
<linearGradient id="SVGID_12_" gradientUnits="userSpaceOnUse" x1="21.7002" y1="8.8174" x2="21.7302" y2="10.0494">
	<stop  offset="0" style="stop-color:#2196EB"/>
	<stop  offset="0.9694" style="stop-color:#619CA3"/>
</linearGradient>
<path fill="url(#SVGID_12_)" d="M21.962,9.804c0,0.136-0.11,0.246-0.246,0.246l0,0c-0.136,0-0.247-0.11-0.247-0.246V9.063
	c0-0.136,0.111-0.246,0.247-0.246l0,0c0.136,0,0.246,0.11,0.246,0.246V9.804z"/>
<linearGradient id="SVGID_13_" gradientUnits="userSpaceOnUse" x1="16.3682" y1="3.8369" x2="16.5489" y2="11.2468">
	<stop  offset="0" style="stop-color:#2196EB"/>
	<stop  offset="0.9694" style="stop-color:#619CA3"/>
</linearGradient>
<line fill="none" stroke="url(#SVGID_13_)" stroke-linecap="round" stroke-linejoin="round" stroke-miterlimit="10" stroke-dasharray="0.6,1.5" x1="13.083" y1="4.417" x2="19.833" y2="10.667"/>
<linearGradient id="SVGID_14_" gradientUnits="userSpaceOnUse" x1="16.3916" y1="14.333" x2="16.5257" y2="19.8323">
	<stop  offset="0" style="stop-color:#2196EB"/>
	<stop  offset="0.9694" style="stop-color:#619CA3"/>
</linearGradient>
<line fill="none" stroke="url(#SVGID_14_)" stroke-linecap="round" stroke-linejoin="round" stroke-miterlimit="10" stroke-dasharray="0.6,1.5" x1="13.083" y1="19.416" x2="19.833" y2="14.749"/>
</svg>
