<?xml version="1.0" encoding="utf-8"?>
<!-- Generator: Adobe Illustrator 16.0.3, SVG Export Plug-In . SVG Version: 6.00 Build 0)  -->
<!DOCTYPE svg PUBLIC "-//W3C//DTD SVG 1.1//EN" "http://www.w3.org/Graphics/SVG/1.1/DTD/svg11.dtd">
<svg version="1.1" id="圖層_1" xmlns="http://www.w3.org/2000/svg" xmlns:xlink="http://www.w3.org/1999/xlink" x="0px" y="0px"
	 width="24px" height="24px" viewBox="0 0 24 24" enable-background="new 0 0 24 24" xml:space="preserve">
<linearGradient id="SVGID_1_" gradientUnits="userSpaceOnUse" x1="-279.3188" y1="356.9336" x2="-277.6999" y2="423.3113">
	<stop  offset="0" style="stop-color:#2196EB"/>
	<stop  offset="0.9694" style="stop-color:#619CA3"/>
</linearGradient>
<path fill="none" stroke="url(#SVGID_1_)" stroke-width="7" stroke-linecap="round" stroke-linejoin="round" stroke-miterlimit="10" d="
	M-251,360.5h-31c0,0-24,1-24,27v33"/>
<linearGradient id="SVGID_2_" gradientUnits="userSpaceOnUse" x1="-279.3184" y1="-800.0659" x2="-277.6994" y2="-733.6891" gradientTransform="matrix(1 0 0 -1 0 -263)">
	<stop  offset="0" style="stop-color:#2196EB"/>
	<stop  offset="0.9694" style="stop-color:#619CA3"/>
</linearGradient>
<path fill="none" stroke="url(#SVGID_2_)" stroke-width="7" stroke-linecap="round" stroke-linejoin="round" stroke-miterlimit="10" d="
	M-251,533.5h-31c0,0-24-1-24-27v-33"/>
<linearGradient id="SVGID_3_" gradientUnits="userSpaceOnUse" x1="-155.3184" y1="356.9326" x2="-153.6994" y2="423.3103" gradientTransform="matrix(-1 0 0 1 -309 0)">
	<stop  offset="0" style="stop-color:#2196EB"/>
	<stop  offset="0.9694" style="stop-color:#619CA3"/>
</linearGradient>
<path fill="none" stroke="url(#SVGID_3_)" stroke-width="7" stroke-linecap="round" stroke-linejoin="round" stroke-miterlimit="10" d="
	M-182,360.5h31c0,0,24,1,24,27v33"/>
<linearGradient id="SVGID_4_" gradientUnits="userSpaceOnUse" x1="-155.3184" y1="-800.0649" x2="-153.6994" y2="-733.6882" gradientTransform="matrix(-1 0 0 -1 -309 -263)">
	<stop  offset="0" style="stop-color:#2196EB"/>
	<stop  offset="0.9694" style="stop-color:#619CA3"/>
</linearGradient>
<path fill="none" stroke="url(#SVGID_4_)" stroke-width="7" stroke-linecap="round" stroke-linejoin="round" stroke-miterlimit="10" d="
	M-182,533.5h31c0,0,24-1,24-27v-33"/>
<linearGradient id="SVGID_5_" gradientUnits="userSpaceOnUse" x1="-254.311" y1="410.5068" x2="-253.6894" y2="435.9934">
	<stop  offset="0" style="stop-color:#2196EB"/>
	<stop  offset="0.9694" style="stop-color:#619CA3"/>
</linearGradient>
<path fill="url(#SVGID_5_)" d="M-249.875,431.875c0,2.277-1.847,4.125-4.125,4.125l0,0c-2.278,0-4.125-1.848-4.125-4.125v-17.25
	c0-2.277,1.847-4.125,4.125-4.125l0,0c2.278,0,4.125,1.848,4.125,4.125V431.875z"/>
<linearGradient id="SVGID_6_" gradientUnits="userSpaceOnUse" x1="-183.3105" y1="410.5068" x2="-182.6889" y2="435.9934">
	<stop  offset="0" style="stop-color:#2196EB"/>
	<stop  offset="0.9694" style="stop-color:#619CA3"/>
</linearGradient>
<path fill="url(#SVGID_6_)" d="M-178.875,431.875c0,2.277-1.847,4.125-4.125,4.125l0,0c-2.278,0-4.125-1.848-4.125-4.125v-17.25
	c0-2.277,1.847-4.125,4.125-4.125l0,0c2.278,0,4.125,1.848,4.125,4.125V431.875z"/>
<linearGradient id="SVGID_7_" gradientUnits="userSpaceOnUse" x1="-232" y1="440.0322" x2="-214" y2="440.0322">
	<stop  offset="0" style="stop-color:#2196EB"/>
	<stop  offset="0.9694" style="stop-color:#619CA3"/>
</linearGradient>
<path fill="none" stroke="url(#SVGID_7_)" stroke-width="7" stroke-linecap="round" stroke-linejoin="round" stroke-miterlimit="10" d="
	M-217.5,418.5v33c0,0,0,11-11,10"/>
<linearGradient id="SVGID_8_" gradientUnits="userSpaceOnUse" x1="-252" y1="487.5" x2="-185" y2="487.5">
	<stop  offset="0" style="stop-color:#2196EB"/>
	<stop  offset="0.9694" style="stop-color:#619CA3"/>
</linearGradient>
<path fill="none" stroke="url(#SVGID_8_)" stroke-width="7" stroke-linecap="round" stroke-linejoin="round" stroke-miterlimit="10" d="
	M-248.5,481.5c0,0,33,27,60,0"/>
<g>
	<linearGradient id="SVGID_9_" gradientUnits="userSpaceOnUse" x1="6.0464" y1="1.4375" x2="6.0464" y2="21.6389">
		<stop  offset="0" style="stop-color:#2196EB"/>
		<stop  offset="0.9694" style="stop-color:#619CA3"/>
	</linearGradient>
	<path fill="url(#SVGID_9_)" d="M3.275,10.423c-0.414,0-0.75-0.336-0.75-0.75V6.347c0-2.641,2.053-3.425,3.138-3.471l3.155,0
		c0.414,0,0.75,0.336,0.75,0.75s-0.336,0.75-0.75,0.75H5.694c-0.248,0.016-1.669,0.19-1.669,1.971v3.326
		C4.025,10.087,3.689,10.423,3.275,10.423z"/>
</g>
<g>
	<linearGradient id="SVGID_10_" gradientUnits="userSpaceOnUse" x1="6.0464" y1="1.4375" x2="6.0464" y2="21.6389">
		<stop  offset="0" style="stop-color:#2196EB"/>
		<stop  offset="0.9694" style="stop-color:#619CA3"/>
	</linearGradient>
	<path fill="url(#SVGID_10_)" d="M8.818,21.812H5.694c-1.117-0.046-3.169-0.83-3.169-3.473v-3.324c0-0.414,0.336-0.75,0.75-0.75
		s0.75,0.336,0.75,0.75v3.324c0,1.782,1.422,1.957,1.707,1.974l3.086-0.001c0.414,0,0.75,0.336,0.75,0.75S9.232,21.812,8.818,21.812
		z"/>
</g>
<g>
	<linearGradient id="SVGID_11_" gradientUnits="userSpaceOnUse" x1="18.5449" y1="1.4375" x2="18.5449" y2="21.6389">
		<stop  offset="0" style="stop-color:#2196EB"/>
		<stop  offset="0.9694" style="stop-color:#619CA3"/>
	</linearGradient>
	<path fill="url(#SVGID_11_)" d="M21.315,10.423c-0.414,0-0.75-0.336-0.75-0.75V6.347c0-1.847-1.526-1.964-1.7-1.972l-3.092,0
		c-0.414,0-0.75-0.336-0.75-0.75s0.336-0.75,0.75-0.75h3.123c1.116,0.046,3.169,0.83,3.169,3.471v3.326
		C22.065,10.087,21.729,10.423,21.315,10.423z"/>
</g>
<g>
	<linearGradient id="SVGID_12_" gradientUnits="userSpaceOnUse" x1="18.5449" y1="1.4375" x2="18.5449" y2="21.6389">
		<stop  offset="0" style="stop-color:#2196EB"/>
		<stop  offset="0.9694" style="stop-color:#619CA3"/>
	</linearGradient>
	<path fill="url(#SVGID_12_)" d="M15.773,21.812c-0.414,0-0.75-0.336-0.75-0.75s0.336-0.75,0.75-0.75h3.123
		c0.247-0.016,1.669-0.19,1.669-1.973v-3.324c0-0.414,0.336-0.75,0.75-0.75s0.75,0.336,0.75,0.75v3.324
		c0,2.643-2.053,3.427-3.138,3.472L15.773,21.812z"/>
</g>
<g>
	<linearGradient id="SVGID_13_" gradientUnits="userSpaceOnUse" x1="11.6401" y1="1.4375" x2="11.6401" y2="21.6389">
		<stop  offset="0" style="stop-color:#2196EB"/>
		<stop  offset="0.9694" style="stop-color:#619CA3"/>
	</linearGradient>
	<path fill="url(#SVGID_13_)" d="M11.225,14.562c-0.067,0-0.136-0.003-0.208-0.01c-0.413-0.038-0.716-0.403-0.679-0.815
		c0.038-0.413,0.403-0.713,0.815-0.679c0.113,0.013,0.186-0.004,0.207-0.024c0.055-0.05,0.083-0.208,0.083-0.235V9.472
		c0-0.414,0.336-0.75,0.75-0.75c0.415,0,0.75,0.336,0.75,0.75v3.326c0,0.138-0.028,0.848-0.572,1.344
		C12.155,14.34,11.787,14.562,11.225,14.562z"/>
</g>
<g>
	<linearGradient id="SVGID_14_" gradientUnits="userSpaceOnUse" x1="12.0933" y1="1.4375" x2="12.0933" y2="21.6389">
		<stop  offset="0" style="stop-color:#2196EB"/>
		<stop  offset="0.9694" style="stop-color:#619CA3"/>
	</linearGradient>
	<path fill="url(#SVGID_14_)" d="M12.33,17.779c-1.544,0-2.957-0.74-3.734-1.377c-0.321-0.262-0.368-0.734-0.106-1.055
		c0.261-0.32,0.732-0.368,1.054-0.107l0,0c0.116,0.093,2.846,2.252,5.044,0.052c0.294-0.293,0.769-0.292,1.061,0
		c0.293,0.293,0.293,0.769,0,1.061C14.595,17.404,13.429,17.779,12.33,17.779z"/>
</g>
<g>
	<linearGradient id="SVGID_15_" gradientUnits="userSpaceOnUse" x1="8.0557" y1="1.4375" x2="8.0557" y2="21.6389">
		<stop  offset="0" style="stop-color:#2196EB"/>
		<stop  offset="0.9694" style="stop-color:#619CA3"/>
	</linearGradient>
	<path fill="url(#SVGID_15_)" d="M8.056,11.254c-0.414,0-0.75-0.336-0.75-0.75v-2.4c0-0.414,0.336-0.75,0.75-0.75
		s0.75,0.336,0.75,0.75v2.4C8.806,10.918,8.47,11.254,8.056,11.254z"/>
</g>
<g>
	<linearGradient id="SVGID_16_" gradientUnits="userSpaceOnUse" x1="16.4551" y1="1.4375" x2="16.4551" y2="21.6389">
		<stop  offset="0" style="stop-color:#2196EB"/>
		<stop  offset="0.9694" style="stop-color:#619CA3"/>
	</linearGradient>
	<path fill="url(#SVGID_16_)" d="M16.455,11.254c-0.414,0-0.75-0.336-0.75-0.75v-2.4c0-0.414,0.336-0.75,0.75-0.75
		s0.75,0.336,0.75,0.75v2.4C17.205,10.918,16.869,11.254,16.455,11.254z"/>
</g>
</svg>
