<?xml version="1.0" encoding="utf-8"?>
<!-- Generator: Adobe Illustrator 16.0.3, SVG Export Plug-In . SVG Version: 6.00 Build 0)  -->
<!DOCTYPE svg PUBLIC "-//W3C//DTD SVG 1.1//EN" "http://www.w3.org/Graphics/SVG/1.1/DTD/svg11.dtd">
<svg version="1.1" id="圖層_1" xmlns="http://www.w3.org/2000/svg" xmlns:xlink="http://www.w3.org/1999/xlink" x="0px" y="0px"
	 width="24px" height="24px" viewBox="0 0 24 24" enable-background="new 0 0 24 24" xml:space="preserve">
<path fill="none" stroke="#2B2B2B" stroke-miterlimit="10" d="M20.333,3.875H3.917C3.135,3.875,2.5,4.51,2.5,5.292v11.916
	c0,0.782,0.635,1.417,1.417,1.417h3.11l2.347,3.25l2.076-3.25h8.882c0.782,0,1.417-0.635,1.417-1.417V5.292
	C21.75,4.51,21.115,3.875,20.333,3.875z"/>
<g>
	<path fill="#2B2B2B" d="M12.852,13.566h-1.774c-0.005-0.255-0.007-0.41-0.007-0.466c0-0.575,0.095-1.048,0.285-1.419
		c0.19-0.371,0.571-0.789,1.141-1.252c0.571-0.464,0.912-0.768,1.023-0.912c0.171-0.227,0.258-0.478,0.258-0.751
		c0-0.38-0.153-0.706-0.456-0.977c-0.304-0.272-0.713-0.407-1.229-0.407c-0.496,0-0.911,0.142-1.245,0.424s-0.563,0.714-0.689,1.294
		L8.364,8.878c0.051-0.83,0.405-1.535,1.061-2.115c0.657-0.58,1.518-0.87,2.584-0.87c1.123,0,2.015,0.293,2.679,0.88
		c0.663,0.587,0.994,1.27,0.994,2.049c0,0.431-0.121,0.839-0.364,1.224c-0.245,0.385-0.765,0.909-1.563,1.573
		c-0.413,0.343-0.669,0.619-0.769,0.827C12.887,12.655,12.842,13.028,12.852,13.566z M11.078,16.196v-1.955h1.955v1.955H11.078z"/>
</g>
</svg>
