<?xml version="1.0" encoding="utf-8"?>
<!-- Generator: Adobe Illustrator 16.0.3, SVG Export Plug-In . SVG Version: 6.00 Build 0)  -->
<!DOCTYPE svg PUBLIC "-//W3C//DTD SVG 1.1//EN" "http://www.w3.org/Graphics/SVG/1.1/DTD/svg11.dtd">
<svg version="1.1" id="圖層_1" xmlns="http://www.w3.org/2000/svg" xmlns:xlink="http://www.w3.org/1999/xlink" x="0px" y="0px"
	 width="24px" height="24px" viewBox="0 0 24 24" enable-background="new 0 0 24 24" xml:space="preserve">
<g>
	<g>
		<path fill="#2B2B2B" d="M10.416,14.48c-1.226,0.355-2.453,0.696-3.601,1.02c-1.149,0.326-2.221,0.629-3.141,0.888
			c-0.919,0.261-1.688,0.468-2.224,0.617c-0.308,0.085-0.541,0.147-0.683,0.188v-0.236c0.143-0.047,0.364-0.122,0.649-0.219
			c0.533-0.176,1.294-0.436,2.208-0.733c0.915-0.3,1.981-0.65,3.125-1.025c1.144-0.374,2.361-0.781,3.582-1.172
			c2.44-0.783,4.881-1.571,6.711-2.159c1.58-0.502,2.709-0.86,2.985-0.949v0.996c-0.403,0.119-1.459,0.428-2.877,0.844
			C15.316,13.069,12.866,13.774,10.416,14.48z"/>
		<path fill="#2B2B2B" d="M10.309,10.493c-1.218,0.621-2.435,1.258-3.576,1.848c-1.142,0.593-2.206,1.144-3.119,1.616
			C2.7,14.429,1.941,14.832,1.41,15.11c-0.28,0.146-0.497,0.259-0.64,0.337v0.244c0.074-0.034,0.178-0.081,0.303-0.142l1.921,0.664
			c0.202-0.067,0.413-0.136,0.634-0.209c0.915-0.299,1.982-0.648,3.125-1.024c1.144-0.374,2.361-0.781,3.582-1.171
			c2.44-0.785,4.882-1.572,6.711-2.16c1.581-0.502,2.709-0.859,2.986-0.949V5.534C19.831,5.635,12.746,9.246,10.309,10.493z
			 M1.346,15.423c0.038-0.017,0.076-0.035,0.114-0.054c0.461-0.213,1.094-0.504,1.845-0.855l0.101,0.83L1.346,15.423z M5.814,14.578
			l-2.251-0.185c0.042-0.021,0.083-0.039,0.125-0.06c0.681-0.321,1.446-0.681,2.265-1.065L5.814,14.578z M8.946,13.522l-2.561-0.457
			c0.149-0.07,0.298-0.141,0.449-0.211c0.813-0.384,1.665-0.781,2.527-1.188L8.946,13.522z M12.833,12.089L9.78,11.468
			c0.219-0.104,0.44-0.208,0.66-0.315c1.104-0.526,2.207-1.052,3.255-1.551L12.833,12.089z M17.551,10.117l-3.32-0.771
			c1.079-0.514,2.086-0.994,2.955-1.408c1.187-0.572,2.117-1.02,2.628-1.266L17.551,10.117z"/>
		<path fill="#2B2B2B" d="M10.402,16.145c-1.224,0.24-2.449,0.463-3.597,0.68c-1.148,0.215-2.221,0.416-3.138,0.59
			c-0.918,0.174-1.686,0.309-2.221,0.407c-0.305,0.057-0.535,0.098-0.677,0.123V17.71c0.143-0.035,0.365-0.088,0.655-0.158
			c0.534-0.127,1.295-0.315,2.211-0.525c0.915-0.215,1.983-0.464,3.127-0.73c1.145-0.266,2.364-0.56,3.586-0.834
			c2.442-0.556,4.883-1.109,6.716-1.528c1.549-0.343,2.663-0.592,2.968-0.659v0.983c-0.39,0.078-1.455,0.291-2.896,0.576
			C15.3,15.194,12.851,15.669,10.402,16.145z"/>
		<path fill="#2B2B2B" d="M10.39,17.809c-1.223,0.123-2.448,0.231-3.595,0.342c-1.147,0.106-2.218,0.206-3.136,0.292
			c-0.917,0.088-1.683,0.151-2.218,0.198c-0.301,0.025-0.529,0.046-0.672,0.06v-0.234c0.143-0.021,0.366-0.054,0.66-0.097
			c0.534-0.075,1.297-0.19,2.213-0.317c0.917-0.127,1.985-0.274,3.13-0.435c1.145-0.157,2.366-0.336,3.587-0.493
			c2.444-0.325,4.887-0.65,6.721-0.894c1.521-0.193,2.622-0.336,2.953-0.378v0.982c-0.378,0.041-1.451,0.152-2.912,0.305
			C15.284,17.322,12.837,17.563,10.39,17.809z"/>
		<path fill="#2B2B2B" d="M1.433,19.183c0.535-0.025,1.3-0.068,2.216-0.107c0.917-0.043,1.985-0.09,3.132-0.142
			c1.146-0.049,2.368-0.11,3.591-0.155c2.445-0.094,4.889-0.187,6.722-0.259c1.498-0.049,2.587-0.086,2.937-0.097v1.03
			c-0.358,0.002-19.118,0-19.261,0v-0.236C0.912,19.208,1.137,19.2,1.433,19.183z"/>
	</g>
	<g>
		<path fill="#2B2B2B" d="M23.123,15.691v-0.247c-0.023-0.075-0.059-0.188-0.104-0.336c-0.085-0.277-0.207-0.681-0.354-1.153
			c-0.148-0.472-0.318-1.023-0.5-1.615c-0.185-0.59-0.38-1.228-0.575-1.848c-0.391-1.248-0.781-2.495-1.075-3.43
			c-0.267-0.841-0.452-1.428-0.482-1.529v6.16c0.065,0.119,1.147,2.08,1.541,2.786c0.196,0.355,0.395,0.694,0.579,1.021
			c0.184,0.324,0.355,0.628,0.504,0.887c0.147,0.262,0.271,0.469,0.356,0.618c0.049,0.085,0.088,0.147,0.11,0.188v-0.236
			c-0.022-0.047-0.06-0.122-0.104-0.219c-0.086-0.176-0.208-0.436-0.354-0.733c-0.055-0.114-0.115-0.236-0.178-0.36l0.58-0.117
			C23.089,15.595,23.109,15.651,23.123,15.691z M22.652,14.334c0.061,0.175,0.115,0.338,0.167,0.484l-0.506-0.12l0.2-0.779
			C22.561,14.063,22.607,14.202,22.652,14.334z M22.148,12.854c0.114,0.331,0.221,0.649,0.322,0.946l-0.674-0.104l0.122-1.512
			C21.998,12.412,22.074,12.635,22.148,12.854z M21.57,11.152c0.11,0.332,0.222,0.658,0.33,0.977l-0.782-0.029l0.188-1.735
			C21.393,10.625,21.48,10.889,21.57,11.152z M20.487,7.939c0.216,0.643,0.486,1.445,0.771,2.289l-0.729,0.108l-0.373-3.391
			C20.24,7.196,20.353,7.537,20.487,7.939z M22.597,15.316l0.226-0.496c0.073,0.217,0.14,0.401,0.188,0.549
			c0.02,0.053,0.033,0.098,0.048,0.138L22.597,15.316z"/>
		<path fill="#2B2B2B" d="M22.662,17.028c-0.146-0.215-0.318-0.464-0.502-0.73c-0.185-0.266-0.379-0.559-0.574-0.833
			c-0.393-0.557-1.506-2.121-1.556-2.188v0.985c0.064,0.077,1.152,1.405,1.545,1.882c0.198,0.24,0.394,0.463,0.578,0.68
			c0.184,0.215,0.355,0.416,0.504,0.59c0.146,0.174,0.271,0.309,0.356,0.407c0.049,0.057,0.086,0.098,0.109,0.123V17.71
			c-0.023-0.035-0.061-0.088-0.105-0.158C22.932,17.425,22.811,17.238,22.662,17.028z"/>
		<path fill="#2B2B2B" d="M22.661,18.051c-0.147-0.128-0.318-0.274-0.503-0.435c-0.184-0.156-0.381-0.335-0.576-0.493
			c-0.391-0.325-0.784-0.65-1.077-0.893c-0.245-0.194-0.421-0.337-0.475-0.379v0.983c0.063,0.039,0.232,0.151,0.468,0.305
			c0.296,0.183,0.688,0.425,1.08,0.669c0.197,0.123,0.393,0.231,0.578,0.342c0.184,0.106,0.354,0.206,0.501,0.292
			c0.149,0.088,0.271,0.151,0.356,0.198c0.049,0.025,0.086,0.046,0.109,0.06v-0.234c-0.023-0.021-0.061-0.054-0.105-0.097
			C22.932,18.292,22.809,18.178,22.661,18.051z"/>
		<path fill="#2B2B2B" d="M22.66,19.075c-0.146-0.043-0.319-0.09-0.503-0.142c-0.185-0.049-0.38-0.11-0.576-0.155
			c-0.392-0.094-0.785-0.187-1.078-0.259c-0.24-0.049-0.417-0.086-0.473-0.097v1.03c0.059,0.002,3.071,0,3.093,0v-0.236
			c-0.023-0.009-0.061-0.02-0.107-0.034C22.93,19.157,22.808,19.114,22.66,19.075z"/>
	</g>
</g>
</svg>
