<?xml version="1.0" encoding="utf-8"?>
<!-- Generator: Adobe Illustrator 16.0.3, SVG Export Plug-In . SVG Version: 6.00 Build 0)  -->
<!DOCTYPE svg PUBLIC "-//W3C//DTD SVG 1.1//EN" "http://www.w3.org/Graphics/SVG/1.1/DTD/svg11.dtd">
<svg version="1.1" id="圖層_1" xmlns="http://www.w3.org/2000/svg" xmlns:xlink="http://www.w3.org/1999/xlink" x="0px" y="0px"
	 width="24px" height="24px" viewBox="0 0 24 24" enable-background="new 0 0 24 24" xml:space="preserve">
<path fill="none" stroke="#2B2B2B" stroke-miterlimit="10" d="M19.193,5.125H5.058c-0.674,0-1.221,0.546-1.221,1.221v10.261
	c0,0.673,0.546,1.22,1.221,1.22h2.678l2.021,2.799l1.788-2.799h7.648c0.673,0,1.22-0.547,1.22-1.22V6.346
	C20.413,5.671,19.866,5.125,19.193,5.125z"/>
<g>
	<path fill="#2B2B2B" d="M12.876,13.428h-1.471c-0.004-0.211-0.006-0.34-0.006-0.387c0-0.477,0.079-0.869,0.236-1.177
		s0.474-0.654,0.946-1.039c0.473-0.384,0.756-0.636,0.848-0.756c0.142-0.188,0.214-0.396,0.214-0.623
		c0-0.315-0.127-0.585-0.378-0.81c-0.252-0.226-0.591-0.338-1.019-0.338c-0.412,0-0.755,0.118-1.032,0.352s-0.467,0.592-0.571,1.073
		L9.155,9.54c0.042-0.688,0.335-1.273,0.88-1.753c0.544-0.481,1.258-0.721,2.143-0.721c0.931,0,1.67,0.243,2.221,0.729
		c0.55,0.487,0.824,1.053,0.824,1.699c0,0.357-0.101,0.696-0.302,1.015c-0.203,0.319-0.635,0.754-1.296,1.304
		c-0.343,0.284-0.555,0.514-0.638,0.686C12.905,12.672,12.868,12.98,12.876,13.428z M11.405,15.607v-1.621h1.621v1.621H11.405z"/>
</g>
</svg>
