<?xml version="1.0" encoding="utf-8"?>
<!-- Generator: Adobe Illustrator 16.0.3, SVG Export Plug-In . SVG Version: 6.00 Build 0)  -->
<!DOCTYPE svg PUBLIC "-//W3C//DTD SVG 1.1//EN" "http://www.w3.org/Graphics/SVG/1.1/DTD/svg11.dtd">
<svg version="1.1" id="圖層_1" xmlns="http://www.w3.org/2000/svg" xmlns:xlink="http://www.w3.org/1999/xlink" x="0px" y="0px"
	 width="24px" height="24px" viewBox="0 0 24 24" enable-background="new 0 0 24 24" xml:space="preserve">
<g>
	<path fill="#2B2B2B" d="M5.379,6.75c0-0.646-0.013-1.21,0.003-1.773C5.404,4.182,5.676,3.914,6.46,3.914
		c5.029-0.002,10.058-0.002,15.087,0c0.837,0,1.035,0.201,1.035,1.046c0.003,4.199,0.007,8.396-0.001,12.595
		c-0.004,1.545-1.113,2.732-2.663,2.738c-5.291,0.025-10.583,0.029-15.875-0.002c-1.547-0.008-2.639-1.195-2.644-2.756
		c-0.01-3.281-0.004-6.56,0-9.84C1.4,6.903,1.554,6.757,2.379,6.751C3.359,6.745,4.337,6.75,5.379,6.75z M6.804,5.368
		c0,0.3,0,0.538,0,0.776c0,3.366,0.009,6.732-0.006,10.1c-0.004,0.861-0.085,1.725-0.133,2.629c0.097,0.004,0.289,0.023,0.481,0.023
		c4.153,0.002,8.307,0.002,12.459-0.002c1.176-0.002,1.608-0.447,1.609-1.638c0.002-3.737,0.002-7.477,0.001-11.214
		c0-0.213-0.021-0.427-0.03-0.676C16.393,5.368,11.638,5.368,6.804,5.368z M2.779,8.132c0,3.245-0.02,6.429,0.015,9.612
		c0.008,0.717,0.638,1.172,1.347,1.146c0.749-0.025,1.23-0.55,1.233-1.396c0.008-2.949,0.004-5.897,0.001-8.847
		c0-0.166-0.03-0.332-0.049-0.515C4.479,8.132,3.676,8.132,2.779,8.132z"/>
	<path fill="#2B2B2B" d="M10.688,6.75c0.546-0.001,1.092,0.005,1.638-0.002c0.531-0.007,0.828,0.237,0.832,0.778
		c0.008,1.026,0.01,2.052,0,3.078c-0.006,0.53-0.288,0.794-0.825,0.792c-1.092-0.005-2.183-0.001-3.275-0.002
		c-0.565,0-0.835-0.286-0.832-0.852c0.006-0.982,0.007-1.965,0-2.947C8.221,7.03,8.47,6.74,9.052,6.749
		C9.597,6.758,10.143,6.751,10.688,6.75z M11.764,8.138c-0.732,0-1.399,0-2.105,0c0,0.621,0,1.214,0,1.822c0.73,0,1.411,0,2.105,0
		C11.764,9.341,11.764,8.778,11.764,8.138z"/>
	<path fill="#2B2B2B" d="M14.014,13.066c1.619,0.002,3.238,0.01,4.856-0.006c0.517-0.002,0.901,0.174,0.89,0.715
		c-0.013,0.508-0.404,0.656-0.882,0.656c-3.26-0.009-6.52-0.005-9.78,0c-0.461,0-0.86-0.097-0.878-0.648
		c-0.017-0.578,0.365-0.723,0.871-0.721C10.731,13.072,12.373,13.066,14.014,13.066z"/>
	<path fill="#2B2B2B" d="M13.962,17.469c-1.576,0-3.15,0-4.725,0c-0.503,0-1.033-0.008-1.014-0.703
		C8.24,16.135,8.72,16.1,9.214,16.102c3.193,0.006,6.386,0.006,9.58-0.002c0.519-0.002,0.974,0.113,0.963,0.707
		c-0.01,0.551-0.448,0.668-0.94,0.664C17.198,17.461,15.579,17.467,13.962,17.469z"/>
	<path fill="#2B2B2B" d="M17.182,11.396c-0.588,0-1.175-0.005-1.764,0.002c-0.486,0.006-0.841-0.203-0.846-0.696
		c-0.004-0.459,0.332-0.682,0.792-0.683c1.22-0.001,2.438-0.008,3.657,0.004c0.457,0.005,0.82,0.274,0.723,0.716
		c-0.057,0.26-0.454,0.581-0.738,0.627C18.412,11.462,17.792,11.396,17.182,11.396z"/>
	<path fill="#2B2B2B" d="M17.177,8.11c-0.588,0.001-1.175-0.007-1.764,0.003c-0.486,0.008-0.843-0.192-0.843-0.692
		c0-0.46,0.328-0.676,0.793-0.674c1.197,0.003,2.395,0.003,3.593,0c0.456-0.001,0.8,0.192,0.812,0.657
		c0.012,0.504-0.341,0.71-0.826,0.706C18.354,8.105,17.766,8.11,17.177,8.11z"/>
</g>
</svg>
