<?xml version="1.0" encoding="utf-8"?>
<!-- Generator: Adobe Illustrator 16.0.3, SVG Export Plug-In . SVG Version: 6.00 Build 0)  -->
<!DOCTYPE svg PUBLIC "-//W3C//DTD SVG 1.1//EN" "http://www.w3.org/Graphics/SVG/1.1/DTD/svg11.dtd">
<svg version="1.1" id="圖層_1" xmlns="http://www.w3.org/2000/svg" xmlns:xlink="http://www.w3.org/1999/xlink" x="0px" y="0px"
	 width="24px" height="24px" viewBox="0 0 24 24" enable-background="new 0 0 24 24" xml:space="preserve">
<g>
	<path fill="#2B2B2B" d="M5.676,19.357h-2.82c-0.82,0-1.487-0.668-1.487-1.487v-2.82c0-0.819,0.667-1.485,1.487-1.485h2.82
		c0.82,0,1.486,0.666,1.486,1.485v2.82C7.164,18.689,6.497,19.357,5.676,19.357z M2.856,14.755c-0.163,0-0.295,0.132-0.295,0.295
		v2.82c0,0.163,0.132,0.295,0.295,0.295h2.82c0.163,0,0.295-0.132,0.295-0.295v-2.82c0-0.163-0.132-0.295-0.295-0.295H2.856z"/>
</g>
<g>
	<path fill="#2B2B2B" d="M13.396,19.357h-2.819c-0.82,0-1.487-0.668-1.487-1.487v-2.82c0-0.819,0.667-1.485,1.487-1.485h2.819
		c0.821,0,1.487,0.666,1.487,1.485v2.82C14.883,18.689,14.217,19.357,13.396,19.357z M10.576,14.755
		c-0.163,0-0.295,0.132-0.295,0.295v2.82c0,0.163,0.132,0.295,0.295,0.295h2.819c0.163,0,0.296-0.132,0.296-0.295v-2.82
		c0-0.163-0.133-0.295-0.296-0.295H10.576z"/>
</g>
<g>
	<path fill="#2B2B2B" d="M21.264,19.357h-2.82c-0.82,0-1.484-0.668-1.484-1.487v-2.82c0-0.819,0.664-1.485,1.484-1.485h2.82
		c0.818,0,1.486,0.666,1.486,1.485v2.82C22.75,18.689,22.084,19.357,21.264,19.357z M18.443,14.755
		c-0.162,0-0.295,0.132-0.295,0.295v2.82c0,0.163,0.133,0.295,0.295,0.295h2.82c0.162,0,0.296-0.132,0.296-0.295v-2.82
		c0-0.163-0.134-0.295-0.296-0.295H18.443z"/>
</g>
<g>
	<path fill="#2B2B2B" d="M13.396,9.486h-2.819c-0.82,0-1.487-0.667-1.487-1.486V5.18c0-0.82,0.667-1.486,1.487-1.486h2.819
		c0.821,0,1.487,0.666,1.487,1.486V8C14.883,8.819,14.217,9.486,13.396,9.486z M10.576,4.884c-0.163,0-0.295,0.133-0.295,0.295V8
		c0,0.163,0.132,0.295,0.295,0.295h2.819c0.163,0,0.296-0.132,0.296-0.295V5.18c0-0.163-0.133-0.295-0.296-0.295L10.576,4.884
		L10.576,4.884z"/>
</g>
<g>
	<rect x="11.391" y="9.113" fill="#2B2B2B" width="1.189" height="2.227"/>
</g>
<g>
	<rect x="11.391" y="11.785" fill="#2B2B2B" width="1.189" height="2.227"/>
</g>
<g>
	<polygon fill="#2B2B2B" points="20.523,13.938 19.334,13.938 19.334,12.157 4.527,12.157 4.527,13.643 3.336,13.643 3.336,10.966 
		20.523,10.966 	"/>
</g>
</svg>
