<?xml version="1.0" encoding="utf-8"?>
<!-- Generator: Adobe Illustrator 16.0.3, SVG Export Plug-In . SVG Version: 6.00 Build 0)  -->
<!DOCTYPE svg PUBLIC "-//W3C//DTD SVG 1.1//EN" "http://www.w3.org/Graphics/SVG/1.1/DTD/svg11.dtd">
<svg version="1.1" id="圖層_1" xmlns="http://www.w3.org/2000/svg" xmlns:xlink="http://www.w3.org/1999/xlink" x="0px" y="0px"
	 width="24px" height="24px" viewBox="0 0 24 24" enable-background="new 0 0 24 24" xml:space="preserve">
<g>
	<g>
		<polygon fill="#2B2B2B" points="15.883,7.343 15.898,7.474 15.704,7.515 15.68,7.793 15.913,7.793 16.227,7.764 16.387,7.572 
			16.215,7.505 16.121,7.397 15.98,7.169 15.913,6.846 15.646,6.9 15.573,7.014 15.573,7.142 15.701,7.229 		"/>
		<polygon fill="#2B2B2B" points="15.657,7.451 15.671,7.276 15.518,7.209 15.298,7.259 15.139,7.518 15.139,7.686 15.325,7.686 		
			"/>
		<path fill="#2B2B2B" d="M11.181,8.192l-0.048,0.124h-0.231v0.119h0.055c0,0,0.004,0.025,0.009,0.059l0.142-0.012l0.089-0.055
			l0.023-0.111l0.114-0.01l0.046-0.094L11.273,8.19L11.181,8.192z"/>
		<polygon fill="#2B2B2B" points="10.584,8.41 10.575,8.527 10.743,8.513 10.76,8.396 10.659,8.316 		"/>
		<path fill="#2B2B2B" d="M20.663,12.145c-0.003-0.258-0.017-0.514-0.04-0.766c-0.081-0.84-0.282-1.645-0.583-2.399
			c-0.022-0.056-0.043-0.113-0.067-0.168c-0.399-0.948-0.964-1.81-1.652-2.554c-0.045-0.048-0.092-0.096-0.137-0.144
			c-0.131-0.135-0.265-0.267-0.402-0.394c-1.566-1.426-3.647-2.297-5.928-2.297c-2.3,0-4.395,0.886-5.966,2.334
			c-0.366,0.337-0.702,0.706-1.008,1.1c-1.151,1.49-1.839,3.355-1.839,5.378c0,4.859,3.954,8.813,8.813,8.813
			c3.418,0,6.386-1.957,7.847-4.809c0.313-0.609,0.556-1.261,0.72-1.94c0.042-0.174,0.078-0.347,0.107-0.521
			c0.09-0.502,0.139-1.017,0.139-1.542C20.665,12.205,20.664,12.175,20.663,12.145z M19.004,8.622l0.053-0.057
			c0.065,0.13,0.129,0.263,0.188,0.396l-0.084-0.003L19.004,8.98V8.622z M17.73,7.085l0.002-0.394
			c0.139,0.146,0.271,0.298,0.398,0.455l-0.158,0.236l-0.556-0.005l-0.035-0.116L17.73,7.085z M7.101,6.106V6.092h0.177l0.015-0.061
			h0.289v0.126L7.498,6.269H7.1L7.101,6.106L7.101,6.106z M7.383,6.5c0,0,0.176-0.03,0.191-0.03c0.015,0,0,0.176,0,0.176
			L7.176,6.671L7.1,6.581L7.383,6.5z M19.564,9.998H18.92l-0.395-0.292l-0.412,0.04v0.252h-0.131l-0.142-0.101l-0.717-0.182V9.252
			l-0.907,0.07l-0.281,0.151h-0.359L15.4,9.456l-0.438,0.243v0.457l-0.896,0.645l0.074,0.276h0.183l-0.048,0.262l-0.127,0.047
			l-0.008,0.686l0.772,0.88h0.336l0.021-0.054h0.605l0.174-0.162h0.344l0.188,0.188l0.511,0.054l-0.067,0.68l0.566,1.002
			l-0.298,0.57l0.021,0.27l0.234,0.234v0.646l0.311,0.416v0.537h0.267c-1.485,1.821-3.744,2.99-6.272,2.99
			c-4.459,0-8.087-3.628-8.087-8.088c0-1.122,0.23-2.192,0.646-3.165V8.818L4.7,8.467c0.1-0.189,0.208-0.374,0.323-0.554L5.036,8.06
			L4.7,8.467C4.596,8.663,4.499,8.864,4.411,9.07v0.461l0.336,0.161v0.64l0.322,0.55l0.262,0.041l0.034-0.188l-0.309-0.478
			l-0.06-0.464h0.181l0.076,0.478L5.7,10.923l-0.115,0.21l0.284,0.435l0.706,0.175v-0.114l0.282,0.041l-0.027,0.2l0.222,0.041
			l0.342,0.093l0.484,0.551l0.618,0.049l0.061,0.504l-0.423,0.295l-0.02,0.449l-0.061,0.276l0.612,0.767l0.046,0.263
			c0,0,0.222,0.06,0.249,0.06s0.498,0.356,0.498,0.356v1.385l0.168,0.047l-0.114,0.64l0.282,0.375l-0.052,0.633l0.373,0.656
			l0.479,0.418l0.481,0.01l0.047-0.154l-0.354-0.298l0.021-0.148l0.063-0.181l0.014-0.186l-0.239-0.008l-0.121-0.15l0.199-0.191
			l0.026-0.145l-0.222-0.063l0.013-0.135l0.316-0.048l0.48-0.23l0.161-0.296l0.505-0.646l-0.115-0.504l0.155-0.271l0.463,0.015
			l0.313-0.246l0.101-0.975l0.348-0.439l0.061-0.281l-0.315-0.102l-0.208-0.343l-0.712-0.007l-0.565-0.216l-0.026-0.402
			l-0.188-0.329l-0.511-0.008l-0.295-0.463l-0.262-0.129L10.21,12.3l-0.477,0.028l-0.175-0.243L9.06,11.983l-0.41,0.474
			l-0.645-0.108l-0.047-0.728l-0.47-0.081l0.189-0.356L7.623,10.98l-0.619,0.413l-0.389-0.048l-0.139-0.304l0.084-0.313l0.215-0.396
			l0.494-0.25h0.954l-0.002,0.29l0.343,0.16l-0.027-0.497l0.247-0.249l0.499-0.328l0.034-0.23L9.814,8.71l0.529-0.293l-0.047-0.038
			l0.358-0.337l0.132,0.035l0.06,0.075l0.137-0.151l0.033-0.015l-0.149-0.021l-0.151-0.051V7.77l0.08-0.065h0.177l0.081,0.036
			l0.069,0.141l0.086-0.013V7.856l0.024,0.008l0.248-0.038l0.035-0.121l0.142,0.036v0.131l-0.131,0.09l0,0l0.019,0.145l0.45,0.138
			c0,0,0,0.002,0,0.006L12.1,8.242l0.008-0.194L11.75,7.885l-0.021-0.094l0.296-0.101l0.013-0.283L11.729,7.22l-0.021-0.477
			l-0.423,0.208H11.13l0.041-0.363l-0.576-0.136l-0.239,0.18v0.549L9.928,7.318L9.756,7.676L9.57,7.706V7.248L9.167,7.192
			L8.966,7.061L8.884,6.764l0.721-0.422l0.353-0.107l0.036,0.237l0.196-0.01l0.015-0.119l0.206-0.029l0.003-0.042l-0.088-0.037
			l-0.02-0.126l0.253-0.021l0.152-0.159l0.008-0.012l0.002,0.001l0.047-0.048l0.531-0.067l0.234,0.199L10.917,6.33l0.784,0.185
			l0.102-0.262h0.342l0.121-0.229l-0.242-0.061V5.675l-0.759-0.336l-0.525,0.06l-0.295,0.154l0.02,0.376l-0.309-0.047l-0.047-0.208
			l0.296-0.269L9.867,5.379L9.712,5.426L9.646,5.607l0.202,0.034L9.807,5.843l-0.343,0.02L9.411,5.997L8.914,6.011
			c0,0-0.014-0.282-0.034-0.282s0.39-0.007,0.39-0.007l0.296-0.29l-0.162-0.08L9.189,5.561l-0.356-0.02L8.618,5.245H8.161
			L7.684,5.601h0.437l0.04,0.128L8.047,5.834l0.484,0.013l0.074,0.175L8.06,6.002L8.034,5.868L7.691,5.794L7.509,5.693L7.102,5.696
			c1.335-0.973,2.977-1.548,4.751-1.548c2.045,0,3.913,0.764,5.34,2.021L17.096,6.34l-0.373,0.146l-0.156,0.17l0.035,0.199
			l0.192,0.027l0.116,0.29l0.332-0.134l0.055,0.388h-0.1l-0.273-0.041l-0.302,0.051L16.33,7.851l-0.419,0.066L15.85,8.275
			l0.178,0.042l-0.053,0.229l-0.414-0.083L15.18,8.546L15.1,8.759l0.065,0.444l0.224,0.105l0.375-0.002l0.254-0.023l0.076-0.201
			l0.396-0.515l0.262,0.054l0.256-0.232l0.049,0.182l0.631,0.426L17.607,9.1l-0.282-0.016l0.108,0.155l0.174,0.039l0.207-0.086
			l-0.004-0.247l0.092-0.046l-0.074-0.077l-0.421-0.235l-0.11-0.313h0.35l0.112,0.111l0.302,0.26l0.014,0.314l0.313,0.333
			l0.116-0.456l0.218-0.118l0.039,0.373l0.211,0.231l0.422-0.007c0.082,0.21,0.155,0.423,0.219,0.641L19.564,9.998z M7.847,7.427
			l0.212-0.101L8.25,7.372L8.184,7.629L7.978,7.695L7.847,7.427z M8.97,8.032v0.166H8.487l-0.182-0.05L8.35,8.032l0.232-0.096H8.9
			v0.096H8.97z M9.193,8.264v0.162L9.072,8.503L8.921,8.531c0,0,0-0.242,0-0.268L9.193,8.264L9.193,8.264z M9.057,8.198V8.007
			l0.167,0.151L9.057,8.198z M9.132,8.586v0.157L9.017,8.859H8.76L8.8,8.683l0.122-0.01l0.025-0.061L9.132,8.586z M8.492,8.264
			h0.267L8.417,8.743L8.275,8.667l0.03-0.201L8.492,8.264z M9.586,8.531v0.156H9.329l-0.07-0.102V8.44h0.02L9.586,8.531z
			 M9.349,8.316l0.073-0.077l0.124,0.077l-0.1,0.081L9.349,8.316z M19.697,10.406l0.023-0.029c0.012,0.045,0.022,0.091,0.032,0.138
			L19.697,10.406z"/>
		<path fill="#2B2B2B" d="M4.411,8.818V9.07C4.499,8.865,4.596,8.664,4.7,8.467L4.411,8.818z"/>
	</g>
</g>
</svg>
