<?xml version="1.0" encoding="utf-8"?>
<!-- Generator: Adobe Illustrator 16.0.3, SVG Export Plug-In . SVG Version: 6.00 Build 0)  -->
<!DOCTYPE svg PUBLIC "-//W3C//DTD SVG 1.1//EN" "http://www.w3.org/Graphics/SVG/1.1/DTD/svg11.dtd">
<svg version="1.1" id="圖層_1" xmlns="http://www.w3.org/2000/svg" xmlns:xlink="http://www.w3.org/1999/xlink" x="0px" y="0px"
	 width="24px" height="24px" viewBox="0 0 24 24" enable-background="new 0 0 24 24" xml:space="preserve">
<g>
	<path fill="#2B2B2B" d="M19.195,20.459H4.83c-0.451,0-0.817-0.366-0.817-0.816V6.561c0-0.451,0.367-0.817,0.817-0.817h14.365
		c0.451,0,0.818,0.367,0.818,0.817v13.082C20.014,20.093,19.646,20.459,19.195,20.459z M5.181,19.291h13.665V6.912H5.181V19.291z"/>
</g>
<g>
	<g>
		<path fill="#2B2B2B" d="M8.489,17.531c0,0.109-0.089,0.197-0.199,0.197H6.702c-0.109,0-0.198-0.088-0.198-0.197v-1.59
			c0-0.108,0.089-0.197,0.198-0.197H8.29c0.11,0,0.199,0.089,0.199,0.197V17.531z"/>
	</g>
	<g>
		<path fill="#2B2B2B" d="M11.5,17.531c0,0.109-0.089,0.197-0.199,0.197H9.713c-0.109,0-0.198-0.088-0.198-0.197v-1.59
			c0-0.108,0.089-0.197,0.198-0.197h1.588c0.11,0,0.199,0.089,0.199,0.197V17.531z"/>
	</g>
	<g>
		<path fill="#2B2B2B" d="M14.512,17.531c0,0.109-0.09,0.197-0.199,0.197h-1.588c-0.108,0-0.197-0.088-0.197-0.197v-1.59
			c0-0.108,0.089-0.197,0.197-0.197h1.588c0.109,0,0.199,0.089,0.199,0.197V17.531z"/>
	</g>
	<g>
		<path fill="#2B2B2B" d="M17.523,17.531c0,0.109-0.09,0.197-0.199,0.197h-1.588c-0.109,0-0.199-0.088-0.199-0.197v-1.59
			c0-0.108,0.09-0.197,0.199-0.197h1.588c0.109,0,0.199,0.089,0.199,0.197V17.531z"/>
	</g>
	<g>
		<path fill="#2B2B2B" d="M8.489,14.67c0,0.109-0.089,0.198-0.199,0.198H6.702c-0.109,0-0.198-0.089-0.198-0.198v-1.589
			c0-0.108,0.089-0.198,0.198-0.198H8.29c0.11,0,0.199,0.09,0.199,0.198V14.67z"/>
	</g>
	<g>
		<path fill="#2B2B2B" d="M11.5,14.67c0,0.109-0.089,0.198-0.199,0.198H9.713c-0.109,0-0.198-0.089-0.198-0.198v-1.589
			c0-0.108,0.089-0.198,0.198-0.198h1.588c0.11,0,0.199,0.09,0.199,0.198V14.67z"/>
	</g>
	<g>
		<path fill="#2B2B2B" d="M14.512,14.67c0,0.109-0.09,0.198-0.199,0.198h-1.588c-0.108,0-0.197-0.089-0.197-0.198v-1.589
			c0-0.108,0.089-0.198,0.197-0.198h1.588c0.109,0,0.199,0.09,0.199,0.198V14.67z"/>
	</g>
	<g>
		<path fill="#2B2B2B" d="M17.523,14.67c0,0.109-0.09,0.198-0.199,0.198h-1.588c-0.109,0-0.199-0.089-0.199-0.198v-1.589
			c0-0.108,0.09-0.198,0.199-0.198h1.588c0.109,0,0.199,0.09,0.199,0.198V14.67z"/>
	</g>
	<g>
		<path fill="#2B2B2B" d="M11.5,11.75c0,0.109-0.089,0.198-0.199,0.198H9.713c-0.109,0-0.198-0.089-0.198-0.198v-1.589
			c0-0.109,0.089-0.198,0.198-0.198h1.588c0.11,0,0.199,0.089,0.199,0.198V11.75z"/>
	</g>
	<g>
		<path fill="#2B2B2B" d="M14.512,11.75c0,0.109-0.09,0.198-0.199,0.198h-1.588c-0.108,0-0.197-0.089-0.197-0.198v-1.589
			c0-0.109,0.089-0.198,0.197-0.198h1.588c0.109,0,0.199,0.089,0.199,0.198V11.75z"/>
	</g>
	<g>
		<path fill="#2B2B2B" d="M17.523,11.75c0,0.109-0.09,0.198-0.199,0.198h-1.588c-0.109,0-0.199-0.089-0.199-0.198v-1.589
			c0-0.109,0.09-0.198,0.199-0.198h1.588c0.109,0,0.199,0.089,0.199,0.198V11.75z"/>
	</g>
</g>
<g>
	<path fill="#2B2B2B" d="M8.762,7.627c0,0.484-0.392,0.876-0.876,0.876l0,0c-0.484,0-0.876-0.392-0.876-0.876V5.174
		c0-0.484,0.392-0.876,0.876-0.876l0,0c0.484,0,0.876,0.392,0.876,0.876V7.627z"/>
</g>
<g>
	<path fill="#2B2B2B" d="M12.792,7.627c0,0.484-0.393,0.876-0.876,0.876l0,0c-0.484,0-0.876-0.392-0.876-0.876V5.174
		c0-0.484,0.392-0.876,0.876-0.876l0,0c0.483,0,0.876,0.392,0.876,0.876V7.627z"/>
</g>
<g>
	<path fill="#2B2B2B" d="M16.82,7.627c0,0.484-0.394,0.876-0.875,0.876l0,0c-0.484,0-0.877-0.392-0.877-0.876V5.174
		c0-0.484,0.393-0.876,0.877-0.876l0,0c0.481,0,0.875,0.392,0.875,0.876V7.627z"/>
</g>
</svg>
