<?xml version="1.0" encoding="utf-8"?>
<!-- Generator: Adobe Illustrator 16.0.3, SVG Export Plug-In . SVG Version: 6.00 Build 0)  -->
<!DOCTYPE svg PUBLIC "-//W3C//DTD SVG 1.1//EN" "http://www.w3.org/Graphics/SVG/1.1/DTD/svg11.dtd">
<svg version="1.1" id="圖層_1" xmlns="http://www.w3.org/2000/svg" xmlns:xlink="http://www.w3.org/1999/xlink" x="0px" y="0px"
	 width="24px" height="24px" viewBox="0 0 24 24" enable-background="new 0 0 24 24" xml:space="preserve">
<path fill="#FFFFFF" d="M20.301,17.689c-0.134-0.932-1.265-0.532-1.265-0.532l-0.798,0.2c-0.133-0.801-1.465-0.2-1.465-0.2
	c-0.332-0.731-1.266-0.2-1.266-0.2l-1.66,0.732c0.797,0.064,1.063,1.297,1.063,1.297c0.175,0.771-0.086,1.601-0.838,1.906
	c-0.731,0.297-1.634,0.187-2.408,0.181c-0.741-0.007-1.536-0.082-2.158-0.522c-0.519-0.367-0.9-1.021-1.103-1.617
	c-0.023-0.068-0.042-0.352-0.08-0.396c0.979,1.134,2.377,1.797,3.87,1.747c0.747-0.025,2.28-0.012,2.118-1.149
	c-0.133-0.931-1.33-0.954-1.33-0.954c-1.064-0.133-1.997-0.607-1.997-0.607l-1.794-1.2c-2.396-1.663-5.722,0.472-5.722,0.472
	l-0.133,3.573l1.597-0.466c0.666-0.266,1.265,0.133,1.265,0.133c1.663,1.063,3.327,1.329,3.327,1.329
	c3.393,1.597,9.38-2.396,9.38-2.396C20.501,18.488,20.301,17.689,20.301,17.689z"/>
<g>
	<path fill="#FFFFFF" d="M12.572,17.051L12.572,17.051c-1.65,0-2.816-1.125-3.1-1.428c-0.668-0.369-1.437-0.561-2.286-0.57
		l-0.493-0.006v-9.94c0-0.386,0.314-0.698,0.699-0.698h9.928c0.388,0,0.699,0.313,0.699,0.698v10.125l-0.539-0.045
		c-0.121-0.011-0.241-0.017-0.355-0.017c-0.85,0-1.248,0.276-1.311,0.324C14.793,16.527,13.701,17.051,12.572,17.051z M7.692,14.079
		c0.857,0.073,1.644,0.313,2.345,0.717l0.075,0.043l0.057,0.065c0.01,0.011,1.009,1.147,2.404,1.147l0,0
		c0.858,0,1.716-0.428,2.55-1.274l0.02-0.019c0.062-0.058,0.645-0.558,1.883-0.585V5.406H7.692V14.079z"/>
</g>
<path fill="#FFFFFF" d="M10.736,8.217c0,0.136-0.111,0.248-0.248,0.248h-1.3c-0.137,0-0.248-0.111-0.248-0.248V6.916
	c0-0.136,0.111-0.248,0.248-0.248h1.301c0.137,0,0.248,0.112,0.248,0.248L10.736,8.217L10.736,8.217z"/>
<path fill="#FFFFFF" d="M13.206,8.217c0,0.136-0.11,0.248-0.247,0.248h-1.301c-0.136,0-0.248-0.112-0.248-0.248V6.916
	c0-0.136,0.111-0.248,0.248-0.248h1.301c0.137,0,0.247,0.112,0.247,0.248V8.217z"/>
<path fill="#FFFFFF" d="M15.676,8.217c0,0.136-0.111,0.248-0.244,0.248h-1.303c-0.139,0-0.249-0.112-0.249-0.248V6.916
	c0-0.136,0.11-0.248,0.249-0.248h1.301c0.135,0,0.245,0.112,0.245,0.248L15.676,8.217L15.676,8.217z"/>
<path fill="#FFFFFF" d="M10.736,10.613c0,0.137-0.111,0.248-0.248,0.248h-1.3c-0.137,0-0.248-0.111-0.248-0.248V9.312
	c0-0.137,0.111-0.248,0.248-0.248h1.301c0.137,0,0.248,0.111,0.248,0.248L10.736,10.613L10.736,10.613z"/>
<path fill="#FFFFFF" d="M13.206,10.613c0,0.137-0.11,0.248-0.247,0.248h-1.301c-0.136,0-0.248-0.111-0.248-0.248V9.312
	c0-0.137,0.111-0.248,0.248-0.248h1.301c0.137,0,0.247,0.111,0.247,0.248V10.613z"/>
<path fill="#FFFFFF" d="M15.676,10.613c0,0.137-0.111,0.248-0.244,0.248h-1.303c-0.139,0-0.249-0.111-0.249-0.248V9.312
	c0-0.137,0.11-0.248,0.249-0.248h1.301c0.135,0,0.245,0.111,0.245,0.248L15.676,10.613L15.676,10.613z"/>
<path fill="#FFFFFF" d="M10.736,13.008c0,0.139-0.111,0.248-0.248,0.248h-1.3c-0.137,0-0.248-0.109-0.248-0.248v-1.301
	c0-0.137,0.111-0.249,0.248-0.249h1.301c0.137,0,0.248,0.112,0.248,0.249L10.736,13.008L10.736,13.008z"/>
<path fill="#FFFFFF" d="M13.206,13.008c0,0.139-0.11,0.248-0.247,0.248h-1.301c-0.136,0-0.248-0.109-0.248-0.248v-1.301
	c0-0.137,0.111-0.249,0.248-0.249h1.301c0.137,0,0.247,0.112,0.247,0.249V13.008z"/>
<path fill="#FFFFFF" d="M15.676,13.008c0,0.139-0.111,0.248-0.244,0.248h-1.303c-0.139,0-0.249-0.109-0.249-0.248v-1.301
	c0-0.137,0.11-0.249,0.249-0.249h1.301c0.135,0,0.245,0.112,0.245,0.249L15.676,13.008L15.676,13.008z"/>
</svg>
