<?xml version="1.0" encoding="utf-8"?>
<!-- Generator: Adobe Illustrator 16.0.3, SVG Export Plug-In . SVG Version: 6.00 Build 0)  -->
<!DOCTYPE svg PUBLIC "-//W3C//DTD SVG 1.1//EN" "http://www.w3.org/Graphics/SVG/1.1/DTD/svg11.dtd">
<svg version="1.1" id="圖層_1" xmlns="http://www.w3.org/2000/svg" xmlns:xlink="http://www.w3.org/1999/xlink" x="0px" y="0px"
	 width="24px" height="24px" viewBox="0 0 24 24" enable-background="new 0 0 24 24" xml:space="preserve">
<path fill-rule="evenodd" clip-rule="evenodd" fill="#FFFFFF" d="M8.396,17.525c-0.128,0.779,0.298,1.905-0.969,1.908
	c-1.266,0.003-0.851-1.122-0.969-1.906c-0.329-0.017-0.649-0.033-1.034-0.053c-0.009-0.189-0.026-0.372-0.026-0.555
	c-0.002-1.887-0.085-3.779,0.023-5.66c0.101-1.74,0.394-3.47,0.633-5.2c0.088-0.639,0.542-1.038,1.11-1.276
	c2.058-0.86,4.2-1.164,6.403-0.803c0.949,0.155,1.889,0.418,2.808,0.712c0.842,0.27,1.252,0.888,1.414,1.799
	c0.641,3.622,0.6,7.269,0.53,10.984c-0.164,0.008-0.328,0.018-0.494,0.021c-0.154,0.003-0.31,0.001-0.56,0.001
	c0,0.344,0.009,0.664-0.002,0.983c-0.019,0.607-0.356,0.966-0.912,0.981c-0.563,0.016-0.94-0.365-0.964-0.989
	c-0.012-0.308-0.002-0.616-0.002-0.949C13.028,17.525,10.731,17.525,8.396,17.525z M11.846,11.424c1.54,0,3.08,0.002,4.62,0
	c0.672-0.002,0.816-0.148,0.73-0.8c-0.144-1.097-0.3-2.192-0.466-3.287c-0.093-0.608-0.268-0.749-0.906-0.75
	c-2.63-0.004-5.26-0.004-7.89,0C7.28,6.588,7.106,6.745,7.016,7.381c-0.148,1.044-0.292,2.089-0.438,3.134
	c-0.109,0.779,0.002,0.909,0.805,0.909C8.87,11.425,10.358,11.424,11.846,11.424z M11.849,5.813c0.831,0,1.661-0.001,2.491,0
	c0.289,0,0.594,0.002,0.588-0.398c-0.006-0.365-0.288-0.369-0.562-0.368c-1.66,0.002-3.321,0.004-4.981-0.002
	c-0.284,0-0.559,0.028-0.565,0.372C8.813,5.8,9.114,5.816,9.411,5.814C10.224,5.809,11.036,5.813,11.849,5.813z M7.473,13.658
	c-0.504-0.022-0.919,0.334-0.956,0.819C6.48,14.976,6.885,15.413,7.4,15.431c0.493,0.018,0.901-0.361,0.92-0.853
	C8.341,14.078,7.975,13.681,7.473,13.658z M16.329,13.658c-0.511,0-0.896,0.369-0.902,0.867c-0.007,0.51,0.408,0.916,0.926,0.905
	c0.496-0.01,0.873-0.399,0.869-0.9C17.218,14.026,16.842,13.658,16.329,13.658z"/>
</svg>
