<?xml version="1.0" encoding="utf-8"?>
<!-- Generator: Adobe Illustrator 16.0.3, SVG Export Plug-In . SVG Version: 6.00 Build 0)  -->
<!DOCTYPE svg PUBLIC "-//W3C//DTD SVG 1.1//EN" "http://www.w3.org/Graphics/SVG/1.1/DTD/svg11.dtd">
<svg version="1.1" id="圖層_1" xmlns="http://www.w3.org/2000/svg" xmlns:xlink="http://www.w3.org/1999/xlink" x="0px" y="0px"
	 width="24px" height="24px" viewBox="0 0 24 24" enable-background="new 0 0 24 24" xml:space="preserve">
<g>
	<path fill="#FFFFFF" d="M15.738,22.855c-2.924,0-5.302-2.379-5.302-5.303s2.378-5.302,5.302-5.302c2.923,0,5.301,2.378,5.301,5.302
		S18.661,22.855,15.738,22.855z M15.738,13.479c-2.247,0-4.076,1.828-4.076,4.076c0,2.246,1.829,4.073,4.076,4.073
		c2.246,0,4.074-1.827,4.074-4.073C19.813,15.307,17.986,13.479,15.738,13.479z"/>
</g>
<g>
	<path fill="#FFFFFF" d="M12.294,19.913H5.042c-0.473,0-0.857-0.386-0.857-0.856V4.775c0-0.473,0.385-0.857,0.857-0.857h10.849
		c0.473,0,0.857,0.384,0.857,0.857v8.776l-0.664-0.059c-0.128-0.01-0.241-0.016-0.348-0.016c-2.246,0-4.075,1.828-4.075,4.075
		c0,0.523,0.099,1.034,0.293,1.519L12.294,19.913z M5.411,18.688h5.148c-0.081-0.371-0.123-0.75-0.123-1.135
		c0-2.853,2.263-5.185,5.087-5.298V5.144H5.411V18.688z"/>
</g>
<g>
	<path fill="#FFFFFF" d="M11.896,7.018c1.511,0,0.027,0.009,1.538-0.004c0.48-0.003,0.84,0.161,0.828,0.667
		c-0.012,0.475-0.377,0.614-0.822,0.612c-3.042-0.006-3.09-0.004-6.133-0.001c-0.43,0-0.803-0.088-0.818-0.603
		C6.472,7.149,6.83,7.013,7.302,7.016C8.833,7.023,10.363,7.018,11.896,7.018z"/>
</g>
<g>
	<path fill="#FFFFFF" d="M11.896,9.776c1.511,0,0.027,0.008,1.538-0.005c0.48-0.004,0.84,0.16,0.828,0.666
		c-0.011,0.475-0.376,0.613-0.822,0.613c-3.042-0.007-3.089-0.004-6.132-0.001c-0.43,0-0.803-0.088-0.818-0.603
		C6.472,9.906,6.83,9.771,7.302,9.773C8.833,9.781,10.363,9.776,11.896,9.776z"/>
</g>
<g>
	<path fill="#FFFFFF" d="M11.896,12.596c1.511,0.002,0.027,0.008,1.538-0.004c0.48-0.003,0.84,0.16,0.828,0.666
		c-0.012,0.475-0.377,0.614-0.822,0.612c-3.042-0.006-3.09-0.004-6.133,0c-0.43,0-0.803-0.089-0.818-0.604
		c-0.017-0.539,0.341-0.674,0.813-0.672C8.833,12.6,10.363,12.596,11.896,12.596z"/>
</g>
<g>
	<rect x="14.941" y="16.85" fill="#FFFFFF" width="1.408" height="3.801"/>
</g>
<g>
	<circle fill="#FFFFFF" cx="15.646" cy="15.5" r="0.857"/>
</g>
</svg>
