<?xml version="1.0" encoding="utf-8"?>
<!-- Generator: Adobe Illustrator 16.0.3, SVG Export Plug-In . SVG Version: 6.00 Build 0)  -->
<!DOCTYPE svg PUBLIC "-//W3C//DTD SVG 1.1//EN" "http://www.w3.org/Graphics/SVG/1.1/DTD/svg11.dtd">
<svg version="1.1" id="圖層_1" xmlns="http://www.w3.org/2000/svg" xmlns:xlink="http://www.w3.org/1999/xlink" x="0px" y="0px"
	 width="24px" height="24px" viewBox="0 0 24 24" enable-background="new 0 0 24 24" xml:space="preserve">
<g>
	<g>
		<g>
			<g>
				<path fill="#FFFFFF" d="M4.423,11.613c-0.158,0.471-0.316,0.928-0.464,1.364c-0.148,0.434-0.287,0.84-0.405,1.186
					c-0.119,0.35-0.217,0.633-0.287,0.832c-0.041,0.117-0.071,0.205-0.089,0.258v-0.197c0.019-0.061,0.046-0.15,0.083-0.27
					c0.068-0.223,0.166-0.545,0.284-0.924c0.117-0.379,0.254-0.822,0.401-1.297c0.147-0.471,0.304-0.983,0.46-1.481
					c0.314-1,0.628-2,0.863-2.75c0.214-0.675,0.363-1.146,0.389-1.227v0.83C5.603,8.102,5.469,8.501,5.292,9.035
					C5.055,9.738,4.739,10.675,4.423,11.613z"/>
				<path fill="#FFFFFF" d="M4.421,12.947c-0.158,0.377-0.315,0.742-0.464,1.092c-0.148,0.346-0.286,0.67-0.405,0.947
					c-0.118,0.279-0.217,0.504-0.287,0.664c-0.04,0.092-0.07,0.162-0.088,0.203v-0.191c0.019-0.049,0.047-0.125,0.083-0.223
					c0.068-0.184,0.167-0.449,0.284-0.756c0.118-0.311,0.255-0.672,0.402-1.061c0.147-0.387,0.304-0.805,0.461-1.21
					c0.314-0.815,0.628-1.63,0.864-2.242c0.208-0.535,0.355-0.912,0.386-0.992V9.99c-0.054,0.13-0.188,0.455-0.369,0.889
					C5.052,11.443,4.737,12.195,4.421,12.947z"/>
				<path fill="#FFFFFF" d="M4.419,14.281c-0.158,0.285-0.315,0.557-0.464,0.818c-0.147,0.26-0.286,0.504-0.404,0.711
					c-0.119,0.209-0.217,0.375-0.287,0.496c-0.04,0.066-0.069,0.119-0.088,0.15v-0.189c0.019-0.039,0.047-0.098,0.084-0.176
					c0.068-0.141,0.167-0.35,0.284-0.588c0.118-0.24,0.255-0.521,0.402-0.822c0.147-0.301,0.304-0.627,0.461-0.939
					c0.314-0.631,0.628-1.261,0.864-1.734c0.204-0.402,0.349-0.688,0.385-0.759v0.798c-0.052,0.095-0.188,0.343-0.371,0.677
					C5.05,13.148,4.735,13.715,4.419,14.281z"/>
				<path fill="#FFFFFF" d="M4.418,15.615c-0.158,0.193-0.315,0.371-0.463,0.547c-0.148,0.172-0.286,0.334-0.404,0.473
					c-0.118,0.139-0.217,0.248-0.286,0.326c-0.04,0.045-0.069,0.078-0.087,0.1v-0.189c0.019-0.027,0.047-0.07,0.084-0.125
					c0.069-0.102,0.167-0.252,0.284-0.422c0.118-0.172,0.256-0.371,0.403-0.586c0.147-0.213,0.305-0.447,0.462-0.668
					c0.315-0.445,0.629-0.891,0.865-1.225c0.2-0.275,0.343-0.475,0.382-0.529v0.791c-0.05,0.063-0.188,0.23-0.373,0.461
					C5.048,14.854,4.733,15.234,4.418,15.615z"/>
				<path fill="#FFFFFF" d="M4.416,16.949c-0.157,0.102-0.315,0.188-0.463,0.273c-0.147,0.086-0.286,0.166-0.403,0.236
					c-0.119,0.07-0.217,0.119-0.286,0.158c-0.039,0.02-0.068,0.037-0.086,0.047v-0.188c0.019-0.018,0.047-0.043,0.085-0.076
					c0.068-0.063,0.167-0.154,0.285-0.256c0.118-0.102,0.255-0.221,0.403-0.348s0.305-0.27,0.462-0.396
					c0.314-0.26,0.629-0.521,0.865-0.717c0.196-0.156,0.338-0.27,0.38-0.303v0.789c-0.049,0.031-0.187,0.121-0.375,0.242
					C5.047,16.559,4.731,16.754,4.416,16.949z"/>
				<path fill="#FFFFFF" d="M3.263,18.053c0.069-0.021,0.167-0.057,0.285-0.086c0.118-0.033,0.256-0.072,0.403-0.113
					c0.147-0.039,0.305-0.088,0.462-0.125c0.315-0.074,0.629-0.15,0.865-0.207c0.193-0.039,0.333-0.068,0.378-0.078v0.826
					c-0.046,0.002-2.462,0-2.48,0V18.08C3.196,18.074,3.225,18.064,3.263,18.053z"/>
			</g>
			<g>
				<path fill="#FFFFFF" d="M16.863,12.977c0.809,0.434,1.563,0.84,2.211,1.186c0.646,0.35,1.187,0.633,1.564,0.832
					c0.221,0.117,0.386,0.205,0.485,0.258v-0.197c-0.101-0.061-0.252-0.15-0.449-0.27c-0.374-0.223-0.907-0.545-1.549-0.924
					c-0.641-0.379-1.389-0.822-2.19-1.297c-0.168-0.098-0.339-0.199-0.511-0.3l-0.043,0.453
					C16.544,12.805,16.705,12.891,16.863,12.977z"/>
				<path fill="#FFFFFF" d="M16.87,14.039c0.809,0.346,1.563,0.67,2.208,0.947c0.646,0.279,1.187,0.504,1.563,0.664
					c0.219,0.092,0.383,0.162,0.482,0.203v-0.191c-0.101-0.049-0.254-0.125-0.452-0.223c-0.375-0.184-0.908-0.449-1.551-0.756
					c-0.642-0.311-1.391-0.672-2.193-1.061c-0.198-0.096-0.4-0.193-0.605-0.293l-0.043,0.455
					C16.479,13.869,16.676,13.955,16.87,14.039z"/>
				<path fill="#FFFFFF" d="M5.658,9.179V9.99c0.316,0.122,1.078,0.416,2.104,0.811l0.001-0.759
					C6.627,9.576,5.838,9.252,5.658,9.179z"/>
				<path fill="#FFFFFF" d="M5.658,11.249v0.798c0.305,0.089,1.066,0.311,2.098,0.613l0.002-0.749
					C6.645,11.561,5.863,11.314,5.658,11.249z"/>
				<path fill="#FFFFFF" d="M16.877,15.1c0.808,0.26,1.561,0.504,2.207,0.711c0.646,0.209,1.185,0.375,1.562,0.496
					c0.216,0.066,0.379,0.119,0.479,0.15v-0.189c-0.101-0.039-0.255-0.098-0.456-0.176c-0.374-0.141-0.909-0.35-1.552-0.588
					c-0.643-0.24-1.392-0.521-2.194-0.822c-0.23-0.086-0.466-0.174-0.704-0.264l-0.043,0.455
					C16.412,14.949,16.647,15.025,16.877,15.1z"/>
				<path fill="#FFFFFF" d="M5.658,13.316v0.791c0.293,0.057,1.055,0.207,2.093,0.414l0.002-0.74
					C6.66,13.539,5.884,13.367,5.658,13.316z"/>
				<path fill="#FFFFFF" d="M16.884,16.162c0.807,0.172,1.56,0.334,2.205,0.473s1.184,0.248,1.561,0.326
					c0.213,0.045,0.375,0.078,0.475,0.1v-0.189c-0.101-0.027-0.256-0.07-0.46-0.125c-0.375-0.102-0.91-0.252-1.553-0.422
					c-0.643-0.172-1.393-0.371-2.196-0.586c-0.263-0.068-0.531-0.141-0.804-0.215l-0.044,0.463
					C16.344,16.045,16.617,16.104,16.884,16.162z"/>
				<path fill="#FFFFFF" d="M16.891,17.223c0.807,0.086,1.559,0.166,2.203,0.236s1.183,0.119,1.559,0.158
					c0.211,0.02,0.372,0.037,0.472,0.047v-0.188c-0.101-0.018-0.258-0.043-0.463-0.076c-0.375-0.063-0.911-0.154-1.555-0.256
					s-1.395-0.221-2.198-0.348c-0.296-0.047-0.598-0.096-0.905-0.145l-0.045,0.473C16.274,17.158,16.587,17.189,16.891,17.223z"/>
				<path fill="#FFFFFF" d="M5.658,15.381v0.789c0.281,0.029,1.043,0.107,2.088,0.217l0.002-0.74
					C6.671,15.51,5.902,15.412,5.658,15.381z"/>
				<path fill="#FFFFFF" d="M5.658,17.443v0.826c0.065,0,0.871,0,2.083,0l0.002-0.756C6.683,17.477,5.917,17.451,5.658,17.443z"/>
				<path fill="#FFFFFF" d="M21.124,18.27V18.08c-0.101-0.006-0.259-0.016-0.467-0.027c-0.375-0.021-0.912-0.057-1.557-0.086
					c-0.644-0.033-1.395-0.072-2.199-0.113c-0.329-0.016-0.666-0.033-1.009-0.051l-0.045,0.467
					C18.644,18.27,21.081,18.27,21.124,18.27z"/>
			</g>
			<g>
				<g>
					<path fill="#FFFFFF" d="M8.101,8.983C8.226,8.944,8.379,8.9,8.554,8.854c0.116-0.03,0.243-0.062,0.378-0.093
						c-0.294-0.15-0.577-0.294-0.841-0.428C6.752,7.658,5.819,7.188,5.658,7.106v0.83c0.346,0.166,1.18,0.565,2.293,1.099
						C7.956,9.037,7.961,9.04,7.967,9.042L7.965,9.028C8.01,9.013,8.056,8.998,8.101,8.983z"/>
					<path fill="#FFFFFF" d="M16.316,10.12c-0.043-0.167-0.145-0.344-0.289-0.493c-0.145-0.15-0.329-0.273-0.536-0.38
						c-0.102-0.052-0.214-0.103-0.327-0.146c-0.116-0.045-0.233-0.083-0.352-0.123c-0.241-0.08-0.499-0.149-0.768-0.215
						c-0.068-0.017-0.138-0.032-0.206-0.046c-0.069-0.015-0.14-0.031-0.21-0.043c-0.139-0.023-0.277-0.052-0.416-0.071
						c-0.285-0.045-0.575-0.076-0.867-0.097c-0.291-0.02-0.583-0.034-0.87-0.03c-0.287,0-0.57,0.013-0.843,0.033
						c-0.547,0.043-1.056,0.12-1.489,0.207C9.071,8.73,9.001,8.746,8.932,8.761C8.797,8.792,8.67,8.824,8.554,8.854
						C8.379,8.9,8.226,8.944,8.101,8.983C8.056,8.998,8.01,9.013,7.965,9.028l0.001,0.014L8.042,9.83
						c0.212-0.079,0.427-0.149,0.642-0.212c0.167-0.049,0.356-0.1,0.563-0.151c0.415-0.104,0.903-0.203,1.43-0.271
						c0.263-0.037,0.536-0.065,0.813-0.084c0.278-0.02,0.561-0.029,0.844-0.031c0.15,0.001,0.299,0.004,0.449,0.008
						c0.404,0.012,0.81,0.049,1.212,0.106c0.371,0.053,0.743,0.122,1.109,0.213c0.113,0.028,0.216,0.06,0.317,0.097
						c0.1,0.037,0.193,0.08,0.281,0.126c0.086,0.048,0.164,0.099,0.234,0.154c0.14,0.112,0.239,0.248,0.288,0.381
						s0.052,0.256,0.045,0.335c-0.004,0.04-0.011,0.07-0.015,0.09c-0.002,0.009-0.004,0.021-0.008,0.029
						c0.001,0.003,0.01,0.007,0.012,0.008c0.01,0.006,0.02,0.013,0.03,0.02c0,0,0.006-0.012,0.013-0.034
						c0.008-0.021,0.019-0.054,0.027-0.099C16.349,10.429,16.361,10.287,16.316,10.12z"/>
				</g>
				<path fill="#FFFFFF" d="M15.396,18.346c0,0,0.002-0.045,0.002-0.051c-0.175-0.027-0.352-0.053-0.527-0.08
					c-0.355-0.053-0.711-0.1-1.067-0.146c-0.396-0.053-0.793-0.102-1.188-0.15c-0.409-0.051-0.818-0.098-1.227-0.143
					c-0.404-0.045-0.808-0.086-1.212-0.119c-0.385-0.033-0.771-0.066-1.156-0.092c-0.079-0.006-0.158-0.01-0.237-0.016l0.075,0.797
					C8.872,18.346,15.387,18.346,15.396,18.346z"/>
				<path fill="#FFFFFF" d="M13.36,11.002c0.781,0.091,1.462,0.191,1.89,0.366c0.741,0.301,0.81,0.644,0.822,0.807l0.045,0.005
					c0,0,0.029-0.31-0.277-0.642c-0.298-0.323-0.803-0.586-1.738-0.828c-3.072-0.797-5.748-0.061-5.975,0.005l0.075,0.783
					C8.456,11.426,11.015,10.728,13.36,11.002z"/>
				<path fill="#FFFFFF" d="M12.943,12.855c0.742,0.059,1.413,0.127,1.93,0.279c0.68,0.199,0.902,0.41,1.022,0.59l0.043-0.008
					c0,0-0.02-0.16-0.343-0.438c-0.295-0.252-0.928-0.535-1.699-0.715c-0.963-0.222-1.847-0.342-2.671-0.37
					c-1.621-0.054-2.824,0.192-2.937,0.216l0.075,0.783C8.57,13.145,10.631,12.674,12.943,12.855z"/>
				<path fill="#FFFFFF" d="M13.334,14.748c1.833,0.131,2.39,0.531,2.39,0.531l0.033-0.045c0,0-0.405-0.389-1.521-0.705
					c-2.667-0.754-5.513-0.459-5.786-0.428l0.074,0.773C8.724,14.842,10.612,14.555,13.334,14.748z"/>
				<path fill="#FFFFFF" d="M13.16,16.588c1.805,0.094,2.396,0.23,2.396,0.23l0.016-0.053c0,0-0.973-0.43-3.487-0.762
					c-1.624-0.213-3.313-0.193-3.47-0.191L8.689,16.6C8.878,16.588,10.872,16.467,13.16,16.588z"/>
			</g>
		</g>
	</g>
</g>
</svg>
