<?xml version="1.0" encoding="utf-8"?>
<!-- Generator: Adobe Illustrator 16.0.3, SVG Export Plug-In . SVG Version: 6.00 Build 0)  -->
<!DOCTYPE svg PUBLIC "-//W3C//DTD SVG 1.1//EN" "http://www.w3.org/Graphics/SVG/1.1/DTD/svg11.dtd">
<svg version="1.1" id="圖層_1" xmlns="http://www.w3.org/2000/svg" xmlns:xlink="http://www.w3.org/1999/xlink" x="0px" y="0px"
	 width="24px" height="24px" viewBox="0 0 24 24" enable-background="new 0 0 24 24" xml:space="preserve">
<g>
	<path fill="#FFFFFF" d="M9.835,19.755c-2.172,0-4.829-6.823-4.829-10.195c0-2.662,2.166-4.828,4.829-4.828
		c2.662,0,4.828,2.166,4.828,4.828L15.2,9.562l0.534-0.002c0-3.259-2.641-5.901-5.899-5.901S3.934,6.301,3.934,9.561
		c0,3.259,2.642,11.268,5.901,11.268c0.856,0,1.67-0.556,2.404-1.433c-0.293-0.192-0.566-0.416-0.816-0.664
		C10.895,19.368,10.352,19.755,9.835,19.755z"/>
	<path fill="#FFFFFF" d="M8.896,18.482c0.106,0.121,0.254,0.182,0.401,0.182c0.126,0,0.254-0.044,0.355-0.135
		c0.223-0.197,0.243-0.535,0.045-0.758c-0.667-0.752-1.493-2.612-2.044-4.104c-0.102-0.278-0.412-0.42-0.689-0.319
		c-0.276,0.103-0.419,0.412-0.316,0.69C7.014,15.023,7.96,17.428,8.896,18.482z"/>
	<path fill="#FFFFFF" d="M9.835,13.316c-2.074,0-3.756-1.682-3.756-3.756c0-2.074,1.681-3.755,3.756-3.755
		c2.074,0,3.756,1.68,3.756,3.755h-1.073c0-1.479-1.203-2.683-2.683-2.683S7.152,8.081,7.152,9.561s1.204,2.683,2.683,2.683V13.316z
		"/>
	<path fill="#FFFFFF" d="M18.586,17.555c0.564-0.727,0.905-1.639,0.905-2.628c0-2.366-1.925-4.292-4.291-4.292
		s-4.292,1.926-4.292,4.292s1.926,4.292,4.292,4.292c0.989,0,1.899-0.342,2.626-0.906l2.359,2.359
		c0.104,0.104,0.241,0.156,0.379,0.156c0.137,0,0.273-0.053,0.379-0.156c0.209-0.211,0.209-0.551,0-0.759L18.586,17.555z
		 M15.2,18.146c-1.776,0-3.22-1.444-3.22-3.22c0-1.774,1.443-3.218,3.22-3.218c1.774,0,3.219,1.443,3.219,3.218
		C18.419,16.702,16.975,18.146,15.2,18.146z"/>
	<path fill="#FFFFFF" d="M15.2,12.244c-1.479,0-2.683,1.205-2.683,2.683c0,0.298,0.238,0.535,0.535,0.535s0.537-0.237,0.537-0.535
		c0-0.888,0.723-1.608,1.61-1.608c0.295,0,0.534-0.24,0.534-0.537C15.734,12.485,15.495,12.244,15.2,12.244z"/>
</g>
</svg>
