<?xml version="1.0" encoding="utf-8"?>
<!-- Generator: Adobe Illustrator 16.0.3, SVG Export Plug-In . SVG Version: 6.00 Build 0)  -->
<!DOCTYPE svg PUBLIC "-//W3C//DTD SVG 1.1//EN" "http://www.w3.org/Graphics/SVG/1.1/DTD/svg11.dtd">
<svg version="1.1" id="圖層_1" xmlns="http://www.w3.org/2000/svg" xmlns:xlink="http://www.w3.org/1999/xlink" x="0px" y="0px"
	 width="368.667px" height="154px" viewBox="0 0 368.667 154" enable-background="new 0 0 368.667 154" xml:space="preserve">
<polygon fill="#FFFFFF" stroke="#5374BC" stroke-width="0.5" stroke-miterlimit="10" points="61.255,31.946 156.913,6.356 
	351.578,22.807 351.578,24.33 318.675,31.946 330.556,42.913 343.351,42.913 343.351,85.867 161.787,104.146 65.521,80.079 
	65.521,46.873 75.269,45.654 72.527,42.608 71.004,40.78 75.574,38.039 77.706,36.515 "/>
<polyline fill="none" stroke="#5374BC" stroke-width="0.5" stroke-miterlimit="10" points="348.835,24.634 156.913,8.488 
	63.388,32.859 "/>
<polyline fill="none" stroke="#5374BC" stroke-width="0.5" stroke-miterlimit="10" points="75.269,45.654 160.264,39.562 
	330.556,42.913 "/>
<line fill="none" stroke="#5374BC" stroke-width="0.5" stroke-miterlimit="10" x1="161.076" y1="39.46" x2="161.787" y2="104.146"/>
<line fill="none" stroke="#5374BC" stroke-width="0.5" stroke-miterlimit="10" x1="158.943" y1="39.46" x2="159.654" y2="104.146"/>
<polygon fill="none" stroke="#5374BC" stroke-width="0.5" stroke-miterlimit="10" points="163.31,41.694 196.414,41.897 
	197.43,98.967 163.919,102.014 "/>
<line fill="none" stroke="#5374BC" stroke-width="0.5" stroke-miterlimit="10" x1="136.908" y1="41.085" x2="136.908" y2="97.951"/>
<line fill="none" stroke="#5374BC" stroke-width="0.5" stroke-miterlimit="10" x1="133.658" y1="41.694" x2="133.658" y2="97.342"/>
<line fill="none" stroke="#5374BC" stroke-width="0.5" stroke-miterlimit="10" x1="118.223" y1="42.913" x2="118.223" y2="92.874"/>
<line fill="none" stroke="#5374BC" stroke-width="0.5" stroke-miterlimit="10" x1="115.583" y1="42.913" x2="115.583" y2="92.874"/>
<line fill="none" stroke="#5374BC" stroke-width="0.5" stroke-miterlimit="10" x1="103.195" y1="43.928" x2="103.195" y2="89.827"/>
<line fill="none" stroke="#5374BC" stroke-width="0.5" stroke-miterlimit="10" x1="100.961" y1="43.928" x2="100.961" y2="88.813"/>
<line fill="none" stroke="#5374BC" stroke-width="0.5" stroke-miterlimit="10" x1="91.415" y1="44.538" x2="91.415" y2="86.375"/>
<line fill="none" stroke="#5374BC" stroke-width="0.5" stroke-miterlimit="10" x1="89.384" y1="44.741" x2="89.384" y2="85.766"/>
<line fill="none" stroke="#5374BC" stroke-width="0.5" stroke-miterlimit="10" x1="81.463" y1="45.351" x2="81.463" y2="83.734"/>
<line fill="none" stroke="#5374BC" stroke-width="0.5" stroke-miterlimit="10" x1="79.636" y1="45.554" x2="79.636" y2="83.328"/>
<line fill="none" stroke="#5374BC" stroke-width="0.5" stroke-miterlimit="10" x1="73.137" y1="45.96" x2="73.137" y2="82.109"/>
<line fill="none" stroke="#5374BC" stroke-width="0.5" stroke-miterlimit="10" x1="71.512" y1="45.96" x2="71.512" y2="81.501"/>
<line fill="none" stroke="#5374BC" stroke-width="0.5" stroke-miterlimit="10" x1="157.014" y1="40.069" x2="157.014" y2="103.027"/>
<polyline fill="none" stroke="#5374BC" stroke-width="0.5" stroke-miterlimit="10" points="157.826,8.59 167.575,24.634 
	133.049,14.886 145.235,27.478 115.177,19.557 127.565,31.133 100.96,23.213 113.146,32.961 89.993,26.259 100.351,33.977 
	80.448,28.696 89.993,35.805 72.934,30.727 81.667,37.226 77.706,36.515 "/>
<polyline fill="none" stroke="#5374BC" stroke-width="0.5" stroke-miterlimit="10" points="180.776,10.621 201.289,15.495 
	219.77,13.871 "/>
<polyline fill="none" stroke="#5374BC" stroke-width="0.5" stroke-miterlimit="10" points="309.537,21.182 301.82,24.025 
	344.265,24.025 "/>
<polyline fill="none" stroke="#5374BC" stroke-width="0.5" stroke-miterlimit="10" points="201.289,15.495 229.112,27.681 
	273.589,18.542 "/>
<polyline fill="none" stroke="#5374BC" stroke-width="0.5" stroke-miterlimit="10" points="250.03,23.619 278.667,30.118 
	301.007,24.025 318.675,31.946 "/>
<line fill="none" stroke="#5374BC" stroke-width="0.5" stroke-miterlimit="10" x1="276.636" y1="18.745" x2="278.667" y2="30.118"/>
<polyline fill="none" stroke="#5374BC" stroke-width="0.5" stroke-miterlimit="10" points="202.71,40.476 229.112,27.681 
	234.596,14.886 "/>
<polyline fill="none" stroke="#5374BC" stroke-width="0.5" stroke-miterlimit="10" points="163.31,8.996 201.085,16.308 
	172.348,39.765 "/>
<line fill="none" stroke="#5374BC" stroke-width="0.5" stroke-miterlimit="10" x1="203.117" y1="16.308" x2="226.269" y2="14.276"/>
<polyline fill="none" stroke="#5374BC" stroke-width="0.5" stroke-miterlimit="10" points="181.385,32.352 167.575,24.634 
	199.867,16.713 202.305,20.37 203.726,30.118 "/>
<g>
	
		<line fill="none" stroke="#5374BC" stroke-width="0.5" stroke-miterlimit="10" x1="136.908" y1="43.928" x2="157.217" y2="42.404"/>
	
		<line fill="none" stroke="#5374BC" stroke-width="0.5" stroke-miterlimit="10" x1="136.908" y1="46.771" x2="157.217" y2="45.248"/>
	
		<line fill="none" stroke="#5374BC" stroke-width="0.5" stroke-miterlimit="10" x1="136.908" y1="49.412" x2="157.217" y2="47.888"/>
	
		<line fill="none" stroke="#5374BC" stroke-width="0.5" stroke-miterlimit="10" x1="136.908" y1="52.255" x2="157.217" y2="50.731"/>
	<line fill="none" stroke="#5374BC" stroke-width="0.5" stroke-miterlimit="10" x1="137.23" y1="54.844" x2="156.811" y2="53.88"/>
	<line fill="none" stroke="#5374BC" stroke-width="0.5" stroke-miterlimit="10" x1="137.01" y1="57.23" x2="156.811" y2="56.926"/>
	<line fill="none" stroke="#5374BC" stroke-width="0.5" stroke-miterlimit="10" x1="137.23" y1="59.516" x2="156.811" y2="59.567"/>
	<line fill="none" stroke="#5374BC" stroke-width="0.5" stroke-miterlimit="10" x1="137.23" y1="61.953" x2="156.811" y2="62.004"/>
	<line fill="none" stroke="#5374BC" stroke-width="0.5" stroke-miterlimit="10" x1="137.23" y1="64.593" x2="156.811" y2="64.948"/>
	<line fill="none" stroke="#5374BC" stroke-width="0.5" stroke-miterlimit="10" x1="137.23" y1="67.081" x2="156.811" y2="67.893"/>
	<line fill="none" stroke="#5374BC" stroke-width="0.5" stroke-miterlimit="10" x1="137.23" y1="69.721" x2="156.811" y2="71.143"/>
	<line fill="none" stroke="#5374BC" stroke-width="0.5" stroke-miterlimit="10" x1="137.23" y1="71.955" x2="156.811" y2="73.783"/>
	<line fill="none" stroke="#5374BC" stroke-width="0.5" stroke-miterlimit="10" x1="137.23" y1="74.443" x2="156.811" y2="77.032"/>
	<line fill="none" stroke="#5374BC" stroke-width="0.5" stroke-miterlimit="10" x1="137.23" y1="77.083" x2="156.811" y2="80.281"/>
	<line fill="none" stroke="#5374BC" stroke-width="0.5" stroke-miterlimit="10" x1="137.23" y1="80.079" x2="156.811" y2="83.227"/>
	<line fill="none" stroke="#5374BC" stroke-width="0.5" stroke-miterlimit="10" x1="137.23" y1="82.721" x2="156.811" y2="85.969"/>
	
		<line fill="none" stroke="#5374BC" stroke-width="0.5" stroke-miterlimit="10" x1="136.764" y1="85.014" x2="156.811" y2="88.607"/>
	<line fill="none" stroke="#5374BC" stroke-width="0.5" stroke-miterlimit="10" x1="137.23" y1="88" x2="156.811" y2="91.857"/>
	<line fill="none" stroke="#5374BC" stroke-width="0.5" stroke-miterlimit="10" x1="137.23" y1="90.641" x2="156.811" y2="94.499"/>
	<line fill="none" stroke="#5374BC" stroke-width="0.5" stroke-miterlimit="10" x1="137.23" y1="93.077" x2="156.811" y2="97.443"/>
	
		<line fill="none" stroke="#5374BC" stroke-width="0.5" stroke-miterlimit="10" x1="137.23" y1="95.717" x2="156.811" y2="100.389"/>
</g>
<g>
	
		<line fill="none" stroke="#5374BC" stroke-width="0.5" stroke-miterlimit="10" x1="118.307" y1="45.553" x2="133.501" y2="44.538"/>
	<line fill="none" stroke="#5374BC" stroke-width="0.5" stroke-miterlimit="10" x1="118.307" y1="48.396" x2="133.501" y2="47.38"/>
	
		<line fill="none" stroke="#5374BC" stroke-width="0.5" stroke-miterlimit="10" x1="118.307" y1="51.037" x2="133.501" y2="50.021"/>
	
		<line fill="none" stroke="#5374BC" stroke-width="0.5" stroke-miterlimit="10" x1="118.307" y1="53.473" x2="133.501" y2="52.762"/>
	
		<line fill="none" stroke="#5374BC" stroke-width="0.5" stroke-miterlimit="10" x1="118.556" y1="56.012" x2="133.506" y2="55.352"/>
	
		<line fill="none" stroke="#5374BC" stroke-width="0.5" stroke-miterlimit="10" x1="118.364" y1="58.691" x2="133.658" y2="58.551"/>
	
		<line fill="none" stroke="#5374BC" stroke-width="0.5" stroke-miterlimit="10" x1="118.556" y1="61.141" x2="133.658" y2="61.191"/>
	
		<line fill="none" stroke="#5374BC" stroke-width="0.5" stroke-miterlimit="10" x1="118.556" y1="63.578" x2="133.658" y2="63.629"/>
	
		<line fill="none" stroke="#5374BC" stroke-width="0.5" stroke-miterlimit="10" x1="118.556" y1="66.218" x2="133.658" y2="66.674"/>
	
		<line fill="none" stroke="#5374BC" stroke-width="0.5" stroke-miterlimit="10" x1="118.556" y1="68.706" x2="133.658" y2="69.518"/>
	
		<line fill="none" stroke="#5374BC" stroke-width="0.5" stroke-miterlimit="10" x1="118.224" y1="71.041" x2="133.658" y2="72.361"/>
	<line fill="none" stroke="#5374BC" stroke-width="0.5" stroke-miterlimit="10" x1="118.556" y1="73.58" x2="133.456" y2="74.9"/>
	
		<line fill="none" stroke="#5374BC" stroke-width="0.5" stroke-miterlimit="10" x1="118.556" y1="76.068" x2="133.557" y2="77.438"/>
	
		<line fill="none" stroke="#5374BC" stroke-width="0.5" stroke-miterlimit="10" x1="118.556" y1="78.708" x2="133.456" y2="80.384"/>
	<line fill="none" stroke="#5374BC" stroke-width="0.5" stroke-miterlimit="10" x1="118.556" y1="81.096" x2="133.658" y2="82.82"/>
	<line fill="none" stroke="#5374BC" stroke-width="0.5" stroke-miterlimit="10" x1="118.353" y1="83.023" x2="133.456" y2="85.46"/>
	
		<line fill="none" stroke="#5374BC" stroke-width="0.5" stroke-miterlimit="10" x1="118.325" y1="86.982" x2="133.862" y2="90.232"/>
	
		<line fill="none" stroke="#5374BC" stroke-width="0.5" stroke-miterlimit="10" x1="118.325" y1="84.953" x2="133.862" y2="88.203"/>
	
		<line fill="none" stroke="#5374BC" stroke-width="0.5" stroke-miterlimit="10" x1="118.021" y1="89.218" x2="133.658" y2="92.266"/>
	
		<line fill="none" stroke="#5374BC" stroke-width="0.5" stroke-miterlimit="10" x1="118.426" y1="91.249" x2="133.658" y2="94.701"/>
</g>
<g>
	<line fill="none" stroke="#5374BC" stroke-width="0.5" stroke-miterlimit="10" x1="103.194" y1="46.161" x2="115.458" y2="45.35"/>
	<line fill="none" stroke="#5374BC" stroke-width="0.5" stroke-miterlimit="10" x1="103.296" y1="48.64" x2="115.458" y2="47.989"/>
	
		<line fill="none" stroke="#5374BC" stroke-width="0.5" stroke-miterlimit="10" x1="103.278" y1="51.036" x2="115.458" y2="50.731"/>
	
		<line fill="none" stroke="#5374BC" stroke-width="0.5" stroke-miterlimit="10" x1="103.278" y1="53.473" x2="115.458" y2="53.574"/>
	
		<line fill="none" stroke="#5374BC" stroke-width="0.5" stroke-miterlimit="10" x1="103.296" y1="56.215" x2="115.583" y2="56.012"/>
	
		<line fill="none" stroke="#5374BC" stroke-width="0.5" stroke-miterlimit="10" x1="103.478" y1="58.296" x2="115.583" y2="58.348"/>
	
		<line fill="none" stroke="#5374BC" stroke-width="0.5" stroke-miterlimit="10" x1="103.478" y1="60.938" x2="115.583" y2="60.989"/>
	
		<line fill="none" stroke="#5374BC" stroke-width="0.5" stroke-miterlimit="10" x1="103.478" y1="63.272" x2="115.583" y2="63.324"/>
	<line fill="none" stroke="#5374BC" stroke-width="0.5" stroke-miterlimit="10" x1="103.26" y1="65.188" x2="115.583" y2="65.862"/>
	
		<line fill="none" stroke="#5374BC" stroke-width="0.5" stroke-miterlimit="10" x1="103.478" y1="67.283" x2="115.583" y2="68.197"/>
	
		<line fill="none" stroke="#5374BC" stroke-width="0.5" stroke-miterlimit="10" x1="103.478" y1="69.314" x2="115.279" y2="70.431"/>
	<line fill="none" stroke="#5374BC" stroke-width="0.5" stroke-miterlimit="10" x1="103.478" y1="71.549" x2="115.583" y2="72.97"/>
	
		<line fill="none" stroke="#5374BC" stroke-width="0.5" stroke-miterlimit="10" x1="103.478" y1="73.783" x2="115.583" y2="75.611"/>
	<line fill="none" stroke="#5374BC" stroke-width="0.5" stroke-miterlimit="10" x1="103.478" y1="76.271" x2="115.583" y2="78.25"/>
	
		<line fill="none" stroke="#5374BC" stroke-width="0.5" stroke-miterlimit="10" x1="103.478" y1="78.453" x2="115.583" y2="80.586"/>
	
		<line fill="none" stroke="#5374BC" stroke-width="0.5" stroke-miterlimit="10" x1="103.195" y1="80.078" x2="115.329" y2="82.668"/>
	
		<line fill="none" stroke="#5374BC" stroke-width="0.5" stroke-miterlimit="10" x1="103.195" y1="81.805" x2="115.583" y2="84.646"/>
	
		<line fill="none" stroke="#5374BC" stroke-width="0.5" stroke-miterlimit="10" x1="103.448" y1="83.836" x2="115.583" y2="86.374"/>
	
		<line fill="none" stroke="#5374BC" stroke-width="0.5" stroke-miterlimit="10" x1="103.478" y1="85.563" x2="115.583" y2="88.404"/>
	
		<line fill="none" stroke="#5374BC" stroke-width="0.5" stroke-miterlimit="10" x1="103.478" y1="87.593" x2="115.583" y2="90.438"/>
</g>
<g>
	<line fill="none" stroke="#5374BC" stroke-width="0.5" stroke-miterlimit="10" x1="91.313" y1="46.873" x2="100.659" y2="46.06"/>
	<line fill="none" stroke="#5374BC" stroke-width="0.5" stroke-miterlimit="10" x1="91.415" y1="48.7" x2="100.659" y2="48.091"/>
	<line fill="none" stroke="#5374BC" stroke-width="0.5" stroke-miterlimit="10" x1="91.669" y1="50.477" x2="100.659" y2="49.919"/>
	<line fill="none" stroke="#5374BC" stroke-width="0.5" stroke-miterlimit="10" x1="91.669" y1="52" x2="100.659" y2="51.442"/>
	<line fill="none" stroke="#5374BC" stroke-width="0.5" stroke-miterlimit="10" x1="91.415" y1="54.082" x2="100.859" y2="53.676"/>
	<line fill="none" stroke="#5374BC" stroke-width="0.5" stroke-miterlimit="10" x1="91.517" y1="56.418" x2="100.859" y2="56.214"/>
	<line fill="none" stroke="#5374BC" stroke-width="0.5" stroke-miterlimit="10" x1="91.25" y1="58.905" x2="100.758" y2="58.956"/>
	<line fill="none" stroke="#5374BC" stroke-width="0.5" stroke-miterlimit="10" x1="91.25" y1="63.222" x2="100.96" y2="63.729"/>
	<line fill="none" stroke="#5374BC" stroke-width="0.5" stroke-miterlimit="10" x1="91.25" y1="60.886" x2="100.96" y2="61.292"/>
	<line fill="none" stroke="#5374BC" stroke-width="0.5" stroke-miterlimit="10" x1="91.713" y1="65.652" x2="100.758" y2="66.572"/>
	<line fill="none" stroke="#5374BC" stroke-width="0.5" stroke-miterlimit="10" x1="91.25" y1="67.689" x2="100.758" y2="68.705"/>
	<line fill="none" stroke="#5374BC" stroke-width="0.5" stroke-miterlimit="10" x1="91.25" y1="69.924" x2="100.758" y2="71.244"/>
	<line fill="none" stroke="#5374BC" stroke-width="0.5" stroke-miterlimit="10" x1="91.25" y1="72.564" x2="100.758" y2="73.985"/>
	<line fill="none" stroke="#5374BC" stroke-width="0.5" stroke-miterlimit="10" x1="91.25" y1="74.494" x2="100.758" y2="76.321"/>
	<line fill="none" stroke="#5374BC" stroke-width="0.5" stroke-miterlimit="10" x1="91.25" y1="76.626" x2="100.758" y2="78.454"/>
	<line fill="none" stroke="#5374BC" stroke-width="0.5" stroke-miterlimit="10" x1="91.212" y1="78.251" x2="100.808" y2="80.688"/>
	<line fill="none" stroke="#5374BC" stroke-width="0.5" stroke-miterlimit="10" x1="91.313" y1="80.281" x2="100.758" y2="82.413"/>
	<line fill="none" stroke="#5374BC" stroke-width="0.5" stroke-miterlimit="10" x1="91.25" y1="82.313" x2="100.758" y2="84.952"/>
	<line fill="none" stroke="#5374BC" stroke-width="0.5" stroke-miterlimit="10" x1="91.25" y1="84.242" x2="100.758" y2="86.883"/>
</g>
<g>
	<line fill="none" stroke="#5374BC" stroke-width="0.5" stroke-miterlimit="10" x1="81.311" y1="47.33" x2="89.101" y2="46.568"/>
	<line fill="none" stroke="#5374BC" stroke-width="0.5" stroke-miterlimit="10" x1="81.409" y1="49.31" x2="89.203" y2="48.7"/>
	<line fill="none" stroke="#5374BC" stroke-width="0.5" stroke-miterlimit="10" x1="81.307" y1="51.036" x2="89.101" y2="50.833"/>
	<line fill="none" stroke="#5374BC" stroke-width="0.5" stroke-miterlimit="10" x1="81.463" y1="52.863" x2="89.101" y2="52.762"/>
	<line fill="none" stroke="#5374BC" stroke-width="0.5" stroke-miterlimit="10" x1="81.307" y1="54.997" x2="89.181" y2="54.691"/>
	<line fill="none" stroke="#5374BC" stroke-width="0.5" stroke-miterlimit="10" x1="81.463" y1="57.027" x2="89.384" y2="56.723"/>
	<line fill="none" stroke="#5374BC" stroke-width="0.5" stroke-miterlimit="10" x1="81.435" y1="58.753" x2="89.181" y2="59.058"/>
	<line fill="none" stroke="#5374BC" stroke-width="0.5" stroke-miterlimit="10" x1="81.435" y1="60.479" x2="89.181" y2="60.784"/>
	<line fill="none" stroke="#5374BC" stroke-width="0.5" stroke-miterlimit="10" x1="81.463" y1="62.612" x2="89.181" y2="63.222"/>
	<line fill="none" stroke="#5374BC" stroke-width="0.5" stroke-miterlimit="10" x1="81.435" y1="66.37" x2="89.181" y2="67.182"/>
	<line fill="none" stroke="#5374BC" stroke-width="0.5" stroke-miterlimit="10" x1="81.435" y1="64.441" x2="89.181" y2="65.253"/>
	<line fill="none" stroke="#5374BC" stroke-width="0.5" stroke-miterlimit="10" x1="81.463" y1="67.994" x2="89.181" y2="69.112"/>
	<line fill="none" stroke="#5374BC" stroke-width="0.5" stroke-miterlimit="10" x1="81.435" y1="69.518" x2="89.181" y2="70.837"/>
	<line fill="none" stroke="#5374BC" stroke-width="0.5" stroke-miterlimit="10" x1="81.435" y1="71.143" x2="89.181" y2="72.462"/>
	<line fill="none" stroke="#5374BC" stroke-width="0.5" stroke-miterlimit="10" x1="81.435" y1="72.97" x2="89.181" y2="74.392"/>
	<line fill="none" stroke="#5374BC" stroke-width="0.5" stroke-miterlimit="10" x1="81.362" y1="74.696" x2="89.181" y2="76.321"/>
	<line fill="none" stroke="#5374BC" stroke-width="0.5" stroke-miterlimit="10" x1="81.362" y1="76.524" x2="89.181" y2="78.251"/>
	<line fill="none" stroke="#5374BC" stroke-width="0.5" stroke-miterlimit="10" x1="81.26" y1="77.844" x2="89.181" y2="79.672"/>
	<line fill="none" stroke="#5374BC" stroke-width="0.5" stroke-miterlimit="10" x1="81.362" y1="80.281" x2="89.181" y2="82.008"/>
	<line fill="none" stroke="#5374BC" stroke-width="0.5" stroke-miterlimit="10" x1="81.463" y1="82.211" x2="89.384" y2="84.242"/>
</g>
<g>
	<line fill="none" stroke="#5374BC" stroke-width="0.5" stroke-miterlimit="10" x1="73.009" y1="47.787" x2="79.483" y2="47.381"/>
	<line fill="none" stroke="#5374BC" stroke-width="0.5" stroke-miterlimit="10" x1="73.009" y1="49.615" x2="79.599" y2="49.411"/>
	<line fill="none" stroke="#5374BC" stroke-width="0.5" stroke-miterlimit="10" x1="73.009" y1="51.239" x2="79.599" y2="51.036"/>
	<line fill="none" stroke="#5374BC" stroke-width="0.5" stroke-miterlimit="10" x1="73.137" y1="55.085" x2="79.599" y2="55.199"/>
	<line fill="none" stroke="#5374BC" stroke-width="0.5" stroke-miterlimit="10" x1="73.009" y1="53.067" x2="79.599" y2="52.965"/>
	<line fill="none" stroke="#5374BC" stroke-width="0.5" stroke-miterlimit="10" x1="73.117" y1="57.129" x2="79.534" y2="57.23"/>
	<line fill="none" stroke="#5374BC" stroke-width="0.5" stroke-miterlimit="10" x1="73.117" y1="60.684" x2="79.534" y2="61.089"/>
	<line fill="none" stroke="#5374BC" stroke-width="0.5" stroke-miterlimit="10" x1="73.117" y1="59.059" x2="79.433" y2="59.058"/>
	<line fill="none" stroke="#5374BC" stroke-width="0.5" stroke-miterlimit="10" x1="73.34" y1="62.409" x2="79.667" y2="62.917"/>
	<line fill="none" stroke="#5374BC" stroke-width="0.5" stroke-miterlimit="10" x1="73.117" y1="64.136" x2="79.667" y2="64.948"/>
	<line fill="none" stroke="#5374BC" stroke-width="0.5" stroke-miterlimit="10" x1="73.141" y1="68.4" x2="79.667" y2="69.009"/>
	<line fill="none" stroke="#5374BC" stroke-width="0.5" stroke-miterlimit="10" x1="73.117" y1="70.33" x2="79.667" y2="71.142"/>
	<line fill="none" stroke="#5374BC" stroke-width="0.5" stroke-miterlimit="10" x1="73.117" y1="72.259" x2="79.296" y2="73.31"/>
	<line fill="none" stroke="#5374BC" stroke-width="0.5" stroke-miterlimit="10" x1="73.117" y1="74.188" x2="79.296" y2="75.238"/>
	<line fill="none" stroke="#5374BC" stroke-width="0.5" stroke-miterlimit="10" x1="73.137" y1="76.016" x2="79.667" y2="77.438"/>
	<line fill="none" stroke="#5374BC" stroke-width="0.5" stroke-miterlimit="10" x1="73.238" y1="77.945" x2="79.667" y2="79.266"/>
	<line fill="none" stroke="#5374BC" stroke-width="0.5" stroke-miterlimit="10" x1="72.934" y1="79.773" x2="79.332" y2="81.297"/>
	<line fill="none" stroke="#5374BC" stroke-width="0.5" stroke-miterlimit="10" x1="73.141" y1="66.472" x2="79.667" y2="67.08"/>
</g>
<g>
	<line fill="none" stroke="#5374BC" stroke-width="0.5" stroke-miterlimit="10" x1="65.47" y1="48.396" x2="71.563" y2="47.787"/>
	<line fill="none" stroke="#5374BC" stroke-width="0.5" stroke-miterlimit="10" x1="65.759" y1="49.884" x2="71.281" y2="49.41"/>
	<line fill="none" stroke="#5374BC" stroke-width="0.5" stroke-miterlimit="10" x1="65.759" y1="51.508" x2="71.281" y2="51.239"/>
	<line fill="none" stroke="#5374BC" stroke-width="0.5" stroke-miterlimit="10" x1="65.49" y1="53.168" x2="71.281" y2="52.965"/>
	<line fill="none" stroke="#5374BC" stroke-width="0.5" stroke-miterlimit="10" x1="65.724" y1="56.52" x2="71.535" y2="56.671"/>
	<line fill="none" stroke="#5374BC" stroke-width="0.5" stroke-miterlimit="10" x1="65.584" y1="58.347" x2="71.34" y2="58.753"/>
	<line fill="none" stroke="#5374BC" stroke-width="0.5" stroke-miterlimit="10" x1="65.724" y1="61.698" x2="71.645" y2="62.002"/>
	<line fill="none" stroke="#5374BC" stroke-width="0.5" stroke-miterlimit="10" x1="65.826" y1="60.378" x2="71.34" y2="60.581"/>
	<line fill="none" stroke="#5374BC" stroke-width="0.5" stroke-miterlimit="10" x1="65.606" y1="63.12" x2="71.309" y2="63.627"/>
	<line fill="none" stroke="#5374BC" stroke-width="0.5" stroke-miterlimit="10" x1="65.584" y1="66.471" x2="71.579" y2="67.044"/>
	<line fill="none" stroke="#5374BC" stroke-width="0.5" stroke-miterlimit="10" x1="65.584" y1="64.542" x2="71.34" y2="65.354"/>
	<line fill="none" stroke="#5374BC" stroke-width="0.5" stroke-miterlimit="10" x1="65.606" y1="69.314" x2="71.34" y2="69.923"/>
	<line fill="none" stroke="#5374BC" stroke-width="0.5" stroke-miterlimit="10" x1="65.606" y1="67.893" x2="71.34" y2="68.502"/>
	<line fill="none" stroke="#5374BC" stroke-width="0.5" stroke-miterlimit="10" x1="65.584" y1="72.36" x2="71.34" y2="73.172"/>
	<line fill="none" stroke="#5374BC" stroke-width="0.5" stroke-miterlimit="10" x1="65.584" y1="70.938" x2="71.34" y2="71.75"/>
	<line fill="none" stroke="#5374BC" stroke-width="0.5" stroke-miterlimit="10" x1="65.584" y1="75.407" x2="71.34" y2="76.422"/>
	<line fill="none" stroke="#5374BC" stroke-width="0.5" stroke-miterlimit="10" x1="65.584" y1="76.93" x2="71.34" y2="77.945"/>
	<line fill="none" stroke="#5374BC" stroke-width="0.5" stroke-miterlimit="10" x1="65.584" y1="73.782" x2="71.34" y2="74.696"/>
	<line fill="none" stroke="#5374BC" stroke-width="0.5" stroke-miterlimit="10" x1="65.267" y1="78.505" x2="71.188" y2="79.672"/>
	<line fill="none" stroke="#5374BC" stroke-width="0.5" stroke-miterlimit="10" x1="65.622" y1="54.996" x2="71.281" y2="54.995"/>
</g>
<line fill="none" stroke="#5374BC" stroke-width="0.5" stroke-miterlimit="10" x1="139.751" y1="12.855" x2="161.279" y2="13.667"/>
<line fill="none" stroke="#5374BC" stroke-width="0.5" stroke-miterlimit="10" x1="165.138" y1="20.167" x2="136.299" y2="13.667"/>
<line fill="none" stroke="#5374BC" stroke-width="0.5" stroke-miterlimit="10" x1="120.66" y1="17.729" x2="136.299" y2="18.542"/>
<line fill="none" stroke="#5374BC" stroke-width="0.5" stroke-miterlimit="10" x1="106.647" y1="21.588" x2="117.208" y2="21.588"/>
<line fill="none" stroke="#5374BC" stroke-width="0.5" stroke-miterlimit="10" x1="95.274" y1="24.634" x2="102.585" y2="24.634"/>
<line fill="none" stroke="#5374BC" stroke-width="0.5" stroke-miterlimit="10" x1="118.426" y1="18.948" x2="142.594" y2="24.634"/>
<line fill="none" stroke="#5374BC" stroke-width="0.5" stroke-miterlimit="10" x1="104.007" y1="21.994" x2="123.707" y2="27.274"/>
<line fill="none" stroke="#5374BC" stroke-width="0.5" stroke-miterlimit="10" x1="91.517" y1="25.548" x2="110.861" y2="30.879"/>
<line fill="none" stroke="#5374BC" stroke-width="0.5" stroke-miterlimit="10" x1="82.885" y1="27.681" x2="97.102" y2="31.54"/>
<line fill="none" stroke="#5374BC" stroke-width="0.5" stroke-miterlimit="10" x1="74.152" y1="29.915" x2="86.947" y2="33.164"/>
<line fill="none" stroke="#5374BC" stroke-width="0.5" stroke-miterlimit="10" x1="67.044" y1="32.352" x2="79.026" y2="35.195"/>
<line fill="none" stroke="#5374BC" stroke-width="0.5" stroke-miterlimit="10" x1="198.242" y1="40.476" x2="199.257" y2="99.982"/>
<line fill="none" stroke="#5374BC" stroke-width="0.5" stroke-miterlimit="10" x1="323.55" y1="42.913" x2="323.55" y2="87.188"/>
<line fill="none" stroke="#5374BC" stroke-width="0.5" stroke-miterlimit="10" x1="325.378" y1="42.913" x2="325.378" y2="87.188"/>
<line fill="none" stroke="#5374BC" stroke-width="0.5" stroke-miterlimit="10" x1="327.613" y1="42.913" x2="327.613" y2="87.188"/>
<g>
	<line fill="none" stroke="#5374BC" stroke-width="0.5" stroke-miterlimit="10" x1="163.513" y1="43.116" x2="196.21" y2="43.522"/>
	<line fill="none" stroke="#5374BC" stroke-width="0.5" stroke-miterlimit="10" x1="163.513" y1="45.756" x2="196.21" y2="46.163"/>
	<line fill="none" stroke="#5374BC" stroke-width="0.5" stroke-miterlimit="10" x1="163.513" y1="48.397" x2="196.21" y2="48.803"/>
	<line fill="none" stroke="#5374BC" stroke-width="0.5" stroke-miterlimit="10" x1="163.513" y1="51.037" x2="196.21" y2="51.444"/>
	<line fill="none" stroke="#5374BC" stroke-width="0.5" stroke-miterlimit="10" x1="163.513" y1="53.678" x2="196.21" y2="54.084"/>
	<line fill="none" stroke="#5374BC" stroke-width="0.5" stroke-miterlimit="10" x1="163.513" y1="56.318" x2="196.21" y2="56.725"/>
	<line fill="none" stroke="#5374BC" stroke-width="0.5" stroke-miterlimit="10" x1="163.513" y1="58.959" x2="196.82" y2="58.754"/>
	<line fill="none" stroke="#5374BC" stroke-width="0.5" stroke-miterlimit="10" x1="163.513" y1="61.6" x2="196.82" y2="61.8"/>
	<line fill="none" stroke="#5374BC" stroke-width="0.5" stroke-miterlimit="10" x1="163.513" y1="64.24" x2="196.82" y2="64.644"/>
	
		<line fill="none" stroke="#5374BC" stroke-width="0.5" stroke-miterlimit="10" x1="163.513" y1="66.881" x2="196.617" y2="66.877"/>
	
		<line fill="none" stroke="#5374BC" stroke-width="0.5" stroke-miterlimit="10" x1="163.513" y1="69.521" x2="196.617" y2="69.721"/>
	
		<line fill="none" stroke="#5374BC" stroke-width="0.5" stroke-miterlimit="10" x1="163.513" y1="72.162" x2="196.617" y2="72.361"/>
	<line fill="none" stroke="#5374BC" stroke-width="0.5" stroke-miterlimit="10" x1="163.513" y1="74.803" x2="196.82" y2="75.205"/>
	<line fill="none" stroke="#5374BC" stroke-width="0.5" stroke-miterlimit="10" x1="163.716" y1="78.048" x2="196.82" y2="77.438"/>
	<line fill="none" stroke="#5374BC" stroke-width="0.5" stroke-miterlimit="10" x1="163.919" y1="80.688" x2="196.82" y2="80.281"/>
	
		<line fill="none" stroke="#5374BC" stroke-width="0.5" stroke-miterlimit="10" x1="163.513" y1="83.334" x2="197.227" y2="82.922"/>
	<line fill="none" stroke="#5374BC" stroke-width="0.5" stroke-miterlimit="10" x1="163.919" y1="85.969" x2="196.82" y2="85.969"/>
	
		<line fill="none" stroke="#5374BC" stroke-width="0.5" stroke-miterlimit="10" x1="163.919" y1="88.813" x2="197.023" y2="88.404"/>
	
		<line fill="none" stroke="#5374BC" stroke-width="0.5" stroke-miterlimit="10" x1="163.919" y1="91.857" x2="197.023" y2="90.843"/>
	
		<line fill="none" stroke="#5374BC" stroke-width="0.5" stroke-miterlimit="10" x1="164.123" y1="94.701" x2="197.023" y2="93.076"/>
	
		<line fill="none" stroke="#5374BC" stroke-width="0.5" stroke-miterlimit="10" x1="164.123" y1="97.545" x2="197.227" y2="95.717"/>
	
		<line fill="none" stroke="#5374BC" stroke-width="0.5" stroke-miterlimit="10" x1="163.919" y1="100.186" x2="197.227" y2="97.545"/>
</g>
<line fill="none" stroke="#5374BC" stroke-width="0.5" stroke-miterlimit="10" x1="327.613" y1="44.74" x2="343.046" y2="45.35"/>
<line fill="none" stroke="#5374BC" stroke-width="0.5" stroke-miterlimit="10" x1="327.613" y1="46.568" x2="343.046" y2="47.178"/>
<line fill="none" stroke="#5374BC" stroke-width="0.5" stroke-miterlimit="10" x1="327.613" y1="48.396" x2="343.046" y2="49.005"/>
<line fill="none" stroke="#5374BC" stroke-width="0.5" stroke-miterlimit="10" x1="327.613" y1="50.224" x2="343.046" y2="50.833"/>
<line fill="none" stroke="#5374BC" stroke-width="0.5" stroke-miterlimit="10" x1="327.613" y1="52.052" x2="343.046" y2="52.661"/>
<line fill="none" stroke="#5374BC" stroke-width="0.5" stroke-miterlimit="10" x1="327.613" y1="53.88" x2="343.046" y2="54.489"/>
<line fill="none" stroke="#5374BC" stroke-width="0.5" stroke-miterlimit="10" x1="327.613" y1="55.708" x2="343.046" y2="56.317"/>
<line fill="none" stroke="#5374BC" stroke-width="0.5" stroke-miterlimit="10" x1="327.613" y1="57.535" x2="343.046" y2="58.145"/>
<line fill="none" stroke="#5374BC" stroke-width="0.5" stroke-miterlimit="10" x1="327.613" y1="59.363" x2="343.046" y2="59.973"/>
<line fill="none" stroke="#5374BC" stroke-width="0.5" stroke-miterlimit="10" x1="327.613" y1="61.191" x2="343.046" y2="61.8"/>
<line fill="none" stroke="#5374BC" stroke-width="0.5" stroke-miterlimit="10" x1="327.613" y1="63.019" x2="343.046" y2="63.628"/>
<line fill="none" stroke="#5374BC" stroke-width="0.5" stroke-miterlimit="10" x1="327.613" y1="64.847" x2="343.046" y2="65.456"/>
<line fill="none" stroke="#5374BC" stroke-width="0.5" stroke-miterlimit="10" x1="327.613" y1="66.674" x2="343.046" y2="67.284"/>
<line fill="none" stroke="#5374BC" stroke-width="0.5" stroke-miterlimit="10" x1="327.613" y1="68.502" x2="343.046" y2="69.112"/>
<line fill="none" stroke="#5374BC" stroke-width="0.5" stroke-miterlimit="10" x1="327.613" y1="70.33" x2="343.046" y2="70.939"/>
<line fill="none" stroke="#5374BC" stroke-width="0.5" stroke-miterlimit="10" x1="327.613" y1="72.158" x2="343.046" y2="72.767"/>
<line fill="none" stroke="#5374BC" stroke-width="0.5" stroke-miterlimit="10" x1="327.613" y1="73.986" x2="343.046" y2="74.595"/>
<line fill="none" stroke="#5374BC" stroke-width="0.5" stroke-miterlimit="10" x1="327.613" y1="75.813" x2="343.046" y2="76.423"/>
<line fill="none" stroke="#5374BC" stroke-width="0.5" stroke-miterlimit="10" x1="327.613" y1="77.643" x2="343.046" y2="78.251"/>
<line fill="none" stroke="#5374BC" stroke-width="0.5" stroke-miterlimit="10" x1="327.613" y1="79.471" x2="343.046" y2="80.079"/>
<line fill="none" stroke="#5374BC" stroke-width="0.5" stroke-miterlimit="10" x1="327.613" y1="81.297" x2="343.046" y2="81.906"/>
<line fill="none" stroke="#5374BC" stroke-width="0.5" stroke-miterlimit="10" x1="327.613" y1="83.125" x2="343.046" y2="83.734"/>
<line fill="none" stroke="#5374BC" stroke-width="0.5" stroke-miterlimit="10" x1="327.613" y1="84.953" x2="343.046" y2="85.563"/>
<line fill="none" stroke="#5374BC" stroke-width="0.5" stroke-miterlimit="10" x1="198.445" y1="46.162" x2="323.144" y2="47.178"/>
<line fill="none" stroke="#5374BC" stroke-width="0.5" stroke-miterlimit="10" x1="198.445" y1="55.301" x2="323.144" y2="54.489"/>
<line fill="none" stroke="#5374BC" stroke-width="0.5" stroke-miterlimit="10" x1="198.445" y1="57.738" x2="323.144" y2="56.926"/>
<line fill="none" stroke="#5374BC" stroke-width="0.5" stroke-miterlimit="10" x1="198.445" y1="67.08" x2="323.144" y2="64.237"/>
<line fill="none" stroke="#5374BC" stroke-width="0.5" stroke-miterlimit="10" x1="198.445" y1="69.518" x2="323.144" y2="66.674"/>
<line fill="none" stroke="#5374BC" stroke-width="0.5" stroke-miterlimit="10" x1="198.445" y1="79.875" x2="323.144" y2="73.58"/>
<line fill="none" stroke="#5374BC" stroke-width="0.5" stroke-miterlimit="10" x1="198.445" y1="82.313" x2="323.144" y2="76.017"/>
<line fill="none" stroke="#5374BC" stroke-width="0.5" stroke-miterlimit="10" x1="224.238" y1="97.951" x2="224.238" y2="86.374"/>
<line fill="none" stroke="#5374BC" stroke-width="0.5" stroke-miterlimit="10" x1="226.472" y1="97.342" x2="226.472" y2="87.085"/>
<line fill="none" stroke="#5374BC" stroke-width="0.5" stroke-miterlimit="10" x1="247.593" y1="95.107" x2="247.593" y2="85.46"/>
<line fill="none" stroke="#5374BC" stroke-width="0.5" stroke-miterlimit="10" x1="249.828" y1="95.107" x2="249.828" y2="85.357"/>
<line fill="none" stroke="#5374BC" stroke-width="0.5" stroke-miterlimit="10" x1="272.574" y1="92.671" x2="272.574" y2="83.633"/>
<line fill="none" stroke="#5374BC" stroke-width="0.5" stroke-miterlimit="10" x1="274.808" y1="92.671" x2="274.808" y2="83.531"/>
<line fill="none" stroke="#5374BC" stroke-width="0.5" stroke-miterlimit="10" x1="299.382" y1="90.029" x2="299.382" y2="81.703"/>
<line fill="none" stroke="#5374BC" stroke-width="0.5" stroke-miterlimit="10" x1="301.617" y1="89.827" x2="301.617" y2="81.5"/>
<g>
	
		<line fill="none" stroke="#5374BC" stroke-width="0.5" stroke-miterlimit="10" x1="299.382" y1="46.975" x2="299.382" y2="54.286"/>
	
		<line fill="none" stroke="#5374BC" stroke-width="0.5" stroke-miterlimit="10" x1="299.382" y1="57.535" x2="299.382" y2="64.847"/>
	
		<line fill="none" stroke="#5374BC" stroke-width="0.5" stroke-miterlimit="10" x1="299.382" y1="67.284" x2="299.382" y2="74.595"/>
</g>
<g>
	
		<line fill="none" stroke="#5374BC" stroke-width="0.5" stroke-miterlimit="10" x1="279.479" y1="46.975" x2="279.479" y2="54.286"/>
	
		<line fill="none" stroke="#5374BC" stroke-width="0.5" stroke-miterlimit="10" x1="279.479" y1="57.535" x2="279.479" y2="64.847"/>
	
		<line fill="none" stroke="#5374BC" stroke-width="0.5" stroke-miterlimit="10" x1="279.479" y1="67.284" x2="279.479" y2="75.408"/>
</g>
<g>
	
		<line fill="none" stroke="#5374BC" stroke-width="0.5" stroke-miterlimit="10" x1="249.421" y1="46.975" x2="249.421" y2="54.896"/>
	<line fill="none" stroke="#5374BC" stroke-width="0.5" stroke-miterlimit="10" x1="249.421" y1="57.535" x2="249.421" y2="65.66"/>
	
		<line fill="none" stroke="#5374BC" stroke-width="0.5" stroke-miterlimit="10" x1="249.421" y1="68.502" x2="249.421" y2="77.032"/>
</g>
<g>
	
		<line fill="none" stroke="#5374BC" stroke-width="0.5" stroke-miterlimit="10" x1="224.847" y1="46.365" x2="224.847" y2="54.896"/>
	
		<line fill="none" stroke="#5374BC" stroke-width="0.5" stroke-miterlimit="10" x1="224.847" y1="57.535" x2="224.847" y2="66.472"/>
	
		<line fill="none" stroke="#5374BC" stroke-width="0.5" stroke-miterlimit="10" x1="224.847" y1="68.502" x2="224.847" y2="78.251"/>
</g>
<g>
	
		<line fill="none" stroke="#5374BC" stroke-width="0.5" stroke-miterlimit="10" x1="226.269" y1="46.365" x2="226.269" y2="54.896"/>
	
		<line fill="none" stroke="#5374BC" stroke-width="0.5" stroke-miterlimit="10" x1="226.269" y1="57.535" x2="226.269" y2="66.472"/>
	
		<line fill="none" stroke="#5374BC" stroke-width="0.5" stroke-miterlimit="10" x1="226.269" y1="68.502" x2="226.269" y2="78.251"/>
</g>
<line fill="none" stroke="#5374BC" stroke-width="0.5" stroke-miterlimit="10" x1="198.242" y1="41.288" x2="323.347" y2="44.131"/>
<polyline fill="none" stroke="#5374BC" stroke-width="0.5" stroke-miterlimit="10" points="174.277,23.01 203.726,30.118 
	225.05,25.853 "/>
<polyline fill="none" stroke="#5374BC" stroke-width="0.5" stroke-miterlimit="10" points="178.745,35.195 195.195,35.398 
	202.71,30.118 "/>
<line fill="none" stroke="#5374BC" stroke-width="0.5" stroke-miterlimit="10" x1="144.676" y1="27.833" x2="138.126" y2="41.237"/>
<line fill="none" stroke="#5374BC" stroke-width="0.5" stroke-miterlimit="10" x1="146.047" y1="27.528" x2="139.498" y2="40.933"/>
<polyline fill="none" stroke="#5374BC" stroke-width="0.5" stroke-miterlimit="10" points="178.339,34.688 170.266,33.621 
	160.365,30.422 152.597,32.402 144.981,31.032 "/>
<polyline fill="none" stroke="#5374BC" stroke-width="0.5" stroke-miterlimit="10" points="142.696,31.641 135.842,38.191 
	125.941,34.992 118.173,36.972 110.557,35.601 "/>
<polyline fill="none" stroke="#5374BC" stroke-width="0.5" stroke-miterlimit="10" points="109.186,36.058 104.921,40.628 
	99.438,38.8 91.669,40.78 84.053,39.409 "/>
<line fill="none" stroke="#5374BC" stroke-width="0.5" stroke-miterlimit="10" x1="153.663" y1="26.462" x2="152.597" y2="32.402"/>
<line fill="none" stroke="#5374BC" stroke-width="0.5" stroke-miterlimit="10" x1="118.782" y1="32.402" x2="118.173" y2="36.972"/>
<line fill="none" stroke="#5374BC" stroke-width="0.5" stroke-miterlimit="10" x1="100.351" y1="34.688" x2="99.438" y2="38.8"/>
<line fill="none" stroke="#5374BC" stroke-width="0.5" stroke-miterlimit="10" x1="89.841" y1="37.125" x2="91.364" y2="40.476"/>
<line fill="none" stroke="#5374BC" stroke-width="0.5" stroke-miterlimit="10" x1="133.1" y1="30.118" x2="125.941" y2="34.992"/>
<line fill="none" stroke="#5374BC" stroke-width="0.5" stroke-miterlimit="10" x1="168.438" y1="25.244" x2="160.365" y2="30.118"/>
<line fill="none" stroke="#5374BC" stroke-width="0.5" stroke-miterlimit="10" x1="174.074" y1="39.714" x2="179.558" y2="35.145"/>
<line fill="none" stroke="#5374BC" stroke-width="0.5" stroke-miterlimit="10" x1="200.882" y1="40.019" x2="227.539" y2="27.224"/>
<line fill="none" stroke="#5374BC" stroke-width="0.5" stroke-miterlimit="10" x1="316.443" y1="30.93" x2="328.832" y2="42.507"/>
<polyline fill="none" stroke="#5374BC" stroke-width="0.5" stroke-miterlimit="10" points="308.32,76.728 313.294,79.165 
	226.472,85.563 211.139,81.703 211.139,83.227 "/>
<polyline fill="none" stroke="#5374BC" stroke-width="0.5" stroke-miterlimit="10" points="211.544,98.967 211.24,83.227 
	226.472,87.085 313.294,80.688 313.294,79.165 "/>
<line fill="none" stroke="#5374BC" stroke-width="0.5" stroke-miterlimit="10" x1="213.677" y1="98.662" x2="213.068" y2="83.734"/>
<line fill="none" stroke="#5374BC" stroke-width="0.5" stroke-miterlimit="10" x1="309.943" y1="88.913" x2="310.248" y2="80.688"/>
<line fill="none" stroke="#5374BC" stroke-width="0.5" stroke-miterlimit="10" x1="311.162" y1="88.913" x2="311.466" y2="80.688"/>
<line fill="none" stroke="#5374BC" stroke-width="0.5" stroke-miterlimit="10" x1="226.472" y1="85.563" x2="226.472" y2="87.085"/>
<polyline fill="none" stroke="#5374BC" stroke-width="0.5" stroke-miterlimit="10" points="310.146,27.884 288.619,34.18 
	280.089,30.727 263.232,36.008 256.123,32.555 248.203,36.617 229.112,27.681 "/>
<polyline fill="none" stroke="#5374BC" stroke-width="0.5" stroke-miterlimit="10" points="244.345,24.837 252.266,34.383 
	267.498,41.491 "/>
<line fill="none" stroke="#5374BC" stroke-width="0.5" stroke-miterlimit="10" x1="283.541" y1="32.352" x2="290.853" y2="41.897"/>
<line fill="none" stroke="#5374BC" stroke-width="0.5" stroke-miterlimit="10" x1="284.759" y1="32.352" x2="292.07" y2="41.897"/>
<line fill="none" stroke="#5374BC" stroke-width="0.5" stroke-miterlimit="10" x1="253.28" y1="34.383" x2="270.949" y2="41.897"/>
<line fill="none" stroke="#5374BC" stroke-width="0.5" stroke-miterlimit="10" x1="223.02" y1="30.93" x2="231.55" y2="41.288"/>
<line fill="none" stroke="#5374BC" stroke-width="0.5" stroke-miterlimit="10" x1="223.832" y1="30.321" x2="233.173" y2="41.085"/>
<line fill="none" stroke="#5374BC" stroke-width="0.5" stroke-miterlimit="10" x1="80.042" y1="37.226" x2="87.354" y2="44.334"/>
<line fill="none" stroke="#5374BC" stroke-width="0.5" stroke-miterlimit="10" x1="72.122" y1="40.678" x2="76.589" y2="45.755"/>
<line fill="none" stroke="#5374BC" stroke-width="0.5" stroke-miterlimit="10" x1="81.65" y1="37.023" x2="89.384" y2="44.741"/>
<line fill="none" stroke="#5374BC" stroke-width="0.5" stroke-miterlimit="10" x1="107.358" y1="34.078" x2="115.583" y2="42.913"/>
<line fill="none" stroke="#5374BC" stroke-width="0.5" stroke-miterlimit="10" x1="108.729" y1="33.773" x2="117.106" y2="42.608"/>
<line fill="none" stroke="#5374BC" stroke-width="0.5" stroke-miterlimit="10" x1="276.839" y1="31.743" x2="273.387" y2="41.897"/>
<line fill="none" stroke="#5374BC" stroke-width="0.5" stroke-miterlimit="10" x1="277.854" y1="31.743" x2="274.401" y2="41.897"/>
<line fill="none" stroke="#5374BC" stroke-width="0.5" stroke-miterlimit="10" x1="145.235" y1="27.478" x2="167.22" y2="24.482"/>
<line fill="none" stroke="#5374BC" stroke-width="0.5" stroke-miterlimit="10" x1="127.565" y1="31.133" x2="145.235" y2="27.478"/>
<line fill="none" stroke="#5374BC" stroke-width="0.5" stroke-miterlimit="10" x1="113.146" y1="32.961" x2="127.565" y2="31.133"/>
<line fill="none" stroke="#5374BC" stroke-width="0.5" stroke-miterlimit="10" x1="81.768" y1="37.835" x2="113.146" y2="32.961"/>
<g>
	<line fill="none" stroke="#5374BC" stroke-width="0.5" stroke-miterlimit="10" x1="299" y1="124.455" x2="296.896" y2="124.5"/>
	
		<line fill="none" stroke="#5374BC" stroke-width="0.5" stroke-miterlimit="10" x1="297.11" y1="124.484" x2="295.708" y2="123.145"/>
	<g>
		<g>
			<path fill="#FFFFFF" stroke="#5374BC" stroke-width="0.5" stroke-miterlimit="10" d="M297.755,107.802
				c1.137-1.179,4.021-0.894,4.021-0.894c-0.049,0.072-1.377,1.979-2.352,4.109c-0.637-0.437-1.645-0.979-2.713-0.973
				C296.996,109.064,297.36,108.21,297.755,107.802z"/>
			<path fill="#FFFFFF" stroke="#5374BC" stroke-width="0.5" stroke-miterlimit="10" d="M299.425,111.018
				c-0.65,1.428-1.143,2.955-0.979,4.097c0.404,2.843,0.445,8.407,0.445,8.407l-0.689,0.041c0,0-1.26-7.76-1.869-8.733
				c-0.396-0.638-0.153-2.937,0.379-4.782C297.781,110.039,298.789,110.582,299.425,111.018z"/>
		</g>
		<path fill="#FFFFFF" stroke="#5374BC" stroke-width="0.5" stroke-miterlimit="10" d="M298.892,123.521c0,0,0.107,0.75,0.047,0.705
			c-0.063-0.045-1.92,0.016-1.92,0.016l1.184-0.68L298.892,123.521z"/>
	</g>
	<path fill="#FFFFFF" stroke="#5374BC" stroke-width="0.5" stroke-miterlimit="10" d="M275.837,121.779
		c0,3.83,3.115,6.947,6.945,6.947s6.945-3.117,6.945-6.947c0-3.828-3.115-6.944-6.945-6.944S275.837,117.951,275.837,121.779z
		 M276.568,121.779c0-0.842,0.17-1.646,0.477-2.379l5.547,2.494l0.1,0.1h-6.115C276.572,121.923,276.568,121.854,276.568,121.779z
		 M282.686,122.281l0.067-0.068v5.781c-0.855-0.004-1.672-0.182-2.412-0.5L282.686,122.281z M280.285,127.469
		c-0.621-0.273-1.191-0.646-1.688-1.1l3.967-3.967L280.285,127.469z M288.992,121.994h-5.98l5.675-2.154
		c0.202,0.61,0.313,1.264,0.313,1.939C288.998,121.854,288.994,121.923,288.992,121.994z M282.753,121.971l-0.004-0.004l0.004,0.001
		V121.971z M282.753,121.789l-2.205-5.807c0.687-0.265,1.429-0.412,2.205-0.416V121.789z M282.813,115.566
		c0.917,0.004,1.785,0.209,2.567,0.57l-2.567,5.709V115.566z M288.992,122.055c-0.037,0.852-0.246,1.656-0.594,2.387l-5.304-2.387
		H288.992z M284.902,127.623c-0.652,0.236-1.355,0.367-2.089,0.371v-5.842l0.009-0.01L284.902,127.623z M282.916,122.221
		l4.104,4.103c-0.592,0.552-1.289,0.989-2.061,1.278L282.916,122.221z M282.678,122.055l-5.623,2.135
		c-0.279-0.66-0.445-1.381-0.479-2.135H282.678z M278.242,117.545l4.229,4.229l-5.402-2.43
		C277.353,118.677,277.753,118.068,278.242,117.545z M280.492,116.005l2.233,5.884l-0.099-0.043l-4.344-4.345
		C278.898,116.855,279.65,116.341,280.492,116.005z M287.33,117.55l-4.416,4.416l-0.01,0.003l-0.064-0.029l2.598-5.776
		C286.153,116.502,286.794,116.977,287.33,117.55z M288.666,119.782l-5.611,2.13l4.316-4.318
		C287.942,118.221,288.387,118.963,288.666,119.782z M287.063,126.279l-4.188-4.188l0.037-0.037h0.035l5.426,2.44
		C288.044,125.167,287.599,125.771,287.063,126.279z M277.08,124.245l5.613-2.131l-0.061,0.131l-4.08,4.082
		C277.929,125.745,277.423,125.038,277.08,124.245z"/>
	<path fill="#FFFFFF" stroke="#5374BC" stroke-width="0.5" stroke-miterlimit="10" d="M298.699,121.779
		c0,3.83,3.117,6.947,6.945,6.947c3.83,0,6.945-3.117,6.945-6.947c0-3.828-3.115-6.944-6.945-6.944
		C301.816,114.835,298.699,117.951,298.699,121.779z M299.431,121.779c0-0.842,0.168-1.646,0.475-2.379l5.549,2.494l0.098,0.1
		h-6.115C299.433,121.923,299.431,121.854,299.431,121.779z M305.546,122.281l0.068-0.068v5.781c-0.855-0.004-1.672-0.182-2.412-0.5
		L305.546,122.281z M303.146,127.469c-0.623-0.273-1.191-0.646-1.688-1.1l3.965-3.967L303.146,127.469z M311.853,121.994h-5.98
		l5.676-2.154c0.201,0.61,0.313,1.264,0.313,1.939C311.859,121.854,311.857,121.923,311.853,121.994z M305.615,121.971l-0.004-0.004
		l0.004,0.001V121.971z M305.615,121.789l-2.205-5.807c0.686-0.265,1.428-0.412,2.205-0.416V121.789z M305.675,115.566
		c0.916,0.004,1.785,0.209,2.568,0.57l-2.568,5.709V115.566z M311.853,122.055c-0.037,0.852-0.244,1.656-0.594,2.387l-5.303-2.387
		H311.853z M307.763,127.623c-0.65,0.236-1.354,0.367-2.088,0.371v-5.842l0.008-0.01L307.763,127.623z M305.779,122.221l4.102,4.103
		c-0.592,0.552-1.289,0.989-2.061,1.278L305.779,122.221z M305.541,122.055l-5.625,2.135c-0.277-0.66-0.445-1.381-0.479-2.135
		H305.541z M301.103,117.545l4.229,4.229l-5.402-2.43C300.214,118.677,300.615,118.068,301.103,117.545z M303.353,116.005
		l2.232,5.884l-0.098-0.043l-4.344-4.345C301.759,116.855,302.511,116.341,303.353,116.005z M310.191,117.55l-4.414,4.416
		l-0.012,0.003l-0.064-0.029l2.598-5.776C309.015,116.502,309.656,116.977,310.191,117.55z M311.527,119.782l-5.611,2.13
		l4.318-4.318C310.804,118.221,311.25,118.963,311.527,119.782z M309.925,126.279l-4.189-4.188l0.037-0.037h0.033l5.43,2.44
		C310.906,125.167,310.46,125.771,309.925,126.279z M299.941,124.245l5.613-2.131l-0.059,0.131l-4.082,4.082
		C300.791,125.745,300.285,125.038,299.941,124.245z"/>
	<path fill="#FFFFFF" stroke="#5374BC" stroke-width="0.5" stroke-miterlimit="10" d="M283.21,121.938l4.949-12.977
		c0.065-0.179-0.023-0.378-0.203-0.443l0,0c-0.179-0.067-0.377,0.022-0.443,0.201l-4.947,12.977
		c-0.066,0.18,0.023,0.378,0.202,0.445l0,0C282.946,122.206,283.145,122.116,283.21,121.938z"/>
	<path fill="#FFFFFF" stroke="#5374BC" stroke-width="0.5" stroke-miterlimit="10" d="M305.835,121.676l-5.893-8.476
		c-0.111-0.154-0.328-0.189-0.482-0.077l0,0c-0.154,0.109-0.188,0.327-0.078,0.48l5.895,8.477c0.111,0.152,0.326,0.188,0.48,0.077
		l0,0C305.914,122.046,305.947,121.83,305.835,121.676z"/>
	<path fill="#FFFFFF" stroke="#5374BC" stroke-width="0.5" stroke-miterlimit="10" d="M305.398,121.596l-9.702,1.348
		c-0.187,0.043-0.301,0.229-0.257,0.414l0,0c0.044,0.187,0.229,0.302,0.415,0.259l9.702-1.349c0.186-0.045,0.303-0.229,0.258-0.416
		l0,0C305.771,121.666,305.583,121.551,305.398,121.596z"/>
	<path fill="#FFFFFF" stroke="#5374BC" stroke-width="0.5" stroke-miterlimit="10" d="M287.134,111.117l12.178,2.515
		c0.188,0.039,0.369-0.08,0.408-0.268l0,0c0.039-0.187-0.08-0.369-0.268-0.408l-12.178-2.515c-0.186-0.039-0.369,0.08-0.408,0.267
		l0,0C286.828,110.895,286.946,111.078,287.134,111.117z"/>
	<path fill="#FFFFFF" stroke="#5374BC" stroke-width="0.5" stroke-miterlimit="10" d="M285.925,114.063l11.156,5.496
		c0.17,0.084,0.377,0.016,0.463-0.156l0,0c0.084-0.17,0.227-0.868,0.056-0.953l-10.894-6.301c-0.17-0.086-0.852,1.279-0.937,1.451
		l0,0C285.686,113.77,285.755,113.977,285.925,114.063z"/>
	<path fill="#FFFFFF" stroke="#5374BC" stroke-width="0.5" stroke-miterlimit="10" d="M296.046,123.359l5.639-14.644
		c0.066-0.178-0.023-0.377-0.201-0.444l0,0c-0.18-0.065-0.377,0.024-0.445,0.203l-5.638,14.643
		c-0.067,0.178,0.022,0.377,0.202,0.443l0,0C295.781,123.628,295.979,123.537,296.046,123.359z"/>
	
		<ellipse fill="#FFFFFF" stroke="#5374BC" stroke-width="0.5" stroke-miterlimit="10" cx="300.904" cy="107.7" rx="2.539" ry="0.954"/>
	<path fill="#FFFFFF" stroke="#5374BC" stroke-width="0.5" stroke-miterlimit="10" d="M288.16,108.961
		c0.07,0.02,1.396-2.77-0.098-3.332s-0.289,0.624-0.243,0.641c0.046,0.015,0.453,0.711-0.307,2.449L288.16,108.961z"/>
	<g>
		<path fill="#FFFFFF" stroke="#5374BC" stroke-width="0.5" stroke-miterlimit="10" d="M294.035,123.563
			c0-0.933,0.758-1.689,1.688-1.689c0.933,0,1.688,0.758,1.688,1.689c0,0.931-0.757,1.688-1.688,1.688
			C294.792,125.25,294.035,124.492,294.035,123.563z M294.555,123.563c0,0.645,0.524,1.168,1.169,1.168
			c0.646,0,1.17-0.523,1.17-1.168c0-0.646-0.523-1.17-1.17-1.17C295.08,122.393,294.555,122.916,294.555,123.563z"/>
		<path fill="#FFFFFF" stroke="#5374BC" stroke-width="0.5" stroke-miterlimit="10" d="M295.632,123.236L295.632,123.236
			c0.143-0.022,0.24-0.155,0.217-0.299l-0.462-2.94l-0.515,0.081l0.463,2.941C295.357,123.161,295.492,123.259,295.632,123.236z"/>
		
			<rect x="292.801" y="119.833" transform="matrix(0.9985 -0.0554 0.0554 0.9985 -6.2048 16.5086)" fill="#FFFFFF" stroke="#5374BC" stroke-width="0.5" stroke-miterlimit="10" width="3.312" height="0.519"/>
	</g>
	<path fill="#FFFFFF" stroke="#5374BC" stroke-width="0.5" stroke-miterlimit="10" d="M291.458,85.908
		c2.438-0.771,5.443,0.527,4.955,1.301c0,0,1.748,1.827-0.404,4.59l-0.772-0.609c0,0,0.568-1.057,0.082-1.179
		c-0.487-0.122-0.487-0.122-0.487-0.122l-0.447,0.813c0,0-0.813-3.413-3.857-2.234C290.525,88.468,289.022,86.682,291.458,85.908z"
		/>
	<path fill="#FFFFFF" stroke="#5374BC" stroke-width="0.5" stroke-miterlimit="10" d="M294.384,90.702l0.445-0.813
		c0,0,0,0,0.488,0.122c0.486,0.122-0.082,1.179-0.082,1.179l0.771,0.609c0,0,0,1.299,0.447,1.583l0.203,1.138l-1.787,1.057
		l-1.267-1.944c0.363-0.437,0.582-0.848,0.615-0.897c-0.033,0.051-0.253,0.463-0.615,0.897l-0.399-0.614l0.399,0.614
		c-0.508,0.608-1.298,1.265-2.269,1.052c-1.666-0.365-1.422-5.037-0.813-6.215C293.571,87.289,294.384,90.702,294.384,90.702z"/>
	<path fill="#FFFFFF" stroke="#5374BC" stroke-width="0.5" stroke-miterlimit="10" d="M303.871,104.511
		c0.121,1.134-0.219,1.8-0.957,2.234c-0.918,0.542-3.742,1.083-6.027,1.624c-0.186-0.91-0.647-2.11-1.842-2.729
		c1.465-0.736,2.883-1.238,3.119-1.32C301.07,105.283,302.908,104.916,303.871,104.511z"/>
	<path fill="#FFFFFF" stroke="#5374BC" stroke-width="0.5" stroke-miterlimit="10" d="M295.755,118.589l0.334,1.154
		c0,0-3.573,0.284-3.452,0.243c0.104-0.034,1.761-1.036,2.254-1.336C295.226,118.659,295.515,118.631,295.755,118.589z"/>
	<path fill="#FFFFFF" stroke="#5374BC" stroke-width="0.5" stroke-miterlimit="10" d="M296.886,108.369
		c-1.661,0.393-3.038,0.785-3.193,1.179c-0.365,0.935,2.031,8.937,2.031,8.937l0.031,0.104c-0.24,0.042-0.529,0.07-0.864,0.063
		c0.087-0.053,0.144-0.086,0.144-0.086s-4.509-8.692-3.127-10.643c0.604-0.854,1.887-1.654,3.139-2.283
		C296.238,106.259,296.701,107.459,296.886,108.369z"/>
	<path fill="#FFFFFF" stroke="#5374BC" stroke-width="0.5" stroke-miterlimit="10" d="M296.578,95.17
		c-0.943-0.359-1.492,0.063-1.811,0.617c0.057-0.135,0.104-0.212,0.104-0.212l1.584-2.193c0,0,2.355-0.364,5.078,5.037
		c1.453,2.884,2.199,4.795,2.338,6.092c-0.963,0.405-2.801,0.772-5.707-0.188c0.021-0.008,0.037-0.014,0.037-0.014
		s-0.673-3.057-1.99-4.82C298.128,96.277,296.707,95.219,296.578,95.17z"/>
	<path fill="#FFFFFF" stroke="#5374BC" stroke-width="0.5" stroke-miterlimit="10" d="M286.057,104.837
		c0.407-0.569,1.503,0.122,1.503,0.122s6.174-3.777,6.783-7.718c0,0,0.06-0.815,0.425-1.454c-0.216,0.507-0.588,1.841,0.794,2.997
		c0.23,0.194,0.447,0.434,0.648,0.702c-0.101,0.168-0.205,0.339-0.323,0.517c-2.396,3.615-5.931,5.158-7.839,5.442
		c0,0-1.383-0.527-1.463,0.568C286.585,106.014,285.65,105.404,286.057,104.837z"/>
	<path fill="#FFFFFF" stroke="#5374BC" stroke-width="0.5" stroke-miterlimit="10" d="M295.562,98.784
		c-1.382-1.156-1.01-2.49-0.794-2.997c0.317-0.555,0.866-0.977,1.81-0.617c0.131,0.049,1.553,1.107-0.367,4.316
		C296.009,99.218,295.792,98.979,295.562,98.784z"/>
	<circle fill="#FFFFFF" stroke="#5374BC" stroke-width="0.5" stroke-miterlimit="10" cx="287.291" cy="105.882" r="0.854"/>
</g>
<g>
	<path fill="#FFFFFF" stroke="#5374BC" stroke-width="0.5" stroke-miterlimit="10" d="M64.119,87.896
		c-0.364-0.992-1.284-0.16-1.621,0.373l-4.374,1.237l-0.434,1.448l5.252-1.946C62.943,89.01,64.483,88.891,64.119,87.896z"/>
	<path fill="#FFFFFF" stroke="#5374BC" stroke-width="0.5" stroke-miterlimit="10" d="M55.613,81.212l0.196-0.526
		c0,0,0,0-0.335-0.67s0.376-0.545,0.754-0.418c0.377,0.125,1.005-1.51,1.843-1.552c0.429-0.021,0.703-0.282,0.87-0.557
		c-0.01-0.025-0.021-0.049-0.031-0.071c0,0,0.042-3.185-4.4-1.173c0,0-0.837-1.844-2.64-0.923c-1.802,0.923,0.084,4.484-0.293,5.447
		c0,0,1.131,0.084,0.88-1.97s1.257-1.634,1.257-1.634s-1.215,3.604,1.676,4.441l0.018,0.014c-0.01-0.253-0.018-0.454-0.018-0.516
		L55.613,81.212z"/>
	<path fill="#FFFFFF" stroke="#5374BC" stroke-width="0.5" stroke-miterlimit="10" d="M55.407,81.62
		c0.001,0.042,0.003,0.087,0.005,0.132l0.038-0.102L55.407,81.62z"/>
	<path fill="#FFFFFF" stroke="#5374BC" stroke-width="0.5" stroke-miterlimit="10" d="M58.941,77.489
		c-0.167,0.274-0.441,0.536-0.87,0.557c-0.838,0.042-1.466,1.677-1.843,1.552c-0.378-0.127-1.089-0.252-0.754,0.418
		s0.335,0.67,0.335,0.67l-0.196,0.526L55.45,81.65l-0.038,0.102c0.024,0.605,0.061,1.406,0.061,1.406s1.173,1.383,2.095,0.754
		l-0.433-1.605c0.253-0.012,0.897,0.377,1.146,0.139C59.223,81.545,59.364,78.527,58.941,77.489z"/>
	<path fill="#FFFFFF" stroke="#5374BC" stroke-width="0.5" stroke-miterlimit="10" d="M55.613,81.212l-0.223-0.106
		c0,0.062,0.007,0.263,0.018,0.516l0.043,0.029L55.613,81.212z"/>
	<path fill="#FFFFFF" stroke="#5374BC" stroke-width="0.5" stroke-miterlimit="10" d="M51.325,102.352
		c0,1.508-0.503,4.231-5.783,0.168l-0.014-0.022c-0.27,0.215-0.443,0.461-0.545,0.72c0.376,0.356,4.878,4.574,6.845,3.45
		c1.489-0.851,2.229-3.663,2.522-5.144c-0.849-1.102-1.684-2.256-2.264-3.373C51.802,99.223,51.325,101.24,51.325,102.352z"/>
	<path fill="#FFFFFF" stroke="#5374BC" stroke-width="0.5" stroke-miterlimit="10" d="M45.528,102.496l-0.363-0.564
		c0,0-2.431,1.678-1.844,1.844c0.587,0.168,1.635-0.586,1.635-0.586s0.011,0.011,0.028,0.026
		C45.085,102.957,45.259,102.711,45.528,102.496z"/>
	<path fill="#FFFFFF" stroke="#5374BC" stroke-width="0.5" stroke-miterlimit="10" d="M56.563,94.725l-3.481-1.201
		c-0.084,0.127-2.721,0.447-1.38,3.799c0.109,0.273,0.24,0.55,0.385,0.828c0.58,1.117,1.415,2.271,2.264,3.373
		c1.554,2.011,3.153,3.83,3.302,4.851c0.225,1.536,1.053,7.492,1.226,8.737c0.224,0.055,0.479,0.096,0.76,0.109
		c-0.088-0.029-0.142-0.048-0.142-0.048S61.131,102.77,56.563,94.725z"/>
	<path fill="#FFFFFF" stroke="#5374BC" stroke-width="0.5" stroke-miterlimit="10" d="M58.91,115.341l0.042,0.923
		c0,0,2.263,0.041,2.389-0.209c0.105-0.212-1.254-0.686-1.703-0.834c-0.281-0.015-0.536-0.056-0.76-0.109
		C58.898,115.259,58.91,115.341,58.91,115.341z"/>
	<path fill="#FFFFFF" stroke="#5374BC" stroke-width="0.5" stroke-miterlimit="10" d="M58.994,87.518
		c-0.293-0.84-1.425-3.604-1.425-3.604c-0.922,0.629-2.095-0.754-2.095-0.754s-1.107,0.286-2.991,1.978
		c0.395,0.354,0.813,0.799,1.03,1.314l0.182-0.16l-0.149,0.264l0.545,4.23l-0.147,0.398l1.153,0.9
		c0.629-0.042,1.844,0.209,1.257,1.09c-0.586,0.881-1.593-0.294-1.593-0.294l-1.159-0.769l-0.52,1.412l3.481,1.199l1.127-3.768
		l0.434-1.448l0.157-0.524C58.281,88.982,59.287,88.354,58.994,87.518z"/>
	<path fill="#FFFFFF" stroke="#5374BC" stroke-width="0.5" stroke-miterlimit="10" d="M55.097,92.084l-1.153-0.9l-2.645-2.069
		c-0.226-0.177-0.236-0.515-0.02-0.704l2.233-1.959c-0.217-0.516-0.635-0.962-1.03-1.314c-0.157,0.141-0.319,0.291-0.487,0.452
		c-0.912,0.877-1.64,1.593-2.179,2.128c-0.59,0.586-0.492,1.564,0.202,2.023l3.584,2.373l1.159,0.768c0,0,1.006,1.174,1.593,0.294
		C56.94,92.293,55.726,92.042,55.097,92.084z"/>
</g>
<g>
	<path fill="#FFFFFF" stroke="#5374BC" stroke-width="0.5" stroke-miterlimit="10" d="M357.171,73.445l-1.654,0.015
		c-2.623,0.022-4.693-2.218-4.465-4.83l2.023-23.077c0.141-1.615,1.492-2.854,3.113-2.854l0,0c1.607,0,2.955,1.221,3.111,2.822
		l2.252,23.049C361.806,71.167,359.779,73.422,357.171,73.445z"/>
	<path fill="#FFFFFF" stroke="#5374BC" stroke-width="0.5" stroke-miterlimit="10" d="M358.888,67.473
		c-0.906,0.798-2.055,1.596-3.055,2.394c0-1.002,0-2.003,0-3.005c0-1.461,0-2.922,0-4.384c0-0.006,0.35-0.011,0.355-0.017
		c1.104-0.971,1.348-1.085,2.449-2.056c0.389-0.341-0.432-0.905-0.816-0.565c-0.887,0.781-0.988,1.008-1.988,1.572
		c0-0.637,0-1.274,0-1.911c0-1.188,0.383-2.076,0.334-3.265c0-0.017,0.336,0.265,0.336,0.265h-1.67c0,1,0,1.339,0,2.322
		c0,2.164,0,4.327,0,6.491c0-0.63-0.361-0.889-1.129-1.773c-0.338-0.39-0.686,0.178-0.348,0.565c0.963,1.11,0.771,1.234,1.732,2.344
		c0.023,0.026-0.258,0.046-0.258,0.064c0,2.625,0,5.249,0,7.873c0,2.454,0,4.908,0,7.361c0,1.189,0.385,2.952,0.436,4.141
		c0,0.018,0.436,0.613,0.436,0.613h0.131c0-2,0-3.091,0-4.074c0-2.339,0-4.677,0-7.016c0-1.493,0-2.986,0-4.479
		c1-0.964,2.359-1.927,3.453-2.891C359.675,67.699,359.273,67.134,358.888,67.473z"/>
</g>
<g>
	<path fill="#FFFFFF" stroke="#5374BC" stroke-width="0.5" stroke-miterlimit="10" d="M17.611,88.614l-1.439,0.013
		c-2.28,0.02-4.082-1.929-3.882-4.2l1.759-20.067c0.123-1.405,1.299-2.482,2.708-2.482l0,0c1.399,0,2.57,1.063,2.706,2.455
		l1.958,20.044C21.643,86.634,19.88,88.596,17.611,88.614z"/>
	<path fill="#FFFFFF" stroke="#5374BC" stroke-width="0.5" stroke-miterlimit="10" d="M18.797,83.421
		c-0.789,0.695-0.964,1.39-2.964,2.082c0-0.871,0-1.742,0-2.612c0-1.271,0-2.541,0-3.813c0-0.005,0.612-0.011,0.618-0.015
		c0.959-0.846,1.325-0.944,2.284-1.789c0.337-0.296-0.606-0.787-0.941-0.491c-0.771,0.679,0.039,0.875-1.961,1.367
		c0-0.555,0-1.108,0-1.664c0-1.034,0.642-1.994,0.599-3.028c0-0.015,0.598,0.04,0.598,0.04h-1.197c0,1,0,1.543,0,2.398
		c0,1.88,0,3.762,0,5.644c-1-0.548-0.441-0.771-1.108-1.542c-0.294-0.339-0.659,0.155-0.367,0.491
		c0.837,0.966,0.767,1.074,1.604,2.039c0.02,0.021-0.128,0.039-0.128,0.056c0,2.282,0,4.563,0,6.847c0,2.133,0,4.268,0,6.4
		c0,1.034,0.208,2.335,0.251,3.368c0,0.014,0.25,0.299,0.25,0.299h-0.501c0-1,0-2.222,0-3.076c0-2.032,0-4.065,0-6.101
		c0-1.299,0-2.598,0-3.896c2-0.838,2.205-1.676,3.158-2.515C19.328,83.617,19.133,83.126,18.797,83.421z"/>
</g>
<g>
	<path fill="#FFFFFF" stroke="#5374BC" stroke-width="0.5" stroke-miterlimit="10" d="M40.677,66.998
		c1.516-4.286,0.547-8.153-1.999-10.453c-2.546-2.3,2.381-3.789-0.509-5.525c-2.891-1.737,0.871-5.339-3.963-5.562
		c-4.833-0.222,0.129,9.543-4.083,9.361c-4.213-0.182,0.946,4.386-0.961,7.444C24.099,70.377,38.819,72.25,40.677,66.998z"/>
	<path fill="#FFFFFF" stroke="#5374BC" stroke-width="0.5" stroke-miterlimit="10" d="M32.209,65.464
		c0.701,0.616,0.624,1.232,1.624,1.849c0-0.773,0-1.547,0-2.321c0-1.128,0-2.257,0-3.385c0-0.004,0.467-0.009,0.461-0.013
		c-0.853-0.75-1.465-1.5-2.317-2.249c-0.299-0.264-0.219-0.699,0.079-0.437c0.712,0.626,0.777,1.252,1.777,1.879
		c0-0.494,0-0.987,0-1.479c0-0.918,0.44-1.348,0.478-2.265c0.001-0.013,0.479,0.458,0.479,0.458c0-1,0.044-1,0.044,0
		s0,0.523,0,1.282c0,1.67,0,3.34,0,5.01c1-0.709,1.517-1.419,2.133-2.129c0.261-0.301,0.84,0.138,0.58,0.437
		c-0.743,0.857-1.702,1.714-2.445,2.572c-0.017,0.019-0.268,0.036-0.268,0.049c0,2.027,0,4.054,0,6.081c0,1.895,0,3.79,0,5.685
		c0,0.918,0.325,2.45,0.287,3.368c0,0.015,0.287-0.354,0.287,0.646h-1.574c0-2,0-2.729,0-3.488c0-1.807,0-3.612,0-5.418
		c0-1.153,0-2.306,0-3.459c-1-0.744-1.454-1.489-2.299-2.232C31.234,65.638,31.912,65.203,32.209,65.464z"/>
</g>
<g>
	<g>
		<path fill="#FFFFFF" stroke="#5374BC" stroke-width="0.5" stroke-miterlimit="10" d="M120.323,100.563l5.021-12.238
			c0,0,13.927,4.691,13.78,4.984c-0.146,0.293-6.077,12.408-6.077,12.408L120.323,100.563z"/>
		<g>
			<path fill="#FFFFFF" stroke="#5374BC" stroke-width="0.5" stroke-miterlimit="10" d="M127.775,90.35
				c0.002,0.002-0.012,0.03-0.042,0.084c-0.037,0.063-0.082,0.139-0.136,0.23c-0.127,0.212-0.299,0.498-0.508,0.847
				c-0.426,0.716-1,1.714-1.591,2.839c-0.59,1.125-1.086,2.164-1.434,2.922c-0.168,0.369-0.306,0.672-0.409,0.896
				c-0.045,0.098-0.082,0.18-0.112,0.244c-0.027,0.056-0.042,0.084-0.046,0.082c-0.002,0,0.007-0.032,0.028-0.09
				c0.026-0.066,0.058-0.15,0.096-0.25c0.085-0.219,0.215-0.529,0.381-0.912c0.332-0.766,0.819-1.811,1.411-2.938
				c0.592-1.128,1.177-2.121,1.618-2.828c0.221-0.354,0.403-0.639,0.535-0.832c0.06-0.088,0.11-0.162,0.151-0.222
				C127.752,90.372,127.772,90.348,127.775,90.35z"/>
		</g>
		<g>
			<path fill="#FFFFFF" stroke="#5374BC" stroke-width="0.5" stroke-miterlimit="10" d="M134.48,93.814
				c-0.001,0.004-0.031-0.006-0.085-0.025c-0.064-0.025-0.142-0.059-0.236-0.096c-0.205-0.084-0.499-0.209-0.861-0.366
				c-0.725-0.315-1.721-0.763-2.813-1.276c-1.092-0.513-2.072-0.994-2.777-1.352c-0.353-0.18-0.637-0.326-0.832-0.432
				c-0.089-0.047-0.163-0.088-0.224-0.121c-0.05-0.029-0.077-0.045-0.075-0.049c0.001-0.002,0.03,0.008,0.083,0.031
				c0.063,0.028,0.14,0.063,0.232,0.104c0.213,0.104,0.499,0.238,0.845,0.403c0.726,0.347,1.705,0.813,2.788,1.327
				c1.087,0.505,2.07,0.961,2.8,1.301c0.348,0.161,0.634,0.295,0.849,0.396c0.091,0.044,0.167,0.08,0.229,0.11
				C134.455,93.798,134.481,93.813,134.48,93.814z"/>
		</g>
		<g>
			<path fill="#FFFFFF" stroke="#5374BC" stroke-width="0.5" stroke-miterlimit="10" d="M135.341,92.542
				c0.003,0.001-0.015,0.041-0.052,0.114c-0.042,0.082-0.097,0.188-0.165,0.318c-0.152,0.286-0.364,0.685-0.622,1.17
				c-0.527,0.985-1.258,2.346-2.028,3.866c-0.77,1.522-1.418,2.925-1.859,3.949c-0.221,0.513-0.396,0.931-0.514,1.22
				c-0.057,0.137-0.103,0.246-0.139,0.331c-0.033,0.076-0.052,0.115-0.055,0.113c-0.003,0,0.01-0.041,0.037-0.12
				c0.031-0.087,0.072-0.197,0.122-0.339c0.107-0.294,0.272-0.715,0.486-1.231c0.426-1.035,1.066-2.441,1.836-3.967
				c0.771-1.521,1.512-2.879,2.054-3.855c0.27-0.479,0.49-0.87,0.649-1.152c0.075-0.13,0.135-0.232,0.181-0.313
				C135.314,92.576,135.338,92.54,135.341,92.542z"/>
		</g>
		<g>
			
				<ellipse transform="matrix(0.4142 -0.9102 0.9102 0.4142 -7.8742 173.8076)" fill="#FFFFFF" stroke="#5374BC" stroke-width="0.5" stroke-miterlimit="10" cx="131.088" cy="93.021" rx="0.048" ry="4.271"/>
		</g>
		<g>
			<path fill="#FFFFFF" stroke="#5374BC" stroke-width="0.5" stroke-miterlimit="10" d="M128.721,93.299
				c-0.016,0.021-0.341-0.189-0.776-0.381c-0.435-0.193-0.81-0.293-0.803-0.32c0.004-0.023,0.397,0.034,0.842,0.233
				C128.429,93.027,128.736,93.279,128.721,93.299z"/>
		</g>
		<g>
			<path fill="#FFFFFF" stroke="#5374BC" stroke-width="0.5" stroke-miterlimit="10" d="M128.432,93.545
				c-0.017,0.023-0.345-0.202-0.794-0.389c-0.448-0.189-0.839-0.266-0.834-0.295c0.002-0.022,0.41,0.013,0.871,0.207
				C128.137,93.261,128.448,93.525,128.432,93.545z"/>
		</g>
		<g>
			<path fill="#FFFFFF" stroke="#5374BC" stroke-width="0.5" stroke-miterlimit="10" d="M128.324,93.984
				c-0.015,0.024-0.357-0.18-0.797-0.395c-0.439-0.217-0.81-0.363-0.8-0.391c0.007-0.023,0.396,0.084,0.843,0.304
				C128.015,93.723,128.338,93.966,128.324,93.984z"/>
		</g>
		<g>
			<path fill="#FFFFFF" stroke="#5374BC" stroke-width="0.5" stroke-miterlimit="10" d="M129.949,93.344
				c-0.002-0.006,0.032-0.025,0.101-0.047c0.068-0.02,0.175-0.043,0.307-0.011c0.129,0.028,0.284,0.141,0.316,0.333
				c0.017,0.095-0.022,0.199-0.083,0.273c-0.061,0.078-0.144,0.144-0.241,0.182c-0.097,0.037-0.203,0.05-0.301,0.027
				c-0.099-0.021-0.183-0.076-0.245-0.144c-0.126-0.132-0.147-0.327-0.081-0.45c0.062-0.123,0.164-0.184,0.235-0.201
				c0.073-0.019,0.114-0.006,0.113,0c0,0.008-0.04,0.008-0.101,0.035c-0.059,0.026-0.141,0.088-0.185,0.194
				c-0.046,0.104-0.024,0.253,0.083,0.362c0.102,0.109,0.283,0.153,0.446,0.086c0.159-0.063,0.29-0.217,0.271-0.354
				c-0.019-0.146-0.139-0.249-0.248-0.278c-0.112-0.037-0.213-0.026-0.28-0.02C129.989,93.343,129.951,93.352,129.949,93.344z"/>
		</g>
		<g>
			<path fill="#FFFFFF" stroke="#5374BC" stroke-width="0.5" stroke-miterlimit="10" d="M132.614,94.711
				c-0.008,0.023-0.43-0.102-0.927-0.314c-0.498-0.215-0.878-0.436-0.866-0.457c0.012-0.024,0.41,0.156,0.904,0.369
				C132.218,94.521,132.623,94.686,132.614,94.711z"/>
		</g>
		<g>
			<path fill="#FFFFFF" stroke="#5374BC" stroke-width="0.5" stroke-miterlimit="10" d="M131.455,94.588
				c-0.006,0.025-0.213-0.009-0.445-0.12c-0.232-0.112-0.389-0.251-0.373-0.272c0.016-0.021,0.191,0.078,0.415,0.187
				C131.274,94.488,131.462,94.563,131.455,94.588z"/>
		</g>
		<g>
			<path fill="#FFFFFF" stroke="#5374BC" stroke-width="0.5" stroke-miterlimit="10" d="M128.432,96.451
				c0.002-0.001,0.026,0.007,0.068,0.021c0.05,0.02,0.111,0.041,0.185,0.067c0.169,0.065,0.399,0.153,0.684,0.261
				c0.589,0.23,1.405,0.549,2.364,0.924l-0.054,0.018c0.375-0.637,0.794-1.348,1.233-2.094c0.015-0.024,0.029-0.049,0.043-0.073
				l0.025,0.069c-1.229-0.445-2.36-0.856-3.27-1.188l0.045-0.016C129.006,95.581,128.592,96.21,128.432,96.451
				c-0.012-0.006,0.103-0.215,0.322-0.568c0.219-0.357,0.541-0.865,0.938-1.482l0.016-0.023l0.029,0.01
				c0.911,0.325,2.045,0.729,3.276,1.17l0.055,0.02l-0.03,0.05c-0.014,0.024-0.028,0.049-0.042,0.073
				c-0.443,0.746-0.863,1.453-1.241,2.091l-0.02,0.03l-0.035-0.014c-0.964-0.395-1.783-0.729-2.374-0.973
				c-0.278-0.116-0.501-0.21-0.667-0.277c-0.069-0.031-0.126-0.056-0.173-0.076C128.449,96.462,128.43,96.452,128.432,96.451z"/>
		</g>
		<g>
			<path fill="#FFFFFF" stroke="#5374BC" stroke-width="0.5" stroke-miterlimit="10" d="M127.667,97.133
				c-0.002-0.006,0.032-0.025,0.101-0.048c0.068-0.021,0.175-0.042,0.307-0.01c0.128,0.028,0.284,0.141,0.316,0.332
				c0.017,0.096-0.021,0.2-0.082,0.274c-0.061,0.078-0.144,0.143-0.241,0.182c-0.097,0.037-0.203,0.049-0.301,0.027
				c-0.099-0.021-0.184-0.076-0.245-0.144c-0.126-0.133-0.146-0.328-0.081-0.45c0.062-0.123,0.164-0.186,0.234-0.201
				c0.073-0.019,0.114-0.006,0.113,0c0,0.008-0.04,0.008-0.101,0.034c-0.06,0.026-0.141,0.089-0.185,0.195
				c-0.046,0.104-0.023,0.253,0.083,0.362c0.102,0.109,0.283,0.152,0.446,0.086c0.159-0.063,0.291-0.217,0.271-0.355
				c-0.019-0.145-0.139-0.248-0.248-0.277c-0.112-0.037-0.213-0.027-0.28-0.02C127.707,97.131,127.668,97.141,127.667,97.133z"/>
		</g>
		<g>
			<path fill="#FFFFFF" stroke="#5374BC" stroke-width="0.5" stroke-miterlimit="10" d="M130.332,98.499
				c-0.008,0.024-0.43-0.101-0.927-0.313c-0.498-0.215-0.878-0.436-0.866-0.459c0.013-0.023,0.41,0.157,0.904,0.371
				C129.936,98.311,130.34,98.475,130.332,98.499z"/>
		</g>
		<g>
			<path fill="#FFFFFF" stroke="#5374BC" stroke-width="0.5" stroke-miterlimit="10" d="M129.172,98.377
				c-0.006,0.025-0.213-0.009-0.445-0.121c-0.232-0.111-0.389-0.25-0.373-0.271s0.191,0.078,0.415,0.186
				C128.992,98.277,129.18,98.352,129.172,98.377z"/>
		</g>
		<g>
			<path fill="#FFFFFF" stroke="#5374BC" stroke-width="0.5" stroke-miterlimit="10" d="M126.15,100.24
				c0.002-0.001,0.025,0.007,0.068,0.021c0.05,0.018,0.111,0.041,0.185,0.067c0.169,0.063,0.399,0.151,0.684,0.261
				c0.589,0.229,1.405,0.549,2.365,0.924l-0.054,0.018c0.375-0.637,0.793-1.348,1.233-2.096c0.014-0.023,0.029-0.047,0.043-0.071
				l0.025,0.069c-1.229-0.445-2.36-0.857-3.27-1.188l0.045-0.015C126.724,99.37,126.309,99.999,126.15,100.24
				c-0.013-0.006,0.102-0.215,0.321-0.568c0.219-0.357,0.541-0.865,0.938-1.482l0.017-0.024l0.028,0.01
				c0.912,0.325,2.046,0.729,3.277,1.171l0.054,0.02l-0.029,0.049c-0.014,0.023-0.029,0.049-0.043,0.072
				c-0.442,0.746-0.863,1.455-1.241,2.092l-0.02,0.031l-0.034-0.014c-0.964-0.395-1.783-0.729-2.375-0.973
				c-0.278-0.116-0.501-0.21-0.667-0.279c-0.069-0.029-0.126-0.054-0.173-0.074C126.167,100.251,126.147,100.241,126.15,100.24z"/>
		</g>
		<g>
			
				<ellipse transform="matrix(-0.8944 -0.4472 0.4472 -0.8944 209.6371 246.0667)" fill="#FFFFFF" stroke="#5374BC" stroke-width="0.5" stroke-miterlimit="10" cx="133.863" cy="98.289" rx="0.048" ry="5.423"/>
		</g>
		<g>
			
				<ellipse transform="matrix(0.3254 -0.9456 0.9456 0.3254 1.6426 192.4185)" fill="#FFFFFF" stroke="#5374BC" stroke-width="0.5" stroke-miterlimit="10" cx="135.671" cy="95.058" rx="0.048" ry="1.33"/>
		</g>
		<g>
			<path fill="#FFFFFF" stroke="#5374BC" stroke-width="0.5" stroke-miterlimit="10" d="M135.842,96.146
				c-0.022,0.014-0.231-0.4-0.398-0.943c-0.168-0.543-0.228-1.001-0.203-1.006c0.027-0.006,0.128,0.441,0.294,0.978
				C135.7,95.712,135.867,96.139,135.842,96.146z"/>
		</g>
		<g>
			
				<ellipse fill="#FFFFFF" stroke="#5374BC" stroke-width="0.5" stroke-miterlimit="10" cx="135.167" cy="97.197" rx="0.048" ry="0.431"/>
		</g>
		<g>
			<path fill="#FFFFFF" stroke="#5374BC" stroke-width="0.5" stroke-miterlimit="10" d="M135.762,97.203
				c-0.004,0.027-0.225,0.02-0.493,0.05c-0.269,0.03-0.482,0.09-0.492,0.063c-0.009-0.023,0.199-0.127,0.48-0.157
				C135.54,97.125,135.766,97.178,135.762,97.203z"/>
		</g>
		<g>
			<path fill="#FFFFFF" stroke="#5374BC" stroke-width="0.5" stroke-miterlimit="10" d="M125.679,90.646
				c0.015-0.023,0.359,0.162,0.795,0.367s0.798,0.354,0.789,0.379c-0.008,0.024-0.389-0.084-0.83-0.293
				C125.992,90.893,125.665,90.668,125.679,90.646z"/>
		</g>
		<g>
			
				<ellipse transform="matrix(-0.8676 -0.4972 0.4972 -0.8676 191.1943 231.7206)" fill="#FFFFFF" stroke="#5374BC" stroke-width="0.5" stroke-miterlimit="10" cx="126.444" cy="90.409" rx="0.048" ry="1.468"/>
		</g>
		<g>
			
				<ellipse fill="#FFFFFF" stroke="#5374BC" stroke-width="0.5" stroke-miterlimit="10" cx="125.901" cy="90.13" rx="0.048" ry="0.327"/>
		</g>
		<g>
			
				<ellipse transform="matrix(-0.1885 -0.9821 0.9821 -0.1885 61.2494 230.9374)" fill="#FFFFFF" stroke="#5374BC" stroke-width="0.5" stroke-miterlimit="10" cx="126.04" cy="90.163" rx="0.049" ry="0.543"/>
		</g>
	</g>
	<path fill="#FFFFFF" stroke="#5374BC" stroke-width="0.5" stroke-miterlimit="10" d="M134.226,100.035c0,0,0.621-2.088,0.754-2.086
		c0.388,0.005,0.132,1.1,0.132,1.1s1.282-1.857,1.555-1.669c0.167,0.115-0.451,1.22-0.451,1.22s0.83-0.785,1.073-0.645
		c0.237,0.141-0.701,1.244-0.701,1.244s0.653-0.471,0.867-0.319c0.147,0.104-2.387,2.396-2.387,2.396L134.226,100.035z"/>
	<path fill="#FFFFFF" stroke="#5374BC" stroke-width="0.5" stroke-miterlimit="10" d="M134.226,100.035c0,0,0.621-2.088,0.754-2.086
		c0.388,0.005,0.132,1.1,0.132,1.1s1.282-1.857,1.555-1.669c0.167,0.115-0.451,1.22-0.451,1.22s0.83-0.785,1.073-0.645
		c0.237,0.141-0.701,1.244-0.701,1.244s0.653-0.471,0.867-0.319c0.147,0.104-2.387,2.396-2.387,2.396L134.226,100.035z"/>
	<g>
		<polygon fill="#FFFFFF" stroke="#5374BC" stroke-width="0.5" stroke-miterlimit="10" points="120.894,146.958 120.953,148.425 
			119.89,148.588 119.847,146.969 		"/>
		<path fill="#FFFFFF" stroke="#5374BC" stroke-width="0.5" stroke-miterlimit="10" d="M119.89,148.588c0,0,4.377-0.792,5.036-0.232
			c0.658,0.559-5.118,1.015-5.118,1.015L119.89,148.588z"/>
	</g>
	<g>
		<polygon fill="#FFFFFF" stroke="#5374BC" stroke-width="0.5" stroke-miterlimit="10" points="105.559,141.801 104.337,142.613 
			103.645,141.79 105.004,140.913 		"/>
		<path fill="#FFFFFF" stroke="#5374BC" stroke-width="0.5" stroke-miterlimit="10" d="M103.645,141.79c0,0,2.952,3.328,2.817,4.18
			c-0.135,0.854-3.527-3.844-3.527-3.844L103.645,141.79z"/>
	</g>
	<path fill="#FFFFFF" stroke="#5374BC" stroke-width="0.5" stroke-miterlimit="10" d="M122.625,110.462c0,0,3.679,3.397,3.741,15.99
		c0.061,12.594-4.331,20.948-4.331,20.948h-3.097c0,0,5.079-15.813-0.627-26.299c0,0-1.909,12.217-12.018,21.563l-2.445-2.6
		c0,0,7.455-9.365,7.515-21.078c0.011-2.32,0.4-3.494-0.407-6.092L122.625,110.462z"/>
	<g>
		<path fill="#FFFFFF" stroke="#5374BC" stroke-width="0.5" stroke-miterlimit="10" d="M124.161,132.988
			c-0.004,0.056-0.641,0.039-1.413,0.134c-0.773,0.092-1.388,0.261-1.405,0.207c-0.018-0.046,0.585-0.302,1.382-0.396
			C123.52,132.834,124.167,132.939,124.161,132.988z"/>
	</g>
	<g>
		<path fill="#FFFFFF" stroke="#5374BC" stroke-width="0.5" stroke-miterlimit="10" d="M124.562,131.969
			c0.013,0.021-0.127,0.145-0.393,0.283c-0.265,0.141-0.662,0.282-1.12,0.337c-0.458,0.054-0.877,0.005-1.167-0.069
			c-0.292-0.074-0.456-0.164-0.448-0.185c0.016-0.06,0.716,0.173,1.593,0.063C123.904,132.303,124.533,131.917,124.562,131.969z"/>
	</g>
	<g>
		<path fill="#FFFFFF" stroke="#5374BC" stroke-width="0.5" stroke-miterlimit="10" d="M113.053,130.697
			c-0.02,0.045-0.542-0.213-0.959-0.776c-0.422-0.562-0.52-1.136-0.471-1.144c0.055-0.017,0.227,0.502,0.625,1.027
			C112.638,130.336,113.085,130.65,113.053,130.697z"/>
	</g>
	<g>
		<path fill="#FFFFFF" stroke="#5374BC" stroke-width="0.5" stroke-miterlimit="10" d="M112.779,131.021
			c-0.028,0.006-0.067-0.099-0.205-0.198c-0.135-0.101-0.365-0.224-0.602-0.366c-0.479-0.283-0.877-0.505-0.855-0.555
			c0.021-0.047,0.461,0.1,0.953,0.389c0.243,0.148,0.458,0.284,0.597,0.434C112.808,130.875,112.805,131.021,112.779,131.021z"/>
	</g>
	<g>
		<path fill="#FFFFFF" stroke="#5374BC" stroke-width="0.5" stroke-miterlimit="10" d="M121.143,122.063
			c0.001,0.021-0.317,0.037-0.793-0.117c-0.478-0.15-1.08-0.471-1.749-0.801c-0.668-0.336-1.269-0.65-1.698-0.888
			c-0.43-0.235-0.69-0.393-0.678-0.417c0.012-0.023,0.293,0.092,0.739,0.296c0.445,0.205,1.055,0.5,1.724,0.837
			c0.67,0.332,1.26,0.668,1.708,0.844C120.844,121.999,121.146,122.031,121.143,122.063z"/>
	</g>
	<path fill="#FFFFFF" stroke="#5374BC" stroke-width="0.5" stroke-miterlimit="10" d="M108.966,98.307l2.152,16.666l13.538,0.174
		l-2.023-12.555c0,0,6.691,6.352,9.61,3.719c2.918-2.634,3.392-5.252,3.392-5.252l-1.589-1.092c0,0-2.418,4.604-4.616,3.155
		c-2.471-1.627-7.995-8.276-13.205-7.451C112.773,96.218,109.498,94.287,108.966,98.307z"/>
	<g>
		<path fill="#FFFFFF" stroke="#5374BC" stroke-width="0.5" stroke-miterlimit="10" d="M116.957,88.421l1.247,3.22
			c0.278,0.717-0.081,1.521-0.798,1.797l-0.424,0.162l0.205,2.358l-3.287,0.285l-0.578-6.658L116.957,88.421z"/>
		<path fill="#FFFFFF" stroke="#5374BC" stroke-width="0.5" stroke-miterlimit="10" d="M115.141,94.498c0,0,1.259-1.096,1.152-2.075
			c0,0-1.857-0.772-1.353-1.312c0.504-0.541,1.578,0.414,1.578,0.414s-0.74-1.424-0.577-1.823c0,0,2.406-0.212,1.894-1.597
			c0,0-0.722-0.549-2.244-0.504c-1.522,0.047-2.134,2.676-2.134,2.676L115.141,94.498z"/>
		<path fill="#FFFFFF" stroke="#5374BC" stroke-width="0.5" stroke-miterlimit="10" d="M115.829,87.771
			c-1.418-0.379-3.011-0.023-4.136,0.918c-1.125,0.943-1.751,2.449-1.627,3.912c0.087,1.027,0.512,2.1,0.11,3.049
			c-0.206,0.488-0.605,0.863-0.996,1.221c-1.143,1.044-2.325,2.07-3.211,3.341c-0.886,1.271-1.459,2.836-1.214,4.364
			c0.104,0.65,0.358,1.281,0.784,1.783c0.224,0.265,0.493,0.49,0.689,0.774c0.703,1.017,0.308,2.435,0.739,3.593
			c0.553,1.485,2.294,2.149,3.872,2.31c2.164,0.22,4.497-0.238,6.092-1.718c1.595-1.479,2.188-4.114,0.96-5.909
			c-0.608-0.89-1.642-1.67-1.541-2.742c0.063-0.665,0.565-1.192,0.854-1.797c0.579-1.207,0.195-2.797-0.871-3.606
			c-0.393-0.301-0.86-0.498-1.224-0.832c-0.364-0.334-0.61-0.882-0.392-1.324c0.168-0.342,0.561-0.525,0.737-0.862
			c0.263-0.504-0.056-1.114-0.427-1.545c-0.372-0.431-0.829-0.857-0.883-1.425c-0.041-0.43,0.167-0.84,0.368-1.223
			c0.397-0.755,0.794-1.511,1.191-2.266"/>
	</g>
</g>
</svg>
