<?xml version="1.0" encoding="utf-8"?>
<!-- Generator: Adobe Illustrator 16.0.3, SVG Export Plug-In . SVG Version: 6.00 Build 0)  -->
<!DOCTYPE svg PUBLIC "-//W3C//DTD SVG 1.1//EN" "http://www.w3.org/Graphics/SVG/1.1/DTD/svg11.dtd">
<svg version="1.1" id="分離模式" xmlns="http://www.w3.org/2000/svg" xmlns:xlink="http://www.w3.org/1999/xlink" x="0px"
	 y="0px" width="250px" height="41.5px" viewBox="0 0 250 41.5" enable-background="new 0 0 250 41.5" xml:space="preserve">
<g>
	<g>
		<g>
			<g>
				<path fill="#313331" d="M134.934,11.211h5.834c0.06,0,0.087-0.024,0.087-0.082V9.822c0-0.058-0.027-0.082-0.087-0.082h-5.834
					c-0.061,0-0.087-0.025-0.087-0.082c0,0,0-0.464,0-0.701c0-0.077,0-0.132,0-0.143c0-0.047,0.006-0.084,0.01-0.118
					c0.009-0.081,0.006-0.124-0.132-0.132c-0.599-0.034-1.451-0.024-1.711-0.012c-0.019,0-0.055,0.002-0.076,0.004
					c-0.003,0-0.007,0-0.009,0c-0.047,0.005-0.067,0.043-0.067,0.082v0.163l0,0v0.857c0,0.057-0.027,0.082-0.087,0.082h-5.793
					c-0.06,0-0.087,0.024-0.087,0.082v1.307c0,0.058,0.027,0.082,0.087,0.082h5.793c0.06,0,0.087,0.025,0.087,0.082v1.101
					c0,0.057-0.027,0.082-0.087,0.082h-5.8c-0.057,0-0.08,0.028-0.08,0.087v1.324c0,0.029,0,0.067,0,0.104s0,0.076,0,0.104v8.182
					c0,0.057,0.027,0.081,0.087,0.081h1.721c0.06,0,0.087-0.024,0.087-0.081v-8.203c0-0.057,0.027-0.082,0.087-0.082l1.964,0
					c0.047,0,0.061,0.015,0.037,0.037c-0.207,0.104-0.446,0.259-0.672,0.467c-0.075,0.069-0.072,0.087-0.073,0.105
					c-0.001,0.017,0.007,0.043,0.071,0.088c0.361,0.254,0.941,0.642,1.415,1.038c0.053,0.043,0.052,0.073-0.008,0.073h-1.984
					c-0.061,0-0.087,0.027-0.087,0.087v1.295c0,0.058,0.004,0.082,0.065,0.082h3.193c0.06,0,0.087,0.024,0.087,0.082v1.188
					c0,0.057-0.027,0.082-0.087,0.082h-3.171c-0.061,0-0.087,0.025-0.087,0.083v1.308c0,0.057,0.026,0.082,0.087,0.082h3.171
					c0.06,0,0.087,0.024,0.087,0.083v2.115c0,0.058,0.027,0.082,0.087,0.082h1.81c0.06,0,0.088-0.024,0.088-0.082V20.17
					c0-0.059,0.026-0.083,0.087-0.083h3.142c0.06,0,0.086-0.024,0.086-0.082v-1.308c0-0.058-0.026-0.083-0.086-0.083h-3.142
					c-0.061,0-0.087-0.024-0.087-0.082v-1.188c0-0.058,0.026-0.082,0.087-0.082h3.142c0.06,0,0.086-0.024,0.086-0.082v-1.295
					c0-0.06-0.026-0.087-0.086-0.087h-1.607c-0.044,0-0.062-0.036-0.036-0.06c0.016-0.015,0.02-0.02,0.035-0.034
					c0.542-0.469,0.99-0.972,1.16-1.162c0,0,0.029-0.034,0.04-0.048c0.033-0.045,0.025-0.074-0.021-0.104
					c-0.02-0.014-0.077-0.049-0.077-0.049l-0.437-0.29c-0.007-0.004-0.012-0.008-0.017-0.014c-0.031-0.026-0.017-0.047,0.035-0.047
					l1.702,0c0.061,0,0.087,0.025,0.087,0.082c0,0,0,4.935,0,5.459c0,0.625,0.058,0.893-0.524,1.211
					c-0.375,0.206-1.509,0.26-1.905,0.273c-0.086,0.003-0.158,0.005-0.191,0.005c-0.04,0-0.066,0.033-0.057,0.073
					c0.007,0.031,0.017,0.07,0.025,0.105c0.012,0.045,0.081,0.266,0.163,0.502c0.067,0.192,0.084,0.24,0.139,0.376
					c0.021,0.053,0.039,0.091,0.058,0.106c0.016,0.013,0.031,0.019,0.1,0.024h0c0,0,0.834,0.079,1.376,0.096
					c0.935,0.028,1.453-0.128,1.762-0.312c0.829-0.491,0.926-1.219,0.926-2.432c0-0.477,0-2.715,0-4.507
					c0-0.615-0.001-2.073-0.001-2.236c0-0.006-0.001-0.012-0.001-0.018c-0.005-0.098-0.053-0.184-0.126-0.244
					c-0.063-0.052-0.13-0.082-0.252-0.082c-0.075,0-2.494,0.003-2.494,0.003c-0.03,0-0.07,0-0.109,0s-0.08,0-0.109,0h-2.808
					c-0.061,0-0.087-0.024-0.087-0.082v-1.101C134.846,11.237,134.873,11.211,134.934,11.211z M135.808,13.991
					c0.049,0,0.062,0.035,0.044,0.071c-0.014,0.033-0.029,0.057-0.033,0.064c-0.246,0.439-0.594,1.02-0.973,1.515
					c-0.007,0.009-0.015,0.019-0.021,0.028c-0.034,0.045-0.057,0.072-0.068,0.085c-0.033,0.041-0.049,0.043-0.098,0.043h-1.38
					c-0.061,0-0.089-0.019-0.104-0.043c0,0-0.001,0.002-0.014-0.022c-0.171-0.322-0.384-0.629-0.619-0.929
					c-0.321-0.411-0.603-0.744-0.603-0.744c-0.009-0.01-0.016-0.018-0.02-0.026c-0.012-0.026,0.008-0.044,0.054-0.044H135.808z"/>
			</g>
			<g>
				<path fill="#313331" d="M157.626,17.29c-0.2-0.134-1.281-0.835-2.366-2.14c-0.297-0.357-0.51-0.7-0.742-1.099
					c-0.009-0.014-0.02-0.041-0.012-0.06c0.011-0.026,0.031-0.036,0.066-0.036h1.958c0.061,0,0.087-0.024,0.087-0.081V12.64
					c0-0.058-0.026-0.082-0.087-0.082h-1.949c-0.06,0-0.087-0.025-0.087-0.082v-1.234c0-0.058,0.027-0.083,0.087-0.083h1.949
					c0.061,0,0.087-0.024,0.087-0.082V9.843c0-0.057-0.026-0.082-0.087-0.082h-1.949c-0.06,0-0.087-0.025-0.087-0.082
					c0,0,0-0.912,0-0.922c0-0.08,0.019-0.14,0.011-0.181c-0.006-0.04-0.038-0.063-0.134-0.068c-0.597-0.034-1.449-0.024-1.708-0.012
					c-0.021,0.001-0.065,0.003-0.083,0.005c0,0-0.002,0-0.002,0c-0.047,0.005-0.066,0.043-0.066,0.082v0.021
					c0,0.001-0.001,0.001-0.001,0.002V9.68c0,0.057-0.026,0.082-0.087,0.082h-1.954c-0.06,0-0.087-0.025-0.087-0.082
					c0,0,0.002-0.922,0.002-0.931c0-0.158,0.072-0.238-0.123-0.249c-0.598-0.034-1.449-0.025-1.708-0.013
					c-0.015,0.001-0.04,0.002-0.061,0.003c-0.01,0.001-0.019,0.001-0.025,0.001c-0.047,0.005-0.067,0.043-0.067,0.082v0.02
					c0,0.004-0.001,0.007-0.001,0.011V9.68c0,0.057-0.027,0.082-0.087,0.082h-1.936c-0.061,0-0.088,0.024-0.088,0.082v0.568
					c0,0.057-0.035,0.071-0.076,0.032c-0.001-0.001-0.002-0.001-0.002-0.001s-0.006-0.006-0.018-0.016
					c-0.015-0.014-0.041-0.038-0.08-0.072c-0.322-0.29-0.679-0.551-1.042-0.794c-0.027-0.018-0.054-0.035-0.082-0.052
					c-0.495-0.316-1.315-0.729-1.52-0.83c-0.031-0.015-0.054-0.023-0.07-0.032c-0.048-0.024-0.087-0.011-0.101,0.027
					c-0.008,0.023-0.013,0.04-0.016,0.05c-0.057,0.192-0.172,0.712-0.21,0.89c-0.009,0.038-0.017,0.071-0.022,0.109
					c-0.007,0.057,0.006,0.071,0.043,0.099c0.023,0.017,0.045,0.035,0.081,0.058c0.158,0.104,0.635,0.433,1.088,0.853
					c0.316,0.292,0.714,0.716,0.98,1.051c0.096,0.122,0.32,0.421,0.32,0.421c0.036,0.045,0.076,0.031,0.107-0.006l0.756-0.948
					c0.006-0.009,0.013-0.017,0.022-0.025c0.035-0.038,0.092-0.066,0.142-0.066h1.722c0.06,0,0.087,0.025,0.087,0.083v1.234
					c0,0.057-0.027,0.082-0.087,0.082h-1.936c-0.061,0-0.088,0.024-0.088,0.082v1.234c0,0.057,0.027,0.081,0.088,0.081h1.69
					c0.06,0,0.086,0.042,0.058,0.093c0,0-0.425,0.944-1.14,1.933c-0.388,0.538-0.707,0.931-0.707,0.931
					c-0.039,0.043-0.061,0.034-0.05-0.023c0,0,0.074-0.373,0.104-0.545c0.1-0.569,0.183-1.148,0.228-1.727
					c0.002-0.034,0.002-0.053-0.003-0.07c-0.005-0.019-0.025-0.046-0.055-0.095c0,0-0.124-0.191-0.389-0.43
					c-0.322-0.289-0.679-0.55-1.042-0.793c-0.027-0.018-0.054-0.035-0.082-0.052c-0.567-0.363-1.184-0.66-1.586-0.863
					c-0.048-0.024-0.075-0.016-0.101,0.028c-0.007,0.02-0.017,0.041-0.02,0.052c-0.062,0.197-0.173,0.703-0.216,0.901
					c-0.011,0.049-0.02,0.097-0.023,0.117c-0.007,0.057-0.008,0.074,0.033,0.107c0.02,0.016,0.048,0.038,0.077,0.058
					c0.172,0.117,0.802,0.549,1.092,0.797c0.468,0.399,0.756,0.738,0.883,0.927c0.052,0.078,0.053,0.086,0.042,0.154
					c-0.008,0.045-0.051,0.234-0.068,0.31c-0.02,0.083-0.041,0.17-0.058,0.244c-0.153,0.612-0.336,1.209-0.542,1.798
					c-0.2,0.575-0.439,1.129-0.699,1.666c-0.251,0.521-0.532,1.035-0.848,1.495c-0.099,0.145-0.287,0.385-0.403,0.563
					c-0.018,0.029-0.027,0.052-0.024,0.072c0.002,0.027,0.022,0.047,0.047,0.066c0.512,0.386,1.078,0.616,1.38,0.721
					c0.017,0.005,0.087,0.028,0.147,0.044c0.068,0.018,0.091,0.003,0.131-0.045c0.025-0.028,0.041-0.048,0.091-0.119
					c0.081-0.114,0.214-0.317,0.35-0.589c0.266-0.536,0.496-1.109,0.704-1.687c0.022-0.06,0.045-0.124,0.068-0.193
					c0.186-0.549,0.338-1.055,0.445-1.42c0.005-0.02,0.014-0.045,0.027-0.078c0.02-0.049,0.051-0.05,0.084-0.011
					c0.052,0.063,0.178,0.206,0.229,0.266c0.047,0.054,0.071,0.035,0.129,0.005c0.089-0.046,0.45-0.272,0.62-0.404
					c0.203-0.158,0.436-0.367,0.51-0.438c0.042-0.041,0.076-0.028,0.076,0.03v2.462v0.104c0,1.133,0.983,2.055,2.193,2.055h0.108
					h4.339c0.496,0,0.753-0.044,0.954-0.124c0.227-0.09,0.436-0.225,0.612-0.394c0.25-0.241,0.413-0.54,0.503-0.887
					c0.047-0.183,0.092-0.385,0.137-0.6c0.048-0.228,0.068-0.318,0.075-0.413c0.003-0.047,0.002-0.061-0.035-0.104
					c-0.201-0.237-0.757-0.683-0.851-0.749c-0.039-0.027-0.07-0.027-0.102,0.026c-0.005,0.009-0.024,0.042-0.028,0.051
					c-0.106,0.201-0.162,0.353-0.399,0.822c-0.211,0.419-0.455,0.785-1.137,0.785h-0.461h-3.105h-0.109
					c-0.407,0-0.725-0.289-0.725-0.656v-0.104v-0.478c0-0.057,0.026-0.082,0.086-0.082h3.625h0.109c0.805,0,1.459-0.617,1.459-1.374
					v-0.104v-0.639c0-0.03,0.034-0.049,0.053-0.032c0.011,0.01,0.015,0.015,0.027,0.028c0.437,0.478,0.965,0.849,1.184,0.998
					c0.006,0.004,0.028,0.02,0.056,0.036c0.045,0.027,0.074,0.019,0.118,0c0.02-0.008,0.038-0.015,0.044-0.019
					c0.261-0.125,0.938-0.521,1.346-0.914c0.043-0.041,0.055-0.061,0.052-0.087C157.696,17.329,157.668,17.318,157.626,17.29z
					 M150.47,11.159h1.954c0.061,0,0.087,0.025,0.087,0.083v1.234c0,0.057-0.026,0.082-0.087,0.082h-1.954
					c-0.06,0-0.087-0.025-0.087-0.082v-1.234C150.383,11.184,150.41,11.159,150.47,11.159z M152.847,17.544
					c0,0.278-0.2,0.523-0.533,0.523h-2.691c-0.06,0-0.086-0.024-0.086-0.082v-1.198c0-0.058,0.026-0.082,0.086-0.082h3.138
					c0.06,0,0.086,0.024,0.086,0.082V17.544z M153.395,15.306h-3.813c-0.048,0-0.071-0.028-0.039-0.076
					c0.096-0.144,0.319-0.452,0.406-0.576c0.147-0.21,0.327-0.485,0.413-0.639c0.028-0.05,0.061-0.06,0.105-0.06h2.243
					c0.057,0,0.09,0.016,0.113,0.068c0.078,0.172,0.16,0.372,0.241,0.543c0.017,0.036,0.034,0.073,0.05,0.106
					c0.013,0.027,0.025,0.053,0.037,0.078c0.031,0.062,0.069,0.134,0.107,0.203c0.045,0.085,0.09,0.163,0.117,0.212
					c0.017,0.031,0.043,0.08,0.043,0.08C153.441,15.282,153.434,15.306,153.395,15.306z"/>
			</g>
			<g>
				<path fill="#313331" d="M116.046,8.605c-0.618-0.035-1.499-0.025-1.767-0.013c-0.022,0.002-0.072,0.003-0.088,0.004
					c-0.048,0.006-0.069,0.046-0.069,0.085v0.167v3.213c0,0.057-0.027,0.082-0.087,0.082h-3.265c-0.06,0-0.087,0.024-0.087,0.082
					v1.517c0,0.058,0.027,0.082,0.087,0.082h3.265c0.061,0,0.087,0.025,0.087,0.082v3.478c0,0.058,0.002,0.085-0.056,0.119
					c-0.071,0.043-0.147,0.087-0.32,0.186c-0.244,0.138-0.607,0.341-0.945,0.511c-0.039,0.02-0.08,0.04-0.118,0.059
					c-0.265,0.129-0.533,0.247-0.789,0.352c-0.915,0.375-1.682,0.583-1.682,0.583c-0.007,0.003-0.03,0.013-0.037,0.016
					c-0.03,0.015-0.058,0.049-0.042,0.095c0.02,0.059,0.097,0.271,0.144,0.389c0.218,0.544,0.527,1.144,0.658,1.327
					c0.012,0.017,0.023,0.036,0.044,0.061c0.026,0.03,0.057,0.038,0.111,0.019c0.04-0.014,0.118-0.046,0.173-0.068
					c0.169-0.068,0.412-0.181,0.667-0.313c0.666-0.346,1.236-0.693,1.78-1.079c0.055-0.04,0.116-0.084,0.169-0.125
					c0.041-0.031,0.077-0.058,0.104-0.078c0.03-0.023,0.077-0.059,0.077-0.059c0.049-0.038,0.061-0.025,0.061,0.028v2.804
					c0,0.057,0.027,0.082,0.087,0.082h1.902c0.034,0,0.062-0.027,0.062-0.059c0,0,0-11.754,0-13.223c0-0.088,0-0.139,0-0.148
					C116.173,8.699,116.247,8.616,116.046,8.605z"/>
				<path fill="#313331" d="M125.311,18.789c-0.031-0.027-0.078-0.07-0.107-0.094c-0.388-0.313-0.643-0.452-0.866-0.57
					c0,0-0.019-0.01-0.04-0.02c-0.048-0.022-0.076-0.004-0.09,0.04c-0.009,0.031-0.018,0.059-0.039,0.125
					c-0.08,0.259-0.302,0.943-0.56,1.429c-0.278,0.522-0.65,0.982-1.575,0.982l-1.067,0.004c-0.428,0-0.763-0.303-0.763-0.689
					v-0.104v-4.341c0-0.053,0.004-0.079,0.051-0.109c0.055-0.036,0.146-0.086,0.206-0.122c0.689-0.408,1.55-0.967,2.464-1.687
					c0.035-0.027,0.07-0.055,0.106-0.083c1.018-0.81,1.618-1.423,1.879-1.709c0.107-0.116,0.138-0.158,0.163-0.19
					c0.033-0.041,0.034-0.105,0.014-0.151c-0.005-0.009-0.227-0.448-0.628-0.983c-0.213-0.286-0.441-0.554-0.461-0.575
					c-0.026-0.026-0.041-0.037-0.071-0.041c-0.029-0.004-0.074-0.003-0.111,0.039c-0.092,0.101-0.126,0.138-0.332,0.375
					c-0.274,0.314-0.657,0.748-0.95,1.058c-1.419,1.494-2.244,2.053-2.244,2.053c-0.047,0.035-0.086,0.017-0.086-0.041
					c0,0,0-3.548,0-4.324c0-0.094,0-0.148,0-0.148c0-0.01,0-0.02,0.001-0.029c0.002-0.048,0.01-0.088,0.012-0.12
					c0.005-0.065-0.013-0.101-0.139-0.108l0,0h0c-0.619-0.035-1.499-0.025-1.767-0.013c-0.012,0-0.031,0-0.05,0.002
					c-0.014,0.001-0.028,0.002-0.036,0.002c-0.001,0-0.002,0-0.002,0c-0.049,0.005-0.069,0.045-0.069,0.084v0.335l0,0v4.365
					c0,0.029,0,0.067,0,0.104c0,0.038,0,0.076,0,0.104v6.462v0.104c0,1.189,1.033,2.162,2.302,2.162h0.963h0.973
					c0.466,0,0.836-0.05,1.106-0.148c0.014-0.005,0.027-0.009,0.039-0.014c0.308-0.123,0.592-0.307,0.83-0.537
					c0.338-0.325,0.558-0.731,0.682-1.202c0.065-0.248,0.126-0.522,0.187-0.813c0.033-0.156,0.065-0.365,0.09-0.534
					c0.01-0.072,0.024-0.163,0.029-0.216C125.36,18.846,125.36,18.832,125.311,18.789z"/>
			</g>
			<g>
				<path fill="#313331" d="M172.778,20.552c-0.033-0.007-0.078-0.018-0.103-0.023c-0.206-0.044-0.574-0.11-1.019-0.216
					c-0.231-0.056-0.572-0.142-0.829-0.229c-0.114-0.038-0.202-0.069-0.271-0.1c-0.042-0.019-0.053-0.037-0.03-0.066
					c0.016-0.021,0.035-0.038,0.056-0.055c0.301-0.261,0.634-0.564,0.879-0.803c0.146-0.143,0.35-0.368,0.363-0.387
					c0.027-0.038,0.037-0.049-0.01-0.096c-0.053-0.053-0.275-0.261-0.524-0.443c-0.242-0.177-0.579-0.416-0.69-0.468
					c-0.051-0.024-0.069-0.026-0.104,0.015c-0.143,0.193-0.58,0.727-1.085,1.226c-0.139,0.137-0.257,0.235-0.334,0.298
					c-0.044,0.039-0.077,0.034-0.126,0c-0.033-0.022-0.089-0.055-0.146-0.091c-0.48-0.316-0.938-0.733-1.349-1.159
					c-0.021-0.021-0.281-0.31-0.375-0.413c-0.046-0.052-0.02-0.081,0.04-0.081h4.149h1.153c0.06,0,0.086-0.025,0.086-0.082v-1.318
					c0-0.057-0.026-0.082-0.086-0.082h-1.153h-1.126c-0.06,0-0.086-0.025-0.086-0.082v-0.795c0-0.057,0.027-0.082,0.086-0.082h1.126
					h1.153c0.06,0,0.086-0.025,0.086-0.083V13.62c0-0.057-0.026-0.082-0.086-0.082h-1.153h-1.126c-0.06,0-0.086-0.025-0.086-0.081
					c0,0,0-0.396,0-0.409c0-0.068,0.013-0.122,0.012-0.16c-0.001-0.048-0.026-0.075-0.13-0.081
					c-0.579-0.032-1.401-0.023-1.651-0.012c-0.021,0.001-0.067,0.003-0.083,0.003c-0.012,0.002-0.021,0.006-0.029,0.01
					c-0.024,0.014-0.036,0.042-0.036,0.069v0.015c0,0,0,0.002,0,0.003c0,0.079,0,0.562,0,0.562c0,0.056-0.026,0.081-0.087,0.081
					h-2.379c-0.061,0-0.087-0.025-0.087-0.081c0,0,0-0.396,0-0.409c0-0.068,0.014-0.122,0.013-0.16
					c-0.001-0.049-0.026-0.075-0.131-0.081c-0.578-0.032-1.401-0.023-1.651-0.012c-0.021,0.001-0.068,0.003-0.082,0.003
					c-0.016,0.002-0.028,0.009-0.038,0.017c-0.018,0.015-0.027,0.039-0.027,0.062v0.157l0,0c0,0.167,0,0.423,0,0.423
					c0,0.056-0.027,0.081-0.087,0.081h-2.062c-0.061,0-0.086-0.024-0.084-0.081l0,0c0,0,0-0.032,0-0.05
					c0.002-0.086,0.024-0.698,0.027-0.809c0.001-0.028,0.001-0.046,0.002-0.087c0.004-0.077,0.035-0.077,0.096-0.077h9.209h0.109
					c0.971,0,1.655-0.613,1.655-1.522v-0.104V9.215V9.111c0-0.189-0.161-0.344-0.359-0.344h-0.109c0,0-11.993,0-12.023,0h-0.27
					c-0.06,0-0.088,0.025-0.09,0.083c0,0-0.145,4.493-0.223,6.27c-0.037,0.843-0.068,1.653-0.136,2.512
					c-0.074,0.924-0.25,1.93-0.554,2.739c-0.225,0.6-0.472,1.032-0.565,1.199c-0.027,0.047-0.018,0.069,0.01,0.102
					c0.027,0.032,0.238,0.301,0.655,0.638c0.056,0.045,0.067,0.051,0.079,0.057c0.028,0.016,0.062,0.031,0.104-0.017
					c0.233-0.268,0.792-0.882,1.238-1.801c0.383-0.792,0.723-2.01,0.857-2.925c0.009-0.055,0.011-0.073,0.016-0.093
					c0.013-0.052,0.034-0.071,0.094-0.071h0.618c0.061,0,0.087,0.024,0.087,0.082v2.871c0,0.058-0.011,0.073-0.071,0.082
					c-0.226,0.034-0.899,0.135-0.987,0.148c-0.077,0.012-0.073,0.063-0.066,0.11c0.044,0.271,0.325,1.326,0.369,1.454
					c0.025,0.071,0.047,0.085,0.129,0.077c0.179-0.017,0.4-0.045,0.558-0.068c0.665-0.098,1.268-0.227,1.928-0.384
					c1.376-0.325,2.541-0.723,2.827-0.827c0.012-0.005,0.046-0.018,0.055-0.023c0.027-0.016,0.03-0.036,0.033-0.075
					c0.014-0.167,0.026-0.591-0.031-1.073c-0.005-0.04-0.034-0.068-0.097-0.055c-0.063,0.013-0.119,0.024-0.189,0.039
					c-0.52,0.107-1.644,0.332-2.42,0.426c-0.013,0.002-0.037,0.005-0.071,0.009c-0.041,0.003-0.073-0.018-0.073-0.07
					c0-0.055,0-0.204,0-0.21c0.003-0.666,0-2.43,0-2.43c0-0.058,0.027-0.082,0.088-0.082h1.18c0.057,0,0.066,0.013,0.098,0.059
					c0.203,0.351,0.439,0.712,0.682,1.032c0.04,0.056,0.08,0.107,0.116,0.154c0.482,0.605,1.026,1.123,1.651,1.61
					c1.543,1.2,3.33,1.755,3.998,1.908c0.055,0.013,0.144,0.031,0.17,0.035c0.038,0.006,0.063,0.002,0.08-0.017
					c0.034-0.04,0.269-0.35,0.424-0.603c0.186-0.303,0.361-0.654,0.445-0.884c0.008-0.023,0.027-0.074,0.038-0.108
					C172.844,20.6,172.824,20.563,172.778,20.552z M161.541,10.642l0.006-0.353c0.002-0.057,0.029-0.082,0.089-0.082h8.921
					c0.061,0,0.088,0.025,0.088,0.082c0,0,0,0.1,0,0.155c0,0.361-0.266,0.549-0.604,0.549c-0.096,0-8.422,0-8.422,0
					c-0.061,0-0.084-0.024-0.084-0.081C161.538,10.816,161.538,10.739,161.541,10.642z M163.67,15.896
					c0,0.057-0.027,0.082-0.087,0.082h-2.177c-0.06,0-0.083-0.024-0.08-0.08c0.017-0.225,0.029-0.389,0.043-0.614
					c0.003-0.05,0.006-0.097,0.009-0.14c0.002-0.042,0.002-0.042,0.002-0.042c0.002-0.046,0.031-0.083,0.091-0.083h2.111
					c0.06,0,0.087,0.025,0.087,0.082V15.896z M165.674,15.979c-0.061,0-0.087-0.025-0.087-0.082v-0.795
					c0-0.057,0.026-0.082,0.087-0.082h2.379c0.061,0,0.087,0.025,0.087,0.082v0.795c0,0.057-0.026,0.082-0.087,0.082H165.674z"/>
			</g>
			<g>
				<g>
					<path fill="#313331" d="M188.515,10.483h-4.314c-0.06,0-0.087,0.024-0.087,0.082v0.773c0,0.057,0.028,0.082,0.087,0.082h4.314
						c0.061,0,0.087-0.025,0.087-0.082v-0.773C188.602,10.507,188.576,10.483,188.515,10.483z"/>
					<path fill="#313331" d="M183.713,10.176c0.026-0.055,0.043-0.059,0.102-0.059h4.7c0.061,0,0.087-0.025,0.087-0.082V9.021
						c0-0.058-0.026-0.082-0.087-0.082h-4.326c-0.035,0-0.05-0.009-0.037-0.062c0.013-0.053,0.038-0.148,0.038-0.148
						c0.008-0.044,0.007-0.064-0.047-0.083c-0.184-0.06-0.385-0.122-0.803-0.209s-0.711-0.122-0.818-0.133
						c-0.036-0.003-0.064,0.008-0.072,0.055c-0.009,0.046-0.017,0.084-0.037,0.186c-0.044,0.232-0.069,0.692-0.456,1.889
						c-0.387,1.197-0.789,1.906-0.802,1.938c-0.013,0.031-0.021,0.052,0.01,0.085c0.085,0.093,0.195,0.21,0.342,0.345
						c0.097,0.088,0.189,0.178,0.295,0.256c0.023,0.017,0.042,0.027,0.065,0.023c0.017-0.002,0.025-0.008,0.063-0.057
						c0.032-0.039,0.32-0.419,0.521-0.692c0.009-0.012,0.026-0.004,0.026,0.019c0,0.023,0,1.971,0,1.971
						c0,0.057,0.026,0.082,0.086,0.082h2.498l2.585,0c0.527,0,0.956-0.406,0.956-0.905v-0.104v-1.156v-0.104
						c0-0.185-0.158-0.335-0.352-0.335h-0.11c0,0-5.147,0-5.164,0c-0.015,0-0.042-0.007-0.018-0.046
						c0.141-0.234,0.296-0.492,0.412-0.749C183.59,10.517,183.636,10.344,183.713,10.176z M186.687,12.732
						c0-0.058,0.027-0.083,0.087-0.083h0.385c0.061,0,0.109,0.047,0.109,0.104v0.293c0,0.27-0.251,0.491-0.533,0.494
						c0.01,0.004,0.023,0.005,0.039,0.005l-0.046-0.004c0.002,0,0.004-0.001,0.007-0.001c-0.033-0.009-0.048-0.034-0.048-0.077
						V12.732z M185.297,12.732c0-0.058,0.027-0.083,0.088-0.083h0.438c0.06,0,0.087,0.024,0.087,0.083v0.733
						c0,0.058-0.027,0.082-0.087,0.082h-0.438c-0.061,0-0.088-0.024-0.088-0.082V12.732z M183.896,12.732
						c0-0.058,0.026-0.083,0.086-0.083h0.43c0.061,0,0.087,0.024,0.087,0.083v0.733c0,0.058-0.026,0.082-0.087,0.082h-0.43
						c-0.06,0-0.086-0.024-0.086-0.082V12.732z"/>
					<path fill="#313331" d="M181.302,13.157h-1.508c-0.061,0-0.088-0.024-0.088-0.082v-0.487c0-0.057,0.027-0.082,0.088-0.082
						c0,0,0.141,0,0.146,0c0.743-0.01,1.343-0.601,1.374-1.339c0.001-0.021,0.004-0.041,0.004-0.061c0-0.03-0.001-0.058-0.004-0.085
						c0-0.13,0-0.296,0-0.296c0-0.185-0.157-0.334-0.35-0.334h-0.109h-1.061c-0.061,0-0.088-0.024-0.088-0.082v-0.51
						c0-0.057,0.027-0.081,0.088-0.081h1.508c0.061,0,0.088-0.024,0.088-0.083V8.62c0-0.057-0.027-0.082-0.088-0.082h-4.217
						c-0.03,0-0.07,0-0.11,0c-0.039,0-0.079,0-0.109,0h-1.601c-0.061,0-0.087,0.025-0.087,0.082v0.992c0,0.029,0,0.066,0,0.104
						c0,0.038,0,0.076,0,0.104v3.252c0,0.029,0,0.067,0,0.104c0,0.038,0,0.076,0,0.104v0.992c0,0.057,0.026,0.082,0.087,0.082h1.601
						c0.03,0,0.071,0,0.109,0c0.04,0,0.08,0,0.11,0h4.217c0.061,0,0.088-0.025,0.088-0.082v-1.035
						C181.39,13.182,181.363,13.157,181.302,13.157z M177.041,9.798c0-0.057,0.028-0.081,0.087-0.081h1.041
						c0.061,0,0.11,0.024,0.11,0.081v0.51c0,0.058-0.049,0.082-0.11,0.082h-1.041c-0.06,0-0.087-0.024-0.087-0.082V9.798z
						 M178.279,13.075c0,0.058-0.027,0.082-0.087,0.082h-1.064c-0.06,0-0.087-0.024-0.087-0.082v-0.487
						c0-0.057,0.028-0.082,0.087-0.082h1.064c0.06,0,0.087,0.024,0.087,0.082V13.075z M179.104,11.777h-1.976
						c-0.06,0-0.087-0.025-0.087-0.083v-0.451c0-0.057,0.028-0.082,0.087-0.082h2.394c0.061,0,0.109,0.046,0.109,0.104v0.006
						C179.631,11.55,179.395,11.777,179.104,11.777z"/>
				</g>
				<path fill="#313331" d="M189.185,20.037c0.003-0.045,0.001-0.06-0.034-0.101c-0.2-0.226-0.69-0.648-0.794-0.699
					c-0.042-0.021-0.076-0.022-0.096,0.028c-0.088,0.226-0.164,0.422-0.396,0.881c-0.198,0.394-0.427,0.737-1.066,0.737h-0.103
					h-2.647h-0.23c-0.208,0-0.386-0.082-0.503-0.211c-0.084-0.093-0.111-0.212-0.116-0.303c-0.003-0.042-0.007-0.075,0.052-0.075
					c0.048,0,0.228,0,0.252,0c0.005,0,0.006,0,0.005,0c0.091,0,1.732,0,1.732,0h0.11c1.537,0,2.315-0.781,2.315-2.2v-0.104v-2.732
					v-0.105c0-0.179-0.161-0.326-0.358-0.326H187.2h-10.952c-0.061,0-0.087,0.025-0.087,0.082v5.298
					c0,0.057,0.026,0.082,0.087,0.083l0.007,0l0.008,0.002c0.029,0,0.065,0,0.103,0c0.003,0.001,0.006,0.001,0.006,0.001h0.132
					h1.099c0,0,0.063,0,0.073,0c0.026,0,0.044,0.013,0.042,0.037c-0.004,0.031-0.049,0.06-0.059,0.066
					c-0.164,0.116-0.626,0.414-1.133,0.599c-0.402,0.147-1.023,0.286-1.686,0.397c-0.088,0.016-0.22,0.037-0.315,0.053
					c-0.047,0.008-0.084,0.02-0.078,0.065c0.004,0.03,0.039,0.076,0.054,0.096c0.028,0.039,0.136,0.167,0.158,0.192
					c0.143,0.167,0.343,0.377,0.516,0.532c0.046,0.04,0.07,0.045,0.102,0.045c0.055,0,0.225-0.008,0.556-0.05
					c0.824-0.103,2.502-0.468,4.197-1.762c0.095-0.072,0.189-0.147,0.284-0.225c0.019-0.015,0.047-0.032,0.058-0.036
					c0.01-0.005,0.034-0.009,0.055-0.009c0.16,0,0.479,0,0.636,0c0.002,0,0.007,0,0.008,0c0.051,0.001,0.074,0.036,0.08,0.082
					c0,0.009,0,0.024,0,0.034c0.017,1.048,0.932,1.897,2.055,1.897h0.102h3.744c0.057,0,0.149-0.002,0.205-0.006
					c0,0,0.502-0.035,0.69-0.109c0.212-0.083,0.409-0.211,0.573-0.37c0.233-0.225,0.386-0.505,0.471-0.831
					c0.045-0.171,0.088-0.36,0.13-0.562C189.165,20.215,189.18,20.097,189.185,20.037z M178.14,16.024
					c0-0.057,0.027-0.082,0.087-0.082h7.372c0.06,0,0.087,0.024,0.087,0.082v0.345c0,0.057-0.027,0.082-0.087,0.082h-7.372
					c-0.06,0-0.087-0.025-0.087-0.082V16.024z M178.14,17.332c0-0.057,0.027-0.082,0.087-0.082h7.372
					c0.06,0,0.087,0.024,0.087,0.082v0.346c0,0.058-0.027,0.082-0.087,0.082h-7.372c-0.06,0-0.087-0.024-0.087-0.082V17.332z
					 M178.227,19.096c-0.06,0-0.087-0.025-0.087-0.082v-0.373c0-0.057,0.027-0.082,0.087-0.082h7.294c0.051,0,0.083,0.03,0.08,0.066
					c-0.001,0.017-0.005,0.03-0.013,0.048c-0.137,0.286-0.437,0.423-1.001,0.423h-0.109H178.227z"/>
			</g>
			<g>
				<path fill="#313331" d="M204.308,9.652h-0.109h-2.31c-0.061,0-0.087-0.025-0.087-0.082c0,0,0-0.402,0-0.623
					c0-0.082,0-0.13,0-0.138c0-0.068,0.013-0.121,0.012-0.16c-0.002-0.048-0.027-0.075-0.131-0.081
					c-0.578-0.033-1.4-0.024-1.651-0.013c-0.02,0.001-0.067,0.003-0.082,0.005c-0.012,0.001-0.021,0.004-0.029,0.009
					c-0.026,0.014-0.036,0.042-0.036,0.07v0.017v0.139c0,0.258,0,0.774,0,0.774c0,0.058-0.027,0.082-0.088,0.082h-2.628
					c-0.061,0-0.087,0.025-0.087,0.082v0.231c0,0.029,0,0.353,0,0.391s0,0.076,0,0.104v0.019c0,0.05-0.01,0.104-0.074,0.055
					c-0.542-0.368-1.093-0.719-1.686-1.021c-0.042-0.03-0.049-0.035-0.029-0.082c0.067-0.143,0.109-0.212,0.144-0.288
					c0.034-0.075,0.038-0.089-0.025-0.123c-0.271-0.149-1.318-0.539-1.749-0.644c-0.059-0.014-0.08-0.01-0.092,0.046
					c0,0-0.221,1.108-1.228,3.226c-1,2.102-1.97,3.097-1.97,3.097c-0.036,0.042-0.04,0.06-0.012,0.111c0,0,0.189,0.369,0.277,0.51
					c0.028,0.046,0.104,0.173,0.15,0.249c0.038,0.064,0.081,0.055,0.129,0.012c0.05-0.042,0.598-0.482,1.044-1.089
					c0.027-0.038,0.061-0.029,0.061,0.023v5.982c0,0.058-0.017,0.081-0.077,0.087c-0.001,0-0.002,0-0.002,0l-0.623,0.054l0,0
					c-0.06,0.005-0.058,0.026-0.056,0.089c0.002,0.07,0.023,0.387,0.065,0.776c0.042,0.375,0.107,0.682,0.12,0.737
					c0.012,0.056,0.025,0.067,0.085,0.057c0,0,0.369-0.06,0.594-0.105c0.944-0.189,1.872-0.428,2.795-0.696
					c0.046-0.014,0.095-0.028,0.146-0.045c0.064-0.02,0.134-0.042,0.203-0.065c0.189-0.062,0.35-0.116,0.537-0.186
					c0.055-0.017,0.069-0.003,0.086,0.049l0.312,1.021c0,0.002,0.002,0.005,0.003,0.008c0.02,0.049,0.031,0.043,0.091,0.036
					c0.094-0.012,0.613-0.159,0.803-0.228c0.399-0.143,0.522-0.21,0.669-0.283c0.053-0.026,0.046-0.063,0.03-0.099
					c-0.017-0.037-0.039-0.092-0.076-0.178c-0.363-0.849-0.84-1.676-1.41-2.373c-0.045-0.055-0.099-0.134-0.141-0.191
					c-0.028-0.039-0.023-0.052,0.011-0.067c0.012-0.005,0.034-0.01,0.055-0.018c0.608-0.19,1.046-0.704,1.046-1.307v-0.104v-3.822
					v-0.104c0-0.191-0.164-0.346-0.364-0.346h-0.109h-3.682c-0.037,0-0.062-0.009-0.034-0.053c0.127-0.174,0.325-0.435,0.467-0.646
					c0.026-0.039,0.049-0.076,0.077-0.114c0.029-0.043,0.072-0.035,0.132-0.035h3.219c0.06,0,0.087,0.025,0.087,0.082v0.237
					c0,0.057,0.026,0.082,0.087,0.082h0.845c0.06,0,0.087,0.024,0.087,0.082l-0.022,9.153c0,0.057,0.05,0.104,0.109,0.104h1.657
					h0.109l0,0c0-0.001,0.049-0.001,0.109-0.001h2.574h0.109c0.877,0,1.591-0.673,1.591-1.5v-0.104v-2.445v-0.104
					c0-0.193-0.165-0.35-0.368-0.35h-0.109h-3.809c-0.06,0-0.087-0.024-0.087-0.082v-0.653c0-0.057,0.027-0.082,0.087-0.082h1.717
					h0.11c0.876,0,1.59-0.672,1.59-1.499v-0.104v-2.471c0-0.057,0.027-0.082,0.087-0.082h1.033c0.061,0,0.088-0.025,0.088-0.082
					v-1.004v-1.464l0,0v-0.104C204.676,9.809,204.511,9.652,204.308,9.652z M193.773,14.645c0-0.058,0.027-0.082,0.087-0.082h1.627
					c0.059,0,0.086,0.024,0.086,0.082v0.95c0,0.058-0.027,0.082-0.086,0.082h-1.627c-0.06,0-0.087-0.024-0.087-0.082V14.645z
					 M193.773,16.668c0-0.057,0.027-0.082,0.087-0.082h1.627c0.059,0,0.086,0.025,0.086,0.082v0.937
					c0,0.058-0.027,0.082-0.086,0.082h-1.627c-0.06,0-0.087-0.024-0.087-0.082V16.668z M193.773,19.09
					c0-0.058,0.027-0.082,0.087-0.082h0.842c0.059,0,0.062,0.015,0.095,0.063c0.014,0.022,0.048,0.067,0.062,0.089
					c0.129,0.201,0.239,0.41,0.353,0.62c0.03,0.058,0.065,0.124,0.096,0.182c0.022,0.046,0.033,0.075-0.04,0.096
					c-0.44,0.13-0.995,0.245-1.43,0.308c-0.057,0.008-0.066-0.015-0.066-0.07V19.09z M195.85,11.286h-1.429
					c-0.073,0-0.079-0.015-0.049-0.075c0.13-0.236,0.287-0.529,0.403-0.749c0.035-0.061,0.062-0.07,0.121-0.029
					c0,0,0.274,0.204,0.505,0.389c0.08,0.063,0.161,0.126,0.239,0.192c0.079,0.065,0.155,0.133,0.231,0.2
					C195.922,11.257,195.919,11.286,195.85,11.286z M200.051,19.101h2.34c0.06,0,0.087,0.025,0.087,0.083v1.382
					c0,0.058-0.027,0.082-0.087,0.082h-2.34c-0.06,0-0.087-0.024-0.087-0.082v-1.382C199.964,19.125,199.991,19.101,200.051,19.101z
					 M201.609,15.308c0,0.057-0.026,0.082-0.087,0.083l-1.471,0.002c-0.06,0-0.087-0.025-0.087-0.082v-1.44
					c0-0.057,0.027-0.082,0.087-0.082h1.471c0.061,0,0.087,0.024,0.087,0.082V15.308z M202.932,12.257
					c0,0.053-0.019,0.08-0.085,0.08c-0.097,0-3.658,0-3.658,0s-0.179,0-0.249,0c-0.063,0-0.086-0.024-0.086-0.079
					c0-0.06,0-1.052,0-1.052c0-0.058,0.026-0.082,0.087-0.082h3.903c0.06,0,0.087,0.024,0.087,0.082
					C202.932,11.206,202.932,12.212,202.932,12.257z"/>
			</g>
			<g>
				<path fill="#313331" d="M232.724,9.652h-0.109h-2.311c-0.061,0-0.087-0.025-0.087-0.082c0,0,0-0.402,0-0.623
					c0-0.082,0-0.13,0-0.138c0-0.068,0.014-0.121,0.012-0.16c-0.001-0.048-0.026-0.075-0.13-0.081
					c-0.578-0.033-1.401-0.024-1.651-0.013c-0.021,0.001-0.067,0.003-0.082,0.005c-0.012,0.001-0.021,0.004-0.029,0.009
					c-0.025,0.014-0.037,0.042-0.037,0.07v0.017v0.139c0,0.258,0,0.774,0,0.774c0,0.058-0.026,0.082-0.087,0.082h-2.629
					c-0.06,0-0.087,0.025-0.087,0.082v0.231c0,0.029,0,0.353,0,0.391s0,0.076,0,0.104v0.019c0,0.05-0.01,0.104-0.074,0.055
					c-0.542-0.368-1.094-0.719-1.686-1.021c-0.043-0.03-0.05-0.035-0.03-0.082c0.068-0.143,0.109-0.212,0.144-0.288
					c0.034-0.075,0.038-0.089-0.025-0.123c-0.271-0.149-1.317-0.539-1.748-0.644c-0.059-0.014-0.081-0.01-0.093,0.046
					c0,0-0.221,1.108-1.227,3.226c-1,2.102-1.97,3.097-1.97,3.097c-0.037,0.042-0.04,0.06-0.012,0.111c0,0,0.189,0.369,0.276,0.51
					c0.029,0.046,0.105,0.173,0.15,0.249c0.039,0.064,0.081,0.055,0.13,0.012c0.05-0.042,0.598-0.482,1.044-1.089
					c0.027-0.038,0.061-0.029,0.061,0.023v5.982c0,0.058-0.017,0.081-0.077,0.087c0,0-0.002,0-0.002,0l-0.622,0.054h-0.001
					c-0.06,0.005-0.058,0.026-0.055,0.089c0.001,0.07,0.023,0.387,0.065,0.776c0.042,0.375,0.106,0.682,0.119,0.737
					c0.012,0.056,0.025,0.067,0.085,0.057c0,0,0.369-0.06,0.594-0.105c0.944-0.189,1.872-0.428,2.795-0.696
					c0.047-0.014,0.095-0.028,0.146-0.045c0.066-0.02,0.135-0.042,0.204-0.065c0.189-0.062,0.351-0.116,0.537-0.186
					c0.055-0.017,0.07-0.003,0.086,0.049l0.312,1.021c0.001,0.002,0.003,0.005,0.004,0.008c0.019,0.049,0.03,0.043,0.09,0.036
					c0.095-0.012,0.614-0.159,0.803-0.228c0.399-0.143,0.521-0.21,0.668-0.283c0.053-0.026,0.046-0.063,0.03-0.099
					c-0.016-0.037-0.038-0.092-0.075-0.178c-0.364-0.849-0.84-1.676-1.41-2.373c-0.045-0.055-0.1-0.134-0.142-0.191
					c-0.028-0.039-0.022-0.052,0.011-0.067c0.013-0.005,0.034-0.01,0.055-0.018c0.609-0.19,1.046-0.704,1.046-1.307v-0.104v-3.822
					v-0.104c0-0.191-0.162-0.346-0.362-0.346h-0.11h-3.683c-0.037,0-0.061-0.009-0.034-0.053c0.127-0.174,0.326-0.435,0.467-0.646
					c0.026-0.039,0.05-0.076,0.077-0.114c0.03-0.043,0.072-0.035,0.132-0.035h3.219c0.06,0,0.087,0.025,0.087,0.082v0.237
					c0,0.057,0.027,0.082,0.087,0.082h0.845c0.06,0,0.087,0.024,0.087,0.082l-0.022,9.153c0,0.057,0.05,0.104,0.108,0.104h1.657
					h0.11l0,0c0-0.001,0.049-0.001,0.109-0.001h2.574h0.11c0.877,0,1.59-0.673,1.59-1.5v-0.104v-2.445v-0.104
					c0-0.193-0.165-0.35-0.367-0.35h-0.11h-3.809c-0.06,0-0.087-0.024-0.087-0.082v-0.653c0-0.057,0.027-0.082,0.087-0.082h1.717
					h0.109c0.877,0,1.591-0.672,1.591-1.499v-0.104v-2.471c0-0.057,0.027-0.082,0.087-0.082h1.034c0.06,0,0.087-0.025,0.087-0.082
					v-1.004v-1.464l0,0v-0.104C233.091,9.809,232.926,9.652,232.724,9.652z M222.188,14.645c0-0.058,0.027-0.082,0.087-0.082h1.627
					c0.06,0,0.086,0.024,0.086,0.082v0.95c0,0.058-0.026,0.082-0.086,0.082h-1.627c-0.06,0-0.087-0.024-0.087-0.082V14.645z
					 M222.188,16.668c0-0.057,0.027-0.082,0.087-0.082h1.627c0.06,0,0.086,0.025,0.086,0.082v0.937c0,0.058-0.026,0.082-0.086,0.082
					h-1.627c-0.06,0-0.087-0.024-0.087-0.082V16.668z M222.188,19.09c0-0.058,0.027-0.082,0.087-0.082h0.842
					c0.059,0,0.062,0.015,0.095,0.063c0.015,0.022,0.048,0.067,0.063,0.089c0.129,0.201,0.239,0.41,0.352,0.62
					c0.032,0.058,0.067,0.124,0.097,0.182c0.023,0.046,0.033,0.075-0.04,0.096c-0.439,0.13-0.995,0.245-1.43,0.308
					c-0.056,0.008-0.066-0.015-0.066-0.07V19.09z M224.266,11.286h-1.431c-0.072,0-0.079-0.015-0.049-0.075
					c0.131-0.236,0.287-0.529,0.403-0.749c0.035-0.061,0.062-0.07,0.122-0.029c0,0,0.273,0.204,0.505,0.389
					c0.08,0.063,0.16,0.126,0.238,0.192c0.079,0.065,0.155,0.133,0.231,0.2C224.337,11.257,224.334,11.286,224.266,11.286z
					 M228.466,19.101h2.34c0.06,0,0.087,0.025,0.087,0.083v1.382c0,0.058-0.027,0.082-0.087,0.082h-2.34
					c-0.06,0-0.087-0.024-0.087-0.082v-1.382C228.379,19.125,228.407,19.101,228.466,19.101z M230.025,15.308
					c0,0.057-0.027,0.082-0.087,0.083l-1.472,0.002c-0.06,0-0.087-0.025-0.087-0.082v-1.44c0-0.057,0.027-0.082,0.087-0.082h1.472
					c0.06,0,0.087,0.024,0.087,0.082V15.308z M231.348,12.257c0,0.053-0.02,0.08-0.085,0.08c-0.096,0-3.658,0-3.658,0
					s-0.179,0-0.249,0c-0.062,0-0.086-0.024-0.086-0.079c0-0.06,0-1.052,0-1.052c0-0.058,0.027-0.082,0.087-0.082h3.903
					c0.061,0,0.088,0.024,0.088,0.082C231.348,11.206,231.348,12.212,231.348,12.257z"/>
			</g>
			<path fill="#313331" d="M216.796,20.26h-6.01c0,0-0.228,0-0.266,0c-0.064,0-0.068-0.061-0.031-0.092
				c0.024-0.019,0.079-0.064,0.137-0.111c0.687-0.561,1.219-0.989,1.938-1.646c1.597-1.458,4.134-3.804,4.134-6.001
				c0-2.482-2.095-3.771-4.709-3.771c-1.071,0-2,0.285-3.021,0.797c-0.18,0.09-0.463,0.248-0.64,0.369
				c-0.066,0.046-0.076,0.104-0.075,0.144c0.002,0.2,0.07,0.88,0.158,1.183c0.021,0.075,0.091,0.114,0.148,0.091
				c0.195-0.08,0.404-0.182,0.635-0.27c0.727-0.275,1.63-0.506,2.556-0.506c1.577,0,2.75,0.766,2.75,1.978
				c0,2.105-2.572,4.153-4.169,5.517c-0.658,0.56-1.325,1.099-1.926,1.583c-0.205,0.165-0.531,0.428-0.587,0.474
				c-0.057,0.046-0.081,0.093-0.081,0.179c0,0.085,0,1.804,0,1.804c0,0.061,0.05,0.11,0.109,0.11h8.951c0.06,0,0.11-0.05,0.11-0.11
				v-1.611C216.906,20.31,216.856,20.26,216.796,20.26z"/>
			<g>
				<path fill="#313331" d="M107.233,15.713c-0.203,0-10.73,0-10.786,0c-0.056,0-0.087,0.04-0.087,0.082s0,6.403,0,6.459
					c0,0.056,0.037,0.082,0.087,0.082s8.841,0,8.841,0h0.39c1.057,0,1.915-0.79,1.915-1.761v-0.104c0,0,0-4.227,0-4.413
					C107.592,15.869,107.435,15.713,107.233,15.713z M105.495,20.29c0,0.301-0.217,0.527-0.575,0.527h-6.375
					c-0.06,0-0.086-0.025-0.086-0.082v-3.399c0-0.058,0.027-0.082,0.086-0.082h6.863c0.061,0,0.087,0.024,0.087,0.082V20.29z"/>
				<path fill="#313331" d="M109.681,14.318c-0.652-0.802-2.691-3.203-3.558-4.072c-0.021-0.022-0.076-0.073-0.095-0.093
					c-0.041-0.042-0.08-0.041-0.122-0.009c-0.027,0.021-0.064,0.051-0.098,0.082c-0.196,0.189-0.779,0.767-0.847,0.838
					c-0.055,0.057-0.033,0.091-0.007,0.129c0.074,0.112,0.526,0.687,0.895,1.172c0.198,0.26,0.32,0.428,0.346,0.463
					c0.033,0.047,0.063,0.088,0.072,0.102c0.022,0.031,0.01,0.081-0.046,0.081c0,0-7.192,0-7.262,0c-0.037,0-0.08-0.044-0.038-0.093
					c0.034-0.041,0.148-0.17,0.324-0.378c0.662-0.781,2.023-2.405,2.596-3.096c0.074-0.087,0.13-0.157,0.167-0.201
					c0.04-0.048,0.061-0.109-0.033-0.157c-0.055-0.028-0.376-0.141-0.888-0.341c-0.511-0.201-0.794-0.277-0.851-0.294
					c-0.128-0.038-0.155-0.021-0.222,0.05c-0.03,0.032-0.077,0.081-0.164,0.18c-0.624,0.716-2.74,3.213-3.449,4.033
					c-0.123,0.143-0.177,0.203-0.205,0.232c-0.047,0.045-0.057,0.065-0.146,0.065c-0.142,0-1.157,0-1.157,0
					c-0.06,0-0.097,0.011-0.1,0.083c-0.003,0.072,0.004,1.485,0.004,1.541c0,0.056,0.022,0.088,0.104,0.088c1.368,0,1.944,0,12.64,0
					c0.074,0,0.065,0.003,0.101,0.031c0.159,0.188,0.491,0.67,0.716,0.938c0.051,0.061,0.081,0.092,0.151,0.04
					c0.207-0.159,0.902-0.848,1.172-1.221C109.748,14.419,109.741,14.392,109.681,14.318z"/>
			</g>
		</g>
	</g>
	<g>
		<g>
			<g>
				<path fill="#313331" d="M96.15,27.707c0-0.023-0.02-0.042-0.042-0.042h-1.236c-0.023,0-0.043-0.019-0.043-0.042V26.98
					c0-0.023,0.02-0.042,0.043-0.042h3.481c0.024,0,0.043,0.019,0.043,0.042v0.642c0,0.024-0.019,0.042-0.043,0.042h-1.235
					c-0.023,0-0.042,0.02-0.042,0.042v3.801c0,0.023-0.02,0.043-0.043,0.043h-0.84c-0.023,0-0.042-0.02-0.042-0.043V27.707z"/>
			</g>
			<g>
				<path fill="#313331" d="M99.711,26.977c0.009-0.021,0.035-0.039,0.059-0.039h0.958c0.023,0,0.05,0.018,0.059,0.039l1.778,4.535
					c0.009,0.022-0.003,0.04-0.027,0.04h-0.938c-0.023,0-0.049-0.018-0.057-0.04l-0.366-0.978c-0.009-0.022-0.035-0.04-0.058-0.04
					h-1.783c-0.024,0-0.05,0.018-0.059,0.04l-0.372,0.978c-0.008,0.022-0.035,0.04-0.058,0.04h-0.873
					c-0.024,0-0.036-0.018-0.027-0.04L99.711,26.977z M100.249,27.903c-0.008-0.021-0.017-0.04-0.021-0.04
					c-0.004,0-0.013,0.019-0.021,0.04l-0.639,1.823c-0.008,0.022,0.004,0.041,0.029,0.041h1.262c0.024,0,0.037-0.019,0.029-0.041
					L100.249,27.903z"/>
			</g>
			<g>
				<path fill="#313331" d="M103.044,26.98c0-0.023,0.02-0.042,0.042-0.042h0.839c0.024,0,0.043,0.019,0.043,0.042v4.527
					c0,0.023-0.02,0.043-0.043,0.043h-0.839c-0.023,0-0.042-0.02-0.042-0.043V26.98z"/>
			</g>
			<g>
				<path fill="#313331" d="M108.532,26.98c0-0.023,0.019-0.042,0.042-0.042h2.636c0.023,0,0.042,0.019,0.042,0.042v0.642
					c0,0.024-0.02,0.042-0.042,0.042H109.5c-0.023,0-0.043,0.02-0.043,0.042v1.052c0,0.023,0.02,0.042,0.043,0.042h1.559
					c0.023,0,0.043,0.02,0.043,0.043v0.641c0,0.023-0.02,0.042-0.043,0.042H109.5c-0.023,0-0.043,0.02-0.043,0.042v1.21
					c0,0.023,0.02,0.042,0.043,0.042h1.724c0.024,0,0.043,0.019,0.043,0.043v0.641c0,0.023-0.019,0.043-0.043,0.043h-2.649
					c-0.023,0-0.042-0.02-0.042-0.043V26.98z"/>
			</g>
			<g>
				<path fill="#313331" d="M106,26.938h-0.042h-1.084h-0.042v0.042v4.527v0.043h0.042h0.84h0.042v-0.043v-1.665
					c0-0.024,0.019-0.043,0.043-0.043h0.347c0.99,0,1.776-0.39,1.776-1.467C107.921,27.229,107.003,26.938,106,26.938z
					 M106.947,28.484c-0.025,0.225-0.135,0.373-0.291,0.464c0,0-0.001,0-0.001,0c-0.038,0.022-0.08,0.041-0.123,0.057
					c-0.005,0.001-0.011,0.003-0.016,0.004c-0.04,0.014-0.081,0.025-0.124,0.035c-0.016,0.002-0.034,0.005-0.051,0.007
					c-0.033,0.005-0.065,0.011-0.101,0.015c-0.053,0.004-0.107,0.007-0.162,0.007h-0.043h-0.237c-0.024,0-0.043-0.019-0.043-0.043
					v-1.322c0-0.023,0.019-0.042,0.043-0.042h0.281c0.476,0,0.878,0.186,0.878,0.721C106.958,28.421,106.951,28.451,106.947,28.484z
					"/>
			</g>
			<g>
				<path fill="#313331" d="M112.075,26.98c0-0.023,0.019-0.042,0.042-0.042h0.839c0.023,0,0.043,0.019,0.043,0.042v4.527
					c0,0.023-0.02,0.043-0.043,0.043h-0.839c-0.023,0-0.042-0.02-0.042-0.043V26.98z"/>
			</g>
			<g>
				<path fill="#313331" d="M115.564,26.98c0-0.023,0.02-0.042,0.043-0.042h1.051c0.023,0,0.051,0.018,0.062,0.039l1.718,3.373
					c0.01,0.021,0.022,0.039,0.026,0.039c0.003,0,0.006-0.019,0.006-0.042V26.98c0-0.023,0.019-0.042,0.043-0.042h0.799
					c0.024,0,0.043,0.019,0.043,0.042v4.527c0,0.023-0.019,0.043-0.043,0.043h-1.043c-0.025,0-0.052-0.017-0.063-0.039l-1.724-3.374
					c-0.011-0.021-0.022-0.038-0.026-0.038s-0.007,0.02-0.007,0.043v3.363c0,0.023-0.019,0.043-0.042,0.043h-0.8
					c-0.023,0-0.043-0.02-0.043-0.043V26.98z"/>
			</g>
			<g>
				<path fill="#313331" d="M121.519,26.977c0.008-0.021,0.035-0.039,0.059-0.039h0.958c0.024,0,0.05,0.018,0.059,0.039l1.778,4.535
					c0.008,0.022-0.004,0.04-0.027,0.04h-0.938c-0.024,0-0.049-0.018-0.058-0.04l-0.366-0.978c-0.008-0.022-0.034-0.04-0.058-0.04
					h-1.784c-0.023,0-0.049,0.018-0.058,0.04l-0.372,0.978c-0.008,0.022-0.035,0.04-0.058,0.04h-0.872
					c-0.024,0-0.036-0.018-0.027-0.04L121.519,26.977z M122.057,27.903c-0.007-0.021-0.017-0.04-0.021-0.04
					c-0.003,0-0.012,0.019-0.021,0.04l-0.639,1.823c-0.008,0.022,0.006,0.041,0.029,0.041h1.262c0.023,0,0.037-0.019,0.028-0.041
					L122.057,27.903z"/>
			</g>
			<g>
				<path fill="#313331" d="M124.771,26.98c0-0.023,0.019-0.042,0.042-0.042h1.05c0.024,0,0.052,0.018,0.063,0.039l1.718,3.373
					c0.011,0.021,0.022,0.039,0.026,0.039s0.007-0.019,0.007-0.042V26.98c0-0.023,0.019-0.042,0.042-0.042h0.8
					c0.023,0,0.042,0.019,0.042,0.042v4.527c0,0.023-0.02,0.043-0.042,0.043h-1.044c-0.023,0-0.051-0.017-0.062-0.039l-1.725-3.374
					c-0.011-0.021-0.022-0.038-0.026-0.038c-0.003,0-0.006,0.02-0.006,0.043v3.363c0,0.023-0.02,0.043-0.043,0.043h-0.799
					c-0.023,0-0.042-0.02-0.042-0.043V26.98z"/>
			</g>
			<g>
				<path fill="#313331" d="M135.335,26.977c0.008-0.021,0.035-0.039,0.058-0.039h0.958c0.023,0,0.05,0.018,0.059,0.039l1.778,4.535
					c0.008,0.022-0.003,0.04-0.027,0.04h-0.938c-0.023,0-0.05-0.018-0.058-0.04l-0.366-0.978c-0.009-0.022-0.035-0.04-0.058-0.04
					h-1.784c-0.023,0-0.049,0.018-0.058,0.04l-0.373,0.978c-0.009,0.022-0.035,0.04-0.058,0.04h-0.871
					c-0.024,0-0.036-0.018-0.027-0.04L135.335,26.977z M135.874,27.903c-0.007-0.021-0.017-0.04-0.021-0.04
					c-0.004,0-0.014,0.019-0.021,0.04l-0.638,1.823c-0.008,0.022,0.005,0.041,0.029,0.041h1.261c0.024,0,0.036-0.019,0.029-0.041
					L135.874,27.903z"/>
			</g>
			<g>
				<path fill="#313331" d="M138.587,26.98c0-0.023,0.02-0.042,0.042-0.042h1.051c0.024,0,0.052,0.018,0.063,0.039l1.718,3.373
					c0.011,0.021,0.022,0.039,0.026,0.039s0.006-0.019,0.006-0.042V26.98c0-0.023,0.02-0.042,0.043-0.042h0.799
					c0.024,0,0.043,0.019,0.043,0.042v4.527c0,0.023-0.019,0.043-0.043,0.043h-1.043c-0.024,0-0.052-0.017-0.062-0.039l-1.725-3.374
					c-0.01-0.021-0.022-0.038-0.026-0.038s-0.007,0.02-0.007,0.043v3.363c0,0.023-0.019,0.043-0.042,0.043h-0.8
					c-0.023,0-0.042-0.02-0.042-0.043V26.98z"/>
			</g>
			<path fill="#313331" d="M133.183,28.907C133.182,28.907,133.182,28.907,133.183,28.907h-1.777c0,0,0,0-0.001,0
				c-0.023,0.001-0.042,0.02-0.042,0.043v0.641c0,0.024,0.019,0.043,0.043,0.043h0.892c0.023,0,0.042,0.02,0.042,0.043
				c0,0,0,1.055,0,1.104s-0.022,0.061-0.048,0.067c-0.025,0.005-0.051,0.01-0.078,0.015c-0.112,0.021-0.24,0.034-0.39,0.038
				c-0.03,0-0.06,0.001-0.092,0.001c-0.984,0-1.565-0.708-1.565-1.646c0-0.06,0.002-0.117,0.007-0.174
				c0.013-0.162,0.044-0.314,0.092-0.457c0.211-0.619,0.751-1.041,1.571-1.041c0.174,0,0.367,0.018,0.561,0.054
				c0.185,0.034,0.493,0.133,0.567,0.16c0.042,0.014,0.059,0.006,0.063-0.034c0.01-0.083,0.054-0.673,0.054-0.673v0
				c0.001-0.022-0.014-0.044-0.035-0.05c-0.001-0.001-0.002-0.002-0.004-0.002c-0.363-0.105-0.755-0.173-1.232-0.181
				c-0.026,0-0.053-0.001-0.08-0.001c-0.244,0-0.474,0.021-0.688,0.063c-0.208,0.042-0.402,0.103-0.579,0.184
				c-0.766,0.349-1.221,1.058-1.26,2.072c-0.002,0.047-0.003,0.097-0.003,0.146c0,1.56,1.038,2.307,2.53,2.307
				c0.032,0,0.063-0.001,0.096-0.002c0.423-0.012,0.856-0.095,1.275-0.204c0.041-0.011,0.103-0.028,0.08-0.022
				c0.023-0.006,0.042-0.029,0.042-0.053V28.95C133.225,28.927,133.206,28.908,133.183,28.907z"/>
			<path fill="#313331" d="M147,28.907L147,28.907h-1.778l0,0c-0.024,0.001-0.042,0.02-0.042,0.043v0.641
				c0,0.024,0.02,0.043,0.042,0.043h0.892c0.023,0,0.043,0.02,0.043,0.043c0,0,0,1.055,0,1.104s-0.023,0.061-0.048,0.067
				c-0.026,0.005-0.052,0.01-0.079,0.015c-0.112,0.021-0.24,0.034-0.389,0.038c-0.03,0-0.06,0.001-0.092,0.001
				c-0.983,0-1.564-0.708-1.564-1.646c0-0.06,0.002-0.117,0.007-0.174c0.013-0.162,0.043-0.314,0.093-0.457
				c0.211-0.619,0.751-1.041,1.572-1.041c0.173,0,0.367,0.018,0.561,0.054c0.185,0.034,0.493,0.133,0.567,0.16
				c0.042,0.014,0.06,0.006,0.063-0.034c0.01-0.083,0.054-0.673,0.054-0.673v0c0.001-0.022-0.015-0.044-0.035-0.05
				c0-0.001-0.001-0.002-0.003-0.002c-0.363-0.105-0.755-0.173-1.232-0.181c-0.027,0-0.052-0.001-0.081-0.001
				c-0.245,0-0.475,0.021-0.688,0.063c-0.208,0.042-0.402,0.103-0.578,0.184c-0.766,0.349-1.221,1.058-1.261,2.072
				c-0.002,0.047-0.003,0.097-0.003,0.146c0,1.56,1.037,2.307,2.529,2.307c0.032,0,0.064-0.001,0.096-0.002
				c0.424-0.012,0.856-0.095,1.276-0.204c0.041-0.011,0.103-0.028,0.081-0.022c0.022-0.006,0.041-0.029,0.041-0.053V28.95
				C147.042,28.927,147.022,28.908,147,28.907z"/>
			<g>
				<path fill="#313331" d="M149.633,26.98c0-0.023,0.02-0.042,0.042-0.042h2.637c0.023,0,0.042,0.019,0.042,0.042v0.642
					c0,0.024-0.019,0.042-0.042,0.042H150.6c-0.023,0-0.042,0.02-0.042,0.042v1.052c0,0.023,0.019,0.042,0.042,0.042h1.56
					c0.023,0,0.042,0.02,0.042,0.043v0.641c0,0.023-0.02,0.042-0.042,0.042h-1.56c-0.023,0-0.042,0.02-0.042,0.042v1.21
					c0,0.023,0.019,0.042,0.042,0.042h1.725c0.023,0,0.042,0.019,0.042,0.043v0.641c0,0.023-0.019,0.043-0.042,0.043h-2.649
					c-0.023,0-0.042-0.02-0.042-0.043V26.98z"/>
			</g>
			<g>
				<path fill="#313331" d="M154.275,29.188c0.013-0.021,0.013-0.053,0-0.073l-1.328-2.141c-0.012-0.021-0.003-0.037,0.02-0.037
					h0.985c0.023,0,0.052,0.017,0.064,0.037l0.92,1.572c0.012,0.021,0.031,0.021,0.043,0l0.941-1.572
					c0.012-0.021,0.041-0.037,0.065-0.037h0.905c0.023,0,0.032,0.016,0.02,0.037l-1.341,2.141c-0.013,0.02-0.013,0.053,0,0.073
					l1.467,2.327c0.012,0.02,0.004,0.036-0.021,0.036h-1.004c-0.023,0-0.052-0.017-0.064-0.037l-1.02-1.724
					c-0.012-0.021-0.032-0.021-0.044,0l-1.033,1.724c-0.012,0.021-0.041,0.037-0.065,0.037h-0.958c-0.023,0-0.033-0.017-0.021-0.036
					L154.275,29.188z"/>
			</g>
			<g>
				<path fill="#313331" d="M157.61,26.98c0-0.023,0.019-0.042,0.043-0.042h0.838c0.023,0,0.042,0.019,0.042,0.042v1.778
					c0,0.023,0.02,0.042,0.043,0.042h1.764c0.024,0,0.043-0.019,0.043-0.042V26.98c0-0.023,0.019-0.042,0.043-0.042h0.838
					c0.023,0,0.042,0.019,0.042,0.042v4.527c0,0.023-0.019,0.043-0.042,0.043h-0.838c-0.024,0-0.043-0.02-0.043-0.043v-1.937
					c0-0.023-0.019-0.042-0.043-0.042h-1.764c-0.023,0-0.043,0.02-0.043,0.042v1.937c0,0.023-0.019,0.043-0.042,0.043h-0.838
					c-0.024,0-0.043-0.02-0.043-0.043V26.98z"/>
			</g>
			<g>
				<path fill="#313331" d="M162.249,26.98c0-0.023,0.019-0.042,0.042-0.042h0.839c0.023,0,0.043,0.019,0.043,0.042v4.527
					c0,0.023-0.02,0.043-0.043,0.043h-0.839c-0.024,0-0.042-0.02-0.042-0.043V26.98z"/>
			</g>
			<g>
				<path fill="#313331" d="M168.021,26.98c0-0.023,0.019-0.042,0.042-0.042h0.839c0.023,0,0.042,0.019,0.042,0.042v4.527
					c0,0.023-0.02,0.043-0.042,0.043h-0.839c-0.024,0-0.042-0.02-0.042-0.043V26.98z"/>
			</g>
			<path fill="#313331" d="M167.35,30.206c-0.004-0.56-0.427-0.976-1.044-1.04c-0.008-0.005-0.012-0.011-0.012-0.015
				c0.239-0.043,0.445-0.141,0.601-0.284c0.023-0.02,0.043-0.042,0.064-0.063c0.161-0.177,0.253-0.41,0.253-0.684l0,0l0,0
				c0-1.011-0.892-1.183-1.486-1.183h-0.042h-1.526c-0.023,0-0.042,0.019-0.043,0.042l0,0v4.527l0,0c0,0.024,0.02,0.043,0.043,0.043
				h1.569c0.325,0,0.793-0.054,1.144-0.305c0.277-0.198,0.481-0.518,0.481-1.031C167.351,30.212,167.35,30.209,167.35,30.206z
				 M165.039,28.759v-1.052c0-0.023,0.019-0.042,0.042-0.042h0.314c0.422,0,0.89,0.04,0.89,0.576c0,0.017-0.001,0.031-0.002,0.047
				c-0.032,0.433-0.493,0.514-0.868,0.514h-0.334C165.058,28.801,165.039,28.782,165.039,28.759z M166.422,30.237
				c-0.035,0.488-0.533,0.587-0.947,0.587h-0.042h-0.351c-0.024,0-0.042-0.019-0.042-0.042v-1.25c0-0.023,0.019-0.043,0.042-0.043
				h0.394c0.274,0,0.557,0.034,0.743,0.186c0.015,0.013,0.031,0.026,0.045,0.042c0.101,0.104,0.163,0.252,0.163,0.466
				C166.426,30.202,166.424,30.219,166.422,30.237z"/>
			<g>
				<path fill="#313331" d="M170.724,27.707c0-0.023-0.019-0.042-0.043-0.042h-1.235c-0.023,0-0.042-0.019-0.042-0.042V26.98
					c0-0.023,0.019-0.042,0.042-0.042h3.481c0.024,0,0.043,0.019,0.043,0.042v0.642c0,0.024-0.02,0.042-0.043,0.042h-1.235
					c-0.024,0-0.042,0.02-0.042,0.042v3.801c0,0.023-0.019,0.043-0.043,0.043h-0.838c-0.024,0-0.043-0.02-0.043-0.043V27.707z"/>
			</g>
			<g>
				<path fill="#313331" d="M173.428,26.98c0-0.023,0.02-0.042,0.043-0.042h0.839c0.023,0,0.042,0.019,0.042,0.042v4.527
					c0,0.023-0.02,0.043-0.042,0.043h-0.839c-0.023,0-0.043-0.02-0.043-0.043V26.98z"/>
			</g>
			<g>
				<path fill="#313331" d="M177.328,26.859c1.445,0,2.257,0.978,2.257,2.373c0,1.394-0.798,2.398-2.257,2.398
					c-1.48,0-2.259-0.985-2.259-2.398C175.069,27.817,175.861,26.859,177.328,26.859z M177.328,30.903
					c0.944,0,1.293-0.839,1.293-1.672c0-0.813-0.376-1.646-1.293-1.646c-0.918,0-1.294,0.832-1.294,1.646
					C176.034,30.064,176.383,30.903,177.328,30.903z"/>
			</g>
			<g>
				<path fill="#313331" d="M180.335,26.98c0-0.023,0.02-0.042,0.043-0.042h1.05c0.024,0,0.05,0.018,0.062,0.039l1.718,3.373
					c0.011,0.021,0.022,0.039,0.027,0.039c0.003,0,0.006-0.019,0.006-0.042V26.98c0-0.023,0.019-0.042,0.042-0.042h0.8
					c0.024,0,0.042,0.019,0.042,0.042v4.527c0,0.023-0.019,0.043-0.042,0.043h-1.044c-0.024,0-0.051-0.017-0.063-0.039l-1.724-3.374
					c-0.011-0.021-0.022-0.038-0.027-0.038c-0.003,0-0.006,0.02-0.006,0.043v3.363c0,0.023-0.019,0.043-0.042,0.043h-0.799
					c-0.024,0-0.043-0.02-0.043-0.043V26.98z"/>
			</g>
			<g>
				<path fill="#313331" d="M190.755,26.98c0-0.023,0.02-0.042,0.043-0.042h2.636c0.023,0,0.042,0.019,0.042,0.042v0.642
					c0,0.024-0.02,0.042-0.042,0.042h-1.711c-0.024,0-0.043,0.02-0.043,0.042v1.052c0,0.023,0.019,0.042,0.043,0.042h1.559
					c0.023,0,0.042,0.02,0.042,0.043v0.641c0,0.023-0.02,0.042-0.042,0.042h-1.559c-0.024,0-0.043,0.02-0.043,0.042v1.21
					c0,0.023,0.019,0.042,0.043,0.042h1.723c0.024,0,0.043,0.019,0.043,0.043v0.641c0,0.023-0.019,0.043-0.043,0.043h-2.647
					c-0.023,0-0.043-0.02-0.043-0.043V26.98z"/>
			</g>
			<path fill="#313331" d="M190.088,30.759c0-0.034-0.025-0.035-0.035-0.03c-0.011,0.005-0.016,0.006-0.03,0.011
				c-0.231,0.097-0.617,0.163-0.947,0.163c-0.984,0-1.566-0.708-1.566-1.646c0-0.06,0.003-0.117,0.007-0.174
				c0.013-0.162,0.044-0.314,0.091-0.457c0.206-0.619,0.724-1.041,1.448-1.041h0.001c0.298,0,0.586,0.039,0.897,0.193
				c0.024,0.012,0.043,0.025,0.063,0.034c0.02,0.01,0.035,0.004,0.039-0.025c0.002-0.02,0.058-0.684,0.059-0.702
				c0.001-0.018-0.003-0.039-0.024-0.046c-0.021-0.007-0.059-0.021-0.088-0.031c-0.311-0.103-0.657-0.149-0.927-0.149
				c-0.245,0-0.475,0.021-0.689,0.063c-0.208,0.042-0.401,0.103-0.578,0.184c-0.766,0.349-1.221,1.058-1.26,2.072
				c-0.002,0.047-0.003,0.097-0.003,0.146c0,0.049,0.001,0.097,0.003,0.144c0.004,0.094,0.012,0.186,0.024,0.273
				c0.006,0.044,0.012,0.087,0.021,0.129c0.02,0.112,0.047,0.217,0.081,0.318c0.32,0.972,1.217,1.442,2.401,1.442
				c0.087,0,0.175-0.004,0.265-0.012c0.228-0.02,0.458-0.061,0.678-0.109c0.021-0.004,0.04-0.008,0.068-0.017
				c0.028-0.007,0.04-0.011,0.038-0.046C190.123,31.398,190.089,30.789,190.088,30.759z"/>
			<g>
				<path fill="#313331" d="M194.331,26.98c0-0.023,0.019-0.042,0.043-0.042h1.05c0.023,0,0.052,0.018,0.062,0.039l1.718,3.373
					c0.011,0.021,0.022,0.039,0.026,0.039c0.004,0,0.007-0.019,0.007-0.042V26.98c0-0.023,0.019-0.042,0.043-0.042h0.799
					c0.023,0,0.042,0.019,0.042,0.042v4.527c0,0.023-0.02,0.043-0.042,0.043h-1.044c-0.023,0-0.051-0.017-0.062-0.039l-1.725-3.374
					c-0.01-0.021-0.022-0.038-0.026-0.038c-0.003,0-0.006,0.02-0.006,0.043v3.363c0,0.023-0.02,0.043-0.043,0.043h-0.799
					c-0.024,0-0.043-0.02-0.043-0.043V26.98z"/>
			</g>
			<g>
				<path fill="#313331" d="M199.934,27.707c0-0.023-0.019-0.042-0.042-0.042h-1.236c-0.023,0-0.042-0.019-0.042-0.042V26.98
					c0-0.023,0.019-0.042,0.042-0.042h3.481c0.023,0,0.043,0.019,0.043,0.042v0.642c0,0.024-0.02,0.042-0.043,0.042h-1.235
					c-0.024,0-0.043,0.02-0.043,0.042v3.801c0,0.023-0.019,0.043-0.042,0.043h-0.839c-0.024,0-0.043-0.02-0.043-0.043V27.707z"/>
			</g>
			<g>
				<path fill="#313331" d="M202.718,26.98c0-0.023,0.019-0.042,0.042-0.042h2.636c0.024,0,0.043,0.019,0.043,0.042v0.642
					c0,0.024-0.019,0.042-0.043,0.042h-1.711c-0.023,0-0.042,0.02-0.042,0.042v1.052c0,0.023,0.019,0.042,0.042,0.042h1.558
					c0.024,0,0.043,0.02,0.043,0.043v0.641c0,0.023-0.019,0.042-0.043,0.042h-1.558c-0.023,0-0.042,0.02-0.042,0.042v1.21
					c0,0.023,0.019,0.042,0.042,0.042h1.724c0.023,0,0.042,0.019,0.042,0.043v0.641c0,0.023-0.02,0.043-0.042,0.043h-2.649
					c-0.023,0-0.042-0.02-0.042-0.043V26.98z"/>
			</g>
			<path fill="#313331" d="M208.968,29.746c-0.091-0.201-0.234-0.447-0.479-0.472c-0.006-0.007-0.01-0.012-0.01-0.016
				c0.588-0.079,0.951-0.528,0.951-1.071c0-1.237-1.102-1.25-2.07-1.249c-0.035-0.001-0.06-0.001-0.06-0.001
				c-0.023,0.001-0.062,0.001-0.085,0.001h-0.912c-0.024,0-0.043,0.019-0.043,0.042v4.527c0,0.023,0.019,0.043,0.043,0.043h0.839
				c0.023,0,0.042-0.02,0.042-0.043v-1.831c0-0.023,0.02-0.043,0.043-0.043h0.254c0.389,0,0.508,0.133,0.641,0.476l0.277,0.72
				l0.276,0.721h0.043h0.945c0.023,0,0.035-0.018,0.026-0.04l0,0L208.968,29.746z M207.489,28.907h-0.043h-0.217
				c-0.024,0-0.043-0.019-0.043-0.042v-1.157c0-0.023,0.02-0.042,0.043-0.042h0.26c0.462,0,0.978,0.047,0.978,0.602
				c0,0.039-0.006,0.076-0.014,0.11C208.386,28.845,207.912,28.907,207.489,28.907z"/>
			<g>
				<path fill="#313331" d="M210.238,30.661c0.007-0.023,0.031-0.041,0.054-0.041h0.872c0.023,0,0.037,0.018,0.028,0.04
					l-0.572,1.572c-0.008,0.022-0.035,0.041-0.058,0.041h-0.694c-0.023,0-0.038-0.019-0.032-0.042l0.171-0.672L210.238,30.661z"/>
			</g>
			<g>
				<path fill="#313331" d="M213.551,26.98c0-0.023,0.019-0.042,0.043-0.042h0.839c0.023,0,0.042,0.019,0.042,0.042v1.778
					c0,0.023,0.019,0.042,0.042,0.042h1.764c0.023,0,0.042-0.019,0.042-0.042V26.98c0-0.023,0.019-0.042,0.043-0.042h0.839
					c0.023,0,0.042,0.019,0.042,0.042v4.527c0,0.023-0.019,0.043-0.042,0.043h-0.839c-0.024,0-0.043-0.02-0.043-0.043v-1.937
					c0-0.023-0.019-0.042-0.042-0.042h-1.764c-0.024,0-0.042,0.02-0.042,0.042v1.937c0,0.023-0.02,0.043-0.042,0.043h-0.839
					c-0.024,0-0.043-0.02-0.043-0.043V26.98z"/>
			</g>
			<g>
				<path fill="#313331" d="M219.352,26.977c0.009-0.021,0.036-0.039,0.059-0.039h0.958c0.023,0,0.05,0.018,0.059,0.039l1.779,4.535
					c0.008,0.022-0.004,0.04-0.027,0.04h-0.938c-0.023,0-0.05-0.018-0.059-0.04l-0.366-0.978c-0.008-0.022-0.034-0.04-0.058-0.04
					h-1.784c-0.024,0-0.05,0.018-0.058,0.04l-0.373,0.978c-0.009,0.022-0.035,0.04-0.058,0.04h-0.874
					c-0.022,0-0.035-0.018-0.026-0.04L219.352,26.977z M219.891,27.903c-0.008-0.021-0.017-0.04-0.021-0.04s-0.013,0.019-0.021,0.04
					l-0.638,1.823c-0.008,0.022,0.005,0.041,0.028,0.041h1.263c0.023,0,0.036-0.019,0.029-0.041L219.891,27.903z"/>
			</g>
			<g>
				<path fill="#313331" d="M222.649,26.98c0-0.023,0.021-0.042,0.043-0.042h0.839c0.023,0,0.042,0.019,0.042,0.042v3.801
					c0,0.023,0.02,0.042,0.043,0.042h1.704c0.024,0,0.043,0.019,0.043,0.043v0.641c0,0.023-0.019,0.043-0.043,0.043h-2.628
					c-0.023,0-0.043-0.02-0.043-0.043V26.98z"/>
			</g>
			<g>
				<path fill="#313331" d="M225.679,26.98c0-0.023,0.02-0.042,0.043-0.042h0.839c0.023,0,0.042,0.019,0.042,0.042v3.801
					c0,0.023,0.019,0.042,0.043,0.042h1.704c0.024,0,0.043,0.019,0.043,0.043v0.641c0,0.023-0.02,0.043-0.043,0.043h-2.628
					c-0.023,0-0.043-0.02-0.043-0.043V26.98z"/>
			</g>
			<path fill="#313331" d="M233.03,30.824c0,0-1.389,0-1.553,0c-0.048,0-0.18,0.001-0.219,0.001c-0.048,0-0.031-0.033-0.019-0.047
				c0.022-0.021,0.034-0.036,0.056-0.057c0.735-0.719,1.631-1.582,1.631-2.513c0-0.906-0.568-1.349-1.447-1.349
				c-0.045,0-0.095,0.003-0.148,0.009c-0.394,0.021-0.791,0.119-1.146,0.286c-0.007,0.004-0.024,0.011-0.034,0.019
				c-0.016,0.009-0.036,0.019-0.035,0.06v0l0.057,0.603c0,0,0.004,0.043,0.005,0.059c0.006,0.041,0.027,0.05,0.059,0.029
				c0.027-0.018,0.054-0.034,0.082-0.051c0.277-0.161,0.595-0.286,0.93-0.286c0.376,0,0.752,0.198,0.752,0.622
				c0,0.025-0.003,0.054-0.005,0.081c-0.069,0.521-0.758,1.3-1.299,1.842c-0.361,0.363-0.658,0.619-0.658,0.619
				c-0.018,0.016-0.033,0.048-0.033,0.071v0.688c0,0.023,0.02,0.043,0.044,0.043h2.979c0.023,0,0.042-0.02,0.042-0.043v-0.641
				C233.073,30.843,233.053,30.824,233.03,30.824z"/>
		</g>
	</g>
	<g>
		<g>
			<g>
				<g>
					<g>
						<polygon fill="#1A344E" points="37.393,17.181 34.266,14.17 31.138,17.181 						"/>
						<polygon fill="#1A344E" points="51.863,17.181 48.738,14.17 45.611,17.181 						"/>
						<polygon fill="#1A344E" points="22.924,17.181 19.798,14.17 16.67,17.181 						"/>
						<polygon fill="#1A344E" points="66.331,17.181 63.205,14.17 60.078,17.181 						"/>
						<polygon fill="#1A344E" points="80.801,17.181 77.675,14.17 74.547,17.181 						"/>
						<polygon fill="#009CB0" points="77.675,14.17 74.056,10.685 70.439,7.203 73.302,14.17 						"/>
						<polygon fill="#009CB0" points="63.205,14.17 59.588,10.685 55.97,7.203 58.833,14.17 						"/>
						<polygon fill="#009CB0" points="48.738,14.17 45.118,10.685 41.501,7.203 44.363,14.17 						"/>
						<g>
							<g>
								<polygon fill="#009CB0" points="34.266,14.17 30.648,10.685 27.031,7.203 29.896,14.17 								"/>
								<g>
									<polygon fill="#6CC2AF" points="70.439,7.203 66.822,10.685 63.205,14.17 67.576,14.17 70.439,14.17 73.302,14.17 
																			"/>
									<polygon fill="#6CC2AF" points="52.354,10.685 48.738,14.17 53.109,14.17 58.833,14.17 55.97,7.203 									"/>
									<polygon fill="#6CC2AF" points="37.885,10.685 34.266,14.17 38.638,14.17 44.363,14.17 41.501,7.203 									"/>
									<polygon fill="#6CC2AF" points="23.416,10.685 19.798,14.17 24.167,14.17 29.896,14.17 27.031,7.203 									"/>
								</g>
							</g>
							<g>
								<polygon fill="#006183" points="73.302,14.17 70.439,14.17 67.576,14.17 63.205,14.17 66.331,17.181 66.338,17.181 
									70.412,17.181 70.423,17.181 70.439,17.164 70.439,17.181 74.538,17.181 74.547,17.181 77.675,14.17 								"/>
								<polygon fill="#006183" points="53.109,14.17 48.738,14.17 51.863,17.181 51.87,17.181 55.943,17.181 55.954,17.181 
									60.069,17.181 60.078,17.181 63.205,14.17 58.833,14.17 								"/>
								<polygon fill="#006183" points="38.638,14.17 34.266,14.17 37.393,17.181 37.4,17.181 41.475,17.181 41.484,17.181 
									45.602,17.181 45.611,17.181 48.738,14.17 44.363,14.17 								"/>
								<polygon fill="#006183" points="24.167,14.17 19.798,14.17 22.924,17.181 22.932,17.181 27.004,17.181 27.017,17.181 
									31.132,17.181 31.138,17.181 34.266,14.17 29.896,14.17 								"/>
							</g>
						</g>
					</g>
					<polygon fill="#009CB0" points="12.563,7.203 19.798,14.17 16.67,17.181 					"/>
					<polygon fill="#009CB0" points="80.801,17.181 77.675,14.17 84.909,7.203 					"/>
				</g>
			</g>
		</g>
		<g>
			<rect x="11.316" y="17.181" fill="#888E88" width="74.839" height="2.495"/>
		</g>
		<g>
			<rect x="11.316" y="22.17" fill="#888E88" width="74.839" height="2.495"/>
		</g>
		<g>
			<rect x="11.316" y="27.16" fill="#888E88" width="74.839" height="2.495"/>
		</g>
		<g>
			<rect x="11.316" y="32.149" fill="#888E88" width="74.839" height="2.495"/>
		</g>
		<g>
			<rect x="11.316" y="5.956" fill="#888E88" width="74.839" height="1.247"/>
		</g>
	</g>
</g>
</svg>
