<?xml version="1.0" standalone="no"?>
<!DOCTYPE svg PUBLIC "-//W3C//DTD SVG 20010904//EN"
 "http://www.w3.org/TR/2001/REC-SVG-20010904/DTD/svg10.dtd">
<svg version="1.0" xmlns="http://www.w3.org/2000/svg"
 width="119.000000pt" height="42.000000pt" viewBox="0 0 119.000000 42.000000"
 preserveAspectRatio="xMidYMid meet">
<metadata>
Created by potrace 1.15, written by Peter Selinger 2001-2017
</metadata>
<g transform="translate(0.000000,42.000000) scale(0.100000,-0.100000)"
fill="#000000" stroke="none">
<path d="M669 362 c-13 -2 -17 -14 -16 -52 1 -45 2 -48 23 -40 12 5 31 6 43 3
19 -5 20 -2 14 27 -4 24 -3 31 5 26 7 -4 12 -18 12 -31 0 -23 2 -24 95 -24 55
0 95 4 95 9 0 6 -4 10 -10 10 -5 0 -10 9 -10 19 0 11 -8 22 -17 24 -14 4 -12
5 5 6 42 2 22 21 -23 21 -25 0 -45 -4 -45 -10 0 -5 8 -10 18 -10 12 0 14 -2 4
-8 -7 -5 -10 -16 -6 -25 3 -9 1 -17 -4 -17 -6 0 -14 16 -18 35 -3 19 -9 35
-13 36 -33 6 -71 5 -71 -1 0 -4 -15 -5 -32 -1 -18 4 -40 5 -49 3z"/>
<path d="M246 251 c-10 -11 -15 -25 -11 -31 5 -8 1 -10 -11 -6 -26 8 -53 -32
-32 -46 10 -7 10 -11 1 -15 -28 -11 3 -58 31 -47 12 5 15 2 10 -10 -3 -8 2
-23 11 -33 16 -15 18 -16 29 -1 11 15 13 15 22 0 10 -15 12 -15 28 1 10 10 15
25 12 33 -5 12 -2 15 10 10 28 -11 59 35 32 48 -10 5 -10 7 0 12 27 13 -4 59
-32 48 -11 -4 -15 -2 -11 8 3 8 -3 22 -14 32 -19 17 -21 17 -27 2 -6 -15 -7
-15 -18 -1 -11 15 -13 14 -30 -4z"/>
<path d="M678 253 c-29 -5 -37 -17 -15 -27 10 -5 10 -7 0 -12 -7 -3 -13 -14
-13 -24 0 -10 6 -21 13 -24 10 -5 10 -7 0 -12 -7 -3 -13 -10 -13 -16 0 -11
152 -6 189 7 18 6 22 5 16 -4 -5 -9 1 -12 21 -9 28 3 29 4 29 63 l0 60 -62 2
c-35 0 -63 -1 -63 -4 0 -3 8 -12 18 -19 16 -13 16 -14 0 -8 -21 7 -25 -14 -4
-22 11 -4 11 -10 2 -30 -19 -40 -33 -28 -30 26 1 33 -2 50 -9 50 -7 0 -21 2
-32 4 -11 2 -32 1 -47 -1z"/>
<path d="M920 251 c0 -5 8 -12 18 -14 16 -4 16 -5 0 -6 -20 -1 -26 -51 -7 -51
7 0 5 -10 -6 -26 -21 -32 -12 -43 15 -19 11 10 20 13 20 7 0 -7 7 -12 15 -12
8 0 15 5 15 11 0 8 4 8 13 2 6 -6 49 -10 94 -11 l81 -1 0 54 c0 40 -4 55 -14
55 -8 0 -14 4 -14 9 0 4 -19 7 -42 6 -60 -4 -58 -3 -58 -21 0 -8 -5 -12 -10
-9 -6 4 -8 10 -5 15 3 4 -5 10 -18 14 -34 9 -97 7 -97 -3z"/>
</g>
</svg>
