<?xml version="1.0" encoding="utf-8"?>
<!-- Generator: Adobe Illustrator 16.0.3, SVG Export Plug-In . SVG Version: 6.00 Build 0)  -->
<!DOCTYPE svg PUBLIC "-//W3C//DTD SVG 1.1//EN" "http://www.w3.org/Graphics/SVG/1.1/DTD/svg11.dtd">
<svg version="1.1" id="圖層_1" xmlns="http://www.w3.org/2000/svg" xmlns:xlink="http://www.w3.org/1999/xlink" x="0px" y="0px"
	 width="24px" height="24px" viewBox="0 0 24 24" enable-background="new 0 0 24 24" xml:space="preserve">
<circle fill="#2DA4C5" cx="12.05" cy="12.128" r="9.849"/>
<path fill="none" stroke="#FFFFFF" stroke-miterlimit="10" d="M14.482,12.11c0.121,0.122,0.121,0.319,0,0.44l0,0
	c-0.122,0.122-0.319,0.122-0.441,0l-3.523-3.524c-0.122-0.122-0.122-0.318,0-0.44l0,0c0.122-0.122,0.319-0.122,0.44,0L14.482,12.11z
	"/>
<path fill="none" stroke="#FFFFFF" stroke-miterlimit="10" d="M14.041,12.117c0.122-0.122,0.319-0.122,0.441,0l0,0
	c0.121,0.122,0.121,0.319,0,0.441l-3.524,3.524c-0.122,0.121-0.319,0.121-0.441,0l0,0c-0.122-0.122-0.122-0.318,0-0.44
	L14.041,12.117z"/>
</svg>
