<?xml version="1.0" encoding="utf-8"?>
<!-- Generator: Adobe Illustrator 16.0.3, SVG Export Plug-In . SVG Version: 6.00 Build 0)  -->
<!DOCTYPE svg PUBLIC "-//W3C//DTD SVG 1.1//EN" "http://www.w3.org/Graphics/SVG/1.1/DTD/svg11.dtd">
<svg version="1.1" id="圖層_1" xmlns="http://www.w3.org/2000/svg" xmlns:xlink="http://www.w3.org/1999/xlink" x="0px" y="0px"
	 width="24px" height="24px" viewBox="0 0 24 24" enable-background="new 0 0 24 24" xml:space="preserve">
<path fill="#FFFFFF" d="M19,6.063C19,6.58,18.58,7,18.063,7H4.938C4.42,7,4,6.58,4,6.063V5.938C4,5.42,4.42,5,4.938,5h13.125
	C18.58,5,19,5.42,19,5.938V6.063z"/>
<path fill="#FFFFFF" d="M15,12.063C15,12.58,14.58,13,14.063,13H4.938C4.42,13,4,12.58,4,12.063v-0.125C4,11.42,4.42,11,4.938,11
	h9.125C14.58,11,15,11.42,15,11.938V12.063z"/>
<path fill="#FFFFFF" d="M19,18.063C19,18.58,18.58,19,18.063,19H4.938C4.42,19,4,18.58,4,18.063v-0.125C4,17.42,4.42,17,4.938,17
	h13.125C18.58,17,19,17.42,19,17.938V18.063z"/>
</svg>
