<?xml version="1.0" encoding="utf-8"?>
<!-- Generator: Adobe Illustrator 16.0.3, SVG Export Plug-In . SVG Version: 6.00 Build 0)  -->
<!DOCTYPE svg PUBLIC "-//W3C//DTD SVG 1.1//EN" "http://www.w3.org/Graphics/SVG/1.1/DTD/svg11.dtd">
<svg version="1.1" id="圖層_1" xmlns="http://www.w3.org/2000/svg" xmlns:xlink="http://www.w3.org/1999/xlink" x="0px" y="0px"
	 width="24px" height="24px" viewBox="0 0 24 24" enable-background="new 0 0 24 24" xml:space="preserve">
<g>
	<path fill-rule="evenodd" clip-rule="evenodd" fill="#FFFFFF" d="M5.616,11.372c0.029-0.255,0.046-0.505,0.094-0.749
		c0.032-0.171,0.092-0.342,0.168-0.498c0.169-0.34,0.46-0.51,0.834-0.534c0.393-0.026,0.762,0.046,1.096,0.302
		c0-0.046-0.001-0.076,0-0.106c0.011-0.335,0.019-0.67,0.036-1.004c0.005-0.086,0.034-0.173,0.063-0.256
		c0.165-0.497,0.55-0.672,1.071-0.624c0.565,0.054,0.903,0.385,1.088,0.897c0.056,0.157,0.094,0.321,0.143,0.49
		c0.092-0.023,0.191-0.046,0.287-0.078c0.021-0.008,0.038-0.049,0.045-0.077c0.079-0.332,0.154-0.664,0.233-0.996
		c0.073-0.304,0.163-0.6,0.318-0.875c0.415-0.743,1.603-0.741,2.016,0.004c0.179,0.321,0.268,0.669,0.35,1.021
		c0.066,0.286,0.134,0.572,0.198,0.858c0.014,0.058,0.038,0.089,0.099,0.104c0.119,0.03,0.235,0.071,0.364,0.111
		c0.015-0.073,0.023-0.147,0.047-0.218c0.067-0.2,0.12-0.409,0.215-0.595c0.267-0.521,0.74-0.699,1.265-0.646
		c0.476,0.048,0.735,0.317,0.833,0.82c0.066,0.344,0.057,0.691,0.045,1.038c-0.002,0.038-0.004,0.076-0.006,0.125
		c0.028-0.017,0.048-0.027,0.066-0.039c0.395-0.266,0.827-0.325,1.281-0.211c0.34,0.084,0.539,0.33,0.662,0.645
		c0.132,0.337,0.155,0.692,0.172,1.049c0.001,0.031,0,0.063,0,0.082c0.194-0.064,0.378-0.146,0.57-0.187
		c0.397-0.086,0.797-0.075,1.187,0.046c0.545,0.168,0.842,0.563,0.985,1.094c0.085,0.313,0.114,0.632,0.116,0.953
		c0.005,0.643-0.032,1.285-0.138,1.918c-0.174,1.037-0.743,1.789-1.708,2.221c-0.513,0.229-1.039,0.426-1.552,0.652
		c-0.505,0.223-1.024,0.393-1.559,0.525c-0.614,0.152-1.236,0.262-1.862,0.346c-1.008,0.135-2.021,0.203-3.037,0.18
		c-0.725-0.016-1.444-0.08-2.161-0.186c-0.714-0.105-1.422-0.238-2.11-0.451c-0.409-0.127-0.81-0.281-1.209-0.438
		c-0.405-0.158-0.804-0.328-1.205-0.498c-0.396-0.168-0.78-0.357-1.1-0.656c-0.517-0.48-0.813-1.076-0.907-1.77
		c-0.082-0.609-0.131-1.223-0.124-1.838c0.005-0.393,0.043-0.782,0.18-1.154c0.219-0.593,0.656-0.899,1.27-0.974
		C4.776,11.143,5.209,11.176,5.616,11.372z M10.383,9.743c-0.272,0.088-0.509,0.195-0.674,0.421
		c-0.654,0.892-1.309,1.783-1.963,2.675c-0.732,1-1.465,1.998-2.197,2.996c-0.076,0.105-0.086,0.172-0.003,0.271
		c0.083,0.102,0.178,0.197,0.285,0.273c0.415,0.291,0.886,0.469,1.365,0.625c0.879,0.289,1.781,0.475,2.699,0.59
		c0.625,0.08,1.252,0.127,1.883,0.137c0.975,0.014,1.946-0.043,2.912-0.176c0.785-0.105,1.561-0.254,2.319-0.482
		c0.432-0.129,0.858-0.271,1.244-0.51c0.134-0.082,0.26-0.184,0.367-0.299c0.124-0.131,0.111-0.236-0.005-0.375
		c-0.027-0.031-0.054-0.063-0.078-0.096c-0.5-0.68-0.999-1.361-1.498-2.041c-0.879-1.199-1.757-2.396-2.637-3.593
		c-0.143-0.194-0.344-0.304-0.581-0.386c0.013,0.053,0.021,0.092,0.03,0.131c0.03,0.122,0.066,0.244,0.092,0.367
		c0.037,0.184-0.043,0.312-0.204,0.341c-0.278,0.049-0.504-0.103-0.564-0.38c-0.041-0.189-0.085-0.378-0.123-0.568
		c-0.01-0.049-0.03-0.07-0.08-0.072c-0.215-0.012-0.429-0.036-0.644-0.037c-0.388-0.001-0.774,0.012-1.157,0.019
		c-0.014,0.045-0.021,0.067-0.026,0.09c-0.043,0.191-0.086,0.384-0.128,0.576c-0.044,0.2-0.16,0.331-0.366,0.369
		c-0.314,0.061-0.466-0.102-0.386-0.41C10.303,10.052,10.34,9.907,10.383,9.743z M12.097,9.132c0.066-0.097,0.126-0.178,0.176-0.264
		c0.022-0.037,0.037-0.087,0.032-0.129c-0.021-0.202-0.051-0.402-0.077-0.604c-0.035-0.273-0.069-0.547-0.104-0.82
		c0.028-0.016,0.053-0.026,0.074-0.041c0.07-0.048,0.101-0.141,0.075-0.228c-0.022-0.077-0.098-0.137-0.177-0.135
		c-0.085,0.003-0.144,0.05-0.172,0.129c-0.029,0.082-0.005,0.194,0.069,0.227c0.089,0.039,0.072,0.099,0.063,0.164
		c-0.057,0.432-0.113,0.862-0.169,1.293c-0.004,0.034-0.008,0.076,0.008,0.103C11.956,8.927,12.023,9.023,12.097,9.132z"/>
	<path fill-rule="evenodd" clip-rule="evenodd" fill="#FFFFFF" d="M5.474,9.396c-0.014,0.419-0.185,0.825-0.565,1.125
		c-0.579,0.456-1.375,0.354-1.846-0.23C2.616,9.736,2.625,8.895,3.084,8.35c0.621-0.737,1.729-0.618,2.198,0.235
		C5.407,8.813,5.475,9.076,5.474,9.396z"/>
	<path fill-rule="evenodd" clip-rule="evenodd" fill="#FFFFFF" d="M18.858,9.22c0.011-0.396,0.201-0.82,0.622-1.119
		c0.56-0.396,1.308-0.29,1.756,0.237c0.525,0.619,0.472,1.561-0.122,2.115c-0.609,0.569-1.57,0.428-2.024-0.3
		C18.936,9.907,18.858,9.633,18.858,9.22z"/>
	<path fill-rule="evenodd" clip-rule="evenodd" fill="#FFFFFF" d="M18.725,8.094c-0.008,0.403-0.159,0.739-0.489,0.978
		c-0.47,0.339-1.076,0.24-1.445-0.223c-0.366-0.462-0.334-1.169,0.073-1.595c0.526-0.551,1.398-0.402,1.736,0.294
		C18.683,7.721,18.726,7.902,18.725,8.094z"/>
	<path fill-rule="evenodd" clip-rule="evenodd" fill="#FFFFFF" d="M7.794,8.092C7.79,8.472,7.651,8.793,7.355,9.034
		C6.903,9.4,6.283,9.337,5.901,8.897C5.497,8.431,5.506,7.721,5.92,7.268C6.438,6.7,7.338,6.848,7.673,7.555
		C7.753,7.725,7.795,7.904,7.794,8.092z"/>
	<path fill-rule="evenodd" clip-rule="evenodd" fill="#FFFFFF" d="M11.173,5.521c0.023-0.307,0.133-0.565,0.367-0.764
		c0.37-0.312,0.904-0.264,1.225,0.106c0.315,0.363,0.328,0.928,0.024,1.301c-0.216,0.265-0.498,0.387-0.836,0.328
		c-0.347-0.061-0.577-0.278-0.699-0.604C11.211,5.772,11.199,5.644,11.173,5.521z"/>
	<path fill-rule="evenodd" clip-rule="evenodd" fill="#FFFFFF" d="M8.034,6.662C8.054,6.357,8.159,6.1,8.385,5.899
		C8.735,5.586,9.259,5.61,9.588,5.948c0.351,0.359,0.379,0.948,0.066,1.341c-0.441,0.553-1.271,0.417-1.53-0.253
		C8.078,6.917,8.063,6.787,8.034,6.662z"/>
	<path fill-rule="evenodd" clip-rule="evenodd" fill="#FFFFFF" d="M14.445,6.658c0.019-0.318,0.134-0.583,0.378-0.783
		c0.348-0.287,0.85-0.255,1.169,0.069c0.355,0.359,0.388,0.954,0.068,1.346c-0.213,0.262-0.49,0.386-0.826,0.331
		c-0.355-0.06-0.589-0.279-0.712-0.612C14.481,6.897,14.47,6.775,14.445,6.658z"/>
</g>
</svg>
