<?xml version="1.0" encoding="utf-8"?>
<!-- Generator: Adobe Illustrator 16.0.3, SVG Export Plug-In . SVG Version: 6.00 Build 0)  -->
<!DOCTYPE svg PUBLIC "-//W3C//DTD SVG 1.1//EN" "http://www.w3.org/Graphics/SVG/1.1/DTD/svg11.dtd">
<svg version="1.1" id="圖層_1" xmlns="http://www.w3.org/2000/svg" xmlns:xlink="http://www.w3.org/1999/xlink" x="0px" y="0px"
	 width="24px" height="24px" viewBox="0 0 24 24" enable-background="new 0 0 24 24" xml:space="preserve">
<g>
	<path fill-rule="evenodd" clip-rule="evenodd" fill="#FFFFFF" d="M2.029,15.445c0.304-0.342,0.589-0.704,0.92-1.017
		c0.187-0.176,0.398-0.134,0.608,0.083c0.599,0.619,1.315,0.743,2.126,0.443c0.159-0.06,0.409-0.063,0.54,0.026
		c1.117,0.744,2.033,1.624,1.904,3.134c-0.01,0.122,0.044,0.251,0.069,0.376c0.061-0.004,0.123-0.007,0.184-0.011
		c0-0.322,0.024-0.645-0.005-0.964c-0.079-0.851,0.335-1.413,1.033-1.803c0.305-0.171,0.64-0.292,0.967-0.419
		c0.336-0.132,0.651-0.143,1.003,0.04c0.52,0.268,1.067,0.197,1.608-0.026c0.196-0.082,0.458-0.118,0.656-0.062
		c0.43,0.126,0.861,0.289,1.252,0.506c0.665,0.368,1.048,0.924,0.977,1.731c-0.026,0.324-0.004,0.651-0.004,0.979
		c0.056,0.005,0.111,0.011,0.166,0.015c0.021-0.157,0.066-0.317,0.058-0.475c-0.066-1.509,0.889-2.352,2.011-3.077
		c0.097-0.063,0.288-0.035,0.41,0.012c0.822,0.331,1.533,0.182,2.186-0.413c0.118-0.107,0.401-0.153,0.548-0.089
		c1.063,0.469,1.358,1.931,0.509,2.797c-0.457,0.468-1.047,0.846-1.643,1.131c-1.672,0.801-3.481,1.11-5.309,1.282
		c-3.036,0.288-6.046,0.149-8.999-0.67c-0.611-0.17-1.208-0.408-1.791-0.661c-0.848-0.366-1.566-0.899-1.985-1.758
		C2.029,16.186,2.029,15.815,2.029,15.445z"/>
	<path fill-rule="evenodd" clip-rule="evenodd" fill="#FFFFFF" d="M21.563,12.074c-2.316-1.24-3.02-1.471-5.827-1.916
		c-0.181-0.619-0.079-1.023,0.339-1.343c0.506-0.389,1.028-0.436,1.516-0.143c0.453,0.273,0.949,0.385,1.447,0.199
		c0.372-0.138,0.67-0.058,1.006,0.087C21.427,9.558,21.828,10.64,21.563,12.074z"/>
	<path fill-rule="evenodd" clip-rule="evenodd" fill="#FFFFFF" d="M2.643,11.956c0-0.328-0.022-0.731,0.005-1.131
		c0.059-0.896,1.184-1.994,2.094-2.052c0.125-0.008,0.258,0.052,0.385,0.089C5.69,9.028,6.22,8.958,6.717,8.639
		c0.706-0.453,1.829,0.12,1.879,0.958c0.01,0.166,0.001,0.334,0.001,0.49c-1.04,0.235-2.069,0.399-3.054,0.708
		C4.563,11.104,3.625,11.555,2.643,11.956z"/>
	<path fill-rule="evenodd" clip-rule="evenodd" fill="#FFFFFF" d="M15.307,10.015c-2.129,0-4.222,0-6.348,0
		C8.864,9.545,8.953,9.07,9.362,8.737c0.658-0.537,1.342-0.983,2.286-0.65c0.317,0.111,0.744,0.058,1.077-0.051
		C13.921,7.643,15.412,8.771,15.307,10.015z"/>
	<path fill-rule="evenodd" clip-rule="evenodd" fill="#FFFFFF" d="M13.831,13.444c-0.008,0.928-0.793,1.698-1.721,1.69
		c-0.929-0.007-1.701-0.791-1.691-1.72c0.01-0.928,0.795-1.701,1.721-1.692C13.067,11.732,13.84,12.518,13.831,13.444z"/>
	<path fill-rule="evenodd" clip-rule="evenodd" fill="#FFFFFF" d="M6.589,13.113c-0.007,0.928-0.746,1.646-1.68,1.632
		c-0.9-0.013-1.625-0.746-1.629-1.646c-0.003-0.911,0.76-1.675,1.667-1.67C5.867,11.433,6.597,12.182,6.589,13.113z"/>
	<path fill-rule="evenodd" clip-rule="evenodd" fill="#FFFFFF" d="M19.283,14.745c-0.929-0.006-1.646-0.743-1.634-1.68
		c0.014-0.904,0.739-1.629,1.639-1.636c0.91-0.007,1.665,0.748,1.665,1.667C20.953,14.02,20.212,14.752,19.283,14.745z"/>
	<path fill-rule="evenodd" clip-rule="evenodd" fill="#FFFFFF" d="M10.693,6.375c0.008-0.799,0.647-1.431,1.445-1.427
		c0.796,0.003,1.431,0.643,1.434,1.442c0.004,0.812-0.675,1.483-1.474,1.46C11.305,7.827,10.685,7.177,10.693,6.375z"/>
	<path fill-rule="evenodd" clip-rule="evenodd" fill="#FFFFFF" d="M7.196,7.214C7.188,8.012,6.542,8.654,5.751,8.65
		C4.96,8.646,4.318,8,4.315,7.204C4.311,6.381,4.963,5.738,5.786,5.752C6.582,5.765,7.203,6.41,7.196,7.214z"/>
	<path fill-rule="evenodd" clip-rule="evenodd" fill="#FFFFFF" d="M17.055,7.193c0.002-0.803,0.631-1.438,1.431-1.441
		c0.82-0.003,1.464,0.65,1.448,1.474c-0.013,0.793-0.671,1.436-1.457,1.424C17.682,8.638,17.054,7.993,17.055,7.193z"/>
	<path fill-rule="evenodd" clip-rule="evenodd" fill="#FFFFFF" d="M7.692,5.522c0.012-0.698,0.604-1.276,1.3-1.272
		c0.693,0.004,1.283,0.595,1.287,1.288c0.003,0.711-0.621,1.324-1.328,1.301C8.255,6.815,7.68,6.215,7.692,5.522z"/>
	<path fill-rule="evenodd" clip-rule="evenodd" fill="#FFFFFF" d="M16.56,5.536c0.004,0.694-0.576,1.289-1.272,1.303
		c-0.709,0.014-1.325-0.603-1.312-1.314c0.012-0.698,0.604-1.28,1.3-1.275C15.973,4.254,16.556,4.837,16.56,5.536z"/>
	<path fill-rule="evenodd" clip-rule="evenodd" fill="#FFFFFF" d="M10.939,7.667c-0.857,0.268-1.677,0.563-2.093,1.302
		c-0.551-0.302-1.075-0.59-1.609-0.883c0.055-0.174,0.145-0.405,0.2-0.645c0.102-0.436,0.366-0.625,0.771-0.463
		c0.568,0.226,1.097,0.202,1.643-0.075c0.287-0.146,0.583-0.119,0.759,0.23C10.698,7.308,10.815,7.468,10.939,7.667z"/>
	<path fill-rule="evenodd" clip-rule="evenodd" fill="#FFFFFF" d="M17.019,8.093c-0.532,0.283-1.049,0.56-1.61,0.859
		c-0.406-0.7-1.22-1.027-2.1-1.282c0.123-0.189,0.245-0.331,0.315-0.495c0.168-0.385,0.472-0.424,0.783-0.269
		c0.548,0.272,1.075,0.297,1.644,0.07c0.403-0.161,0.671,0.033,0.771,0.471C16.877,7.686,16.964,7.917,17.019,8.093z"/>
</g>
</svg>
