<?xml version="1.0" encoding="utf-8"?>
<!-- Generator: Adobe Illustrator 16.0.3, SVG Export Plug-In . SVG Version: 6.00 Build 0)  -->
<!DOCTYPE svg PUBLIC "-//W3C//DTD SVG 1.1//EN" "http://www.w3.org/Graphics/SVG/1.1/DTD/svg11.dtd">
<svg version="1.1" id="圖層_1" xmlns="http://www.w3.org/2000/svg" xmlns:xlink="http://www.w3.org/1999/xlink" x="0px" y="0px"
	 width="24px" height="24px" viewBox="0 0 24 24" enable-background="new 0 0 24 24" xml:space="preserve">
<g>
	<path fill-rule="evenodd" clip-rule="evenodd" fill="#FFFFFF" d="M14.747,9.583c0.054,0,0.092,0,0.13,0
		c0.078-0.001,0.154-0.002,0.231-0.004c0.069-0.001,0.106-0.035,0.123-0.104c0.043-0.182,0.092-0.362,0.138-0.543
		c0.031-0.127,0.063-0.253,0.087-0.382c0.024-0.129-0.005-0.164-0.133-0.169c-0.17-0.008-0.339-0.016-0.508-0.016
		c-1.735-0.002-3.47-0.002-5.206-0.002c-0.011,0-0.023,0-0.035,0C9.5,8.365,9.446,8.418,9.447,8.492
		c0,0.029,0.006,0.059,0.013,0.088c0.043,0.185,0.086,0.37,0.13,0.555C9.618,9.247,9.649,9.358,9.68,9.47
		c0.019,0.072,0.063,0.111,0.14,0.111c0.083,0,0.167,0.004,0.25,0.007c0.029,0.001,0.058,0.003,0.1,0.006c0,0.386,0,0.768,0,1.145
		c0.145,0.043,0.277,0.083,0.419,0.127c0.005-0.552,0.01-1.096,0.014-1.646c1.242,0,2.471,0,3.712,0c0,0.038,0,0.072,0,0.107
		c0.002,0.466,0.004,0.933,0.005,1.399c0,0.034,0.004,0.067,0.006,0.106c0.147-0.021,0.281-0.039,0.423-0.059
		C14.747,10.376,14.747,9.986,14.747,9.583z M9.804,17.785c0.001-0.021,0.003-0.036,0.003-0.05
		c-0.001-0.442-0.003-0.886-0.005-1.328c0-0.021,0-0.042-0.008-0.061c-0.039-0.098-0.089-0.189-0.176-0.253
		c-0.059-0.045-0.089-0.097-0.104-0.167c-0.055-0.256-0.183-0.469-0.381-0.639c-0.174-0.15-0.375-0.25-0.595-0.312
		c-0.34-0.098-0.689-0.119-1.042-0.104c-0.255,0.012-0.508,0.045-0.753,0.124c-0.474,0.153-0.806,0.445-0.923,0.946
		c-0.014,0.06-0.041,0.109-0.091,0.147c-0.129,0.098-0.189,0.227-0.188,0.392c0.002,0.417-0.005,0.832-0.006,1.248
		c0,0.02,0.006,0.039,0.01,0.061c0.079,0,0.153,0.003,0.227,0c0.076-0.003,0.152,0.008,0.233-0.013c0-0.036,0-0.068,0-0.102
		c0.002-0.265,0.004-0.528,0.008-0.793c0.001-0.11,0.005-0.22,0.01-0.329c0.004-0.083,0.01-0.089,0.095-0.094
		c0.039-0.003,0.077-0.004,0.116-0.004c0.639,0,1.277-0.002,1.916-0.002c0.345,0,0.689,0.001,1.034,0.004
		c0.141,0.002,0.142,0.005,0.144,0.147c0.005,0.356,0.008,0.714,0.012,1.069c0,0.034,0,0.069,0,0.11
		C9.5,17.785,9.648,17.785,9.804,17.785z M19.371,17.784c0.003-0.026,0.005-0.047,0.005-0.066c0.001-0.431,0.001-0.861,0-1.292
		c0-0.021,0.002-0.044-0.006-0.062c-0.046-0.104-0.09-0.209-0.187-0.276C19.128,16.049,19.1,16,19.086,15.936
		c-0.093-0.414-0.349-0.692-0.729-0.865c-0.224-0.103-0.46-0.155-0.703-0.182c-0.314-0.033-0.629-0.027-0.941,0.017
		c-0.261,0.037-0.512,0.105-0.741,0.239c-0.315,0.185-0.508,0.458-0.583,0.814c-0.008,0.044-0.029,0.077-0.063,0.103
		c-0.158,0.117-0.225,0.274-0.224,0.47c0.004,0.392,0.001,0.784,0.002,1.176c0,0.025,0.005,0.052,0.008,0.079
		c0.155,0,0.304,0,0.46,0c0-0.04,0-0.074,0-0.109c0-0.313,0.001-0.623,0.003-0.936c0-0.068,0.005-0.136,0.007-0.205
		c0.001-0.047,0.024-0.07,0.07-0.074c0.045-0.002,0.089-0.006,0.133-0.006c0.505-0.002,1.011-0.003,1.516-0.003
		c0.478,0,0.956,0.001,1.435,0.003c0.165,0.001,0.167,0.004,0.169,0.172c0.001,0.354,0.001,0.707,0.002,1.061
		c0,0.031,0,0.063,0,0.096C19.066,17.784,19.217,17.784,19.371,17.784z M14.579,17.785c0.004-0.02,0.008-0.028,0.008-0.036
		c0-0.452,0.001-0.903,0-1.355c0-0.023-0.006-0.047-0.015-0.068c-0.036-0.089-0.086-0.173-0.164-0.229
		c-0.065-0.048-0.096-0.106-0.112-0.183c-0.074-0.316-0.253-0.56-0.524-0.736c-0.175-0.115-0.369-0.188-0.572-0.235
		c-0.348-0.078-0.701-0.084-1.055-0.063c-0.223,0.013-0.441,0.055-0.652,0.129c-0.458,0.159-0.776,0.451-0.887,0.937
		c-0.013,0.059-0.044,0.102-0.09,0.139c-0.127,0.103-0.193,0.236-0.194,0.402c-0.001,0.404-0.005,0.809-0.008,1.211
		c0,0.029,0.006,0.058,0.009,0.084c0.121,0.018,0.394,0.014,0.464-0.005c0-0.031,0-0.063,0-0.097c0-0.326,0.001-0.653,0.002-0.979
		c0-0.048,0.002-0.095,0.008-0.143c0.011-0.102,0.012-0.102,0.114-0.102c0.787-0.002,1.575-0.003,2.361-0.003
		c0.246,0,0.493,0.001,0.74,0.005c0.101,0.003,0.11,0.016,0.11,0.117c0,0.371,0,0.742,0,1.113c0,0.031,0,0.063,0,0.097
		C14.279,17.785,14.427,17.785,14.579,17.785z M3.619,16.617c0-0.047,0-0.082,0-0.117c0.001-0.36,0.002-0.719,0.005-1.079
		c0-0.049,0.008-0.098,0.013-0.154c0.056-0.003,0.103-0.007,0.149-0.007c0.576-0.005,1.152-0.011,1.728-0.013
		c0.06,0,0.099-0.016,0.135-0.064c0.207-0.276,0.478-0.466,0.796-0.594c0.021-0.008,0.041-0.019,0.061-0.028
		c-0.004-0.012-0.005-0.019-0.008-0.022c-0.174-0.2-0.298-0.428-0.368-0.685c-0.009-0.032-0.028-0.049-0.061-0.056
		c-0.076-0.015-0.149-0.041-0.225-0.05c-0.371-0.037-0.741-0.059-1.111-0.001c-0.248,0.038-0.486,0.106-0.706,0.231
		c-0.287,0.161-0.486,0.396-0.574,0.717c-0.031,0.11-0.07,0.199-0.161,0.274c-0.083,0.068-0.142,0.162-0.142,0.277
		c-0.004,0.433-0.006,0.866-0.009,1.301c0,0.022,0.004,0.045,0.007,0.069C3.307,16.617,3.457,16.617,3.619,16.617z M21.77,16.619
		c0.002-0.037,0.005-0.063,0.005-0.089c-0.002-0.396-0.006-0.791-0.005-1.186c0.001-0.159-0.054-0.294-0.174-0.395
		c-0.075-0.063-0.111-0.14-0.135-0.231c-0.057-0.234-0.181-0.43-0.364-0.589c-0.118-0.103-0.249-0.182-0.394-0.24
		c-0.25-0.101-0.511-0.154-0.779-0.169c-0.36-0.02-0.719-0.014-1.071,0.074c-0.047,0.01-0.068,0.029-0.081,0.076
		c-0.062,0.229-0.17,0.436-0.317,0.623c-0.016,0.02-0.031,0.042-0.046,0.063c0.007,0.007,0.011,0.012,0.017,0.014
		c0.029,0.015,0.059,0.029,0.088,0.041c0.307,0.132,0.569,0.321,0.765,0.594c0.028,0.038,0.06,0.042,0.1,0.042
		c0.263,0,0.523-0.001,0.785,0c0.323,0.002,0.647,0.002,0.972,0.007c0.157,0.003,0.16,0.007,0.161,0.162
		c0.003,0.365,0.004,0.73,0.006,1.097c0,0.034,0.004,0.068,0.006,0.106C21.465,16.619,21.612,16.619,21.77,16.619z M12.443,14.571
		c0.622,0.018,1.122-0.505,1.115-1.108c-0.008-0.613-0.497-1.092-1.116-1.091c-0.565,0.001-1.093,0.481-1.086,1.11
		C11.362,14.16,11.954,14.597,12.443,14.571z M7.662,14.57c0.614,0.014,1.127-0.506,1.11-1.123
		c-0.017-0.622-0.535-1.088-1.124-1.075c-0.601,0.014-1.088,0.509-1.081,1.11C6.577,14.084,7.081,14.583,7.662,14.57z
		 M18.339,13.466c0.004-0.625-0.535-1.104-1.124-1.095c-0.522,0.008-1.073,0.444-1.075,1.105c-0.003,0.63,0.538,1.102,1.092,1.101
		C17.864,14.573,18.352,14.058,18.339,13.466z M6.326,12.316c0.002-0.573-0.467-1.046-1.039-1.048
		c-0.586-0.003-1.055,0.464-1.056,1.05c-0.001,0.568,0.47,1.044,1.035,1.046C5.851,13.365,6.325,12.897,6.326,12.316z M9.024,12.309
		c-0.031,0.571,0.477,1.036,0.981,1.051c0.724,0.021,1.111-0.569,1.105-1.052c-0.006-0.563-0.477-1.045-1.059-1.04
		C9.393,11.273,8.979,11.868,9.024,12.309z M19.632,13.355c0.584,0.02,1.05-0.481,1.045-1.046c-0.007-0.607-0.503-1.048-1.064-1.042
		c-0.528,0.005-1.032,0.462-1.028,1.052C18.588,12.921,19.116,13.39,19.632,13.355z M14.844,13.356
		c0.571,0.023,1.057-0.482,1.051-1.051c-0.007-0.566-0.479-1.04-1.043-1.037c-0.59,0.002-1.053,0.466-1.048,1.056
		C13.808,12.976,14.372,13.384,14.844,13.356z M14.226,7.896c0-0.032,0.001-0.052,0-0.072c-0.011-0.27-0.115-0.5-0.298-0.698
		c-0.229-0.247-0.52-0.378-0.838-0.462c-0.047-0.012-0.076,0.001-0.109,0.034c-0.149,0.153-0.302,0.303-0.452,0.455
		c-0.023,0.023-0.038,0.054-0.06,0.086c-0.042-0.04-0.066-0.062-0.089-0.084c-0.151-0.151-0.304-0.301-0.453-0.454
		c-0.036-0.037-0.068-0.046-0.117-0.034c-0.257,0.065-0.494,0.169-0.701,0.337c-0.199,0.162-0.335,0.368-0.4,0.618
		c-0.023,0.088-0.039,0.178-0.019,0.273C11.868,7.896,13.04,7.896,14.226,7.896z M12.457,9.896c-0.53-0.02-0.981,0.455-0.993,0.96
		c-0.013,0.57,0.477,1.012,0.963,1.02c0.579,0.008,1.018-0.464,1.018-0.991C13.445,10.351,12.998,9.879,12.457,9.896z
		 M16.207,10.887c-0.023,0.448,0.357,0.958,0.929,0.985c0.649,0.031,1.053-0.499,1.051-0.984c-0.003-0.548-0.438-0.99-0.987-0.997
		C16.646,9.885,16.19,10.355,16.207,10.887z M7.716,9.893c-0.547,0-0.983,0.434-0.99,0.971c-0.007,0.577,0.451,0.987,0.936,1.009
		c0.633,0.028,1.048-0.49,1.045-0.98C8.702,10.334,8.272,9.894,7.716,9.893z M13.396,5.415c0.042-0.466-0.409-0.932-0.867-0.954
		c-0.604-0.03-1.008,0.434-1.023,0.913c-0.016,0.523,0.393,0.964,0.91,0.984C12.94,6.379,13.42,5.94,13.396,5.415z M14.937,15.755
		c0.014-0.037,0.024-0.068,0.035-0.099c0.144-0.43,0.418-0.746,0.817-0.955c0.077-0.04,0.155-0.075,0.231-0.114
		c0.017-0.008,0.033-0.02,0.054-0.033c-0.176-0.214-0.31-0.442-0.376-0.708c-0.004-0.018-0.028-0.035-0.048-0.043
		c-0.023-0.012-0.051-0.016-0.077-0.021c-0.304-0.068-0.612-0.082-0.921-0.065c-0.18,0.011-0.358,0.044-0.538,0.067
		c-0.075,0.01-0.118,0.047-0.14,0.125c-0.061,0.22-0.17,0.417-0.313,0.594c-0.015,0.018-0.026,0.038-0.044,0.065
		c0.57,0.216,0.966,0.598,1.142,1.188C14.819,15.755,14.875,15.755,14.937,15.755z M11.293,14.566
		c-0.013-0.021-0.018-0.031-0.025-0.041c-0.16-0.191-0.278-0.407-0.343-0.647c-0.017-0.063-0.059-0.081-0.114-0.095
		c-0.393-0.088-0.79-0.088-1.187-0.048c-0.109,0.012-0.217,0.034-0.325,0.054c-0.054,0.01-0.085,0.038-0.101,0.096
		c-0.057,0.216-0.152,0.412-0.296,0.584c-0.024,0.027-0.046,0.059-0.074,0.094c0.57,0.224,0.979,0.594,1.142,1.192
		c0.045,0,0.083,0,0.122,0c0.021-0.002,0.041-0.006,0.067-0.011C10.328,15.154,10.729,14.782,11.293,14.566z"/>
	<path fill-rule="evenodd" clip-rule="evenodd" fill="#FFFFFF" d="M14.747,9.583c0,0.402,0,0.793,0,1.19
		c-0.142,0.02-0.275,0.038-0.423,0.059c-0.002-0.039-0.006-0.072-0.006-0.106c-0.001-0.467-0.003-0.933-0.005-1.399
		c0-0.035,0-0.069,0-0.107c-1.241,0-2.47,0-3.712,0c-0.004,0.55-0.009,1.094-0.014,1.646c-0.142-0.043-0.274-0.083-0.419-0.127
		c0-0.377,0-0.759,0-1.145c-0.042-0.002-0.07-0.005-0.1-0.006c-0.083-0.003-0.166-0.007-0.25-0.007c-0.077,0-0.121-0.039-0.14-0.111
		C9.649,9.358,9.618,9.247,9.59,9.134C9.546,8.95,9.503,8.765,9.46,8.58C9.453,8.551,9.447,8.521,9.447,8.492
		C9.446,8.418,9.5,8.365,9.574,8.362c0.012,0,0.024,0,0.035,0c1.736,0,3.471,0,5.206,0.002c0.169,0,0.338,0.008,0.508,0.016
		c0.128,0.005,0.157,0.04,0.133,0.169c-0.023,0.128-0.056,0.255-0.087,0.382c-0.046,0.181-0.095,0.362-0.138,0.543
		c-0.017,0.069-0.054,0.103-0.123,0.104c-0.077,0.002-0.153,0.003-0.231,0.004C14.839,9.584,14.801,9.583,14.747,9.583z"/>
	<path fill-rule="evenodd" clip-rule="evenodd" fill="#FFFFFF" d="M9.804,17.785c-0.156,0-0.304,0-0.463,0c0-0.041,0-0.076,0-0.11
		c-0.004-0.355-0.007-0.713-0.012-1.069c-0.001-0.143-0.003-0.146-0.144-0.147c-0.344-0.003-0.689-0.004-1.034-0.004
		c-0.639,0-1.277,0.002-1.916,0.002c-0.039,0-0.077,0.001-0.116,0.004c-0.085,0.005-0.091,0.011-0.095,0.094
		c-0.005,0.109-0.008,0.219-0.01,0.329c-0.003,0.265-0.005,0.528-0.008,0.793c0,0.033,0,0.065,0,0.102
		c-0.081,0.021-0.158,0.01-0.233,0.013c-0.074,0.003-0.148,0-0.227,0c-0.004-0.021-0.01-0.041-0.01-0.061
		c0.001-0.416,0.009-0.831,0.006-1.248c-0.001-0.165,0.059-0.294,0.188-0.392c0.051-0.038,0.077-0.088,0.091-0.147
		c0.117-0.501,0.45-0.793,0.923-0.946c0.245-0.079,0.498-0.112,0.753-0.124c0.352-0.015,0.701,0.007,1.042,0.104
		c0.22,0.062,0.421,0.161,0.595,0.312c0.198,0.17,0.326,0.383,0.381,0.639c0.015,0.07,0.045,0.122,0.104,0.167
		c0.086,0.063,0.137,0.155,0.176,0.253c0.007,0.019,0.008,0.04,0.008,0.061c0.002,0.442,0.004,0.886,0.005,1.328
		C9.808,17.749,9.805,17.765,9.804,17.785z"/>
	<path fill-rule="evenodd" clip-rule="evenodd" fill="#FFFFFF" d="M19.371,17.784c-0.154,0-0.305,0-0.466,0c0-0.032,0-0.064,0-0.096
		c-0.001-0.354-0.001-0.707-0.002-1.061c-0.002-0.168-0.004-0.171-0.169-0.172c-0.479-0.002-0.957-0.003-1.435-0.003
		c-0.505,0-1.011,0.001-1.516,0.003c-0.044,0-0.088,0.004-0.133,0.006c-0.046,0.004-0.069,0.027-0.07,0.074
		c-0.002,0.069-0.007,0.137-0.007,0.205c-0.002,0.313-0.003,0.623-0.003,0.936c0,0.035,0,0.069,0,0.109c-0.156,0-0.305,0-0.46,0
		c-0.003-0.027-0.008-0.054-0.008-0.079c-0.001-0.392,0.002-0.784-0.002-1.176c-0.001-0.195,0.065-0.353,0.224-0.47
		c0.034-0.025,0.056-0.059,0.063-0.103c0.075-0.356,0.268-0.63,0.583-0.814c0.229-0.134,0.48-0.202,0.741-0.239
		c0.313-0.044,0.627-0.05,0.941-0.017c0.243,0.026,0.479,0.079,0.703,0.182c0.38,0.173,0.636,0.451,0.729,0.865
		c0.014,0.064,0.042,0.113,0.098,0.152c0.097,0.067,0.141,0.173,0.187,0.276c0.008,0.018,0.006,0.04,0.006,0.062
		c0.001,0.431,0.001,0.861,0,1.292C19.376,17.737,19.374,17.758,19.371,17.784z"/>
	<path fill-rule="evenodd" clip-rule="evenodd" fill="#FFFFFF" d="M14.579,17.785c-0.152,0-0.3,0-0.457,0c0-0.033,0-0.065,0-0.097
		c0-0.371,0-0.742,0-1.113c0-0.102-0.01-0.114-0.11-0.117c-0.247-0.004-0.494-0.005-0.74-0.005c-0.787,0-1.574,0.001-2.361,0.003
		c-0.102,0-0.103,0-0.114,0.102c-0.006,0.048-0.008,0.095-0.008,0.143c-0.001,0.326-0.002,0.653-0.002,0.979
		c0,0.033,0,0.065,0,0.097c-0.07,0.019-0.343,0.022-0.464,0.005c-0.003-0.026-0.009-0.055-0.009-0.084
		c0.002-0.402,0.006-0.807,0.008-1.211c0.001-0.166,0.067-0.3,0.194-0.402c0.046-0.037,0.078-0.08,0.09-0.139
		c0.111-0.485,0.429-0.777,0.887-0.937c0.211-0.074,0.429-0.116,0.652-0.129c0.354-0.021,0.707-0.016,1.055,0.063
		c0.203,0.047,0.397,0.12,0.572,0.235c0.271,0.177,0.45,0.42,0.524,0.736c0.017,0.076,0.047,0.135,0.112,0.183
		c0.078,0.056,0.128,0.14,0.164,0.229c0.009,0.021,0.015,0.045,0.015,0.068c0.001,0.452,0,0.903,0,1.355
		C14.587,17.757,14.583,17.766,14.579,17.785z"/>
	<path fill-rule="evenodd" clip-rule="evenodd" fill="#FFFFFF" d="M3.619,16.617c-0.162,0-0.312,0-0.469,0
		c-0.003-0.024-0.007-0.047-0.007-0.069c0.002-0.435,0.005-0.868,0.009-1.301c0-0.115,0.06-0.209,0.142-0.277
		c0.091-0.075,0.13-0.164,0.161-0.274c0.088-0.32,0.287-0.556,0.574-0.717c0.22-0.125,0.458-0.193,0.706-0.231
		c0.37-0.058,0.74-0.036,1.111,0.001c0.076,0.009,0.149,0.035,0.225,0.05c0.033,0.007,0.052,0.023,0.061,0.056
		c0.07,0.257,0.193,0.484,0.368,0.685c0.003,0.004,0.004,0.011,0.008,0.022c-0.02,0.01-0.04,0.021-0.061,0.028
		c-0.318,0.128-0.589,0.317-0.796,0.594c-0.036,0.049-0.075,0.064-0.135,0.064c-0.576,0.002-1.152,0.008-1.728,0.013
		c-0.047,0-0.094,0.004-0.149,0.007c-0.005,0.057-0.013,0.105-0.013,0.154c-0.002,0.36-0.003,0.719-0.005,1.079
		C3.619,16.535,3.619,16.57,3.619,16.617z"/>
	<path fill-rule="evenodd" clip-rule="evenodd" fill="#FFFFFF" d="M21.77,16.619c-0.157,0-0.305,0-0.463,0
		c-0.002-0.038-0.006-0.072-0.006-0.106c-0.002-0.366-0.003-0.731-0.006-1.097c-0.001-0.155-0.004-0.159-0.161-0.162
		c-0.324-0.005-0.648-0.005-0.972-0.007c-0.262-0.001-0.522,0-0.785,0c-0.04,0-0.071-0.004-0.1-0.042
		c-0.195-0.272-0.458-0.462-0.765-0.594c-0.029-0.012-0.059-0.026-0.088-0.041c-0.006-0.002-0.01-0.007-0.017-0.014
		c0.015-0.021,0.03-0.043,0.046-0.063c0.147-0.188,0.256-0.394,0.317-0.623c0.013-0.047,0.034-0.066,0.081-0.076
		c0.353-0.088,0.711-0.094,1.071-0.074c0.269,0.015,0.529,0.068,0.779,0.169c0.145,0.059,0.275,0.138,0.394,0.24
		c0.184,0.159,0.308,0.354,0.364,0.589c0.023,0.092,0.06,0.168,0.135,0.231c0.12,0.101,0.175,0.235,0.174,0.395
		c-0.001,0.395,0.003,0.79,0.005,1.186C21.774,16.557,21.771,16.582,21.77,16.619z"/>
	<path fill-rule="evenodd" clip-rule="evenodd" fill="#FFFFFF" d="M12.443,14.571c-0.489,0.025-1.081-0.411-1.087-1.089
		c-0.007-0.629,0.521-1.109,1.086-1.11c0.619-0.001,1.108,0.478,1.116,1.091C13.564,14.066,13.064,14.589,12.443,14.571z"/>
	<path fill-rule="evenodd" clip-rule="evenodd" fill="#FFFFFF" d="M7.662,14.57c-0.582,0.013-1.085-0.486-1.094-1.088
		c-0.008-0.601,0.479-1.097,1.081-1.11c0.589-0.013,1.107,0.453,1.124,1.075C8.79,14.064,8.276,14.584,7.662,14.57z"/>
	<path fill-rule="evenodd" clip-rule="evenodd" fill="#FFFFFF" d="M18.339,13.466c0.013,0.592-0.475,1.107-1.107,1.11
		c-0.554,0.001-1.095-0.471-1.092-1.101c0.002-0.661,0.553-1.097,1.075-1.105C17.804,12.361,18.343,12.84,18.339,13.466z"/>
	<path fill-rule="evenodd" clip-rule="evenodd" fill="#FFFFFF" d="M6.326,12.316c-0.001,0.581-0.475,1.049-1.061,1.047
		c-0.564-0.002-1.036-0.478-1.035-1.046c0.001-0.586,0.47-1.053,1.056-1.05C5.859,11.27,6.328,11.743,6.326,12.316z"/>
	<path fill-rule="evenodd" clip-rule="evenodd" fill="#FFFFFF" d="M9.024,12.309c-0.045-0.44,0.369-1.035,1.028-1.042
		c0.582-0.005,1.053,0.478,1.059,1.04c0.006,0.483-0.381,1.074-1.105,1.052C9.501,13.345,8.993,12.88,9.024,12.309z"/>
	<path fill-rule="evenodd" clip-rule="evenodd" fill="#FFFFFF" d="M19.632,13.355c-0.516,0.034-1.044-0.434-1.048-1.036
		c-0.004-0.589,0.5-1.046,1.028-1.052c0.562-0.006,1.058,0.435,1.064,1.042C20.682,12.875,20.216,13.375,19.632,13.355z"/>
	<path fill-rule="evenodd" clip-rule="evenodd" fill="#FFFFFF" d="M14.844,13.356c-0.472,0.027-1.036-0.381-1.04-1.033
		c-0.005-0.589,0.458-1.054,1.048-1.056c0.564-0.002,1.036,0.471,1.043,1.037C15.9,12.875,15.415,13.38,14.844,13.356z"/>
	<path fill-rule="evenodd" clip-rule="evenodd" fill="#FFFFFF" d="M14.226,7.896c-1.186,0-2.358,0-3.535,0
		c-0.021-0.095-0.004-0.186,0.019-0.273c0.064-0.25,0.201-0.456,0.4-0.618c0.207-0.168,0.444-0.272,0.701-0.337
		c0.049-0.012,0.082-0.003,0.117,0.034c0.149,0.153,0.302,0.303,0.453,0.454c0.023,0.023,0.047,0.044,0.089,0.084
		c0.021-0.032,0.036-0.063,0.06-0.086c0.15-0.152,0.303-0.302,0.452-0.455c0.033-0.033,0.063-0.046,0.109-0.034
		c0.318,0.083,0.609,0.215,0.838,0.462c0.183,0.198,0.287,0.428,0.298,0.698C14.227,7.845,14.226,7.865,14.226,7.896z"/>
	<path fill-rule="evenodd" clip-rule="evenodd" fill="#FFFFFF" d="M12.457,9.896c0.541-0.017,0.988,0.456,0.988,0.989
		c0,0.527-0.439,0.999-1.018,0.991c-0.486-0.007-0.976-0.449-0.963-1.02C11.476,10.351,11.927,9.876,12.457,9.896z"/>
	<path fill-rule="evenodd" clip-rule="evenodd" fill="#FFFFFF" d="M16.207,10.887c-0.017-0.531,0.438-1.001,0.992-0.995
		c0.549,0.006,0.984,0.448,0.987,0.997c0.002,0.485-0.401,1.015-1.051,0.984C16.564,11.845,16.184,11.334,16.207,10.887z"/>
	<path fill-rule="evenodd" clip-rule="evenodd" fill="#FFFFFF" d="M7.716,9.893c0.556,0.001,0.986,0.441,0.991,1
		c0.003,0.49-0.412,1.008-1.045,0.98c-0.485-0.022-0.943-0.433-0.936-1.009C6.733,10.327,7.169,9.893,7.716,9.893z"/>
	<path fill-rule="evenodd" clip-rule="evenodd" fill="#FFFFFF" d="M13.396,5.415c0.024,0.526-0.456,0.964-0.98,0.943
		c-0.517-0.021-0.925-0.461-0.91-0.984c0.015-0.479,0.419-0.943,1.023-0.913C12.986,4.483,13.438,4.949,13.396,5.415z"/>
	<path fill-rule="evenodd" clip-rule="evenodd" fill="#FFFFFF" d="M14.937,15.755c-0.062,0-0.117,0-0.178,0
		c-0.176-0.59-0.571-0.972-1.142-1.188c0.018-0.027,0.029-0.048,0.044-0.065c0.144-0.177,0.253-0.374,0.313-0.594
		c0.021-0.078,0.064-0.115,0.14-0.125c0.18-0.023,0.358-0.057,0.538-0.067c0.309-0.017,0.617-0.003,0.921,0.065
		c0.026,0.006,0.054,0.01,0.077,0.021c0.02,0.008,0.044,0.025,0.048,0.043c0.066,0.266,0.2,0.494,0.376,0.708
		c-0.021,0.014-0.037,0.025-0.054,0.033c-0.076,0.039-0.154,0.074-0.231,0.114c-0.399,0.209-0.674,0.525-0.817,0.955
		C14.961,15.687,14.95,15.718,14.937,15.755z"/>
	<path fill-rule="evenodd" clip-rule="evenodd" fill="#FFFFFF" d="M11.293,14.566c-0.564,0.216-0.965,0.588-1.135,1.178
		c-0.026,0.005-0.046,0.009-0.067,0.011c-0.038,0-0.077,0-0.122,0c-0.164-0.599-0.572-0.969-1.142-1.192
		c0.028-0.035,0.05-0.066,0.074-0.094c0.145-0.172,0.239-0.368,0.296-0.584c0.015-0.058,0.046-0.086,0.101-0.096
		c0.108-0.02,0.216-0.042,0.325-0.054c0.397-0.04,0.794-0.04,1.187,0.048c0.055,0.014,0.097,0.032,0.114,0.095
		c0.065,0.24,0.184,0.456,0.343,0.647C11.275,14.535,11.28,14.545,11.293,14.566z"/>
</g>
</svg>
