<?xml version="1.0" encoding="utf-8"?>
<!-- Generator: Adobe Illustrator 16.0.3, SVG Export Plug-In . SVG Version: 6.00 Build 0)  -->
<!DOCTYPE svg PUBLIC "-//W3C//DTD SVG 1.1//EN" "http://www.w3.org/Graphics/SVG/1.1/DTD/svg11.dtd">
<svg version="1.1" id="分離模式" xmlns="http://www.w3.org/2000/svg" xmlns:xlink="http://www.w3.org/1999/xlink" x="0px"
	 y="0px" width="396px" height="168px" viewBox="0 0 396 168" enable-background="new 0 0 396 168" xml:space="preserve">
<g opacity="0.8">
	<g>
		<g>
			<g>
				<line fill="#7AC2F7" x1="25.65" y1="80.587" x2="28.615" y2="101.266"/>
				
					<rect x="16.688" y="90.837" transform="matrix(0.1419 0.9899 -0.9899 0.1419 113.2878 51.1634)" fill="#7AC2F7" width="20.89" height="0.178"/>
			</g>
			<g>
				<line fill="#7AC2F7" x1="25.65" y1="80.587" x2="28.615" y2="101.266"/>
				
					<rect x="16.688" y="90.837" transform="matrix(0.1419 0.9899 -0.9899 0.1419 113.2878 51.1634)" fill="#7AC2F7" width="20.89" height="0.178"/>
			</g>
		</g>
		<g>
			<g>
				<line fill="#7AC2F7" x1="31.918" y1="147.712" x2="25.65" y2="80.587"/>
				
					<rect x="-4.924" y="113.98" transform="matrix(0.0929 0.9957 -0.9957 0.0929 139.7644 74.8809)" fill="#7AC2F7" width="67.417" height="0.339"/>
			</g>
			<g>
				<line fill="#7AC2F7" x1="31.918" y1="147.712" x2="28.615" y2="101.266"/>
				
					<rect x="6.986" y="124.354" transform="matrix(0.0709 0.9975 -0.9975 0.0709 152.2954 85.4669)" fill="#7AC2F7" width="46.563" height="0.268"/>
			</g>
			<g>
				<line fill="#7AC2F7" x1="31.918" y1="147.712" x2="28.615" y2="101.266"/>
				
					<rect x="6.986" y="124.354" transform="matrix(0.0709 0.9975 -0.9975 0.0709 152.2954 85.4669)" fill="#7AC2F7" width="46.563" height="0.268"/>
			</g>
		</g>
		<g>
			<g>
				<line fill="#7AC2F7" x1="93.863" y1="105.972" x2="28.615" y2="101.266"/>
				
					<rect x="28.53" y="103.453" transform="matrix(0.9974 0.072 -0.072 0.9974 7.6147 -4.1379)" fill="#7AC2F7" width="65.416" height="0.333"/>
			</g>
			<g>
				<line fill="#7AC2F7" x1="93.863" y1="105.972" x2="28.615" y2="101.266"/>
				
					<rect x="28.53" y="103.453" transform="matrix(0.9974 0.072 -0.072 0.9974 7.6147 -4.1379)" fill="#7AC2F7" width="65.416" height="0.333"/>
			</g>
		</g>
		<g>
			<g>
				<line fill="#7AC2F7" x1="110.459" y1="87.06" x2="93.863" y2="105.972"/>
				
					<rect x="102.065" y="83.935" transform="matrix(0.7538 0.6571 -0.6571 0.7538 88.5649 -43.3676)" fill="#7AC2F7" width="0.192" height="25.162"/>
			</g>
		</g>
		<g>
			<g>
				<line fill="#7AC2F7" x1="86.225" y1="62.783" x2="110.459" y2="87.06"/>
				
					<rect x="81.19" y="74.809" transform="matrix(0.7065 0.7077 -0.7077 0.7065 81.8844 -47.6075)" fill="#7AC2F7" width="34.302" height="0.224"/>
			</g>
			<g>
				<line fill="#7AC2F7" x1="86.225" y1="62.783" x2="93.863" y2="105.972"/>
				
					<rect x="68.115" y="84.249" transform="matrix(0.1742 0.9847 -0.9847 0.1742 157.4493 -18.9859)" fill="#7AC2F7" width="43.859" height="0.258"/>
			</g>
			<g>
				<line fill="#7AC2F7" x1="86.225" y1="62.783" x2="25.65" y2="80.587"/>
				
					<rect x="55.775" y="40.118" transform="matrix(0.2818 0.9595 -0.9595 0.2818 108.9515 -2.1883)" fill="#7AC2F7" width="0.326" height="63.134"/>
			</g>
			<g>
				<line fill="#7AC2F7" x1="86.225" y1="62.783" x2="28.615" y2="101.266"/>
				
					<rect x="57.246" y="47.386" transform="matrix(0.5573 0.8303 -0.8303 0.5573 93.5265 -11.3638)" fill="#7AC2F7" width="0.347" height="69.279"/>
			</g>
			<g>
				<line fill="#7AC2F7" x1="86.225" y1="62.783" x2="28.615" y2="101.266"/>
				
					<rect x="57.246" y="47.386" transform="matrix(0.5573 0.8303 -0.8303 0.5573 93.5265 -11.3638)" fill="#7AC2F7" width="0.347" height="69.279"/>
			</g>
		</g>
		<g>
			<g>
				<line fill="#7AC2F7" x1="13.57" y1="71.312" x2="25.65" y2="80.587"/>
				
					<rect x="11.996" y="75.871" transform="matrix(0.7932 0.609 -0.609 0.7932 50.3105 3.7658)" fill="#7AC2F7" width="15.23" height="0.157"/>
			</g>
			<g>
				<line fill="#7AC2F7" x1="13.57" y1="71.312" x2="28.615" y2="101.266"/>
				
					<rect x="4.334" y="86.177" transform="matrix(0.4489 0.8936 -0.8936 0.4489 88.7313 28.7053)" fill="#7AC2F7" width="33.52" height="0.223"/>
			</g>
			<g>
				<line fill="#7AC2F7" x1="13.57" y1="71.312" x2="28.615" y2="101.266"/>
				
					<rect x="4.334" y="86.177" transform="matrix(0.4489 0.8936 -0.8936 0.4489 88.7313 28.7053)" fill="#7AC2F7" width="33.52" height="0.223"/>
			</g>
		</g>
		<g>
			<g>
				<line fill="#7AC2F7" x1="-98.076" y1="112.017" x2="-143.395" y2="98.46"/>
				
					<rect x="-144.387" y="105.103" transform="matrix(0.9581 0.2866 -0.2866 0.9581 25.0959 39.0165)" fill="#7AC2F7" width="47.303" height="0.27"/>
			</g>
		</g>
		<g>
			<g>
				<line fill="#7AC2F7" x1="8.996" y1="120.893" x2="13.57" y2="71.312"/>
				
					<rect x="11.144" y="71.207" transform="matrix(0.9955 0.0946 -0.0946 0.9955 9.1461 -0.6365)" fill="#7AC2F7" width="0.279" height="49.791"/>
			</g>
			<g>
				<line fill="#7AC2F7" x1="8.996" y1="120.893" x2="31.918" y2="147.712"/>
				
					<rect x="2.818" y="134.188" transform="matrix(0.6497 0.7602 -0.7602 0.6497 109.26 31.4927)" fill="#7AC2F7" width="35.28" height="0.228"/>
			</g>
			<g>
				<line fill="#7AC2F7" x1="8.996" y1="120.893" x2="25.65" y2="80.587"/>
				
					<rect x="17.196" y="78.935" transform="matrix(0.9229 0.3852 -0.3852 0.9229 40.1371 1.0994)" fill="#7AC2F7" width="0.256" height="43.61"/>
			</g>
			<g>
				<line fill="#7AC2F7" x1="8.996" y1="120.893" x2="28.615" y2="101.266"/>
				
					<rect x="18.706" y="97.203" transform="matrix(0.7095 0.7047 -0.7047 0.7095 83.7368 19.0122)" fill="#7AC2F7" width="0.201" height="27.751"/>
			</g>
			<g>
				<line fill="#7AC2F7" x1="8.996" y1="120.893" x2="28.615" y2="101.266"/>
				
					<rect x="18.706" y="97.203" transform="matrix(0.7095 0.7047 -0.7047 0.7095 83.7368 19.0122)" fill="#7AC2F7" width="0.201" height="27.751"/>
			</g>
		</g>
		<g>
			<g>
				<line fill="#7AC2F7" x1="8.996" y1="120.893" x2="13.57" y2="71.312"/>
				
					<rect x="11.144" y="71.207" transform="matrix(0.9955 0.0946 -0.0946 0.9955 9.1461 -0.6365)" fill="#7AC2F7" width="0.279" height="49.791"/>
			</g>
			<g>
				<line fill="#7AC2F7" x1="8.996" y1="120.893" x2="31.918" y2="147.712"/>
				
					<rect x="2.818" y="134.188" transform="matrix(0.6497 0.7602 -0.7602 0.6497 109.26 31.4927)" fill="#7AC2F7" width="35.28" height="0.228"/>
			</g>
			<g>
				<line fill="#7AC2F7" x1="8.996" y1="120.893" x2="25.65" y2="80.587"/>
				
					<rect x="17.196" y="78.935" transform="matrix(0.9229 0.3852 -0.3852 0.9229 40.1371 1.0994)" fill="#7AC2F7" width="0.256" height="43.61"/>
			</g>
			<g>
				<line fill="#7AC2F7" x1="8.996" y1="120.893" x2="28.615" y2="101.266"/>
				
					<rect x="18.706" y="97.203" transform="matrix(0.7095 0.7047 -0.7047 0.7095 83.7368 19.0122)" fill="#7AC2F7" width="0.201" height="27.751"/>
			</g>
			<g>
				<line fill="#7AC2F7" x1="8.996" y1="120.893" x2="28.615" y2="101.266"/>
				
					<rect x="18.706" y="97.203" transform="matrix(0.7095 0.7047 -0.7047 0.7095 83.7368 19.0122)" fill="#7AC2F7" width="0.201" height="27.751"/>
			</g>
		</g>
		<g>
			<g>
				<line fill="#7AC2F7" x1="-62.369" y1="111.887" x2="-98.076" y2="112.017"/>
				<rect x="-98.076" y="111.837" fill="#7AC2F7" width="35.707" height="0.229"/>
			</g>
		</g>
		<g>
			<g>
				<line fill="#7AC2F7" x1="93.805" y1="127.364" x2="86.225" y2="62.783"/>
				
					<rect x="57.502" y="94.908" transform="matrix(0.1166 0.9932 -0.9932 0.1166 173.9444 -5.4123)" fill="#7AC2F7" width="65.025" height="0.332"/>
			</g>
			<g>
				<line fill="#7AC2F7" x1="93.805" y1="127.364" x2="110.459" y2="87.06"/>
				
					<rect x="102.003" y="85.406" transform="matrix(0.9253 0.3792 -0.3792 0.9253 48.2858 -30.7226)" fill="#7AC2F7" width="0.258" height="43.611"/>
			</g>
			<g>
				<line fill="#7AC2F7" x1="93.805" y1="127.364" x2="93.863" y2="105.972"/>
				<rect x="93.744" y="105.972" fill="#7AC2F7" width="0.18" height="21.393"/>
			</g>
			<g>
				<line fill="#7AC2F7" x1="93.805" y1="127.364" x2="31.918" y2="147.712"/>
				
					<rect x="62.695" y="104.964" transform="matrix(0.3118 0.9501 -0.9501 0.3118 173.9414 34.9248)" fill="#7AC2F7" width="0.332" height="65.147"/>
			</g>
		</g>
		<g>
			<g>
				<line fill="#7AC2F7" x1="45.891" y1="31.14" x2="13.57" y2="71.312"/>
				
					<rect x="29.589" y="25.445" transform="matrix(0.7799 0.6259 -0.6259 0.7799 38.6093 -7.3338)" fill="#7AC2F7" width="0.286" height="51.561"/>
			</g>
			<g>
				<line fill="#7AC2F7" x1="45.891" y1="31.14" x2="86.225" y2="62.783"/>
				
					<rect x="40.425" y="46.82" transform="matrix(0.7867 0.6173 -0.6173 0.7867 43.0755 -30.7612)" fill="#7AC2F7" width="51.264" height="0.283"/>
			</g>
			<g>
				<line fill="#7AC2F7" x1="45.891" y1="31.14" x2="25.65" y2="80.587"/>
				
					<rect x="35.625" y="29.148" transform="matrix(0.9254 0.3789 -0.3789 0.9254 23.8333 -9.3881)" fill="#7AC2F7" width="0.291" height="53.43"/>
			</g>
		</g>
		<g>
			<g>
				<line fill="#7AC2F7" x1="300.109" y1="60.495" x2="276.588" y2="39.242"/>
				
					<rect x="272.498" y="49.762" transform="matrix(0.742 0.6704 -0.6704 0.742 107.8326 -180.4476)" fill="#7AC2F7" width="31.701" height="0.215"/>
			</g>
		</g>
		<g>
			<g>
				<line fill="#7AC2F7" x1="161.014" y1="114.696" x2="213.76" y2="90.763"/>
				
					<rect x="187.233" y="73.769" transform="matrix(0.4138 0.9104 -0.9104 0.4138 203.367 -110.3709)" fill="#7AC2F7" width="0.307" height="57.92"/>
			</g>
			<g>
				<line fill="#7AC2F7" x1="161.014" y1="114.696" x2="93.805" y2="127.364"/>
				
					<rect x="127.238" y="86.834" transform="matrix(0.1874 0.9823 -0.9823 0.1874 222.4236 -26.8011)" fill="#7AC2F7" width="0.344" height="68.392"/>
			</g>
			<g>
				<line fill="#7AC2F7" x1="161.014" y1="114.696" x2="110.459" y2="87.06"/>
				
					<rect x="106.929" y="100.724" transform="matrix(0.8774 0.4797 -0.4797 0.8774 65.0233 -52.7468)" fill="#7AC2F7" width="57.616" height="0.306"/>
			</g>
			<g>
				<line fill="#7AC2F7" x1="161.014" y1="114.696" x2="93.863" y2="105.972"/>
				
					<rect x="93.58" y="110.163" transform="matrix(0.9917 0.1288 -0.1288 0.9917 15.2758 -15.498)" fill="#7AC2F7" width="67.717" height="0.342"/>
			</g>
		</g>
		<g>
			<g>
				<line fill="#7AC2F7" x1="187.676" y1="41.077" x2="188.053" y2="18.334"/>
				<rect x="187.772" y="18.332" fill="#7AC2F7" width="0.184" height="22.747"/>
			</g>
			<g>
				<line fill="#7AC2F7" x1="187.676" y1="41.077" x2="213.76" y2="90.763"/>
				
					<rect x="172.66" y="65.77" transform="matrix(0.4648 0.8854 -0.8854 0.4648 165.7841 -142.4372)" fill="#7AC2F7" width="56.115" height="0.3"/>
			</g>
		</g>
		<g>
			<g>
				<line fill="#7AC2F7" x1="325.979" y1="80.875" x2="300.109" y2="60.495"/>
				
					<rect x="296.578" y="70.575" transform="matrix(0.7855 0.6188 -0.6188 0.7855 110.8787 -178.558)" fill="#7AC2F7" width="32.932" height="0.22"/>
			</g>
			<g>
				<line fill="#7AC2F7" x1="325.979" y1="80.875" x2="276.588" y2="39.242"/>
				
					<rect x="268.984" y="59.894" transform="matrix(0.7646 0.6445 -0.6445 0.7646 109.6297 -180.0399)" fill="#7AC2F7" width="64.597" height="0.33"/>
			</g>
		</g>
		<g>
			<g>
				<line fill="#7AC2F7" x1="168.404" y1="74.343" x2="187.676" y2="41.077"/>
				
					<rect x="177.921" y="38.488" transform="matrix(0.8667 0.4988 -0.4988 0.8667 52.512 -81.1115)" fill="#7AC2F7" width="0.239" height="38.445"/>
			</g>
			<g>
				<line fill="#7AC2F7" x1="168.404" y1="74.343" x2="161.014" y2="114.696"/>
				
					<rect x="164.585" y="74.007" transform="matrix(0.9842 0.1772 -0.1772 0.9842 19.3495 -27.6837)" fill="#7AC2F7" width="0.248" height="41.024"/>
			</g>
			<g>
				<line fill="#7AC2F7" x1="168.404" y1="74.343" x2="188.053" y2="18.334"/>
				
					<rect x="178.072" y="16.66" transform="matrix(0.9436 0.3312 -0.3312 0.9436 25.4048 -56.4116)" fill="#7AC2F7" width="0.313" height="59.356"/>
			</g>
			<g>
				<line fill="#7AC2F7" x1="168.404" y1="74.343" x2="213.76" y2="90.763"/>
				
					<rect x="166.964" y="82.416" transform="matrix(0.9403 0.3404 -0.3404 0.9403 39.5159 -60.1183)" fill="#7AC2F7" width="48.237" height="0.273"/>
			</g>
			<g>
				<line fill="#7AC2F7" x1="168.404" y1="74.343" x2="110.459" y2="87.06"/>
				
					<rect x="139.276" y="51.039" transform="matrix(0.2129 0.9771 -0.9771 0.2129 188.5899 -72.7176)" fill="#7AC2F7" width="0.312" height="59.324"/>
			</g>
		</g>
		<g>
			<g>
				<line fill="#7AC2F7" x1="301.939" y1="58.787" x2="325.979" y2="80.875"/>
				
					<rect x="297.636" y="69.722" transform="matrix(0.7363 0.6766 -0.6766 0.7363 130.0257 -194.0154)" fill="#7AC2F7" width="32.647" height="0.218"/>
			</g>
			<g>
				<line fill="#7AC2F7" x1="301.939" y1="58.787" x2="300.109" y2="60.495"/>
				
					<rect x="300.967" y="58.39" transform="matrix(0.6854 0.7282 -0.7282 0.6854 138.1439 -200.4406)" fill="#7AC2F7" width="0.114" height="2.503"/>
			</g>
			<g>
				<line fill="#7AC2F7" x1="301.939" y1="58.787" x2="276.588" y2="39.242"/>
				
					<rect x="273.257" y="48.908" transform="matrix(0.792 0.6106 -0.6106 0.792 90.1043 -166.4178)" fill="#7AC2F7" width="32.011" height="0.215"/>
			</g>
		</g>
		<g>
			<g>
				<line fill="#7AC2F7" x1="301.939" y1="58.787" x2="325.979" y2="80.875"/>
				
					<rect x="297.636" y="69.722" transform="matrix(0.7363 0.6766 -0.6766 0.7363 130.0257 -194.0154)" fill="#7AC2F7" width="32.647" height="0.218"/>
			</g>
			<g>
				<line fill="#7AC2F7" x1="301.939" y1="58.787" x2="300.109" y2="60.495"/>
				
					<rect x="300.967" y="58.39" transform="matrix(0.6854 0.7282 -0.7282 0.6854 138.1439 -200.4406)" fill="#7AC2F7" width="0.114" height="2.503"/>
			</g>
			<g>
				<line fill="#7AC2F7" x1="301.939" y1="58.787" x2="276.588" y2="39.242"/>
				
					<rect x="273.257" y="48.908" transform="matrix(0.792 0.6106 -0.6106 0.792 90.1043 -166.4178)" fill="#7AC2F7" width="32.011" height="0.215"/>
			</g>
		</g>
		<g>
			<g>
				<line fill="#7AC2F7" x1="204.025" y1="80.615" x2="168.404" y2="74.343"/>
				
					<rect x="168.129" y="77.364" transform="matrix(0.9848 0.1734 -0.1734 0.9848 16.2599 -31.1224)" fill="#7AC2F7" width="36.171" height="0.23"/>
			</g>
			<g>
				<line fill="#7AC2F7" x1="204.025" y1="80.615" x2="187.676" y2="41.077"/>
				
					<rect x="174.458" y="60.72" transform="matrix(0.3821 0.9241 -0.9241 0.3821 177.2386 -143.3918)" fill="#7AC2F7" width="42.785" height="0.254"/>
			</g>
			<g>
				<line fill="#7AC2F7" x1="204.025" y1="80.615" x2="161.014" y2="114.696"/>
				
					<rect x="182.372" y="70.217" transform="matrix(0.6215 0.7834 -0.7834 0.6215 145.5977 -106.0273)" fill="#7AC2F7" width="0.295" height="54.877"/>
			</g>
			<g>
				<line fill="#7AC2F7" x1="204.025" y1="80.615" x2="188.053" y2="18.334"/>
				
					<rect x="163.892" y="49.31" transform="matrix(0.2484 0.9687 -0.9687 0.2484 195.2633 -152.7105)" fill="#7AC2F7" width="64.297" height="0.329"/>
			</g>
			<g>
				<line fill="#7AC2F7" x1="204.025" y1="80.615" x2="213.76" y2="90.763"/>
				
					<rect x="201.863" y="85.612" transform="matrix(0.6922 0.7217 -0.7217 0.6922 126.1312 -124.3807)" fill="#7AC2F7" width="14.06" height="0.154"/>
			</g>
		</g>
		<g>
			<g>
				<line fill="#7AC2F7" x1="270.631" y1="124.887" x2="213.76" y2="90.763"/>
				
					<rect x="209.034" y="107.656" transform="matrix(0.8575 0.5145 -0.5145 0.8575 89.9907 -109.2435)" fill="#7AC2F7" width="66.323" height="0.336"/>
			</g>
		</g>
		<g>
			<g>
				<line fill="#7AC2F7" x1="140.428" y1="150.505" x2="161.014" y2="114.696"/>
				
					<rect x="150.597" y="111.948" transform="matrix(0.8661 0.4999 -0.4999 0.8661 86.4817 -57.5916)" fill="#7AC2F7" width="0.248" height="41.304"/>
			</g>
			<g>
				<line fill="#7AC2F7" x1="140.428" y1="150.505" x2="93.805" y2="127.364"/>
				
					<rect x="91.092" y="138.792" transform="matrix(0.8957 0.4446 -0.4446 0.8957 73.9821 -37.583)" fill="#7AC2F7" width="52.048" height="0.286"/>
			</g>
			<g>
				<line fill="#7AC2F7" x1="140.428" y1="150.505" x2="93.863" y2="105.972"/>
				
					<rect x="84.929" y="128.074" transform="matrix(0.7227 0.6912 -0.6912 0.7227 121.1161 -45.4059)" fill="#7AC2F7" width="64.433" height="0.329"/>
			</g>
		</g>
		<g>
			<g>
				<line fill="#7AC2F7" x1="41.934" y1="153.644" x2="93.805" y2="127.364"/>
				
					<rect x="67.715" y="111.429" transform="matrix(0.451 0.8925 -0.8925 0.451 162.6603 16.5596)" fill="#7AC2F7" width="0.307" height="58.15"/>
			</g>
			<g>
				<line fill="#7AC2F7" x1="41.934" y1="153.644" x2="8.996" y2="120.893"/>
				
					<rect x="2.24" y="137.135" transform="matrix(0.7091 0.7051 -0.7051 0.7091 104.1963 21.9757)" fill="#7AC2F7" width="46.45" height="0.266"/>
			</g>
			<g>
				<line fill="#7AC2F7" x1="41.934" y1="153.644" x2="8.996" y2="120.893"/>
				
					<rect x="2.24" y="137.135" transform="matrix(0.7091 0.7051 -0.7051 0.7091 104.1963 21.9757)" fill="#7AC2F7" width="46.45" height="0.266"/>
			</g>
			<g>
				<line fill="#7AC2F7" x1="41.934" y1="153.644" x2="31.918" y2="147.712"/>
				
					<rect x="31.105" y="150.605" transform="matrix(0.8604 0.5096 -0.5096 0.8604 81.9465 2.2176)" fill="#7AC2F7" width="11.641" height="0.145"/>
			</g>
			<g>
				<line fill="#7AC2F7" x1="41.934" y1="153.644" x2="28.615" y2="101.266"/>
				
					<rect x="8.252" y="127.309" transform="matrix(0.2464 0.9692 -0.9692 0.2464 150.1086 61.864)" fill="#7AC2F7" width="54.045" height="0.292"/>
			</g>
			<g>
				<line fill="#7AC2F7" x1="41.934" y1="153.644" x2="28.615" y2="101.266"/>
				
					<rect x="8.252" y="127.309" transform="matrix(0.2464 0.9692 -0.9692 0.2464 150.1086 61.864)" fill="#7AC2F7" width="54.045" height="0.292"/>
			</g>
		</g>
		<g>
			<g>
				<line fill="#7AC2F7" x1="178.039" y1="154.394" x2="140.428" y2="150.505"/>
				
					<rect x="140.327" y="152.33" transform="matrix(0.9947 0.1028 -0.1028 0.9947 16.5226 -15.5677)" fill="#7AC2F7" width="37.812" height="0.237"/>
			</g>
			<g>
				<line fill="#7AC2F7" x1="178.039" y1="154.394" x2="161.014" y2="114.696"/>
				
					<rect x="147.929" y="134.417" transform="matrix(0.3942 0.919 -0.919 0.3942 226.358 -74.2894)" fill="#7AC2F7" width="43.194" height="0.255"/>
			</g>
		</g>
		<g>
			<g>
				<line fill="#7AC2F7" x1="251.783" y1="126.143" x2="270.631" y2="124.887"/>
				
					<rect x="261.121" y="116.07" transform="matrix(0.0684 0.9977 -0.9977 0.0684 368.5587 -143.6665)" fill="#7AC2F7" width="0.171" height="18.889"/>
			</g>
			<g>
				<line fill="#7AC2F7" x1="251.783" y1="126.143" x2="204.025" y2="80.615"/>
				
					<rect x="194.914" y="103.212" transform="matrix(0.7238 0.69 -0.69 0.7238 134.2776 -128.7019)" fill="#7AC2F7" width="65.981" height="0.335"/>
			</g>
			<g>
				<line fill="#7AC2F7" x1="251.783" y1="126.143" x2="213.76" y2="90.763"/>
				
					<rect x="206.802" y="108.31" transform="matrix(0.7321 0.6812 -0.6812 0.7321 136.2414 -129.5103)" fill="#7AC2F7" width="51.938" height="0.286"/>
			</g>
		</g>
		<g>
			<g>
				<line fill="#7AC2F7" x1="281.119" y1="89.546" x2="251.783" y2="126.143"/>
				
					<rect x="266.317" y="84.392" transform="matrix(0.784 0.6207 -0.6207 0.784 124.4805 -142.0976)" fill="#7AC2F7" width="0.269" height="46.904"/>
			</g>
			<g>
				<line fill="#7AC2F7" x1="281.119" y1="89.546" x2="270.631" y2="124.887"/>
				
					<rect x="275.758" y="88.784" transform="matrix(0.9583 0.2858 -0.2858 0.9583 42.1503 -74.374)" fill="#7AC2F7" width="0.232" height="36.864"/>
			</g>
			<g>
				<line fill="#7AC2F7" x1="281.119" y1="89.546" x2="301.939" y2="58.787"/>
				
					<rect x="291.411" y="55.596" transform="matrix(0.8262 0.5633 -0.5633 0.8262 92.4406 -151.3405)" fill="#7AC2F7" width="0.234" height="37.143"/>
			</g>
			<g>
				<line fill="#7AC2F7" x1="281.119" y1="89.546" x2="301.939" y2="58.787"/>
				
					<rect x="291.411" y="55.596" transform="matrix(0.8262 0.5633 -0.5633 0.8262 92.4406 -151.3405)" fill="#7AC2F7" width="0.234" height="37.143"/>
			</g>
			<g>
				<line fill="#7AC2F7" x1="281.119" y1="89.546" x2="325.979" y2="80.875"/>
				
					<rect x="303.416" y="62.366" transform="matrix(0.1854 0.9827 -0.9827 0.1854 331.0012 -228.8727)" fill="#7AC2F7" width="0.263" height="45.69"/>
			</g>
			<g>
				<line fill="#7AC2F7" x1="281.119" y1="89.546" x2="300.109" y2="60.495"/>
				
					<rect x="290.501" y="57.666" transform="matrix(0.8386 0.5447 -0.5447 0.8386 87.7557 -146.1878)" fill="#7AC2F7" width="0.226" height="34.708"/>
			</g>
			<g>
				<line fill="#7AC2F7" x1="281.119" y1="89.546" x2="276.588" y2="39.242"/>
				
					<rect x="253.599" y="64.254" transform="matrix(0.0897 0.996 -0.996 0.0897 317.9698 -219.1111)" fill="#7AC2F7" width="50.507" height="0.28"/>
			</g>
			<g>
				<line fill="#7AC2F7" x1="281.119" y1="89.546" x2="213.76" y2="90.763"/>
				
					<rect x="247.269" y="56.469" transform="matrix(0.0172 0.9999 -0.9999 0.0172 333.3138 -158.8016)" fill="#7AC2F7" width="0.34" height="67.37"/>
			</g>
		</g>
		<g>
			<g>
				<line fill="#7AC2F7" x1="241.818" y1="59.572" x2="281.119" y2="89.546"/>
				
					<rect x="236.756" y="74.42" transform="matrix(0.7951 0.6064 -0.6064 0.7951 98.78 -143.288)" fill="#7AC2F7" width="49.426" height="0.277"/>
			</g>
			<g>
				<line fill="#7AC2F7" x1="241.818" y1="59.572" x2="251.783" y2="126.143"/>
				
					<rect x="213.145" y="92.688" transform="matrix(0.148 0.989 -0.989 0.148 302.0992 -164.9701)" fill="#7AC2F7" width="67.312" height="0.34"/>
			</g>
			<g>
				<line fill="#7AC2F7" x1="241.818" y1="59.572" x2="204.025" y2="80.615"/>
				
					<rect x="222.794" y="48.466" transform="matrix(0.4879 0.8729 -0.8729 0.4879 175.3417 -158.6928)" fill="#7AC2F7" width="0.256" height="43.256"/>
			</g>
			<g>
				<line fill="#7AC2F7" x1="241.818" y1="59.572" x2="301.939" y2="58.787"/>
				<rect x="241.816" y="59.022" fill="#7AC2F7" width="60.126" height="0.314"/>
			</g>
			<g>
				<line fill="#7AC2F7" x1="241.818" y1="59.572" x2="301.939" y2="58.787"/>
				<rect x="241.816" y="59.022" fill="#7AC2F7" width="60.126" height="0.314"/>
			</g>
			<g>
				<line fill="#7AC2F7" x1="241.818" y1="59.572" x2="187.676" y2="41.077"/>
				
					<rect x="186.14" y="50.173" transform="matrix(0.9463 0.3233 -0.3233 0.9463 27.7978 -66.7171)" fill="#7AC2F7" width="57.214" height="0.304"/>
			</g>
			<g>
				<line fill="#7AC2F7" x1="241.818" y1="59.572" x2="300.109" y2="60.495"/>
				
					<rect x="241.814" y="59.88" transform="matrix(0.9999 0.0158 -0.0158 0.9999 0.9842 -4.2816)" fill="#7AC2F7" width="58.3" height="0.308"/>
			</g>
			<g>
				<line fill="#7AC2F7" x1="241.818" y1="59.572" x2="188.053" y2="18.334"/>
				
					<rect x="181.056" y="38.783" transform="matrix(0.7935 0.6086 -0.6086 0.7935 68.0975 -122.7665)" fill="#7AC2F7" width="67.76" height="0.341"/>
			</g>
			<g>
				<line fill="#7AC2F7" x1="241.818" y1="59.572" x2="276.588" y2="39.242"/>
				
					<rect x="259.08" y="29.269" transform="matrix(0.5021 0.8648 -0.8648 0.5021 171.7748 -199.5568)" fill="#7AC2F7" width="0.245" height="40.277"/>
			</g>
			<g>
				<line fill="#7AC2F7" x1="241.818" y1="59.572" x2="213.76" y2="90.763"/>
				
					<rect x="227.663" y="54.191" transform="matrix(0.7448 0.6672 -0.6672 0.7448 108.2791 -132.8118)" fill="#7AC2F7" width="0.252" height="41.954"/>
			</g>
		</g>
		<g>
			<g>
				<line fill="#7AC2F7" x1="-52.025" y1="104.341" x2="-62.369" y2="111.887"/>
				
					<rect x="-57.272" y="101.711" transform="matrix(0.5905 0.807 -0.807 0.5905 63.8294 90.4314)" fill="#7AC2F7" width="0.149" height="12.806"/>
			</g>
			<g>
				<line fill="#7AC2F7" x1="-52.025" y1="104.341" x2="8.996" y2="120.893"/>
				
					<rect x="-53.128" y="112.454" transform="matrix(0.9651 0.2618 -0.2618 0.9651 28.7302 9.5589)" fill="#7AC2F7" width="63.228" height="0.325"/>
			</g>
			<g>
				<line fill="#7AC2F7" x1="-52.025" y1="104.341" x2="8.996" y2="120.893"/>
				
					<rect x="-53.128" y="112.454" transform="matrix(0.9651 0.2618 -0.2618 0.9651 28.7302 9.5589)" fill="#7AC2F7" width="63.228" height="0.325"/>
			</g>
			<g>
				<line fill="#7AC2F7" x1="-52.025" y1="104.341" x2="-98.076" y2="112.017"/>
				
					<rect x="-75.185" y="84.835" transform="matrix(0.168 0.9858 -0.9858 0.168 44.1961 163.9948)" fill="#7AC2F7" width="0.267" height="46.688"/>
			</g>
		</g>
		<g>
			<g>
				<line fill="#7AC2F7" x1="-42.875" y1="147.173" x2="-52.025" y2="104.341"/>
				
					<rect x="-69.35" y="125.628" transform="matrix(0.2089 0.9779 -0.9779 0.2089 85.4427 145.8932)" fill="#7AC2F7" width="43.798" height="0.256"/>
			</g>
			<g>
				<line fill="#7AC2F7" x1="-42.875" y1="147.173" x2="-62.369" y2="111.887"/>
				
					<rect x="-72.778" y="129.406" transform="matrix(0.4836 0.8753 -0.8753 0.4836 86.2019 112.9515)" fill="#7AC2F7" width="40.312" height="0.246"/>
			</g>
			<g>
				<line fill="#7AC2F7" x1="-42.875" y1="147.173" x2="8.996" y2="120.893"/>
				
					<rect x="-17.093" y="104.957" transform="matrix(0.451 0.8925 -0.8925 0.451 110.3261 88.6996)" fill="#7AC2F7" width="0.307" height="58.15"/>
			</g>
			<g>
				<line fill="#7AC2F7" x1="-42.875" y1="147.173" x2="8.996" y2="120.893"/>
				
					<rect x="-17.093" y="104.957" transform="matrix(0.451 0.8925 -0.8925 0.451 110.3261 88.6996)" fill="#7AC2F7" width="0.307" height="58.15"/>
			</g>
			<g>
				<line fill="#7AC2F7" x1="-42.875" y1="147.173" x2="-98.076" y2="112.017"/>
				
					<rect x="-103.198" y="129.427" transform="matrix(0.8435 0.5372 -0.5372 0.8435 58.583 58.1425)" fill="#7AC2F7" width="65.445" height="0.334"/>
			</g>
		</g>
		<g>
			<g>
				<line fill="#7AC2F7" x1="-24.529" y1="81.579" x2="-42.875" y2="147.173"/>
				
					<rect x="-33.875" y="80.321" transform="matrix(0.9627 0.2706 -0.2706 0.9627 29.6907 13.3859)" fill="#7AC2F7" width="0.343" height="68.11"/>
			</g>
			<g>
				<line fill="#7AC2F7" x1="-24.529" y1="81.579" x2="-52.025" y2="104.341"/>
				
					<rect x="-38.392" y="75.114" transform="matrix(0.633 0.7741 -0.7741 0.633 57.9168 63.7489)" fill="#7AC2F7" width="0.228" height="35.693"/>
			</g>
			<g>
				<line fill="#7AC2F7" x1="-24.529" y1="81.579" x2="-62.369" y2="111.887"/>
				
					<rect x="-43.587" y="72.493" transform="matrix(0.6221 0.783 -0.783 0.6221 59.3172 70.5776)" fill="#7AC2F7" width="0.273" height="48.481"/>
			</g>
			<g>
				<line fill="#7AC2F7" x1="-24.529" y1="81.579" x2="8.996" y2="120.893"/>
				
					<rect x="-33.6" y="101.093" transform="matrix(0.6489 0.7609 -0.7609 0.6489 74.3002 41.4528)" fill="#7AC2F7" width="51.668" height="0.285"/>
			</g>
			<g>
				<line fill="#7AC2F7" x1="-24.529" y1="81.579" x2="8.996" y2="120.893"/>
				
					<rect x="-33.6" y="101.093" transform="matrix(0.6489 0.7609 -0.7609 0.6489 74.3002 41.4528)" fill="#7AC2F7" width="51.668" height="0.285"/>
			</g>
			<g>
				<line fill="#7AC2F7" x1="-24.529" y1="81.579" x2="13.57" y2="71.312"/>
				
					<rect x="-5.601" y="56.716" transform="matrix(0.2652 0.9642 -0.9642 0.2652 69.6829 61.4591)" fill="#7AC2F7" width="0.243" height="39.461"/>
			</g>
			<g>
				<line fill="#7AC2F7" x1="-24.529" y1="81.579" x2="25.65" y2="80.587"/>
				
					<rect x="0.421" y="55.987" transform="matrix(0.021 0.9998 -0.9998 0.021 81.614 78.8219)" fill="#7AC2F7" width="0.279" height="50.191"/>
			</g>
			<g>
				<line fill="#7AC2F7" x1="-24.529" y1="81.579" x2="28.615" y2="101.266"/>
				
					<rect x="-26.295" y="91.272" transform="matrix(0.9377 0.3474 -0.3474 0.9377 31.8833 4.9829)" fill="#7AC2F7" width="56.675" height="0.302"/>
			</g>
			<g>
				<line fill="#7AC2F7" x1="-24.529" y1="81.579" x2="28.615" y2="101.266"/>
				
					<rect x="-26.295" y="91.272" transform="matrix(0.9377 0.3474 -0.3474 0.9377 31.8833 4.9829)" fill="#7AC2F7" width="56.675" height="0.302"/>
			</g>
		</g>
		<g>
			<g>
				<line fill="#7AC2F7" x1="110.547" y1="29.284" x2="45.891" y2="31.14"/>
				
					<rect x="78.054" y="-2.13" transform="matrix(0.0295 0.9996 -0.9996 0.0295 106.1117 -48.8651)" fill="#7AC2F7" width="0.331" height="64.683"/>
			</g>
			<g>
				<line fill="#7AC2F7" x1="110.547" y1="29.284" x2="86.225" y2="62.783"/>
				
					<rect x="98.26" y="25.335" transform="matrix(0.8084 0.5886 -0.5886 0.8084 45.9481 -49.0928)" fill="#7AC2F7" width="0.249" height="41.398"/>
			</g>
			<g>
				<line fill="#7AC2F7" x1="110.547" y1="29.284" x2="110.459" y2="87.06"/>
				<rect x="110.351" y="29.284" fill="#7AC2F7" width="0.307" height="57.775"/>
			</g>
		</g>
		<g>
			<g>
				<line fill="#7AC2F7" x1="160.371" y1="26.78" x2="110.547" y2="29.284"/>
				
					<rect x="135.321" y="3.087" transform="matrix(0.0561 0.9984 -0.9984 0.0561 155.8548 -108.7865)" fill="#7AC2F7" width="0.279" height="49.889"/>
			</g>
			<g>
				<line fill="#7AC2F7" x1="160.371" y1="26.78" x2="204.025" y2="80.615"/>
				
					<rect x="147.543" y="53.524" transform="matrix(0.6298 0.7767 -0.7767 0.6298 109.151 -121.6412)" fill="#7AC2F7" width="69.31" height="0.347"/>
			</g>
			<g>
				<line fill="#7AC2F7" x1="160.371" y1="26.78" x2="168.404" y2="74.343"/>
				
					<rect x="140.27" y="50.425" transform="matrix(0.1665 0.986 -0.986 0.1665 186.8661 -119.9509)" fill="#7AC2F7" width="48.236" height="0.273"/>
			</g>
			<g>
				<line fill="#7AC2F7" x1="160.371" y1="26.78" x2="187.676" y2="41.077"/>
				
					<rect x="158.613" y="33.823" transform="matrix(0.8859 0.4639 -0.4639 0.8859 35.5934 -76.8523)" fill="#7AC2F7" width="30.821" height="0.211"/>
			</g>
			<g>
				<line fill="#7AC2F7" x1="160.371" y1="26.78" x2="188.053" y2="18.334"/>
				
					<rect x="174.109" y="8.086" transform="matrix(0.286 0.9582 -0.9582 0.286 145.9953 -150.8285)" fill="#7AC2F7" width="0.205" height="28.942"/>
			</g>
		</g>
		<g>
			<g>
				<line fill="#7AC2F7" x1="136.367" y1="58.929" x2="160.371" y2="26.78"/>
				
					<rect x="148.247" y="22.794" transform="matrix(0.8029 0.5962 -0.5962 0.8029 54.7997 -80.0063)" fill="#7AC2F7" width="0.246" height="40.121"/>
			</g>
			<g>
				<line fill="#7AC2F7" x1="136.367" y1="58.929" x2="110.547" y2="29.284"/>
				
					<rect x="103.801" y="43.984" transform="matrix(0.6568 0.754 -0.754 0.6568 75.626 -77.9568)" fill="#7AC2F7" width="39.314" height="0.243"/>
			</g>
			<g>
				<line fill="#7AC2F7" x1="136.367" y1="58.929" x2="168.404" y2="74.343"/>
				
					<rect x="134.61" y="66.521" transform="matrix(0.9011 0.4336 -0.4336 0.9011 43.9605 -59.4823)" fill="#7AC2F7" width="35.551" height="0.229"/>
			</g>
			<g>
				<line fill="#7AC2F7" x1="136.367" y1="58.929" x2="187.676" y2="41.077"/>
				
					<rect x="161.874" y="22.841" transform="matrix(0.3252 0.9457 -0.9457 0.3252 156.6221 -119.473)" fill="#7AC2F7" width="0.294" height="54.323"/>
			</g>
			<g>
				<line fill="#7AC2F7" x1="136.367" y1="58.929" x2="161.014" y2="114.696"/>
				
					<rect x="118.206" y="86.653" transform="matrix(0.4042 0.9147 -0.9147 0.4042 167.9887 -84.2818)" fill="#7AC2F7" width="60.971" height="0.318"/>
			</g>
			<g>
				<line fill="#7AC2F7" x1="136.367" y1="58.929" x2="188.053" y2="18.334"/>
				
					<rect x="162.044" y="5.77" transform="matrix(0.6154 0.7882 -0.7882 0.6154 92.8435 -113.0032)" fill="#7AC2F7" width="0.333" height="65.722"/>
			</g>
			<g>
				<line fill="#7AC2F7" x1="136.367" y1="58.929" x2="86.225" y2="62.783"/>
				
					<rect x="111.156" y="35.71" transform="matrix(0.0767 0.9971 -0.9971 0.0767 163.4366 -54.7796)" fill="#7AC2F7" width="0.28" height="50.292"/>
			</g>
			<g>
				<line fill="#7AC2F7" x1="136.367" y1="58.929" x2="110.459" y2="87.06"/>
				
					<rect x="123.295" y="53.871" transform="matrix(0.7372 0.6757 -0.6757 0.7372 81.7625 -64.2078)" fill="#7AC2F7" width="0.238" height="38.245"/>
			</g>
			<g>
				<line fill="#7AC2F7" x1="136.367" y1="58.929" x2="93.863" y2="105.972"/>
				
					<rect x="114.952" y="50.75" transform="matrix(0.7436 0.6686 -0.6686 0.7436 84.6454 -55.829)" fill="#7AC2F7" width="0.326" height="63.401"/>
			</g>
		</g>
		<g>
			<g>
				<line fill="#7AC2F7" x1="208.998" y1="126.028" x2="251.783" y2="126.143"/>
				
					<rect x="208.999" y="125.958" transform="matrix(1 0.0027 -0.0027 1 0.3375 -0.6148)" fill="#7AC2F7" width="42.785" height="0.254"/>
			</g>
			<g>
				<line fill="#7AC2F7" x1="208.998" y1="126.028" x2="178.039" y2="154.394"/>
				
					<rect x="193.394" y="119.217" transform="matrix(0.6754 0.7375 -0.7375 0.6754 166.2239 -97.1998)" fill="#7AC2F7" width="0.252" height="41.989"/>
			</g>
			<g>
				<line fill="#7AC2F7" x1="208.998" y1="126.028" x2="270.631" y2="124.887"/>
				
					<rect x="239.655" y="94.636" transform="matrix(0.0183 0.9998 -0.9998 0.0183 360.8658 -116.6124)" fill="#7AC2F7" width="0.32" height="61.643"/>
			</g>
			<g>
				<line fill="#7AC2F7" x1="208.998" y1="126.028" x2="204.025" y2="80.615"/>
				
					<rect x="183.669" y="103.191" transform="matrix(0.1088 0.9941 -0.9941 0.1088 286.7418 -113.2088)" fill="#7AC2F7" width="45.685" height="0.263"/>
			</g>
			<g>
				<line fill="#7AC2F7" x1="208.998" y1="126.028" x2="168.404" y2="74.343"/>
				
					<rect x="155.84" y="100.018" transform="matrix(0.6177 0.7864 -0.7864 0.6177 150.9333 -110.0973)" fill="#7AC2F7" width="65.723" height="0.335"/>
			</g>
			<g>
				<line fill="#7AC2F7" x1="208.998" y1="126.028" x2="161.014" y2="114.696"/>
				
					<rect x="160.355" y="120.224" transform="matrix(0.9732 0.2299 -0.2299 0.9732 32.6198 -39.3024)" fill="#7AC2F7" width="49.305" height="0.276"/>
			</g>
			<g>
				<line fill="#7AC2F7" x1="208.998" y1="126.028" x2="213.76" y2="90.763"/>
				
					<rect x="211.265" y="90.603" transform="matrix(0.9906 0.1366 -0.1366 0.9906 16.7934 -27.8656)" fill="#7AC2F7" width="0.229" height="35.586"/>
			</g>
		</g>
		<g>
			<g>
				<line fill="#7AC2F7" x1="307.822" y1="109.41" x2="281.119" y2="89.546"/>
				
					<rect x="277.829" y="99.368" transform="matrix(0.8024 0.5968 -0.5968 0.8024 117.5715 -156.0906)" fill="#7AC2F7" width="33.281" height="0.22"/>
			</g>
			<g>
				<line fill="#7AC2F7" x1="307.822" y1="109.41" x2="251.783" y2="126.143"/>
				
					<rect x="279.648" y="88.534" transform="matrix(0.2905 0.9569 -0.9569 0.2905 311.2068 -184.175)" fill="#7AC2F7" width="0.309" height="58.484"/>
			</g>
			<g>
				<line fill="#7AC2F7" x1="307.822" y1="109.41" x2="270.631" y2="124.887"/>
				
					<rect x="289.104" y="97.007" transform="matrix(0.3824 0.924 -0.924 0.3824 286.8874 -194.8937)" fill="#7AC2F7" width="0.245" height="40.283"/>
			</g>
			<g>
				<line fill="#7AC2F7" x1="307.822" y1="109.41" x2="301.939" y2="58.787"/>
				
					<rect x="279.399" y="83.957" transform="matrix(0.1154 0.9933 -0.9933 0.1154 353.2238 -228.452)" fill="#7AC2F7" width="50.963" height="0.283"/>
			</g>
			<g>
				<line fill="#7AC2F7" x1="307.822" y1="109.41" x2="301.939" y2="58.787"/>
				
					<rect x="279.399" y="83.957" transform="matrix(0.1154 0.9933 -0.9933 0.1154 353.2238 -228.452)" fill="#7AC2F7" width="50.963" height="0.283"/>
			</g>
			<g>
				<line fill="#7AC2F7" x1="307.822" y1="109.41" x2="325.979" y2="80.875"/>
				
					<rect x="316.788" y="78.233" transform="matrix(0.842 0.5394 -0.5394 0.842 101.3823 -155.9146)" fill="#7AC2F7" width="0.223" height="33.82"/>
			</g>
			<g>
				<line fill="#7AC2F7" x1="307.822" y1="109.41" x2="300.109" y2="60.495"/>
				
					<rect x="279.207" y="84.814" transform="matrix(0.1558 0.9878 -0.9878 0.1558 340.5365 -228.5354)" fill="#7AC2F7" width="49.518" height="0.277"/>
			</g>
		</g>
		<g>
			<g>
				<line fill="#7AC2F7" x1="386.418" y1="78.738" x2="325.979" y2="80.875"/>
				
					<rect x="356.04" y="49.568" transform="matrix(0.0309 0.9995 -0.9995 0.0309 424.9446 -278.6902)" fill="#7AC2F7" width="0.316" height="60.479"/>
			</g>
		</g>
		<g>
			<g>
				<line fill="#7AC2F7" x1="230.199" y1="21.152" x2="241.818" y2="59.572"/>
				
					<rect x="215.94" y="40.24" transform="matrix(0.2895 0.9572 -0.9572 0.2895 206.324 -197.2257)" fill="#7AC2F7" width="40.138" height="0.245"/>
			</g>
			<g>
				<line fill="#7AC2F7" x1="230.199" y1="21.152" x2="204.025" y2="80.615"/>
				
					<rect x="216.947" y="18.399" transform="matrix(0.9147 0.4042 -0.4042 0.9147 39.0964 -83.4191)" fill="#7AC2F7" width="0.331" height="64.969"/>
			</g>
			<g>
				<line fill="#7AC2F7" x1="230.199" y1="21.152" x2="187.676" y2="41.077"/>
				
					<rect x="208.803" y="7.635" transform="matrix(0.4223 0.9065 -0.9065 0.4223 148.9101 -171.4185)" fill="#7AC2F7" width="0.268" height="46.96"/>
			</g>
			<g>
				<line fill="#7AC2F7" x1="230.199" y1="21.152" x2="188.053" y2="18.334"/>
				
					<rect x="188.007" y="19.617" transform="matrix(0.9978 0.0667 -0.0667 0.9978 1.7833 -13.9093)" fill="#7AC2F7" width="42.241" height="0.253"/>
			</g>
			<g>
				<line fill="#7AC2F7" x1="230.199" y1="21.152" x2="276.588" y2="39.242"/>
				
					<rect x="228.498" y="30.058" transform="matrix(0.9317 0.3633 -0.3633 0.9317 28.2864 -89.9982)" fill="#7AC2F7" width="49.791" height="0.279"/>
			</g>
		</g>
		<g>
			<g>
				<line fill="#7AC2F7" x1="351.764" y1="56.283" x2="386.418" y2="78.738"/>
				
					<rect x="348.445" y="67.386" transform="matrix(0.8392 0.5438 -0.5438 0.8392 96.0545 -189.8549)" fill="#7AC2F7" width="41.293" height="0.249"/>
			</g>
			<g>
				<line fill="#7AC2F7" x1="351.764" y1="56.283" x2="307.822" y2="109.41"/>
				
					<rect x="329.621" y="48.375" transform="matrix(0.7705 0.6374 -0.6374 0.7705 128.4808 -191.1978)" fill="#7AC2F7" width="0.345" height="68.944"/>
			</g>
			<g>
				<line fill="#7AC2F7" x1="351.764" y1="56.283" x2="301.939" y2="58.787"/>
				
					<rect x="326.713" y="32.591" transform="matrix(0.0559 0.9984 -0.9984 0.0559 366.0415 -272.0204)" fill="#7AC2F7" width="0.28" height="49.889"/>
			</g>
			<g>
				<line fill="#7AC2F7" x1="351.764" y1="56.283" x2="301.939" y2="58.787"/>
				
					<rect x="326.713" y="32.591" transform="matrix(0.0559 0.9984 -0.9984 0.0559 366.0415 -272.0204)" fill="#7AC2F7" width="0.28" height="49.889"/>
			</g>
			<g>
				<line fill="#7AC2F7" x1="351.764" y1="56.283" x2="325.979" y2="80.875"/>
				
					<rect x="338.757" y="50.763" transform="matrix(0.692 0.7219 -0.7219 0.692 153.8805 -223.5081)" fill="#7AC2F7" width="0.229" height="35.633"/>
			</g>
			<g>
				<line fill="#7AC2F7" x1="351.764" y1="56.283" x2="300.109" y2="60.495"/>
				
					<rect x="325.794" y="32.477" transform="matrix(0.0822 0.9966 -0.9966 0.0822 357.3382 -271.2433)" fill="#7AC2F7" width="0.285" height="51.826"/>
			</g>
		</g>
		<g>
			<g>
				<line fill="#7AC2F7" x1="-12.416" y1="145.09" x2="-24.529" y2="81.579"/>
				
					<rect x="-50.801" y="113.168" transform="matrix(0.1874 0.9823 -0.9823 0.1874 96.3158 110.2433)" fill="#7AC2F7" width="64.656" height="0.332"/>
			</g>
			<g>
				<line fill="#7AC2F7" x1="-12.416" y1="145.09" x2="-42.875" y2="147.173"/>
				
					<rect x="-27.751" y="130.865" transform="matrix(0.065 0.9979 -0.9979 0.065 119.9729 164.2226)" fill="#7AC2F7" width="0.21" height="30.532"/>
			</g>
			<g>
				<line fill="#7AC2F7" x1="-12.416" y1="145.09" x2="-52.025" y2="104.341"/>
				
					<rect x="-60.634" y="124.564" transform="matrix(0.697 0.7171 -0.7171 0.697 79.6664 60.8913)" fill="#7AC2F7" width="56.828" height="0.302"/>
			</g>
			<g>
				<line fill="#7AC2F7" x1="-12.416" y1="145.09" x2="41.934" y2="153.644"/>
				
					<rect x="-12.751" y="149.218" transform="matrix(0.9878 0.1555 -0.1555 0.9878 23.4014 -0.4783)" fill="#7AC2F7" width="55.019" height="0.297"/>
			</g>
			<g>
				<line fill="#7AC2F7" x1="-12.416" y1="145.09" x2="-62.369" y2="111.887"/>
				
					<rect x="-67.384" y="128.331" transform="matrix(0.8328 0.5535 -0.5535 0.8328 64.8725 42.1789)" fill="#7AC2F7" width="59.983" height="0.314"/>
			</g>
			<g>
				<line fill="#7AC2F7" x1="-12.416" y1="145.09" x2="8.996" y2="120.893"/>
				
					<rect x="-1.818" y="116.836" transform="matrix(0.7464 0.6655 -0.6655 0.7464 88.0695 34.8617)" fill="#7AC2F7" width="0.217" height="32.311"/>
			</g>
			<g>
				<line fill="#7AC2F7" x1="-12.416" y1="145.09" x2="8.996" y2="120.893"/>
				
					<rect x="-1.818" y="116.836" transform="matrix(0.7464 0.6655 -0.6655 0.7464 88.0695 34.8617)" fill="#7AC2F7" width="0.217" height="32.311"/>
			</g>
			<g>
				<line fill="#7AC2F7" x1="-12.416" y1="145.09" x2="31.918" y2="147.712"/>
				
					<rect x="-12.455" y="146.27" transform="matrix(0.9983 0.059 -0.059 0.9983 8.6573 -0.3203)" fill="#7AC2F7" width="44.411" height="0.26"/>
			</g>
			<g>
				<line fill="#7AC2F7" x1="-12.416" y1="145.09" x2="28.615" y2="101.266"/>
				
					<rect x="7.944" y="93.161" transform="matrix(0.7286 0.685 -0.685 0.7286 86.5726 27.886)" fill="#7AC2F7" width="0.314" height="60.034"/>
			</g>
			<g>
				<line fill="#7AC2F7" x1="-12.416" y1="145.09" x2="28.615" y2="101.266"/>
				
					<rect x="7.944" y="93.161" transform="matrix(0.7286 0.685 -0.685 0.7286 86.5726 27.886)" fill="#7AC2F7" width="0.314" height="60.034"/>
			</g>
		</g>
	</g>
	<circle fill="#7AC2F7" cx="28.615" cy="101.266" r="0.977"/>
	<circle fill="#7AC2F7" cx="25.65" cy="80.587" r="0.977"/>
	<circle fill="#7AC2F7" cx="28.615" cy="101.266" r="0.977"/>
	<circle fill="#7AC2F7" cx="25.65" cy="80.587" r="0.977"/>
	<circle fill="#7AC2F7" cx="25.65" cy="80.587" r="0.977"/>
	<circle fill="#7AC2F7" cx="31.918" cy="147.712" r="0.977"/>
	<circle fill="#7AC2F7" cx="28.615" cy="101.266" r="0.977"/>
	<circle fill="#7AC2F7" cx="31.918" cy="147.712" r="0.977"/>
	<circle fill="#7AC2F7" cx="28.615" cy="101.266" r="0.977"/>
	<circle fill="#7AC2F7" cx="31.918" cy="147.712" r="0.977"/>
	<circle fill="#7AC2F7" cx="28.615" cy="101.266" r="0.977"/>
	<circle fill="#7AC2F7" cx="93.863" cy="105.972" r="0.977"/>
	<circle fill="#7AC2F7" cx="28.615" cy="101.266" r="0.977"/>
	<circle fill="#7AC2F7" cx="93.863" cy="105.972" r="0.977"/>
	<circle fill="#7AC2F7" cx="93.863" cy="105.972" r="0.977"/>
	<circle fill="#7AC2F7" cx="110.459" cy="87.06" r="0.977"/>
	<circle fill="#7AC2F7" cx="110.459" cy="87.06" r="0.977"/>
	<circle fill="#7AC2F7" cx="86.225" cy="62.783" r="0.977"/>
	<circle fill="#7AC2F7" cx="93.863" cy="105.972" r="0.977"/>
	<circle fill="#7AC2F7" cx="86.225" cy="62.783" r="0.977"/>
	<circle fill="#7AC2F7" cx="25.65" cy="80.587" r="0.977"/>
	<circle fill="#7AC2F7" cx="86.225" cy="62.783" r="0.977"/>
	<circle fill="#7AC2F7" cx="28.615" cy="101.266" r="0.977"/>
	<circle fill="#7AC2F7" cx="86.225" cy="62.783" r="0.977"/>
	<circle fill="#7AC2F7" cx="28.615" cy="101.266" r="0.977"/>
	<circle fill="#7AC2F7" cx="86.225" cy="62.783" r="0.977"/>
	<circle fill="#7AC2F7" cx="25.65" cy="80.587" r="0.977"/>
	<circle fill="#7AC2F7" cx="13.57" cy="71.312" r="0.977"/>
	<circle fill="#7AC2F7" cx="28.615" cy="101.266" r="0.977"/>
	<circle fill="#7AC2F7" cx="13.57" cy="71.312" r="0.977"/>
	<circle fill="#7AC2F7" cx="28.615" cy="101.266" r="0.977"/>
	<circle fill="#7AC2F7" cx="13.57" cy="71.312" r="0.977"/>
	<circle fill="#7AC2F7" cx="-143.395" cy="98.46" r="0.977"/>
	<circle fill="#7AC2F7" cx="-98.076" cy="112.017" r="0.977"/>
	<circle fill="#7AC2F7" cx="13.57" cy="71.312" r="0.977"/>
	<circle fill="#7AC2F7" cx="8.996" cy="120.893" r="0.977"/>
	<circle fill="#7AC2F7" cx="31.918" cy="147.712" r="0.977"/>
	<circle fill="#7AC2F7" cx="8.996" cy="120.893" r="0.977"/>
	<circle fill="#7AC2F7" cx="25.65" cy="80.587" r="0.977"/>
	<circle fill="#7AC2F7" cx="8.996" cy="120.893" r="0.977"/>
	<circle fill="#7AC2F7" cx="28.615" cy="101.266" r="0.977"/>
	<circle fill="#7AC2F7" cx="8.996" cy="120.893" r="0.977"/>
	<circle fill="#7AC2F7" cx="28.615" cy="101.266" r="0.977"/>
	<circle fill="#7AC2F7" cx="8.996" cy="120.893" r="0.977"/>
	<circle fill="#7AC2F7" cx="13.57" cy="71.312" r="0.977"/>
	<circle fill="#7AC2F7" cx="8.996" cy="120.893" r="0.977"/>
	<circle fill="#7AC2F7" cx="31.918" cy="147.712" r="0.977"/>
	<circle fill="#7AC2F7" cx="8.996" cy="120.893" r="0.977"/>
	<circle fill="#7AC2F7" cx="25.65" cy="80.587" r="0.977"/>
	<circle fill="#7AC2F7" cx="8.996" cy="120.893" r="0.977"/>
	<circle fill="#7AC2F7" cx="28.615" cy="101.266" r="0.977"/>
	<circle fill="#7AC2F7" cx="8.996" cy="120.893" r="0.977"/>
	<circle fill="#7AC2F7" cx="28.615" cy="101.266" r="0.977"/>
	<circle fill="#7AC2F7" cx="8.996" cy="120.893" r="0.977"/>
	<circle fill="#7AC2F7" cx="-98.076" cy="112.017" r="0.977"/>
	<circle fill="#7AC2F7" cx="-62.369" cy="111.887" r="0.977"/>
	<circle fill="#7AC2F7" cx="86.225" cy="62.783" r="0.977"/>
	<circle fill="#7AC2F7" cx="93.805" cy="127.364" r="0.977"/>
	<circle fill="#7AC2F7" cx="110.459" cy="87.06" r="0.977"/>
	<circle fill="#7AC2F7" cx="93.805" cy="127.364" r="0.977"/>
	<circle fill="#7AC2F7" cx="93.863" cy="105.972" r="0.977"/>
	<circle fill="#7AC2F7" cx="93.805" cy="127.364" r="0.977"/>
	<circle fill="#7AC2F7" cx="31.918" cy="147.712" r="0.977"/>
	<circle fill="#7AC2F7" cx="93.805" cy="127.364" r="0.977"/>
	<circle fill="#7AC2F7" cx="13.57" cy="71.312" r="0.977"/>
	<circle fill="#7AC2F7" cx="45.891" cy="31.14" r="0.977"/>
	<circle fill="#7AC2F7" cx="86.225" cy="62.783" r="0.977"/>
	<circle fill="#7AC2F7" cx="45.891" cy="31.14" r="0.977"/>
	<circle fill="#7AC2F7" cx="25.65" cy="80.587" r="0.977"/>
	<circle fill="#7AC2F7" cx="45.891" cy="31.14" r="0.977"/>
	<circle fill="#7AC2F7" cx="276.588" cy="39.242" r="0.977"/>
	<circle fill="#7AC2F7" cx="300.109" cy="60.495" r="0.977"/>
	<circle fill="#7AC2F7" cx="213.76" cy="90.763" r="0.977"/>
	<circle fill="#7AC2F7" cx="161.014" cy="114.696" r="0.977"/>
	<circle fill="#7AC2F7" cx="93.805" cy="127.364" r="0.977"/>
	<circle fill="#7AC2F7" cx="161.014" cy="114.696" r="0.977"/>
	<circle fill="#7AC2F7" cx="110.459" cy="87.06" r="0.977"/>
	<circle fill="#7AC2F7" cx="161.014" cy="114.696" r="0.977"/>
	<circle fill="#7AC2F7" cx="93.863" cy="105.972" r="0.977"/>
	<circle fill="#7AC2F7" cx="161.014" cy="114.696" r="0.977"/>
	<circle fill="#7AC2F7" cx="188.053" cy="18.334" r="0.977"/>
	<circle fill="#7AC2F7" cx="187.676" cy="41.077" r="0.977"/>
	<circle fill="#7AC2F7" cx="213.76" cy="90.763" r="0.977"/>
	<circle fill="#7AC2F7" cx="187.676" cy="41.077" r="0.977"/>
	<circle fill="#7AC2F7" cx="300.109" cy="60.495" r="0.977"/>
	<circle fill="#7AC2F7" cx="325.979" cy="80.875" r="0.977"/>
	<circle fill="#7AC2F7" cx="276.588" cy="39.242" r="0.977"/>
	<circle fill="#7AC2F7" cx="325.979" cy="80.875" r="0.977"/>
	<circle fill="#7AC2F7" cx="187.676" cy="41.077" r="0.977"/>
	<circle fill="#7AC2F7" cx="168.404" cy="74.343" r="0.977"/>
	<circle fill="#7AC2F7" cx="161.014" cy="114.696" r="0.977"/>
	<circle fill="#7AC2F7" cx="168.404" cy="74.343" r="0.977"/>
	<circle fill="#7AC2F7" cx="188.053" cy="18.334" r="0.977"/>
	<circle fill="#7AC2F7" cx="168.404" cy="74.343" r="0.977"/>
	<circle fill="#7AC2F7" cx="213.76" cy="90.763" r="0.977"/>
	<circle fill="#7AC2F7" cx="168.404" cy="74.343" r="0.977"/>
	<circle fill="#7AC2F7" cx="110.459" cy="87.06" r="0.977"/>
	<circle fill="#7AC2F7" cx="168.404" cy="74.343" r="0.977"/>
	<circle fill="#7AC2F7" cx="325.979" cy="80.875" r="0.977"/>
	<circle fill="#7AC2F7" cx="301.939" cy="58.787" r="0.977"/>
	<circle fill="#7AC2F7" cx="300.109" cy="60.495" r="0.977"/>
	<circle fill="#7AC2F7" cx="301.939" cy="58.787" r="0.977"/>
	<circle fill="#7AC2F7" cx="276.588" cy="39.242" r="0.977"/>
	<circle fill="#7AC2F7" cx="301.939" cy="58.787" r="0.977"/>
	<circle fill="#7AC2F7" cx="325.979" cy="80.875" r="0.977"/>
	<circle fill="#7AC2F7" cx="301.939" cy="58.787" r="0.977"/>
	<circle fill="#7AC2F7" cx="300.109" cy="60.495" r="0.977"/>
	<circle fill="#7AC2F7" cx="301.939" cy="58.787" r="0.977"/>
	<circle fill="#7AC2F7" cx="276.588" cy="39.242" r="0.977"/>
	<circle fill="#7AC2F7" cx="301.939" cy="58.787" r="0.977"/>
	<circle fill="#7AC2F7" cx="168.404" cy="74.343" r="0.977"/>
	<circle fill="#7AC2F7" cx="204.025" cy="80.615" r="0.977"/>
	<circle fill="#7AC2F7" cx="187.676" cy="41.077" r="0.977"/>
	<circle fill="#7AC2F7" cx="204.025" cy="80.615" r="0.977"/>
	<circle fill="#7AC2F7" cx="161.014" cy="114.696" r="0.977"/>
	<circle fill="#7AC2F7" cx="204.025" cy="80.615" r="0.977"/>
	<circle fill="#7AC2F7" cx="188.053" cy="18.334" r="0.977"/>
	<circle fill="#7AC2F7" cx="204.025" cy="80.615" r="0.977"/>
	<circle fill="#7AC2F7" cx="213.76" cy="90.763" r="0.977"/>
	<circle fill="#7AC2F7" cx="204.025" cy="80.615" r="0.977"/>
	<circle fill="#7AC2F7" cx="213.76" cy="90.763" r="0.977"/>
	<circle fill="#7AC2F7" cx="270.631" cy="124.887" r="0.977"/>
	<circle fill="#7AC2F7" cx="161.014" cy="114.696" r="0.977"/>
	<circle fill="#7AC2F7" cx="140.428" cy="150.505" r="0.977"/>
	<circle fill="#7AC2F7" cx="93.805" cy="127.364" r="0.977"/>
	<circle fill="#7AC2F7" cx="140.428" cy="150.505" r="0.977"/>
	<circle fill="#7AC2F7" cx="93.863" cy="105.972" r="0.977"/>
	<circle fill="#7AC2F7" cx="140.428" cy="150.505" r="0.977"/>
	<circle fill="#7AC2F7" cx="93.805" cy="127.364" r="0.977"/>
	<circle fill="#7AC2F7" cx="41.934" cy="153.644" r="0.977"/>
	<circle fill="#7AC2F7" cx="8.996" cy="120.893" r="0.977"/>
	<circle fill="#7AC2F7" cx="41.934" cy="153.644" r="0.977"/>
	<circle fill="#7AC2F7" cx="8.996" cy="120.893" r="0.977"/>
	<circle fill="#7AC2F7" cx="41.934" cy="153.644" r="0.977"/>
	<circle fill="#7AC2F7" cx="31.918" cy="147.712" r="0.977"/>
	<circle fill="#7AC2F7" cx="41.934" cy="153.644" r="0.977"/>
	<circle fill="#7AC2F7" cx="28.615" cy="101.266" r="0.977"/>
	<circle fill="#7AC2F7" cx="41.934" cy="153.644" r="0.977"/>
	<circle fill="#7AC2F7" cx="28.615" cy="101.266" r="0.977"/>
	<circle fill="#7AC2F7" cx="41.934" cy="153.644" r="0.977"/>
	<circle fill="#7AC2F7" cx="140.428" cy="150.505" r="0.977"/>
	<circle fill="#7AC2F7" cx="178.039" cy="154.394" r="0.977"/>
	<circle fill="#7AC2F7" cx="161.014" cy="114.696" r="0.977"/>
	<circle fill="#7AC2F7" cx="178.039" cy="154.394" r="0.977"/>
	<circle fill="#7AC2F7" cx="270.631" cy="124.887" r="0.977"/>
	<circle fill="#7AC2F7" cx="251.783" cy="126.143" r="0.977"/>
	<circle fill="#7AC2F7" cx="204.025" cy="80.615" r="0.977"/>
	<circle fill="#7AC2F7" cx="251.783" cy="126.143" r="0.977"/>
	<circle fill="#7AC2F7" cx="213.76" cy="90.763" r="0.977"/>
	<circle fill="#7AC2F7" cx="251.783" cy="126.143" r="0.977"/>
	<circle fill="#7AC2F7" cx="251.783" cy="126.143" r="0.977"/>
	<circle fill="#7AC2F7" cx="281.119" cy="89.546" r="0.977"/>
	<circle fill="#7AC2F7" cx="270.631" cy="124.887" r="0.977"/>
	<circle fill="#7AC2F7" cx="281.119" cy="89.546" r="0.977"/>
	<circle fill="#7AC2F7" cx="301.939" cy="58.787" r="0.977"/>
	<circle fill="#7AC2F7" cx="281.119" cy="89.546" r="0.977"/>
	<circle fill="#7AC2F7" cx="301.939" cy="58.787" r="0.977"/>
	<circle fill="#7AC2F7" cx="281.119" cy="89.546" r="0.977"/>
	<circle fill="#7AC2F7" cx="325.979" cy="80.875" r="0.977"/>
	<circle fill="#7AC2F7" cx="281.119" cy="89.546" r="0.977"/>
	<circle fill="#7AC2F7" cx="300.109" cy="60.495" r="0.977"/>
	<circle fill="#7AC2F7" cx="281.119" cy="89.546" r="0.977"/>
	<circle fill="#7AC2F7" cx="276.588" cy="39.242" r="0.977"/>
	<circle fill="#7AC2F7" cx="281.119" cy="89.546" r="0.977"/>
	<circle fill="#7AC2F7" cx="213.76" cy="90.763" r="0.977"/>
	<circle fill="#7AC2F7" cx="281.119" cy="89.546" r="0.977"/>
	<circle fill="#7AC2F7" cx="281.119" cy="89.546" r="0.977"/>
	<circle fill="#7AC2F7" cx="241.818" cy="59.572" r="0.977"/>
	<circle fill="#7AC2F7" cx="251.783" cy="126.143" r="0.977"/>
	<circle fill="#7AC2F7" cx="241.818" cy="59.572" r="0.977"/>
	<circle fill="#7AC2F7" cx="204.025" cy="80.615" r="0.977"/>
	<circle fill="#7AC2F7" cx="241.818" cy="59.572" r="0.977"/>
	<circle fill="#7AC2F7" cx="301.939" cy="58.787" r="0.977"/>
	<circle fill="#7AC2F7" cx="241.818" cy="59.572" r="0.977"/>
	<circle fill="#7AC2F7" cx="301.939" cy="58.787" r="0.977"/>
	<circle fill="#7AC2F7" cx="241.818" cy="59.572" r="0.977"/>
	<circle fill="#7AC2F7" cx="187.676" cy="41.077" r="0.977"/>
	<circle fill="#7AC2F7" cx="241.818" cy="59.572" r="0.977"/>
	<circle fill="#7AC2F7" cx="300.109" cy="60.495" r="0.977"/>
	<circle fill="#7AC2F7" cx="241.818" cy="59.572" r="0.977"/>
	<circle fill="#7AC2F7" cx="188.053" cy="18.334" r="0.977"/>
	<circle fill="#7AC2F7" cx="241.818" cy="59.572" r="0.977"/>
	<circle fill="#7AC2F7" cx="276.588" cy="39.242" r="0.977"/>
	<circle fill="#7AC2F7" cx="241.818" cy="59.572" r="0.977"/>
	<circle fill="#7AC2F7" cx="213.76" cy="90.763" r="0.977"/>
	<circle fill="#7AC2F7" cx="241.818" cy="59.572" r="0.977"/>
	<circle fill="#7AC2F7" cx="-62.369" cy="111.887" r="0.977"/>
	<circle fill="#7AC2F7" cx="-52.025" cy="104.341" r="0.977"/>
	<circle fill="#7AC2F7" cx="8.996" cy="120.893" r="0.977"/>
	<circle fill="#7AC2F7" cx="-52.025" cy="104.341" r="0.977"/>
	<circle fill="#7AC2F7" cx="8.996" cy="120.893" r="0.977"/>
	<circle fill="#7AC2F7" cx="-52.025" cy="104.341" r="0.977"/>
	<circle fill="#7AC2F7" cx="-98.076" cy="112.017" r="0.977"/>
	<circle fill="#7AC2F7" cx="-52.025" cy="104.341" r="0.977"/>
	<circle fill="#7AC2F7" cx="-52.025" cy="104.341" r="0.977"/>
	<circle fill="#7AC2F7" cx="-42.875" cy="147.173" r="0.977"/>
	<circle fill="#7AC2F7" cx="-62.369" cy="111.887" r="0.977"/>
	<circle fill="#7AC2F7" cx="-42.875" cy="147.173" r="0.977"/>
	<circle fill="#7AC2F7" cx="8.996" cy="120.893" r="0.977"/>
	<circle fill="#7AC2F7" cx="-42.875" cy="147.173" r="0.977"/>
	<circle fill="#7AC2F7" cx="8.996" cy="120.893" r="0.977"/>
	<circle fill="#7AC2F7" cx="-42.875" cy="147.173" r="0.977"/>
	<circle fill="#7AC2F7" cx="-98.076" cy="112.017" r="0.977"/>
	<circle fill="#7AC2F7" cx="-42.875" cy="147.173" r="0.977"/>
	<circle fill="#7AC2F7" cx="-42.875" cy="147.173" r="0.977"/>
	<circle fill="#7AC2F7" cx="-24.529" cy="81.579" r="0.977"/>
	<circle fill="#7AC2F7" cx="-52.025" cy="104.341" r="0.977"/>
	<circle fill="#7AC2F7" cx="-24.529" cy="81.579" r="0.977"/>
	<circle fill="#7AC2F7" cx="-62.369" cy="111.887" r="0.977"/>
	<circle fill="#7AC2F7" cx="-24.529" cy="81.579" r="0.977"/>
	<circle fill="#7AC2F7" cx="8.996" cy="120.893" r="0.977"/>
	<circle fill="#7AC2F7" cx="-24.529" cy="81.579" r="0.977"/>
	<circle fill="#7AC2F7" cx="8.996" cy="120.893" r="0.977"/>
	<circle fill="#7AC2F7" cx="-24.529" cy="81.579" r="0.977"/>
	<circle fill="#7AC2F7" cx="13.57" cy="71.312" r="0.977"/>
	<circle fill="#7AC2F7" cx="-24.529" cy="81.579" r="0.977"/>
	<circle fill="#7AC2F7" cx="25.65" cy="80.587" r="0.977"/>
	<circle fill="#7AC2F7" cx="-24.529" cy="81.579" r="0.977"/>
	<circle fill="#7AC2F7" cx="28.615" cy="101.266" r="0.977"/>
	<circle fill="#7AC2F7" cx="-24.529" cy="81.579" r="0.977"/>
	<circle fill="#7AC2F7" cx="28.615" cy="101.266" r="0.977"/>
	<circle fill="#7AC2F7" cx="-24.529" cy="81.579" r="0.977"/>
	<circle fill="#7AC2F7" cx="45.891" cy="31.14" r="0.977"/>
	<circle fill="#7AC2F7" cx="110.547" cy="29.284" r="0.977"/>
	<circle fill="#7AC2F7" cx="86.225" cy="62.783" r="0.977"/>
	<circle fill="#7AC2F7" cx="110.547" cy="29.284" r="0.977"/>
	<circle fill="#7AC2F7" cx="110.459" cy="87.06" r="0.977"/>
	<circle fill="#7AC2F7" cx="110.547" cy="29.284" r="0.977"/>
	<circle fill="#7AC2F7" cx="110.547" cy="29.284" r="0.977"/>
	<circle fill="#7AC2F7" cx="160.371" cy="26.78" r="0.977"/>
	<circle fill="#7AC2F7" cx="204.025" cy="80.615" r="0.977"/>
	<circle fill="#7AC2F7" cx="160.371" cy="26.78" r="0.977"/>
	<circle fill="#7AC2F7" cx="168.404" cy="74.343" r="0.977"/>
	<circle fill="#7AC2F7" cx="160.371" cy="26.78" r="0.977"/>
	<circle fill="#7AC2F7" cx="187.676" cy="41.077" r="0.977"/>
	<circle fill="#7AC2F7" cx="160.371" cy="26.78" r="0.977"/>
	<circle fill="#7AC2F7" cx="188.053" cy="18.334" r="0.977"/>
	<circle fill="#7AC2F7" cx="160.371" cy="26.78" r="0.977"/>
	<circle fill="#7AC2F7" cx="160.371" cy="26.78" r="0.977"/>
	<circle fill="#7AC2F7" cx="136.367" cy="58.929" r="0.977"/>
	<circle fill="#7AC2F7" cx="110.547" cy="29.284" r="0.977"/>
	<circle fill="#7AC2F7" cx="136.367" cy="58.929" r="0.977"/>
	<circle fill="#7AC2F7" cx="168.404" cy="74.343" r="0.977"/>
	<circle fill="#7AC2F7" cx="136.367" cy="58.929" r="0.977"/>
	<circle fill="#7AC2F7" cx="187.676" cy="41.077" r="0.977"/>
	<circle fill="#7AC2F7" cx="136.367" cy="58.929" r="0.977"/>
	<circle fill="#7AC2F7" cx="161.014" cy="114.696" r="0.977"/>
	<circle fill="#7AC2F7" cx="136.367" cy="58.929" r="0.977"/>
	<circle fill="#7AC2F7" cx="188.053" cy="18.334" r="0.977"/>
	<circle fill="#7AC2F7" cx="136.367" cy="58.929" r="0.977"/>
	<circle fill="#7AC2F7" cx="86.225" cy="62.783" r="0.977"/>
	<circle fill="#7AC2F7" cx="136.367" cy="58.929" r="0.977"/>
	<circle fill="#7AC2F7" cx="110.459" cy="87.06" r="0.977"/>
	<circle fill="#7AC2F7" cx="136.367" cy="58.929" r="0.977"/>
	<circle fill="#7AC2F7" cx="93.863" cy="105.972" r="0.977"/>
	<circle fill="#7AC2F7" cx="136.367" cy="58.929" r="0.977"/>
	<circle fill="#7AC2F7" cx="251.783" cy="126.143" r="0.977"/>
	<circle fill="#7AC2F7" cx="208.998" cy="126.028" r="0.977"/>
	<circle fill="#7AC2F7" cx="178.039" cy="154.394" r="0.977"/>
	<circle fill="#7AC2F7" cx="208.998" cy="126.028" r="0.977"/>
	<circle fill="#7AC2F7" cx="270.631" cy="124.887" r="0.977"/>
	<circle fill="#7AC2F7" cx="208.998" cy="126.028" r="0.977"/>
	<circle fill="#7AC2F7" cx="204.025" cy="80.615" r="0.977"/>
	<circle fill="#7AC2F7" cx="208.998" cy="126.028" r="0.977"/>
	<circle fill="#7AC2F7" cx="168.404" cy="74.343" r="0.977"/>
	<circle fill="#7AC2F7" cx="208.998" cy="126.028" r="0.977"/>
	<circle fill="#7AC2F7" cx="161.014" cy="114.696" r="0.977"/>
	<circle fill="#7AC2F7" cx="208.998" cy="126.028" r="0.977"/>
	<circle fill="#7AC2F7" cx="213.76" cy="90.763" r="0.977"/>
	<circle fill="#7AC2F7" cx="208.998" cy="126.028" r="0.977"/>
	<circle fill="#7AC2F7" cx="281.119" cy="89.546" r="0.977"/>
	<circle fill="#7AC2F7" cx="307.822" cy="109.41" r="0.977"/>
	<circle fill="#7AC2F7" cx="251.783" cy="126.143" r="0.977"/>
	<circle fill="#7AC2F7" cx="307.822" cy="109.41" r="0.977"/>
	<circle fill="#7AC2F7" cx="270.631" cy="124.887" r="0.977"/>
	<circle fill="#7AC2F7" cx="307.822" cy="109.41" r="0.977"/>
	<circle fill="#7AC2F7" cx="301.939" cy="58.787" r="0.977"/>
	<circle fill="#7AC2F7" cx="307.822" cy="109.41" r="0.977"/>
	<circle fill="#7AC2F7" cx="301.939" cy="58.787" r="0.977"/>
	<circle fill="#7AC2F7" cx="307.822" cy="109.41" r="0.977"/>
	<circle fill="#7AC2F7" cx="325.979" cy="80.875" r="0.977"/>
	<circle fill="#7AC2F7" cx="307.822" cy="109.41" r="0.977"/>
	<circle fill="#7AC2F7" cx="300.109" cy="60.495" r="0.977"/>
	<circle fill="#7AC2F7" cx="307.822" cy="109.41" r="0.977"/>
	<circle fill="#7AC2F7" cx="325.979" cy="80.875" r="0.977"/>
	<circle fill="#7AC2F7" cx="386.418" cy="78.738" r="0.977"/>
	<circle fill="#7AC2F7" cx="241.818" cy="59.572" r="0.977"/>
	<circle fill="#7AC2F7" cx="230.199" cy="21.152" r="0.977"/>
	<circle fill="#7AC2F7" cx="204.025" cy="80.615" r="0.977"/>
	<circle fill="#7AC2F7" cx="230.199" cy="21.152" r="0.977"/>
	<circle fill="#7AC2F7" cx="187.676" cy="41.077" r="0.977"/>
	<circle fill="#7AC2F7" cx="230.199" cy="21.152" r="0.977"/>
	<circle fill="#7AC2F7" cx="188.053" cy="18.334" r="0.977"/>
	<circle fill="#7AC2F7" cx="230.199" cy="21.152" r="0.977"/>
	<circle fill="#7AC2F7" cx="276.588" cy="39.242" r="0.977"/>
	<circle fill="#7AC2F7" cx="230.199" cy="21.152" r="0.977"/>
	<circle fill="#7AC2F7" cx="386.418" cy="78.738" r="0.977"/>
	<circle fill="#7AC2F7" cx="351.764" cy="56.283" r="0.977"/>
	<circle fill="#7AC2F7" cx="307.822" cy="109.41" r="0.977"/>
	<circle fill="#7AC2F7" cx="351.764" cy="56.283" r="0.977"/>
	<circle fill="#7AC2F7" cx="301.939" cy="58.787" r="0.977"/>
	<circle fill="#7AC2F7" cx="351.764" cy="56.283" r="0.977"/>
	<circle fill="#7AC2F7" cx="301.939" cy="58.787" r="0.977"/>
	<circle fill="#7AC2F7" cx="351.764" cy="56.283" r="0.977"/>
	<circle fill="#7AC2F7" cx="325.979" cy="80.875" r="0.977"/>
	<circle fill="#7AC2F7" cx="351.764" cy="56.283" r="0.977"/>
	<circle fill="#7AC2F7" cx="300.109" cy="60.495" r="0.977"/>
	<circle fill="#7AC2F7" cx="351.764" cy="56.283" r="0.977"/>
	<circle fill="#7AC2F7" cx="-24.529" cy="81.579" r="0.977"/>
	<circle fill="#7AC2F7" cx="-12.416" cy="145.09" r="0.977"/>
	<circle fill="#7AC2F7" cx="-42.875" cy="147.173" r="0.977"/>
	<circle fill="#7AC2F7" cx="-12.416" cy="145.09" r="0.977"/>
	<circle fill="#7AC2F7" cx="-52.025" cy="104.341" r="0.977"/>
	<circle fill="#7AC2F7" cx="-12.416" cy="145.09" r="0.977"/>
	<circle fill="#7AC2F7" cx="41.934" cy="153.644" r="0.977"/>
	<circle fill="#7AC2F7" cx="-12.416" cy="145.09" r="0.977"/>
	<circle fill="#7AC2F7" cx="-62.369" cy="111.887" r="0.977"/>
	<circle fill="#7AC2F7" cx="-12.416" cy="145.09" r="0.977"/>
	<circle fill="#7AC2F7" cx="8.996" cy="120.893" r="0.977"/>
	<circle fill="#7AC2F7" cx="-12.416" cy="145.09" r="0.977"/>
	<circle fill="#7AC2F7" cx="8.996" cy="120.893" r="0.977"/>
	<circle fill="#7AC2F7" cx="-12.416" cy="145.09" r="0.977"/>
	<circle fill="#7AC2F7" cx="31.918" cy="147.712" r="0.977"/>
	<circle fill="#7AC2F7" cx="-12.416" cy="145.09" r="0.977"/>
	<circle fill="#7AC2F7" cx="28.615" cy="101.266" r="0.977"/>
	<circle fill="#7AC2F7" cx="-12.416" cy="145.09" r="0.977"/>
	<circle fill="#7AC2F7" cx="28.615" cy="101.266" r="0.977"/>
	<circle fill="#7AC2F7" cx="-12.416" cy="145.09" r="0.977"/>
</g>
</svg>
