<?xml version="1.0" encoding="utf-8"?>
<!-- Generator: Adobe Illustrator 16.0.3, SVG Export Plug-In . SVG Version: 6.00 Build 0)  -->
<!DOCTYPE svg PUBLIC "-//W3C//DTD SVG 1.1//EN" "http://www.w3.org/Graphics/SVG/1.1/DTD/svg11.dtd">
<svg version="1.1" id="分離模式" xmlns="http://www.w3.org/2000/svg" xmlns:xlink="http://www.w3.org/1999/xlink" x="0px"
	 y="0px" width="396px" height="168px" viewBox="0 0 396 168" enable-background="new 0 0 396 168" xml:space="preserve">
<g opacity="0.8">
	<g>
		<g>
			<g>
				<line fill="#7AC2F7" x1="379.017" y1="81.013" x2="375.09" y2="101.53"/>
				
					<rect x="366.608" y="91.183" transform="matrix(-0.188 0.9822 -0.9822 -0.188 537.5724 -261.9042)" fill="#7AC2F7" width="20.89" height="0.177"/>
			</g>
			<g>
				<line fill="#7AC2F7" x1="379.017" y1="81.013" x2="375.09" y2="101.53"/>
				
					<rect x="366.608" y="91.183" transform="matrix(-0.188 0.9822 -0.9822 -0.188 537.5724 -261.9042)" fill="#7AC2F7" width="20.89" height="0.177"/>
			</g>
		</g>
		<g>
			<g>
				<line fill="#7AC2F7" x1="369.622" y1="147.771" x2="379.017" y2="81.013"/>
				
					<rect x="340.611" y="114.223" transform="matrix(-0.1393 0.9902 -0.9902 -0.1393 539.7465 -240.339)" fill="#7AC2F7" width="67.417" height="0.339"/>
			</g>
			<g>
				<line fill="#7AC2F7" x1="369.622" y1="147.771" x2="375.09" y2="101.53"/>
				
					<rect x="349.074" y="124.517" transform="matrix(-0.1174 0.9931 -0.9931 -0.1174 539.8608 -230.494)" fill="#7AC2F7" width="46.563" height="0.268"/>
			</g>
			<g>
				<line fill="#7AC2F7" x1="369.622" y1="147.771" x2="375.09" y2="101.53"/>
				
					<rect x="349.074" y="124.517" transform="matrix(-0.1174 0.9931 -0.9931 -0.1174 539.8608 -230.494)" fill="#7AC2F7" width="46.563" height="0.268"/>
			</g>
		</g>
		<g>
			<g>
				<line fill="#7AC2F7" x1="309.693" y1="103.186" x2="375.09" y2="101.53"/>
				
					<rect x="309.685" y="102.192" transform="matrix(-0.9997 0.0253 -0.0253 -0.9997 687.2664 196.0175)" fill="#7AC2F7" width="65.415" height="0.333"/>
			</g>
			<g>
				<line fill="#7AC2F7" x1="309.693" y1="103.186" x2="375.09" y2="101.53"/>
				
					<rect x="309.685" y="102.192" transform="matrix(-0.9997 0.0253 -0.0253 -0.9997 687.2664 196.0175)" fill="#7AC2F7" width="65.415" height="0.333"/>
			</g>
		</g>
		<g>
			<g>
				<line fill="#7AC2F7" x1="293.998" y1="83.519" x2="309.693" y2="103.186"/>
				
					<rect x="301.75" y="80.771" transform="matrix(-0.7851 0.6194 -0.6194 -0.7851 596.6402 -20.3214)" fill="#7AC2F7" width="0.192" height="25.163"/>
			</g>
		</g>
		<g>
			<g>
				<line fill="#7AC2F7" x1="319.34" y1="60.4" x2="293.998" y2="83.519"/>
				
					<rect x="289.519" y="71.848" transform="matrix(-0.7388 0.6739 -0.6739 -0.7388 581.7294 -81.5555)" fill="#7AC2F7" width="34.302" height="0.224"/>
			</g>
			<g>
				<line fill="#7AC2F7" x1="319.34" y1="60.4" x2="309.693" y2="103.186"/>
				
					<rect x="292.587" y="81.664" transform="matrix(-0.2199 0.9755 -0.9755 -0.2199 463.4822 -207.0323)" fill="#7AC2F7" width="43.859" height="0.258"/>
			</g>
			<g>
				<line fill="#7AC2F7" x1="319.34" y1="60.4" x2="379.017" y2="81.013"/>
				
					<rect x="349.015" y="39.14" transform="matrix(-0.327 0.945 -0.945 -0.327 530.1818 -236.1523)" fill="#7AC2F7" width="0.326" height="63.135"/>
			</g>
			<g>
				<line fill="#7AC2F7" x1="319.34" y1="60.4" x2="375.09" y2="101.53"/>
				
					<rect x="347.041" y="46.327" transform="matrix(-0.5962 0.8029 -0.8029 -0.5962 619.2178 -149.5292)" fill="#7AC2F7" width="0.347" height="69.279"/>
			</g>
			<g>
				<line fill="#7AC2F7" x1="319.34" y1="60.4" x2="375.09" y2="101.53"/>
				
					<rect x="347.041" y="46.327" transform="matrix(-0.5962 0.8029 -0.8029 -0.5962 619.2178 -149.5292)" fill="#7AC2F7" width="0.347" height="69.279"/>
			</g>
		</g>
		<g>
			<g>
				<line fill="#7AC2F7" x1="391.517" y1="72.312" x2="379.017" y2="81.013"/>
				
					<rect x="377.651" y="76.584" transform="matrix(-0.8207 0.5713 -0.5713 -0.8207 745.2646 -80.5238)" fill="#7AC2F7" width="15.23" height="0.157"/>
			</g>
			<g>
				<line fill="#7AC2F7" x1="391.517" y1="72.312" x2="375.09" y2="101.53"/>
				
					<rect x="366.542" y="86.809" transform="matrix(-0.4901 0.8716 -0.8716 -0.4901 646.9363 -204.5803)" fill="#7AC2F7" width="33.521" height="0.223"/>
			</g>
			<g>
				<line fill="#7AC2F7" x1="391.517" y1="72.312" x2="375.09" y2="101.53"/>
				
					<rect x="366.542" y="86.809" transform="matrix(-0.4901 0.8716 -0.8716 -0.4901 646.9363 -204.5803)" fill="#7AC2F7" width="33.521" height="0.223"/>
			</g>
		</g>
		<g>
			<g>
				<line fill="#7AC2F7" x1="501.141" y1="118.185" x2="547.043" y2="106.758"/>
				
					<rect x="500.44" y="112.335" transform="matrix(-0.9704 0.2415 -0.2415 -0.9704 1059.8318 95.0191)" fill="#7AC2F7" width="47.303" height="0.27"/>
			</g>
		</g>
		<g>
			<g>
				<line fill="#7AC2F7" x1="393.771" y1="122.052" x2="391.517" y2="72.312"/>
				
					<rect x="392.505" y="72.286" transform="matrix(-0.9988 0.0491 -0.0491 -0.9988 789.5833 174.9822)" fill="#7AC2F7" width="0.279" height="49.791"/>
			</g>
			<g>
				<line fill="#7AC2F7" x1="393.771" y1="122.052" x2="369.622" y2="147.771"/>
				
					<rect x="364.056" y="134.798" transform="matrix(-0.6845 0.729 -0.729 -0.6845 741.312 -51.0158)" fill="#7AC2F7" width="35.28" height="0.228"/>
			</g>
			<g>
				<line fill="#7AC2F7" x1="393.771" y1="122.052" x2="379.017" y2="81.013"/>
				
					<rect x="386.265" y="79.727" transform="matrix(-0.9404 0.3402 -0.3402 -0.9404 784.2799 65.5536)" fill="#7AC2F7" width="0.255" height="43.61"/>
			</g>
			<g>
				<line fill="#7AC2F7" x1="393.771" y1="122.052" x2="375.09" y2="101.53"/>
				
					<rect x="384.329" y="97.915" transform="matrix(-0.7426 0.6698 -0.6698 -0.7426 744.7687 -62.6754)" fill="#7AC2F7" width="0.201" height="27.752"/>
			</g>
			<g>
				<line fill="#7AC2F7" x1="393.771" y1="122.052" x2="375.09" y2="101.53"/>
				
					<rect x="384.329" y="97.915" transform="matrix(-0.7426 0.6698 -0.6698 -0.7426 744.7687 -62.6754)" fill="#7AC2F7" width="0.201" height="27.752"/>
			</g>
		</g>
		<g>
			<g>
				<line fill="#7AC2F7" x1="393.771" y1="122.052" x2="391.517" y2="72.312"/>
				
					<rect x="392.505" y="72.286" transform="matrix(-0.9988 0.0491 -0.0491 -0.9988 789.5833 174.9822)" fill="#7AC2F7" width="0.279" height="49.791"/>
			</g>
			<g>
				<line fill="#7AC2F7" x1="393.771" y1="122.052" x2="369.622" y2="147.771"/>
				
					<rect x="364.056" y="134.798" transform="matrix(-0.6845 0.729 -0.729 -0.6845 741.312 -51.0158)" fill="#7AC2F7" width="35.28" height="0.228"/>
			</g>
			<g>
				<line fill="#7AC2F7" x1="393.771" y1="122.052" x2="379.017" y2="81.013"/>
				
					<rect x="386.265" y="79.727" transform="matrix(-0.9404 0.3402 -0.3402 -0.9404 784.2799 65.5536)" fill="#7AC2F7" width="0.255" height="43.61"/>
			</g>
			<g>
				<line fill="#7AC2F7" x1="393.771" y1="122.052" x2="375.09" y2="101.53"/>
				
					<rect x="384.329" y="97.915" transform="matrix(-0.7426 0.6698 -0.6698 -0.7426 744.7687 -62.6754)" fill="#7AC2F7" width="0.201" height="27.752"/>
			</g>
			<g>
				<line fill="#7AC2F7" x1="393.771" y1="122.052" x2="375.09" y2="101.53"/>
				
					<rect x="384.329" y="97.915" transform="matrix(-0.7426 0.6698 -0.6698 -0.7426 744.7687 -62.6754)" fill="#7AC2F7" width="0.201" height="27.752"/>
			</g>
		</g>
		<g>
			<g>
				<line fill="#7AC2F7" x1="465.479" y1="116.388" x2="501.141" y2="118.185"/>
				
					<rect x="483.196" y="99.432" transform="matrix(-0.047 0.9989 -0.9989 -0.047 623.1615 -359.9834)" fill="#7AC2F7" width="0.229" height="35.707"/>
			</g>
		</g>
		<g>
			<g>
				<line fill="#7AC2F7" x1="308.753" y1="124.558" x2="319.34" y2="60.4"/>
				
					<rect x="281.534" y="92.313" transform="matrix(-0.1628 0.9867 -0.9867 -0.1628 456.4321 -202.3154)" fill="#7AC2F7" width="65.024" height="0.332"/>
			</g>
			<g>
				<line fill="#7AC2F7" x1="308.753" y1="124.558" x2="293.998" y2="83.519"/>
				
					<rect x="301.247" y="82.233" transform="matrix(-0.9412 0.3378 -0.3378 -0.9412 620.1805 100.1626)" fill="#7AC2F7" width="0.257" height="43.61"/>
			</g>
			<g>
				<line fill="#7AC2F7" x1="308.753" y1="124.558" x2="309.693" y2="103.186"/>
				
					<rect x="309.133" y="103.175" transform="matrix(-0.9988 -0.0489 0.0489 -0.9988 612.5139 242.7132)" fill="#7AC2F7" width="0.18" height="21.393"/>
			</g>
			<g>
				<line fill="#7AC2F7" x1="308.753" y1="124.558" x2="369.622" y2="147.771"/>
				
					<rect x="339.021" y="103.59" transform="matrix(-0.3556 0.9346 -0.9346 -0.3556 587.0754 -132.4254)" fill="#7AC2F7" width="0.332" height="65.148"/>
			</g>
		</g>
		<g>
			<g>
				<line fill="#7AC2F7" x1="361.107" y1="30.674" x2="391.517" y2="72.312"/>
				
					<rect x="376.168" y="25.712" transform="matrix(-0.8073 0.5901 -0.5901 -0.8073 710.5037 -128.9974)" fill="#7AC2F7" width="0.285" height="51.561"/>
			</g>
			<g>
				<line fill="#7AC2F7" x1="361.107" y1="30.674" x2="319.34" y2="60.4"/>
				
					<rect x="314.591" y="45.396" transform="matrix(-0.8147 0.5799 -0.5799 -0.8147 643.8109 -114.6497)" fill="#7AC2F7" width="51.265" height="0.283"/>
			</g>
			<g>
				<line fill="#7AC2F7" x1="361.107" y1="30.674" x2="379.017" y2="81.013"/>
				
					<rect x="369.916" y="29.128" transform="matrix(-0.9421 0.3353 -0.3353 -0.9421 737.4279 -15.6174)" fill="#7AC2F7" width="0.291" height="53.431"/>
			</g>
		</g>
		<g>
			<g>
				<line fill="#7AC2F7" x1="105.795" y1="48.13" x2="130.283" y2="27.998"/>
				
					<rect x="102.188" y="37.957" transform="matrix(-0.7725 0.635 -0.635 -0.7725 233.3934 -7.4919)" fill="#7AC2F7" width="31.701" height="0.215"/>
			</g>
		</g>
		<g>
			<g>
				<line fill="#7AC2F7" x1="242.209" y1="108.766" x2="190.637" y2="82.396"/>
				
					<rect x="216.27" y="66.621" transform="matrix(-0.4548 0.8906 -0.8906 -0.4548 399.9811 -53.6877)" fill="#7AC2F7" width="0.307" height="57.92"/>
			</g>
			<g>
				<line fill="#7AC2F7" x1="242.209" y1="108.766" x2="308.753" y2="124.558"/>
				
					<rect x="275.308" y="82.465" transform="matrix(-0.2325 0.9726 -0.9726 -0.2325 452.997 -124.1432)" fill="#7AC2F7" width="0.344" height="68.392"/>
			</g>
			<g>
				<line fill="#7AC2F7" x1="242.209" y1="108.766" x2="293.998" y2="83.519"/>
				
					<rect x="239.295" y="95.989" transform="matrix(-0.8989 0.4382 -0.4382 -0.8989 551.2238 65.0847)" fill="#7AC2F7" width="57.616" height="0.306"/>
			</g>
			<g>
				<line fill="#7AC2F7" x1="242.209" y1="108.766" x2="309.693" y2="103.186"/>
				
					<rect x="242.093" y="105.805" transform="matrix(-0.9966 0.0824 -0.0824 -0.9966 559.6954 188.8555)" fill="#7AC2F7" width="67.717" height="0.342"/>
			</g>
		</g>
		<g>
			<g>
				<line fill="#7AC2F7" x1="219.013" y1="33.982" x2="219.697" y2="11.246"/>
				
					<rect x="219.263" y="11.24" transform="matrix(-0.9995 -0.0319 0.0319 -0.9995 437.877 52.2137)" fill="#7AC2F7" width="0.184" height="22.747"/>
			</g>
			<g>
				<line fill="#7AC2F7" x1="219.013" y1="33.982" x2="190.637" y2="82.396"/>
				
					<rect x="176.767" y="58.039" transform="matrix(-0.5057 0.8627 -0.8627 -0.5057 358.5972 -89.097)" fill="#7AC2F7" width="56.115" height="0.3"/>
			</g>
		</g>
		<g>
			<g>
				<line fill="#7AC2F7" x1="79.002" y1="67.28" x2="105.795" y2="48.13"/>
				
					<rect x="75.933" y="57.595" transform="matrix(-0.8136 0.5815 -0.5815 -0.8136 201.125 50.924)" fill="#7AC2F7" width="32.932" height="0.22"/>
			</g>
			<g>
				<line fill="#7AC2F7" x1="79.002" y1="67.28" x2="130.283" y2="27.998"/>
				
					<rect x="72.345" y="47.474" transform="matrix(-0.7939 0.6081 -0.6081 -0.7939 216.6855 21.8229)" fill="#7AC2F7" width="64.597" height="0.329"/>
			</g>
		</g>
		<g>
			<g>
				<line fill="#7AC2F7" x1="236.71" y1="68.111" x2="219.013" y2="33.982"/>
				
					<rect x="227.742" y="31.824" transform="matrix(-0.8903 0.4554 -0.4554 -0.8903 453.9723 -7.2663)" fill="#7AC2F7" width="0.239" height="38.445"/>
			</g>
			<g>
				<line fill="#7AC2F7" x1="236.71" y1="68.111" x2="242.209" y2="108.766"/>
				
					<rect x="239.335" y="67.925" transform="matrix(-0.9915 0.1298 -0.1298 -0.9915 488.3749 145.0345)" fill="#7AC2F7" width="0.248" height="41.025"/>
			</g>
			<g>
				<line fill="#7AC2F7" x1="236.71" y1="68.111" x2="219.697" y2="11.246"/>
				
					<rect x="228.048" y="10.001" transform="matrix(-0.9581 0.2865 -0.2865 -0.9581 458.2102 12.3165)" fill="#7AC2F7" width="0.312" height="59.356"/>
			</g>
			<g>
				<line fill="#7AC2F7" x1="236.71" y1="68.111" x2="190.637" y2="82.396"/>
				
					<rect x="189.555" y="75.116" transform="matrix(-0.9551 0.2961 -0.2961 -0.9551 440.0483 83.8516)" fill="#7AC2F7" width="48.237" height="0.274"/>
			</g>
			<g>
				<line fill="#7AC2F7" x1="236.71" y1="68.111" x2="293.998" y2="83.519"/>
				
					<rect x="265.198" y="46.153" transform="matrix(-0.2598 0.9657 -0.9657 -0.2598 407.5061 -160.7297)" fill="#7AC2F7" width="0.312" height="59.325"/>
			</g>
		</g>
		<g>
			<g>
				<line fill="#7AC2F7" x1="104.046" y1="46.338" x2="79.002" y2="67.28"/>
				
					<rect x="75.201" y="56.7" transform="matrix(-0.7671 0.6415 -0.6415 -0.7671 198.1785 41.6786)" fill="#7AC2F7" width="32.647" height="0.219"/>
			</g>
			<g>
				<line fill="#7AC2F7" x1="104.046" y1="46.338" x2="105.795" y2="48.13"/>
				
					<rect x="104.864" y="45.983" transform="matrix(-0.7198 0.6941 -0.6941 -0.7198 213.2344 8.407)" fill="#7AC2F7" width="0.114" height="2.503"/>
			</g>
			<g>
				<line fill="#7AC2F7" x1="104.046" y1="46.338" x2="130.283" y2="27.998"/>
				
					<rect x="101.16" y="37.061" transform="matrix(-0.8196 0.5729 -0.5729 -0.8196 234.4906 0.5051)" fill="#7AC2F7" width="32.011" height="0.215"/>
			</g>
		</g>
		<g>
			<g>
				<line fill="#7AC2F7" x1="104.046" y1="46.338" x2="79.002" y2="67.28"/>
				
					<rect x="75.201" y="56.7" transform="matrix(-0.7671 0.6415 -0.6415 -0.7671 198.1785 41.6786)" fill="#7AC2F7" width="32.647" height="0.219"/>
			</g>
			<g>
				<line fill="#7AC2F7" x1="104.046" y1="46.338" x2="105.795" y2="48.13"/>
				
					<rect x="104.864" y="45.983" transform="matrix(-0.7198 0.6941 -0.6941 -0.7198 213.2344 8.407)" fill="#7AC2F7" width="0.114" height="2.503"/>
			</g>
			<g>
				<line fill="#7AC2F7" x1="104.046" y1="46.338" x2="130.283" y2="27.998"/>
				
					<rect x="101.16" y="37.061" transform="matrix(-0.8196 0.5729 -0.5729 -0.8196 234.4906 0.5051)" fill="#7AC2F7" width="32.011" height="0.215"/>
			</g>
		</g>
		<g>
			<g>
				<line fill="#7AC2F7" x1="200.835" y1="72.714" x2="236.71" y2="68.111"/>
				
					<rect x="200.686" y="70.298" transform="matrix(-0.9919 0.1273 -0.1273 -0.9919 444.7263 112.4106)" fill="#7AC2F7" width="36.172" height="0.23"/>
			</g>
			<g>
				<line fill="#7AC2F7" x1="200.835" y1="72.714" x2="219.013" y2="33.982"/>
				
					<rect x="188.531" y="53.222" transform="matrix(-0.4249 0.9053 -0.9053 -0.4249 347.4051 -114.0213)" fill="#7AC2F7" width="42.785" height="0.253"/>
			</g>
			<g>
				<line fill="#7AC2F7" x1="200.835" y1="72.714" x2="242.209" y2="108.766"/>
				
					<rect x="221.374" y="63.301" transform="matrix(-0.6576 0.7534 -0.7534 -0.6576 435.55 -16.4854)" fill="#7AC2F7" width="0.296" height="54.877"/>
			</g>
			<g>
				<line fill="#7AC2F7" x1="200.835" y1="72.714" x2="219.697" y2="11.246"/>
				
					<rect x="178.117" y="41.816" transform="matrix(-0.2934 0.956 -0.956 -0.2934 312.0827 -146.7188)" fill="#7AC2F7" width="64.297" height="0.328"/>
			</g>
			<g>
				<line fill="#7AC2F7" x1="200.835" y1="72.714" x2="190.637" y2="82.396"/>
				
					<rect x="188.707" y="77.478" transform="matrix(-0.7252 0.6886 -0.6886 -0.7252 391.0786 -0.9872)" fill="#7AC2F7" width="14.059" height="0.154"/>
			</g>
		</g>
		<g>
			<g>
				<line fill="#7AC2F7" x1="132.235" y1="113.828" x2="190.637" y2="82.396"/>
				
					<rect x="128.275" y="97.943" transform="matrix(-0.8806 0.4739 -0.4739 -0.8806 350.0889 107.9989)" fill="#7AC2F7" width="66.322" height="0.336"/>
			</g>
		</g>
		<g>
			<g>
				<line fill="#7AC2F7" x1="261.101" y1="145.496" x2="242.209" y2="108.766"/>
				
					<rect x="251.531" y="106.478" transform="matrix(-0.8881 0.4597 -0.4597 -0.8881 533.5846 124.3321)" fill="#7AC2F7" width="0.249" height="41.304"/>
			</g>
			<g>
				<line fill="#7AC2F7" x1="261.101" y1="145.496" x2="308.753" y2="124.558"/>
				
					<rect x="258.903" y="134.884" transform="matrix(-0.9155 0.4023 -0.4023 -0.9155 600.1007 144.0215)" fill="#7AC2F7" width="52.048" height="0.286"/>
			</g>
			<g>
				<line fill="#7AC2F7" x1="261.101" y1="145.496" x2="309.693" y2="103.186"/>
				
					<rect x="253.18" y="124.177" transform="matrix(-0.7542 0.6567 -0.6567 -0.7542 582.2896 30.7094)" fill="#7AC2F7" width="64.433" height="0.329"/>
			</g>
		</g>
		<g>
			<g>
				<line fill="#7AC2F7" x1="359.341" y1="153.229" x2="308.753" y2="124.558"/>
				
					<rect x="333.893" y="109.819" transform="matrix(-0.491 0.8712 -0.8712 -0.491 619.0657 -83.9136)" fill="#7AC2F7" width="0.308" height="58.15"/>
			</g>
			<g>
				<line fill="#7AC2F7" x1="359.341" y1="153.229" x2="393.771" y2="122.052"/>
				
					<rect x="353.331" y="137.508" transform="matrix(-0.7413 0.6712 -0.6712 -0.7413 748.0671 -13.0854)" fill="#7AC2F7" width="46.449" height="0.266"/>
			</g>
			<g>
				<line fill="#7AC2F7" x1="359.341" y1="153.229" x2="393.771" y2="122.052"/>
				
					<rect x="353.331" y="137.508" transform="matrix(-0.7413 0.6712 -0.6712 -0.7413 748.0671 -13.0854)" fill="#7AC2F7" width="46.449" height="0.266"/>
			</g>
			<g>
				<line fill="#7AC2F7" x1="359.341" y1="153.229" x2="369.622" y2="147.771"/>
				
					<rect x="358.661" y="150.429" transform="matrix(-0.8832 0.469 -0.469 -0.8832 756.9775 112.4996)" fill="#7AC2F7" width="11.641" height="0.144"/>
			</g>
			<g>
				<line fill="#7AC2F7" x1="359.341" y1="153.229" x2="375.09" y2="101.53"/>
				
					<rect x="340.193" y="127.235" transform="matrix(-0.2914 0.9566 -0.9566 -0.2914 596.0641 -186.7868)" fill="#7AC2F7" width="54.045" height="0.292"/>
			</g>
			<g>
				<line fill="#7AC2F7" x1="359.341" y1="153.229" x2="375.09" y2="101.53"/>
				
					<rect x="340.193" y="127.235" transform="matrix(-0.2914 0.9566 -0.9566 -0.2914 596.0641 -186.7868)" fill="#7AC2F7" width="54.045" height="0.292"/>
			</g>
		</g>
		<g>
			<g>
				<line fill="#7AC2F7" x1="223.349" y1="147.625" x2="261.101" y2="145.496"/>
				
					<rect x="223.318" y="146.442" transform="matrix(-0.9984 0.0563 -0.0563 -0.9984 492.3157 279.2498)" fill="#7AC2F7" width="37.812" height="0.236"/>
			</g>
			<g>
				<line fill="#7AC2F7" x1="223.349" y1="147.625" x2="242.209" y2="108.766"/>
				
					<rect x="211.181" y="128.067" transform="matrix(-0.4366 0.8996 -0.8996 -0.4366 449.7466 -25.2472)" fill="#7AC2F7" width="43.194" height="0.255"/>
			</g>
		</g>
		<g>
			<g>
				<line fill="#7AC2F7" x1="151.004" y1="115.962" x2="132.235" y2="113.828"/>
				
					<rect x="141.533" y="105.451" transform="matrix(-0.1163 0.9932 -0.9932 -0.1163 272.2116 -12.3943)" fill="#7AC2F7" width="0.172" height="18.889"/>
			</g>
			<g>
				<line fill="#7AC2F7" x1="151.004" y1="115.962" x2="200.835" y2="72.714"/>
				
					<rect x="142.929" y="94.171" transform="matrix(-0.7552 0.6555 -0.6555 -0.7552 370.614 50.2771)" fill="#7AC2F7" width="65.981" height="0.335"/>
			</g>
			<g>
				<line fill="#7AC2F7" x1="151.004" y1="115.962" x2="190.637" y2="82.396"/>
				
					<rect x="144.851" y="99.037" transform="matrix(-0.7631 0.6463 -0.6463 -0.7631 365.2707 64.4612)" fill="#7AC2F7" width="51.939" height="0.286"/>
			</g>
		</g>
		<g>
			<g>
				<line fill="#7AC2F7" x1="123.408" y1="78.036" x2="151.004" y2="115.962"/>
				
					<rect x="137.072" y="73.547" transform="matrix(-0.8114 0.5845 -0.5845 -0.8114 305.23 95.5069)" fill="#7AC2F7" width="0.269" height="46.904"/>
			</g>
			<g>
				<line fill="#7AC2F7" x1="123.408" y1="78.036" x2="132.235" y2="113.828"/>
				
					<rect x="127.707" y="77.5" transform="matrix(-0.9709 0.2396 -0.2396 -0.9709 274.9054 158.4475)" fill="#7AC2F7" width="0.232" height="36.864"/>
			</g>
			<g>
				<line fill="#7AC2F7" x1="123.408" y1="78.036" x2="104.046" y2="46.338"/>
				
					<rect x="113.611" y="43.616" transform="matrix(-0.8508 0.5255 -0.5255 -0.8508 243.1676 55.333)" fill="#7AC2F7" width="0.234" height="37.143"/>
			</g>
			<g>
				<line fill="#7AC2F7" x1="123.408" y1="78.036" x2="104.046" y2="46.338"/>
				
					<rect x="113.611" y="43.616" transform="matrix(-0.8508 0.5255 -0.5255 -0.8508 243.1676 55.333)" fill="#7AC2F7" width="0.234" height="37.143"/>
			</g>
			<g>
				<line fill="#7AC2F7" x1="123.408" y1="78.036" x2="79.002" y2="67.28"/>
				
					<rect x="101.075" y="49.814" transform="matrix(-0.2303 0.9731 -0.9731 -0.2303 195.218 -9.0965)" fill="#7AC2F7" width="0.263" height="45.689"/>
			</g>
			<g>
				<line fill="#7AC2F7" x1="123.408" y1="78.036" x2="105.795" y2="48.13"/>
				
					<rect x="114.488" y="45.729" transform="matrix(-0.8632 0.5049 -0.5049 -0.8632 245.3734 59.6654)" fill="#7AC2F7" width="0.226" height="34.708"/>
			</g>
			<g>
				<line fill="#7AC2F7" x1="123.408" y1="78.036" x2="130.283" y2="27.998"/>
				
					<rect x="101.593" y="52.877" transform="matrix(-0.1361 0.9907 -0.9907 -0.1361 196.6352 -65.4333)" fill="#7AC2F7" width="50.507" height="0.28"/>
			</g>
			<g>
				<line fill="#7AC2F7" x1="123.408" y1="78.036" x2="190.637" y2="82.396"/>
				
					<rect x="156.854" y="46.53" transform="matrix(-0.0646 0.9979 -0.9979 -0.0646 247.2177 -71.2968)" fill="#7AC2F7" width="0.34" height="67.371"/>
			</g>
		</g>
		<g>
			<g>
				<line fill="#7AC2F7" x1="164.065" y1="49.929" x2="123.408" y2="78.036"/>
				
					<rect x="119.024" y="63.844" transform="matrix(-0.8226 0.5687 -0.5687 -0.8226 298.3555 34.8774)" fill="#7AC2F7" width="49.427" height="0.277"/>
			</g>
			<g>
				<line fill="#7AC2F7" x1="164.065" y1="49.929" x2="151.004" y2="115.962"/>
				
					<rect x="123.879" y="82.776" transform="matrix(-0.194 0.981 -0.981 -0.194 269.4728 -55.4991)" fill="#7AC2F7" width="67.312" height="0.339"/>
			</g>
			<g>
				<line fill="#7AC2F7" x1="164.065" y1="49.929" x2="200.835" y2="72.714"/>
				
					<rect x="182.322" y="39.694" transform="matrix(-0.5262 0.8503 -0.8503 -0.5262 330.6053 -61.5546)" fill="#7AC2F7" width="0.256" height="43.256"/>
			</g>
			<g>
				<line fill="#7AC2F7" x1="164.065" y1="49.929" x2="104.046" y2="46.338"/>
				
					<rect x="133.899" y="18.071" transform="matrix(-0.059 0.9983 -0.9983 -0.059 190.0147 -82.8487)" fill="#7AC2F7" width="0.315" height="60.126"/>
			</g>
			<g>
				<line fill="#7AC2F7" x1="164.065" y1="49.929" x2="104.046" y2="46.338"/>
				
					<rect x="133.899" y="18.071" transform="matrix(-0.059 0.9983 -0.9983 -0.059 190.0147 -82.8487)" fill="#7AC2F7" width="0.315" height="60.126"/>
			</g>
			<g>
				<line fill="#7AC2F7" x1="164.065" y1="49.929" x2="219.013" y2="33.982"/>
				
					<rect x="162.932" y="41.804" transform="matrix(-0.9604 0.2787 -0.2787 -0.9604 387.1819 28.8628)" fill="#7AC2F7" width="57.215" height="0.304"/>
			</g>
			<g>
				<line fill="#7AC2F7" x1="164.065" y1="49.929" x2="105.795" y2="48.13"/>
				
					<rect x="105.78" y="48.877" transform="matrix(-0.9995 -0.0309 0.0309 -0.9995 268.2829 102.2015)" fill="#7AC2F7" width="58.3" height="0.307"/>
			</g>
			<g>
				<line fill="#7AC2F7" x1="164.065" y1="49.929" x2="219.697" y2="11.246"/>
				
					<rect x="158.002" y="30.417" transform="matrix(-0.821 0.5709 -0.5709 -0.821 366.8828 -53.8442)" fill="#7AC2F7" width="67.76" height="0.341"/>
			</g>
			<g>
				<line fill="#7AC2F7" x1="164.065" y1="49.929" x2="130.283" y2="27.998"/>
				
					<rect x="147.053" y="18.826" transform="matrix(-0.5427 0.8399 -0.8399 -0.5427 259.7707 -63.5097)" fill="#7AC2F7" width="0.245" height="40.277"/>
			</g>
			<g>
				<line fill="#7AC2F7" x1="164.065" y1="49.929" x2="190.637" y2="82.396"/>
				
					<rect x="177.226" y="45.185" transform="matrix(-0.7753 0.6315 -0.6315 -0.7753 356.6438 5.4556)" fill="#7AC2F7" width="0.251" height="41.954"/>
			</g>
		</g>
		<g>
			<g>
				<line fill="#7AC2F7" x1="455.499" y1="108.367" x2="465.479" y2="116.388"/>
				
					<rect x="460.415" y="105.975" transform="matrix(-0.6239 0.7815 -0.7815 -0.6239 835.6096 -177.3875)" fill="#7AC2F7" width="0.149" height="12.805"/>
			</g>
			<g>
				<line fill="#7AC2F7" x1="455.499" y1="108.367" x2="393.771" y2="122.052"/>
				
					<rect x="393.02" y="115.046" transform="matrix(-0.9763 0.2164 -0.2164 -0.9763 864.1377 135.7831)" fill="#7AC2F7" width="63.228" height="0.325"/>
			</g>
			<g>
				<line fill="#7AC2F7" x1="455.499" y1="108.367" x2="393.771" y2="122.052"/>
				
					<rect x="393.02" y="115.046" transform="matrix(-0.9763 0.2164 -0.2164 -0.9763 864.1377 135.7831)" fill="#7AC2F7" width="63.228" height="0.325"/>
			</g>
			<g>
				<line fill="#7AC2F7" x1="455.499" y1="108.367" x2="501.141" y2="118.185"/>
				
					<rect x="478.186" y="89.931" transform="matrix(-0.2158 0.9764 -0.9764 -0.2158 692.1334 -329.3361)" fill="#7AC2F7" width="0.267" height="46.688"/>
			</g>
		</g>
		<g>
			<g>
				<line fill="#7AC2F7" x1="444.359" y1="150.725" x2="455.499" y2="108.367"/>
				
					<rect x="428.03" y="129.418" transform="matrix(-0.2543 0.9671 -0.9671 -0.2543 689.6299 -272.6514)" fill="#7AC2F7" width="43.799" height="0.255"/>
			</g>
			<g>
				<line fill="#7AC2F7" x1="444.359" y1="150.725" x2="465.479" y2="116.388"/>
				
					<rect x="434.763" y="133.433" transform="matrix(-0.5239 0.8518 -0.8518 -0.5239 807.0167 -183.9599)" fill="#7AC2F7" width="40.312" height="0.246"/>
			</g>
			<g>
				<line fill="#7AC2F7" x1="444.359" y1="150.725" x2="393.771" y2="122.052"/>
				
					<rect x="418.911" y="107.313" transform="matrix(-0.4924 0.8704 -0.8704 -0.4924 744.1107 -161.2062)" fill="#7AC2F7" width="0.307" height="58.15"/>
			</g>
			<g>
				<line fill="#7AC2F7" x1="444.359" y1="150.725" x2="393.771" y2="122.052"/>
				
					<rect x="418.911" y="107.313" transform="matrix(-0.4924 0.8704 -0.8704 -0.4924 744.1107 -161.2062)" fill="#7AC2F7" width="0.307" height="58.15"/>
			</g>
			<g>
				<line fill="#7AC2F7" x1="444.359" y1="150.725" x2="501.141" y2="118.185"/>
				
					<rect x="440.027" y="134.287" transform="matrix(-0.8676 0.4972 -0.4972 -0.8676 949.774 16.0543)" fill="#7AC2F7" width="65.445" height="0.335"/>
			</g>
		</g>
		<g>
			<g>
				<line fill="#7AC2F7" x1="429.096" y1="84.346" x2="444.359" y2="150.725"/>
				
					<rect x="436.557" y="83.481" transform="matrix(-0.9737 0.2278 -0.2278 -0.9737 888.7488 132.5088)" fill="#7AC2F7" width="0.343" height="68.11"/>
			</g>
			<g>
				<line fill="#7AC2F7" x1="429.096" y1="84.346" x2="455.499" y2="108.367"/>
				
					<rect x="442.184" y="78.51" transform="matrix(-0.6675 0.7446 -0.7446 -0.6675 809.2966 -168.6427)" fill="#7AC2F7" width="0.228" height="35.692"/>
			</g>
			<g>
				<line fill="#7AC2F7" x1="429.096" y1="84.346" x2="465.479" y2="116.388"/>
				
					<rect x="447.152" y="76.127" transform="matrix(-0.6572 0.7537 -0.7537 -0.6572 816.9095 -170.7801)" fill="#7AC2F7" width="0.273" height="48.481"/>
			</g>
			<g>
				<line fill="#7AC2F7" x1="429.096" y1="84.346" x2="393.771" y2="122.052"/>
				
					<rect x="385.599" y="103.056" transform="matrix(-0.6837 0.7297 -0.7297 -0.6837 768.0468 -126.4835)" fill="#7AC2F7" width="51.668" height="0.286"/>
			</g>
			<g>
				<line fill="#7AC2F7" x1="429.096" y1="84.346" x2="393.771" y2="122.052"/>
				
					<rect x="385.599" y="103.056" transform="matrix(-0.6837 0.7297 -0.7297 -0.6837 768.0468 -126.4835)" fill="#7AC2F7" width="51.668" height="0.286"/>
			</g>
			<g>
				<line fill="#7AC2F7" x1="429.096" y1="84.346" x2="391.517" y2="72.312"/>
				
					<rect x="410.185" y="58.599" transform="matrix(-0.3096 0.9509 -0.9509 -0.3096 611.8124 -287.5694)" fill="#7AC2F7" width="0.243" height="39.46"/>
			</g>
			<g>
				<line fill="#7AC2F7" x1="429.096" y1="84.346" x2="379.017" y2="81.013"/>
				
					<rect x="403.916" y="57.584" transform="matrix(-0.0664 0.9978 -0.9978 -0.0664 513.3839 -314.9945)" fill="#7AC2F7" width="0.279" height="50.191"/>
			</g>
			<g>
				<line fill="#7AC2F7" x1="429.096" y1="84.346" x2="375.09" y2="101.53"/>
				
					<rect x="373.754" y="92.788" transform="matrix(-0.9529 0.3032 -0.3032 -0.9529 813.4358 59.5876)" fill="#7AC2F7" width="56.676" height="0.302"/>
			</g>
			<g>
				<line fill="#7AC2F7" x1="429.096" y1="84.346" x2="375.09" y2="101.53"/>
				
					<rect x="373.754" y="92.788" transform="matrix(-0.9529 0.3032 -0.3032 -0.9529 813.4358 59.5876)" fill="#7AC2F7" width="56.676" height="0.302"/>
			</g>
		</g>
		<g>
			<g>
				<line fill="#7AC2F7" x1="296.607" y1="25.803" x2="361.107" y2="30.674"/>
				
					<rect x="328.691" y="-4.104" transform="matrix(-0.0738 0.9973 -0.9973 -0.0738 381.2747 -297.6399)" fill="#7AC2F7" width="0.331" height="64.683"/>
			</g>
			<g>
				<line fill="#7AC2F7" x1="296.607" y1="25.803" x2="319.34" y2="60.4"/>
				
					<rect x="307.85" y="22.403" transform="matrix(-0.8348 0.5506 -0.5506 -0.8348 588.7903 -90.497)" fill="#7AC2F7" width="0.249" height="41.397"/>
			</g>
			<g>
				<line fill="#7AC2F7" x1="296.607" y1="25.803" x2="293.998" y2="83.519"/>
				
					<rect x="295.149" y="25.772" transform="matrix(-0.999 -0.0447 0.0447 -0.999 587.8671 122.4609)" fill="#7AC2F7" width="0.306" height="57.776"/>
			</g>
		</g>
		<g>
			<g>
				<line fill="#7AC2F7" x1="246.955" y1="20.976" x2="296.607" y2="25.803"/>
				
					<rect x="271.641" y="-1.556" transform="matrix(-0.1016 0.9948 -0.9948 -0.1016 322.6563 -244.61)" fill="#7AC2F7" width="0.279" height="49.889"/>
			</g>
			<g>
				<line fill="#7AC2F7" x1="246.955" y1="20.976" x2="200.835" y2="72.714"/>
				
					<rect x="189.24" y="46.671" transform="matrix(-0.6654 0.7465 -0.7465 -0.6654 407.8449 -89.1181)" fill="#7AC2F7" width="69.31" height="0.347"/>
			</g>
			<g>
				<line fill="#7AC2F7" x1="246.955" y1="20.976" x2="236.71" y2="68.111"/>
				
					<rect x="217.714" y="44.407" transform="matrix(-0.2124 0.9772 -0.9772 -0.2124 336.7188 -182.3128)" fill="#7AC2F7" width="48.236" height="0.273"/>
			</g>
			<g>
				<line fill="#7AC2F7" x1="246.955" y1="20.976" x2="219.013" y2="33.982"/>
				
					<rect x="217.573" y="27.373" transform="matrix(-0.9066 0.422 -0.422 -0.9066 455.8006 -45.93)" fill="#7AC2F7" width="30.821" height="0.211"/>
			</g>
			<g>
				<line fill="#7AC2F7" x1="246.955" y1="20.976" x2="219.697" y2="11.246"/>
				
					<rect x="233.224" y="1.64" transform="matrix(-0.3291 0.9443 -0.9443 -0.3291 325.3212 -198.9189)" fill="#7AC2F7" width="0.205" height="28.941"/>
			</g>
		</g>
		<g>
			<g>
				<line fill="#7AC2F7" x1="269.432" y1="54.209" x2="246.955" y2="20.976"/>
				
					<rect x="258.069" y="17.532" transform="matrix(-0.8299 0.5579 -0.5579 -0.8299 493.4407 -75.256)" fill="#7AC2F7" width="0.246" height="40.121"/>
			</g>
			<g>
				<line fill="#7AC2F7" x1="269.432" y1="54.209" x2="296.607" y2="25.803"/>
				
					<rect x="263.362" y="39.884" transform="matrix(-0.6913 0.7226 -0.7226 -0.6913 507.5767 -136.838)" fill="#7AC2F7" width="39.314" height="0.243"/>
			</g>
			<g>
				<line fill="#7AC2F7" x1="269.432" y1="54.209" x2="236.71" y2="68.111"/>
				
					<rect x="235.296" y="61.045" transform="matrix(-0.9204 0.391 -0.391 -0.9204 509.9062 18.4873)" fill="#7AC2F7" width="35.551" height="0.229"/>
			</g>
			<g>
				<line fill="#7AC2F7" x1="269.432" y1="54.209" x2="219.013" y2="33.982"/>
				
					<rect x="244.075" y="16.934" transform="matrix(-0.3685 0.9296 -0.9296 -0.3685 375.2167 -166.687)" fill="#7AC2F7" width="0.294" height="54.324"/>
			</g>
			<g>
				<line fill="#7AC2F7" x1="269.432" y1="54.209" x2="242.209" y2="108.766"/>
				
					<rect x="225.333" y="81.328" transform="matrix(-0.4465 0.8948 -0.8948 -0.4465 442.9543 -111.0323)" fill="#7AC2F7" width="60.972" height="0.318"/>
			</g>
			<g>
				<line fill="#7AC2F7" x1="269.432" y1="54.209" x2="219.697" y2="11.246"/>
				
					<rect x="244.397" y="-0.133" transform="matrix(-0.6508 0.7593 -0.7593 -0.6508 428.5725 -131.6609)" fill="#7AC2F7" width="0.333" height="65.721"/>
			</g>
			<g>
				<line fill="#7AC2F7" x1="269.432" y1="54.209" x2="319.34" y2="60.4"/>
				
					<rect x="294.246" y="32.159" transform="matrix(-0.1221 0.9925 -0.9925 -0.1221 387.2071 -227.881)" fill="#7AC2F7" width="0.28" height="50.292"/>
			</g>
			<g>
				<line fill="#7AC2F7" x1="269.432" y1="54.209" x2="293.998" y2="83.519"/>
				
					<rect x="281.595" y="49.741" transform="matrix(-0.7679 0.6406 -0.6406 -0.7679 542.1516 -58.7201)" fill="#7AC2F7" width="0.238" height="38.245"/>
			</g>
			<g>
				<line fill="#7AC2F7" x1="269.432" y1="54.209" x2="309.693" y2="103.186"/>
				
					<rect x="289.4" y="46.997" transform="matrix(-0.7741 0.6331 -0.6331 -0.7741 563.5316 -43.6981)" fill="#7AC2F7" width="0.325" height="63.402"/>
			</g>
		</g>
		<g>
			<g>
				<line fill="#7AC2F7" x1="193.748" y1="117.845" x2="151.004" y2="115.962"/>
				
					<rect x="150.982" y="116.777" transform="matrix(-0.999 -0.044 0.044 -0.999 339.438 241.28)" fill="#7AC2F7" width="42.785" height="0.253"/>
			</g>
			<g>
				<line fill="#7AC2F7" x1="193.748" y1="117.845" x2="223.349" y2="147.625"/>
				
					<rect x="208.422" y="111.741" transform="matrix(-0.7071 0.7071 -0.7071 -0.7071 449.8707 79.1282)" fill="#7AC2F7" width="0.251" height="41.988"/>
			</g>
			<g>
				<line fill="#7AC2F7" x1="193.748" y1="117.845" x2="132.235" y2="113.828"/>
				
					<rect x="162.83" y="85.015" transform="matrix(-0.0641 0.9979 -0.9979 -0.0641 289.0345 -39.3952)" fill="#7AC2F7" width="0.32" height="61.643"/>
			</g>
			<g>
				<line fill="#7AC2F7" x1="193.748" y1="117.845" x2="200.835" y2="72.714"/>
				
					<rect x="174.449" y="95.149" transform="matrix(-0.1551 0.9879 -0.9879 -0.1551 322.0248 -84.8412)" fill="#7AC2F7" width="45.685" height="0.263"/>
			</g>
			<g>
				<line fill="#7AC2F7" x1="193.748" y1="117.845" x2="236.71" y2="68.111"/>
				
					<rect x="182.367" y="92.811" transform="matrix(-0.6537 0.7567 -0.7567 -0.6537 426.2877 -9.1124)" fill="#7AC2F7" width="65.723" height="0.335"/>
			</g>
			<g>
				<line fill="#7AC2F7" x1="193.748" y1="117.845" x2="242.209" y2="108.766"/>
				
					<rect x="193.325" y="113.167" transform="matrix(-0.9829 0.1842 -0.1842 -0.9829 453.0939 184.5242)" fill="#7AC2F7" width="49.304" height="0.276"/>
			</g>
			<g>
				<line fill="#7AC2F7" x1="193.748" y1="117.845" x2="190.637" y2="82.396"/>
				
					<rect x="192.078" y="82.327" transform="matrix(-0.996 0.0898 -0.0898 -0.996 392.5967 182.5844)" fill="#7AC2F7" width="0.228" height="35.586"/>
			</g>
		</g>
		<g>
			<g>
				<line fill="#7AC2F7" x1="95.807" y1="96.632" x2="123.408" y2="78.036"/>
				
					<rect x="92.968" y="87.224" transform="matrix(-0.8293 0.5587 -0.5587 -0.8293 249.3085 98.5218)" fill="#7AC2F7" width="33.281" height="0.22"/>
			</g>
			<g>
				<line fill="#7AC2F7" x1="95.807" y1="96.632" x2="151.004" y2="115.962"/>
				
					<rect x="123.251" y="77.055" transform="matrix(-0.3341 0.9425 -0.9425 -0.3341 264.8275 25.5022)" fill="#7AC2F7" width="0.31" height="58.484"/>
			</g>
			<g>
				<line fill="#7AC2F7" x1="95.807" y1="96.632" x2="132.235" y2="113.828"/>
				
					<rect x="113.899" y="85.088" transform="matrix(-0.4247 0.9053 -0.9053 -0.4247 257.7162 46.6998)" fill="#7AC2F7" width="0.245" height="40.283"/>
			</g>
			<g>
				<line fill="#7AC2F7" x1="95.807" y1="96.632" x2="104.046" y2="46.338"/>
				
					<rect x="74.445" y="71.343" transform="matrix(-0.1617 0.9868 -0.9868 -0.1617 186.6276 -15.5691)" fill="#7AC2F7" width="50.963" height="0.283"/>
			</g>
			<g>
				<line fill="#7AC2F7" x1="95.807" y1="96.632" x2="104.046" y2="46.338"/>
				
					<rect x="74.445" y="71.343" transform="matrix(-0.1617 0.9868 -0.9868 -0.1617 186.6276 -15.5691)" fill="#7AC2F7" width="50.963" height="0.283"/>
			</g>
			<g>
				<line fill="#7AC2F7" x1="95.807" y1="96.632" x2="79.002" y2="67.28"/>
				
					<rect x="87.294" y="65.046" transform="matrix(-0.8661 0.4999 -0.4999 -0.8661 204.0765 109.2406)" fill="#7AC2F7" width="0.223" height="33.819"/>
			</g>
			<g>
				<line fill="#7AC2F7" x1="95.807" y1="96.632" x2="105.795" y2="48.13"/>
				
					<rect x="76.042" y="72.242" transform="matrix(-0.2017 0.9794 -0.9794 -0.2017 192.0261 -11.7485)" fill="#7AC2F7" width="49.518" height="0.277"/>
			</g>
		</g>
		<g>
			<g>
				<line fill="#7AC2F7" x1="18.729" y1="62.324" x2="79.002" y2="67.28"/>
				
					<rect x="48.708" y="34.563" transform="matrix(-0.0774 0.997 -0.997 -0.0774 117.2561 21.0993)" fill="#7AC2F7" width="0.315" height="60.479"/>
			</g>
		</g>
		<g>
			<g>
				<line fill="#7AC2F7" x1="177.466" y1="12.094" x2="164.065" y2="49.929"/>
				
					<rect x="150.696" y="30.889" transform="matrix(-0.3339 0.9426 -0.9426 -0.3339 257.0084 -119.6029)" fill="#7AC2F7" width="40.138" height="0.245"/>
			</g>
			<g>
				<line fill="#7AC2F7" x1="177.466" y1="12.094" x2="200.835" y2="72.714"/>
				
					<rect x="188.985" y="9.92" transform="matrix(-0.9324 0.3614 -0.3614 -0.9324 380.8395 13.5725)" fill="#7AC2F7" width="0.331" height="64.968"/>
			</g>
			<g>
				<line fill="#7AC2F7" x1="177.466" y1="12.094" x2="219.013" y2="33.982"/>
				
					<rect x="198.105" y="-0.442" transform="matrix(-0.4624 0.8866 -0.8866 -0.4624 310.3397 -142.0767)" fill="#7AC2F7" width="0.268" height="46.96"/>
			</g>
			<g>
				<line fill="#7AC2F7" x1="177.466" y1="12.094" x2="219.697" y2="11.246"/>
				
					<rect x="177.461" y="11.543" transform="matrix(-0.9998 0.0201 -0.0201 -0.9998 397.3553 19.352)" fill="#7AC2F7" width="42.24" height="0.253"/>
			</g>
			<g>
				<line fill="#7AC2F7" x1="177.466" y1="12.094" x2="130.283" y2="27.998"/>
				
					<rect x="128.979" y="19.907" transform="matrix(-0.9476 0.3194 -0.3194 -0.9476 306.0904 -10.11)" fill="#7AC2F7" width="49.791" height="0.278"/>
			</g>
		</g>
		<g>
			<g>
				<line fill="#7AC2F7" x1="54.394" y1="41.511" x2="18.729" y2="62.324"/>
				
					<rect x="15.913" y="51.793" transform="matrix(-0.8637 0.504 -0.504 -0.8637 94.3043 78.3315)" fill="#7AC2F7" width="41.294" height="0.249"/>
			</g>
			<g>
				<line fill="#7AC2F7" x1="54.394" y1="41.511" x2="95.807" y2="96.632"/>
				
					<rect x="74.928" y="34.6" transform="matrix(-0.7998 0.6002 -0.6002 -0.7998 176.6258 79.2395)" fill="#7AC2F7" width="0.345" height="68.943"/>
			</g>
			<g>
				<line fill="#7AC2F7" x1="54.394" y1="41.511" x2="104.046" y2="46.338"/>
				
					<rect x="79.079" y="18.981" transform="matrix(-0.103 0.9947 -0.9947 -0.103 131.0671 -30.3502)" fill="#7AC2F7" width="0.28" height="49.889"/>
			</g>
			<g>
				<line fill="#7AC2F7" x1="54.394" y1="41.511" x2="104.046" y2="46.338"/>
				
					<rect x="79.079" y="18.981" transform="matrix(-0.103 0.9947 -0.9947 -0.103 131.0671 -30.3502)" fill="#7AC2F7" width="0.28" height="49.889"/>
			</g>
			<g>
				<line fill="#7AC2F7" x1="54.394" y1="41.511" x2="79.002" y2="67.28"/>
				
					<rect x="66.584" y="36.58" transform="matrix(-0.724 0.6898 -0.6898 -0.724 152.5102 47.7689)" fill="#7AC2F7" width="0.229" height="35.633"/>
			</g>
			<g>
				<line fill="#7AC2F7" x1="54.394" y1="41.511" x2="105.795" y2="48.13"/>
				
					<rect x="79.952" y="18.908" transform="matrix(-0.1301 0.9915 -0.9915 -0.1301 134.9579 -28.7588)" fill="#7AC2F7" width="0.285" height="51.826"/>
			</g>
		</g>
		<g>
			<g>
				<line fill="#7AC2F7" x1="414.03" y1="147.223" x2="429.096" y2="84.346"/>
				
					<rect x="389.235" y="115.618" transform="matrix(-0.233 0.9725 -0.9725 -0.233 632.3999 -267.1891)" fill="#7AC2F7" width="64.656" height="0.332"/>
			</g>
			<g>
				<line fill="#7AC2F7" x1="414.03" y1="147.223" x2="444.359" y2="150.725"/>
				
					<rect x="429.09" y="133.707" transform="matrix(-0.1115 0.9938 -0.9938 -0.1115 625.074 -260.9446)" fill="#7AC2F7" width="0.21" height="30.533"/>
			</g>
			<g>
				<line fill="#7AC2F7" x1="414.03" y1="147.223" x2="455.499" y2="108.367"/>
				
					<rect x="406.35" y="127.643" transform="matrix(-0.7297 0.6837 -0.6837 -0.7297 839.4001 -76.2159)" fill="#7AC2F7" width="56.828" height="0.303"/>
			</g>
			<g>
				<line fill="#7AC2F7" x1="414.03" y1="147.223" x2="359.341" y2="153.229"/>
				
					<rect x="359.176" y="150.078" transform="matrix(-0.994 0.1092 -0.1092 -0.994 787.4611 257.3363)" fill="#7AC2F7" width="55.018" height="0.297"/>
			</g>
			<g>
				<line fill="#7AC2F7" x1="414.03" y1="147.223" x2="465.479" y2="116.388"/>
				
					<rect x="409.764" y="131.648" transform="matrix(-0.8578 0.5141 -0.5141 -0.8578 884.7117 18.7988)" fill="#7AC2F7" width="59.983" height="0.314"/>
			</g>
			<g>
				<line fill="#7AC2F7" x1="414.03" y1="147.223" x2="393.771" y2="122.052"/>
				
					<rect x="403.792" y="118.482" transform="matrix(-0.7756 0.6313 -0.6313 -0.7756 802.142 -15.9138)" fill="#7AC2F7" width="0.217" height="32.311"/>
			</g>
			<g>
				<line fill="#7AC2F7" x1="414.03" y1="147.223" x2="393.771" y2="122.052"/>
				
					<rect x="403.792" y="118.482" transform="matrix(-0.7756 0.6313 -0.6313 -0.7756 802.142 -15.9138)" fill="#7AC2F7" width="0.217" height="32.311"/>
			</g>
			<g>
				<line fill="#7AC2F7" x1="414.03" y1="147.223" x2="369.622" y2="147.771"/>
				
					<rect x="369.62" y="147.366" transform="matrix(-0.9999 0.0124 -0.0124 -0.9999 785.4452 290.1398)" fill="#7AC2F7" width="44.412" height="0.261"/>
			</g>
			<g>
				<line fill="#7AC2F7" x1="414.03" y1="147.223" x2="375.09" y2="101.53"/>
				
					<rect x="394.402" y="94.36" transform="matrix(-0.7595 0.6505 -0.6505 -0.7595 775.1285 -37.837)" fill="#7AC2F7" width="0.314" height="60.034"/>
			</g>
			<g>
				<line fill="#7AC2F7" x1="414.03" y1="147.223" x2="375.09" y2="101.53"/>
				
					<rect x="394.402" y="94.36" transform="matrix(-0.7595 0.6505 -0.6505 -0.7595 775.1285 -37.837)" fill="#7AC2F7" width="0.314" height="60.034"/>
			</g>
		</g>
	</g>
	<circle fill="#7AC2F7" cx="375.09" cy="101.531" r="0.977"/>
	<circle fill="#7AC2F7" cx="379.017" cy="81.013" r="0.977"/>
	<circle fill="#7AC2F7" cx="375.09" cy="101.531" r="0.977"/>
	<circle fill="#7AC2F7" cx="379.017" cy="81.013" r="0.977"/>
	<circle fill="#7AC2F7" cx="379.017" cy="81.013" r="0.977"/>
	<circle fill="#7AC2F7" cx="369.622" cy="147.772" r="0.977"/>
	<circle fill="#7AC2F7" cx="375.09" cy="101.531" r="0.977"/>
	<circle fill="#7AC2F7" cx="369.622" cy="147.772" r="0.977"/>
	<circle fill="#7AC2F7" cx="375.09" cy="101.531" r="0.977"/>
	<circle fill="#7AC2F7" cx="369.622" cy="147.772" r="0.977"/>
	<circle fill="#7AC2F7" cx="375.09" cy="101.531" r="0.977"/>
	<circle fill="#7AC2F7" cx="309.693" cy="103.185" r="0.977"/>
	<circle fill="#7AC2F7" cx="375.09" cy="101.531" r="0.977"/>
	<circle fill="#7AC2F7" cx="309.693" cy="103.185" r="0.977"/>
	<circle fill="#7AC2F7" cx="309.693" cy="103.185" r="0.977"/>
	<circle fill="#7AC2F7" cx="293.998" cy="83.519" r="0.977"/>
	<circle fill="#7AC2F7" cx="293.998" cy="83.519" r="0.977"/>
	<circle fill="#7AC2F7" cx="319.34" cy="60.401" r="0.977"/>
	<circle fill="#7AC2F7" cx="309.693" cy="103.185" r="0.977"/>
	<circle fill="#7AC2F7" cx="319.34" cy="60.401" r="0.977"/>
	<circle fill="#7AC2F7" cx="379.017" cy="81.013" r="0.977"/>
	<circle fill="#7AC2F7" cx="319.34" cy="60.401" r="0.977"/>
	<circle fill="#7AC2F7" cx="375.09" cy="101.531" r="0.977"/>
	<circle fill="#7AC2F7" cx="319.34" cy="60.401" r="0.977"/>
	<circle fill="#7AC2F7" cx="375.09" cy="101.531" r="0.977"/>
	<circle fill="#7AC2F7" cx="319.34" cy="60.401" r="0.977"/>
	<circle fill="#7AC2F7" cx="379.017" cy="81.013" r="0.977"/>
	<circle fill="#7AC2F7" cx="391.517" cy="72.311" r="0.977"/>
	<circle fill="#7AC2F7" cx="375.09" cy="101.531" r="0.977"/>
	<circle fill="#7AC2F7" cx="391.517" cy="72.311" r="0.977"/>
	<circle fill="#7AC2F7" cx="375.09" cy="101.531" r="0.977"/>
	<circle fill="#7AC2F7" cx="391.517" cy="72.311" r="0.977"/>
	<circle fill="#7AC2F7" cx="547.043" cy="106.758" r="0.977"/>
	<circle fill="#7AC2F7" cx="501.141" cy="118.184" r="0.976"/>
	<circle fill="#7AC2F7" cx="391.517" cy="72.311" r="0.977"/>
	<circle fill="#7AC2F7" cx="393.771" cy="122.052" r="0.977"/>
	<circle fill="#7AC2F7" cx="369.622" cy="147.772" r="0.977"/>
	<circle fill="#7AC2F7" cx="393.771" cy="122.052" r="0.977"/>
	<circle fill="#7AC2F7" cx="379.017" cy="81.013" r="0.977"/>
	<circle fill="#7AC2F7" cx="393.771" cy="122.052" r="0.977"/>
	<circle fill="#7AC2F7" cx="375.09" cy="101.531" r="0.977"/>
	<circle fill="#7AC2F7" cx="393.771" cy="122.052" r="0.977"/>
	<circle fill="#7AC2F7" cx="375.09" cy="101.531" r="0.977"/>
	<circle fill="#7AC2F7" cx="393.771" cy="122.052" r="0.977"/>
	<circle fill="#7AC2F7" cx="391.517" cy="72.311" r="0.977"/>
	<circle fill="#7AC2F7" cx="393.771" cy="122.052" r="0.977"/>
	<circle fill="#7AC2F7" cx="369.622" cy="147.772" r="0.977"/>
	<circle fill="#7AC2F7" cx="393.771" cy="122.052" r="0.977"/>
	<circle fill="#7AC2F7" cx="379.017" cy="81.013" r="0.977"/>
	<circle fill="#7AC2F7" cx="393.771" cy="122.052" r="0.977"/>
	<circle fill="#7AC2F7" cx="375.09" cy="101.531" r="0.977"/>
	<circle fill="#7AC2F7" cx="393.771" cy="122.052" r="0.977"/>
	<circle fill="#7AC2F7" cx="375.09" cy="101.531" r="0.977"/>
	<circle fill="#7AC2F7" cx="393.771" cy="122.052" r="0.977"/>
	<circle fill="#7AC2F7" cx="501.141" cy="118.184" r="0.976"/>
	<circle fill="#7AC2F7" cx="465.479" cy="116.388" r="0.977"/>
	<circle fill="#7AC2F7" cx="319.34" cy="60.401" r="0.977"/>
	<circle fill="#7AC2F7" cx="308.753" cy="124.557" r="0.977"/>
	<circle fill="#7AC2F7" cx="293.998" cy="83.519" r="0.977"/>
	<circle fill="#7AC2F7" cx="308.753" cy="124.557" r="0.977"/>
	<circle fill="#7AC2F7" cx="309.693" cy="103.185" r="0.977"/>
	<circle fill="#7AC2F7" cx="308.753" cy="124.557" r="0.977"/>
	<circle fill="#7AC2F7" cx="369.622" cy="147.772" r="0.977"/>
	<circle fill="#7AC2F7" cx="308.753" cy="124.557" r="0.977"/>
	<circle fill="#7AC2F7" cx="391.517" cy="72.311" r="0.977"/>
	<circle fill="#7AC2F7" cx="361.107" cy="30.675" r="0.976"/>
	<circle fill="#7AC2F7" cx="319.34" cy="60.401" r="0.977"/>
	<circle fill="#7AC2F7" cx="361.107" cy="30.675" r="0.976"/>
	<circle fill="#7AC2F7" cx="379.017" cy="81.013" r="0.977"/>
	<circle fill="#7AC2F7" cx="361.107" cy="30.675" r="0.976"/>
	<circle fill="#7AC2F7" cx="130.283" cy="27.998" r="0.976"/>
	<circle fill="#7AC2F7" cx="105.795" cy="48.13" r="0.977"/>
	<circle fill="#7AC2F7" cx="190.637" cy="82.396" r="0.976"/>
	<circle fill="#7AC2F7" cx="242.209" cy="108.766" r="0.977"/>
	<circle fill="#7AC2F7" cx="308.753" cy="124.557" r="0.977"/>
	<circle fill="#7AC2F7" cx="242.209" cy="108.766" r="0.977"/>
	<circle fill="#7AC2F7" cx="293.998" cy="83.519" r="0.977"/>
	<circle fill="#7AC2F7" cx="242.209" cy="108.766" r="0.977"/>
	<circle fill="#7AC2F7" cx="309.693" cy="103.185" r="0.977"/>
	<circle fill="#7AC2F7" cx="242.209" cy="108.766" r="0.977"/>
	<circle fill="#7AC2F7" cx="219.698" cy="11.246" r="0.976"/>
	<circle fill="#7AC2F7" cx="219.013" cy="33.982" r="0.977"/>
	<circle fill="#7AC2F7" cx="190.637" cy="82.396" r="0.976"/>
	<circle fill="#7AC2F7" cx="219.013" cy="33.982" r="0.977"/>
	<circle fill="#7AC2F7" cx="105.795" cy="48.13" r="0.977"/>
	<circle fill="#7AC2F7" cx="79.003" cy="67.28" r="0.976"/>
	<circle fill="#7AC2F7" cx="130.283" cy="27.998" r="0.976"/>
	<circle fill="#7AC2F7" cx="79.003" cy="67.28" r="0.976"/>
	<circle fill="#7AC2F7" cx="219.013" cy="33.982" r="0.977"/>
	<circle fill="#7AC2F7" cx="236.71" cy="68.111" r="0.977"/>
	<circle fill="#7AC2F7" cx="242.209" cy="108.766" r="0.977"/>
	<circle fill="#7AC2F7" cx="236.71" cy="68.111" r="0.977"/>
	<circle fill="#7AC2F7" cx="219.698" cy="11.246" r="0.976"/>
	<circle fill="#7AC2F7" cx="236.71" cy="68.111" r="0.977"/>
	<circle fill="#7AC2F7" cx="190.637" cy="82.396" r="0.976"/>
	<circle fill="#7AC2F7" cx="236.71" cy="68.111" r="0.977"/>
	<circle fill="#7AC2F7" cx="293.998" cy="83.519" r="0.977"/>
	<circle fill="#7AC2F7" cx="236.71" cy="68.111" r="0.977"/>
	<circle fill="#7AC2F7" cx="79.003" cy="67.28" r="0.976"/>
	<circle fill="#7AC2F7" cx="104.047" cy="46.338" r="0.976"/>
	<circle fill="#7AC2F7" cx="105.795" cy="48.13" r="0.977"/>
	<circle fill="#7AC2F7" cx="104.047" cy="46.338" r="0.976"/>
	<circle fill="#7AC2F7" cx="130.283" cy="27.998" r="0.976"/>
	<circle fill="#7AC2F7" cx="104.047" cy="46.338" r="0.976"/>
	<circle fill="#7AC2F7" cx="79.003" cy="67.28" r="0.976"/>
	<circle fill="#7AC2F7" cx="104.047" cy="46.338" r="0.976"/>
	<circle fill="#7AC2F7" cx="105.795" cy="48.13" r="0.977"/>
	<circle fill="#7AC2F7" cx="104.047" cy="46.338" r="0.976"/>
	<circle fill="#7AC2F7" cx="130.283" cy="27.998" r="0.976"/>
	<circle fill="#7AC2F7" cx="104.047" cy="46.338" r="0.976"/>
	<circle fill="#7AC2F7" cx="236.71" cy="68.111" r="0.977"/>
	<circle fill="#7AC2F7" cx="200.835" cy="72.714" r="0.977"/>
	<circle fill="#7AC2F7" cx="219.013" cy="33.982" r="0.977"/>
	<circle fill="#7AC2F7" cx="200.835" cy="72.714" r="0.977"/>
	<circle fill="#7AC2F7" cx="242.209" cy="108.766" r="0.977"/>
	<circle fill="#7AC2F7" cx="200.835" cy="72.714" r="0.977"/>
	<circle fill="#7AC2F7" cx="219.698" cy="11.246" r="0.976"/>
	<circle fill="#7AC2F7" cx="200.835" cy="72.714" r="0.977"/>
	<circle fill="#7AC2F7" cx="190.637" cy="82.396" r="0.976"/>
	<circle fill="#7AC2F7" cx="200.835" cy="72.714" r="0.977"/>
	<circle fill="#7AC2F7" cx="190.637" cy="82.396" r="0.976"/>
	<circle fill="#7AC2F7" cx="132.235" cy="113.827" r="0.977"/>
	<circle fill="#7AC2F7" cx="242.209" cy="108.766" r="0.977"/>
	<circle fill="#7AC2F7" cx="261.101" cy="145.496" r="0.977"/>
	<circle fill="#7AC2F7" cx="308.753" cy="124.557" r="0.977"/>
	<circle fill="#7AC2F7" cx="261.101" cy="145.496" r="0.977"/>
	<circle fill="#7AC2F7" cx="309.693" cy="103.185" r="0.977"/>
	<circle fill="#7AC2F7" cx="261.101" cy="145.496" r="0.977"/>
	<circle fill="#7AC2F7" cx="308.753" cy="124.557" r="0.977"/>
	<circle fill="#7AC2F7" cx="359.341" cy="153.229" r="0.977"/>
	<circle fill="#7AC2F7" cx="393.771" cy="122.052" r="0.977"/>
	<circle fill="#7AC2F7" cx="359.341" cy="153.229" r="0.977"/>
	<circle fill="#7AC2F7" cx="393.771" cy="122.052" r="0.977"/>
	<circle fill="#7AC2F7" cx="359.341" cy="153.229" r="0.977"/>
	<circle fill="#7AC2F7" cx="369.622" cy="147.772" r="0.977"/>
	<circle fill="#7AC2F7" cx="359.341" cy="153.229" r="0.977"/>
	<circle fill="#7AC2F7" cx="375.09" cy="101.531" r="0.977"/>
	<circle fill="#7AC2F7" cx="359.341" cy="153.229" r="0.977"/>
	<circle fill="#7AC2F7" cx="375.09" cy="101.531" r="0.977"/>
	<circle fill="#7AC2F7" cx="359.341" cy="153.229" r="0.977"/>
	<circle fill="#7AC2F7" cx="261.101" cy="145.496" r="0.977"/>
	<circle fill="#7AC2F7" cx="223.349" cy="147.625" r="0.977"/>
	<circle fill="#7AC2F7" cx="242.209" cy="108.766" r="0.977"/>
	<circle fill="#7AC2F7" cx="223.349" cy="147.625" r="0.977"/>
	<circle fill="#7AC2F7" cx="132.235" cy="113.827" r="0.977"/>
	<circle fill="#7AC2F7" cx="151.004" cy="115.962" r="0.977"/>
	<circle fill="#7AC2F7" cx="200.835" cy="72.714" r="0.977"/>
	<circle fill="#7AC2F7" cx="151.004" cy="115.962" r="0.977"/>
	<circle fill="#7AC2F7" cx="190.637" cy="82.396" r="0.976"/>
	<circle fill="#7AC2F7" cx="151.004" cy="115.962" r="0.977"/>
	<circle fill="#7AC2F7" cx="151.004" cy="115.962" r="0.977"/>
	<circle fill="#7AC2F7" cx="123.408" cy="78.036" r="0.977"/>
	<circle fill="#7AC2F7" cx="132.235" cy="113.827" r="0.977"/>
	<circle fill="#7AC2F7" cx="123.408" cy="78.036" r="0.977"/>
	<circle fill="#7AC2F7" cx="104.047" cy="46.338" r="0.976"/>
	<circle fill="#7AC2F7" cx="123.408" cy="78.036" r="0.977"/>
	<circle fill="#7AC2F7" cx="104.047" cy="46.338" r="0.976"/>
	<circle fill="#7AC2F7" cx="123.408" cy="78.036" r="0.977"/>
	<circle fill="#7AC2F7" cx="79.003" cy="67.28" r="0.976"/>
	<circle fill="#7AC2F7" cx="123.408" cy="78.036" r="0.977"/>
	<circle fill="#7AC2F7" cx="105.795" cy="48.13" r="0.977"/>
	<circle fill="#7AC2F7" cx="123.408" cy="78.036" r="0.977"/>
	<circle fill="#7AC2F7" cx="130.283" cy="27.998" r="0.976"/>
	<circle fill="#7AC2F7" cx="123.408" cy="78.036" r="0.977"/>
	<circle fill="#7AC2F7" cx="190.637" cy="82.396" r="0.976"/>
	<circle fill="#7AC2F7" cx="123.408" cy="78.036" r="0.977"/>
	<circle fill="#7AC2F7" cx="123.408" cy="78.036" r="0.977"/>
	<circle fill="#7AC2F7" cx="164.065" cy="49.929" r="0.977"/>
	<circle fill="#7AC2F7" cx="151.004" cy="115.962" r="0.977"/>
	<circle fill="#7AC2F7" cx="164.065" cy="49.929" r="0.977"/>
	<circle fill="#7AC2F7" cx="200.835" cy="72.714" r="0.977"/>
	<circle fill="#7AC2F7" cx="164.065" cy="49.929" r="0.977"/>
	<circle fill="#7AC2F7" cx="104.047" cy="46.338" r="0.976"/>
	<circle fill="#7AC2F7" cx="164.065" cy="49.929" r="0.977"/>
	<circle fill="#7AC2F7" cx="104.047" cy="46.338" r="0.976"/>
	<circle fill="#7AC2F7" cx="164.065" cy="49.929" r="0.977"/>
	<circle fill="#7AC2F7" cx="219.013" cy="33.982" r="0.977"/>
	<circle fill="#7AC2F7" cx="164.065" cy="49.929" r="0.977"/>
	<circle fill="#7AC2F7" cx="105.795" cy="48.13" r="0.977"/>
	<circle fill="#7AC2F7" cx="164.065" cy="49.929" r="0.977"/>
	<circle fill="#7AC2F7" cx="219.698" cy="11.246" r="0.976"/>
	<circle fill="#7AC2F7" cx="164.065" cy="49.929" r="0.977"/>
	<circle fill="#7AC2F7" cx="130.283" cy="27.998" r="0.976"/>
	<circle fill="#7AC2F7" cx="164.065" cy="49.929" r="0.977"/>
	<circle fill="#7AC2F7" cx="190.637" cy="82.396" r="0.976"/>
	<circle fill="#7AC2F7" cx="164.065" cy="49.929" r="0.977"/>
	<circle fill="#7AC2F7" cx="465.479" cy="116.388" r="0.977"/>
	<circle fill="#7AC2F7" cx="455.499" cy="108.367" r="0.977"/>
	<circle fill="#7AC2F7" cx="393.771" cy="122.052" r="0.977"/>
	<circle fill="#7AC2F7" cx="455.499" cy="108.367" r="0.977"/>
	<circle fill="#7AC2F7" cx="393.771" cy="122.052" r="0.977"/>
	<circle fill="#7AC2F7" cx="455.499" cy="108.367" r="0.977"/>
	<circle fill="#7AC2F7" cx="501.141" cy="118.184" r="0.976"/>
	<circle fill="#7AC2F7" cx="455.499" cy="108.367" r="0.977"/>
	<circle fill="#7AC2F7" cx="455.499" cy="108.367" r="0.977"/>
	<circle fill="#7AC2F7" cx="444.359" cy="150.725" r="0.976"/>
	<circle fill="#7AC2F7" cx="465.479" cy="116.388" r="0.977"/>
	<circle fill="#7AC2F7" cx="444.359" cy="150.725" r="0.976"/>
	<circle fill="#7AC2F7" cx="393.771" cy="122.052" r="0.977"/>
	<circle fill="#7AC2F7" cx="444.359" cy="150.725" r="0.976"/>
	<circle fill="#7AC2F7" cx="393.771" cy="122.052" r="0.977"/>
	<circle fill="#7AC2F7" cx="444.359" cy="150.725" r="0.976"/>
	<circle fill="#7AC2F7" cx="501.141" cy="118.184" r="0.976"/>
	<circle fill="#7AC2F7" cx="444.359" cy="150.725" r="0.976"/>
	<circle fill="#7AC2F7" cx="444.359" cy="150.725" r="0.976"/>
	<circle fill="#7AC2F7" cx="429.096" cy="84.346" r="0.977"/>
	<circle fill="#7AC2F7" cx="455.499" cy="108.367" r="0.977"/>
	<circle fill="#7AC2F7" cx="429.096" cy="84.346" r="0.977"/>
	<circle fill="#7AC2F7" cx="465.479" cy="116.388" r="0.977"/>
	<circle fill="#7AC2F7" cx="429.096" cy="84.346" r="0.977"/>
	<circle fill="#7AC2F7" cx="393.771" cy="122.052" r="0.977"/>
	<circle fill="#7AC2F7" cx="429.096" cy="84.346" r="0.977"/>
	<circle fill="#7AC2F7" cx="393.771" cy="122.052" r="0.977"/>
	<circle fill="#7AC2F7" cx="429.096" cy="84.346" r="0.977"/>
	<circle fill="#7AC2F7" cx="391.517" cy="72.311" r="0.977"/>
	<circle fill="#7AC2F7" cx="429.096" cy="84.346" r="0.977"/>
	<circle fill="#7AC2F7" cx="379.017" cy="81.013" r="0.977"/>
	<circle fill="#7AC2F7" cx="429.096" cy="84.346" r="0.977"/>
	<circle fill="#7AC2F7" cx="375.09" cy="101.531" r="0.977"/>
	<circle fill="#7AC2F7" cx="429.096" cy="84.346" r="0.977"/>
	<circle fill="#7AC2F7" cx="375.09" cy="101.531" r="0.977"/>
	<circle fill="#7AC2F7" cx="429.096" cy="84.346" r="0.977"/>
	<circle fill="#7AC2F7" cx="361.107" cy="30.675" r="0.976"/>
	<circle fill="#7AC2F7" cx="296.608" cy="25.802" r="0.976"/>
	<circle fill="#7AC2F7" cx="319.34" cy="60.401" r="0.977"/>
	<circle fill="#7AC2F7" cx="296.608" cy="25.802" r="0.976"/>
	<circle fill="#7AC2F7" cx="293.998" cy="83.519" r="0.977"/>
	<circle fill="#7AC2F7" cx="296.608" cy="25.802" r="0.976"/>
	<circle fill="#7AC2F7" cx="296.608" cy="25.802" r="0.976"/>
	<circle fill="#7AC2F7" cx="246.955" cy="20.975" r="0.977"/>
	<circle fill="#7AC2F7" cx="200.835" cy="72.714" r="0.977"/>
	<circle fill="#7AC2F7" cx="246.955" cy="20.975" r="0.977"/>
	<circle fill="#7AC2F7" cx="236.71" cy="68.111" r="0.977"/>
	<circle fill="#7AC2F7" cx="246.955" cy="20.975" r="0.977"/>
	<circle fill="#7AC2F7" cx="219.013" cy="33.982" r="0.977"/>
	<circle fill="#7AC2F7" cx="246.955" cy="20.975" r="0.977"/>
	<circle fill="#7AC2F7" cx="219.698" cy="11.246" r="0.976"/>
	<circle fill="#7AC2F7" cx="246.955" cy="20.975" r="0.977"/>
	<circle fill="#7AC2F7" cx="246.955" cy="20.975" r="0.977"/>
	<circle fill="#7AC2F7" cx="269.432" cy="54.209" r="0.977"/>
	<circle fill="#7AC2F7" cx="296.608" cy="25.802" r="0.976"/>
	<circle fill="#7AC2F7" cx="269.432" cy="54.209" r="0.977"/>
	<circle fill="#7AC2F7" cx="236.71" cy="68.111" r="0.977"/>
	<circle fill="#7AC2F7" cx="269.432" cy="54.209" r="0.977"/>
	<circle fill="#7AC2F7" cx="219.013" cy="33.982" r="0.977"/>
	<circle fill="#7AC2F7" cx="269.432" cy="54.209" r="0.977"/>
	<circle fill="#7AC2F7" cx="242.209" cy="108.766" r="0.977"/>
	<circle fill="#7AC2F7" cx="269.432" cy="54.209" r="0.977"/>
	<circle fill="#7AC2F7" cx="219.698" cy="11.246" r="0.976"/>
	<circle fill="#7AC2F7" cx="269.432" cy="54.209" r="0.977"/>
	<circle fill="#7AC2F7" cx="319.34" cy="60.401" r="0.977"/>
	<circle fill="#7AC2F7" cx="269.432" cy="54.209" r="0.977"/>
	<circle fill="#7AC2F7" cx="293.998" cy="83.519" r="0.977"/>
	<circle fill="#7AC2F7" cx="269.432" cy="54.209" r="0.977"/>
	<circle fill="#7AC2F7" cx="309.693" cy="103.185" r="0.977"/>
	<circle fill="#7AC2F7" cx="269.432" cy="54.209" r="0.977"/>
	<circle fill="#7AC2F7" cx="151.004" cy="115.962" r="0.977"/>
	<circle fill="#7AC2F7" cx="193.748" cy="117.845" r="0.977"/>
	<circle fill="#7AC2F7" cx="223.349" cy="147.625" r="0.977"/>
	<circle fill="#7AC2F7" cx="193.748" cy="117.845" r="0.977"/>
	<circle fill="#7AC2F7" cx="132.235" cy="113.827" r="0.977"/>
	<circle fill="#7AC2F7" cx="193.748" cy="117.845" r="0.977"/>
	<circle fill="#7AC2F7" cx="200.835" cy="72.714" r="0.977"/>
	<circle fill="#7AC2F7" cx="193.748" cy="117.845" r="0.977"/>
	<circle fill="#7AC2F7" cx="236.71" cy="68.111" r="0.977"/>
	<circle fill="#7AC2F7" cx="193.748" cy="117.845" r="0.977"/>
	<circle fill="#7AC2F7" cx="242.209" cy="108.766" r="0.977"/>
	<circle fill="#7AC2F7" cx="193.748" cy="117.845" r="0.977"/>
	<circle fill="#7AC2F7" cx="190.637" cy="82.396" r="0.976"/>
	<circle fill="#7AC2F7" cx="193.748" cy="117.845" r="0.977"/>
	<circle fill="#7AC2F7" cx="123.408" cy="78.036" r="0.977"/>
	<circle fill="#7AC2F7" cx="95.807" cy="96.632" r="0.976"/>
	<circle fill="#7AC2F7" cx="151.004" cy="115.962" r="0.977"/>
	<circle fill="#7AC2F7" cx="95.807" cy="96.632" r="0.976"/>
	<circle fill="#7AC2F7" cx="132.235" cy="113.827" r="0.977"/>
	<circle fill="#7AC2F7" cx="95.807" cy="96.632" r="0.976"/>
	<circle fill="#7AC2F7" cx="104.047" cy="46.338" r="0.976"/>
	<circle fill="#7AC2F7" cx="95.807" cy="96.632" r="0.976"/>
	<circle fill="#7AC2F7" cx="104.047" cy="46.338" r="0.976"/>
	<circle fill="#7AC2F7" cx="95.807" cy="96.632" r="0.976"/>
	<circle fill="#7AC2F7" cx="79.003" cy="67.28" r="0.976"/>
	<circle fill="#7AC2F7" cx="95.807" cy="96.632" r="0.976"/>
	<circle fill="#7AC2F7" cx="105.795" cy="48.13" r="0.977"/>
	<circle fill="#7AC2F7" cx="95.807" cy="96.632" r="0.976"/>
	<circle fill="#7AC2F7" cx="79.003" cy="67.28" r="0.976"/>
	<circle fill="#7AC2F7" cx="18.729" cy="62.324" r="0.976"/>
	<circle fill="#7AC2F7" cx="164.065" cy="49.929" r="0.977"/>
	<circle fill="#7AC2F7" cx="177.466" cy="12.094" r="0.976"/>
	<circle fill="#7AC2F7" cx="200.835" cy="72.714" r="0.977"/>
	<circle fill="#7AC2F7" cx="177.466" cy="12.094" r="0.976"/>
	<circle fill="#7AC2F7" cx="219.013" cy="33.982" r="0.977"/>
	<circle fill="#7AC2F7" cx="177.466" cy="12.094" r="0.976"/>
	<circle fill="#7AC2F7" cx="219.698" cy="11.246" r="0.976"/>
	<circle fill="#7AC2F7" cx="177.466" cy="12.094" r="0.976"/>
	<circle fill="#7AC2F7" cx="130.283" cy="27.998" r="0.976"/>
	<circle fill="#7AC2F7" cx="177.466" cy="12.094" r="0.976"/>
	<circle fill="#7AC2F7" cx="18.729" cy="62.324" r="0.976"/>
	<circle fill="#7AC2F7" cx="54.394" cy="41.511" r="0.977"/>
	<circle fill="#7AC2F7" cx="95.807" cy="96.632" r="0.976"/>
	<circle fill="#7AC2F7" cx="54.394" cy="41.511" r="0.977"/>
	<circle fill="#7AC2F7" cx="104.047" cy="46.338" r="0.976"/>
	<circle fill="#7AC2F7" cx="54.394" cy="41.511" r="0.977"/>
	<circle fill="#7AC2F7" cx="104.047" cy="46.338" r="0.976"/>
	<circle fill="#7AC2F7" cx="54.394" cy="41.511" r="0.977"/>
	<circle fill="#7AC2F7" cx="79.003" cy="67.28" r="0.976"/>
	<circle fill="#7AC2F7" cx="54.394" cy="41.511" r="0.977"/>
	<circle fill="#7AC2F7" cx="105.795" cy="48.13" r="0.977"/>
	<circle fill="#7AC2F7" cx="54.394" cy="41.511" r="0.977"/>
	<circle fill="#7AC2F7" cx="429.096" cy="84.346" r="0.977"/>
	<circle fill="#7AC2F7" cx="414.03" cy="147.222" r="0.977"/>
	<circle fill="#7AC2F7" cx="444.359" cy="150.725" r="0.976"/>
	<circle fill="#7AC2F7" cx="414.03" cy="147.222" r="0.977"/>
	<circle fill="#7AC2F7" cx="455.499" cy="108.367" r="0.977"/>
	<circle fill="#7AC2F7" cx="414.03" cy="147.222" r="0.977"/>
	<circle fill="#7AC2F7" cx="359.341" cy="153.229" r="0.977"/>
	<circle fill="#7AC2F7" cx="414.03" cy="147.222" r="0.977"/>
	<circle fill="#7AC2F7" cx="465.479" cy="116.388" r="0.977"/>
	<circle fill="#7AC2F7" cx="414.03" cy="147.222" r="0.977"/>
	<circle fill="#7AC2F7" cx="393.771" cy="122.052" r="0.977"/>
	<circle fill="#7AC2F7" cx="414.03" cy="147.222" r="0.977"/>
	<circle fill="#7AC2F7" cx="393.771" cy="122.052" r="0.977"/>
	<circle fill="#7AC2F7" cx="414.03" cy="147.222" r="0.977"/>
	<circle fill="#7AC2F7" cx="369.622" cy="147.772" r="0.977"/>
	<circle fill="#7AC2F7" cx="414.03" cy="147.222" r="0.977"/>
	<circle fill="#7AC2F7" cx="375.09" cy="101.531" r="0.977"/>
	<circle fill="#7AC2F7" cx="414.03" cy="147.222" r="0.977"/>
	<circle fill="#7AC2F7" cx="375.09" cy="101.531" r="0.977"/>
	<circle fill="#7AC2F7" cx="414.03" cy="147.222" r="0.977"/>
</g>
</svg>
