<?xml version="1.0" encoding="utf-8"?>
<!-- Generator: Adobe Illustrator 16.0.3, SVG Export Plug-In . SVG Version: 6.00 Build 0)  -->
<!DOCTYPE svg PUBLIC "-//W3C//DTD SVG 1.1//EN" "http://www.w3.org/Graphics/SVG/1.1/DTD/svg11.dtd">
<svg version="1.1" id="分離模式" xmlns="http://www.w3.org/2000/svg" xmlns:xlink="http://www.w3.org/1999/xlink" x="0px"
	 y="0px" width="241px" height="153px" viewBox="0 0 241 153" enable-background="new 0 0 241 153" xml:space="preserve">
<g>
	<defs>
		<rect id="SVGID_1_" width="239" height="153"/>
	</defs>
	<clipPath id="SVGID_2_">
		<use xlink:href="#SVGID_1_"  overflow="visible"/>
	</clipPath>
	<g opacity="0.8" clip-path="url(#SVGID_2_)">
		<g>
			<g>
				<g>
					<line fill="#7AC2F7" x1="132.479" y1="71.587" x2="135.443" y2="92.266"/>
					
						<rect x="123.516" y="81.837" transform="matrix(0.1419 0.9899 -0.9899 0.1419 196.0455 -62.306)" fill="#7AC2F7" width="20.89" height="0.178"/>
				</g>
				<g>
					<line fill="#7AC2F7" x1="132.479" y1="71.587" x2="135.443" y2="92.266"/>
					
						<rect x="123.516" y="81.837" transform="matrix(0.1419 0.9899 -0.9899 0.1419 196.0455 -62.306)" fill="#7AC2F7" width="20.89" height="0.178"/>
				</g>
			</g>
			<g>
				<g>
					<line fill="#7AC2F7" x1="138.746" y1="138.712" x2="132.479" y2="71.587"/>
					
						<rect x="101.904" y="104.98" transform="matrix(0.0929 0.9957 -0.9957 0.0929 227.703 -39.6484)" fill="#7AC2F7" width="67.417" height="0.339"/>
				</g>
				<g>
					<line fill="#7AC2F7" x1="138.746" y1="138.712" x2="135.443" y2="92.266"/>
					
						<rect x="113.814" y="115.354" transform="matrix(0.0709 0.9975 -0.9975 0.0709 242.5688 -29.4538)" fill="#7AC2F7" width="46.563" height="0.268"/>
				</g>
				<g>
					<line fill="#7AC2F7" x1="138.746" y1="138.712" x2="135.443" y2="92.266"/>
					
						<rect x="113.814" y="115.354" transform="matrix(0.0709 0.9975 -0.9975 0.0709 242.5688 -29.4538)" fill="#7AC2F7" width="46.563" height="0.268"/>
				</g>
			</g>
			<g>
				<g>
					<line fill="#7AC2F7" x1="200.691" y1="96.972" x2="135.443" y2="92.266"/>
					
						<rect x="135.359" y="94.453" transform="matrix(0.9974 0.072 -0.072 0.9974 7.244 -11.8481)" fill="#7AC2F7" width="65.416" height="0.333"/>
				</g>
				<g>
					<line fill="#7AC2F7" x1="200.691" y1="96.972" x2="135.443" y2="92.266"/>
					
						<rect x="135.359" y="94.453" transform="matrix(0.9974 0.072 -0.072 0.9974 7.244 -11.8481)" fill="#7AC2F7" width="65.416" height="0.333"/>
				</g>
			</g>
			<g>
				<g>
					<line fill="#7AC2F7" x1="217.287" y1="78.06" x2="200.691" y2="96.972"/>
					
						<rect x="208.893" y="74.935" transform="matrix(0.7538 0.6571 -0.6571 0.7538 108.9485 -115.7756)" fill="#7AC2F7" width="0.192" height="25.162"/>
				</g>
			</g>
			<g>
				<g>
					<line fill="#7AC2F7" x1="193.053" y1="53.783" x2="217.287" y2="78.06"/>
					
						<rect x="188.018" y="65.809" transform="matrix(0.7065 0.7077 -0.7077 0.7065 106.8682 -125.8516)" fill="#7AC2F7" width="34.302" height="0.224"/>
				</g>
				<g>
					<line fill="#7AC2F7" x1="193.053" y1="53.783" x2="200.691" y2="96.972"/>
					
						<rect x="174.943" y="75.249" transform="matrix(0.1742 0.9847 -0.9847 0.1742 236.8092 -131.6138)" fill="#7AC2F7" width="43.859" height="0.258"/>
				</g>
				<g>
					<line fill="#7AC2F7" x1="193.053" y1="53.783" x2="132.479" y2="71.587"/>
					
						<rect x="162.603" y="31.118" transform="matrix(0.2818 0.9595 -0.9595 0.2818 177.0358 -111.1491)" fill="#7AC2F7" width="0.326" height="63.134"/>
				</g>
				<g>
					<line fill="#7AC2F7" x1="193.053" y1="53.783" x2="135.443" y2="92.266"/>
					
						<rect x="164.075" y="38.386" transform="matrix(0.5573 0.8303 -0.8303 0.5573 133.3469 -104.049)" fill="#7AC2F7" width="0.347" height="69.279"/>
				</g>
				<g>
					<line fill="#7AC2F7" x1="193.053" y1="53.783" x2="135.443" y2="92.266"/>
					
						<rect x="164.075" y="38.386" transform="matrix(0.5573 0.8303 -0.8303 0.5573 133.3469 -104.049)" fill="#7AC2F7" width="0.347" height="69.279"/>
				</g>
			</g>
			<g>
				<g>
					<line fill="#7AC2F7" x1="120.398" y1="62.312" x2="132.479" y2="71.587"/>
					
						<rect x="118.824" y="66.871" transform="matrix(0.7932 0.609 -0.609 0.7932 66.9255 -63.1552)" fill="#7AC2F7" width="15.23" height="0.157"/>
				</g>
				<g>
					<line fill="#7AC2F7" x1="120.398" y1="62.312" x2="135.443" y2="92.266"/>
					
						<rect x="111.162" y="77.177" transform="matrix(0.4489 0.8936 -0.8936 0.4489 139.5629 -71.7148)" fill="#7AC2F7" width="33.52" height="0.223"/>
				</g>
				<g>
					<line fill="#7AC2F7" x1="120.398" y1="62.312" x2="135.443" y2="92.266"/>
					
						<rect x="111.162" y="77.177" transform="matrix(0.4489 0.8936 -0.8936 0.4489 139.5629 -71.7148)" fill="#7AC2F7" width="33.52" height="0.223"/>
				</g>
			</g>
			<g>
				<g>
					<line fill="#7AC2F7" x1="115.824" y1="111.893" x2="120.398" y2="62.312"/>
					
						<rect x="117.972" y="62.207" transform="matrix(0.9955 0.0946 -0.0946 0.9955 8.7738 -10.7875)" fill="#7AC2F7" width="0.279" height="49.791"/>
				</g>
				<g>
					<line fill="#7AC2F7" x1="115.824" y1="111.893" x2="138.746" y2="138.712"/>
					
						<rect x="109.646" y="125.188" transform="matrix(0.6497 0.7602 -0.7602 0.6497 139.8392 -52.8687)" fill="#7AC2F7" width="35.28" height="0.228"/>
				</g>
				<g>
					<line fill="#7AC2F7" x1="115.824" y1="111.893" x2="132.479" y2="71.587"/>
					
						<rect x="124.024" y="69.935" transform="matrix(0.9229 0.3852 -0.3852 0.9229 44.9124 -40.7405)" fill="#7AC2F7" width="0.256" height="43.61"/>
				</g>
				<g>
					<line fill="#7AC2F7" x1="115.824" y1="111.893" x2="135.443" y2="92.266"/>
					
						<rect x="125.534" y="88.203" transform="matrix(0.7095 0.7047 -0.7047 0.7095 108.4248 -58.8809)" fill="#7AC2F7" width="0.201" height="27.751"/>
				</g>
				<g>
					<line fill="#7AC2F7" x1="115.824" y1="111.893" x2="135.443" y2="92.266"/>
					
						<rect x="125.534" y="88.203" transform="matrix(0.7095 0.7047 -0.7047 0.7095 108.4248 -58.8809)" fill="#7AC2F7" width="0.201" height="27.751"/>
				</g>
			</g>
			<g>
				<g>
					<line fill="#7AC2F7" x1="115.824" y1="111.893" x2="120.398" y2="62.312"/>
					
						<rect x="117.972" y="62.207" transform="matrix(0.9955 0.0946 -0.0946 0.9955 8.7738 -10.7875)" fill="#7AC2F7" width="0.279" height="49.791"/>
				</g>
				<g>
					<line fill="#7AC2F7" x1="115.824" y1="111.893" x2="138.746" y2="138.712"/>
					
						<rect x="109.646" y="125.188" transform="matrix(0.6497 0.7602 -0.7602 0.6497 139.8392 -52.8687)" fill="#7AC2F7" width="35.28" height="0.228"/>
				</g>
				<g>
					<line fill="#7AC2F7" x1="115.824" y1="111.893" x2="132.479" y2="71.587"/>
					
						<rect x="124.024" y="69.935" transform="matrix(0.9229 0.3852 -0.3852 0.9229 44.9124 -40.7405)" fill="#7AC2F7" width="0.256" height="43.61"/>
				</g>
				<g>
					<line fill="#7AC2F7" x1="115.824" y1="111.893" x2="135.443" y2="92.266"/>
					
						<rect x="125.534" y="88.203" transform="matrix(0.7095 0.7047 -0.7047 0.7095 108.4248 -58.8809)" fill="#7AC2F7" width="0.201" height="27.751"/>
				</g>
				<g>
					<line fill="#7AC2F7" x1="115.824" y1="111.893" x2="135.443" y2="92.266"/>
					
						<rect x="125.534" y="88.203" transform="matrix(0.7095 0.7047 -0.7047 0.7095 108.4248 -58.8809)" fill="#7AC2F7" width="0.201" height="27.751"/>
				</g>
			</g>
			<g>
				<g>
					<line fill="#7AC2F7" x1="44.459" y1="102.887" x2="8.752" y2="103.017"/>
					<rect x="8.752" y="102.837" fill="#7AC2F7" width="35.707" height="0.229"/>
				</g>
			</g>
			<g>
				<g>
					<line fill="#7AC2F7" x1="200.633" y1="118.364" x2="193.053" y2="53.783"/>
					
						<rect x="164.33" y="85.908" transform="matrix(0.1166 0.9932 -0.9932 0.1166 259.3775 -119.4623)" fill="#7AC2F7" width="65.025" height="0.332"/>
				</g>
				<g>
					<line fill="#7AC2F7" x1="200.633" y1="118.364" x2="217.287" y2="78.06"/>
					
						<rect x="208.831" y="76.406" transform="matrix(0.9253 0.3792 -0.3792 0.9253 52.8523 -71.9066)" fill="#7AC2F7" width="0.258" height="43.611"/>
				</g>
				<g>
					<line fill="#7AC2F7" x1="200.633" y1="118.364" x2="200.691" y2="96.972"/>
					<rect x="200.572" y="96.972" fill="#7AC2F7" width="0.18" height="21.393"/>
				</g>
				<g>
					<line fill="#7AC2F7" x1="200.633" y1="118.364" x2="138.746" y2="138.712"/>
					
						<rect x="169.523" y="95.964" transform="matrix(0.3118 0.9501 -0.9501 0.3118 238.9079 -72.771)" fill="#7AC2F7" width="0.332" height="65.147"/>
				</g>
			</g>
			<g>
				<g>
					<line fill="#7AC2F7" x1="152.719" y1="22.14" x2="120.398" y2="62.312"/>
					
						<rect x="136.417" y="16.445" transform="matrix(0.7799 0.6259 -0.6259 0.7799 56.4922 -76.1836)" fill="#7AC2F7" width="0.286" height="51.561"/>
				</g>
				<g>
					<line fill="#7AC2F7" x1="152.719" y1="22.14" x2="193.053" y2="53.783"/>
					
						<rect x="147.253" y="37.82" transform="matrix(0.7867 0.6173 -0.6173 0.7867 60.3018 -98.6233)" fill="#7AC2F7" width="51.264" height="0.283"/>
				</g>
				<g>
					<line fill="#7AC2F7" x1="152.719" y1="22.14" x2="132.479" y2="71.587"/>
					
						<rect x="142.453" y="20.148" transform="matrix(0.9254 0.3789 -0.3789 0.9254 28.3884 -50.5356)" fill="#7AC2F7" width="0.291" height="53.43"/>
				</g>
			</g>
			<g>
				<g>
					<line fill="#7AC2F7" x1="406.938" y1="51.495" x2="383.416" y2="30.242"/>
					
						<rect x="379.326" y="40.762" transform="matrix(0.742 0.6704 -0.6704 0.742 129.3624 -254.3896)" fill="#7AC2F7" width="31.701" height="0.215"/>
				</g>
			</g>
			<g>
				<g>
					<line fill="#7AC2F7" x1="267.842" y1="105.696" x2="320.588" y2="81.763"/>
					
						<rect x="294.061" y="64.769" transform="matrix(0.4138 0.9104 -0.9104 0.4138 257.7961 -212.8994)" fill="#7AC2F7" width="0.307" height="57.92"/>
				</g>
				<g>
					<line fill="#7AC2F7" x1="267.842" y1="105.696" x2="200.633" y2="118.364"/>
					
						<rect x="234.066" y="77.834" transform="matrix(0.1874 0.9823 -0.9823 0.1874 300.3944 -139.0508)" fill="#7AC2F7" width="0.344" height="68.392"/>
				</g>
				<g>
					<line fill="#7AC2F7" x1="267.842" y1="105.696" x2="217.287" y2="78.06"/>
					
						<rect x="213.758" y="91.724" transform="matrix(0.8774 0.4797 -0.4797 0.8774 73.7983 -105.0924)" fill="#7AC2F7" width="57.616" height="0.306"/>
				</g>
				<g>
					<line fill="#7AC2F7" x1="267.842" y1="105.696" x2="200.691" y2="96.972"/>
					
						<rect x="200.408" y="101.163" transform="matrix(0.9917 0.1288 -0.1288 0.9917 15.0065 -29.3351)" fill="#7AC2F7" width="67.717" height="0.342"/>
				</g>
			</g>
			<g>
				<g>
					<line fill="#7AC2F7" x1="294.504" y1="32.077" x2="294.881" y2="9.334"/>
					<rect x="294.601" y="9.332" fill="#7AC2F7" width="0.184" height="22.747"/>
				</g>
				<g>
					<line fill="#7AC2F7" x1="294.504" y1="32.077" x2="320.588" y2="81.763"/>
					
						<rect x="279.488" y="56.77" transform="matrix(0.4648 0.8854 -0.8854 0.4648 214.9869 -241.8395)" fill="#7AC2F7" width="56.115" height="0.3"/>
				</g>
			</g>
			<g>
				<g>
					<line fill="#7AC2F7" x1="432.807" y1="71.875" x2="406.938" y2="51.495"/>
					
						<rect x="403.406" y="61.575" transform="matrix(0.7855 0.6188 -0.6188 0.7855 128.2203 -246.5955)" fill="#7AC2F7" width="32.932" height="0.22"/>
				</g>
				<g>
					<line fill="#7AC2F7" x1="432.807" y1="71.875" x2="383.416" y2="30.242"/>
					
						<rect x="375.812" y="50.894" transform="matrix(0.7646 0.6445 -0.6445 0.7646 128.9764 -251.0097)" fill="#7AC2F7" width="64.597" height="0.33"/>
				</g>
			</g>
			<g>
				<g>
					<line fill="#7AC2F7" x1="275.232" y1="65.343" x2="294.504" y2="32.077"/>
					
						<rect x="284.749" y="29.488" transform="matrix(0.8667 0.4988 -0.4988 0.8667 62.26 -135.5945)" fill="#7AC2F7" width="0.239" height="38.445"/>
				</g>
				<g>
					<line fill="#7AC2F7" x1="275.232" y1="65.343" x2="267.842" y2="105.696"/>
					
						<rect x="271.413" y="65.007" transform="matrix(0.9842 0.1772 -0.1772 0.9842 19.4448 -46.751)" fill="#7AC2F7" width="0.248" height="41.024"/>
				</g>
				<g>
					<line fill="#7AC2F7" x1="275.232" y1="65.343" x2="294.881" y2="9.334"/>
					
						<rect x="284.9" y="7.66" transform="matrix(0.9436 0.3312 -0.3312 0.9436 28.4529 -92.2994)" fill="#7AC2F7" width="0.313" height="59.356"/>
				</g>
				<g>
					<line fill="#7AC2F7" x1="275.232" y1="65.343" x2="320.588" y2="81.763"/>
					
						<rect x="273.792" y="73.416" transform="matrix(0.9403 0.3404 -0.3404 0.9403 42.8328 -97.0227)" fill="#7AC2F7" width="48.237" height="0.273"/>
				</g>
				<g>
					<line fill="#7AC2F7" x1="275.232" y1="65.343" x2="217.287" y2="78.06"/>
					
						<rect x="246.104" y="42.039" transform="matrix(0.2129 0.9771 -0.9771 0.2129 263.8754 -184.1789)" fill="#7AC2F7" width="0.312" height="59.324"/>
				</g>
			</g>
			<g>
				<g>
					<line fill="#7AC2F7" x1="408.768" y1="49.787" x2="432.807" y2="71.875"/>
					
						<rect x="404.464" y="60.722" transform="matrix(0.7363 0.6766 -0.6766 0.7363 152.1021 -268.669)" fill="#7AC2F7" width="32.647" height="0.218"/>
				</g>
				<g>
					<line fill="#7AC2F7" x1="408.768" y1="49.787" x2="406.938" y2="51.495"/>
					
						<rect x="407.796" y="49.39" transform="matrix(0.6854 0.7282 -0.7282 0.6854 165.202 -281.0646)" fill="#7AC2F7" width="0.114" height="2.503"/>
				</g>
				<g>
					<line fill="#7AC2F7" x1="408.768" y1="49.787" x2="383.416" y2="30.242"/>
					
						<rect x="380.085" y="39.908" transform="matrix(0.792 0.6106 -0.6106 0.792 106.8333 -233.516)" fill="#7AC2F7" width="32.011" height="0.215"/>
				</g>
			</g>
			<g>
				<g>
					<line fill="#7AC2F7" x1="408.768" y1="49.787" x2="432.807" y2="71.875"/>
					
						<rect x="404.464" y="60.722" transform="matrix(0.7363 0.6766 -0.6766 0.7363 152.1021 -268.669)" fill="#7AC2F7" width="32.647" height="0.218"/>
				</g>
				<g>
					<line fill="#7AC2F7" x1="408.768" y1="49.787" x2="406.938" y2="51.495"/>
					
						<rect x="407.796" y="49.39" transform="matrix(0.6854 0.7282 -0.7282 0.6854 165.202 -281.0646)" fill="#7AC2F7" width="0.114" height="2.503"/>
				</g>
				<g>
					<line fill="#7AC2F7" x1="408.768" y1="49.787" x2="383.416" y2="30.242"/>
					
						<rect x="380.085" y="39.908" transform="matrix(0.792 0.6106 -0.6106 0.792 106.8333 -233.516)" fill="#7AC2F7" width="32.011" height="0.215"/>
				</g>
			</g>
			<g>
				<g>
					<line fill="#7AC2F7" x1="310.854" y1="71.615" x2="275.232" y2="65.343"/>
					
						<rect x="274.957" y="68.364" transform="matrix(0.9848 0.1734 -0.1734 0.9848 16.318 -49.7868)" fill="#7AC2F7" width="36.171" height="0.23"/>
				</g>
				<g>
					<line fill="#7AC2F7" x1="310.854" y1="71.615" x2="294.504" y2="32.077"/>
					
						<rect x="281.286" y="51.72" transform="matrix(0.3821 0.9241 -0.9241 0.3821 234.9272 -247.6733)" fill="#7AC2F7" width="42.785" height="0.254"/>
				</g>
				<g>
					<line fill="#7AC2F7" x1="310.854" y1="71.615" x2="267.842" y2="105.696"/>
					
						<rect x="289.2" y="61.217" transform="matrix(0.6215 0.7834 -0.7834 0.6215 178.985 -193.1278)" fill="#7AC2F7" width="0.295" height="54.877"/>
				</g>
				<g>
					<line fill="#7AC2F7" x1="310.854" y1="71.615" x2="294.881" y2="9.334"/>
					
						<rect x="270.72" y="40.31" transform="matrix(0.2484 0.9687 -0.9687 0.2484 266.8353 -262.954)" fill="#7AC2F7" width="64.297" height="0.329"/>
				</g>
				<g>
					<line fill="#7AC2F7" x1="310.854" y1="71.615" x2="320.588" y2="81.763"/>
					
						<rect x="308.691" y="76.612" transform="matrix(0.6922 0.7217 -0.7217 0.6922 152.5147 -204.2462)" fill="#7AC2F7" width="14.06" height="0.154"/>
				</g>
			</g>
			<g>
				<g>
					<line fill="#7AC2F7" x1="377.459" y1="115.887" x2="320.588" y2="81.763"/>
					
						<rect x="315.862" y="98.656" transform="matrix(0.8575 0.5145 -0.5145 0.8575 100.5843 -165.4892)" fill="#7AC2F7" width="66.323" height="0.336"/>
				</g>
			</g>
			<g>
				<g>
					<line fill="#7AC2F7" x1="247.256" y1="141.505" x2="267.842" y2="105.696"/>
					
						<rect x="257.425" y="102.948" transform="matrix(0.8661 0.4999 -0.4999 0.8661 96.2913 -112.2058)" fill="#7AC2F7" width="0.248" height="41.304"/>
				</g>
				<g>
					<line fill="#7AC2F7" x1="247.256" y1="141.505" x2="200.633" y2="118.364"/>
					
						<rect x="197.92" y="129.792" transform="matrix(0.8957 0.4446 -0.4446 0.8957 81.1198 -86.0173)" fill="#7AC2F7" width="52.048" height="0.286"/>
				</g>
				<g>
					<line fill="#7AC2F7" x1="247.256" y1="141.505" x2="200.691" y2="96.972"/>
					
						<rect x="191.757" y="119.074" transform="matrix(0.7227 0.6912 -0.6912 0.7227 144.5183 -121.7362)" fill="#7AC2F7" width="64.433" height="0.329"/>
				</g>
			</g>
			<g>
				<g>
					<line fill="#7AC2F7" x1="148.762" y1="144.644" x2="200.633" y2="118.364"/>
					
						<rect x="174.544" y="102.429" transform="matrix(0.451 0.8925 -0.8925 0.451 213.2741 -83.7267)" fill="#7AC2F7" width="0.307" height="58.15"/>
				</g>
				<g>
					<line fill="#7AC2F7" x1="148.762" y1="144.644" x2="115.824" y2="111.893"/>
					
						<rect x="109.068" y="128.135" transform="matrix(0.7091 0.7051 -0.7051 0.7091 128.9265 -55.9676)" fill="#7AC2F7" width="46.45" height="0.266"/>
				</g>
				<g>
					<line fill="#7AC2F7" x1="148.762" y1="144.644" x2="115.824" y2="111.893"/>
					
						<rect x="109.068" y="128.135" transform="matrix(0.7091 0.7051 -0.7051 0.7091 128.9265 -55.9676)" fill="#7AC2F7" width="46.45" height="0.266"/>
				</g>
				<g>
					<line fill="#7AC2F7" x1="148.762" y1="144.644" x2="138.746" y2="138.712"/>
					
						<rect x="137.934" y="141.605" transform="matrix(0.8604 0.5096 -0.5096 0.8604 92.2743 -53.4828)" fill="#7AC2F7" width="11.641" height="0.145"/>
				</g>
				<g>
					<line fill="#7AC2F7" x1="148.762" y1="144.644" x2="135.443" y2="92.266"/>
					
						<rect x="115.08" y="118.309" transform="matrix(0.2464 0.9692 -0.9692 0.2464 221.8924 -48.453)" fill="#7AC2F7" width="54.045" height="0.292"/>
				</g>
				<g>
					<line fill="#7AC2F7" x1="148.762" y1="144.644" x2="135.443" y2="92.266"/>
					
						<rect x="115.08" y="118.309" transform="matrix(0.2464 0.9692 -0.9692 0.2464 221.8924 -48.453)" fill="#7AC2F7" width="54.045" height="0.292"/>
				</g>
			</g>
			<g>
				<g>
					<line fill="#7AC2F7" x1="284.867" y1="145.394" x2="247.256" y2="141.505"/>
					
						<rect x="247.156" y="143.33" transform="matrix(0.9947 0.1028 -0.1028 0.9947 16.1634 -26.6019)" fill="#7AC2F7" width="37.812" height="0.237"/>
				</g>
				<g>
					<line fill="#7AC2F7" x1="284.867" y1="145.394" x2="267.842" y2="105.696"/>
					
						<rect x="254.757" y="125.417" transform="matrix(0.3942 0.919 -0.919 0.3942 282.8074 -177.9215)" fill="#7AC2F7" width="43.194" height="0.255"/>
				</g>
			</g>
			<g>
				<g>
					<line fill="#7AC2F7" x1="358.611" y1="117.143" x2="377.459" y2="115.887"/>
					
						<rect x="367.949" y="107.07" transform="matrix(0.0684 0.9977 -0.9977 0.0684 459.0998 -258.6287)" fill="#7AC2F7" width="0.171" height="18.889"/>
				</g>
				<g>
					<line fill="#7AC2F7" x1="358.611" y1="117.143" x2="310.854" y2="71.615"/>
					
						<rect x="301.742" y="94.212" transform="matrix(0.7238 0.69 -0.69 0.7238 157.5728 -204.8993)" fill="#7AC2F7" width="65.981" height="0.335"/>
				</g>
				<g>
					<line fill="#7AC2F7" x1="358.611" y1="117.143" x2="320.588" y2="81.763"/>
					
						<rect x="313.63" y="99.31" transform="matrix(0.7321 0.6812 -0.6812 0.7321 158.731 -204.6938)" fill="#7AC2F7" width="51.938" height="0.286"/>
				</g>
			</g>
			<g>
				<g>
					<line fill="#7AC2F7" x1="387.947" y1="80.546" x2="358.611" y2="117.143"/>
					
						<rect x="373.145" y="75.392" transform="matrix(0.784 0.6207 -0.6207 0.784 141.9641 -210.3497)" fill="#7AC2F7" width="0.269" height="46.904"/>
				</g>
				<g>
					<line fill="#7AC2F7" x1="387.947" y1="80.546" x2="377.459" y2="115.887"/>
					
						<rect x="382.586" y="79.784" transform="matrix(0.9583 0.2858 -0.2858 0.9583 44.0341 -105.2814)" fill="#7AC2F7" width="0.232" height="36.864"/>
				</g>
				<g>
					<line fill="#7AC2F7" x1="387.947" y1="80.546" x2="408.768" y2="49.787"/>
					
						<rect x="398.239" y="46.596" transform="matrix(0.8262 0.5633 -0.5633 0.8262 105.9344 -213.0846)" fill="#7AC2F7" width="0.234" height="37.143"/>
				</g>
				<g>
					<line fill="#7AC2F7" x1="387.947" y1="80.546" x2="408.768" y2="49.787"/>
					
						<rect x="398.239" y="46.596" transform="matrix(0.8262 0.5633 -0.5633 0.8262 105.9344 -213.0846)" fill="#7AC2F7" width="0.234" height="37.143"/>
				</g>
				<g>
					<line fill="#7AC2F7" x1="387.947" y1="80.546" x2="432.807" y2="71.875"/>
					
						<rect x="410.244" y="53.366" transform="matrix(0.1854 0.9827 -0.9827 0.1854 409.1786 -341.1799)" fill="#7AC2F7" width="0.263" height="45.69"/>
				</g>
				<g>
					<line fill="#7AC2F7" x1="387.947" y1="80.546" x2="406.938" y2="51.495"/>
					
						<rect x="397.329" y="48.666" transform="matrix(0.8386 0.5447 -0.5447 0.8386 100.0912 -205.8277)" fill="#7AC2F7" width="0.226" height="34.708"/>
				</g>
				<g>
					<line fill="#7AC2F7" x1="387.947" y1="80.546" x2="383.416" y2="30.242"/>
					
						<rect x="360.427" y="55.254" transform="matrix(0.0897 0.996 -0.996 0.0897 406.2502 -333.701)" fill="#7AC2F7" width="50.507" height="0.28"/>
				</g>
				<g>
					<line fill="#7AC2F7" x1="387.947" y1="80.546" x2="320.588" y2="81.763"/>
					
						<rect x="354.097" y="47.469" transform="matrix(0.0172 0.9999 -0.9999 0.0172 429.3017 -274.4587)" fill="#7AC2F7" width="0.34" height="67.37"/>
				</g>
			</g>
			<g>
				<g>
					<line fill="#7AC2F7" x1="348.646" y1="50.572" x2="387.947" y2="80.546"/>
					
						<rect x="343.584" y="65.42" transform="matrix(0.7951 0.6064 -0.6064 0.7951 115.2073 -209.9155)" fill="#7AC2F7" width="49.426" height="0.277"/>
				</g>
				<g>
					<line fill="#7AC2F7" x1="348.646" y1="50.572" x2="358.611" y2="117.143"/>
					
						<rect x="319.973" y="83.688" transform="matrix(0.148 0.989 -0.989 0.148 384.2117 -278.2888)" fill="#7AC2F7" width="67.312" height="0.34"/>
				</g>
				<g>
					<line fill="#7AC2F7" x1="348.646" y1="50.572" x2="310.854" y2="71.615"/>
					
						<rect x="329.622" y="39.466" transform="matrix(0.4879 0.8729 -0.8729 0.4879 222.1916 -256.5514)" fill="#7AC2F7" width="0.256" height="43.256"/>
				</g>
				<g>
					<line fill="#7AC2F7" x1="348.646" y1="50.572" x2="408.768" y2="49.787"/>
					<rect x="348.644" y="50.022" fill="#7AC2F7" width="60.126" height="0.314"/>
				</g>
				<g>
					<line fill="#7AC2F7" x1="348.646" y1="50.572" x2="408.768" y2="49.787"/>
					<rect x="348.644" y="50.022" fill="#7AC2F7" width="60.126" height="0.314"/>
				</g>
				<g>
					<line fill="#7AC2F7" x1="348.646" y1="50.572" x2="294.504" y2="32.077"/>
					
						<rect x="292.968" y="41.173" transform="matrix(0.9463 0.3233 -0.3233 0.9463 30.6241 -101.7336)" fill="#7AC2F7" width="57.214" height="0.304"/>
				</g>
				<g>
					<line fill="#7AC2F7" x1="348.646" y1="50.572" x2="406.938" y2="51.495"/>
					
						<rect x="348.642" y="50.88" transform="matrix(0.9999 0.0158 -0.0158 0.9999 0.8552 -5.9738)" fill="#7AC2F7" width="58.3" height="0.308"/>
				</g>
				<g>
					<line fill="#7AC2F7" x1="348.646" y1="50.572" x2="294.881" y2="9.334"/>
					
						<rect x="287.884" y="29.783" transform="matrix(0.7935 0.6086 -0.6086 0.7935 84.6831 -189.6417)" fill="#7AC2F7" width="67.76" height="0.341"/>
				</g>
				<g>
					<line fill="#7AC2F7" x1="348.646" y1="50.572" x2="383.416" y2="30.242"/>
					
						<rect x="365.908" y="20.269" transform="matrix(0.5021 0.8648 -0.8648 0.5021 217.1776 -296.4214)" fill="#7AC2F7" width="0.245" height="40.277"/>
				</g>
				<g>
					<line fill="#7AC2F7" x1="348.646" y1="50.572" x2="320.588" y2="81.763"/>
					
						<rect x="334.491" y="45.191" transform="matrix(0.7448 0.6672 -0.6672 0.7448 129.5326 -206.3892)" fill="#7AC2F7" width="0.252" height="41.954"/>
				</g>
			</g>
			<g>
				<g>
					<line fill="#7AC2F7" x1="54.803" y1="95.341" x2="44.459" y2="102.887"/>
					
						<rect x="49.556" y="92.711" transform="matrix(0.5905 0.807 -0.807 0.5905 100.3112 0.5325)" fill="#7AC2F7" width="0.149" height="12.806"/>
				</g>
				<g>
					<line fill="#7AC2F7" x1="54.803" y1="95.341" x2="115.824" y2="111.893"/>
					
						<rect x="53.7" y="103.454" transform="matrix(0.9651 0.2618 -0.2618 0.9651 30.0995 -18.7201)" fill="#7AC2F7" width="63.228" height="0.325"/>
				</g>
				<g>
					<line fill="#7AC2F7" x1="54.803" y1="95.341" x2="115.824" y2="111.893"/>
					
						<rect x="53.7" y="103.454" transform="matrix(0.9651 0.2618 -0.2618 0.9651 30.0995 -18.7201)" fill="#7AC2F7" width="63.228" height="0.325"/>
				</g>
				<g>
					<line fill="#7AC2F7" x1="54.803" y1="95.341" x2="8.752" y2="103.017"/>
					
						<rect x="31.644" y="75.835" transform="matrix(0.168 0.9858 -0.9858 0.168 124.2103 51.1956)" fill="#7AC2F7" width="0.267" height="46.688"/>
				</g>
			</g>
			<g>
				<g>
					<line fill="#7AC2F7" x1="63.953" y1="138.173" x2="54.803" y2="95.341"/>
					
						<rect x="37.478" y="116.628" transform="matrix(0.2089 0.9779 -0.9779 0.2089 161.1554 34.3014)" fill="#7AC2F7" width="43.798" height="0.256"/>
				</g>
				<g>
					<line fill="#7AC2F7" x1="63.953" y1="138.173" x2="44.459" y2="102.887"/>
					
						<rect x="34.05" y="120.406" transform="matrix(0.4836 0.8753 -0.8753 0.4836 133.4923 14.7971)" fill="#7AC2F7" width="40.312" height="0.246"/>
				</g>
				<g>
					<line fill="#7AC2F7" x1="63.953" y1="138.173" x2="115.824" y2="111.893"/>
					
						<rect x="89.735" y="95.957" transform="matrix(0.451 0.8925 -0.8925 0.451 160.9399 -11.5868)" fill="#7AC2F7" width="0.307" height="58.15"/>
				</g>
				<g>
					<line fill="#7AC2F7" x1="63.953" y1="138.173" x2="115.824" y2="111.893"/>
					
						<rect x="89.735" y="95.957" transform="matrix(0.451 0.8925 -0.8925 0.451 160.9399 -11.5868)" fill="#7AC2F7" width="0.307" height="58.15"/>
				</g>
				<g>
					<line fill="#7AC2F7" x1="63.953" y1="138.173" x2="8.752" y2="103.017"/>
					
						<rect x="3.63" y="120.427" transform="matrix(0.8435 0.5372 -0.5372 0.8435 70.47 -0.6513)" fill="#7AC2F7" width="65.445" height="0.334"/>
				</g>
			</g>
			<g>
				<g>
					<line fill="#7AC2F7" x1="82.299" y1="72.579" x2="63.953" y2="138.173"/>
					
						<rect x="72.954" y="71.321" transform="matrix(0.9627 0.2706 -0.2706 0.9627 31.2405 -15.8554)" fill="#7AC2F7" width="0.343" height="68.11"/>
				</g>
				<g>
					<line fill="#7AC2F7" x1="82.299" y1="72.579" x2="54.803" y2="95.341"/>
					
						<rect x="68.436" y="66.114" transform="matrix(0.633 0.7741 -0.7741 0.633 90.1549 -22.2548)" fill="#7AC2F7" width="0.228" height="35.693"/>
				</g>
				<g>
					<line fill="#7AC2F7" x1="82.299" y1="72.579" x2="44.459" y2="102.887"/>
					
						<rect x="63.241" y="63.493" transform="matrix(0.6221 0.783 -0.783 0.6221 92.6436 -16.4656)" fill="#7AC2F7" width="0.273" height="48.481"/>
				</g>
				<g>
					<line fill="#7AC2F7" x1="82.299" y1="72.579" x2="115.824" y2="111.893"/>
					
						<rect x="73.228" y="92.093" transform="matrix(0.6489 0.7609 -0.7609 0.6489 104.9594 -42.9895)" fill="#7AC2F7" width="51.668" height="0.285"/>
				</g>
				<g>
					<line fill="#7AC2F7" x1="82.299" y1="72.579" x2="115.824" y2="111.893"/>
					
						<rect x="73.228" y="92.093" transform="matrix(0.6489 0.7609 -0.7609 0.6489 104.9594 -42.9895)" fill="#7AC2F7" width="51.668" height="0.285"/>
				</g>
				<g>
					<line fill="#7AC2F7" x1="82.299" y1="72.579" x2="120.398" y2="62.312"/>
					
						<rect x="101.227" y="47.716" transform="matrix(0.2652 0.9642 -0.9642 0.2652 139.507 -48.1588)" fill="#7AC2F7" width="0.243" height="39.461"/>
				</g>
				<g>
					<line fill="#7AC2F7" x1="82.299" y1="72.579" x2="132.479" y2="71.587"/>
					
						<rect x="107.249" y="46.987" transform="matrix(0.021 0.9998 -0.9998 0.021 177.2034 -36.7939)" fill="#7AC2F7" width="0.279" height="50.191"/>
				</g>
				<g>
					<line fill="#7AC2F7" x1="82.299" y1="72.579" x2="135.443" y2="92.266"/>
					
						<rect x="80.533" y="82.272" transform="matrix(0.9377 0.3474 -0.3474 0.9377 35.4089 -32.6848)" fill="#7AC2F7" width="56.675" height="0.302"/>
				</g>
				<g>
					<line fill="#7AC2F7" x1="82.299" y1="72.579" x2="135.443" y2="92.266"/>
					
						<rect x="80.533" y="82.272" transform="matrix(0.9377 0.3474 -0.3474 0.9377 35.4089 -32.6848)" fill="#7AC2F7" width="56.675" height="0.302"/>
				</g>
			</g>
			<g>
				<g>
					<line fill="#7AC2F7" x1="217.375" y1="20.284" x2="152.719" y2="22.14"/>
					
						<rect x="184.882" y="-11.13" transform="matrix(0.0295 0.9996 -0.9996 0.0295 200.7938 -164.3814)" fill="#7AC2F7" width="0.331" height="64.683"/>
				</g>
				<g>
					<line fill="#7AC2F7" x1="217.375" y1="20.284" x2="193.053" y2="53.783"/>
					
						<rect x="205.088" y="16.335" transform="matrix(0.8084 0.5886 -0.5886 0.8084 61.1189 -113.7004)" fill="#7AC2F7" width="0.249" height="41.398"/>
				</g>
				<g>
					<line fill="#7AC2F7" x1="217.375" y1="20.284" x2="217.287" y2="78.06"/>
					<rect x="217.179" y="20.284" fill="#7AC2F7" width="0.307" height="57.775"/>
				</g>
			</g>
			<g>
				<g>
					<line fill="#7AC2F7" x1="267.199" y1="17.78" x2="217.375" y2="20.284"/>
					
						<rect x="242.149" y="-5.913" transform="matrix(0.0561 0.9984 -0.9984 0.0561 247.7092 -223.9422)" fill="#7AC2F7" width="0.279" height="49.889"/>
				</g>
				<g>
					<line fill="#7AC2F7" x1="267.199" y1="17.78" x2="310.854" y2="71.615"/>
					
						<rect x="254.371" y="44.524" transform="matrix(0.6298 0.7767 -0.7767 0.6298 141.704 -207.9487)" fill="#7AC2F7" width="69.31" height="0.347"/>
				</g>
				<g>
					<line fill="#7AC2F7" x1="267.199" y1="17.78" x2="275.232" y2="65.343"/>
					
						<rect x="247.098" y="41.425" transform="matrix(0.1665 0.986 -0.986 0.1665 267.0289 -232.7884)" fill="#7AC2F7" width="48.236" height="0.273"/>
				</g>
				<g>
					<line fill="#7AC2F7" x1="267.199" y1="17.78" x2="294.504" y2="32.077"/>
					
						<rect x="265.441" y="24.823" transform="matrix(0.8859 0.4639 -0.4639 0.8859 43.6071 -127.433)" fill="#7AC2F7" width="30.821" height="0.211"/>
				</g>
				<g>
					<line fill="#7AC2F7" x1="267.199" y1="17.78" x2="294.881" y2="9.334"/>
					
						<rect x="280.938" y="-0.914" transform="matrix(0.286 0.9582 -0.9582 0.286 213.6428 -259.619)" fill="#7AC2F7" width="0.205" height="28.942"/>
				</g>
			</g>
			<g>
				<g>
					<line fill="#7AC2F7" x1="243.195" y1="49.929" x2="267.199" y2="17.78"/>
					
						<rect x="255.075" y="13.794" transform="matrix(0.8029 0.5962 -0.5962 0.8029 70.495 -145.4691)" fill="#7AC2F7" width="0.246" height="40.121"/>
				</g>
				<g>
					<line fill="#7AC2F7" x1="243.195" y1="49.929" x2="217.375" y2="20.284"/>
					
						<rect x="210.629" y="34.984" transform="matrix(0.6568 0.754 -0.754 0.6568 105.5007 -161.5987)" fill="#7AC2F7" width="39.314" height="0.243"/>
				</g>
				<g>
					<line fill="#7AC2F7" x1="243.195" y1="49.929" x2="275.232" y2="65.343"/>
					
						<rect x="241.439" y="57.521" transform="matrix(0.9011 0.4336 -0.4336 0.9011 50.622 -106.6909)" fill="#7AC2F7" width="35.551" height="0.229"/>
				</g>
				<g>
					<line fill="#7AC2F7" x1="243.195" y1="49.929" x2="294.504" y2="32.077"/>
					
						<rect x="268.702" y="13.841" transform="matrix(0.3252 0.9457 -0.9457 0.3252 220.2017 -226.569)" fill="#7AC2F7" width="0.294" height="54.323"/>
				</g>
				<g>
					<line fill="#7AC2F7" x1="243.195" y1="49.929" x2="267.842" y2="105.696"/>
					
						<rect x="225.034" y="77.653" transform="matrix(0.4042 0.9147 -0.9147 0.4042 223.4015 -187.3547)" fill="#7AC2F7" width="60.971" height="0.318"/>
				</g>
				<g>
					<line fill="#7AC2F7" x1="243.195" y1="49.929" x2="294.881" y2="9.334"/>
					
						<rect x="268.872" y="-3.23" transform="matrix(0.6154 0.7882 -0.7882 0.6154 126.8397 -200.6719)" fill="#7AC2F7" width="0.333" height="65.722"/>
				</g>
				<g>
					<line fill="#7AC2F7" x1="243.195" y1="49.929" x2="193.053" y2="53.783"/>
					
						<rect x="217.984" y="26.71" transform="matrix(0.0767 0.9971 -0.9971 0.0767 253.0979 -169.6028)" fill="#7AC2F7" width="0.28" height="50.292"/>
				</g>
				<g>
					<line fill="#7AC2F7" x1="243.195" y1="49.929" x2="217.287" y2="78.06"/>
					
						<rect x="230.123" y="44.871" transform="matrix(0.7372 0.6757 -0.6757 0.7372 103.7603 -138.7599)" fill="#7AC2F7" width="0.238" height="38.245"/>
				</g>
				<g>
					<line fill="#7AC2F7" x1="243.195" y1="49.929" x2="200.691" y2="96.972"/>
					
						<rect x="221.781" y="41.75" transform="matrix(0.7436 0.6686 -0.6686 0.7436 106.0192 -129.5655)" fill="#7AC2F7" width="0.326" height="63.401"/>
				</g>
			</g>
			<g>
				<g>
					<line fill="#7AC2F7" x1="315.826" y1="117.028" x2="358.611" y2="117.143"/>
					
						<rect x="315.827" y="116.958" transform="matrix(1 0.0027 -0.0027 1 0.3139 -0.9001)" fill="#7AC2F7" width="42.785" height="0.254"/>
				</g>
				<g>
					<line fill="#7AC2F7" x1="315.826" y1="117.028" x2="284.867" y2="145.394"/>
					
						<rect x="300.222" y="110.217" transform="matrix(0.6754 0.7375 -0.7375 0.6754 194.2659 -178.9047)" fill="#7AC2F7" width="0.252" height="41.989"/>
				</g>
				<g>
					<line fill="#7AC2F7" x1="315.826" y1="117.028" x2="377.459" y2="115.887"/>
					
						<rect x="346.483" y="85.636" transform="matrix(0.0183 0.9998 -0.9998 0.0183 456.7416 -232.258)" fill="#7AC2F7" width="0.32" height="61.643"/>
				</g>
				<g>
					<line fill="#7AC2F7" x1="315.826" y1="117.028" x2="310.854" y2="71.615"/>
					
						<rect x="290.498" y="94.191" transform="matrix(0.1088 0.9941 -0.9941 0.1088 372.9954 -227.4226)" fill="#7AC2F7" width="45.685" height="0.263"/>
				</g>
				<g>
					<line fill="#7AC2F7" x1="315.826" y1="117.028" x2="275.232" y2="65.343"/>
					
						<rect x="262.668" y="91.018" transform="matrix(0.6177 0.7864 -0.7864 0.6177 184.6981 -197.551)" fill="#7AC2F7" width="65.723" height="0.335"/>
				</g>
				<g>
					<line fill="#7AC2F7" x1="315.826" y1="117.028" x2="267.842" y2="105.696"/>
					
						<rect x="267.183" y="111.224" transform="matrix(0.9732 0.2299 -0.2299 0.9732 33.4115 -64.0986)" fill="#7AC2F7" width="49.305" height="0.276"/>
				</g>
				<g>
					<line fill="#7AC2F7" x1="315.826" y1="117.028" x2="320.588" y2="81.763"/>
					
						<rect x="318.093" y="81.603" transform="matrix(0.9906 0.1366 -0.1366 0.9906 16.5656 -42.5468)" fill="#7AC2F7" width="0.229" height="35.586"/>
				</g>
			</g>
			<g>
				<g>
					<line fill="#7AC2F7" x1="414.65" y1="100.41" x2="387.947" y2="80.546"/>
					
						<rect x="384.658" y="90.368" transform="matrix(0.8024 0.5968 -0.5968 0.8024 133.3134 -221.6287)" fill="#7AC2F7" width="33.281" height="0.22"/>
				</g>
				<g>
					<line fill="#7AC2F7" x1="414.65" y1="100.41" x2="358.611" y2="117.143"/>
					
						<rect x="386.476" y="79.534" transform="matrix(0.2905 0.9569 -0.9569 0.2905 378.386 -292.7803)" fill="#7AC2F7" width="0.309" height="58.484"/>
				</g>
				<g>
					<line fill="#7AC2F7" x1="414.65" y1="100.41" x2="377.459" y2="115.887"/>
					
						<rect x="395.932" y="88.007" transform="matrix(0.3824 0.924 -0.924 0.3824 344.5534 -299.1635)" fill="#7AC2F7" width="0.245" height="40.283"/>
				</g>
				<g>
					<line fill="#7AC2F7" x1="414.65" y1="100.41" x2="408.768" y2="49.787"/>
					
						<rect x="386.228" y="74.957" transform="matrix(0.1154 0.9933 -0.9933 0.1154 438.7805 -342.5271)" fill="#7AC2F7" width="50.963" height="0.283"/>
				</g>
				<g>
					<line fill="#7AC2F7" x1="414.65" y1="100.41" x2="408.768" y2="49.787"/>
					
						<rect x="386.228" y="74.957" transform="matrix(0.1154 0.9933 -0.9933 0.1154 438.7805 -342.5271)" fill="#7AC2F7" width="50.963" height="0.283"/>
				</g>
				<g>
					<line fill="#7AC2F7" x1="414.65" y1="100.41" x2="432.807" y2="71.875"/>
					
						<rect x="423.616" y="69.233" transform="matrix(0.842 0.5394 -0.5394 0.842 113.4029 -214.9623)" fill="#7AC2F7" width="0.223" height="33.82"/>
				</g>
				<g>
					<line fill="#7AC2F7" x1="414.65" y1="100.41" x2="406.938" y2="51.495"/>
					
						<rect x="386.035" y="75.814" transform="matrix(0.1558 0.9878 -0.9878 0.1558 421.8351 -341.6579)" fill="#7AC2F7" width="49.518" height="0.277"/>
				</g>
			</g>
			<g>
				<g>
					<line fill="#7AC2F7" x1="493.246" y1="69.738" x2="432.807" y2="71.875"/>
					
						<rect x="462.869" y="40.568" transform="matrix(0.0309 0.9995 -0.9995 0.0309 519.4713 -394.1886)" fill="#7AC2F7" width="0.316" height="60.479"/>
				</g>
			</g>
			<g>
				<g>
					<line fill="#7AC2F7" x1="337.027" y1="12.152" x2="348.646" y2="50.572"/>
					
						<rect x="322.768" y="31.24" transform="matrix(0.2895 0.9572 -0.9572 0.2895 273.6132 -305.8747)" fill="#7AC2F7" width="40.138" height="0.245"/>
				</g>
				<g>
					<line fill="#7AC2F7" x1="337.027" y1="12.152" x2="310.854" y2="71.615"/>
					
						<rect x="323.775" y="9.399" transform="matrix(0.9147 0.4042 -0.4042 0.9147 44.575 -127.3693)" fill="#7AC2F7" width="0.331" height="64.969"/>
				</g>
				<g>
					<line fill="#7AC2F7" x1="337.027" y1="12.152" x2="294.504" y2="32.077"/>
					
						<rect x="315.632" y="-1.365" transform="matrix(0.4223 0.9065 -0.9065 0.4223 202.4679 -273.4536)" fill="#7AC2F7" width="0.268" height="46.96"/>
				</g>
				<g>
					<line fill="#7AC2F7" x1="337.027" y1="12.152" x2="294.881" y2="9.334"/>
					
						<rect x="294.835" y="10.617" transform="matrix(0.9978 0.0667 -0.0667 0.9978 1.4209 -21.0571)" fill="#7AC2F7" width="42.241" height="0.253"/>
				</g>
				<g>
					<line fill="#7AC2F7" x1="337.027" y1="12.152" x2="383.416" y2="30.242"/>
					
						<rect x="335.326" y="21.058" transform="matrix(0.9317 0.3633 -0.3633 0.9317 32.3166 -129.4254)" fill="#7AC2F7" width="49.791" height="0.279"/>
				</g>
			</g>
			<g>
				<g>
					<line fill="#7AC2F7" x1="458.592" y1="47.283" x2="493.246" y2="69.738"/>
					
						<rect x="455.273" y="58.386" transform="matrix(0.8392 0.5438 -0.5438 0.8392 108.3362 -249.3943)" fill="#7AC2F7" width="41.293" height="0.249"/>
				</g>
				<g>
					<line fill="#7AC2F7" x1="458.592" y1="47.283" x2="414.65" y2="100.41"/>
					
						<rect x="436.449" y="39.375" transform="matrix(0.7705 0.6374 -0.6374 0.7705 147.2573 -261.3546)" fill="#7AC2F7" width="0.345" height="68.944"/>
				</g>
				<g>
					<line fill="#7AC2F7" x1="458.592" y1="47.283" x2="408.768" y2="49.787"/>
					
						<rect x="433.541" y="23.591" transform="matrix(0.0559 0.9984 -0.9984 0.0559 457.9166 -387.179)" fill="#7AC2F7" width="0.28" height="49.889"/>
				</g>
				<g>
					<line fill="#7AC2F7" x1="458.592" y1="47.283" x2="408.768" y2="49.787"/>
					
						<rect x="433.541" y="23.591" transform="matrix(0.0559 0.9984 -0.9984 0.0559 457.9166 -387.179)" fill="#7AC2F7" width="0.28" height="49.889"/>
				</g>
				<g>
					<line fill="#7AC2F7" x1="458.592" y1="47.283" x2="432.807" y2="71.875"/>
					
						<rect x="445.585" y="41.763" transform="matrix(0.692 0.7219 -0.7219 0.692 180.2867 -303.3993)" fill="#7AC2F7" width="0.229" height="35.633"/>
				</g>
				<g>
					<line fill="#7AC2F7" x1="458.592" y1="47.283" x2="406.938" y2="51.495"/>
					
						<rect x="432.622" y="23.477" transform="matrix(0.0822 0.9966 -0.9966 0.0822 446.416 -385.9702)" fill="#7AC2F7" width="0.285" height="51.826"/>
				</g>
			</g>
			<g>
				<g>
					<line fill="#7AC2F7" x1="94.412" y1="136.09" x2="82.299" y2="72.579"/>
					
						<rect x="56.027" y="104.168" transform="matrix(0.1874 0.9823 -0.9823 0.1874 174.2859 -2.0062)" fill="#7AC2F7" width="64.656" height="0.332"/>
				</g>
				<g>
					<line fill="#7AC2F7" x1="94.412" y1="136.09" x2="63.953" y2="138.173"/>
					
						<rect x="79.077" y="121.865" transform="matrix(0.065 0.9979 -0.9979 0.065 210.8785 49.205)" fill="#7AC2F7" width="0.21" height="30.532"/>
				</g>
				<g>
					<line fill="#7AC2F7" x1="94.412" y1="136.09" x2="54.803" y2="95.341"/>
					
						<rect x="46.195" y="115.564" transform="matrix(0.697 0.7171 -0.7171 0.697 105.5809 -18.4382)" fill="#7AC2F7" width="56.828" height="0.302"/>
				</g>
				<g>
					<line fill="#7AC2F7" x1="94.412" y1="136.09" x2="148.762" y2="144.644"/>
					
						<rect x="94.078" y="140.218" transform="matrix(0.9878 0.1555 -0.1555 0.9878 23.3011 -17.1963)" fill="#7AC2F7" width="55.019" height="0.297"/>
				</g>
				<g>
					<line fill="#7AC2F7" x1="94.412" y1="136.09" x2="44.459" y2="102.887"/>
					
						<rect x="39.444" y="119.331" transform="matrix(0.8328 0.5535 -0.5535 0.8328 77.75 -18.4596)" fill="#7AC2F7" width="59.983" height="0.314"/>
				</g>
				<g>
					<line fill="#7AC2F7" x1="94.412" y1="136.09" x2="115.824" y2="111.893"/>
					
						<rect x="105.011" y="107.836" transform="matrix(0.7464 0.6655 -0.6655 0.7464 109.1701 -38.5125)" fill="#7AC2F7" width="0.217" height="32.311"/>
				</g>
				<g>
					<line fill="#7AC2F7" x1="94.412" y1="136.09" x2="115.824" y2="111.893"/>
					
						<rect x="105.011" y="107.836" transform="matrix(0.7464 0.6655 -0.6655 0.7464 109.1701 -38.5125)" fill="#7AC2F7" width="0.217" height="32.311"/>
				</g>
				<g>
					<line fill="#7AC2F7" x1="94.412" y1="136.09" x2="138.746" y2="138.712"/>
					
						<rect x="94.373" y="137.27" transform="matrix(0.9983 0.059 -0.059 0.9983 8.3124 -6.6408)" fill="#7AC2F7" width="44.411" height="0.26"/>
				</g>
				<g>
					<line fill="#7AC2F7" x1="94.412" y1="136.09" x2="135.443" y2="92.266"/>
					
						<rect x="114.772" y="84.161" transform="matrix(0.7286 0.685 -0.685 0.7286 109.4046 -47.7316)" fill="#7AC2F7" width="0.314" height="60.034"/>
				</g>
				<g>
					<line fill="#7AC2F7" x1="94.412" y1="136.09" x2="135.443" y2="92.266"/>
					
						<rect x="114.772" y="84.161" transform="matrix(0.7286 0.685 -0.685 0.7286 109.4046 -47.7316)" fill="#7AC2F7" width="0.314" height="60.034"/>
				</g>
			</g>
		</g>
		<circle fill="#7AC2F7" cx="135.443" cy="92.266" r="0.977"/>
		<circle fill="#7AC2F7" cx="132.479" cy="71.587" r="0.977"/>
		<circle fill="#7AC2F7" cx="135.443" cy="92.266" r="0.977"/>
		<circle fill="#7AC2F7" cx="132.479" cy="71.587" r="0.977"/>
		<circle fill="#7AC2F7" cx="132.479" cy="71.587" r="0.977"/>
		<circle fill="#7AC2F7" cx="138.746" cy="138.712" r="0.977"/>
		<circle fill="#7AC2F7" cx="135.443" cy="92.266" r="0.977"/>
		<circle fill="#7AC2F7" cx="138.746" cy="138.712" r="0.977"/>
		<circle fill="#7AC2F7" cx="135.443" cy="92.266" r="0.977"/>
		<circle fill="#7AC2F7" cx="138.746" cy="138.712" r="0.977"/>
		<circle fill="#7AC2F7" cx="135.443" cy="92.266" r="0.977"/>
		<circle fill="#7AC2F7" cx="200.691" cy="96.972" r="0.977"/>
		<circle fill="#7AC2F7" cx="135.443" cy="92.266" r="0.977"/>
		<circle fill="#7AC2F7" cx="200.691" cy="96.972" r="0.977"/>
		<circle fill="#7AC2F7" cx="200.691" cy="96.972" r="0.977"/>
		<circle fill="#7AC2F7" cx="217.287" cy="78.06" r="0.977"/>
		<circle fill="#7AC2F7" cx="217.287" cy="78.06" r="0.977"/>
		<circle fill="#7AC2F7" cx="193.053" cy="53.783" r="0.977"/>
		<circle fill="#7AC2F7" cx="200.691" cy="96.972" r="0.977"/>
		<circle fill="#7AC2F7" cx="193.053" cy="53.783" r="0.977"/>
		<circle fill="#7AC2F7" cx="132.479" cy="71.587" r="0.977"/>
		<circle fill="#7AC2F7" cx="193.053" cy="53.783" r="0.977"/>
		<circle fill="#7AC2F7" cx="135.443" cy="92.266" r="0.977"/>
		<circle fill="#7AC2F7" cx="193.053" cy="53.783" r="0.977"/>
		<circle fill="#7AC2F7" cx="135.443" cy="92.266" r="0.977"/>
		<circle fill="#7AC2F7" cx="193.053" cy="53.783" r="0.977"/>
		<circle fill="#7AC2F7" cx="132.479" cy="71.587" r="0.977"/>
		<circle fill="#7AC2F7" cx="120.398" cy="62.312" r="0.977"/>
		<circle fill="#7AC2F7" cx="135.443" cy="92.266" r="0.977"/>
		<circle fill="#7AC2F7" cx="120.398" cy="62.312" r="0.977"/>
		<circle fill="#7AC2F7" cx="135.443" cy="92.266" r="0.977"/>
		<circle fill="#7AC2F7" cx="120.398" cy="62.312" r="0.977"/>
		<circle fill="#7AC2F7" cx="8.752" cy="103.017" r="0.977"/>
		<circle fill="#7AC2F7" cx="120.398" cy="62.312" r="0.977"/>
		<circle fill="#7AC2F7" cx="115.824" cy="111.893" r="0.977"/>
		<circle fill="#7AC2F7" cx="138.746" cy="138.712" r="0.977"/>
		<circle fill="#7AC2F7" cx="115.824" cy="111.893" r="0.977"/>
		<circle fill="#7AC2F7" cx="132.479" cy="71.587" r="0.977"/>
		<circle fill="#7AC2F7" cx="115.824" cy="111.893" r="0.977"/>
		<circle fill="#7AC2F7" cx="135.443" cy="92.266" r="0.977"/>
		<circle fill="#7AC2F7" cx="115.824" cy="111.893" r="0.977"/>
		<circle fill="#7AC2F7" cx="135.443" cy="92.266" r="0.977"/>
		<circle fill="#7AC2F7" cx="115.824" cy="111.893" r="0.977"/>
		<circle fill="#7AC2F7" cx="120.398" cy="62.312" r="0.977"/>
		<circle fill="#7AC2F7" cx="115.824" cy="111.893" r="0.977"/>
		<circle fill="#7AC2F7" cx="138.746" cy="138.712" r="0.977"/>
		<circle fill="#7AC2F7" cx="115.824" cy="111.893" r="0.977"/>
		<circle fill="#7AC2F7" cx="132.479" cy="71.587" r="0.977"/>
		<circle fill="#7AC2F7" cx="115.824" cy="111.893" r="0.977"/>
		<circle fill="#7AC2F7" cx="135.443" cy="92.266" r="0.977"/>
		<circle fill="#7AC2F7" cx="115.824" cy="111.893" r="0.977"/>
		<circle fill="#7AC2F7" cx="135.443" cy="92.266" r="0.977"/>
		<circle fill="#7AC2F7" cx="115.824" cy="111.893" r="0.977"/>
		<circle fill="#7AC2F7" cx="8.752" cy="103.017" r="0.977"/>
		<circle fill="#7AC2F7" cx="44.459" cy="102.887" r="0.977"/>
		<circle fill="#7AC2F7" cx="193.053" cy="53.783" r="0.977"/>
		<circle fill="#7AC2F7" cx="200.633" cy="118.364" r="0.977"/>
		<circle fill="#7AC2F7" cx="217.287" cy="78.06" r="0.977"/>
		<circle fill="#7AC2F7" cx="200.633" cy="118.364" r="0.977"/>
		<circle fill="#7AC2F7" cx="200.691" cy="96.972" r="0.977"/>
		<circle fill="#7AC2F7" cx="200.633" cy="118.364" r="0.977"/>
		<circle fill="#7AC2F7" cx="138.746" cy="138.712" r="0.977"/>
		<circle fill="#7AC2F7" cx="200.633" cy="118.364" r="0.977"/>
		<circle fill="#7AC2F7" cx="120.398" cy="62.312" r="0.977"/>
		<circle fill="#7AC2F7" cx="152.719" cy="22.14" r="0.977"/>
		<circle fill="#7AC2F7" cx="193.053" cy="53.783" r="0.977"/>
		<circle fill="#7AC2F7" cx="152.719" cy="22.14" r="0.977"/>
		<circle fill="#7AC2F7" cx="132.479" cy="71.587" r="0.977"/>
		<circle fill="#7AC2F7" cx="152.719" cy="22.14" r="0.977"/>
		<circle fill="#7AC2F7" cx="383.416" cy="30.242" r="0.977"/>
		<circle fill="#7AC2F7" cx="406.938" cy="51.495" r="0.977"/>
		<circle fill="#7AC2F7" cx="320.588" cy="81.763" r="0.977"/>
		<circle fill="#7AC2F7" cx="267.842" cy="105.696" r="0.977"/>
		<circle fill="#7AC2F7" cx="200.633" cy="118.364" r="0.977"/>
		<circle fill="#7AC2F7" cx="267.842" cy="105.696" r="0.977"/>
		<circle fill="#7AC2F7" cx="217.287" cy="78.06" r="0.977"/>
		<circle fill="#7AC2F7" cx="267.842" cy="105.696" r="0.977"/>
		<circle fill="#7AC2F7" cx="200.691" cy="96.972" r="0.977"/>
		<circle fill="#7AC2F7" cx="267.842" cy="105.696" r="0.977"/>
		<circle fill="#7AC2F7" cx="294.881" cy="9.334" r="0.977"/>
		<circle fill="#7AC2F7" cx="294.504" cy="32.077" r="0.977"/>
		<circle fill="#7AC2F7" cx="320.588" cy="81.763" r="0.977"/>
		<circle fill="#7AC2F7" cx="294.504" cy="32.077" r="0.977"/>
		<circle fill="#7AC2F7" cx="406.938" cy="51.495" r="0.977"/>
		<circle fill="#7AC2F7" cx="432.807" cy="71.875" r="0.977"/>
		<circle fill="#7AC2F7" cx="383.416" cy="30.242" r="0.977"/>
		<circle fill="#7AC2F7" cx="432.807" cy="71.875" r="0.977"/>
		<circle fill="#7AC2F7" cx="294.504" cy="32.077" r="0.977"/>
		<circle fill="#7AC2F7" cx="275.232" cy="65.343" r="0.977"/>
		<circle fill="#7AC2F7" cx="267.842" cy="105.696" r="0.977"/>
		<circle fill="#7AC2F7" cx="275.232" cy="65.343" r="0.977"/>
		<circle fill="#7AC2F7" cx="294.881" cy="9.334" r="0.977"/>
		<circle fill="#7AC2F7" cx="275.232" cy="65.343" r="0.977"/>
		<circle fill="#7AC2F7" cx="320.588" cy="81.763" r="0.977"/>
		<circle fill="#7AC2F7" cx="275.232" cy="65.343" r="0.977"/>
		<circle fill="#7AC2F7" cx="217.287" cy="78.06" r="0.977"/>
		<circle fill="#7AC2F7" cx="275.232" cy="65.343" r="0.977"/>
		<circle fill="#7AC2F7" cx="432.807" cy="71.875" r="0.977"/>
		<circle fill="#7AC2F7" cx="408.768" cy="49.787" r="0.977"/>
		<circle fill="#7AC2F7" cx="406.938" cy="51.495" r="0.977"/>
		<circle fill="#7AC2F7" cx="408.768" cy="49.787" r="0.977"/>
		<circle fill="#7AC2F7" cx="383.416" cy="30.242" r="0.977"/>
		<circle fill="#7AC2F7" cx="408.768" cy="49.787" r="0.977"/>
		<circle fill="#7AC2F7" cx="432.807" cy="71.875" r="0.977"/>
		<circle fill="#7AC2F7" cx="408.768" cy="49.787" r="0.977"/>
		<circle fill="#7AC2F7" cx="406.938" cy="51.495" r="0.977"/>
		<circle fill="#7AC2F7" cx="408.768" cy="49.787" r="0.977"/>
		<circle fill="#7AC2F7" cx="383.416" cy="30.242" r="0.977"/>
		<circle fill="#7AC2F7" cx="408.768" cy="49.787" r="0.977"/>
		<circle fill="#7AC2F7" cx="275.232" cy="65.343" r="0.977"/>
		<circle fill="#7AC2F7" cx="310.854" cy="71.615" r="0.977"/>
		<circle fill="#7AC2F7" cx="294.504" cy="32.077" r="0.977"/>
		<circle fill="#7AC2F7" cx="310.854" cy="71.615" r="0.977"/>
		<circle fill="#7AC2F7" cx="267.842" cy="105.696" r="0.977"/>
		<circle fill="#7AC2F7" cx="310.854" cy="71.615" r="0.977"/>
		<circle fill="#7AC2F7" cx="294.881" cy="9.334" r="0.977"/>
		<circle fill="#7AC2F7" cx="310.854" cy="71.615" r="0.977"/>
		<circle fill="#7AC2F7" cx="320.588" cy="81.763" r="0.977"/>
		<circle fill="#7AC2F7" cx="310.854" cy="71.615" r="0.977"/>
		<circle fill="#7AC2F7" cx="320.588" cy="81.763" r="0.977"/>
		<circle fill="#7AC2F7" cx="377.459" cy="115.887" r="0.977"/>
		<circle fill="#7AC2F7" cx="267.842" cy="105.696" r="0.977"/>
		<circle fill="#7AC2F7" cx="247.256" cy="141.505" r="0.977"/>
		<circle fill="#7AC2F7" cx="200.633" cy="118.364" r="0.977"/>
		<circle fill="#7AC2F7" cx="247.256" cy="141.505" r="0.977"/>
		<circle fill="#7AC2F7" cx="200.691" cy="96.972" r="0.977"/>
		<circle fill="#7AC2F7" cx="247.256" cy="141.505" r="0.977"/>
		<circle fill="#7AC2F7" cx="200.633" cy="118.364" r="0.977"/>
		<circle fill="#7AC2F7" cx="148.762" cy="144.644" r="0.977"/>
		<circle fill="#7AC2F7" cx="115.824" cy="111.893" r="0.977"/>
		<circle fill="#7AC2F7" cx="148.762" cy="144.644" r="0.977"/>
		<circle fill="#7AC2F7" cx="115.824" cy="111.893" r="0.977"/>
		<circle fill="#7AC2F7" cx="148.762" cy="144.644" r="0.977"/>
		<circle fill="#7AC2F7" cx="138.746" cy="138.712" r="0.977"/>
		<circle fill="#7AC2F7" cx="148.762" cy="144.644" r="0.977"/>
		<circle fill="#7AC2F7" cx="135.443" cy="92.266" r="0.977"/>
		<circle fill="#7AC2F7" cx="148.762" cy="144.644" r="0.977"/>
		<circle fill="#7AC2F7" cx="135.443" cy="92.266" r="0.977"/>
		<circle fill="#7AC2F7" cx="148.762" cy="144.644" r="0.977"/>
		<circle fill="#7AC2F7" cx="247.256" cy="141.505" r="0.977"/>
		<circle fill="#7AC2F7" cx="284.867" cy="145.394" r="0.977"/>
		<circle fill="#7AC2F7" cx="267.842" cy="105.696" r="0.977"/>
		<circle fill="#7AC2F7" cx="284.867" cy="145.394" r="0.977"/>
		<circle fill="#7AC2F7" cx="377.459" cy="115.887" r="0.977"/>
		<circle fill="#7AC2F7" cx="358.611" cy="117.143" r="0.977"/>
		<circle fill="#7AC2F7" cx="310.854" cy="71.615" r="0.977"/>
		<circle fill="#7AC2F7" cx="358.611" cy="117.143" r="0.977"/>
		<circle fill="#7AC2F7" cx="320.588" cy="81.763" r="0.977"/>
		<circle fill="#7AC2F7" cx="358.611" cy="117.143" r="0.977"/>
		<circle fill="#7AC2F7" cx="358.611" cy="117.143" r="0.977"/>
		<circle fill="#7AC2F7" cx="387.947" cy="80.546" r="0.977"/>
		<circle fill="#7AC2F7" cx="377.459" cy="115.887" r="0.977"/>
		<circle fill="#7AC2F7" cx="387.947" cy="80.546" r="0.977"/>
		<circle fill="#7AC2F7" cx="408.768" cy="49.787" r="0.977"/>
		<circle fill="#7AC2F7" cx="387.947" cy="80.546" r="0.977"/>
		<circle fill="#7AC2F7" cx="408.768" cy="49.787" r="0.977"/>
		<circle fill="#7AC2F7" cx="387.947" cy="80.546" r="0.977"/>
		<circle fill="#7AC2F7" cx="432.807" cy="71.875" r="0.977"/>
		<circle fill="#7AC2F7" cx="387.947" cy="80.546" r="0.977"/>
		<circle fill="#7AC2F7" cx="406.938" cy="51.495" r="0.977"/>
		<circle fill="#7AC2F7" cx="387.947" cy="80.546" r="0.977"/>
		<circle fill="#7AC2F7" cx="383.416" cy="30.242" r="0.977"/>
		<circle fill="#7AC2F7" cx="387.947" cy="80.546" r="0.977"/>
		<circle fill="#7AC2F7" cx="320.588" cy="81.763" r="0.977"/>
		<circle fill="#7AC2F7" cx="387.947" cy="80.546" r="0.977"/>
		<circle fill="#7AC2F7" cx="387.947" cy="80.546" r="0.977"/>
		<circle fill="#7AC2F7" cx="348.646" cy="50.572" r="0.977"/>
		<circle fill="#7AC2F7" cx="358.611" cy="117.143" r="0.977"/>
		<circle fill="#7AC2F7" cx="348.646" cy="50.572" r="0.977"/>
		<circle fill="#7AC2F7" cx="310.854" cy="71.615" r="0.977"/>
		<circle fill="#7AC2F7" cx="348.646" cy="50.572" r="0.977"/>
		<circle fill="#7AC2F7" cx="408.768" cy="49.787" r="0.977"/>
		<circle fill="#7AC2F7" cx="348.646" cy="50.572" r="0.977"/>
		<circle fill="#7AC2F7" cx="408.768" cy="49.787" r="0.977"/>
		<circle fill="#7AC2F7" cx="348.646" cy="50.572" r="0.977"/>
		<circle fill="#7AC2F7" cx="294.504" cy="32.077" r="0.977"/>
		<circle fill="#7AC2F7" cx="348.646" cy="50.572" r="0.977"/>
		<circle fill="#7AC2F7" cx="406.938" cy="51.495" r="0.977"/>
		<circle fill="#7AC2F7" cx="348.646" cy="50.572" r="0.977"/>
		<circle fill="#7AC2F7" cx="294.881" cy="9.334" r="0.977"/>
		<circle fill="#7AC2F7" cx="348.646" cy="50.572" r="0.977"/>
		<circle fill="#7AC2F7" cx="383.416" cy="30.242" r="0.977"/>
		<circle fill="#7AC2F7" cx="348.646" cy="50.572" r="0.977"/>
		<circle fill="#7AC2F7" cx="320.588" cy="81.763" r="0.977"/>
		<circle fill="#7AC2F7" cx="348.646" cy="50.572" r="0.977"/>
		<circle fill="#7AC2F7" cx="44.459" cy="102.887" r="0.977"/>
		<circle fill="#7AC2F7" cx="54.803" cy="95.341" r="0.977"/>
		<circle fill="#7AC2F7" cx="115.824" cy="111.893" r="0.977"/>
		<circle fill="#7AC2F7" cx="54.803" cy="95.341" r="0.977"/>
		<circle fill="#7AC2F7" cx="115.824" cy="111.893" r="0.977"/>
		<circle fill="#7AC2F7" cx="54.803" cy="95.341" r="0.977"/>
		<circle fill="#7AC2F7" cx="8.752" cy="103.017" r="0.977"/>
		<circle fill="#7AC2F7" cx="54.803" cy="95.341" r="0.977"/>
		<circle fill="#7AC2F7" cx="54.803" cy="95.341" r="0.977"/>
		<circle fill="#7AC2F7" cx="63.953" cy="138.173" r="0.977"/>
		<circle fill="#7AC2F7" cx="44.459" cy="102.887" r="0.977"/>
		<circle fill="#7AC2F7" cx="63.953" cy="138.173" r="0.977"/>
		<circle fill="#7AC2F7" cx="115.824" cy="111.893" r="0.977"/>
		<circle fill="#7AC2F7" cx="63.953" cy="138.173" r="0.977"/>
		<circle fill="#7AC2F7" cx="115.824" cy="111.893" r="0.977"/>
		<circle fill="#7AC2F7" cx="63.953" cy="138.173" r="0.977"/>
		<circle fill="#7AC2F7" cx="8.752" cy="103.017" r="0.977"/>
		<circle fill="#7AC2F7" cx="63.953" cy="138.173" r="0.977"/>
		<circle fill="#7AC2F7" cx="63.953" cy="138.173" r="0.977"/>
		<circle fill="#7AC2F7" cx="82.299" cy="72.579" r="0.977"/>
		<circle fill="#7AC2F7" cx="54.803" cy="95.341" r="0.977"/>
		<circle fill="#7AC2F7" cx="82.299" cy="72.579" r="0.977"/>
		<circle fill="#7AC2F7" cx="44.459" cy="102.887" r="0.977"/>
		<circle fill="#7AC2F7" cx="82.299" cy="72.579" r="0.977"/>
		<circle fill="#7AC2F7" cx="115.824" cy="111.893" r="0.977"/>
		<circle fill="#7AC2F7" cx="82.299" cy="72.579" r="0.977"/>
		<circle fill="#7AC2F7" cx="115.824" cy="111.893" r="0.977"/>
		<circle fill="#7AC2F7" cx="82.299" cy="72.579" r="0.977"/>
		<circle fill="#7AC2F7" cx="120.398" cy="62.312" r="0.977"/>
		<circle fill="#7AC2F7" cx="82.299" cy="72.579" r="0.977"/>
		<circle fill="#7AC2F7" cx="132.479" cy="71.587" r="0.977"/>
		<circle fill="#7AC2F7" cx="82.299" cy="72.579" r="0.977"/>
		<circle fill="#7AC2F7" cx="135.443" cy="92.266" r="0.977"/>
		<circle fill="#7AC2F7" cx="82.299" cy="72.579" r="0.977"/>
		<circle fill="#7AC2F7" cx="135.443" cy="92.266" r="0.977"/>
		<circle fill="#7AC2F7" cx="82.299" cy="72.579" r="0.977"/>
		<circle fill="#7AC2F7" cx="152.719" cy="22.14" r="0.977"/>
		<circle fill="#7AC2F7" cx="217.375" cy="20.284" r="0.977"/>
		<circle fill="#7AC2F7" cx="193.053" cy="53.783" r="0.977"/>
		<circle fill="#7AC2F7" cx="217.375" cy="20.284" r="0.977"/>
		<circle fill="#7AC2F7" cx="217.287" cy="78.06" r="0.977"/>
		<circle fill="#7AC2F7" cx="217.375" cy="20.284" r="0.977"/>
		<circle fill="#7AC2F7" cx="217.375" cy="20.284" r="0.977"/>
		<circle fill="#7AC2F7" cx="267.199" cy="17.78" r="0.977"/>
		<circle fill="#7AC2F7" cx="310.854" cy="71.615" r="0.977"/>
		<circle fill="#7AC2F7" cx="267.199" cy="17.78" r="0.977"/>
		<circle fill="#7AC2F7" cx="275.232" cy="65.343" r="0.977"/>
		<circle fill="#7AC2F7" cx="267.199" cy="17.78" r="0.977"/>
		<circle fill="#7AC2F7" cx="294.504" cy="32.077" r="0.977"/>
		<circle fill="#7AC2F7" cx="267.199" cy="17.78" r="0.977"/>
		<circle fill="#7AC2F7" cx="294.881" cy="9.334" r="0.977"/>
		<circle fill="#7AC2F7" cx="267.199" cy="17.78" r="0.977"/>
		<circle fill="#7AC2F7" cx="267.199" cy="17.78" r="0.977"/>
		<circle fill="#7AC2F7" cx="243.195" cy="49.929" r="0.977"/>
		<circle fill="#7AC2F7" cx="217.375" cy="20.284" r="0.977"/>
		<circle fill="#7AC2F7" cx="243.195" cy="49.929" r="0.977"/>
		<circle fill="#7AC2F7" cx="275.232" cy="65.343" r="0.977"/>
		<circle fill="#7AC2F7" cx="243.195" cy="49.929" r="0.977"/>
		<circle fill="#7AC2F7" cx="294.504" cy="32.077" r="0.977"/>
		<circle fill="#7AC2F7" cx="243.195" cy="49.929" r="0.977"/>
		<circle fill="#7AC2F7" cx="267.842" cy="105.696" r="0.977"/>
		<circle fill="#7AC2F7" cx="243.195" cy="49.929" r="0.977"/>
		<circle fill="#7AC2F7" cx="294.881" cy="9.334" r="0.977"/>
		<circle fill="#7AC2F7" cx="243.195" cy="49.929" r="0.977"/>
		<circle fill="#7AC2F7" cx="193.053" cy="53.783" r="0.977"/>
		<circle fill="#7AC2F7" cx="243.195" cy="49.929" r="0.977"/>
		<circle fill="#7AC2F7" cx="217.287" cy="78.06" r="0.977"/>
		<circle fill="#7AC2F7" cx="243.195" cy="49.929" r="0.977"/>
		<circle fill="#7AC2F7" cx="200.691" cy="96.972" r="0.977"/>
		<circle fill="#7AC2F7" cx="243.195" cy="49.929" r="0.977"/>
		<circle fill="#7AC2F7" cx="358.611" cy="117.143" r="0.977"/>
		<circle fill="#7AC2F7" cx="315.826" cy="117.028" r="0.977"/>
		<circle fill="#7AC2F7" cx="284.867" cy="145.394" r="0.977"/>
		<circle fill="#7AC2F7" cx="315.826" cy="117.028" r="0.977"/>
		<circle fill="#7AC2F7" cx="377.459" cy="115.887" r="0.977"/>
		<circle fill="#7AC2F7" cx="315.826" cy="117.028" r="0.977"/>
		<circle fill="#7AC2F7" cx="310.854" cy="71.615" r="0.977"/>
		<circle fill="#7AC2F7" cx="315.826" cy="117.028" r="0.977"/>
		<circle fill="#7AC2F7" cx="275.232" cy="65.343" r="0.977"/>
		<circle fill="#7AC2F7" cx="315.826" cy="117.028" r="0.977"/>
		<circle fill="#7AC2F7" cx="267.842" cy="105.696" r="0.977"/>
		<circle fill="#7AC2F7" cx="315.826" cy="117.028" r="0.977"/>
		<circle fill="#7AC2F7" cx="320.588" cy="81.763" r="0.977"/>
		<circle fill="#7AC2F7" cx="315.826" cy="117.028" r="0.977"/>
		<circle fill="#7AC2F7" cx="387.947" cy="80.546" r="0.977"/>
		<circle fill="#7AC2F7" cx="414.65" cy="100.41" r="0.977"/>
		<circle fill="#7AC2F7" cx="358.611" cy="117.143" r="0.977"/>
		<circle fill="#7AC2F7" cx="414.65" cy="100.41" r="0.977"/>
		<circle fill="#7AC2F7" cx="377.459" cy="115.887" r="0.977"/>
		<circle fill="#7AC2F7" cx="414.65" cy="100.41" r="0.977"/>
		<circle fill="#7AC2F7" cx="408.768" cy="49.787" r="0.977"/>
		<circle fill="#7AC2F7" cx="414.65" cy="100.41" r="0.977"/>
		<circle fill="#7AC2F7" cx="408.768" cy="49.787" r="0.977"/>
		<circle fill="#7AC2F7" cx="414.65" cy="100.41" r="0.977"/>
		<circle fill="#7AC2F7" cx="432.807" cy="71.875" r="0.977"/>
		<circle fill="#7AC2F7" cx="414.65" cy="100.41" r="0.977"/>
		<circle fill="#7AC2F7" cx="406.938" cy="51.495" r="0.977"/>
		<circle fill="#7AC2F7" cx="414.65" cy="100.41" r="0.977"/>
		<circle fill="#7AC2F7" cx="432.807" cy="71.875" r="0.977"/>
		<circle fill="#7AC2F7" cx="493.246" cy="69.738" r="0.977"/>
		<circle fill="#7AC2F7" cx="348.646" cy="50.572" r="0.977"/>
		<circle fill="#7AC2F7" cx="337.027" cy="12.152" r="0.977"/>
		<circle fill="#7AC2F7" cx="310.854" cy="71.615" r="0.977"/>
		<circle fill="#7AC2F7" cx="337.027" cy="12.152" r="0.977"/>
		<circle fill="#7AC2F7" cx="294.504" cy="32.077" r="0.977"/>
		<circle fill="#7AC2F7" cx="337.027" cy="12.152" r="0.977"/>
		<circle fill="#7AC2F7" cx="294.881" cy="9.334" r="0.977"/>
		<circle fill="#7AC2F7" cx="337.027" cy="12.152" r="0.977"/>
		<circle fill="#7AC2F7" cx="383.416" cy="30.242" r="0.977"/>
		<circle fill="#7AC2F7" cx="337.027" cy="12.152" r="0.977"/>
		<circle fill="#7AC2F7" cx="493.246" cy="69.738" r="0.977"/>
		<circle fill="#7AC2F7" cx="458.592" cy="47.283" r="0.977"/>
		<circle fill="#7AC2F7" cx="414.65" cy="100.41" r="0.977"/>
		<circle fill="#7AC2F7" cx="458.592" cy="47.283" r="0.977"/>
		<circle fill="#7AC2F7" cx="408.768" cy="49.787" r="0.977"/>
		<circle fill="#7AC2F7" cx="458.592" cy="47.283" r="0.977"/>
		<circle fill="#7AC2F7" cx="408.768" cy="49.787" r="0.977"/>
		<circle fill="#7AC2F7" cx="458.592" cy="47.283" r="0.977"/>
		<circle fill="#7AC2F7" cx="432.807" cy="71.875" r="0.977"/>
		<circle fill="#7AC2F7" cx="458.592" cy="47.283" r="0.977"/>
		<circle fill="#7AC2F7" cx="406.938" cy="51.495" r="0.977"/>
		<circle fill="#7AC2F7" cx="458.592" cy="47.283" r="0.977"/>
		<circle fill="#7AC2F7" cx="82.299" cy="72.579" r="0.977"/>
		<circle fill="#7AC2F7" cx="94.412" cy="136.09" r="0.977"/>
		<circle fill="#7AC2F7" cx="63.953" cy="138.173" r="0.977"/>
		<circle fill="#7AC2F7" cx="94.412" cy="136.09" r="0.977"/>
		<circle fill="#7AC2F7" cx="54.803" cy="95.341" r="0.977"/>
		<circle fill="#7AC2F7" cx="94.412" cy="136.09" r="0.977"/>
		<circle fill="#7AC2F7" cx="148.762" cy="144.644" r="0.977"/>
		<circle fill="#7AC2F7" cx="94.412" cy="136.09" r="0.977"/>
		<circle fill="#7AC2F7" cx="44.459" cy="102.887" r="0.977"/>
		<circle fill="#7AC2F7" cx="94.412" cy="136.09" r="0.977"/>
		<circle fill="#7AC2F7" cx="115.824" cy="111.893" r="0.977"/>
		<circle fill="#7AC2F7" cx="94.412" cy="136.09" r="0.977"/>
		<circle fill="#7AC2F7" cx="115.824" cy="111.893" r="0.977"/>
		<circle fill="#7AC2F7" cx="94.412" cy="136.09" r="0.977"/>
		<circle fill="#7AC2F7" cx="138.746" cy="138.712" r="0.977"/>
		<circle fill="#7AC2F7" cx="94.412" cy="136.09" r="0.977"/>
		<circle fill="#7AC2F7" cx="135.443" cy="92.266" r="0.977"/>
		<circle fill="#7AC2F7" cx="94.412" cy="136.09" r="0.977"/>
		<circle fill="#7AC2F7" cx="135.443" cy="92.266" r="0.977"/>
		<circle fill="#7AC2F7" cx="94.412" cy="136.09" r="0.977"/>
	</g>
</g>
</svg>
