<?xml version="1.0" encoding="utf-8"?>
<!-- Generator: Adobe Illustrator 16.0.3, SVG Export Plug-In . SVG Version: 6.00 Build 0)  -->
<!DOCTYPE svg PUBLIC "-//W3C//DTD SVG 1.1//EN" "http://www.w3.org/Graphics/SVG/1.1/DTD/svg11.dtd">
<svg version="1.1" id="圖層_1" xmlns="http://www.w3.org/2000/svg" xmlns:xlink="http://www.w3.org/1999/xlink" x="0px" y="0px"
	 width="24px" height="24px" viewBox="0 0 24 24" enable-background="new 0 0 24 24" xml:space="preserve">
<circle fill="#6EA5C4" cx="10.488" cy="10.113" r="9.113"/>
<circle fill="#6EA5C4" cx="17.025" cy="15.55" r="3.885"/>
<circle fill="#6EA5C4" cx="22.104" cy="18.685" r="0.896"/>
<g>
	<path fill="#FFFFFF" d="M7.637,7.001c-0.03,0-0.045,0.013-0.045,0.04v2.123c0.296-0.113,0.569-0.218,0.816-0.315
		C8.209,8.563,8.041,8.253,7.901,7.919l0.338-0.112c0.034-0.012,0.034-0.017,0-0.017h-0.4c-0.03,0-0.045-0.013-0.045-0.04V7.147
		c0-0.022,0.015-0.034,0.045-0.034h1.819c0.03,0,0.06,0,0.09,0l0.04-0.022c0.034,0,0.06,0.007,0.079,0.022l0.253,0.231
		C9.951,7.863,9.732,8.351,9.461,8.809c0.319,0.086,0.633,0.167,0.94,0.242c-0.146,0.274-0.295,0.546-0.445,0.817
		C9.611,9.695,9.273,9.503,8.943,9.293C8.609,9.552,8.286,9.725,7.975,9.812c-0.12-0.184-0.248-0.387-0.383-0.608v0.704
		c0,0.026-0.017,0.039-0.051,0.039H6.978c-0.03,0-0.045-0.013-0.045-0.039V9.31c0-0.022-0.013-0.034-0.039-0.034L5.249,9.552
		c-0.03,0-0.049-0.011-0.057-0.034l-0.09-0.637C5.091,8.859,5.101,8.848,5.131,8.848l0.445-0.056c0.03,0,0.045-0.013,0.045-0.04
		V7.041c0-0.026-0.015-0.04-0.045-0.04h-0.49c-0.03,0-0.045-0.013-0.045-0.04V6.443c0-0.026,0.015-0.039,0.045-0.039h5.333
		c0.026,0,0.04,0.013,0.04,0.039v0.518c0,0.026-0.014,0.04-0.04,0.04H7.637z M5.936,6.258c-0.03,0-0.045-0.013-0.045-0.04V4.416
		c0-0.022,0.015-0.034,0.045-0.034h3.587c0.03,0,0.045,0.011,0.045,0.034v1.802c0,0.026-0.015,0.04-0.045,0.04H5.936z M6.308,8.663
		c0,0.022,0.015,0.034,0.045,0.034l0.49-0.051c0.034,0,0.051-0.013,0.051-0.04V8.51c0-0.022-0.017-0.034-0.051-0.034h-0.49
		c-0.03,0-0.045,0.011-0.045,0.034V8.663z M6.319,7.192c0,0.026,0.015,0.04,0.045,0.04h0.507c0.03,0,0.045-0.013,0.045-0.04V7.041
		c0-0.026-0.015-0.04-0.045-0.04H6.364c-0.03,0-0.045,0.013-0.045,0.04V7.192z M6.319,7.919c0,0.022,0.015,0.034,0.045,0.034h0.496
		c0.03,0,0.045-0.011,0.045-0.034V7.79c0-0.026-0.015-0.04-0.045-0.04H6.364c-0.03,0-0.045,0.013-0.045,0.04V7.919z M8.814,5.125
		c0.026,0,0.039-0.013,0.039-0.039V4.883c0-0.026-0.013-0.039-0.039-0.039H6.651c-0.03,0-0.045,0.013-0.045,0.039v0.203
		c0,0.026,0.015,0.039,0.045,0.039H8.814z M8.814,5.773c0.026,0,0.039-0.011,0.039-0.034V5.554c0-0.026-0.013-0.04-0.039-0.04H6.651
		c-0.03,0-0.045,0.013-0.045,0.04V5.74c0,0.022,0.015,0.034,0.045,0.034H8.814z M8.6,7.79c0.049,0.184,0.145,0.375,0.288,0.574
		C9.022,8.229,9.122,8.037,9.186,7.79H8.6z"/>
	<path fill="#FFFFFF" d="M13.116,5.525c-0.03,0-0.039,0.013-0.028,0.04v0.017c0.012,0.026,0.03,0.045,0.057,0.056l0.181,0.073
		c0.025,0.011,0.029,0.03,0.011,0.056l-0.175,0.383c-0.011,0.022-0.002,0.034,0.028,0.034h0.456c0.03,0,0.045,0.013,0.045,0.04
		v0.665c0,0.022-0.015,0.034-0.045,0.034h-0.935c-0.029,0-0.045,0.013-0.045,0.039v0.253c0,0.026,0.016,0.04,0.045,0.04h0.833
		c0.026,0,0.04,0.011,0.04,0.034v0.631c0,0.022-0.014,0.034-0.04,0.034h-0.76c0.026,0.064,0.279,0.21,0.76,0.439l-0.365,0.659
		c-0.022,0.026-0.047,0.032-0.073,0.017l-0.395-0.327c-0.029-0.011-0.045-0.005-0.045,0.017v1.177c0,0.022-0.017,0.034-0.051,0.034
		H11.99c-0.03,0-0.045-0.011-0.045-0.034V8.814C11.72,9.07,11.481,9.286,11.23,9.462l-0.439-0.614
		c0.409-0.278,0.711-0.576,0.907-0.896H11.05c-0.026,0-0.04-0.011-0.04-0.034V7.288c0-0.022,0.013-0.034,0.04-0.034h0.856
		c0.025,0,0.039-0.013,0.039-0.04V6.961c0-0.026-0.014-0.039-0.039-0.039h-1.031c-0.03,0-0.045-0.011-0.045-0.034V6.224
		c0-0.026,0.015-0.04,0.045-0.04h0.484c0.03,0,0.04-0.011,0.028-0.034L11.27,5.745c-0.008-0.022,0.002-0.034,0.028-0.034
		l0.648-0.113c0.029,0,0.049,0.013,0.057,0.04l0.102,0.513c0.014,0.022,0.035,0.034,0.062,0.034h0.281
		c0.03,0,0.049-0.011,0.057-0.034l0.09-0.586c0.008-0.026-0.002-0.04-0.028-0.04h-1.588c-0.026,0-0.04-0.011-0.04-0.034V4.889
		c0-0.026,0.013-0.04,0.04-0.04h0.896c0.03,0,0.045-0.013,0.045-0.039V4.388c0-0.023,0.013-0.034,0.04-0.034h0.574
		c0.119,0,0.145,0.066,0.072,0.197v0.259c0,0.026,0.016,0.039,0.046,0.039h0.895c0.026,0,0.04,0.013,0.04,0.04v0.603
		c0,0.022-0.014,0.034-0.04,0.034H13.116z M14.581,5.418v0.766h1.594c0.033,0,0.051,0.013,0.051,0.04v0.625
		c0,0.026-0.018,0.04-0.051,0.04h-0.293c-0.026,0-0.039,0.011-0.039,0.034v2.979c0,0.022-0.016,0.034-0.046,0.034h-0.658
		c-0.026,0-0.04-0.011-0.04-0.034V6.922c0-0.022-0.017-0.034-0.051-0.034h-0.417c-0.049,1.404-0.392,2.414-1.03,3.03
		c-0.184-0.146-0.373-0.293-0.568-0.439c0.544-0.541,0.822-1.496,0.833-2.867V4.72c0-0.026,0.016-0.04,0.045-0.04l0.451,0.073
		c0.033,0,0.063-0.005,0.09-0.017l1.233-0.349l0.271,0.349l0.281,0.388l-0.247,0.017L14.581,5.418z"/>
	<path fill="#FFFFFF" d="M6.189,13.274c-0.274-0.188-0.622-0.374-1.042-0.558l0.333-0.676c0.424,0.21,0.785,0.428,1.081,0.653
		L6.189,13.274z M5.941,16.113C5.93,16.136,5.91,16.141,5.88,16.13l-0.614-0.355c-0.026-0.011-0.03-0.029-0.011-0.056l1.07-2.056
		c0.022-0.022,0.043-0.028,0.062-0.017l0.428,0.405c0.022,0.015,0.03,0.033,0.022,0.056L5.941,16.113z M6.415,11.726
		c-0.248-0.173-0.55-0.358-0.907-0.558l0.406-0.585c0.285,0.162,0.593,0.38,0.923,0.659L6.415,11.726z M7.31,12.227
		c-0.09-0.42-0.248-0.837-0.473-1.25l0.591-0.315c0.271,0.462,0.455,0.922,0.552,1.38L7.31,12.227z M10.261,12.356
		c0.03,0,0.045,0.014,0.045,0.039v3.362c-0.049,0.199-0.208,0.342-0.479,0.428H9.23c0.053-0.135-0.017-0.379-0.208-0.731h0.406
		c0.098-0.026,0.146-0.083,0.146-0.169v-0.332c0-0.026-0.015-0.04-0.045-0.04H7.654c-0.03,0-0.045,0.014-0.045,0.04v1.12
		c0,0.026-0.015,0.04-0.045,0.04H6.956c-0.03,0-0.045-0.014-0.045-0.04v-3.678c0-0.025,0.015-0.039,0.045-0.039h1.25
		c0.03,0,0.045-0.013,0.045-0.039v-1.695c0-0.026,0.013-0.04,0.04-0.04h0.659c0.12,0,0.141,0.069,0.062,0.208v1.526
		c0,0.026,0.015,0.039,0.045,0.039H10.261z M7.654,13.089c-0.03,0-0.045,0.011-0.045,0.033v0.209c0,0.037,0.015,0.056,0.045,0.056
		h1.887c0.03,0,0.045-0.019,0.045-0.056v-0.209c0-0.022-0.015-0.033-0.045-0.033H7.654z M7.654,14.052
		c-0.03,0-0.045,0.013-0.045,0.039v0.175c0,0.022,0.015,0.034,0.045,0.034h1.887c0.03,0,0.045-0.012,0.045-0.034v-0.175
		c0-0.026-0.015-0.039-0.045-0.039H7.654z M10.346,10.824c-0.195,0.439-0.353,0.894-0.473,1.363l-0.67-0.203
		c0.12-0.469,0.254-0.91,0.4-1.323L10.346,10.824z"/>
	<path fill="#FFFFFF" d="M10.757,15.685c0.146-0.263,0.306-0.69,0.479-1.284c0.278,0,0.532,0,0.76,0
		c-0.162,0.744-0.336,1.298-0.524,1.662L10.757,15.685z M13.899,11.101c0,0.022,0.015,0.033,0.045,0.033h1.447
		c0.026,0,0.04,0.014,0.04,0.04v2.906c0,0.022-0.014,0.033-0.04,0.033h-1.476c0.268,0.154,0.486,0.374,0.659,0.659
		c-0.199,0.098-0.403,0.203-0.614,0.315c-0.18-0.236-0.415-0.484-0.704-0.743c0.181-0.087,0.364-0.164,0.553-0.231h-2.175
		c-0.018,0-0.027-0.011-0.027-0.033v-2.906c0-0.026,0.01-0.04,0.027-0.04h1.369c0.022,0,0.033-0.011,0.033-0.033v-0.434
		c0-0.026,0.021-0.04,0.063-0.04h0.8c0.12,0,0.136,0.068,0.045,0.203l-0.045,0.152c0,0.022,0,0.049,0,0.078V11.101z M12.154,14.288
		c0-0.022,0.014-0.034,0.045-0.034h0.731c0.03,0,0.045,0.012,0.045,0.034v1.003c0.06,0.063,0.114,0.09,0.163,0.078h1.003
		c0.195-0.063,0.364-0.249,0.507-0.558c0.169,0.098,0.372,0.203,0.608,0.315c-0.132,0.425-0.301,0.712-0.507,0.862
		c-0.199,0.098-0.417,0.141-0.653,0.129h-1.447c-0.301-0.015-0.466-0.127-0.495-0.338V14.288z M12.43,11.748
		c-0.041,0-0.063,0.014-0.063,0.039v0.146c0,0.027,0.021,0.04,0.063,0.04h2.111c0.038,0,0.057-0.013,0.057-0.04v-0.146
		c0-0.025-0.019-0.039-0.057-0.039H12.43z M12.43,12.509c-0.041,0-0.063,0.013-0.063,0.039v0.158c0,0.022,0.021,0.033,0.063,0.033
		h2.111c0.038,0,0.057-0.011,0.057-0.033v-0.158c0-0.026-0.019-0.039-0.057-0.039H12.43z M12.43,13.28
		c-0.041,0-0.063,0.011-0.063,0.033v0.152c0,0.026,0.021,0.039,0.063,0.039h2.111c0.038,0,0.057-0.013,0.057-0.039v-0.152
		c0-0.022-0.019-0.033-0.057-0.033H12.43z M14.947,14.418c0.176-0.061,0.385-0.122,0.625-0.187c0.334,0.458,0.566,0.856,0.698,1.194
		c-0.181,0.108-0.4,0.222-0.659,0.338c-0.139-0.401-0.387-0.843-0.743-1.323L14.947,14.418z"/>
</g>
<g>
	<path fill="#41759A" d="M9.326,21.376H9.59l0.799,1.166h0.009v-1.166h0.267v1.616h-0.258L9.6,21.811H9.59v1.182H9.326V21.376z"/>
	<path fill="#41759A" d="M11.912,21.376h1.167v0.226h-0.902v0.448h0.847v0.227h-0.847v0.489h0.94v0.227h-1.205V21.376z"/>
	<path fill="#41759A" d="M14.146,21.376h0.299l0.303,1.229h0.01l0.318-1.229h0.275l0.318,1.229h0.01l0.303-1.229h0.299l-0.467,1.616
		h-0.279l-0.314-1.216h-0.01l-0.318,1.216h-0.281L14.146,21.376z"/>
	<path fill="#41759A" d="M18.396,21.462c0.113,0.084,0.178,0.215,0.195,0.392h-0.264c-0.021-0.1-0.064-0.172-0.125-0.216
		c-0.057-0.043-0.146-0.065-0.266-0.065c-0.104,0-0.182,0.015-0.234,0.043c-0.066,0.033-0.1,0.09-0.1,0.168
		c0,0.071,0.037,0.126,0.113,0.165c0.037,0.02,0.129,0.053,0.277,0.1c0.213,0.065,0.354,0.118,0.422,0.158
		c0.141,0.083,0.211,0.199,0.211,0.35c0,0.145-0.057,0.259-0.17,0.344c-0.115,0.083-0.273,0.124-0.48,0.124
		c-0.199,0-0.354-0.038-0.465-0.115c-0.139-0.095-0.213-0.245-0.223-0.45h0.264c0.018,0.124,0.061,0.211,0.131,0.263
		c0.064,0.047,0.162,0.07,0.293,0.07c0.119,0,0.213-0.02,0.281-0.06c0.07-0.042,0.105-0.096,0.105-0.16
		c0-0.086-0.051-0.154-0.152-0.204c-0.037-0.018-0.141-0.054-0.314-0.106c-0.201-0.063-0.324-0.108-0.371-0.136
		c-0.125-0.074-0.186-0.183-0.186-0.326c0-0.145,0.059-0.257,0.18-0.337c0.111-0.079,0.256-0.118,0.432-0.118
		C18.143,21.344,18.291,21.383,18.396,21.462z"/>
</g>
</svg>
