<?xml version="1.0" encoding="utf-8"?>
<!-- Generator: Adobe Illustrator 16.0.3, SVG Export Plug-In . SVG Version: 6.00 Build 0)  -->
<!DOCTYPE svg PUBLIC "-//W3C//DTD SVG 1.1//EN" "http://www.w3.org/Graphics/SVG/1.1/DTD/svg11.dtd">
<svg version="1.1" id="分離模式" xmlns="http://www.w3.org/2000/svg" xmlns:xlink="http://www.w3.org/1999/xlink" x="0px"
	 y="0px" width="396px" height="188px" viewBox="0 0 396 188" enable-background="new 0 0 396 188" xml:space="preserve">
<g>
	<defs>
		<rect id="SVGID_1_" width="381" height="184"/>
	</defs>
	<clipPath id="SVGID_2_">
		<use xlink:href="#SVGID_1_"  overflow="visible"/>
	</clipPath>
	<g opacity="0.8" clip-path="url(#SVGID_2_)">
		<g>
			<g>
				<g>
					<line fill="#7AC2F7" x1="-23.057" y1="63.08" x2="-24.133" y2="86.566"/>
					
						<rect x="-35.351" y="74.723" transform="matrix(-0.0458 0.999 -0.999 -0.0458 50.0691 101.8181)" fill="#7AC2F7" width="23.511" height="0.2"/>
				</g>
				<g>
					<line fill="#7AC2F7" x1="-23.057" y1="63.08" x2="-24.133" y2="86.566"/>
					
						<rect x="-35.351" y="74.723" transform="matrix(-0.0458 0.999 -0.999 -0.0458 50.0691 101.8181)" fill="#7AC2F7" width="23.511" height="0.2"/>
				</g>
			</g>
			<g>
				<g>
					<line fill="#7AC2F7" x1="-30.262" y1="138.611" x2="-23.057" y2="63.08"/>
					
						<rect x="-64.596" y="100.655" transform="matrix(-0.095 0.9955 -0.9955 -0.095 71.1985 136.9627)" fill="#7AC2F7" width="75.874" height="0.382"/>
				</g>
				<g>
					<line fill="#7AC2F7" x1="-30.262" y1="138.611" x2="-24.133" y2="86.566"/>
					
						<rect x="-53.398" y="112.437" transform="matrix(-0.1169 0.9931 -0.9931 -0.1169 81.4394 152.7638)" fill="#7AC2F7" width="52.404" height="0.302"/>
				</g>
				<g>
					<line fill="#7AC2F7" x1="-30.262" y1="138.611" x2="-24.133" y2="86.566"/>
					
						<rect x="-53.398" y="112.437" transform="matrix(-0.1169 0.9931 -0.9931 -0.1169 81.4394 152.7638)" fill="#7AC2F7" width="52.404" height="0.302"/>
				</g>
			</g>
			<g>
				<g>
					<line fill="#7AC2F7" x1="47.013" y1="105.507" x2="-24.133" y2="86.566"/>
					
						<rect x="-25.373" y="95.849" transform="matrix(0.9663 0.2573 -0.2573 0.9663 25.0931 0.29)" fill="#7AC2F7" width="73.622" height="0.375"/>
				</g>
				<g>
					<line fill="#7AC2F7" x1="47.013" y1="105.507" x2="-24.133" y2="86.566"/>
					
						<rect x="-25.373" y="95.849" transform="matrix(0.9663 0.2573 -0.2573 0.9663 25.0931 0.29)" fill="#7AC2F7" width="73.622" height="0.375"/>
				</g>
			</g>
			<g>
				<g>
					<line fill="#7AC2F7" x1="69.342" y1="88.092" x2="47.013" y2="105.507"/>
					
						<rect x="58.07" y="82.641" transform="matrix(0.6169 0.787 -0.787 0.6169 98.4706 -8.7051)" fill="#7AC2F7" width="0.215" height="28.318"/>
				</g>
			</g>
			<g>
				<g>
					<line fill="#7AC2F7" x1="47.661" y1="56.15" x2="69.342" y2="88.092"/>
					
						<rect x="39.198" y="71.995" transform="matrix(0.5616 0.8274 -0.8274 0.5616 85.3158 -16.7873)" fill="#7AC2F7" width="38.604" height="0.252"/>
				</g>
				<g>
					<line fill="#7AC2F7" x1="47.661" y1="56.15" x2="47.013" y2="105.507"/>
					
						<rect x="22.657" y="80.684" transform="matrix(-0.0131 0.9999 -0.9999 -0.0131 128.7804 34.5576)" fill="#7AC2F7" width="49.361" height="0.29"/>
				</g>
				<g>
					<line fill="#7AC2F7" x1="47.661" y1="56.15" x2="-23.057" y2="63.08"/>
					
						<rect x="12.118" y="24.088" transform="matrix(0.0973 0.9953 -0.9953 0.0973 70.4379 41.574)" fill="#7AC2F7" width="0.366" height="71.054"/>
				</g>
				<g>
					<line fill="#7AC2F7" x1="47.661" y1="56.15" x2="-24.133" y2="86.566"/>
					
						<rect x="11.568" y="32.374" transform="matrix(0.3914 0.9202 -0.9202 0.3914 72.8267 32.6069)" fill="#7AC2F7" width="0.391" height="77.969"/>
				</g>
				<g>
					<line fill="#7AC2F7" x1="47.661" y1="56.15" x2="-24.133" y2="86.566"/>
					
						<rect x="11.568" y="32.374" transform="matrix(0.3914 0.9202 -0.9202 0.3914 72.8267 32.6069)" fill="#7AC2F7" width="0.391" height="77.969"/>
				</g>
			</g>
			<g>
				<g>
					<line fill="#7AC2F7" x1="-34.46" y1="50.281" x2="-23.057" y2="63.08"/>
					
						<rect x="-37.328" y="56.593" transform="matrix(0.6652 0.7466 -0.7466 0.6652 32.6934 40.4469)" fill="#7AC2F7" width="17.141" height="0.176"/>
				</g>
				<g>
					<line fill="#7AC2F7" x1="-34.46" y1="50.281" x2="-24.133" y2="86.566"/>
					
						<rect x="-48.158" y="68.298" transform="matrix(0.2738 0.9618 -0.9618 0.2738 44.5348 77.8659)" fill="#7AC2F7" width="37.725" height="0.251"/>
				</g>
				<g>
					<line fill="#7AC2F7" x1="-34.46" y1="50.281" x2="-24.133" y2="86.566"/>
					
						<rect x="-48.158" y="68.298" transform="matrix(0.2738 0.9618 -0.9618 0.2738 44.5348 77.8659)" fill="#7AC2F7" width="37.725" height="0.251"/>
				</g>
			</g>
			<g>
				<g>
					<line fill="#7AC2F7" x1="-166.465" y1="71.777" x2="-213.713" y2="47.247"/>
					
						<rect x="-216.707" y="59.359" transform="matrix(0.8875 0.4608 -0.4608 0.8875 6.0398 94.28)" fill="#7AC2F7" width="53.237" height="0.304"/>
				</g>
			</g>
			<g>
				<g>
					<line fill="#7AC2F7" x1="-49.957" y1="104.134" x2="-34.46" y2="50.281"/>
					
						<rect x="-42.365" y="49.189" transform="matrix(0.9604 0.2786 -0.2786 0.9604 19.8406 14.8176)" fill="#7AC2F7" width="0.314" height="56.037"/>
				</g>
				<g>
					<line fill="#7AC2F7" x1="-49.957" y1="104.134" x2="-30.262" y2="138.611"/>
					
						<rect x="-59.961" y="121.244" transform="matrix(0.496 0.8683 -0.8683 0.496 85.1752 95.9948)" fill="#7AC2F7" width="39.705" height="0.256"/>
				</g>
				<g>
					<line fill="#7AC2F7" x1="-49.957" y1="104.134" x2="-23.057" y2="63.08"/>
					
						<rect x="-36.65" y="59.066" transform="matrix(0.8349 0.5504 -0.5504 0.8349 39.9899 33.8955)" fill="#7AC2F7" width="0.288" height="49.081"/>
				</g>
				<g>
					<line fill="#7AC2F7" x1="-49.957" y1="104.134" x2="-24.133" y2="86.566"/>
					
						<rect x="-37.157" y="79.733" transform="matrix(0.5651 0.825 -0.825 0.5651 62.5536 72.0235)" fill="#7AC2F7" width="0.226" height="31.232"/>
				</g>
				<g>
					<line fill="#7AC2F7" x1="-49.957" y1="104.134" x2="-24.133" y2="86.566"/>
					
						<rect x="-37.157" y="79.733" transform="matrix(0.5651 0.825 -0.825 0.5651 62.5536 72.0235)" fill="#7AC2F7" width="0.226" height="31.232"/>
				</g>
			</g>
			<g>
				<g>
					<line fill="#7AC2F7" x1="-49.957" y1="104.134" x2="-34.46" y2="50.281"/>
					
						<rect x="-42.365" y="49.189" transform="matrix(0.9604 0.2786 -0.2786 0.9604 19.8406 14.8176)" fill="#7AC2F7" width="0.314" height="56.037"/>
				</g>
				<g>
					<line fill="#7AC2F7" x1="-49.957" y1="104.134" x2="-30.262" y2="138.611"/>
					
						<rect x="-59.961" y="121.244" transform="matrix(0.496 0.8683 -0.8683 0.496 85.1752 95.9948)" fill="#7AC2F7" width="39.705" height="0.256"/>
				</g>
				<g>
					<line fill="#7AC2F7" x1="-49.957" y1="104.134" x2="-23.057" y2="63.08"/>
					
						<rect x="-36.65" y="59.066" transform="matrix(0.8349 0.5504 -0.5504 0.8349 39.9899 33.8955)" fill="#7AC2F7" width="0.288" height="49.081"/>
				</g>
				<g>
					<line fill="#7AC2F7" x1="-49.957" y1="104.134" x2="-24.133" y2="86.566"/>
					
						<rect x="-37.157" y="79.733" transform="matrix(0.5651 0.825 -0.825 0.5651 62.5536 72.0235)" fill="#7AC2F7" width="0.226" height="31.232"/>
				</g>
				<g>
					<line fill="#7AC2F7" x1="-49.957" y1="104.134" x2="-24.133" y2="86.566"/>
					
						<rect x="-37.157" y="79.733" transform="matrix(0.5651 0.825 -0.825 0.5651 62.5536 72.0235)" fill="#7AC2F7" width="0.226" height="31.232"/>
				</g>
			</g>
			<g>
				<g>
					<line fill="#7AC2F7" x1="-126.96" y1="79.151" x2="-166.465" y2="71.777"/>
					
						<rect x="-146.841" y="55.371" transform="matrix(-0.1859 0.9826 -0.9826 -0.1859 -99.8359 233.6473)" fill="#7AC2F7" width="0.257" height="40.187"/>
				</g>
			</g>
			<g>
				<g>
					<line fill="#7AC2F7" x1="42.444" y1="129.146" x2="47.661" y2="56.15"/>
					
						<rect x="8.461" y="92.461" transform="matrix(-0.0713 0.9975 -0.9975 -0.0713 140.6755 54.3136)" fill="#7AC2F7" width="73.182" height="0.374"/>
				</g>
				<g>
					<line fill="#7AC2F7" x1="42.444" y1="129.146" x2="69.342" y2="88.092"/>
					
						<rect x="55.748" y="84.078" transform="matrix(0.8382 0.5453 -0.5453 0.8382 68.2773 -12.9079)" fill="#7AC2F7" width="0.29" height="49.082"/>
				</g>
				<g>
					<line fill="#7AC2F7" x1="42.444" y1="129.146" x2="47.013" y2="105.507"/>
					
						<rect x="44.627" y="105.288" transform="matrix(0.982 0.1887 -0.1887 0.982 22.939 -6.3316)" fill="#7AC2F7" width="0.202" height="24.077"/>
				</g>
				<g>
					<line fill="#7AC2F7" x1="42.444" y1="129.146" x2="-30.262" y2="138.611"/>
					
						<rect x="5.905" y="97.218" transform="matrix(0.1282 0.9917 -0.9917 0.1282 138.0839 110.6717)" fill="#7AC2F7" width="0.373" height="73.32"/>
				</g>
			</g>
			<g>
				<g>
					<line fill="#7AC2F7" x1="9.731" y1="12.673" x2="-34.46" y2="50.281"/>
					
						<rect x="-12.524" y="2.462" transform="matrix(0.6495 0.7603 -0.7603 0.6495 19.6005 20.4315)" fill="#7AC2F7" width="0.322" height="58.03"/>
				</g>
				<g>
					<line fill="#7AC2F7" x1="9.731" y1="12.673" x2="47.661" y2="56.15"/>
					
						<rect x="-0.152" y="34.253" transform="matrix(0.6574 0.7536 -0.7536 0.6574 35.7639 -9.8339)" fill="#7AC2F7" width="57.696" height="0.319"/>
				</g>
				<g>
					<line fill="#7AC2F7" x1="9.731" y1="12.673" x2="-23.057" y2="63.08"/>
					
						<rect x="-6.827" y="7.81" transform="matrix(0.838 0.5457 -0.5457 0.838 19.5904 9.7733)" fill="#7AC2F7" width="0.327" height="60.133"/>
				</g>
			</g>
			<g>
				<g>
					<line fill="#7AC2F7" x1="284.609" y1="98.655" x2="263.08" y2="70.206"/>
					
						<rect x="256.006" y="84.31" transform="matrix(0.6034 0.7974 -0.7974 0.6034 175.9197 -184.8831)" fill="#7AC2F7" width="35.677" height="0.241"/>
				</g>
			</g>
			<g>
				<g>
					<line fill="#7AC2F7" x1="119.416" y1="129.292" x2="182.77" y2="113.937"/>
					
						<rect x="150.92" y="89.021" transform="matrix(0.2362 0.9717 -0.9717 0.2362 233.5763 -53.9289)" fill="#7AC2F7" width="0.345" height="65.186"/>
				</g>
				<g>
					<line fill="#7AC2F7" x1="119.416" y1="129.292" x2="42.444" y2="129.146"/>
					<rect x="42.445" y="129.025" fill="#7AC2F7" width="76.973" height="0.387"/>
				</g>
				<g>
					<line fill="#7AC2F7" x1="119.416" y1="129.292" x2="69.342" y2="88.092"/>
					
						<rect x="61.959" y="108.519" transform="matrix(0.7722 0.6354 -0.6354 0.7722 90.5555 -35.2074)" fill="#7AC2F7" width="64.844" height="0.345"/>
				</g>
				<g>
					<line fill="#7AC2F7" x1="119.416" y1="129.292" x2="47.013" y2="105.507"/>
					
						<rect x="45.108" y="117.207" transform="matrix(0.9501 0.3121 -0.3121 0.9501 40.7941 -20.1061)" fill="#7AC2F7" width="76.212" height="0.384"/>
				</g>
			</g>
			<g>
				<g>
					<line fill="#7AC2F7" x1="164.394" y1="53.513" x2="169.6" y2="28.448"/>
					
						<rect x="166.893" y="28.18" transform="matrix(0.9796 0.2011 -0.2011 0.9796 11.6543 -32.7487)" fill="#7AC2F7" width="0.206" height="25.601"/>
				</g>
				<g>
					<line fill="#7AC2F7" x1="164.394" y1="53.513" x2="182.77" y2="113.937"/>
					
						<rect x="142.005" y="83.556" transform="matrix(0.291 0.9567 -0.9567 0.291 203.1735 -106.7088)" fill="#7AC2F7" width="63.155" height="0.338"/>
				</g>
			</g>
			<g>
				<g>
					<line fill="#7AC2F7" x1="308.919" y1="126.634" x2="284.609" y2="98.655"/>
					
						<rect x="278.233" y="112.52" transform="matrix(0.6559 0.7548 -0.7548 0.6559 187.1466 -185.2513)" fill="#7AC2F7" width="37.063" height="0.248"/>
				</g>
				<g>
					<line fill="#7AC2F7" x1="308.919" y1="126.634" x2="263.08" y2="70.206"/>
					
						<rect x="249.648" y="98.233" transform="matrix(0.6305 0.7762 -0.7762 0.6305 182.0548 -185.6182)" fill="#7AC2F7" width="72.701" height="0.372"/>
				</g>
			</g>
			<g>
				<g>
					<line fill="#7AC2F7" x1="136.083" y1="86.234" x2="164.394" y2="53.513"/>
					
						<rect x="150.104" y="48.24" transform="matrix(0.7586 0.6515 -0.6515 0.7586 81.7906 -81.0199)" fill="#7AC2F7" width="0.269" height="43.268"/>
				</g>
				<g>
					<line fill="#7AC2F7" x1="136.083" y1="86.234" x2="119.416" y2="129.292"/>
					
						<rect x="127.61" y="84.676" transform="matrix(0.9333 0.359 -0.359 0.9333 47.1993 -38.6765)" fill="#7AC2F7" width="0.279" height="46.171"/>
				</g>
				<g>
					<line fill="#7AC2F7" x1="136.083" y1="86.234" x2="169.6" y2="28.448"/>
					
						<rect x="152.665" y="23.94" transform="matrix(0.8643 0.503 -0.503 0.8643 49.5861 -69.0978)" fill="#7AC2F7" width="0.351" height="66.801"/>
				</g>
				<g>
					<line fill="#7AC2F7" x1="136.083" y1="86.234" x2="182.77" y2="113.937"/>
					
						<rect x="132.283" y="99.931" transform="matrix(0.86 0.5103 -0.5103 0.86 73.397 -67.3448)" fill="#7AC2F7" width="54.288" height="0.308"/>
				</g>
				<g>
					<line fill="#7AC2F7" x1="136.083" y1="86.234" x2="69.342" y2="88.092"/>
					
						<rect x="102.538" y="53.78" transform="matrix(0.0278 0.9996 -0.9996 0.0278 186.9822 -17.9375)" fill="#7AC2F7" width="0.351" height="66.767"/>
				</g>
			</g>
			<g>
				<g>
					<line fill="#7AC2F7" x1="286.992" y1="97.152" x2="308.919" y2="126.634"/>
					
						<rect x="279.585" y="111.77" transform="matrix(0.5968 0.8024 -0.8024 0.5968 209.9286 -193.9648)" fill="#7AC2F7" width="36.742" height="0.246"/>
				</g>
				<g>
					<line fill="#7AC2F7" x1="286.992" y1="97.152" x2="284.609" y2="98.655"/>
					
						<rect x="285.736" y="96.495" transform="matrix(0.5388 0.8424 -0.8424 0.5388 214.2752 -195.6113)" fill="#7AC2F7" width="0.129" height="2.817"/>
				</g>
				<g>
					<line fill="#7AC2F7" x1="286.992" y1="97.152" x2="263.08" y2="70.206"/>
					
						<rect x="257.021" y="83.558" transform="matrix(0.6638 0.7479 -0.7479 0.6638 155.0637 -177.5743)" fill="#7AC2F7" width="36.028" height="0.242"/>
				</g>
			</g>
			<g>
				<g>
					<line fill="#7AC2F7" x1="286.992" y1="97.152" x2="308.919" y2="126.634"/>
					
						<rect x="279.585" y="111.77" transform="matrix(0.5968 0.8024 -0.8024 0.5968 209.9286 -193.9648)" fill="#7AC2F7" width="36.742" height="0.246"/>
				</g>
				<g>
					<line fill="#7AC2F7" x1="286.992" y1="97.152" x2="284.609" y2="98.655"/>
					
						<rect x="285.736" y="96.495" transform="matrix(0.5388 0.8424 -0.8424 0.5388 214.2752 -195.6113)" fill="#7AC2F7" width="0.129" height="2.817"/>
				</g>
				<g>
					<line fill="#7AC2F7" x1="286.992" y1="97.152" x2="263.08" y2="70.206"/>
					
						<rect x="257.021" y="83.558" transform="matrix(0.6638 0.7479 -0.7479 0.6638 155.0637 -177.5743)" fill="#7AC2F7" width="36.028" height="0.242"/>
				</g>
			</g>
			<g>
				<g>
					<line fill="#7AC2F7" x1="174.145" y1="100.668" x2="136.083" y2="86.234"/>
					
						<rect x="134.76" y="93.322" transform="matrix(0.935 0.3546 -0.3546 0.935 43.2225 -48.9347)" fill="#7AC2F7" width="40.708" height="0.259"/>
				</g>
				<g>
					<line fill="#7AC2F7" x1="174.145" y1="100.668" x2="164.394" y2="53.513"/>
					
						<rect x="145.193" y="76.949" transform="matrix(0.2025 0.9793 -0.9793 0.2025 210.486 -104.2818)" fill="#7AC2F7" width="48.152" height="0.285"/>
				</g>
				<g>
					<line fill="#7AC2F7" x1="174.145" y1="100.668" x2="119.416" y2="129.292"/>
					
						<rect x="146.614" y="84.1" transform="matrix(0.4642 0.8857 -0.8857 0.4642 180.4922 -68.4003)" fill="#7AC2F7" width="0.332" height="61.761"/>
				</g>
				<g>
					<line fill="#7AC2F7" x1="174.145" y1="100.668" x2="169.6" y2="28.448"/>
					
						<rect x="135.691" y="64.374" transform="matrix(0.0628 0.998 -0.998 0.0628 225.5096 -111.0296)" fill="#7AC2F7" width="72.363" height="0.37"/>
				</g>
				<g>
					<line fill="#7AC2F7" x1="174.145" y1="100.668" x2="182.77" y2="113.937"/>
					
						<rect x="170.545" y="107.216" transform="matrix(0.545 0.8384 -0.8384 0.545 171.1628 -100.802)" fill="#7AC2F7" width="15.824" height="0.173"/>
				</g>
			</g>
			<g>
				<g>
					<line fill="#7AC2F7" x1="238.461" y1="163.639" x2="182.77" y2="113.937"/>
					
						<rect x="173.294" y="138.598" transform="matrix(0.7461 0.6658 -0.6658 0.7461 145.8851 -104.9974)" fill="#7AC2F7" width="74.643" height="0.379"/>
				</g>
			</g>
			<g>
				<g>
					<line fill="#7AC2F7" x1="89.116" y1="164.546" x2="119.416" y2="129.292"/>
					
						<rect x="104.126" y="123.676" transform="matrix(0.7575 0.6528 -0.6528 0.7575 121.1905 -32.4417)" fill="#7AC2F7" width="0.28" height="46.486"/>
				</g>
				<g>
					<line fill="#7AC2F7" x1="89.116" y1="164.546" x2="42.444" y2="129.146"/>
					
						<rect x="36.491" y="146.685" transform="matrix(0.7967 0.6043 -0.6043 0.7967 102.1134 -9.9043)" fill="#7AC2F7" width="58.578" height="0.321"/>
				</g>
				<g>
					<line fill="#7AC2F7" x1="89.116" y1="164.546" x2="47.013" y2="105.507"/>
					
						<rect x="31.806" y="134.842" transform="matrix(0.5806 0.8142 -0.8142 0.5806 138.4772 1.2096)" fill="#7AC2F7" width="72.516" height="0.371"/>
				</g>
			</g>
			<g>
				<g>
					<line fill="#7AC2F7" x1="-20.437" y1="147.278" x2="42.444" y2="129.146"/>
					
						<rect x="10.83" y="105.489" transform="matrix(0.277 0.9609 -0.9609 0.277 140.7608 89.3598)" fill="#7AC2F7" width="0.346" height="65.446"/>
				</g>
				<g>
					<line fill="#7AC2F7" x1="-20.437" y1="147.278" x2="-49.957" y2="104.134"/>
					
						<rect x="-61.336" y="125.557" transform="matrix(0.5647 0.8253 -0.8253 0.5647 88.4255 83.7734)" fill="#7AC2F7" width="52.277" height="0.299"/>
				</g>
				<g>
					<line fill="#7AC2F7" x1="-20.437" y1="147.278" x2="-49.957" y2="104.134"/>
					
						<rect x="-61.336" y="125.557" transform="matrix(0.5647 0.8253 -0.8253 0.5647 88.4255 83.7734)" fill="#7AC2F7" width="52.277" height="0.299"/>
				</g>
				<g>
					<line fill="#7AC2F7" x1="-20.437" y1="147.278" x2="-30.262" y2="138.611"/>
					
						<rect x="-31.9" y="142.863" transform="matrix(0.7499 0.6616 -0.6616 0.7499 88.2262 52.5215)" fill="#7AC2F7" width="13.101" height="0.163"/>
				</g>
				<g>
					<line fill="#7AC2F7" x1="-20.437" y1="147.278" x2="-24.133" y2="86.566"/>
					
						<rect x="-52.698" y="116.758" transform="matrix(0.0607 0.9982 -0.9982 0.0607 95.7742 132.0672)" fill="#7AC2F7" width="60.825" height="0.329"/>
				</g>
				<g>
					<line fill="#7AC2F7" x1="-20.437" y1="147.278" x2="-24.133" y2="86.566"/>
					
						<rect x="-52.698" y="116.758" transform="matrix(0.0607 0.9982 -0.9982 0.0607 95.7742 132.0672)" fill="#7AC2F7" width="60.825" height="0.329"/>
				</g>
			</g>
			<g>
				<g>
					<line fill="#7AC2F7" x1="129.88" y1="176.765" x2="89.116" y2="164.546"/>
					
						<rect x="88.221" y="170.522" transform="matrix(0.9579 0.2871 -0.2871 0.9579 53.6057 -24.2527)" fill="#7AC2F7" width="42.555" height="0.266"/>
				</g>
				<g>
					<line fill="#7AC2F7" x1="129.88" y1="176.765" x2="119.416" y2="129.292"/>
					
						<rect x="100.342" y="152.884" transform="matrix(0.2153 0.9766 -0.9766 0.2153 247.2547 -1.6402)" fill="#7AC2F7" width="48.613" height="0.287"/>
				</g>
			</g>
			<g>
				<g>
					<line fill="#7AC2F7" x1="217.358" y1="161.059" x2="238.461" y2="163.639"/>
					
						<rect x="227.813" y="151.719" transform="matrix(-0.1115 0.9938 -0.9938 -0.1115 414.6672 -46.0297)" fill="#7AC2F7" width="0.193" height="21.26"/>
				</g>
				<g>
					<line fill="#7AC2F7" x1="217.358" y1="161.059" x2="174.145" y2="100.668"/>
					
						<rect x="158.622" y="130.675" transform="matrix(0.5819 0.8132 -0.8132 0.5819 188.2579 -104.4828)" fill="#7AC2F7" width="74.26" height="0.378"/>
				</g>
				<g>
					<line fill="#7AC2F7" x1="217.358" y1="161.059" x2="182.77" y2="113.937"/>
					
						<rect x="170.837" y="137.337" transform="matrix(0.5917 0.8061 -0.8061 0.5917 192.5245 -105.1429)" fill="#7AC2F7" width="58.454" height="0.323"/>
				</g>
			</g>
			<g>
				<g>
					<line fill="#7AC2F7" x1="257.498" y1="126.774" x2="217.358" y2="161.059"/>
					
						<rect x="237.277" y="117.522" transform="matrix(0.6535 0.757 -0.757 0.6535 191.2201 -129.8514)" fill="#7AC2F7" width="0.302" height="52.788"/>
				</g>
				<g>
					<line fill="#7AC2F7" x1="257.498" y1="126.774" x2="238.461" y2="163.639"/>
					
						<rect x="247.847" y="124.462" transform="matrix(0.8892 0.4576 -0.4576 0.8892 93.9327 -97.3799)" fill="#7AC2F7" width="0.262" height="41.489"/>
				</g>
				<g>
					<line fill="#7AC2F7" x1="257.498" y1="126.774" x2="286.992" y2="97.152"/>
					
						<rect x="272.112" y="91.062" transform="matrix(0.7062 0.708 -0.708 0.7062 159.2655 -159.8607)" fill="#7AC2F7" width="0.263" height="41.803"/>
				</g>
				<g>
					<line fill="#7AC2F7" x1="257.498" y1="126.774" x2="286.992" y2="97.152"/>
					
						<rect x="272.112" y="91.062" transform="matrix(0.7062 0.708 -0.708 0.7062 159.2655 -159.8607)" fill="#7AC2F7" width="0.263" height="41.803"/>
				</g>
				<g>
					<line fill="#7AC2F7" x1="257.498" y1="126.774" x2="308.919" y2="126.634"/>
					<rect x="257.496" y="126.556" fill="#7AC2F7" width="51.421" height="0.296"/>
				</g>
				<g>
					<line fill="#7AC2F7" x1="257.498" y1="126.774" x2="284.609" y2="98.655"/>
					
						<rect x="270.926" y="93.184" transform="matrix(0.7223 0.6916 -0.6916 0.7223 153.2197 -156.1527)" fill="#7AC2F7" width="0.254" height="39.062"/>
				</g>
				<g>
					<line fill="#7AC2F7" x1="257.498" y1="126.774" x2="263.08" y2="70.206"/>
					
						<rect x="231.866" y="98.332" transform="matrix(-0.0982 0.9952 -0.9952 -0.0982 383.8615 -150.8681)" fill="#7AC2F7" width="56.844" height="0.315"/>
				</g>
				<g>
					<line fill="#7AC2F7" x1="257.498" y1="126.774" x2="182.77" y2="113.937"/>
					
						<rect x="219.941" y="82.445" transform="matrix(-0.171 0.9853 -0.9853 -0.171 376.3613 -75.9509)" fill="#7AC2F7" width="0.383" height="75.821"/>
				</g>
			</g>
			<g>
				<g>
					<line fill="#7AC2F7" x1="220.357" y1="85.361" x2="257.498" y2="126.774"/>
					
						<rect x="211.114" y="105.912" transform="matrix(0.6676 0.7445 -0.7445 0.6676 158.3753 -142.6251)" fill="#7AC2F7" width="55.627" height="0.313"/>
				</g>
				<g>
					<line fill="#7AC2F7" x1="220.357" y1="85.361" x2="217.358" y2="161.059"/>
					
						<rect x="180.98" y="123.02" transform="matrix(-0.0396 0.9992 -0.9992 -0.0396 350.6411 -90.5951)" fill="#7AC2F7" width="75.756" height="0.381"/>
				</g>
				<g>
					<line fill="#7AC2F7" x1="220.357" y1="85.361" x2="174.145" y2="100.668"/>
					
						<rect x="197.107" y="68.674" transform="matrix(0.3183 0.948 -0.948 0.3183 222.6535 -123.5827)" fill="#7AC2F7" width="0.288" height="48.683"/>
				</g>
				<g>
					<line fill="#7AC2F7" x1="220.357" y1="85.361" x2="286.992" y2="97.152"/>
					
						<rect x="253.498" y="57.422" transform="matrix(-0.1767 0.9843 -0.9843 -0.1767 388.32 -142.3022)" fill="#7AC2F7" width="0.354" height="67.669"/>
				</g>
				<g>
					<line fill="#7AC2F7" x1="220.357" y1="85.361" x2="286.992" y2="97.152"/>
					
						<rect x="253.498" y="57.422" transform="matrix(-0.1767 0.9843 -0.9843 -0.1767 388.32 -142.3022)" fill="#7AC2F7" width="0.354" height="67.669"/>
				</g>
				<g>
					<line fill="#7AC2F7" x1="220.357" y1="85.361" x2="164.394" y2="53.513"/>
					
						<rect x="160.18" y="69.267" transform="matrix(0.8691 0.4946 -0.4946 0.8691 59.5197 -86.0591)" fill="#7AC2F7" width="64.392" height="0.342"/>
				</g>
				<g>
					<line fill="#7AC2F7" x1="220.357" y1="85.361" x2="284.609" y2="98.655"/>
					
						<rect x="219.677" y="91.835" transform="matrix(0.9793 0.2026 -0.2026 0.9793 23.8773 -49.2456)" fill="#7AC2F7" width="65.614" height="0.347"/>
				</g>
				<g>
					<line fill="#7AC2F7" x1="220.357" y1="85.361" x2="169.6" y2="28.448"/>
					
						<rect x="156.848" y="56.714" transform="matrix(0.6656 0.7463 -0.7463 0.6656 107.6727 -126.4866)" fill="#7AC2F7" width="76.26" height="0.382"/>
				</g>
				<g>
					<line fill="#7AC2F7" x1="220.357" y1="85.361" x2="263.08" y2="70.206"/>
					
						<rect x="241.58" y="55.119" transform="matrix(0.3321 0.9433 -0.9433 0.3321 234.818 -176.0476)" fill="#7AC2F7" width="0.276" height="45.33"/>
				</g>
				<g>
					<line fill="#7AC2F7" x1="220.357" y1="85.361" x2="182.77" y2="113.937"/>
					
						<rect x="201.423" y="76.04" transform="matrix(0.609 0.7931 -0.7931 0.609 157.8376 -120.9097)" fill="#7AC2F7" width="0.284" height="47.218"/>
				</g>
			</g>
			<g>
				<g>
					<line fill="#7AC2F7" x1="-113.936" y1="72.987" x2="-126.96" y2="79.151"/>
					
						<rect x="-120.532" y="68.863" transform="matrix(0.4273 0.9041 -0.9041 0.4273 -0.2029 152.458)" fill="#7AC2F7" width="0.168" height="14.413"/>
				</g>
				<g>
					<line fill="#7AC2F7" x1="-113.936" y1="72.987" x2="-49.957" y2="104.134"/>
					
						<rect x="-117.525" y="88.377" transform="matrix(0.8991 0.4377 -0.4377 0.8991 30.497 44.8033)" fill="#7AC2F7" width="71.16" height="0.366"/>
				</g>
				<g>
					<line fill="#7AC2F7" x1="-113.936" y1="72.987" x2="-49.957" y2="104.134"/>
					
						<rect x="-117.525" y="88.377" transform="matrix(0.8991 0.4377 -0.4377 0.8991 30.497 44.8033)" fill="#7AC2F7" width="71.16" height="0.366"/>
				</g>
				<g>
					<line fill="#7AC2F7" x1="-113.936" y1="72.987" x2="-166.465" y2="71.777"/>
					
						<rect x="-140.351" y="46.109" transform="matrix(-0.0195 0.9998 -0.9998 -0.0195 -70.5632 213.9647)" fill="#7AC2F7" width="0.301" height="52.545"/>
				</g>
			</g>
			<g>
				<g>
					<line fill="#7AC2F7" x1="-112.838" y1="122.268" x2="-113.936" y2="72.987"/>
					
						<rect x="-138.034" y="97.482" transform="matrix(0.0222 0.9998 -0.9998 0.0222 -13.2654 208.8156)" fill="#7AC2F7" width="49.292" height="0.287"/>
				</g>
				<g>
					<line fill="#7AC2F7" x1="-112.838" y1="122.268" x2="-126.96" y2="79.151"/>
					
						<rect x="-142.584" y="100.571" transform="matrix(0.3113 0.9503 -0.9503 0.3113 13.1294 183.3015)" fill="#7AC2F7" width="45.37" height="0.277"/>
				</g>
				<g>
					<line fill="#7AC2F7" x1="-112.838" y1="122.268" x2="-49.957" y2="104.134"/>
					
						<rect x="-81.57" y="80.477" transform="matrix(0.2766 0.961 -0.961 0.2766 49.9004 160.1124)" fill="#7AC2F7" width="0.346" height="65.446"/>
				</g>
				<g>
					<line fill="#7AC2F7" x1="-112.838" y1="122.268" x2="-49.957" y2="104.134"/>
					
						<rect x="-81.57" y="80.477" transform="matrix(0.2766 0.961 -0.961 0.2766 49.9004 160.1124)" fill="#7AC2F7" width="0.346" height="65.446"/>
				</g>
				<g>
					<line fill="#7AC2F7" x1="-112.838" y1="122.268" x2="-166.465" y2="71.777"/>
					
						<rect x="-176.479" y="96.834" transform="matrix(0.7281 0.6855 -0.6855 0.7281 28.5335 122.1111)" fill="#7AC2F7" width="73.655" height="0.375"/>
				</g>
			</g>
			<g>
				<g>
					<line fill="#7AC2F7" x1="-78.744" y1="53.611" x2="-112.838" y2="122.268"/>
					
						<rect x="-95.985" y="49.612" transform="matrix(0.8954 0.4452 -0.4452 0.8954 29.1332 51.8405)" fill="#7AC2F7" width="0.386" height="76.655"/>
				</g>
				<g>
					<line fill="#7AC2F7" x1="-78.744" y1="53.611" x2="-113.936" y2="72.987"/>
					
						<rect x="-96.469" y="43.213" transform="matrix(0.4774 0.8787 -0.8787 0.4774 5.2708 117.7347)" fill="#7AC2F7" width="0.257" height="40.17"/>
				</g>
				<g>
					<line fill="#7AC2F7" x1="-78.744" y1="53.611" x2="-126.96" y2="79.151"/>
					
						<rect x="-103.007" y="39.1" transform="matrix(0.4637 0.886 -0.886 0.4637 3.65 126.7336)" fill="#7AC2F7" width="0.308" height="54.563"/>
				</g>
				<g>
					<line fill="#7AC2F7" x1="-78.744" y1="53.611" x2="-49.957" y2="104.134"/>
					
						<rect x="-93.425" y="78.711" transform="matrix(0.4951 0.8688 -0.8688 0.4951 36.0366 95.7309)" fill="#7AC2F7" width="58.15" height="0.322"/>
				</g>
				<g>
					<line fill="#7AC2F7" x1="-78.744" y1="53.611" x2="-49.957" y2="104.134"/>
					
						<rect x="-93.425" y="78.711" transform="matrix(0.4951 0.8688 -0.8688 0.4951 36.0366 95.7309)" fill="#7AC2F7" width="58.15" height="0.322"/>
				</g>
				<g>
					<line fill="#7AC2F7" x1="-78.744" y1="53.611" x2="-34.46" y2="50.281"/>
					
						<rect x="-56.739" y="29.742" transform="matrix(0.0801 0.9968 -0.9968 0.0801 -0.2879 104.2061)" fill="#7AC2F7" width="0.274" height="44.411"/>
				</g>
				<g>
					<line fill="#7AC2F7" x1="-78.744" y1="53.611" x2="-23.057" y2="63.08"/>
					
						<rect x="-51.058" y="30.101" transform="matrix(-0.1677 0.9858 -0.9858 -0.1677 -1.9163 118.3083)" fill="#7AC2F7" width="0.315" height="56.488"/>
				</g>
				<g>
					<line fill="#7AC2F7" x1="-78.744" y1="53.611" x2="-24.133" y2="86.566"/>
					
						<rect x="-83.332" y="69.919" transform="matrix(0.8562 0.5167 -0.5167 0.8562 28.8145 36.6557)" fill="#7AC2F7" width="63.786" height="0.339"/>
				</g>
				<g>
					<line fill="#7AC2F7" x1="-78.744" y1="53.611" x2="-24.133" y2="86.566"/>
					
						<rect x="-83.332" y="69.919" transform="matrix(0.8562 0.5167 -0.5167 0.8562 28.8145 36.6557)" fill="#7AC2F7" width="63.786" height="0.339"/>
				</g>
			</g>
			<g>
				<g>
					<line fill="#7AC2F7" x1="81.604" y1="24.236" x2="9.731" y2="12.673"/>
					
						<rect x="45.483" y="-17.945" transform="matrix(-0.1572 0.9876 -0.9876 -0.1572 71.0717 -23.7473)" fill="#7AC2F7" width="0.373" height="72.798"/>
				</g>
				<g>
					<line fill="#7AC2F7" x1="81.604" y1="24.236" x2="47.661" y2="56.15"/>
					
						<rect x="64.492" y="16.898" transform="matrix(0.6832 0.7302 -0.7302 0.6832 49.8268 -34.4633)" fill="#7AC2F7" width="0.28" height="46.591"/>
				</g>
				<g>
					<line fill="#7AC2F7" x1="81.604" y1="24.236" x2="69.342" y2="88.092"/>
					
						<rect x="75.302" y="23.652" transform="matrix(0.9819 0.1893 -0.1893 0.9819 11.9977 -13.2731)" fill="#7AC2F7" width="0.346" height="65.024"/>
				</g>
			</g>
			<g>
				<g>
					<line fill="#7AC2F7" x1="137.216" y1="31.958" x2="81.604" y2="24.236"/>
					
						<rect x="109.255" y="0.022" transform="matrix(-0.1307 0.9914 -0.9914 -0.1307 151.571 -76.7029)" fill="#7AC2F7" width="0.314" height="56.148"/>
				</g>
				<g>
					<line fill="#7AC2F7" x1="137.216" y1="31.958" x2="174.145" y2="100.668"/>
					
						<rect x="116.678" y="66.118" transform="matrix(0.4734 0.8808 -0.8808 0.4734 140.3911 -102.2101)" fill="#7AC2F7" width="78.005" height="0.391"/>
				</g>
				<g>
					<line fill="#7AC2F7" x1="137.216" y1="31.958" x2="136.083" y2="86.234"/>
					
						<rect x="109.506" y="58.942" transform="matrix(-0.0209 0.9998 -0.9998 -0.0209 198.5852 -76.2905)" fill="#7AC2F7" width="54.287" height="0.308"/>
				</g>
				<g>
					<line fill="#7AC2F7" x1="137.216" y1="31.958" x2="164.394" y2="53.513"/>
					
						<rect x="133.461" y="42.617" transform="matrix(0.7835 0.6214 -0.6214 0.7835 59.2092 -84.4597)" fill="#7AC2F7" width="34.688" height="0.238"/>
				</g>
				<g>
					<line fill="#7AC2F7" x1="137.216" y1="31.958" x2="169.6" y2="28.448"/>
					
						<rect x="153.292" y="13.917" transform="matrix(0.1037 0.9946 -0.9946 0.1037 167.5402 -125.5099)" fill="#7AC2F7" width="0.231" height="32.572"/>
				</g>
			</g>
			<g>
				<g>
					<line fill="#7AC2F7" x1="103.909" y1="62.447" x2="137.216" y2="31.958"/>
					
						<rect x="120.425" y="24.625" transform="matrix(0.6765 0.7364 -0.7364 0.6765 73.7609 -73.517)" fill="#7AC2F7" width="0.277" height="45.155"/>
				</g>
				<g>
					<line fill="#7AC2F7" x1="103.909" y1="62.447" x2="81.604" y2="24.236"/>
					
						<rect x="70.635" y="43.204" transform="matrix(0.5042 0.8636 -0.8636 0.5042 83.4238 -58.617)" fill="#7AC2F7" width="44.246" height="0.273"/>
				</g>
				<g>
					<line fill="#7AC2F7" x1="103.909" y1="62.447" x2="136.083" y2="86.234"/>
					
						<rect x="99.991" y="74.211" transform="matrix(0.8041 0.5945 -0.5945 0.8041 67.7021 -56.7742)" fill="#7AC2F7" width="40.011" height="0.258"/>
				</g>
				<g>
					<line fill="#7AC2F7" x1="103.909" y1="62.447" x2="164.394" y2="53.513"/>
					
						<rect x="133.986" y="27.411" transform="matrix(0.1429 0.9897 -0.9897 0.1429 172.3713 -83.0788)" fill="#7AC2F7" width="0.332" height="61.138"/>
				</g>
				<g>
					<line fill="#7AC2F7" x1="103.909" y1="62.447" x2="119.416" y2="129.292"/>
					
						<rect x="77.354" y="95.689" transform="matrix(0.226 0.9741 -0.9741 0.226 179.8183 -34.5714)" fill="#7AC2F7" width="68.62" height="0.358"/>
				</g>
				<g>
					<line fill="#7AC2F7" x1="103.909" y1="62.447" x2="169.6" y2="28.448"/>
					
						<rect x="136.568" y="8.464" transform="matrix(0.4566 0.8897 -0.8897 0.4566 114.7533 -96.9725)" fill="#7AC2F7" width="0.375" height="73.966"/>
				</g>
				<g>
					<line fill="#7AC2F7" x1="103.909" y1="62.447" x2="47.661" y2="56.15"/>
					
						<rect x="75.627" y="30.998" transform="matrix(-0.1115 0.9938 -0.9938 -0.1115 143.1604 -9.4058)" fill="#7AC2F7" width="0.315" height="56.601"/>
				</g>
				<g>
					<line fill="#7AC2F7" x1="103.909" y1="62.447" x2="69.342" y2="88.092"/>
					
						<rect x="86.493" y="53.748" transform="matrix(0.598 0.8015 -0.8015 0.598 95.1575 -39.1727)" fill="#7AC2F7" width="0.269" height="43.043"/>
				</g>
				<g>
					<line fill="#7AC2F7" x1="103.909" y1="62.447" x2="47.013" y2="105.507"/>
					
						<rect x="75.277" y="48.299" transform="matrix(0.6055 0.7958 -0.7958 0.6055 96.5988 -26.927)" fill="#7AC2F7" width="0.367" height="71.355"/>
				</g>
			</g>
			<g>
				<g>
					<line fill="#7AC2F7" x1="170.081" y1="151.924" x2="217.358" y2="161.059"/>
					
						<rect x="169.644" y="156.347" transform="matrix(0.9818 0.1897 -0.1897 0.9818 33.2009 -33.9047)" fill="#7AC2F7" width="48.153" height="0.287"/>
				</g>
				<g>
					<line fill="#7AC2F7" x1="170.081" y1="151.924" x2="129.88" y2="176.765"/>
					
						<rect x="149.84" y="140.716" transform="matrix(0.5253 0.8509 -0.8509 0.5253 211.0279 -49.6109)" fill="#7AC2F7" width="0.283" height="47.256"/>
				</g>
				<g>
					<line fill="#7AC2F7" x1="170.081" y1="151.924" x2="238.461" y2="163.639"/>
					
						<rect x="204.091" y="123.092" transform="matrix(-0.1679 0.9858 -0.9858 -0.1679 394.1116 -17.0973)" fill="#7AC2F7" width="0.361" height="69.377"/>
				</g>
				<g>
					<line fill="#7AC2F7" x1="170.081" y1="151.924" x2="174.145" y2="100.668"/>
					
						<rect x="146.405" y="126.148" transform="matrix(-0.0791 0.9969 -0.9969 -0.0791 311.6198 -35.2937)" fill="#7AC2F7" width="51.416" height="0.297"/>
				</g>
				<g>
					<line fill="#7AC2F7" x1="170.081" y1="151.924" x2="136.083" y2="86.234"/>
					
						<rect x="116.098" y="118.89" transform="matrix(0.4596 0.8881 -0.8881 0.4596 188.472 -71.6078)" fill="#7AC2F7" width="73.968" height="0.376"/>
				</g>
				<g>
					<line fill="#7AC2F7" x1="170.081" y1="151.924" x2="119.416" y2="129.292"/>
					
						<rect x="117.004" y="140.452" transform="matrix(0.913 0.4079 -0.4079 0.913 69.9358 -46.8111)" fill="#7AC2F7" width="55.49" height="0.311"/>
				</g>
				<g>
					<line fill="#7AC2F7" x1="170.081" y1="151.924" x2="182.77" y2="113.937"/>
					
						<rect x="176.296" y="112.906" transform="matrix(0.9464 0.3231 -0.3231 0.9464 52.4048 -49.868)" fill="#7AC2F7" width="0.257" height="40.049"/>
				</g>
			</g>
			<g>
				<g>
					<line fill="#7AC2F7" x1="282.837" y1="154.358" x2="257.498" y2="126.774"/>
					
						<rect x="251.439" y="140.442" transform="matrix(0.6765 0.7364 -0.7364 0.6765 190.8983 -153.4837)" fill="#7AC2F7" width="37.456" height="0.247"/>
				</g>
				<g>
					<line fill="#7AC2F7" x1="282.837" y1="154.358" x2="217.358" y2="161.059"/>
					
						<rect x="249.924" y="124.798" transform="matrix(0.1067 0.9943 -0.9943 0.1067 380.2125 -107.7935)" fill="#7AC2F7" width="0.348" height="65.821"/>
				</g>
				<g>
					<line fill="#7AC2F7" x1="282.837" y1="154.358" x2="238.461" y2="163.639"/>
					
						<rect x="260.511" y="136.33" transform="matrix(0.2016 0.9795 -0.9795 0.2016 363.8493 -128.3483)" fill="#7AC2F7" width="0.276" height="45.337"/>
				</g>
				<g>
					<line fill="#7AC2F7" x1="282.837" y1="154.358" x2="286.992" y2="97.152"/>
					
						<rect x="256.237" y="125.596" transform="matrix(-0.0724 0.9974 -0.9974 -0.0724 430.9756 -149.3029)" fill="#7AC2F7" width="57.356" height="0.318"/>
				</g>
				<g>
					<line fill="#7AC2F7" x1="282.837" y1="154.358" x2="286.992" y2="97.152"/>
					
						<rect x="256.237" y="125.596" transform="matrix(-0.0724 0.9974 -0.9974 -0.0724 430.9756 -149.3029)" fill="#7AC2F7" width="57.356" height="0.318"/>
				</g>
				<g>
					<line fill="#7AC2F7" x1="282.837" y1="154.358" x2="308.919" y2="126.634"/>
					
						<rect x="295.752" y="121.464" transform="matrix(0.7245 0.6893 -0.6893 0.7245 178.3493 -165.232)" fill="#7AC2F7" width="0.249" height="38.062"/>
				</g>
				<g>
					<line fill="#7AC2F7" x1="282.837" y1="154.358" x2="284.609" y2="98.655"/>
					
						<rect x="255.858" y="126.352" transform="matrix(-0.0318 0.9995 -0.9995 -0.0318 419.1896 -153.0493)" fill="#7AC2F7" width="55.73" height="0.311"/>
				</g>
			</g>
			<g>
				<g>
					<line fill="#7AC2F7" x1="376.189" y1="136.997" x2="308.919" y2="126.634"/>
					
						<rect x="342.377" y="97.782" transform="matrix(-0.1568 0.9876 -0.9876 -0.1568 526.4551 -185.8307)" fill="#7AC2F7" width="0.355" height="68.067"/>
				</g>
			</g>
			<g>
				<g>
					<line fill="#7AC2F7" x1="215.603" y1="40.439" x2="220.357" y2="85.361"/>
					
						<rect x="195.393" y="62.762" transform="matrix(0.1053 0.9944 -0.9944 0.1053 257.5768 -160.4916)" fill="#7AC2F7" width="45.174" height="0.275"/>
				</g>
				<g>
					<line fill="#7AC2F7" x1="215.603" y1="40.439" x2="174.145" y2="100.668"/>
					
						<rect x="194.687" y="33.994" transform="matrix(0.8227 0.5685 -0.5685 0.8227 74.6699 -98.2791)" fill="#7AC2F7" width="0.373" height="73.119"/>
				</g>
				<g>
					<line fill="#7AC2F7" x1="215.603" y1="40.439" x2="164.394" y2="53.513"/>
					
						<rect x="189.847" y="20.551" transform="matrix(0.2441 0.9698 -0.9698 0.2441 189.183 -148.741)" fill="#7AC2F7" width="0.302" height="52.851"/>
				</g>
				<g>
					<line fill="#7AC2F7" x1="215.603" y1="40.439" x2="169.6" y2="28.448"/>
					
						<rect x="168.832" y="34.301" transform="matrix(0.9677 0.2522 -0.2522 0.9677 14.9129 -47.4617)" fill="#7AC2F7" width="47.54" height="0.285"/>
				</g>
				<g>
					<line fill="#7AC2F7" x1="215.603" y1="40.439" x2="263.08" y2="70.206"/>
					
						<rect x="211.322" y="55.165" transform="matrix(0.8472 0.5312 -0.5312 0.8472 65.9472 -118.6872)" fill="#7AC2F7" width="56.037" height="0.314"/>
				</g>
			</g>
			<g>
				<g>
					<line fill="#7AC2F7" x1="342.604" y1="104.874" x2="376.189" y2="136.997"/>
					
						<rect x="336.161" y="120.796" transform="matrix(0.7227 0.6912 -0.6912 0.7227 183.2618 -214.8743)" fill="#7AC2F7" width="46.475" height="0.279"/>
				</g>
				<g>
					<line fill="#7AC2F7" x1="342.604" y1="104.874" x2="282.837" y2="154.358"/>
					
						<rect x="312.526" y="90.821" transform="matrix(0.636 0.7717 -0.7717 0.636 213.8661 -194.1463)" fill="#7AC2F7" width="0.388" height="77.592"/>
				</g>
				<g>
					<line fill="#7AC2F7" x1="342.604" y1="104.874" x2="286.992" y2="97.152"/>
					
						<rect x="314.642" y="72.94" transform="matrix(-0.1334 0.9911 -0.9911 -0.1334 456.8994 -197.499)" fill="#7AC2F7" width="0.315" height="56.147"/>
				</g>
				<g>
					<line fill="#7AC2F7" x1="342.604" y1="104.874" x2="286.992" y2="97.152"/>
					
						<rect x="314.642" y="72.94" transform="matrix(-0.1334 0.9911 -0.9911 -0.1334 456.8994 -197.499)" fill="#7AC2F7" width="0.315" height="56.147"/>
				</g>
				<g>
					<line fill="#7AC2F7" x1="342.604" y1="104.874" x2="308.919" y2="126.634"/>
					
						<rect x="325.633" y="95.702" transform="matrix(0.5468 0.8373 -0.8373 0.5468 244.5564 -220.2896)" fill="#7AC2F7" width="0.257" height="40.104"/>
				</g>
				<g>
					<line fill="#7AC2F7" x1="342.604" y1="104.874" x2="284.609" y2="98.655"/>
					
						<rect x="313.446" y="72.601" transform="matrix(-0.1066 0.9943 -0.9943 -0.1066 448.2182 -199.208)" fill="#7AC2F7" width="0.321" height="58.328"/>
				</g>
			</g>
			<g>
				<g>
					<line fill="#7AC2F7" x1="-78.724" y1="126.377" x2="-78.744" y2="53.611"/>
					
						<rect x="-115.117" y="89.807" transform="matrix(3.019134e-004 1 -1 3.019134e-004 11.284 168.7009)" fill="#7AC2F7" width="72.767" height="0.374"/>
				</g>
				<g>
					<line fill="#7AC2F7" x1="-78.724" y1="126.377" x2="-112.838" y2="122.268"/>
					
						<rect x="-95.899" y="107.14" transform="matrix(-0.122 0.9925 -0.9925 -0.122 15.9275 234.5539)" fill="#7AC2F7" width="0.236" height="34.363"/>
				</g>
				<g>
					<line fill="#7AC2F7" x1="-78.724" y1="126.377" x2="-113.936" y2="72.987"/>
					
						<rect x="-128.307" y="99.512" transform="matrix(0.5506 0.8348 -0.8348 0.5506 39.92 125.2173)" fill="#7AC2F7" width="63.957" height="0.34"/>
				</g>
				<g>
					<line fill="#7AC2F7" x1="-78.724" y1="126.377" x2="-20.437" y2="147.278"/>
					
						<rect x="-80.541" y="136.661" transform="matrix(0.9413 0.3375 -0.3375 0.9413 43.2754 24.766)" fill="#7AC2F7" width="61.921" height="0.334"/>
				</g>
				<g>
					<line fill="#7AC2F7" x1="-78.724" y1="126.377" x2="-126.96" y2="79.151"/>
					
						<rect x="-136.596" y="102.588" transform="matrix(0.7146 0.6996 -0.6996 0.7146 42.536 101.2795)" fill="#7AC2F7" width="67.508" height="0.354"/>
				</g>
				<g>
					<line fill="#7AC2F7" x1="-78.724" y1="126.377" x2="-49.957" y2="104.134"/>
					
						<rect x="-64.461" y="97.074" transform="matrix(0.608 0.794 -0.794 0.608 66.2857 96.2665)" fill="#7AC2F7" width="0.244" height="36.365"/>
				</g>
				<g>
					<line fill="#7AC2F7" x1="-78.724" y1="126.377" x2="-49.957" y2="104.134"/>
					
						<rect x="-64.461" y="97.074" transform="matrix(0.608 0.794 -0.794 0.608 66.2857 96.2665)" fill="#7AC2F7" width="0.244" height="36.365"/>
				</g>
				<g>
					<line fill="#7AC2F7" x1="-78.724" y1="126.377" x2="-30.262" y2="138.611"/>
					
						<rect x="-79.484" y="132.347" transform="matrix(0.9696 0.2447 -0.2447 0.9696 30.7674 17.3644)" fill="#7AC2F7" width="49.983" height="0.293"/>
				</g>
				<g>
					<line fill="#7AC2F7" x1="-78.724" y1="126.377" x2="-24.133" y2="86.566"/>
					
						<rect x="-51.604" y="72.689" transform="matrix(0.5887 0.8084 -0.8084 0.5887 64.9157 85.3686)" fill="#7AC2F7" width="0.353" height="67.566"/>
				</g>
				<g>
					<line fill="#7AC2F7" x1="-78.724" y1="126.377" x2="-24.133" y2="86.566"/>
					
						<rect x="-51.604" y="72.689" transform="matrix(0.5887 0.8084 -0.8084 0.5887 64.9157 85.3686)" fill="#7AC2F7" width="0.353" height="67.566"/>
				</g>
			</g>
		</g>
		<circle fill="#7AC2F7" cx="-24.133" cy="86.566" r="1.099"/>
		<circle fill="#7AC2F7" cx="-23.058" cy="63.08" r="1.099"/>
		<circle fill="#7AC2F7" cx="-24.133" cy="86.566" r="1.099"/>
		<circle fill="#7AC2F7" cx="-23.058" cy="63.08" r="1.099"/>
		<circle fill="#7AC2F7" cx="-23.058" cy="63.08" r="1.099"/>
		<circle fill="#7AC2F7" cx="-30.261" cy="138.611" r="1.099"/>
		<circle fill="#7AC2F7" cx="-24.133" cy="86.566" r="1.099"/>
		<circle fill="#7AC2F7" cx="-30.261" cy="138.611" r="1.099"/>
		<circle fill="#7AC2F7" cx="-24.133" cy="86.566" r="1.099"/>
		<circle fill="#7AC2F7" cx="-30.261" cy="138.611" r="1.099"/>
		<circle fill="#7AC2F7" cx="-24.133" cy="86.566" r="1.099"/>
		<circle fill="#7AC2F7" cx="47.012" cy="105.507" r="1.099"/>
		<circle fill="#7AC2F7" cx="-24.133" cy="86.566" r="1.099"/>
		<circle fill="#7AC2F7" cx="47.012" cy="105.507" r="1.099"/>
		<circle fill="#7AC2F7" cx="47.012" cy="105.507" r="1.099"/>
		<circle fill="#7AC2F7" cx="69.343" cy="88.092" r="1.099"/>
		<circle fill="#7AC2F7" cx="69.343" cy="88.092" r="1.099"/>
		<circle fill="#7AC2F7" cx="47.661" cy="56.15" r="1.099"/>
		<circle fill="#7AC2F7" cx="47.012" cy="105.507" r="1.099"/>
		<circle fill="#7AC2F7" cx="47.661" cy="56.15" r="1.099"/>
		<circle fill="#7AC2F7" cx="-23.058" cy="63.08" r="1.099"/>
		<circle fill="#7AC2F7" cx="47.661" cy="56.15" r="1.099"/>
		<circle fill="#7AC2F7" cx="-24.133" cy="86.566" r="1.099"/>
		<circle fill="#7AC2F7" cx="47.661" cy="56.15" r="1.099"/>
		<circle fill="#7AC2F7" cx="-24.133" cy="86.566" r="1.099"/>
		<circle fill="#7AC2F7" cx="47.661" cy="56.15" r="1.099"/>
		<circle fill="#7AC2F7" cx="-23.058" cy="63.08" r="1.099"/>
		<circle fill="#7AC2F7" cx="-34.46" cy="50.282" r="1.099"/>
		<circle fill="#7AC2F7" cx="-24.133" cy="86.566" r="1.099"/>
		<circle fill="#7AC2F7" cx="-34.46" cy="50.282" r="1.099"/>
		<circle fill="#7AC2F7" cx="-24.133" cy="86.566" r="1.099"/>
		<circle fill="#7AC2F7" cx="-34.46" cy="50.282" r="1.099"/>
		<circle fill="#7AC2F7" cx="-213.713" cy="47.247" r="1.099"/>
		<circle fill="#7AC2F7" cx="-166.464" cy="71.777" r="1.099"/>
		<circle fill="#7AC2F7" cx="-34.46" cy="50.282" r="1.099"/>
		<circle fill="#7AC2F7" cx="-49.956" cy="104.134" r="1.099"/>
		<circle fill="#7AC2F7" cx="-30.261" cy="138.611" r="1.099"/>
		<circle fill="#7AC2F7" cx="-49.956" cy="104.134" r="1.099"/>
		<circle fill="#7AC2F7" cx="-23.058" cy="63.08" r="1.099"/>
		<circle fill="#7AC2F7" cx="-49.956" cy="104.134" r="1.099"/>
		<circle fill="#7AC2F7" cx="-24.133" cy="86.566" r="1.099"/>
		<circle fill="#7AC2F7" cx="-49.956" cy="104.134" r="1.099"/>
		<circle fill="#7AC2F7" cx="-24.133" cy="86.566" r="1.099"/>
		<circle fill="#7AC2F7" cx="-49.956" cy="104.134" r="1.099"/>
		<circle fill="#7AC2F7" cx="-34.46" cy="50.282" r="1.099"/>
		<circle fill="#7AC2F7" cx="-49.956" cy="104.134" r="1.099"/>
		<circle fill="#7AC2F7" cx="-30.261" cy="138.611" r="1.099"/>
		<circle fill="#7AC2F7" cx="-49.956" cy="104.134" r="1.099"/>
		<circle fill="#7AC2F7" cx="-23.058" cy="63.08" r="1.099"/>
		<circle fill="#7AC2F7" cx="-49.956" cy="104.134" r="1.099"/>
		<circle fill="#7AC2F7" cx="-24.133" cy="86.566" r="1.099"/>
		<circle fill="#7AC2F7" cx="-49.956" cy="104.134" r="1.099"/>
		<circle fill="#7AC2F7" cx="-24.133" cy="86.566" r="1.099"/>
		<circle fill="#7AC2F7" cx="-49.956" cy="104.134" r="1.099"/>
		<circle fill="#7AC2F7" cx="-166.464" cy="71.777" r="1.099"/>
		<circle fill="#7AC2F7" cx="-126.96" cy="79.151" r="1.099"/>
		<circle fill="#7AC2F7" cx="47.661" cy="56.15" r="1.099"/>
		<circle fill="#7AC2F7" cx="42.443" cy="129.146" r="1.099"/>
		<circle fill="#7AC2F7" cx="69.343" cy="88.092" r="1.099"/>
		<circle fill="#7AC2F7" cx="42.443" cy="129.146" r="1.099"/>
		<circle fill="#7AC2F7" cx="47.012" cy="105.507" r="1.099"/>
		<circle fill="#7AC2F7" cx="42.443" cy="129.146" r="1.099"/>
		<circle fill="#7AC2F7" cx="-30.261" cy="138.611" r="1.099"/>
		<circle fill="#7AC2F7" cx="42.443" cy="129.146" r="1.099"/>
		<circle fill="#7AC2F7" cx="-34.46" cy="50.282" r="1.099"/>
		<circle fill="#7AC2F7" cx="9.731" cy="12.673" r="1.099"/>
		<circle fill="#7AC2F7" cx="47.661" cy="56.15" r="1.099"/>
		<circle fill="#7AC2F7" cx="9.731" cy="12.673" r="1.099"/>
		<circle fill="#7AC2F7" cx="-23.058" cy="63.08" r="1.099"/>
		<circle fill="#7AC2F7" cx="9.731" cy="12.673" r="1.099"/>
		<circle fill="#7AC2F7" cx="263.08" cy="70.206" r="1.099"/>
		<circle fill="#7AC2F7" cx="284.609" cy="98.655" r="1.099"/>
		<circle fill="#7AC2F7" cx="182.77" cy="113.937" r="1.099"/>
		<circle fill="#7AC2F7" cx="119.416" cy="129.291" r="1.099"/>
		<circle fill="#7AC2F7" cx="42.443" cy="129.146" r="1.099"/>
		<circle fill="#7AC2F7" cx="119.416" cy="129.291" r="1.099"/>
		<circle fill="#7AC2F7" cx="69.343" cy="88.092" r="1.099"/>
		<circle fill="#7AC2F7" cx="119.416" cy="129.291" r="1.099"/>
		<circle fill="#7AC2F7" cx="47.012" cy="105.507" r="1.099"/>
		<circle fill="#7AC2F7" cx="119.416" cy="129.291" r="1.099"/>
		<circle fill="#7AC2F7" cx="169.599" cy="28.448" r="1.099"/>
		<circle fill="#7AC2F7" cx="164.394" cy="53.513" r="1.099"/>
		<circle fill="#7AC2F7" cx="182.77" cy="113.937" r="1.099"/>
		<circle fill="#7AC2F7" cx="164.394" cy="53.513" r="1.099"/>
		<circle fill="#7AC2F7" cx="284.609" cy="98.655" r="1.099"/>
		<circle fill="#7AC2F7" cx="308.918" cy="126.633" r="1.099"/>
		<circle fill="#7AC2F7" cx="263.08" cy="70.206" r="1.099"/>
		<circle fill="#7AC2F7" cx="308.918" cy="126.633" r="1.099"/>
		<circle fill="#7AC2F7" cx="164.394" cy="53.513" r="1.099"/>
		<circle fill="#7AC2F7" cx="136.083" cy="86.234" r="1.099"/>
		<circle fill="#7AC2F7" cx="119.416" cy="129.291" r="1.099"/>
		<circle fill="#7AC2F7" cx="136.083" cy="86.234" r="1.099"/>
		<circle fill="#7AC2F7" cx="169.599" cy="28.448" r="1.099"/>
		<circle fill="#7AC2F7" cx="136.083" cy="86.234" r="1.099"/>
		<circle fill="#7AC2F7" cx="182.77" cy="113.937" r="1.099"/>
		<circle fill="#7AC2F7" cx="136.083" cy="86.234" r="1.099"/>
		<circle fill="#7AC2F7" cx="69.343" cy="88.092" r="1.099"/>
		<circle fill="#7AC2F7" cx="136.083" cy="86.234" r="1.099"/>
		<circle fill="#7AC2F7" cx="308.918" cy="126.633" r="1.099"/>
		<circle fill="#7AC2F7" cx="286.992" cy="97.152" r="1.099"/>
		<circle fill="#7AC2F7" cx="284.609" cy="98.655" r="1.099"/>
		<circle fill="#7AC2F7" cx="286.992" cy="97.152" r="1.099"/>
		<circle fill="#7AC2F7" cx="263.08" cy="70.206" r="1.099"/>
		<circle fill="#7AC2F7" cx="286.992" cy="97.152" r="1.099"/>
		<circle fill="#7AC2F7" cx="308.918" cy="126.633" r="1.099"/>
		<circle fill="#7AC2F7" cx="286.992" cy="97.152" r="1.099"/>
		<circle fill="#7AC2F7" cx="284.609" cy="98.655" r="1.099"/>
		<circle fill="#7AC2F7" cx="286.992" cy="97.152" r="1.099"/>
		<circle fill="#7AC2F7" cx="263.08" cy="70.206" r="1.099"/>
		<circle fill="#7AC2F7" cx="286.992" cy="97.152" r="1.099"/>
		<circle fill="#7AC2F7" cx="136.083" cy="86.234" r="1.099"/>
		<circle fill="#7AC2F7" cx="174.145" cy="100.668" r="1.099"/>
		<circle fill="#7AC2F7" cx="164.394" cy="53.513" r="1.099"/>
		<circle fill="#7AC2F7" cx="174.145" cy="100.668" r="1.099"/>
		<circle fill="#7AC2F7" cx="119.416" cy="129.291" r="1.099"/>
		<circle fill="#7AC2F7" cx="174.145" cy="100.668" r="1.099"/>
		<circle fill="#7AC2F7" cx="169.599" cy="28.448" r="1.099"/>
		<circle fill="#7AC2F7" cx="174.145" cy="100.668" r="1.099"/>
		<circle fill="#7AC2F7" cx="182.77" cy="113.937" r="1.099"/>
		<circle fill="#7AC2F7" cx="174.145" cy="100.668" r="1.099"/>
		<circle fill="#7AC2F7" cx="182.77" cy="113.937" r="1.099"/>
		<circle fill="#7AC2F7" cx="238.461" cy="163.638" r="1.099"/>
		<circle fill="#7AC2F7" cx="119.416" cy="129.291" r="1.099"/>
		<circle fill="#7AC2F7" cx="89.117" cy="164.546" r="1.099"/>
		<circle fill="#7AC2F7" cx="42.443" cy="129.146" r="1.099"/>
		<circle fill="#7AC2F7" cx="89.117" cy="164.546" r="1.099"/>
		<circle fill="#7AC2F7" cx="47.012" cy="105.507" r="1.099"/>
		<circle fill="#7AC2F7" cx="89.117" cy="164.546" r="1.099"/>
		<circle fill="#7AC2F7" cx="42.443" cy="129.146" r="1.099"/>
		<circle fill="#7AC2F7" cx="-20.437" cy="147.278" r="1.099"/>
		<circle fill="#7AC2F7" cx="-49.956" cy="104.134" r="1.099"/>
		<circle fill="#7AC2F7" cx="-20.437" cy="147.278" r="1.099"/>
		<circle fill="#7AC2F7" cx="-49.956" cy="104.134" r="1.099"/>
		<circle fill="#7AC2F7" cx="-20.437" cy="147.278" r="1.099"/>
		<circle fill="#7AC2F7" cx="-30.261" cy="138.611" r="1.099"/>
		<circle fill="#7AC2F7" cx="-20.437" cy="147.278" r="1.099"/>
		<circle fill="#7AC2F7" cx="-24.133" cy="86.566" r="1.099"/>
		<circle fill="#7AC2F7" cx="-20.437" cy="147.278" r="1.099"/>
		<circle fill="#7AC2F7" cx="-24.133" cy="86.566" r="1.099"/>
		<circle fill="#7AC2F7" cx="-20.437" cy="147.278" r="1.099"/>
		<circle fill="#7AC2F7" cx="89.117" cy="164.546" r="1.099"/>
		<circle fill="#7AC2F7" cx="129.88" cy="176.764" r="1.099"/>
		<circle fill="#7AC2F7" cx="119.416" cy="129.291" r="1.099"/>
		<circle fill="#7AC2F7" cx="129.88" cy="176.764" r="1.099"/>
		<circle fill="#7AC2F7" cx="238.461" cy="163.638" r="1.099"/>
		<circle fill="#7AC2F7" cx="217.358" cy="161.058" r="1.099"/>
		<circle fill="#7AC2F7" cx="174.145" cy="100.668" r="1.099"/>
		<circle fill="#7AC2F7" cx="217.358" cy="161.058" r="1.099"/>
		<circle fill="#7AC2F7" cx="182.77" cy="113.937" r="1.099"/>
		<circle fill="#7AC2F7" cx="217.358" cy="161.058" r="1.099"/>
		<circle fill="#7AC2F7" cx="217.358" cy="161.058" r="1.099"/>
		<circle fill="#7AC2F7" cx="257.497" cy="126.774" r="1.099"/>
		<circle fill="#7AC2F7" cx="238.461" cy="163.638" r="1.099"/>
		<circle fill="#7AC2F7" cx="257.497" cy="126.774" r="1.099"/>
		<circle fill="#7AC2F7" cx="286.992" cy="97.152" r="1.099"/>
		<circle fill="#7AC2F7" cx="257.497" cy="126.774" r="1.099"/>
		<circle fill="#7AC2F7" cx="286.992" cy="97.152" r="1.099"/>
		<circle fill="#7AC2F7" cx="257.497" cy="126.774" r="1.099"/>
		<circle fill="#7AC2F7" cx="308.918" cy="126.633" r="1.099"/>
		<circle fill="#7AC2F7" cx="257.497" cy="126.774" r="1.099"/>
		<circle fill="#7AC2F7" cx="284.609" cy="98.655" r="1.099"/>
		<circle fill="#7AC2F7" cx="257.497" cy="126.774" r="1.099"/>
		<circle fill="#7AC2F7" cx="263.08" cy="70.206" r="1.099"/>
		<circle fill="#7AC2F7" cx="257.497" cy="126.774" r="1.099"/>
		<circle fill="#7AC2F7" cx="182.77" cy="113.937" r="1.099"/>
		<circle fill="#7AC2F7" cx="257.497" cy="126.774" r="1.099"/>
		<circle fill="#7AC2F7" cx="257.497" cy="126.774" r="1.099"/>
		<circle fill="#7AC2F7" cx="220.358" cy="85.361" r="1.099"/>
		<circle fill="#7AC2F7" cx="217.358" cy="161.058" r="1.099"/>
		<circle fill="#7AC2F7" cx="220.358" cy="85.361" r="1.099"/>
		<circle fill="#7AC2F7" cx="174.145" cy="100.668" r="1.099"/>
		<circle fill="#7AC2F7" cx="220.358" cy="85.361" r="1.099"/>
		<circle fill="#7AC2F7" cx="286.992" cy="97.152" r="1.099"/>
		<circle fill="#7AC2F7" cx="220.358" cy="85.361" r="1.099"/>
		<circle fill="#7AC2F7" cx="286.992" cy="97.152" r="1.099"/>
		<circle fill="#7AC2F7" cx="220.358" cy="85.361" r="1.099"/>
		<circle fill="#7AC2F7" cx="164.394" cy="53.513" r="1.099"/>
		<circle fill="#7AC2F7" cx="220.358" cy="85.361" r="1.099"/>
		<circle fill="#7AC2F7" cx="284.609" cy="98.655" r="1.099"/>
		<circle fill="#7AC2F7" cx="220.358" cy="85.361" r="1.099"/>
		<circle fill="#7AC2F7" cx="169.599" cy="28.448" r="1.099"/>
		<circle fill="#7AC2F7" cx="220.358" cy="85.361" r="1.099"/>
		<circle fill="#7AC2F7" cx="263.08" cy="70.206" r="1.099"/>
		<circle fill="#7AC2F7" cx="220.358" cy="85.361" r="1.099"/>
		<circle fill="#7AC2F7" cx="182.77" cy="113.937" r="1.099"/>
		<circle fill="#7AC2F7" cx="220.358" cy="85.361" r="1.099"/>
		<circle fill="#7AC2F7" cx="-126.96" cy="79.151" r="1.099"/>
		<circle fill="#7AC2F7" cx="-113.936" cy="72.987" r="1.099"/>
		<circle fill="#7AC2F7" cx="-49.956" cy="104.134" r="1.099"/>
		<circle fill="#7AC2F7" cx="-113.936" cy="72.987" r="1.099"/>
		<circle fill="#7AC2F7" cx="-49.956" cy="104.134" r="1.099"/>
		<circle fill="#7AC2F7" cx="-113.936" cy="72.987" r="1.099"/>
		<circle fill="#7AC2F7" cx="-166.464" cy="71.777" r="1.099"/>
		<circle fill="#7AC2F7" cx="-113.936" cy="72.987" r="1.099"/>
		<circle fill="#7AC2F7" cx="-113.936" cy="72.987" r="1.099"/>
		<circle fill="#7AC2F7" cx="-112.838" cy="122.268" r="1.099"/>
		<circle fill="#7AC2F7" cx="-126.96" cy="79.151" r="1.099"/>
		<circle fill="#7AC2F7" cx="-112.838" cy="122.268" r="1.099"/>
		<circle fill="#7AC2F7" cx="-49.956" cy="104.134" r="1.099"/>
		<circle fill="#7AC2F7" cx="-112.838" cy="122.268" r="1.099"/>
		<circle fill="#7AC2F7" cx="-49.956" cy="104.134" r="1.099"/>
		<circle fill="#7AC2F7" cx="-112.838" cy="122.268" r="1.099"/>
		<circle fill="#7AC2F7" cx="-166.464" cy="71.777" r="1.099"/>
		<circle fill="#7AC2F7" cx="-112.838" cy="122.268" r="1.099"/>
		<circle fill="#7AC2F7" cx="-112.838" cy="122.268" r="1.099"/>
		<circle fill="#7AC2F7" cx="-78.744" cy="53.611" r="1.099"/>
		<circle fill="#7AC2F7" cx="-113.936" cy="72.987" r="1.099"/>
		<circle fill="#7AC2F7" cx="-78.744" cy="53.611" r="1.099"/>
		<circle fill="#7AC2F7" cx="-126.96" cy="79.151" r="1.099"/>
		<circle fill="#7AC2F7" cx="-78.744" cy="53.611" r="1.099"/>
		<circle fill="#7AC2F7" cx="-49.956" cy="104.134" r="1.099"/>
		<circle fill="#7AC2F7" cx="-78.744" cy="53.611" r="1.099"/>
		<circle fill="#7AC2F7" cx="-49.956" cy="104.134" r="1.099"/>
		<circle fill="#7AC2F7" cx="-78.744" cy="53.611" r="1.099"/>
		<circle fill="#7AC2F7" cx="-34.46" cy="50.282" r="1.099"/>
		<circle fill="#7AC2F7" cx="-78.744" cy="53.611" r="1.099"/>
		<circle fill="#7AC2F7" cx="-23.058" cy="63.08" r="1.099"/>
		<circle fill="#7AC2F7" cx="-78.744" cy="53.611" r="1.099"/>
		<circle fill="#7AC2F7" cx="-24.133" cy="86.566" r="1.099"/>
		<circle fill="#7AC2F7" cx="-78.744" cy="53.611" r="1.099"/>
		<circle fill="#7AC2F7" cx="-24.133" cy="86.566" r="1.099"/>
		<circle fill="#7AC2F7" cx="-78.744" cy="53.611" r="1.099"/>
		<circle fill="#7AC2F7" cx="9.731" cy="12.673" r="1.099"/>
		<circle fill="#7AC2F7" cx="81.604" cy="24.236" r="1.099"/>
		<circle fill="#7AC2F7" cx="47.661" cy="56.15" r="1.099"/>
		<circle fill="#7AC2F7" cx="81.604" cy="24.236" r="1.099"/>
		<circle fill="#7AC2F7" cx="69.343" cy="88.092" r="1.099"/>
		<circle fill="#7AC2F7" cx="81.604" cy="24.236" r="1.099"/>
		<circle fill="#7AC2F7" cx="81.604" cy="24.236" r="1.099"/>
		<circle fill="#7AC2F7" cx="137.217" cy="31.958" r="1.099"/>
		<circle fill="#7AC2F7" cx="174.145" cy="100.668" r="1.099"/>
		<circle fill="#7AC2F7" cx="137.217" cy="31.958" r="1.099"/>
		<circle fill="#7AC2F7" cx="136.083" cy="86.234" r="1.099"/>
		<circle fill="#7AC2F7" cx="137.217" cy="31.958" r="1.099"/>
		<circle fill="#7AC2F7" cx="164.394" cy="53.513" r="1.099"/>
		<circle fill="#7AC2F7" cx="137.217" cy="31.958" r="1.099"/>
		<circle fill="#7AC2F7" cx="169.599" cy="28.448" r="1.099"/>
		<circle fill="#7AC2F7" cx="137.217" cy="31.958" r="1.099"/>
		<circle fill="#7AC2F7" cx="137.217" cy="31.958" r="1.099"/>
		<circle fill="#7AC2F7" cx="103.909" cy="62.447" r="1.099"/>
		<circle fill="#7AC2F7" cx="81.604" cy="24.236" r="1.099"/>
		<circle fill="#7AC2F7" cx="103.909" cy="62.447" r="1.099"/>
		<circle fill="#7AC2F7" cx="136.083" cy="86.234" r="1.099"/>
		<circle fill="#7AC2F7" cx="103.909" cy="62.447" r="1.099"/>
		<circle fill="#7AC2F7" cx="164.394" cy="53.513" r="1.099"/>
		<circle fill="#7AC2F7" cx="103.909" cy="62.447" r="1.099"/>
		<circle fill="#7AC2F7" cx="119.416" cy="129.291" r="1.099"/>
		<circle fill="#7AC2F7" cx="103.909" cy="62.447" r="1.099"/>
		<circle fill="#7AC2F7" cx="169.599" cy="28.448" r="1.099"/>
		<circle fill="#7AC2F7" cx="103.909" cy="62.447" r="1.099"/>
		<circle fill="#7AC2F7" cx="47.661" cy="56.15" r="1.099"/>
		<circle fill="#7AC2F7" cx="103.909" cy="62.447" r="1.099"/>
		<circle fill="#7AC2F7" cx="69.343" cy="88.092" r="1.099"/>
		<circle fill="#7AC2F7" cx="103.909" cy="62.447" r="1.099"/>
		<circle fill="#7AC2F7" cx="47.012" cy="105.507" r="1.099"/>
		<circle fill="#7AC2F7" cx="103.909" cy="62.447" r="1.099"/>
		<circle fill="#7AC2F7" cx="217.358" cy="161.058" r="1.099"/>
		<circle fill="#7AC2F7" cx="170.08" cy="151.923" r="1.099"/>
		<circle fill="#7AC2F7" cx="129.88" cy="176.764" r="1.099"/>
		<circle fill="#7AC2F7" cx="170.08" cy="151.923" r="1.099"/>
		<circle fill="#7AC2F7" cx="238.461" cy="163.638" r="1.099"/>
		<circle fill="#7AC2F7" cx="170.08" cy="151.923" r="1.099"/>
		<circle fill="#7AC2F7" cx="174.145" cy="100.668" r="1.099"/>
		<circle fill="#7AC2F7" cx="170.08" cy="151.923" r="1.099"/>
		<circle fill="#7AC2F7" cx="136.083" cy="86.234" r="1.099"/>
		<circle fill="#7AC2F7" cx="170.08" cy="151.923" r="1.099"/>
		<circle fill="#7AC2F7" cx="119.416" cy="129.291" r="1.099"/>
		<circle fill="#7AC2F7" cx="170.08" cy="151.923" r="1.099"/>
		<circle fill="#7AC2F7" cx="182.77" cy="113.937" r="1.099"/>
		<circle fill="#7AC2F7" cx="170.08" cy="151.923" r="1.099"/>
		<circle fill="#7AC2F7" cx="257.497" cy="126.774" r="1.099"/>
		<circle fill="#7AC2F7" cx="282.837" cy="154.358" r="1.099"/>
		<circle fill="#7AC2F7" cx="217.358" cy="161.058" r="1.099"/>
		<circle fill="#7AC2F7" cx="282.837" cy="154.358" r="1.099"/>
		<circle fill="#7AC2F7" cx="238.461" cy="163.638" r="1.099"/>
		<circle fill="#7AC2F7" cx="282.837" cy="154.358" r="1.099"/>
		<circle fill="#7AC2F7" cx="286.992" cy="97.152" r="1.099"/>
		<circle fill="#7AC2F7" cx="282.837" cy="154.358" r="1.099"/>
		<circle fill="#7AC2F7" cx="286.992" cy="97.152" r="1.099"/>
		<circle fill="#7AC2F7" cx="282.837" cy="154.358" r="1.099"/>
		<circle fill="#7AC2F7" cx="308.918" cy="126.633" r="1.099"/>
		<circle fill="#7AC2F7" cx="282.837" cy="154.358" r="1.099"/>
		<circle fill="#7AC2F7" cx="284.609" cy="98.655" r="1.099"/>
		<circle fill="#7AC2F7" cx="282.837" cy="154.358" r="1.099"/>
		<circle fill="#7AC2F7" cx="308.918" cy="126.633" r="1.099"/>
		<circle fill="#7AC2F7" cx="376.189" cy="136.997" r="1.099"/>
		<circle fill="#7AC2F7" cx="220.358" cy="85.361" r="1.099"/>
		<circle fill="#7AC2F7" cx="215.602" cy="40.438" r="1.1"/>
		<circle fill="#7AC2F7" cx="174.145" cy="100.668" r="1.099"/>
		<circle fill="#7AC2F7" cx="215.602" cy="40.438" r="1.1"/>
		<circle fill="#7AC2F7" cx="164.394" cy="53.513" r="1.099"/>
		<circle fill="#7AC2F7" cx="215.602" cy="40.438" r="1.1"/>
		<circle fill="#7AC2F7" cx="169.599" cy="28.448" r="1.099"/>
		<circle fill="#7AC2F7" cx="215.602" cy="40.438" r="1.1"/>
		<circle fill="#7AC2F7" cx="263.08" cy="70.206" r="1.099"/>
		<circle fill="#7AC2F7" cx="215.602" cy="40.438" r="1.1"/>
		<circle fill="#7AC2F7" cx="376.189" cy="136.997" r="1.099"/>
		<circle fill="#7AC2F7" cx="342.604" cy="104.874" r="1.099"/>
		<circle fill="#7AC2F7" cx="282.837" cy="154.358" r="1.099"/>
		<circle fill="#7AC2F7" cx="342.604" cy="104.874" r="1.099"/>
		<circle fill="#7AC2F7" cx="286.992" cy="97.152" r="1.099"/>
		<circle fill="#7AC2F7" cx="342.604" cy="104.874" r="1.099"/>
		<circle fill="#7AC2F7" cx="286.992" cy="97.152" r="1.099"/>
		<circle fill="#7AC2F7" cx="342.604" cy="104.874" r="1.099"/>
		<circle fill="#7AC2F7" cx="308.918" cy="126.633" r="1.099"/>
		<circle fill="#7AC2F7" cx="342.604" cy="104.874" r="1.099"/>
		<circle fill="#7AC2F7" cx="284.609" cy="98.655" r="1.099"/>
		<circle fill="#7AC2F7" cx="342.604" cy="104.874" r="1.099"/>
		<circle fill="#7AC2F7" cx="-78.744" cy="53.611" r="1.099"/>
		<circle fill="#7AC2F7" cx="-78.724" cy="126.377" r="1.099"/>
		<circle fill="#7AC2F7" cx="-112.838" cy="122.268" r="1.099"/>
		<circle fill="#7AC2F7" cx="-78.724" cy="126.377" r="1.099"/>
		<circle fill="#7AC2F7" cx="-113.936" cy="72.987" r="1.099"/>
		<circle fill="#7AC2F7" cx="-78.724" cy="126.377" r="1.099"/>
		<circle fill="#7AC2F7" cx="-20.437" cy="147.278" r="1.099"/>
		<circle fill="#7AC2F7" cx="-78.724" cy="126.377" r="1.099"/>
		<circle fill="#7AC2F7" cx="-126.96" cy="79.151" r="1.099"/>
		<circle fill="#7AC2F7" cx="-78.724" cy="126.377" r="1.099"/>
		<circle fill="#7AC2F7" cx="-49.956" cy="104.134" r="1.099"/>
		<circle fill="#7AC2F7" cx="-78.724" cy="126.377" r="1.099"/>
		<circle fill="#7AC2F7" cx="-49.956" cy="104.134" r="1.099"/>
		<circle fill="#7AC2F7" cx="-78.724" cy="126.377" r="1.099"/>
		<circle fill="#7AC2F7" cx="-30.261" cy="138.611" r="1.099"/>
		<circle fill="#7AC2F7" cx="-78.724" cy="126.377" r="1.099"/>
		<circle fill="#7AC2F7" cx="-24.133" cy="86.566" r="1.099"/>
		<circle fill="#7AC2F7" cx="-78.724" cy="126.377" r="1.099"/>
		<circle fill="#7AC2F7" cx="-24.133" cy="86.566" r="1.099"/>
		<circle fill="#7AC2F7" cx="-78.724" cy="126.377" r="1.099"/>
	</g>
</g>
</svg>
