<?xml version="1.0" encoding="utf-8"?>
<!-- Generator: Adobe Illustrator 16.0.3, SVG Export Plug-In . SVG Version: 6.00 Build 0)  -->
<!DOCTYPE svg PUBLIC "-//W3C//DTD SVG 1.1//EN" "http://www.w3.org/Graphics/SVG/1.1/DTD/svg11.dtd">
<svg version="1.1" id="Layer_1" xmlns="http://www.w3.org/2000/svg" xmlns:xlink="http://www.w3.org/1999/xlink" x="0px" y="0px"
	 width="24px" height="24px" viewBox="285.64 408.945 24 24" enable-background="new 285.64 408.945 24 24" xml:space="preserve">
<path fill-rule="evenodd" clip-rule="evenodd" fill="#A0A0A0" d="M301.123,420.782c0.292,0.293,0.292,0.768,0,1.061l0,0
	c-0.293,0.293-0.769,0.293-1.062,0l-5.068-5.067c-0.292-0.293-0.292-0.768,0-1.061l0,0c0.293-0.292,0.769-0.292,1.062,0
	L301.123,420.782z"/>
<path fill-rule="evenodd" clip-rule="evenodd" fill="#A0A0A0" d="M300.061,420.881c0.293-0.292,0.768-0.292,1.061,0l0,0
	c0.293,0.293,0.293,0.769,0,1.062l-5.066,5.067c-0.293,0.293-0.769,0.293-1.062,0l0,0c-0.292-0.293-0.292-0.768,0-1.061
	L300.061,420.881z"/>
</svg>
