<?xml version="1.0" encoding="utf-8"?>
<!-- Generator: Adobe Illustrator 16.0.3, SVG Export Plug-In . SVG Version: 6.00 Build 0)  -->
<!DOCTYPE svg PUBLIC "-//W3C//DTD SVG 1.1 Tiny//EN" "http://www.w3.org/Graphics/SVG/1.1/DTD/svg11-tiny.dtd">
<svg version="1.1" baseProfile="tiny" id="圖層_1"
	 xmlns="http://www.w3.org/2000/svg" xmlns:xlink="http://www.w3.org/1999/xlink" x="0px" y="0px" width="18.5px" height="25.5px"
	 viewBox="0 0 18.5 25.5" xml:space="preserve">
<g>
	<path fill-rule="evenodd" fill="#D3D3D3" d="M17.179,9.301c0,2.388,0.002,4.774-0.003,7.161c0,0.177-0.009,0.375-0.087,0.526
		c-0.109,0.216-0.355,0.224-0.574,0.228c-0.341,0.005-0.68-0.002-1.019-0.002c-4.504,0-9.009,0-13.513,0
		c-0.422,0-0.65-0.217-0.65-0.64c-0.001-4.617,0-9.234,0-13.852c0-0.244-0.002-0.488-0.002-0.731c0-0.403,0.163-0.602,0.565-0.63
		c0.338-0.022,0.679-0.008,1.018-0.008c4.496-0.002,8.993-0.004,13.488-0.004c0.12,0,0.242,0.012,0.362,0.031
		c0.289,0.047,0.396,0.16,0.405,0.447c0.012,0.365,0.008,0.731,0.008,1.097C17.179,5.049,17.179,7.175,17.179,9.301L17.179,9.301z
		 M10.025,10.673c0.841-0.558,1.644-1.082,2.438-1.62c0.411-0.28,0.65-0.275,1.012,0.067c0.8,0.76,1.601,1.521,2.404,2.282
		c0.07,0.067,0.152,0.12,0.292,0.23c0-0.213,0-0.349,0-0.483c0-2.771,0-5.542,0-8.313c0-0.388-0.019-0.409-0.416-0.409
		c-4.313-0.001-8.626-0.001-12.939,0c-0.398,0-0.417,0.021-0.417,0.407c0,2.814,0,5.628,0,8.442c0,0.15-0.004,0.298-0.002,0.446
		c0.002,0.162,0.078,0.206,0.217,0.12c0.38-0.24,0.758-0.483,1.138-0.725c1.237-0.782,2.474-1.564,3.711-2.345
		c0.255-0.16,0.535-0.131,0.767,0.076c0.135,0.121,0.262,0.252,0.39,0.383C9.085,9.709,9.552,10.188,10.025,10.673z M3.883,16.013
		c0.013,0.031,0.026,0.061,0.04,0.091c0.083,0.006,0.167,0.016,0.25,0.016c2.508,0.002,5.018,0.002,7.527,0.002
		c1.366,0,2.734,0,4.103-0.002c0.339,0,0.37-0.034,0.37-0.375c0-0.759,0.007-1.516-0.007-2.273
		c-0.003-0.141-0.061-0.318-0.158-0.413c-0.986-0.956-1.982-1.901-2.984-2.841c-0.051-0.05-0.197-0.065-0.256-0.027
		c-1.481,0.96-2.957,1.929-4.435,2.895c-1.305,0.854-2.612,1.702-3.917,2.554C4.233,15.756,4.06,15.887,3.883,16.013z M2.396,15.608
		c0.164-0.083,0.261-0.122,0.347-0.178c1.39-0.906,2.779-1.815,4.168-2.724c0.623-0.406,1.246-0.814,1.868-1.222
		c0.311-0.203,0.313-0.226,0.049-0.494c-0.3-0.303-0.607-0.599-0.899-0.909C7.787,9.931,7.673,9.938,7.503,10.05
		c-0.673,0.438-1.355,0.864-2.035,1.292c-0.952,0.6-1.903,1.196-2.857,1.792c-0.157,0.097-0.222,0.219-0.217,0.406
		c0.012,0.436,0.003,0.87,0.002,1.306C2.396,15.078,2.396,15.309,2.396,15.608z"/>
	<path fill-rule="evenodd" fill="#D3D3D3" d="M9.974,6.23c0.005-0.502,0.38-0.827,0.917-0.847c0.54-0.02,0.881,0.471,0.865,0.877
		c-0.015,0.448-0.339,0.86-0.896,0.857C10.354,7.116,9.97,6.729,9.974,6.23z"/>
</g>
<g>
	<path fill="#AFAFAF" d="M2.4,19.693h0.225L3.68,21.21h0.008v-1.517h0.214v1.864H3.683l-1.061-1.532H2.614v1.532H2.4V19.693z"/>
	<path fill="#AFAFAF" d="M5.883,19.937c0.153,0.179,0.23,0.409,0.23,0.691c0,0.278-0.077,0.508-0.23,0.687
		C5.722,21.501,5.5,21.594,5.22,21.594c-0.278,0-0.498-0.093-0.66-0.279C4.406,21.139,4.33,20.91,4.33,20.628
		c0-0.283,0.076-0.514,0.229-0.689c0.162-0.188,0.383-0.281,0.663-0.281S5.723,19.75,5.883,19.937z M4.716,20.069
		c-0.114,0.141-0.172,0.327-0.172,0.559c0,0.229,0.058,0.415,0.172,0.557c0.12,0.146,0.288,0.219,0.504,0.219
		c0.215,0,0.382-0.071,0.504-0.214c0.117-0.143,0.175-0.33,0.175-0.562c0-0.234-0.058-0.424-0.175-0.566
		c-0.12-0.143-0.287-0.214-0.501-0.214C5.007,19.848,4.838,19.922,4.716,20.069z"/>
	<path fill="#AFAFAF" d="M7.557,19.693h0.212v1.864H7.557V19.693z"/>
	<path fill="#AFAFAF" d="M8.29,19.693h0.267l0.694,1.59h0.008l0.692-1.59h0.266v1.864h-0.214v-1.483H9.995l-0.645,1.483H9.157
		l-0.645-1.483H8.504v1.483H8.29V19.693z"/>
	<path fill="#AFAFAF" d="M11.27,19.693h0.248l0.734,1.864H12.02l-0.199-0.522h-0.856l-0.198,0.522h-0.229L11.27,19.693z
		 M11.032,20.855h0.721L11.4,19.923H11.39L11.032,20.855z"/>
	<path fill="#AFAFAF" d="M13.922,19.826c0.131,0.106,0.213,0.262,0.246,0.465h-0.214c-0.028-0.139-0.091-0.247-0.188-0.323
		c-0.101-0.08-0.234-0.12-0.399-0.12c-0.202,0-0.363,0.071-0.483,0.214c-0.118,0.14-0.177,0.33-0.177,0.572
		c0,0.234,0.057,0.42,0.172,0.556c0.124,0.145,0.307,0.217,0.548,0.217c0.095,0,0.192-0.014,0.293-0.042
		c0.087-0.024,0.165-0.059,0.235-0.104v-0.475h-0.585V20.6h0.796v0.762c-0.085,0.07-0.194,0.127-0.326,0.17
		c-0.136,0.042-0.28,0.063-0.434,0.063c-0.296,0-0.524-0.094-0.687-0.281c-0.151-0.176-0.228-0.402-0.228-0.679
		c0-0.279,0.075-0.507,0.225-0.685c0.158-0.195,0.375-0.292,0.65-0.292C13.602,19.657,13.786,19.714,13.922,19.826z"/>
	<path fill="#AFAFAF" d="M14.653,19.693h1.32v0.186h-1.106v0.624h1.044v0.186h-1.044v0.684h1.151v0.186h-1.365V19.693z"/>
	<path fill="#AFAFAF" d="M2.414,22.378h0.248l0.733,1.864H3.163L2.965,23.72H2.108L1.91,24.242H1.681L2.414,22.378z M2.177,23.54
		h0.721l-0.353-0.933H2.534L2.177,23.54z"/>
	<path fill="#AFAFAF" d="M3.54,22.378h0.234l0.582,1.632h0.008l0.583-1.632h0.234l-0.688,1.864H4.229L3.54,22.378z"/>
	<path fill="#AFAFAF" d="M6.06,22.378h0.248l0.733,1.864H6.809L6.61,23.72H5.754l-0.198,0.522h-0.23L6.06,22.378z M5.821,23.54
		h0.721l-0.353-0.933H6.18L5.821,23.54z"/>
	<path fill="#AFAFAF" d="M7.375,22.378h0.211v1.864H7.375V22.378z"/>
	<path fill="#AFAFAF" d="M8.108,22.378H8.32v1.679h1.078v0.186h-1.29V22.378z"/>
	<path fill="#AFAFAF" d="M10.32,22.378h0.248l0.734,1.864H11.07l-0.199-0.522h-0.856l-0.198,0.522H9.587L10.32,22.378z
		 M10.083,23.54h0.72l-0.352-0.933H10.44L10.083,23.54z"/>
	<path fill="#AFAFAF" d="M11.621,22.378h0.832c0.175,0,0.312,0.042,0.413,0.125c0.099,0.084,0.148,0.199,0.148,0.345
		c0,0.104-0.027,0.195-0.083,0.271c-0.058,0.068-0.134,0.118-0.228,0.149c0.12,0.021,0.215,0.071,0.285,0.151
		c0.069,0.08,0.104,0.181,0.104,0.303c0,0.183-0.064,0.318-0.192,0.407c-0.111,0.075-0.263,0.112-0.452,0.112h-0.827V22.378z
		 M11.835,22.558v0.635h0.566c0.129,0,0.228-0.026,0.298-0.081c0.069-0.056,0.104-0.137,0.104-0.242
		c0-0.104-0.034-0.184-0.103-0.235c-0.065-0.051-0.165-0.076-0.297-0.076H11.835z M11.835,23.37v0.692h0.595
		c0.126,0,0.229-0.024,0.312-0.073c0.092-0.058,0.138-0.147,0.138-0.27c0-0.118-0.04-0.207-0.12-0.266
		c-0.073-0.056-0.183-0.084-0.329-0.084H11.835z"/>
	<path fill="#AFAFAF" d="M13.519,22.378h0.211v1.679h1.078v0.186h-1.289V22.378z"/>
	<path fill="#AFAFAF" d="M15.185,22.378h1.32v0.186h-1.106v0.624h1.044v0.186h-1.044v0.684h1.151v0.186h-1.365V22.378z"/>
</g>
</svg>
