<?xml version="1.0" encoding="utf-8"?>
<!-- Generator: Adobe Illustrator 16.0.3, SVG Export Plug-In . SVG Version: 6.00 Build 0)  -->
<!DOCTYPE svg PUBLIC "-//W3C//DTD SVG 1.1//EN" "http://www.w3.org/Graphics/SVG/1.1/DTD/svg11.dtd">
<svg version="1.1" id="圖層_1" xmlns="http://www.w3.org/2000/svg" xmlns:xlink="http://www.w3.org/1999/xlink" x="0px" y="0px"
	 width="24px" height="24px" viewBox="0 0 24 24" enable-background="new 0 0 24 24" xml:space="preserve">
<g id="Capa_1" display="none">
	<g display="inline">
		<path d="M48.908,720.085c-12.762,0-24.997-6.05-32.739-16.185c-7.744-10.138-10.362-23.536-7.005-35.844l41.087-150.599
			c0.009-0.074,0.021-0.146,0.037-0.203l31.946-117.071c4.891-17.842,21.225-30.318,39.722-30.344h17.496
			c-9.646-31.264-13.399-63.658-11.163-96.326c4.298-41.736,23.799-80.148,54.915-108.213
			c31.101-28.049,71.284-43.496,113.149-43.496c0.435,0,0.875,0,1.312,0.004h2.856c44.851,0.959,86.841,19.094,118.268,51.063
			c31.426,31.969,48.838,74.265,49.027,119.092c-0.348,26.429-4.392,52.609-12.023,77.876h17.557
			c18.505,0.021,34.842,12.498,39.731,30.342l73.071,267.875c2.66,9.829,1.563,20.229-3.09,29.287
			c-0.259,0.516-0.56,1.021-0.891,1.49c-0.881,1.734-1.892,3.421-3.004,5.014c-7.722,10.185-19.906,16.236-32.627,16.236
			L48.908,720.085L48.908,720.085z M161.732,697.244l58.502-70.298c0.062-0.072,0.129-0.141,0.201-0.199l0.053-0.043
			c0.635-0.633,1.343-1.19,2.105-1.661c0.364-0.313,0.747-0.604,1.139-0.869c0.092-0.063,0.189-0.112,0.293-0.153
			c0.64-0.252,1.309-0.448,1.988-0.588c0.627-0.233,1.275-0.41,1.932-0.525c0.086-0.016,0.173-0.022,0.26-0.022
			c0.021,0,0.045,0,0.066,0.002c0.519,0.022,1.043,0.079,1.562,0.168c0.797,0.016,1.595,0.11,2.375,0.285
			c0.149,0.004,0.297,0.03,0.438,0.077l221.014,73.827h92.787c1.617-0.002,3.23-0.223,4.789-0.65l-78.034-26.047
			c-0.261-0.066-0.512-0.134-0.763-0.222l-52.026-17.306c-0.082-0.014-0.161-0.03-0.228-0.053c-1.326-0.445-2.55-1.126-3.633-2.021
			c-0.076-0.063-0.146-0.134-0.208-0.211l-0.025-0.032c-0.643-0.634-1.208-1.342-1.685-2.109c-0.31-0.363-0.598-0.747-0.856-1.141
			c-0.061-0.089-0.108-0.185-0.147-0.284c-0.229-0.593-0.412-1.207-0.542-1.827c-0.264-0.694-0.459-1.423-0.581-2.164
			c-0.017-0.102-0.021-0.203-0.019-0.307c0.019-0.428,0.062-0.856,0.127-1.28c-0.003-0.913,0.104-1.818,0.319-2.699
			c0.009-0.183,0.051-0.359,0.123-0.526c0.259-0.587,0.573-1.155,0.94-1.69c0.273-0.617,0.601-1.213,0.977-1.771
			c0.028-0.042,0.06-0.083,0.093-0.122l104.208-125.053l-9.892-36.266L377.958,631.116c-0.228,0.262-0.451,0.405-0.584,0.486
			c-0.803,0.867-1.794,1.621-2.903,2.196c-0.294,0.171-0.649,0.352-1.002,0.502c-1.346,0.587-2.781,0.903-4.261,0.938
			c-0.001,0-0.002,0-0.004,0c-1.271,0-2.49-0.204-3.661-0.606l-0.107-0.031l-73.009-24.404c-3.151-0.541-6.186-1.566-9.024-3.052
			L69.007,535.469l-8.297,30.405l117.452,39.238c0.05,0.017,0.098,0.036,0.146,0.058c0.631,0.287,1.24,0.638,1.813,1.045
			c0.561,0.249,1.102,0.548,1.609,0.892c0.123,0.081,0.23,0.182,0.324,0.295l0.034,0.043c0.655,0.642,1.229,1.357,1.708,2.134
			c0.311,0.389,0.596,0.8,0.846,1.223c0.041,0.068,0.076,0.141,0.104,0.214c0.229,0.581,0.41,1.188,0.537,1.803
			c0.262,0.701,0.457,1.425,0.579,2.151c0.007,0.042,0.012,0.085,0.016,0.128c0.032,0.395-0.027,0.729-0.074,0.998
			c-0.016,0.094-0.039,0.188-0.039,0.283c0.014,0.958-0.097,1.934-0.33,2.885c-0.008,0.145-0.037,0.285-0.084,0.422
			c-0.424,1.202-1.043,2.313-1.846,3.302c-0.029,0.054-0.061,0.105-0.092,0.157c-0.036,0.06-0.077,0.114-0.121,0.167l-61.652,73.935
			L161.732,697.244L161.732,697.244z M91.898,697.244l63.166-75.715L54.7,588.004l-23.474,86.072
			c-1.523,5.485-0.365,11.447,3.097,15.956c3.43,4.518,8.856,7.211,14.521,7.211c0.004,0,0.102,0,0.104,0L91.898,697.244z
			 M381.599,697.243L232.878,647.56l-41.403,49.684H381.599z M478.969,648.396c0.275,0.066,0.534,0.144,0.794,0.229l84.833,28.365
			c-0.093-0.985-0.266-1.965-0.519-2.93l-37.466-137.483l-83.266,99.926L478.969,648.396z M365.406,610.531l136.641-163.959
			l-11.006-40.371c-2.17-7.957-9.445-13.516-17.691-13.518h-25.047c-30.873,85.868-90.429,163.97-124.253,203.994L365.406,610.531z
			 M297.874,587.947c2.403-0.048,4.612-1.102,6.133-2.906c34.333-40.269,96.26-120.704,125.369-207.078
			c0.124-0.495,0.283-0.986,0.473-1.462c9.524-27.201,14.62-55.67,15.124-84.556c-0.339-80.836-63.938-145.549-144.79-147.293
			h-2.528c-0.469-0.004-0.922-0.006-1.377-0.006c-75.002,0-137.44,56.263-145.235,130.873
			C140.264,397.387,255.6,543.152,291.206,584.925c0.506,0.521,1.146,1.019,1.849,1.42l4.758,1.589
			C297.833,587.938,297.854,587.943,297.874,587.947z M251.521,572.463c-34.416-43.838-79.276-109.348-104.586-179.779h-24.978l0,0
			c-8.245,0.002-15.521,5.558-17.692,13.51l-29.25,107.259L251.521,572.463z"/>
		<path d="M296.354,123.305c0.433,0,0.869,0,1.301,0.004h2.868c91.854,1.965,165.405,76.787,165.795,168.662
			c-0.354,26.922-4.58,53.651-12.552,79.369h19.584c17.888,0.021,33.558,11.986,38.285,29.238l73.07,267.873
			c2.557,9.444,1.494,19.504-2.977,28.207c-0.244,0.486-0.525,0.956-0.845,1.397c-0.862,1.712-1.848,3.36-2.944,4.933
			c-7.451,9.825-19.07,15.596-31.397,15.596c-0.048,0-0.096,0-0.144,0H48.908c-0.004,0-0.006,0-0.01,0
			c-12.367,0-24.029-5.767-31.537-15.595c-7.511-9.832-10.006-22.603-6.75-34.538l41.124-150.732v-0.068l31.947-117.071
			c4.728-17.248,20.393-29.214,38.275-29.238h19.535c-9.996-31.552-13.969-64.704-11.707-97.725
			C138.588,188.163,210.588,123.302,296.354,123.305 M297.755,589.449c2.853,0,5.562-1.261,7.399-3.442
			c32.024-37.562,96.078-119.788,125.662-207.622c0.11-0.451,0.254-0.896,0.426-1.328c9.584-27.367,14.725-56.094,15.229-85.085
			c-0.34-81.057-65.221-147.071-146.258-148.819h-2.562c-0.459-0.004-0.916-0.006-1.375-0.006
			c-75.463,0-138.871,57.015-146.729,132.217c-10.834,122.488,104.818,268.657,140.514,310.534c0.698,0.725,1.5,1.34,2.381,1.824
			l5.021,1.678c0.091,0,0.159,0.05,0.238,0.05C297.72,589.449,297.737,589.449,297.755,589.449 M365.902,612.279l137.797-165.349
			l-11.211-41.124c-2.354-8.632-10.191-14.621-19.14-14.623l0,0h-26.104c-31.291,87.724-93.31,168.007-125.771,206.214
			L365.902,612.279 M255.814,575.479c-34.248-43.127-81.75-111.156-107.824-184.296h-26.033
			c-8.943,0.002-16.782,5.985-19.139,14.613L73.195,514.425L255.814,575.479 M369.175,633.738c-1.067,0-2.133-0.179-3.145-0.525
			l-0.168-0.05l-73.07-24.427c-3.073-0.517-6.044-1.521-8.8-2.977L67.979,533.544l-9.088,33.305l118.797,39.688
			c0.595,0.271,1.16,0.604,1.687,0.991c0.53,0.225,1.041,0.501,1.519,0.822l0.09,0.109c0.613,0.591,1.146,1.257,1.586,1.984
			c0.289,0.354,0.552,0.729,0.785,1.121c0.213,0.539,0.375,1.098,0.485,1.667c0.248,0.642,0.433,1.307,0.545,1.983
			c0.03,0.377-0.118,0.766-0.118,1.161c0.014,0.907-0.097,1.813-0.328,2.688v0.118c-0.383,1.087-0.957,2.095-1.696,2.978
			c-0.029,0.063-0.062,0.128-0.099,0.188l-63.705,76.396h44l58.951-70.838l0.109-0.09c0.594-0.601,1.261-1.123,1.984-1.559
			c0.347-0.304,0.709-0.585,1.092-0.843c0.601-0.236,1.222-0.415,1.854-0.536c0.575-0.224,1.169-0.39,1.775-0.496
			c0.499,0.022,0.997,0.079,1.487,0.168c0.791,0.006,1.574,0.104,2.343,0.287h0.138l221.244,73.904h93.031
			c3.19-0.003,6.334-0.783,9.155-2.274l-81.979-27.362c-0.238-0.062-0.467-0.119-0.695-0.198l-52.194-17.362h-0.07
			c-1.15-0.387-2.219-0.981-3.154-1.756l-0.08-0.099c-0.608-0.593-1.139-1.259-1.578-1.984c-0.297-0.342-0.571-0.703-0.821-1.081
			c-0.215-0.554-0.381-1.124-0.496-1.707c-0.252-0.641-0.435-1.306-0.545-1.983c0.018-0.413,0.061-0.823,0.129-1.23
			c-0.015-0.884,0.092-1.765,0.315-2.619v-0.118c0.24-0.548,0.537-1.069,0.884-1.559c0.247-0.583,0.551-1.143,0.903-1.667
			L520.93,510.088l-10.854-39.794L376.806,630.155c-0.129,0.147-0.309,0.197-0.438,0.327c-0.738,0.81-1.615,1.48-2.588,1.984
			c-0.293,0.169-0.597,0.323-0.904,0.456C371.708,633.433,370.451,633.71,369.175,633.738 M566.173,679.098
			c0.037-1.825-0.182-3.648-0.645-5.417l-38.228-140.275l-86.512,103.824l37.77,12.61c0.257,0.061,0.494,0.129,0.732,0.208
			L566.173,679.098 M48.844,698.743c0.034,0,0.069,0,0.104,0v0.001h43.654l65.022-77.941L53.67,586.078l-23.891,87.604
			c-1.656,5.964-0.414,12.355,3.354,17.265C36.863,695.86,42.677,698.743,48.844,698.743 M188.271,698.743h202.553l-158.442-52.93
			L188.271,698.743 M296.354,120.305L296.354,120.305c-42.237-0.002-82.778,15.582-114.154,43.881
			c-31.393,28.313-51.066,67.067-55.398,109.123c-0.003,0.033-0.006,0.067-0.009,0.103c-2.203,32.175,1.375,64.092,10.635,94.93
			h-15.47c-19.174,0.026-36.102,12.957-41.169,31.445L48.841,516.86c-0.028,0.105-0.052,0.215-0.069,0.322L7.717,667.662
			c-3.48,12.756-0.766,26.644,7.26,37.148c8.023,10.503,20.705,16.773,33.922,16.773h497.5h0.144
			c13.188,0,25.818-6.273,33.788-16.783c0.023-0.031,0.046-0.063,0.068-0.095c1.133-1.621,2.162-3.335,3.063-5.099
			c0.35-0.507,0.668-1.046,0.948-1.605c4.811-9.363,5.948-20.146,3.189-30.335l-73.07-267.878
			c-5.069-18.496-22.002-31.428-41.178-31.449h-15.547c7.3-24.803,11.171-50.46,11.512-76.331c0-0.018,0-0.034,0-0.052
			c-0.191-45.223-17.757-87.887-49.458-120.139c-31.702-32.25-74.062-50.543-119.272-51.51c-0.021,0-0.043,0-0.063,0h-2.869
			C297.236,120.307,296.793,120.305,296.354,120.305L296.354,120.305z M292.282,583.877
			c-35.585-41.761-150.468-187.014-139.745-308.25c7.71-73.795,69.507-129.48,143.74-129.48c0.449,0,0.897,0.002,1.349,0.006h2.555
			c80.01,1.74,142.941,65.772,143.292,145.799c-0.504,28.695-5.564,56.979-15.043,84.059c-0.194,0.499-0.36,1.012-0.492,1.527
			C398.9,463.655,337.122,543.888,302.871,584.06c-1.212,1.439-2.94,2.292-4.792,2.382l-4.402-1.472
			C293.167,584.667,292.699,584.3,292.282,583.877L292.282,583.877z M76.835,512.478l28.879-105.891
			c1.994-7.301,8.675-12.401,16.244-12.403h23.922c24.69,68.172,67.515,131.628,101.396,175.278L76.835,512.478L76.835,512.478z
			 M449.355,394.184h23.993c7.572,0.002,14.252,5.104,16.244,12.412l10.8,39.615L364.911,608.783l-38.291-12.826
			C360.601,555.53,418.735,478.688,449.355,394.184L449.355,394.184z M378.339,632.765c0.204-0.138,0.473-0.345,0.731-0.643
			c0.014-0.016,0.025-0.031,0.04-0.047l129.587-155.442l8.928,32.733L413.917,633.819c-0.065,0.078-0.127,0.16-0.185,0.246
			c-0.398,0.593-0.75,1.222-1.048,1.875c-0.387,0.577-0.722,1.188-0.997,1.819c-0.125,0.284-0.204,0.584-0.236,0.892
			c-0.217,0.924-0.328,1.87-0.334,2.824c-0.064,0.439-0.106,0.887-0.125,1.329c-0.009,0.205,0.003,0.411,0.037,0.613
			c0.131,0.802,0.338,1.589,0.617,2.345c0.145,0.661,0.342,1.314,0.587,1.946c0.077,0.2,0.177,0.391,0.295,0.57
			c0.271,0.41,0.571,0.813,0.893,1.197c0.512,0.81,1.112,1.56,1.787,2.234c0.118,0.141,0.249,0.271,0.392,0.389
			c1.226,1.014,2.607,1.782,4.109,2.287c0.119,0.04,0.239,0.072,0.361,0.097l51.913,17.27c0.276,0.096,0.557,0.171,0.796,0.23
			l71.176,23.759h-90.051l-220.781-73.75c-0.23-0.077-0.469-0.125-0.711-0.146c-0.803-0.172-1.621-0.271-2.439-0.292
			c-0.543-0.089-1.092-0.146-1.634-0.17c-0.045-0.002-0.089-0.003-0.134-0.003c-0.174,0-0.348,0.015-0.52,0.045
			c-0.707,0.124-1.41,0.313-2.086,0.559c-0.727,0.153-1.438,0.367-2.123,0.638c-0.205,0.081-0.4,0.184-0.584,0.307
			c-0.408,0.275-0.806,0.577-1.187,0.898c-0.802,0.505-1.549,1.096-2.226,1.761c-0.146,0.119-0.279,0.253-0.399,0.396
			l-58.054,69.758h-36.186l59.602-71.475c0.088-0.104,0.168-0.218,0.242-0.336c0.022-0.035,0.043-0.069,0.064-0.105
			c0.87-1.098,1.547-2.321,2.014-3.646c0.077-0.221,0.129-0.449,0.153-0.681c0.235-1,0.353-2.024,0.345-3.053
			c0.006-0.032,0.012-0.064,0.018-0.098c0.055-0.314,0.138-0.793,0.091-1.376c-0.007-0.086-0.019-0.172-0.032-0.256
			c-0.131-0.784-0.337-1.563-0.611-2.321c-0.144-0.659-0.34-1.311-0.588-1.937c-0.058-0.146-0.127-0.289-0.207-0.426
			c-0.271-0.458-0.576-0.902-0.91-1.325c-0.518-0.824-1.129-1.59-1.824-2.279c-0.182-0.219-0.395-0.41-0.631-0.568
			c-0.539-0.364-1.111-0.686-1.702-0.956c-0.614-0.427-1.265-0.797-1.938-1.104c-0.095-0.043-0.191-0.081-0.291-0.114
			L62.529,564.902l7.507-27.508l212.778,71.136c2.912,1.508,6.02,2.559,9.244,3.124l72.853,24.354
			c0.032,0.013,0.064,0.021,0.098,0.031l0.112,0.033c1.309,0.441,2.673,0.666,4.054,0.666c0.022,0,0.044,0,0.066-0.001
			c1.676-0.037,3.302-0.396,4.835-1.064c0.369-0.158,0.758-0.353,1.144-0.572C376.383,634.49,377.43,633.706,378.339,632.765
			L378.339,632.765z M445.906,635.776l80.016-96.027l36.713,134.722c0.027,0.103,0.053,0.204,0.077,0.309l-82.47-27.574
			c-0.296-0.099-0.576-0.181-0.855-0.25L445.906,635.776L445.906,635.776z M48.844,698.743v-3c-5.199,0-10.179-2.473-13.32-6.611
			c-3.188-4.15-4.25-9.621-2.854-14.646l23.059-84.557l96.776,32.327l-61.31,73.488h-42.25l0,0l-0.094-0.001L48.844,698.743
			L48.844,698.743z M194.677,695.743l38.697-46.436l139.001,46.436H194.677L194.677,695.743z"/>
	</g>
	
		<path display="inline" fill="none" stroke="#E64C3C" stroke-width="30" stroke-linecap="round" stroke-linejoin="round" stroke-miterlimit="10" d="
		M300.339,131.693c-82.435-2.006-152.586,59.641-161.192,141.65C128.093,398.417,240.698,543.183,282.43,592.117
		c3.752,4.457,9.276,7.038,15.104,7.06s11.37-2.521,15.154-6.95c39.74-46.547,144.147-180.467,144.147-301.332
		C456.849,204.018,387.206,133.171,300.339,131.693z"/>
	<g display="inline">
		<path d="M253.02,382.811c-17.463,0-32.502-12.727-35.512-29.812L198.654,353c-11.758,0-21.428-9.566-21.557-21.328v-89.307
			c0.127-11.776,9.797-21.344,21.555-21.344l180.813-0.002c11.332,0,21.761,6.172,27.218,16.108
			c2.529,4.879,4.374,10.044,5.499,15.386l0.291,1.096c2.436,10.214,4.852,20.168,7.272,30.148l2.23,9.188
			c0.475,1.941,1.108,4.033,1.781,6.246l0.064,0.215c4.89,11.162,5.427,23.66,1.51,35.201c-0.021,0.056-0.041,0.109-0.066,0.162
			c-5.273,11.073-16.605,18.228-28.871,18.228h-8.653c-3.008,17.084-18.047,29.81-35.512,29.81
			c-17.464,0-32.502-12.723-35.51-29.807h-28.189C285.52,370.085,270.48,382.811,253.02,382.811z M352.22,333.156
			c-7.379,0-13.383,6.003-13.383,13.382s6.004,13.382,13.383,13.382c7.378,0,13.381-6.003,13.381-13.382
			S359.598,333.156,352.22,333.156z M253.008,333.156c-7.379,0-13.382,6.003-13.382,13.382s6.003,13.382,13.382,13.382
			s13.383-6.003,13.383-13.382S260.387,333.156,253.008,333.156z M199.947,330.154l20.857-0.045
			c6.074-12.1,18.605-19.865,32.192-19.865c13.586,0,26.116,7.766,32.19,19.863l34.831,0.002
			c6.076-12.098,18.606-19.864,32.191-19.864s26.116,7.766,32.191,19.864h11.918c3.447-0.021,6.578-1.908,8.215-4.938
			c1.055-6.416,0.213-12.937-2.439-18.875c-0.024-0.057-0.048-0.114-0.064-0.175c-0.855-2.811-1.638-5.376-2.228-7.813l-1.559-6.418
			c-2.969-12.006-5.566-22.757-7.938-32.859l-0.251-0.955c-0.708-3.444-1.813-6.721-3.303-9.819
			c-1.411-2.692-4.223-4.396-7.313-4.396l-0.283,0.006l-30.398,0.001v26.764H367.1c6.299,0,11.423,5.124,11.423,11.421
			s-5.124,11.422-11.423,11.422H200.111L199.947,330.154z M325.917,270.629v-26.764h-26.765v26.764H325.917z M276.311,270.629
			v-26.764h-26.764v26.764H276.311z M226.705,270.629v-26.764h-26.374l-0.116,26.764H226.705z"/>
		<path d="M379.465,222.521c10.774,0,20.707,5.869,25.903,15.33c2.449,4.726,4.248,9.762,5.346,14.972l0.31,1.17
			c2.649,11.122,5.288,21.976,7.938,32.89l1.559,6.419c0.507,2.072,1.189,4.306,1.896,6.628c4.76,10.811,5.295,23.012,1.498,34.197
			c-5.056,10.614-15.766,17.372-27.518,17.372c-0.034,0-0.069,0-0.104,0h-9.832c-2.369,17.087-16.977,29.81-34.229,29.81
			c-17.25,0-31.858-12.723-34.229-29.809h-30.755c-2.37,17.087-16.978,29.811-34.228,29.811c-17.252,0-31.859-12.724-34.229-29.811
			h-19.952c-0.063,0-0.121,0.001-0.184,0.001c-10.979,0-19.938-8.842-20.057-19.844v-89.291
			c0.119-11.003,9.075-19.845,20.055-19.845c0.062,0,0.123,0,0.185,0.002h180.269C379.227,222.521,379.346,222.521,379.465,222.521
			 M347.259,272.131h19.842c5.48,0,9.923,4.441,9.923,9.921c0,5.48-4.441,9.921-9.923,9.921H198.619l-0.18,39.686l23.306-0.051
			c5.683-12.121,17.864-19.863,31.252-19.863s25.569,7.742,31.252,19.863v0.002h36.709c5.684-12.123,17.863-19.864,31.252-19.864
			s25.568,7.741,31.252,19.864h12.857c4.078-0.025,7.801-2.321,9.653-5.953c1.16-6.76,0.287-13.711-2.51-19.973
			c-0.824-2.707-1.617-5.308-2.203-7.729l-1.559-6.419c-2.709-10.953-5.357-21.866-7.937-32.849l-0.26-0.992
			c-0.715-3.49-1.856-6.879-3.402-10.09c-1.691-3.231-5.035-5.244-8.663-5.244c-0.11,0-0.224,0.002-0.334,0.006h-31.849v29.764
			 M297.652,272.129h29.765v-29.764h-29.765V272.129 M248.047,272.129h29.764v-29.764h-29.764V272.129 M198.709,272.129h29.496
			v-29.764h-29.367L198.709,272.129 M352.22,361.42c8.22,0,14.881-6.662,14.881-14.882s-6.661-14.882-14.881-14.882
			c-8.219,0-14.883,6.662-14.883,14.882C337.337,354.757,344.001,361.42,352.22,361.42 M253.008,361.42
			c8.219,0,14.883-6.662,14.883-14.882s-6.664-14.882-14.883-14.882s-14.882,6.662-14.882,14.882
			C238.126,354.757,244.789,361.42,253.008,361.42 M379.465,219.521L379.465,219.521l-0.395,0.002H198.838l-0.184-0.002
			c-12.577,0-22.92,10.233-23.055,22.813v89.323c0.135,12.61,10.479,22.844,23.057,22.844l0.209-0.001h17.406
			c1.679,7.967,5.908,15.197,12.082,20.575c6.838,5.956,15.598,9.235,24.666,9.235c9.066,0,17.826-3.281,24.664-9.235
			c6.176-5.378,10.404-12.608,12.084-20.575h25.715c3.628,17.166,18.982,29.809,36.748,29.809c9.067,0,17.827-3.279,24.666-9.234
			c6.175-5.379,10.403-12.608,12.083-20.575h7.312h0.104c12.84,0,24.703-7.49,30.225-19.082c0.051-0.106,0.095-0.215,0.133-0.326
			c4.028-11.868,3.488-24.719-1.52-36.204l-0.039-0.129c-0.667-2.193-1.296-4.266-1.761-6.168l-1.559-6.416l-0.673-2.773
			c-2.378-9.797-4.837-19.93-7.262-30.104c-0.005-0.023-0.012-0.047-0.019-0.07l-0.289-1.098
			c-1.154-5.445-3.039-10.714-5.603-15.659c-0.011-0.021-0.022-0.042-0.033-0.063C402.278,225.992,391.345,219.521,379.465,219.521
			L379.465,219.521z M350.259,245.367h28.849c0.033,0,0.067,0,0.103-0.002c0.077-0.002,0.154-0.004,0.231-0.004
			c2.515,0,4.803,1.375,5.983,3.594c1.425,2.973,2.482,6.115,3.144,9.342c0.012,0.053,0.022,0.105,0.037,0.158l0.25,0.956
			c2.371,10.103,4.968,20.846,7.936,32.846l1.556,6.407c0.6,2.477,1.388,5.063,2.222,7.803l0.026,0.092
			c0.036,0.118,0.08,0.235,0.131,0.35c2.497,5.59,3.313,11.721,2.37,17.764c-1.403,2.422-3.97,3.92-6.794,3.938h-10.986
			c-6.478-12.127-19.266-19.863-33.104-19.863s-26.627,7.736-33.104,19.863h-33.006c-6.477-12.127-19.265-19.864-33.104-19.864
			c-13.841,0-26.63,7.737-33.104,19.868l-18.438,0.039l0.151-33.678h165.495c7.125,0,12.923-5.795,12.923-12.92
			s-5.798-12.922-12.923-12.922h-16.842V245.367L350.259,245.367z M300.654,245.365h23.764v23.764h-23.764V245.365L300.654,245.365z
			 M251.047,245.365h23.764v23.764h-23.764V245.365L251.047,245.365z M201.825,245.365h23.38v23.764h-23.482L201.825,245.365
			L201.825,245.365z M352.22,358.42c-6.552,0-11.883-5.33-11.883-11.882s5.331-11.882,11.883-11.882s11.881,5.33,11.881,11.882
			S358.771,358.42,352.22,358.42L352.22,358.42z M253.008,358.42c-6.552,0-11.882-5.33-11.882-11.882s5.33-11.882,11.882-11.882
			c6.553,0,11.883,5.33,11.883,11.882S259.561,358.42,253.008,358.42L253.008,358.42z"/>
	</g>
</g>
<g>
	<path fill="#CAD3DB" d="M19.04,20.331c-0.202,0-0.366-0.164-0.366-0.366V7.888c0-0.203,0.164-0.366,0.366-0.366
		s0.365,0.163,0.365,0.366v12.077C19.405,20.167,19.242,20.331,19.04,20.331L19.04,20.331z"/>
	<path fill="#33B150" d="M15.746,14.476h-0.182c-0.326,0-0.612-0.216-0.702-0.528l-1.294-4.451c-0.233-0.532-0.76-0.877-1.341-0.877
		H5.359c-0.582,0-1.108,0.345-1.342,0.877l-1.292,4.451c-0.09,0.313-0.377,0.528-0.703,0.528H1.839
		c-0.404,0-0.732,0.327-0.732,0.731v4.025c0,0.405,0.328,0.732,0.732,0.732h13.907c0.405,0,0.733-0.327,0.733-0.732v-4.025
		C16.479,14.803,16.151,14.476,15.746,14.476"/>
	<g>
		<path fill="#485762" d="M3.669,22.893H2.938c-0.404,0-0.732-0.328-0.732-0.731v-2.196h2.196v2.196
			C4.401,22.564,4.074,22.893,3.669,22.893"/>
		<path fill="#485762" d="M14.648,22.893h-0.731c-0.404,0-0.732-0.328-0.732-0.731v-2.196h2.196v2.196
			C15.381,22.564,15.053,22.893,14.648,22.893"/>
	</g>
	<g>
		<path fill="#FFD54E" d="M5.133,17.037c0,0.606-0.492,1.098-1.098,1.098s-1.098-0.491-1.098-1.098s0.491-1.098,1.098-1.098
			S5.133,16.43,5.133,17.037"/>
		<path fill="#FFD54E" d="M14.648,17.037c0,0.606-0.491,1.098-1.098,1.098s-1.098-0.491-1.098-1.098s0.491-1.098,1.098-1.098
			S14.648,16.43,14.648,17.037"/>
	</g>
	<g>
		<path fill="#485762" d="M9.525,18.135H8.061c-0.202,0-0.366-0.163-0.366-0.365c0-0.203,0.164-0.367,0.366-0.367h1.464
			c0.202,0,0.366,0.164,0.366,0.367C9.891,17.972,9.727,18.135,9.525,18.135"/>
		<path fill="#485762" d="M10.257,16.671H7.329c-0.203,0-0.366-0.164-0.366-0.366s0.163-0.365,0.366-0.365h2.928
			c0.203,0,0.366,0.163,0.366,0.365S10.459,16.671,10.257,16.671"/>
	</g>
	<path fill="#FFFFFF" d="M12.327,13.743H5.259c-0.246,0-0.421-0.236-0.351-0.471l0.878-2.928c0.046-0.155,0.188-0.261,0.35-0.261
		h5.312c0.162,0,0.304,0.106,0.351,0.261l0.878,2.928C12.747,13.507,12.572,13.743,12.327,13.743"/>
	<polygon fill="#485762" points="16.845,22.893 21.236,22.893 21.236,21.429 16.845,21.429 	"/>
	<polygon fill="#95ACB9" points="17.942,21.429 20.138,21.429 20.138,19.965 17.942,19.965 	"/>
	<polygon fill="#5290F3" points="16.112,7.888 22.334,7.888 22.334,1.666 16.112,1.666 	"/>
	<g>
		<path fill="#FFFFFF" d="M18.674,6.789c-0.202,0-0.365-0.163-0.365-0.366V3.13c0-0.203,0.163-0.366,0.365-0.366
			c0.203,0,0.366,0.163,0.366,0.366v3.293C19.04,6.626,18.877,6.789,18.674,6.789"/>
		<path fill="#FFFFFF" d="M19.04,4.96h0.365c0.404,0,0.732-0.329,0.732-0.732c0-0.403-0.328-0.731-0.732-0.731H19.04V4.96z
			 M19.405,5.692h-0.731c-0.202,0-0.365-0.164-0.365-0.366V3.13c0-0.203,0.163-0.366,0.365-0.366h0.731
			c0.808,0,1.466,0.656,1.466,1.463C20.871,5.035,20.213,5.692,19.405,5.692L19.405,5.692z"/>
	</g>
</g>
</svg>
