<?xml version="1.0" encoding="utf-8"?>
<!-- Generator: Adobe Illustrator 16.0.3, SVG Export Plug-In . SVG Version: 6.00 Build 0)  -->
<!DOCTYPE svg PUBLIC "-//W3C//DTD SVG 1.1//EN" "http://www.w3.org/Graphics/SVG/1.1/DTD/svg11.dtd">
<svg version="1.1" id="Layer_1" xmlns="http://www.w3.org/2000/svg" xmlns:xlink="http://www.w3.org/1999/xlink" x="0px" y="0px"
	 width="396px" height="194px" viewBox="0 0 396 194" enable-background="new 0 0 396 194" xml:space="preserve">
<line fill="#FFFFFF" x1="59.906" y1="130.546" x2="0.032" y2="143.116"/>
<polyline fill="#FFFFFF" points="0,142.964 59.874,130.394 59.937,130.701 0.063,143.269 "/>
<line fill="#FFFFFF" x1="59.906" y1="130.546" x2="0.032" y2="143.116"/>
<polyline fill="#FFFFFF" points="0,142.964 59.874,130.394 59.937,130.701 0.063,143.269 "/>
<g>
	<g>
		<line fill="#FFFFFF" x1="69.958" y1="109.271" x2="59.906" y2="130.546"/>
		
			<rect x="64.843" y="108.143" transform="matrix(0.9045 0.4265 -0.4265 0.9045 57.3357 -16.2406)" fill="#FFFFFF" width="0.18" height="23.532"/>
	</g>
</g>
<g>
	<line fill="#FFFFFF" x1="41.919" y1="93.684" x2="69.958" y2="109.271"/>
	
		<rect x="39.898" y="101.372" transform="matrix(0.8741 0.4858 -0.4858 0.8741 56.3462 -14.3955)" fill="#FFFFFF" width="32.08" height="0.21"/>
</g>
<g>
	<line fill="#FFFFFF" x1="41.919" y1="93.684" x2="59.906" y2="130.546"/>
	
		<rect x="30.403" y="111.995" transform="matrix(0.4385 0.8987 -0.8987 0.4385 129.345 17.1927)" fill="#FFFFFF" width="41.018" height="0.241"/>
</g>
<line fill="#FFFFFF" x1="50.995" y1="80.033" x2="0.855" y2="111.803"/>
<polyline fill="#FFFFFF" points="0.775,111.673 50.912,79.905 51.076,80.162 0.938,111.932 "/>
<line fill="#FFFFFF" x1="50.995" y1="80.033" x2="8.888" y2="129.725"/>
<polyline fill="#FFFFFF" points="8.764,129.619 50.869,79.928 51.119,80.139 9.014,129.831 "/>
<line fill="#FFFFFF" x1="50.995" y1="80.033" x2="8.888" y2="129.725"/>
<polyline fill="#FFFFFF" points="8.764,129.619 50.869,79.928 51.119,80.139 9.014,129.831 "/>
<g>
	<line fill="#FFFFFF" x1="65.362" y1="149.796" x2="41.919" y2="93.684"/>
	
		<rect x="23.234" y="121.586" transform="matrix(0.3855 0.9227 -0.9227 0.3855 145.2907 25.3133)" fill="#FFFFFF" width="60.813" height="0.31"/>
</g>
<g>
	<line fill="#FFFFFF" x1="65.362" y1="149.796" x2="69.958" y2="109.271"/>
	
		<rect x="67.539" y="109.14" transform="matrix(0.994 0.1095 -0.1095 0.994 14.5963 -6.632)" fill="#FFFFFF" width="0.241" height="40.786"/>
</g>
<g>
	<line fill="#FFFFFF" x1="65.362" y1="149.796" x2="59.906" y2="130.546"/>
	
		<rect x="62.55" y="130.167" transform="matrix(0.9606 -0.2778 0.2778 0.9606 -36.4712 22.9148)" fill="#FFFFFF" width="0.169" height="20.007"/>
</g>
<line fill="#FFFFFF" x1="65.362" y1="149.796" x2="14.96" y2="184.023"/>
<polyline fill="#FFFFFF" points="14.872,183.895 65.276,149.668 65.45,149.923 15.046,184.153 "/>
<line fill="#FFFFFF" x1="6.351" y1="61.873" x2="50.995" y2="80.033"/>
<polyline fill="#FFFFFF" points="6.401,61.749 51.045,79.909 50.944,80.157 6.302,61.996 "/>
<line fill="#FFFFFF" x1="122.526" y1="121.101" x2="163.787" y2="86.001"/>
<polyline fill="#FFFFFF" points="163.879,86.111 122.621,121.21 122.435,120.992 163.693,85.894 "/>
<g>
	<line fill="#FFFFFF" x1="122.526" y1="121.101" x2="65.362" y2="149.796"/>
	
		<rect x="93.785" y="103.467" transform="matrix(0.4521 0.892 -0.892 0.4521 172.2921 -9.5818)" fill="#FFFFFF" width="0.321" height="63.963"/>
</g>
<g>
	<line fill="#FFFFFF" x1="122.526" y1="121.101" x2="69.958" y2="109.271"/>
	
		<rect x="69.301" y="115.042" transform="matrix(0.9756 0.2196 -0.2196 0.9756 27.6406 -18.3216)" fill="#FFFFFF" width="53.884" height="0.286"/>
</g>
<g>
	<line fill="#FFFFFF" x1="122.526" y1="121.101" x2="59.906" y2="130.546"/>
	
		<rect x="59.552" y="125.665" transform="matrix(0.9888 -0.1492 0.1492 0.9888 -17.7477 15.0135)" fill="#FFFFFF" width="63.33" height="0.319"/>
</g>
<line fill="#FFFFFF" x1="127.542" y1="48.047" x2="163.787" y2="86.001"/>
<line fill="#FFFFFF" x1="127.644" y1="47.95" x2="163.888" y2="85.904"/>
<line fill="#FFFFFF" x1="163.686" y1="86.099" x2="127.441" y2="48.144"/>
<line fill="#FFFFFF" x1="118.781" y1="82.917" x2="127.542" y2="48.047"/>
<polyline fill="#FFFFFF" points="127.65,48.074 118.89,82.944 118.673,82.891 127.435,48.02 "/>
<g>
	<line fill="#FFFFFF" x1="118.781" y1="82.917" x2="122.526" y2="121.101"/>
	
		<rect x="120.538" y="82.825" transform="matrix(0.9944 -0.1056 0.1056 0.9944 -10.0943 13.3066)" fill="#FFFFFF" width="0.231" height="38.368"/>
</g>
<line fill="#FFFFFF" x1="118.781" y1="82.917" x2="122.025" y2="27.502"/>
<polyline fill="#FFFFFF" points="122.172,27.509 118.926,82.926 118.634,82.909 121.88,27.493 "/>
<line fill="#FFFFFF" x1="118.781" y1="82.917" x2="163.787" y2="86.001"/>
<polyline fill="#FFFFFF" points="163.778,86.129 118.772,83.044 118.79,82.789 163.796,85.873 "/>
<g>
	<line fill="#FFFFFF" x1="118.781" y1="82.917" x2="69.958" y2="109.271"/>
	
		<rect x="94.224" y="68.353" transform="matrix(0.4738 0.8806 -0.8806 0.4738 134.2806 -32.5401)" fill="#FFFFFF" width="0.292" height="55.481"/>
</g>
<g>
	<line fill="#FFFFFF" x1="152.422" y1="79.385" x2="118.781" y2="82.917"/>
	
		<rect x="118.688" y="81.043" transform="matrix(0.9945 -0.1044 0.1044 0.9945 -7.7323 14.6028)" fill="#FFFFFF" width="33.828" height="0.216"/>
</g>
<line fill="#FFFFFF" x1="152.422" y1="79.385" x2="127.542" y2="48.047"/>
<polyline fill="#FFFFFF" points="127.635,47.974 152.516,79.312 152.33,79.459 127.449,48.121 "/>
<g>
	<line fill="#FFFFFF" x1="152.422" y1="79.385" x2="122.526" y2="121.101"/>
	
		<rect x="137.337" y="74.581" transform="matrix(0.815 0.5794 -0.5794 0.815 83.506 -61.1116)" fill="#FFFFFF" width="0.276" height="51.323"/>
</g>
<line fill="#FFFFFF" x1="152.422" y1="79.385" x2="122.025" y2="27.502"/>
<polyline fill="#FFFFFF" points="122.159,27.424 152.556,79.307 152.291,79.463 121.894,27.579 "/>
<line fill="#FFFFFF" x1="152.422" y1="79.385" x2="163.787" y2="86.001"/>
<polyline fill="#FFFFFF" points="163.75,86.063 152.387,79.447 152.459,79.323 163.823,85.94 "/>
<g>
	<g>
		<line fill="#FFFFFF" x1="113.238" y1="158.597" x2="122.526" y2="121.101"/>
		
			<rect x="117.766" y="120.534" transform="matrix(0.9688 0.248 -0.248 0.9688 38.3601 -24.8635)" fill="#FFFFFF" width="0.232" height="38.628"/>
	</g>
	<g>
		<line fill="#FFFFFF" x1="113.238" y1="158.597" x2="65.362" y2="149.796"/>
		
			<rect x="64.962" y="154.063" transform="matrix(0.9835 0.1808 -0.1808 0.9835 29.3544 -13.6057)" fill="#FFFFFF" width="48.676" height="0.267"/>
	</g>
	<g>
		<line fill="#FFFFFF" x1="113.238" y1="158.597" x2="59.906" y2="130.546"/>
		
			<rect x="56.443" y="144.419" transform="matrix(0.8851 0.4655 -0.4655 0.8851 77.2446 -23.6803)" fill="#FFFFFF" width="60.259" height="0.307"/>
	</g>
</g>
<line fill="#FFFFFF" x1="25.492" y1="186.778" x2="65.362" y2="149.796"/>
<polyline fill="#FFFFFF" points="25.394,186.673 65.266,149.689 65.461,149.902 25.589,186.885 "/>
<g>
	<g>
		<line fill="#FFFFFF" x1="148.055" y1="152.407" x2="113.238" y2="158.597"/>
		
			<rect x="112.965" y="155.392" transform="matrix(0.9846 -0.175 0.175 0.9846 -25.1933 25.2586)" fill="#FFFFFF" width="35.362" height="0.22"/>
	</g>
	<g>
		<line fill="#FFFFFF" x1="148.055" y1="152.407" x2="122.526" y2="121.101"/>
		
			<rect x="115.093" y="136.635" transform="matrix(0.632 0.775 -0.775 0.632 155.7791 -54.5193)" fill="#FFFFFF" width="40.395" height="0.239"/>
	</g>
</g>
<line fill="#FFFFFF" x1="207.084" y1="108.021" x2="152.422" y2="79.385"/>
<polyline fill="#FFFFFF" points="207.01,108.16 152.35,79.524 152.495,79.247 207.155,107.882 "/>
<line fill="#FFFFFF" x1="180.983" y1="50.734" x2="152.422" y2="79.385"/>
<polyline fill="#FFFFFF" points="181.066,50.82 152.508,79.47 152.338,79.301 180.898,50.65 "/>
<line fill="#FFFFFF" x1="180.983" y1="50.734" x2="127.542" y2="48.047"/>
<line fill="#FFFFFF" x1="127.549" y1="47.905" x2="180.99" y2="50.593"/>
<line fill="#FFFFFF" x1="180.977" y1="50.877" x2="127.535" y2="48.189"/>
<line fill="#FFFFFF" x1="55.161" y1="57.303" x2="41.919" y2="93.684"/>
<polyline fill="#FFFFFF" points="55.271,57.343 42.027,93.724 41.808,93.644 55.05,57.263 "/>
<line fill="#FFFFFF" x1="55.161" y1="57.303" x2="69.958" y2="109.271"/>
<polyline fill="#FFFFFF" points="55.298,57.264 70.097,109.23 69.82,109.309 55.024,57.341 "/>
<line fill="#FFFFFF" x1="99.312" y1="42.223" x2="152.422" y2="79.385"/>
<polyline fill="#FFFFFF" points="99.405,42.09 152.516,79.252 152.33,79.518 99.219,42.356 "/>
<line fill="#FFFFFF" x1="99.312" y1="42.223" x2="118.781" y2="82.917"/>
<polyline fill="#FFFFFF" points="99.428,42.168 118.896,82.862 118.666,82.972 99.197,42.278 "/>
<line fill="#FFFFFF" x1="86.008" y1="77.308" x2="99.312" y2="42.223"/>
<polyline fill="#FFFFFF" points="99.419,42.264 86.117,77.348 85.902,77.267 99.205,42.183 "/>
<line fill="#FFFFFF" x1="86.008" y1="77.308" x2="55.161" y2="57.303"/>
<polyline fill="#FFFFFF" points="55.223,57.208 86.07,77.212 85.948,77.402 55.099,57.398 "/>
<g>
	<line fill="#FFFFFF" x1="86.008" y1="77.308" x2="118.781" y2="82.917"/>
	
		<rect x="85.771" y="80.005" transform="matrix(0.9857 0.1687 -0.1687 0.9857 14.9853 -16.1284)" fill="#FFFFFF" width="33.248" height="0.215"/>
</g>
<line fill="#FFFFFF" x1="86.008" y1="77.308" x2="127.542" y2="48.047"/>
<polyline fill="#FFFFFF" points="127.622,48.159 86.088,77.42 85.93,77.194 127.463,47.935 "/>
<g>
	<line fill="#FFFFFF" x1="86.008" y1="77.308" x2="122.526" y2="121.101"/>
	
		<rect x="75.757" y="99.055" transform="matrix(0.6404 0.768 -0.768 0.6404 113.6832 -44.409)" fill="#FFFFFF" width="57.022" height="0.297"/>
</g>
<line fill="#FFFFFF" x1="86.008" y1="77.308" x2="122.025" y2="27.502"/>
<polyline fill="#FFFFFF" points="122.152,27.593 86.135,77.399 85.883,77.215 121.9,27.409 "/>
<g>
	<line fill="#FFFFFF" x1="86.008" y1="77.308" x2="41.919" y2="93.684"/>
	
		<rect x="63.833" y="61.979" transform="matrix(0.3485 0.9373 -0.9373 0.3485 121.8117 -4.2509)" fill="#FFFFFF" width="0.262" height="47.035"/>
</g>
<g>
	<line fill="#FFFFFF" x1="86.008" y1="77.308" x2="69.958" y2="109.271"/>
	
		<rect x="77.872" y="75.404" transform="matrix(0.8949 0.4463 -0.4463 0.8949 49.837 -24.9993)" fill="#FFFFFF" width="0.223" height="35.768"/>
</g>
<g>
	<line fill="#FFFFFF" x1="86.008" y1="77.308" x2="59.906" y2="130.546"/>
	
		<rect x="72.806" y="74.279" transform="matrix(0.8998 0.4362 -0.4362 0.8998 52.6444 -21.4164)" fill="#FFFFFF" width="0.303" height="59.295"/>
</g>
<line fill="#FFFFFF" x1="168.586" y1="118.934" x2="207.084" y2="108.021"/>
<polyline fill="#FFFFFF" points="207.116,108.136 168.619,119.048 168.555,118.819 207.051,107.907 "/>
<g>
	<line fill="#FFFFFF" x1="168.586" y1="118.934" x2="148.055" y2="152.407"/>
	
		<rect x="158.204" y="116.037" transform="matrix(0.8544 0.5197 -0.5197 0.8544 93.5644 -62.5178)" fill="#FFFFFF" width="0.235" height="39.269"/>
</g>
<g>
	<line fill="#FFFFFF" x1="168.586" y1="118.934" x2="152.422" y2="79.385"/>
	
		<rect x="139.142" y="99.037" transform="matrix(0.3783 0.9257 -0.9257 0.3783 191.572 -86.9292)" fill="#FFFFFF" width="42.725" height="0.246"/>
</g>
<g>
	<line fill="#FFFFFF" x1="168.586" y1="118.934" x2="118.781" y2="82.917"/>
	
		<rect x="112.951" y="100.77" transform="matrix(0.8103 0.586 -0.586 0.8103 86.3933 -65.0524)" fill="#FFFFFF" width="61.465" height="0.312"/>
</g>
<g>
	<line fill="#FFFFFF" x1="168.586" y1="118.934" x2="122.526" y2="121.101"/>
	
		<rect x="122.502" y="119.888" transform="matrix(0.9989 -0.047 0.047 0.9989 -5.4783 6.9716)" fill="#FFFFFF" width="46.11" height="0.259"/>
</g>
<line fill="#FFFFFF" x1="168.586" y1="118.934" x2="163.787" y2="86.001"/>
<polyline fill="#FFFFFF" points="163.893,85.986 168.692,118.919 168.48,118.949 163.681,86.017 "/>
<circle fill="#FFFFFF" cx="59.907" cy="130.546" r="0.913"/>
<circle fill="#FFFFFF" cx="59.907" cy="130.546" r="0.913"/>
<circle fill="#FFFFFF" cx="59.907" cy="130.546" r="0.913"/>
<circle fill="#FFFFFF" cx="69.958" cy="109.271" r="0.913"/>
<circle fill="#FFFFFF" cx="69.958" cy="109.271" r="0.913"/>
<circle fill="#FFFFFF" cx="50.995" cy="80.033" r="0.918"/>
<circle fill="#FFFFFF" cx="59.907" cy="130.546" r="0.913"/>
<circle fill="#FFFFFF" cx="50.995" cy="80.033" r="0.918"/>
<circle fill="#FFFFFF" cx="50.995" cy="80.033" r="0.918"/>
<circle fill="#FFFFFF" cx="50.995" cy="80.033" r="0.918"/>
<circle fill="#FFFFFF" cx="50.995" cy="80.033" r="0.918"/>
<circle fill="#FFFFFF" cx="50.995" cy="80.033" r="0.918"/>
<circle fill="#FFFFFF" cx="65.362" cy="149.795" r="0.913"/>
<circle fill="#FFFFFF" cx="69.958" cy="109.271" r="0.913"/>
<circle fill="#FFFFFF" cx="65.362" cy="149.795" r="0.913"/>
<circle fill="#FFFFFF" cx="59.907" cy="130.546" r="0.913"/>
<circle fill="#FFFFFF" cx="65.362" cy="149.795" r="0.913"/>
<circle fill="#FFFFFF" cx="65.362" cy="149.795" r="0.913"/>
<circle fill="#FFFFFF" cx="50.995" cy="80.033" r="0.918"/>
<circle fill="#FFFFFF" cx="122.527" cy="121.101" r="0.914"/>
<circle fill="#FFFFFF" cx="65.362" cy="149.795" r="0.913"/>
<circle fill="#FFFFFF" cx="122.527" cy="121.101" r="0.914"/>
<circle fill="#FFFFFF" cx="69.958" cy="109.271" r="0.913"/>
<circle fill="#FFFFFF" cx="122.527" cy="121.101" r="0.914"/>
<circle fill="#FFFFFF" cx="59.907" cy="130.546" r="0.913"/>
<circle fill="#FFFFFF" cx="122.527" cy="121.101" r="0.914"/>
<circle fill="#FFFFFF" cx="118.781" cy="82.917" r="0.913"/>
<circle fill="#FFFFFF" cx="122.527" cy="121.101" r="0.914"/>
<circle fill="#FFFFFF" cx="118.781" cy="82.917" r="0.913"/>
<circle fill="#FFFFFF" cx="118.781" cy="82.917" r="0.913"/>
<circle fill="#FFFFFF" cx="118.781" cy="82.917" r="0.913"/>
<circle fill="#FFFFFF" cx="69.958" cy="109.271" r="0.913"/>
<circle fill="#FFFFFF" cx="118.781" cy="82.917" r="0.913"/>
<circle fill="#FFFFFF" cx="118.781" cy="82.917" r="0.913"/>
<circle fill="#FFFFFF" cx="152.422" cy="79.385" r="0.913"/>
<circle fill="#FFFFFF" cx="152.422" cy="79.385" r="0.913"/>
<circle fill="#FFFFFF" cx="122.527" cy="121.101" r="0.914"/>
<circle fill="#FFFFFF" cx="152.422" cy="79.385" r="0.913"/>
<circle fill="#FFFFFF" cx="152.422" cy="79.385" r="0.913"/>
<circle fill="#FFFFFF" cx="152.422" cy="79.385" r="0.913"/>
<circle fill="#FFFFFF" cx="122.527" cy="121.101" r="0.914"/>
<circle fill="#FFFFFF" cx="113.238" cy="158.595" r="0.913"/>
<circle fill="#FFFFFF" cx="65.362" cy="149.795" r="0.913"/>
<circle fill="#FFFFFF" cx="113.238" cy="158.595" r="0.913"/>
<circle fill="#FFFFFF" cx="59.907" cy="130.546" r="0.913"/>
<circle fill="#FFFFFF" cx="113.238" cy="158.595" r="0.913"/>
<circle fill="#FFFFFF" cx="65.362" cy="149.795" r="0.913"/>
<circle fill="#FFFFFF" cx="113.238" cy="158.595" r="0.913"/>
<circle fill="#FFFFFF" cx="148.055" cy="152.409" r="0.913"/>
<circle fill="#FFFFFF" cx="122.527" cy="121.101" r="0.914"/>
<circle fill="#FFFFFF" cx="148.055" cy="152.409" r="0.913"/>
<circle fill="#FFFFFF" cx="152.422" cy="79.385" r="0.913"/>
<circle fill="#FFFFFF" cx="152.422" cy="79.385" r="0.913"/>
<circle fill="#FFFFFF" cx="50.995" cy="80.033" r="0.918"/>
<circle fill="#FFFFFF" cx="69.958" cy="109.271" r="0.913"/>
<circle fill="#FFFFFF" cx="152.422" cy="79.385" r="0.913"/>
<circle fill="#FFFFFF" cx="118.781" cy="82.917" r="0.913"/>
<circle fill="#FFFFFF" cx="86.008" cy="77.308" r="0.913"/>
<circle fill="#FFFFFF" cx="86.008" cy="77.308" r="0.913"/>
<circle fill="#FFFFFF" cx="118.781" cy="82.917" r="0.913"/>
<circle fill="#FFFFFF" cx="86.008" cy="77.308" r="0.913"/>
<circle fill="#FFFFFF" cx="86.008" cy="77.308" r="0.913"/>
<circle fill="#FFFFFF" cx="122.527" cy="121.101" r="0.914"/>
<circle fill="#FFFFFF" cx="86.008" cy="77.308" r="0.913"/>
<circle fill="#FFFFFF" cx="86.008" cy="77.308" r="0.913"/>
<circle fill="#FFFFFF" cx="50.995" cy="80.033" r="0.918"/>
<circle fill="#FFFFFF" cx="86.008" cy="77.308" r="0.913"/>
<circle fill="#FFFFFF" cx="69.958" cy="109.271" r="0.913"/>
<circle fill="#FFFFFF" cx="86.008" cy="77.308" r="0.913"/>
<circle fill="#FFFFFF" cx="59.907" cy="130.546" r="0.913"/>
<circle fill="#FFFFFF" cx="86.008" cy="77.308" r="0.913"/>
<circle fill="#FFFFFF" cx="168.586" cy="118.934" r="0.913"/>
<circle fill="#FFFFFF" cx="148.055" cy="152.409" r="0.913"/>
<circle fill="#FFFFFF" cx="180.983" cy="50.735" r="0.913"/>
<circle fill="#FFFFFF" cx="207.083" cy="108.021" r="0.913"/>
<circle fill="#FFFFFF" cx="168.586" cy="118.934" r="0.913"/>
<circle fill="#FFFFFF" cx="168.586" cy="118.934" r="0.913"/>
<circle fill="#FFFFFF" cx="152.422" cy="79.385" r="0.913"/>
<circle fill="#FFFFFF" cx="168.586" cy="118.934" r="0.913"/>
<circle fill="#FFFFFF" cx="118.781" cy="82.917" r="0.913"/>
<circle fill="#FFFFFF" cx="168.586" cy="118.934" r="0.913"/>
<circle fill="#FFFFFF" cx="122.527" cy="121.101" r="0.914"/>
<circle fill="#FFFFFF" cx="168.586" cy="118.934" r="0.913"/>
<circle fill="#FFFFFF" cx="168.586" cy="118.934" r="0.913"/>
<circle fill="#FFFFFF" cx="152.422" cy="79.385" r="0.913"/>
<line fill="#FFFFFF" x1="313.786" y1="64.146" x2="373.659" y2="51.576"/>
<polyline fill="#FFFFFF" points="373.691,51.729 313.817,64.298 313.755,63.992 373.628,51.423 "/>
<line fill="#FFFFFF" x1="313.786" y1="64.146" x2="373.659" y2="51.576"/>
<polyline fill="#FFFFFF" points="373.691,51.729 313.817,64.298 313.755,63.992 373.628,51.423 "/>
<g>
	<g>
		<line fill="#FFFFFF" x1="303.733" y1="85.422" x2="313.786" y2="64.146"/>
		
			<rect x="308.669" y="63.018" transform="matrix(-0.904 -0.4275 0.4275 -0.904 555.9113 274.3835)" fill="#FFFFFF" width="0.179" height="23.532"/>
	</g>
</g>
<g>
	<line fill="#FFFFFF" x1="331.772" y1="101.009" x2="303.733" y2="85.422"/>
	
		<rect x="301.714" y="93.11" transform="matrix(-0.8741 -0.4858 0.4858 -0.8741 550.2019 329.0639)" fill="#FFFFFF" width="32.079" height="0.211"/>
</g>
<g>
	<line fill="#FFFFFF" x1="331.772" y1="101.009" x2="313.786" y2="64.146"/>
	
		<rect x="302.269" y="82.456" transform="matrix(-0.4385 -0.8987 0.8987 -0.4385 390.116 408.8755)" fill="#FFFFFF" width="41.019" height="0.242"/>
</g>
<line fill="#FFFFFF" x1="342.37" y1="87.396" x2="392.51" y2="55.626"/>
<polyline fill="#FFFFFF" points="392.591,55.756 342.452,87.524 342.289,87.267 392.427,55.498 "/>
<line fill="#FFFFFF" x1="342.37" y1="87.396" x2="384.478" y2="37.704"/>
<polyline fill="#FFFFFF" points="384.601,37.81 342.496,87.5 342.247,87.29 384.351,37.598 "/>
<line fill="#FFFFFF" x1="342.37" y1="87.396" x2="384.478" y2="37.704"/>
<polyline fill="#FFFFFF" points="384.601,37.81 342.496,87.5 342.247,87.29 384.351,37.598 "/>
<g>
	<line fill="#FFFFFF" x1="308.329" y1="44.897" x2="331.772" y2="101.009"/>
	
		<rect x="289.644" y="72.797" transform="matrix(-0.3855 -0.9227 0.9227 -0.3855 376.1233 396.3871)" fill="#FFFFFF" width="60.813" height="0.31"/>
</g>
<g>
	<line fill="#FFFFFF" x1="308.329" y1="44.897" x2="303.733" y2="85.422"/>
	
		<rect x="305.911" y="44.767" transform="matrix(-0.9942 -0.1075 0.1075 -0.9942 603.2817 162.8524)" fill="#FFFFFF" width="0.241" height="40.786"/>
</g>
<g>
	<line fill="#FFFFFF" x1="308.329" y1="44.897" x2="313.786" y2="64.146"/>
	
		<rect x="310.974" y="44.518" transform="matrix(-0.9597 0.2809 -0.2809 -0.9597 624.9055 19.4732)" fill="#FFFFFF" width="0.167" height="20.007"/>
</g>
<line fill="#FFFFFF" x1="308.329" y1="44.897" x2="358.731" y2="10.669"/>
<polyline fill="#FFFFFF" points="358.819,10.798 308.415,45.025 308.241,44.769 358.645,10.54 "/>
<line fill="#FFFFFF" x1="387.016" y1="105.556" x2="342.37" y2="87.396"/>
<polyline fill="#FFFFFF" points="386.964,105.68 342.32,87.519 342.421,87.271 387.063,105.433 "/>
<line fill="#FFFFFF" x1="251.165" y1="73.591" x2="209.904" y2="108.691"/>
<polyline fill="#FFFFFF" points="209.812,108.581 251.07,73.482 251.257,73.701 209.997,108.799 "/>
<g>
	<line fill="#FFFFFF" x1="251.165" y1="73.591" x2="308.329" y2="44.897"/>
	
		<rect x="279.585" y="27.262" transform="matrix(-0.4503 -0.8929 0.8929 -0.4503 352.8031 335.7037)" fill="#FFFFFF" width="0.321" height="63.963"/>
</g>
<g>
	<line fill="#FFFFFF" x1="251.165" y1="73.591" x2="303.733" y2="85.422"/>
	
		<rect x="250.506" y="79.364" transform="matrix(-0.9756 -0.2196 0.2196 -0.9756 530.6677 217.9936)" fill="#FFFFFF" width="53.883" height="0.287"/>
</g>
<g>
	<line fill="#FFFFFF" x1="251.165" y1="73.591" x2="313.786" y2="64.146"/>
	
		<rect x="250.81" y="68.709" transform="matrix(-0.9888 0.1492 -0.1492 -0.9888 572.0626 94.8321)" fill="#FFFFFF" width="63.33" height="0.32"/>
</g>
<line fill="#FFFFFF" x1="246.148" y1="146.646" x2="209.904" y2="108.691"/>
<line fill="#FFFFFF" x1="246.048" y1="146.742" x2="209.803" y2="108.789"/>
<line fill="#FFFFFF" x1="210.005" y1="108.594" x2="246.25" y2="146.549"/>
<line fill="#FFFFFF" x1="254.91" y1="111.775" x2="246.148" y2="146.646"/>
<polyline fill="#FFFFFF" points="246.04,146.619 254.802,111.749 255.019,111.802 246.258,146.673 "/>
<g>
	<line fill="#FFFFFF" x1="254.91" y1="111.775" x2="251.165" y2="73.591"/>
	
		<rect x="252.922" y="73.501" transform="matrix(-0.9947 0.1033 -0.1033 -0.9947 514.294 158.7444)" fill="#FFFFFF" width="0.232" height="38.367"/>
</g>
<line fill="#FFFFFF" x1="254.91" y1="111.775" x2="251.666" y2="167.191"/>
<polyline fill="#FFFFFF" points="251.521,167.185 254.765,111.767 255.057,111.784 251.811,167.201 "/>
<line fill="#FFFFFF" x1="254.91" y1="111.775" x2="209.904" y2="108.691"/>
<polyline fill="#FFFFFF" points="209.914,108.563 254.919,111.648 254.9,111.904 209.896,108.819 "/>
<g>
	<line fill="#FFFFFF" x1="254.91" y1="111.775" x2="303.733" y2="85.422"/>
	
		<rect x="279.176" y="70.858" transform="matrix(-0.4751 -0.8799 0.8799 -0.4751 325.2668 391.2283)" fill="#FFFFFF" width="0.292" height="55.483"/>
</g>
<g>
	<line fill="#FFFFFF" x1="221.27" y1="115.309" x2="254.91" y2="111.775"/>
	
		<rect x="221.175" y="113.434" transform="matrix(-0.9945 0.1044 -0.1044 -0.9945 486.7331 201.599)" fill="#FFFFFF" width="33.829" height="0.216"/>
</g>
<line fill="#FFFFFF" x1="221.27" y1="115.309" x2="246.148" y2="146.646"/>
<polyline fill="#FFFFFF" points="246.056,146.72 221.176,115.381 221.361,115.234 246.241,146.572 "/>
<g>
	<line fill="#FFFFFF" x1="221.27" y1="115.309" x2="251.165" y2="73.591"/>
	
		<rect x="236.078" y="68.789" transform="matrix(-0.8162 -0.5777 0.5777 -0.8162 374.4579 308.0107)" fill="#FFFFFF" width="0.276" height="51.323"/>
</g>
<line fill="#FFFFFF" x1="221.27" y1="115.309" x2="251.666" y2="167.191"/>
<polyline fill="#FFFFFF" points="251.533,167.269 221.135,115.386 221.401,115.231 251.798,167.113 "/>
<line fill="#FFFFFF" x1="221.27" y1="115.309" x2="209.904" y2="108.691"/>
<polyline fill="#FFFFFF" points="209.941,108.629 221.304,115.245 221.231,115.371 209.869,108.753 "/>
<g>
	<g>
		<line fill="#FFFFFF" x1="260.454" y1="36.096" x2="251.165" y2="73.591"/>
		
			<rect x="255.693" y="35.53" transform="matrix(-0.9691 -0.2465 0.2465 -0.9691 490.2056 171.0529)" fill="#FFFFFF" width="0.232" height="38.628"/>
	</g>
	<g>
		<line fill="#FFFFFF" x1="260.454" y1="36.096" x2="308.329" y2="44.897"/>
		
			<rect x="260.053" y="40.362" transform="matrix(-0.9835 -0.1808 0.1808 -0.9835 556.7717 131.7488)" fill="#FFFFFF" width="48.676" height="0.267"/>
	</g>
	<g>
		<line fill="#FFFFFF" x1="260.454" y1="36.096" x2="313.786" y2="64.146"/>
		
			<rect x="256.989" y="49.967" transform="matrix(-0.8851 -0.4655 0.4655 -0.8851 517.9082 228.1248)" fill="#FFFFFF" width="60.259" height="0.308"/>
	</g>
</g>
<line fill="#FFFFFF" x1="348.199" y1="7.915" x2="308.329" y2="44.897"/>
<polyline fill="#FFFFFF" points="348.297,8.02 308.426,45.003 308.23,44.791 348.102,7.808 "/>
<g>
	<g>
		<line fill="#FFFFFF" x1="225.638" y1="42.285" x2="260.454" y2="36.096"/>
		
			<rect x="225.363" y="39.081" transform="matrix(-0.9846 0.175 -0.175 -0.9846 489.1978 35.2509)" fill="#FFFFFF" width="35.363" height="0.22"/>
	</g>
	<g>
		<line fill="#FFFFFF" x1="225.638" y1="42.285" x2="251.165" y2="73.591"/>
		
			<rect x="218.202" y="57.819" transform="matrix(-0.632 -0.775 0.775 -0.632 344.1555 279.3148)" fill="#FFFFFF" width="40.396" height="0.239"/>
	</g>
</g>
<line fill="#FFFFFF" x1="166.608" y1="86.671" x2="221.27" y2="115.309"/>
<polyline fill="#FFFFFF" points="166.682,86.533 221.341,115.168 221.196,115.446 166.535,86.81 "/>
<line fill="#FFFFFF" x1="192.709" y1="143.958" x2="221.27" y2="115.309"/>
<polyline fill="#FFFFFF" points="192.625,143.873 221.184,115.224 221.354,115.393 192.793,144.042 "/>
<line fill="#FFFFFF" x1="192.709" y1="143.958" x2="246.148" y2="146.646"/>
<line fill="#FFFFFF" x1="246.143" y1="146.788" x2="192.702" y2="144.1"/>
<line fill="#FFFFFF" x1="192.714" y1="143.816" x2="246.155" y2="146.504"/>
<line fill="#FFFFFF" x1="329.06" y1="123.968" x2="342.37" y2="87.396"/>
<polyline fill="#FFFFFF" points="328.947,123.928 342.262,87.355 342.481,87.437 329.17,124.008 "/>
<line fill="#FFFFFF" x1="318.531" y1="137.39" x2="303.733" y2="85.422"/>
<polyline fill="#FFFFFF" points="318.394,137.429 303.595,85.462 303.87,85.384 318.668,137.352 "/>
<line fill="#FFFFFF" x1="274.379" y1="152.47" x2="221.27" y2="115.309"/>
<polyline fill="#FFFFFF" points="274.286,152.603 221.176,115.44 221.361,115.175 274.473,152.337 "/>
<line fill="#FFFFFF" x1="274.379" y1="152.47" x2="254.91" y2="111.775"/>
<polyline fill="#FFFFFF" points="274.264,152.524 254.795,111.83 255.025,111.721 274.495,152.415 "/>
<line fill="#FFFFFF" x1="287.684" y1="117.385" x2="274.379" y2="152.47"/>
<polyline fill="#FFFFFF" points="274.272,152.429 287.575,117.345 287.789,117.426 274.485,152.511 "/>
<line fill="#FFFFFF" x1="287.684" y1="117.385" x2="318.531" y2="137.39"/>
<polyline fill="#FFFFFF" points="318.469,137.485 287.621,117.481 287.744,117.291 318.593,137.295 "/>
<g>
	<line fill="#FFFFFF" x1="287.684" y1="117.385" x2="254.91" y2="111.775"/>
	
		<rect x="254.673" y="114.474" transform="matrix(-0.9857 -0.1687 0.1687 -0.9857 519.3713 273.2939)" fill="#FFFFFF" width="33.248" height="0.214"/>
</g>
<line fill="#FFFFFF" x1="287.684" y1="117.385" x2="246.148" y2="146.646"/>
<polyline fill="#FFFFFF" points="246.069,146.533 287.603,117.272 287.762,117.499 246.229,146.758 "/>
<g>
	<line fill="#FFFFFF" x1="287.684" y1="117.385" x2="251.165" y2="73.591"/>
	
		<rect x="240.912" y="95.341" transform="matrix(-0.6404 -0.768 0.768 -0.6404 368.6277 363.5663)" fill="#FFFFFF" width="57.022" height="0.296"/>
</g>
<line fill="#FFFFFF" x1="287.684" y1="117.385" x2="251.666" y2="167.191"/>
<polyline fill="#FFFFFF" points="251.54,167.1 287.557,117.294 287.809,117.478 251.79,167.283 "/>
<g>
	<line fill="#FFFFFF" x1="287.684" y1="117.385" x2="331.772" y2="101.009"/>
	
		<rect x="309.597" y="85.679" transform="matrix(-0.3501 -0.9367 0.9367 -0.3501 315.8786 437.5529)" fill="#FFFFFF" width="0.262" height="47.036"/>
</g>
<g>
	<line fill="#FFFFFF" x1="287.684" y1="117.385" x2="303.733" y2="85.422"/>
	
		<rect x="295.595" y="83.52" transform="matrix(-0.8953 -0.4455 0.4455 -0.8953 515.281 323.9193)" fill="#FFFFFF" width="0.224" height="35.768"/>
</g>
<g>
	<line fill="#FFFFFF" x1="287.684" y1="117.385" x2="313.786" y2="64.146"/>
	
		<rect x="300.583" y="61.118" transform="matrix(-0.8976 -0.4408 0.4408 -0.8976 530.6735 304.7922)" fill="#FFFFFF" width="0.304" height="59.294"/>
</g>
<line fill="#FFFFFF" x1="205.105" y1="75.759" x2="166.608" y2="86.671"/>
<polyline fill="#FFFFFF" points="166.576,86.557 205.073,75.645 205.137,75.873 166.641,86.785 "/>
<g>
	<line fill="#FFFFFF" x1="205.105" y1="75.759" x2="225.638" y2="42.285"/>
	
		<rect x="215.252" y="39.387" transform="matrix(-0.854 -0.5203 0.5203 -0.854 368.5876 221.4768)" fill="#FFFFFF" width="0.236" height="39.269"/>
</g>
<g>
	<line fill="#FFFFFF" x1="205.105" y1="75.759" x2="221.27" y2="115.309"/>
	
		<rect x="191.824" y="95.409" transform="matrix(-0.3783 -0.9257 0.9257 -0.3783 205.4082 329.0157)" fill="#FFFFFF" width="42.725" height="0.247"/>
</g>
<g>
	<line fill="#FFFFFF" x1="205.105" y1="75.759" x2="254.91" y2="111.775"/>
	
		<rect x="199.276" y="93.61" transform="matrix(-0.8103 -0.586 0.586 -0.8103 361.442 304.5306)" fill="#FFFFFF" width="61.465" height="0.314"/>
</g>
<g>
	<line fill="#FFFFFF" x1="205.105" y1="75.759" x2="251.165" y2="73.591"/>
	
		<rect x="205.079" y="74.546" transform="matrix(-0.9989 0.047 -0.047 -0.9989 459.5266 138.5443)" fill="#FFFFFF" width="46.111" height="0.259"/>
</g>
<line fill="#FFFFFF" x1="205.105" y1="75.759" x2="209.904" y2="108.691"/>
<polyline fill="#FFFFFF" points="209.798,108.707 205,75.774 205.212,75.743 210.011,108.676 "/>
<circle fill="#FFFFFF" cx="313.785" cy="64.146" r="0.913"/>
<circle fill="#FFFFFF" cx="313.785" cy="64.146" r="0.913"/>
<circle fill="#FFFFFF" cx="313.785" cy="64.146" r="0.913"/>
<circle fill="#FFFFFF" cx="303.733" cy="85.422" r="0.914"/>
<circle fill="#FFFFFF" cx="303.733" cy="85.422" r="0.914"/>
<circle fill="#FFFFFF" cx="342.371" cy="87.396" r="0.918"/>
<circle fill="#FFFFFF" cx="313.785" cy="64.146" r="0.913"/>
<circle fill="#FFFFFF" cx="342.371" cy="87.396" r="0.918"/>
<circle fill="#FFFFFF" cx="342.371" cy="87.396" r="0.918"/>
<circle fill="#FFFFFF" cx="342.371" cy="87.396" r="0.918"/>
<circle fill="#FFFFFF" cx="342.371" cy="87.396" r="0.918"/>
<circle fill="#FFFFFF" cx="342.371" cy="87.396" r="0.918"/>
<circle fill="#FFFFFF" cx="308.33" cy="44.898" r="0.914"/>
<circle fill="#FFFFFF" cx="303.733" cy="85.422" r="0.914"/>
<circle fill="#FFFFFF" cx="308.33" cy="44.898" r="0.914"/>
<circle fill="#FFFFFF" cx="313.785" cy="64.146" r="0.913"/>
<circle fill="#FFFFFF" cx="308.33" cy="44.898" r="0.914"/>
<circle fill="#FFFFFF" cx="308.33" cy="44.898" r="0.914"/>
<circle fill="#FFFFFF" cx="342.371" cy="87.396" r="0.918"/>
<circle fill="#FFFFFF" cx="251.165" cy="73.592" r="0.913"/>
<circle fill="#FFFFFF" cx="308.33" cy="44.898" r="0.914"/>
<circle fill="#FFFFFF" cx="251.165" cy="73.592" r="0.913"/>
<circle fill="#FFFFFF" cx="303.733" cy="85.422" r="0.914"/>
<circle fill="#FFFFFF" cx="251.165" cy="73.592" r="0.913"/>
<circle fill="#FFFFFF" cx="313.785" cy="64.146" r="0.913"/>
<circle fill="#FFFFFF" cx="251.165" cy="73.592" r="0.913"/>
<circle fill="#FFFFFF" cx="254.91" cy="111.776" r="0.914"/>
<circle fill="#FFFFFF" cx="251.165" cy="73.592" r="0.913"/>
<circle fill="#FFFFFF" cx="254.91" cy="111.776" r="0.914"/>
<circle fill="#FFFFFF" cx="254.91" cy="111.776" r="0.914"/>
<circle fill="#FFFFFF" cx="254.91" cy="111.776" r="0.914"/>
<circle fill="#FFFFFF" cx="303.733" cy="85.422" r="0.914"/>
<circle fill="#FFFFFF" cx="254.91" cy="111.776" r="0.914"/>
<circle fill="#FFFFFF" cx="254.91" cy="111.776" r="0.914"/>
<circle fill="#FFFFFF" cx="221.269" cy="115.308" r="0.913"/>
<circle fill="#FFFFFF" cx="221.269" cy="115.308" r="0.913"/>
<circle fill="#FFFFFF" cx="251.165" cy="73.592" r="0.913"/>
<circle fill="#FFFFFF" cx="221.269" cy="115.308" r="0.913"/>
<circle fill="#FFFFFF" cx="221.269" cy="115.308" r="0.913"/>
<circle fill="#FFFFFF" cx="221.269" cy="115.308" r="0.913"/>
<circle fill="#FFFFFF" cx="251.165" cy="73.592" r="0.913"/>
<circle fill="#FFFFFF" cx="260.454" cy="36.097" r="0.913"/>
<circle fill="#FFFFFF" cx="308.33" cy="44.898" r="0.914"/>
<circle fill="#FFFFFF" cx="260.454" cy="36.097" r="0.913"/>
<circle fill="#FFFFFF" cx="313.785" cy="64.146" r="0.913"/>
<circle fill="#FFFFFF" cx="260.454" cy="36.097" r="0.913"/>
<circle fill="#FFFFFF" cx="308.33" cy="44.898" r="0.914"/>
<circle fill="#FFFFFF" cx="260.454" cy="36.097" r="0.913"/>
<circle fill="#FFFFFF" cx="225.636" cy="42.285" r="0.913"/>
<circle fill="#FFFFFF" cx="251.165" cy="73.592" r="0.913"/>
<circle fill="#FFFFFF" cx="225.636" cy="42.285" r="0.913"/>
<circle fill="#FFFFFF" cx="221.269" cy="115.308" r="0.913"/>
<circle fill="#FFFFFF" cx="221.269" cy="115.308" r="0.913"/>
<circle fill="#FFFFFF" cx="342.371" cy="87.396" r="0.918"/>
<circle fill="#FFFFFF" cx="303.733" cy="85.422" r="0.914"/>
<circle fill="#FFFFFF" cx="221.269" cy="115.308" r="0.913"/>
<circle fill="#FFFFFF" cx="254.91" cy="111.776" r="0.914"/>
<circle fill="#FFFFFF" cx="287.683" cy="117.385" r="0.914"/>
<circle fill="#FFFFFF" cx="287.683" cy="117.385" r="0.914"/>
<circle fill="#FFFFFF" cx="254.91" cy="111.776" r="0.914"/>
<circle fill="#FFFFFF" cx="287.683" cy="117.385" r="0.914"/>
<circle fill="#FFFFFF" cx="287.683" cy="117.385" r="0.914"/>
<circle fill="#FFFFFF" cx="251.165" cy="73.592" r="0.913"/>
<circle fill="#FFFFFF" cx="287.683" cy="117.385" r="0.914"/>
<circle fill="#FFFFFF" cx="287.683" cy="117.385" r="0.914"/>
<circle fill="#FFFFFF" cx="342.371" cy="87.396" r="0.918"/>
<circle fill="#FFFFFF" cx="287.683" cy="117.385" r="0.914"/>
<circle fill="#FFFFFF" cx="303.733" cy="85.422" r="0.914"/>
<circle fill="#FFFFFF" cx="287.683" cy="117.385" r="0.914"/>
<circle fill="#FFFFFF" cx="313.785" cy="64.146" r="0.913"/>
<circle fill="#FFFFFF" cx="287.683" cy="117.385" r="0.914"/>
<circle fill="#FFFFFF" cx="205.105" cy="75.759" r="0.913"/>
<circle fill="#FFFFFF" cx="225.636" cy="42.285" r="0.913"/>
<circle fill="#FFFFFF" cx="192.708" cy="143.958" r="0.913"/>
<path fill="#FFFFFF" d="M165.73,86.923c-0.139-0.485,0.141-0.99,0.626-1.13c0.486-0.139,0.992,0.143,1.13,0.626
	c0.139,0.485-0.142,0.991-0.626,1.13C166.373,87.689,165.869,87.408,165.73,86.923z"/>
<circle fill="#FFFFFF" cx="205.105" cy="75.759" r="0.913"/>
<circle fill="#FFFFFF" cx="205.105" cy="75.759" r="0.913"/>
<circle fill="#FFFFFF" cx="221.269" cy="115.308" r="0.913"/>
<circle fill="#FFFFFF" cx="205.105" cy="75.759" r="0.913"/>
<circle fill="#FFFFFF" cx="254.91" cy="111.776" r="0.914"/>
<circle fill="#FFFFFF" cx="205.105" cy="75.759" r="0.913"/>
<circle fill="#FFFFFF" cx="251.165" cy="73.592" r="0.913"/>
<circle fill="#FFFFFF" cx="205.105" cy="75.759" r="0.913"/>
<circle fill="#FFFFFF" cx="205.105" cy="75.759" r="0.913"/>
<circle fill="#FFFFFF" cx="221.269" cy="115.308" r="0.913"/>
</svg>
