<?xml version="1.0" encoding="utf-8"?>
<!-- Generator: Adobe Illustrator 16.0.3, SVG Export Plug-In . SVG Version: 6.00 Build 0)  -->
<!DOCTYPE svg PUBLIC "-//W3C//DTD SVG 1.1//EN" "http://www.w3.org/Graphics/SVG/1.1/DTD/svg11.dtd">
<svg version="1.1" id="Layer_1" xmlns="http://www.w3.org/2000/svg" xmlns:xlink="http://www.w3.org/1999/xlink" x="0px" y="0px"
	 width="234px" height="145px" viewBox="0 0 234 145" enable-background="new 0 0 234 145" xml:space="preserve">
<line fill="#FFFFFF" x1="69.639" y1="87.188" x2="4.391" y2="82.483"/>
<polyline fill="#FFFFFF" points="4.402,82.317 69.65,87.022 69.625,87.356 4.379,82.649 "/>
<line fill="#FFFFFF" x1="69.639" y1="87.188" x2="4.391" y2="82.483"/>
<polyline fill="#FFFFFF" points="4.402,82.317 69.65,87.022 69.625,87.356 4.379,82.649 "/>
<g>
	<g>
		<line fill="#FFFFFF" x1="86.234" y1="68.276" x2="69.639" y2="87.188"/>
		
			<rect x="77.84" y="65.152" transform="matrix(0.7513 0.6599 -0.6599 0.7513 70.6804 -32.1027)" fill="#FFFFFF" width="0.192" height="25.162"/>
	</g>
</g>
<g>
	<line fill="#FFFFFF" x1="62" y1="44" x2="86.234" y2="68.276"/>
	
		<rect x="56.965" y="56.026" transform="matrix(0.7065 0.7077 -0.7077 0.7065 61.4817 -35.9763)" fill="#FFFFFF" width="34.302" height="0.224"/>
</g>
<g>
	<line fill="#FFFFFF" x1="62" y1="44" x2="69.639" y2="87.188"/>
	
		<rect x="43.89" y="65.466" transform="matrix(0.1742 0.9847 -0.9847 0.1742 118.948 -10.6431)" fill="#FFFFFF" width="43.859" height="0.258"/>
</g>
<line fill="#FFFFFF" x1="62" y1="44" x2="1.426" y2="61.804"/>
<polyline fill="#FFFFFF" points="1.381,61.647 61.953,43.845 62.045,44.156 1.473,61.96 "/>
<line fill="#FFFFFF" x1="62" y1="44" x2="4.391" y2="82.483"/>
<polyline fill="#FFFFFF" points="4.295,82.338 61.902,43.856 62.096,44.145 4.488,82.627 "/>
<line fill="#FFFFFF" x1="62" y1="44" x2="4.391" y2="82.483"/>
<polyline fill="#FFFFFF" points="4.295,82.338 61.902,43.856 62.096,44.145 4.488,82.627 "/>
<g>
	<line fill="#FFFFFF" x1="69.58" y1="108.581" x2="62" y2="44"/>
	
		<rect x="33.278" y="76.125" transform="matrix(0.1166 0.9932 -0.9932 0.1166 133.8891 2.0538)" fill="#FFFFFF" width="65.024" height="0.332"/>
</g>
<g>
	<line fill="#FFFFFF" x1="69.58" y1="108.581" x2="86.234" y2="68.276"/>
	
		<rect x="77.778" y="66.623" transform="matrix(0.9253 0.3792 -0.3792 0.9253 39.3532 -22.9391)" fill="#FFFFFF" width="0.258" height="43.61"/>
</g>
<g>
	<line fill="#FFFFFF" x1="69.58" y1="108.581" x2="69.639" y2="87.188"/>
	<rect x="69.52" y="87.188" fill="#FFFFFF" width="0.18" height="21.393"/>
</g>
<line fill="#FFFFFF" x1="69.58" y1="108.581" x2="7.693" y2="128.928"/>
<polyline fill="#FFFFFF" points="7.641,128.77 69.529,108.424 69.633,108.739 7.744,129.086 "/>
<line fill="#FFFFFF" x1="21.666" y1="12.356" x2="62" y2="44"/>
<polyline fill="#FFFFFF" points="21.754,12.244 62.088,43.889 61.912,44.112 21.58,12.468 "/>
<line fill="#FFFFFF" x1="136.789" y1="95.913" x2="189.535" y2="71.979"/>
<polyline fill="#FFFFFF" points="189.598,72.12 136.854,96.053 136.727,95.774 189.471,71.84 "/>
<g>
	<line fill="#FFFFFF" x1="136.789" y1="95.913" x2="69.58" y2="108.581"/>
	
		<rect x="103.014" y="68.051" transform="matrix(0.1874 0.9823 -0.9823 0.1874 184.288 -18.2689)" fill="#FFFFFF" width="0.344" height="68.392"/>
</g>
<g>
	<line fill="#FFFFFF" x1="136.789" y1="95.913" x2="86.234" y2="68.276"/>
	
		<rect x="82.705" y="81.942" transform="matrix(0.8774 0.4797 -0.4797 0.8774 53.0457 -43.4292)" fill="#FFFFFF" width="57.616" height="0.306"/>
</g>
<g>
	<line fill="#FFFFFF" x1="136.789" y1="95.913" x2="69.639" y2="87.188"/>
	
		<rect x="69.355" y="91.381" transform="matrix(0.9917 0.1288 -0.1288 0.9917 12.6557 -12.535)" fill="#FFFFFF" width="67.717" height="0.341"/>
</g>
<line fill="#FFFFFF" x1="163.451" y1="22.294" x2="189.535" y2="71.979"/>
<line fill="#FFFFFF" x1="163.584" y1="22.225" x2="189.668" y2="71.909"/>
<line fill="#FFFFFF" x1="189.402" y1="72.049" x2="163.318" y2="22.364"/>
<line fill="#FFFFFF" x1="144.18" y1="55.56" x2="163.451" y2="22.294"/>
<polyline fill="#FFFFFF" points="163.555,22.354 144.283,55.619 144.076,55.5 163.348,22.234 "/>
<g>
	<line fill="#FFFFFF" x1="144.18" y1="55.56" x2="136.789" y2="95.913"/>
	
		<rect x="140.36" y="55.223" transform="matrix(0.9849 0.1733 -0.1733 0.9849 15.2542 -23.2045)" fill="#FFFFFF" width="0.248" height="41.025"/>
</g>
<line fill="#FFFFFF" x1="144.18" y1="55.56" x2="163.828" y2="-0.449"/>
<polyline fill="#FFFFFF" points="163.977,-0.398 144.326,55.611 144.031,55.508 163.682,-0.501 "/>
<line fill="#FFFFFF" x1="144.18" y1="55.56" x2="189.535" y2="71.979"/>
<polyline fill="#FFFFFF" points="189.488,72.108 144.133,55.688 144.227,55.431 189.582,71.85 "/>
<g>
	<line fill="#FFFFFF" x1="144.18" y1="55.56" x2="86.234" y2="68.276"/>
	
		<rect x="115.051" y="32.256" transform="matrix(0.2129 0.9771 -0.9771 0.2129 151.1715 -63.832)" fill="#FFFFFF" width="0.312" height="59.324"/>
</g>
<g>
	<line fill="#FFFFFF" x1="179.801" y1="61.832" x2="144.18" y2="55.56"/>
	
		<rect x="143.905" y="58.581" transform="matrix(0.9848 0.1734 -0.1734 0.9848 12.6351 -27.2056)" fill="#FFFFFF" width="36.171" height="0.23"/>
</g>
<line fill="#FFFFFF" x1="179.801" y1="61.832" x2="163.451" y2="22.294"/>
<polyline fill="#FFFFFF" points="163.568,22.246 179.918,61.784 179.684,61.881 163.334,22.343 "/>
<g>
	<line fill="#FFFFFF" x1="179.801" y1="61.832" x2="136.789" y2="95.913"/>
	
		<rect x="158.148" y="51.434" transform="matrix(0.6231 0.7822 -0.7822 0.6231 121.3558 -94.0833)" fill="#FFFFFF" width="0.295" height="54.877"/>
</g>
<line fill="#FFFFFF" x1="179.801" y1="61.832" x2="163.828" y2="-0.449"/>
<polyline fill="#FFFFFF" points="163.988,-0.49 179.961,61.791 179.643,61.873 163.67,-0.408 "/>
<line fill="#FFFFFF" x1="179.801" y1="61.832" x2="189.535" y2="71.979"/>
<polyline fill="#FFFFFF" points="189.479,72.032 179.746,61.886 179.857,61.779 189.59,71.926 "/>
<g>
	<g>
		<line fill="#FFFFFF" x1="116.203" y1="131.721" x2="136.789" y2="95.913"/>
		
			<rect x="126.372" y="93.165" transform="matrix(0.8643 0.5029 -0.5029 0.8643 74.3972 -48.1746)" fill="#FFFFFF" width="0.249" height="41.304"/>
	</g>
	<g>
		<line fill="#FFFFFF" x1="116.203" y1="131.721" x2="69.58" y2="108.581"/>
		
			<rect x="66.868" y="120.009" transform="matrix(0.8957 0.4446 -0.4446 0.8957 63.1054 -28.7713)" fill="#FFFFFF" width="52.048" height="0.286"/>
	</g>
	<g>
		<line fill="#FFFFFF" x1="116.203" y1="131.721" x2="69.639" y2="87.188"/>
		
			<rect x="60.704" y="109.291" transform="matrix(0.7227 0.6912 -0.6912 0.7227 101.4167 -33.8715)" fill="#FFFFFF" width="64.433" height="0.329"/>
	</g>
</g>
<line fill="#FFFFFF" x1="17.709" y1="134.86" x2="69.58" y2="108.581"/>
<polyline fill="#FFFFFF" points="17.639,134.723 69.512,108.444 69.65,108.719 17.777,134.999 "/>
<g>
	<g>
		<line fill="#FFFFFF" x1="153.814" y1="135.61" x2="116.203" y2="131.721"/>
		
			<rect x="116.103" y="133.548" transform="matrix(0.9947 0.1028 -0.1028 0.9947 14.4624 -13.1759)" fill="#FFFFFF" width="37.812" height="0.236"/>
	</g>
	<g>
		<line fill="#FFFFFF" x1="153.814" y1="135.61" x2="136.789" y2="95.913"/>
		
			<rect x="123.705" y="115.634" transform="matrix(0.3942 0.919 -0.919 0.3942 194.4192 -63.4056)" fill="#FFFFFF" width="43.194" height="0.255"/>
	</g>
</g>
<line fill="#FFFFFF" x1="227.559" y1="107.36" x2="179.801" y2="61.832"/>
<polyline fill="#FFFFFF" points="227.443,107.481 179.686,61.954 179.916,61.711 227.674,107.239 "/>
<line fill="#FFFFFF" x1="217.594" y1="40.789" x2="179.801" y2="61.832"/>
<polyline fill="#FFFFFF" points="217.654,40.901 179.863,61.944 179.738,61.721 217.531,40.678 "/>
<line fill="#FFFFFF" x1="217.594" y1="40.789" x2="163.451" y2="22.294"/>
<line fill="#FFFFFF" x1="163.5" y1="22.15" x2="217.643" y2="40.646"/>
<line fill="#FFFFFF" x1="217.545" y1="40.934" x2="163.402" y2="22.438"/>
<line fill="#FFFFFF" x1="86.322" y1="10.501" x2="62" y2="44"/>
<polyline fill="#FFFFFF" points="86.424,10.574 62.1,44.073 61.898,43.927 86.221,10.428 "/>
<line fill="#FFFFFF" x1="86.322" y1="10.501" x2="86.234" y2="68.276"/>
<polyline fill="#FFFFFF" points="86.475,10.501 86.389,68.276 86.082,68.275 86.17,10.5 "/>
<line fill="#FFFFFF" x1="136.146" y1="7.997" x2="179.801" y2="61.832"/>
<polyline fill="#FFFFFF" points="136.281,7.888 179.936,61.723 179.666,61.941 136.012,8.106 "/>
<line fill="#FFFFFF" x1="136.146" y1="7.997" x2="144.18" y2="55.56"/>
<polyline fill="#FFFFFF" points="136.281,7.975 144.314,55.537 144.045,55.582 136.012,8.02 "/>
<line fill="#FFFFFF" x1="112.143" y1="40.146" x2="136.146" y2="7.997"/>
<polyline fill="#FFFFFF" points="136.244,8.07 112.242,40.219 112.045,40.072 136.049,7.924 "/>
<line fill="#FFFFFF" x1="112.143" y1="40.146" x2="86.322" y2="10.501"/>
<polyline fill="#FFFFFF" points="86.414,10.421 112.234,40.065 112.053,40.225 86.23,10.58 "/>
<g>
	<line fill="#FFFFFF" x1="112.143" y1="40.146" x2="144.18" y2="55.56"/>
	
		<rect x="110.386" y="47.738" transform="matrix(0.9011 0.4336 -0.4336 0.9011 33.421 -50.8364)" fill="#FFFFFF" width="35.551" height="0.229"/>
</g>
<line fill="#FFFFFF" x1="112.143" y1="40.146" x2="163.451" y2="22.294"/>
<polyline fill="#FFFFFF" points="163.5,22.434 112.191,40.284 112.096,40.006 163.402,22.155 "/>
<g>
	<line fill="#FFFFFF" x1="112.143" y1="40.146" x2="136.789" y2="95.913"/>
	
		<rect x="93.981" y="67.87" transform="matrix(0.4042 0.9147 -0.9147 0.4042 136.377 -73.3148)" fill="#FFFFFF" width="60.972" height="0.318"/>
</g>
<line fill="#FFFFFF" x1="112.143" y1="40.146" x2="163.828" y2="-0.449"/>
<polyline fill="#FFFFFF" points="163.932,-0.318 112.246,40.276 112.041,40.014 163.727,-0.581 "/>
<g>
	<line fill="#FFFFFF" x1="112.143" y1="40.146" x2="62" y2="44"/>
	
		<rect x="86.931" y="16.927" transform="matrix(0.0767 0.9971 -0.9971 0.0767 122.342 -47.9689)" fill="#FFFFFF" width="0.28" height="50.292"/>
</g>
<g>
	<line fill="#FFFFFF" x1="112.143" y1="40.146" x2="86.234" y2="68.276"/>
	
		<rect x="99.07" y="35.088" transform="matrix(0.7372 0.6757 -0.6757 0.7372 62.7029 -52.7758)" fill="#FFFFFF" width="0.238" height="38.245"/>
</g>
<g>
	<line fill="#FFFFFF" x1="112.143" y1="40.146" x2="69.639" y2="87.188"/>
	
		<rect x="90.728" y="31.966" transform="matrix(0.7451 0.667 -0.667 0.7451 65.6333 -44.3917)" fill="#FFFFFF" width="0.325" height="63.402"/>
</g>
<line fill="#FFFFFF" x1="184.773" y1="107.245" x2="227.559" y2="107.36"/>
<polyline fill="#FFFFFF" points="227.559,107.487 184.773,107.372 184.775,107.118 227.559,107.233 "/>
<g>
	<line fill="#FFFFFF" x1="184.773" y1="107.245" x2="153.814" y2="135.61"/>
	
		<rect x="169.169" y="100.434" transform="matrix(0.6754 0.7375 -0.7375 0.6754 144.5081 -85.4321)" fill="#FFFFFF" width="0.252" height="41.989"/>
</g>
<g>
	<line fill="#FFFFFF" x1="184.773" y1="107.245" x2="179.801" y2="61.832"/>
	
		<rect x="159.445" y="84.408" transform="matrix(0.1088 0.9941 -0.9941 0.1088 246.4828 -105.8666)" fill="#FFFFFF" width="45.685" height="0.263"/>
</g>
<g>
	<line fill="#FFFFFF" x1="184.773" y1="107.245" x2="144.18" y2="55.56"/>
	
		<rect x="131.615" y="81.235" transform="matrix(0.6177 0.7864 -0.7864 0.6177 126.8991 -98.2274)" fill="#FFFFFF" width="65.723" height="0.335"/>
</g>
<g>
	<line fill="#FFFFFF" x1="184.773" y1="107.245" x2="136.789" y2="95.913"/>
	
		<rect x="136.13" y="101.44" transform="matrix(0.9732 0.2298 -0.2298 0.9732 27.651 -34.2346)" fill="#FFFFFF" width="49.304" height="0.277"/>
</g>
<line fill="#FFFFFF" x1="184.773" y1="107.245" x2="189.535" y2="71.979"/>
<polyline fill="#FFFFFF" points="189.648,71.995 184.887,107.26 184.66,107.229 189.422,71.963 "/>
<circle fill="#FFFFFF" cx="69.639" cy="87.188" r="0.977"/>
<circle fill="#FFFFFF" cx="69.639" cy="87.188" r="0.977"/>
<circle fill="#FFFFFF" cx="69.639" cy="87.188" r="0.977"/>
<circle fill="#FFFFFF" cx="86.234" cy="68.276" r="0.977"/>
<circle fill="#FFFFFF" cx="86.234" cy="68.276" r="0.977"/>
<circle fill="#FFFFFF" cx="62" cy="44" r="0.977"/>
<circle fill="#FFFFFF" cx="69.639" cy="87.188" r="0.977"/>
<circle fill="#FFFFFF" cx="62" cy="44" r="0.977"/>
<circle fill="#FFFFFF" cx="62" cy="44" r="0.977"/>
<circle fill="#FFFFFF" cx="62" cy="44" r="0.977"/>
<circle fill="#FFFFFF" cx="62" cy="44" r="0.977"/>
<circle fill="#FFFFFF" cx="62" cy="44" r="0.977"/>
<circle fill="#FFFFFF" cx="69.58" cy="108.581" r="0.977"/>
<circle fill="#FFFFFF" cx="86.234" cy="68.276" r="0.977"/>
<circle fill="#FFFFFF" cx="69.58" cy="108.581" r="0.977"/>
<circle fill="#FFFFFF" cx="69.639" cy="87.188" r="0.977"/>
<circle fill="#FFFFFF" cx="69.58" cy="108.581" r="0.977"/>
<circle fill="#FFFFFF" cx="69.58" cy="108.581" r="0.977"/>
<circle fill="#FFFFFF" cx="62" cy="44" r="0.977"/>
<circle fill="#FFFFFF" cx="136.789" cy="95.913" r="0.977"/>
<circle fill="#FFFFFF" cx="69.58" cy="108.581" r="0.977"/>
<circle fill="#FFFFFF" cx="136.789" cy="95.913" r="0.977"/>
<circle fill="#FFFFFF" cx="86.234" cy="68.276" r="0.977"/>
<circle fill="#FFFFFF" cx="136.789" cy="95.913" r="0.977"/>
<circle fill="#FFFFFF" cx="69.639" cy="87.188" r="0.977"/>
<circle fill="#FFFFFF" cx="136.789" cy="95.913" r="0.977"/>
<circle fill="#FFFFFF" cx="144.18" cy="55.56" r="0.977"/>
<circle fill="#FFFFFF" cx="136.789" cy="95.913" r="0.977"/>
<circle fill="#FFFFFF" cx="144.18" cy="55.56" r="0.977"/>
<circle fill="#FFFFFF" cx="144.18" cy="55.56" r="0.977"/>
<circle fill="#FFFFFF" cx="144.18" cy="55.56" r="0.977"/>
<circle fill="#FFFFFF" cx="86.234" cy="68.276" r="0.977"/>
<circle fill="#FFFFFF" cx="144.18" cy="55.56" r="0.977"/>
<circle fill="#FFFFFF" cx="144.18" cy="55.56" r="0.977"/>
<circle fill="#FFFFFF" cx="179.801" cy="61.832" r="0.977"/>
<circle fill="#FFFFFF" cx="179.801" cy="61.832" r="0.977"/>
<circle fill="#FFFFFF" cx="136.789" cy="95.913" r="0.977"/>
<circle fill="#FFFFFF" cx="179.801" cy="61.832" r="0.977"/>
<circle fill="#FFFFFF" cx="179.801" cy="61.832" r="0.977"/>
<circle fill="#FFFFFF" cx="179.801" cy="61.832" r="0.977"/>
<circle fill="#FFFFFF" cx="136.789" cy="95.913" r="0.977"/>
<circle fill="#FFFFFF" cx="116.203" cy="131.721" r="0.977"/>
<circle fill="#FFFFFF" cx="69.58" cy="108.581" r="0.977"/>
<circle fill="#FFFFFF" cx="116.203" cy="131.721" r="0.977"/>
<circle fill="#FFFFFF" cx="69.639" cy="87.188" r="0.977"/>
<circle fill="#FFFFFF" cx="116.203" cy="131.721" r="0.977"/>
<circle fill="#FFFFFF" cx="69.58" cy="108.581" r="0.977"/>
<circle fill="#FFFFFF" cx="116.203" cy="131.721" r="0.977"/>
<circle fill="#FFFFFF" cx="153.814" cy="135.61" r="0.977"/>
<circle fill="#FFFFFF" cx="136.789" cy="95.913" r="0.977"/>
<circle fill="#FFFFFF" cx="153.814" cy="135.61" r="0.977"/>
<circle fill="#FFFFFF" cx="179.801" cy="61.832" r="0.977"/>
<circle fill="#FFFFFF" cx="179.801" cy="61.832" r="0.977"/>
<circle fill="#FFFFFF" cx="62" cy="44" r="0.977"/>
<circle fill="#FFFFFF" cx="86.234" cy="68.276" r="0.977"/>
<circle fill="#FFFFFF" cx="179.801" cy="61.832" r="0.977"/>
<circle fill="#FFFFFF" cx="144.18" cy="55.56" r="0.977"/>
<circle fill="#FFFFFF" cx="112.143" cy="40.146" r="0.977"/>
<circle fill="#FFFFFF" cx="112.143" cy="40.146" r="0.977"/>
<circle fill="#FFFFFF" cx="144.18" cy="55.56" r="0.977"/>
<circle fill="#FFFFFF" cx="112.143" cy="40.146" r="0.977"/>
<circle fill="#FFFFFF" cx="112.143" cy="40.146" r="0.977"/>
<circle fill="#FFFFFF" cx="136.789" cy="95.913" r="0.977"/>
<circle fill="#FFFFFF" cx="112.143" cy="40.146" r="0.977"/>
<circle fill="#FFFFFF" cx="112.143" cy="40.146" r="0.977"/>
<circle fill="#FFFFFF" cx="62" cy="44" r="0.977"/>
<circle fill="#FFFFFF" cx="112.143" cy="40.146" r="0.977"/>
<circle fill="#FFFFFF" cx="86.234" cy="68.276" r="0.977"/>
<circle fill="#FFFFFF" cx="112.143" cy="40.146" r="0.977"/>
<circle fill="#FFFFFF" cx="69.639" cy="87.188" r="0.977"/>
<circle fill="#FFFFFF" cx="112.143" cy="40.146" r="0.977"/>
<circle fill="#FFFFFF" cx="184.773" cy="107.245" r="0.977"/>
<circle fill="#FFFFFF" cx="153.814" cy="135.61" r="0.977"/>
<circle fill="#FFFFFF" cx="217.594" cy="40.789" r="0.977"/>
<circle fill="#FFFFFF" cx="227.559" cy="107.36" r="0.977"/>
<circle fill="#FFFFFF" cx="184.773" cy="107.245" r="0.977"/>
<circle fill="#FFFFFF" cx="184.773" cy="107.245" r="0.977"/>
<circle fill="#FFFFFF" cx="179.801" cy="61.832" r="0.977"/>
<circle fill="#FFFFFF" cx="184.773" cy="107.245" r="0.977"/>
<circle fill="#FFFFFF" cx="144.18" cy="55.56" r="0.977"/>
<circle fill="#FFFFFF" cx="184.773" cy="107.245" r="0.977"/>
<circle fill="#FFFFFF" cx="136.789" cy="95.913" r="0.977"/>
<circle fill="#FFFFFF" cx="184.773" cy="107.245" r="0.977"/>
<circle fill="#FFFFFF" cx="184.773" cy="107.245" r="0.977"/>
<circle fill="#FFFFFF" cx="179.801" cy="61.832" r="0.977"/>
</svg>
