<?xml version="1.0" encoding="utf-8"?>
<!-- Generator: Adobe Illustrator 16.0.3, SVG Export Plug-In . SVG Version: 6.00 Build 0)  -->
<!DOCTYPE svg PUBLIC "-//W3C//DTD SVG 1.1//EN" "http://www.w3.org/Graphics/SVG/1.1/DTD/svg11.dtd">
<svg version="1.1" id="圖層_1" xmlns="http://www.w3.org/2000/svg" xmlns:xlink="http://www.w3.org/1999/xlink" x="0px" y="0px"
	 width="24px" height="24px" viewBox="0 0 24 24" enable-background="new 0 0 24 24" xml:space="preserve">
<linearGradient id="SVGID_1_" gradientUnits="userSpaceOnUse" x1="12.375" y1="5.75" x2="12.375" y2="22.2576">
	<stop  offset="0" style="stop-color:#2196EB"/>
	<stop  offset="0.9694" style="stop-color:#619CA3"/>
</linearGradient>
<path fill="url(#SVGID_1_)" d="M22.57,15.128c0-1.838-1.327-3.364-3.075-3.677c0.039-0.187,0.06-0.384,0.06-0.583
	c0-1.621-1.313-2.934-2.932-2.934c-0.626,0-1.206,0.196-1.684,0.531C14.158,6.718,12.407,5.5,10.369,5.5
	c-2.765,0-5.007,2.242-5.007,5.007c0,0.12,0.005,0.238,0.014,0.356C3.538,11.336,2.18,13.004,2.18,14.99
	c0,2.353,1.908,4.26,4.261,4.26c0.232,0,0.461-0.02,0.684-0.057h11.212c0,0,1.679-0.092,2.67-1.028
	C21.954,17.488,22.57,16.38,22.57,15.128z"/>
</svg>
