<?xml version="1.0" encoding="utf-8"?>
<!-- Generator: Adobe Illustrator 16.0.3, SVG Export Plug-In . SVG Version: 6.00 Build 0)  -->
<!DOCTYPE svg PUBLIC "-//W3C//DTD SVG 1.1//EN" "http://www.w3.org/Graphics/SVG/1.1/DTD/svg11.dtd">
<svg version="1.1" id="圖層_1" xmlns="http://www.w3.org/2000/svg" xmlns:xlink="http://www.w3.org/1999/xlink" x="0px" y="0px"
	 width="24px" height="24px" viewBox="0 0 24 24" enable-background="new 0 0 24 24" xml:space="preserve">
<g>
	<g>
		<linearGradient id="SVGID_1_" gradientUnits="userSpaceOnUse" x1="10.397" y1="4.8335" x2="10.397" y2="22.1798">
			<stop  offset="0" style="stop-color:#2196EB"/>
			<stop  offset="0.9694" style="stop-color:#619CA3"/>
		</linearGradient>
		<path fill="url(#SVGID_1_)" d="M10.416,14.48c-1.226,0.354-2.453,0.695-3.601,1.02c-1.149,0.326-2.221,0.629-3.141,0.889
			c-0.919,0.26-1.688,0.467-2.224,0.616c-0.308,0.085-0.541,0.147-0.683,0.188v-0.236c0.143-0.047,0.364-0.122,0.649-0.219
			c0.533-0.176,1.294-0.437,2.208-0.733c0.915-0.3,1.981-0.649,3.125-1.024s2.361-0.781,3.582-1.172
			c2.44-0.783,4.881-1.572,6.711-2.16c1.58-0.502,2.709-0.86,2.985-0.949v0.996c-0.403,0.119-1.459,0.428-2.877,0.844
			C15.316,13.068,12.866,13.773,10.416,14.48z"/>
		<linearGradient id="SVGID_2_" gradientUnits="userSpaceOnUse" x1="10.4009" y1="4.8335" x2="10.4009" y2="22.1798">
			<stop  offset="0" style="stop-color:#2196EB"/>
			<stop  offset="0.9694" style="stop-color:#619CA3"/>
		</linearGradient>
		<path fill="url(#SVGID_2_)" d="M10.309,10.493c-1.218,0.621-2.435,1.258-3.576,1.848c-1.142,0.593-2.206,1.144-3.119,1.616
			C2.7,14.43,1.941,14.832,1.41,15.109c-0.28,0.146-0.497,0.26-0.64,0.338v0.244c0.074-0.034,0.178-0.082,0.303-0.143l1.921,0.664
			c0.202-0.066,0.413-0.136,0.634-0.209c0.915-0.299,1.982-0.648,3.125-1.023c1.144-0.375,2.361-0.781,3.582-1.172
			c2.44-0.785,4.882-1.572,6.711-2.16c1.581-0.502,2.709-0.859,2.986-0.949V5.534C19.831,5.635,12.746,9.246,10.309,10.493z
			 M1.346,15.423c0.038-0.017,0.076-0.034,0.114-0.054c0.461-0.213,1.094-0.504,1.845-0.855l0.101,0.83L1.346,15.423z M5.814,14.578
			l-2.251-0.186c0.042-0.021,0.083-0.039,0.125-0.06c0.681-0.321,1.446-0.681,2.265-1.065L5.814,14.578z M8.946,13.521l-2.561-0.457
			c0.149-0.069,0.298-0.141,0.449-0.211c0.813-0.383,1.665-0.78,2.527-1.188L8.946,13.521z M12.833,12.089L9.78,11.468
			c0.219-0.104,0.44-0.208,0.66-0.315c1.104-0.526,2.207-1.052,3.255-1.551L12.833,12.089z M17.551,10.117l-3.32-0.771
			c1.08-0.514,2.086-0.994,2.955-1.408c1.188-0.572,2.117-1.02,2.629-1.266L17.551,10.117z"/>
		<linearGradient id="SVGID_3_" gradientUnits="userSpaceOnUse" x1="10.4004" y1="4.8335" x2="10.4004" y2="22.1798">
			<stop  offset="0" style="stop-color:#2196EB"/>
			<stop  offset="0.9694" style="stop-color:#619CA3"/>
		</linearGradient>
		<path fill="url(#SVGID_3_)" d="M10.402,16.145c-1.224,0.24-2.449,0.463-3.597,0.681c-1.148,0.215-2.221,0.416-3.138,0.59
			c-0.918,0.174-1.686,0.31-2.221,0.407c-0.305,0.057-0.535,0.098-0.677,0.123V17.71c0.143-0.035,0.365-0.088,0.655-0.158
			c0.534-0.127,1.295-0.315,2.211-0.524c0.915-0.215,1.983-0.465,3.127-0.73c1.145-0.266,2.364-0.561,3.586-0.834
			c2.442-0.556,4.882-1.109,6.716-1.527c1.549-0.344,2.662-0.593,2.968-0.66v0.983c-0.39,0.078-1.455,0.291-2.896,0.576
			C15.3,15.193,12.852,15.669,10.402,16.145z"/>
		<linearGradient id="SVGID_4_" gradientUnits="userSpaceOnUse" x1="10.4009" y1="4.8335" x2="10.4009" y2="22.1798">
			<stop  offset="0" style="stop-color:#2196EB"/>
			<stop  offset="0.9694" style="stop-color:#619CA3"/>
		</linearGradient>
		<path fill="url(#SVGID_4_)" d="M10.39,17.809c-1.223,0.123-2.448,0.231-3.595,0.342c-1.147,0.106-2.218,0.207-3.136,0.293
			c-0.917,0.088-1.683,0.15-2.218,0.197c-0.301,0.025-0.529,0.047-0.672,0.061v-0.234c0.143-0.021,0.366-0.054,0.66-0.097
			c0.534-0.075,1.297-0.19,2.213-0.317c0.917-0.127,1.985-0.273,3.13-0.435c1.145-0.157,2.366-0.336,3.587-0.493
			c2.444-0.325,4.887-0.65,6.721-0.895c1.521-0.192,2.622-0.336,2.953-0.377v0.981c-0.379,0.041-1.451,0.151-2.912,0.306
			C15.284,17.322,12.837,17.563,10.39,17.809z"/>
		<linearGradient id="SVGID_5_" gradientUnits="userSpaceOnUse" x1="10.4004" y1="4.8335" x2="10.4004" y2="22.1798">
			<stop  offset="0" style="stop-color:#2196EB"/>
			<stop  offset="0.9694" style="stop-color:#619CA3"/>
		</linearGradient>
		<path fill="url(#SVGID_5_)" d="M1.433,19.184c0.535-0.025,1.3-0.068,2.216-0.107c0.917-0.043,1.985-0.09,3.132-0.143
			c1.146-0.049,2.368-0.109,3.591-0.154c2.444-0.094,4.889-0.188,6.722-0.26c1.498-0.049,2.588-0.086,2.938-0.097v1.03
			c-0.358,0.002-19.118,0-19.261,0v-0.236C0.912,19.208,1.137,19.2,1.433,19.184z"/>
	</g>
	<g>
		<linearGradient id="SVGID_6_" gradientUnits="userSpaceOnUse" x1="21.5781" y1="4.8335" x2="21.5781" y2="22.1798">
			<stop  offset="0" style="stop-color:#2196EB"/>
			<stop  offset="0.9694" style="stop-color:#619CA3"/>
		</linearGradient>
		<path fill="url(#SVGID_6_)" d="M23.123,15.691v-0.248c-0.023-0.074-0.059-0.188-0.104-0.336c-0.086-0.276-0.207-0.681-0.354-1.152
			c-0.147-0.473-0.317-1.023-0.5-1.615c-0.185-0.59-0.38-1.228-0.575-1.848c-0.391-1.248-0.781-2.495-1.074-3.43
			c-0.268-0.841-0.453-1.428-0.482-1.529v6.16c0.064,0.119,1.146,2.081,1.541,2.786c0.195,0.355,0.395,0.694,0.578,1.021
			c0.185,0.324,0.355,0.628,0.505,0.887c0.147,0.262,0.271,0.469,0.356,0.618c0.049,0.085,0.088,0.147,0.109,0.188v-0.236
			c-0.021-0.047-0.061-0.122-0.104-0.219c-0.086-0.176-0.209-0.437-0.354-0.733c-0.056-0.114-0.115-0.235-0.179-0.36l0.58-0.117
			C23.089,15.596,23.109,15.65,23.123,15.691z M22.652,14.334c0.061,0.175,0.115,0.338,0.166,0.484l-0.506-0.12l0.201-0.779
			C22.561,14.063,22.607,14.202,22.652,14.334z M22.148,12.854c0.113,0.332,0.221,0.649,0.322,0.946l-0.675-0.104l0.122-1.511
			C21.998,12.412,22.074,12.635,22.148,12.854z M21.57,11.152c0.109,0.332,0.222,0.658,0.33,0.977L21.118,12.1l0.188-1.735
			C21.393,10.625,21.48,10.889,21.57,11.152z M20.486,7.939c0.217,0.643,0.486,1.445,0.771,2.289l-0.729,0.108l-0.373-3.391
			C20.24,7.196,20.354,7.537,20.486,7.939z M22.598,15.316l0.226-0.496c0.073,0.217,0.14,0.4,0.188,0.549
			c0.021,0.053,0.033,0.098,0.048,0.138L22.598,15.316z"/>
		<linearGradient id="SVGID_7_" gradientUnits="userSpaceOnUse" x1="21.5762" y1="4.8335" x2="21.5762" y2="22.1798">
			<stop  offset="0" style="stop-color:#2196EB"/>
			<stop  offset="0.9694" style="stop-color:#619CA3"/>
		</linearGradient>
		<path fill="url(#SVGID_7_)" d="M22.662,17.027c-0.146-0.215-0.318-0.463-0.502-0.729c-0.186-0.266-0.379-0.559-0.574-0.833
			c-0.393-0.557-1.506-2.121-1.557-2.188v0.984c0.064,0.077,1.152,1.405,1.546,1.883c0.198,0.239,0.394,0.463,0.577,0.68
			c0.185,0.215,0.355,0.416,0.505,0.59c0.146,0.174,0.271,0.309,0.356,0.406c0.049,0.058,0.086,0.099,0.108,0.123V17.71
			c-0.022-0.035-0.062-0.088-0.104-0.158C22.932,17.425,22.811,17.238,22.662,17.027z"/>
		<linearGradient id="SVGID_8_" gradientUnits="userSpaceOnUse" x1="21.5762" y1="4.8335" x2="21.5762" y2="22.1798">
			<stop  offset="0" style="stop-color:#2196EB"/>
			<stop  offset="0.9694" style="stop-color:#619CA3"/>
		</linearGradient>
		<path fill="url(#SVGID_8_)" d="M22.661,18.051c-0.147-0.128-0.318-0.273-0.503-0.435c-0.184-0.156-0.381-0.335-0.576-0.493
			c-0.391-0.325-0.784-0.65-1.077-0.893c-0.245-0.194-0.421-0.338-0.476-0.379v0.982c0.063,0.039,0.232,0.15,0.469,0.305
			c0.296,0.184,0.688,0.426,1.08,0.67c0.197,0.123,0.393,0.23,0.578,0.342c0.184,0.105,0.354,0.205,0.501,0.291
			c0.149,0.088,0.271,0.151,0.356,0.199c0.049,0.024,0.086,0.045,0.108,0.06v-0.234c-0.022-0.021-0.062-0.054-0.104-0.097
			C22.932,18.292,22.809,18.178,22.661,18.051z"/>
		<linearGradient id="SVGID_9_" gradientUnits="userSpaceOnUse" x1="21.5762" y1="4.8335" x2="21.5762" y2="22.1798">
			<stop  offset="0" style="stop-color:#2196EB"/>
			<stop  offset="0.9694" style="stop-color:#619CA3"/>
		</linearGradient>
		<path fill="url(#SVGID_9_)" d="M22.66,19.075c-0.146-0.043-0.319-0.091-0.503-0.142c-0.185-0.05-0.38-0.11-0.576-0.156
			c-0.392-0.094-0.785-0.187-1.078-0.258c-0.239-0.049-0.417-0.086-0.474-0.098v1.03c0.06,0.002,3.072,0,3.094,0v-0.236
			c-0.023-0.009-0.061-0.021-0.107-0.034C22.93,19.157,22.809,19.114,22.66,19.075z"/>
	</g>
</g>
</svg>
