<?xml version="1.0" encoding="utf-8"?>
<!-- Generator: Adobe Illustrator 16.0.3, SVG Export Plug-In . SVG Version: 6.00 Build 0)  -->
<!DOCTYPE svg PUBLIC "-//W3C//DTD SVG 1.1//EN" "http://www.w3.org/Graphics/SVG/1.1/DTD/svg11.dtd">
<svg version="1.1" id="圖層_1" xmlns="http://www.w3.org/2000/svg" xmlns:xlink="http://www.w3.org/1999/xlink" x="0px" y="0px"
	 width="24px" height="24px" viewBox="0 0 24 24" enable-background="new 0 0 24 24" xml:space="preserve">
<g>
	<linearGradient id="SVGID_1_" gradientUnits="userSpaceOnUse" x1="11.5581" y1="5.167" x2="11.5581" y2="20.5579">
		<stop  offset="0" style="stop-color:#2196EB"/>
		<stop  offset="0.9694" style="stop-color:#619CA3"/>
	</linearGradient>
	<path fill="url(#SVGID_1_)" d="M1.343,18.327c1.689,0.504,3.338,0.993,4.985,1.491c1.211,0.361,2.445,0.67,3.626,1.113
		c1.264,0.477,2.521,0.504,3.825,0.307c0.818-0.125,1.643-0.227,2.465-0.268c0.464-0.023,0.541-0.212,0.529-0.615
		c-0.029-1.074-0.021-2.147-0.025-3.223c-0.009-3.324-0.02-6.652-0.025-9.979c-0.002-0.19,0-0.381,0-0.687
		c-4.504,1.585-8.93,3.142-13.477,4.744c0-0.519-0.006-0.964,0.006-1.407c0.002-0.067,0.084-0.184,0.14-0.192
		c0.486-0.066,0.476-0.431,0.412-0.75C3.602,7.851,4.086,7.415,4.98,7.022c3.796-1.666,7.555-3.42,11.327-5.141
		c0.52-0.236,1.471,0.35,1.48,0.929c0.018,0.722,0.025,1.443-0.004,2.166c-0.016,0.354,0.113,0.581,0.374,0.806
		c1.063,0.921,2.096,1.881,3.169,2.792c0.372,0.315,0.55,0.643,0.49,1.127c-0.035,0.274-0.006,0.557-0.006,0.866
		c-0.181,0.029-0.328,0.056-0.518,0.087c0,3.518,0,7.013,0,10.567c-1.135,0.121-2.229,0.238-3.324,0.354
		c-1.869,0.198-3.74,0.405-5.615,0.579c-0.408,0.035-0.85,0.019-1.239-0.098c-3.098-0.92-6.185-1.884-9.285-2.798
		C1.313,19.107,1.205,18.854,1.343,18.327z"/>
	<linearGradient id="SVGID_2_" gradientUnits="userSpaceOnUse" x1="6.6108" y1="5.167" x2="6.6108" y2="20.5579">
		<stop  offset="0" style="stop-color:#2196EB"/>
		<stop  offset="0.9694" style="stop-color:#619CA3"/>
	</linearGradient>
	<path fill="url(#SVGID_2_)" d="M2.943,13.682c1.318-0.143,2.487-0.265,3.655-0.39c0.473-0.051,0.943-0.146,1.415-0.146
		c0.449-0.002,0.69-0.198,0.907-0.568c0.587-1,1.202-1.985,1.84-2.955c0.12-0.181,0.399-0.258,0.604-0.384
		c0.094,0.222,0.27,0.441,0.271,0.663c0.017,2.958,0.011,5.913,0.01,8.87c0,0.873-0.001,0.875-0.845,0.709
		c-1.949-0.381-3.894-0.781-5.848-1.135c-0.483-0.088-0.593-0.298-0.578-0.74c0.027-0.844,0.009-1.688,0.006-2.532
		c0-0.171-0.017-0.343-0.029-0.558c-0.743,0.071-1.437,0.161-2.133,0.191c-0.209,0.01-0.527-0.091-0.609-0.243
		c-0.083-0.153,0-0.473,0.117-0.647c0.455-0.69,0.954-1.352,1.434-2.024c0.163-0.228,0.347-0.445,0.645-0.234
		c0.283,0.199,0.258,0.479,0.082,0.745C3.606,12.721,3.317,13.135,2.943,13.682z"/>
	<linearGradient id="SVGID_3_" gradientUnits="userSpaceOnUse" x1="13.9414" y1="5.167" x2="13.9414" y2="20.5579">
		<stop  offset="0" style="stop-color:#2196EB"/>
		<stop  offset="0.9694" style="stop-color:#619CA3"/>
	</linearGradient>
	<path fill="url(#SVGID_3_)" d="M15.662,16.107c0,1.229-0.01,2.459,0.006,3.689c0.006,0.368-0.094,0.498-0.486,0.436
		c-0.85-0.141-1.703-0.246-2.561-0.34c-0.322-0.035-0.408-0.189-0.406-0.483c0.003-2.214,0.003-4.429-0.002-6.642
		c0-0.288,0.067-0.455,0.396-0.489c0.838-0.09,1.678-0.188,2.506-0.334c0.488-0.086,0.562,0.104,0.555,0.524
		C15.648,13.684,15.662,14.896,15.662,16.107z"/>
</g>
</svg>
