<?xml version="1.0" encoding="utf-8"?>
<!-- Generator: Adobe Illustrator 16.0.3, SVG Export Plug-In . SVG Version: 6.00 Build 0)  -->
<!DOCTYPE svg PUBLIC "-//W3C//DTD SVG 1.1//EN" "http://www.w3.org/Graphics/SVG/1.1/DTD/svg11.dtd">
<svg version="1.1" id="圖層_1" xmlns="http://www.w3.org/2000/svg" xmlns:xlink="http://www.w3.org/1999/xlink" x="0px" y="0px"
	 width="24px" height="24px" viewBox="0 0 24 24" enable-background="new 0 0 24 24" xml:space="preserve">
<g>
	<linearGradient id="SVGID_1_" gradientUnits="userSpaceOnUse" x1="12.2578" y1="4.5" x2="12.2578" y2="18.25">
		<stop  offset="0" style="stop-color:#2196EB"/>
		<stop  offset="0.9694" style="stop-color:#619CA3"/>
	</linearGradient>
	<path fill="url(#SVGID_1_)" d="M12.04,9.482c0.385-0.374,0.67-0.645,0.948-0.922c0.602-0.599,1.211-1.192,1.799-1.804
		c0.561-0.584,1.254-0.826,2.039-0.834c0.958-0.012,1.915-0.003,2.873-0.003c1.101,0.001,1.957,0.558,2.367,1.538
		c0.408,0.975,0.176,2.115-0.574,2.868c-0.493,0.495-1.068,0.823-1.777,0.722c-1.417-0.202-2.438,0.303-3.423,1.367
		c-2.083,2.252-4.317,4.363-6.49,6.534c-0.661,0.659-1.426,1.054-2.393,1.022c-0.879-0.029-1.76,0.002-2.64-0.013
		c-1.423-0.021-2.539-1.204-2.518-2.651c0.02-1.421,1.119-2.572,2.552-2.47c1.323,0.099,2.359-0.208,3.169-1.303
		c0.4-0.54,1.112-0.904,1.36-1.485c0.241-0.564,0.069-1.305,0.074-1.968c0.004-0.463-0.005-0.926,0.002-1.39
		c0.013-0.816,0.548-1.357,1.329-1.351c0.76,0.006,1.271,0.526,1.303,1.33C12.047,8.895,12.04,9.12,12.04,9.482z M18.798,9.734
		c0.31,0,0.617,0.008,0.927-0.002c0.699-0.023,1.252-0.604,1.226-1.3c-0.023-0.569-0.569-1.264-1.267-1.225
		c-0.859,0.049-1.729,0.041-2.592,0.002c-0.652-0.029-1.141,0.188-1.6,0.652c-2.545,2.58-5.115,5.137-7.673,7.706
		c-0.379,0.379-0.814,0.588-1.362,0.572c-0.586-0.016-1.173-0.02-1.759,0.002c-0.779,0.029-1.267,0.658-1.13,1.422
		c0.117,0.653,0.601,1.084,1.292,1.104c0.802,0.021,1.605-0.012,2.407,0.012c0.71,0.02,1.261-0.238,1.764-0.746
		c2.538-2.568,5.101-5.111,7.648-7.671c0.358-0.36,0.776-0.54,1.283-0.526C18.242,9.741,18.521,9.735,18.798,9.734z"/>
	<linearGradient id="SVGID_2_" gradientUnits="userSpaceOnUse" x1="10.7227" y1="4.5" x2="10.7227" y2="18.25">
		<stop  offset="0" style="stop-color:#2196EB"/>
		<stop  offset="0.9694" style="stop-color:#619CA3"/>
	</linearGradient>
	<path fill="url(#SVGID_2_)" d="M12.05,5.813c-0.005,0.741-0.584,1.313-1.328,1.311C9.954,7.122,9.378,6.531,9.396,5.765
		c0.017-0.742,0.612-1.312,1.35-1.294C11.484,4.488,12.054,5.075,12.05,5.813z"/>
</g>
</svg>
