<?xml version="1.0" encoding="utf-8"?>
<!-- Generator: Adobe Illustrator 16.0.3, SVG Export Plug-In . SVG Version: 6.00 Build 0)  -->
<!DOCTYPE svg PUBLIC "-//W3C//DTD SVG 1.1//EN" "http://www.w3.org/Graphics/SVG/1.1/DTD/svg11.dtd">
<svg version="1.1" id="圖層_1" xmlns="http://www.w3.org/2000/svg" xmlns:xlink="http://www.w3.org/1999/xlink" x="0px" y="0px"
	 width="24px" height="24px" viewBox="0 0 24 24" enable-background="new 0 0 24 24" xml:space="preserve">
<circle fill="#FFFFFF" cx="12.123" cy="12.275" r="8.115"/>
<g>
	<path fill="#36C6DD" d="M12.055,21.374c-4.812,0-8.726-3.914-8.726-8.726s3.915-8.726,8.726-8.726s8.726,3.915,8.726,8.726
		S16.866,21.374,12.055,21.374z M12.055,4.922c-4.26,0-7.726,3.466-7.726,7.726c0,4.26,3.466,7.726,7.726,7.726
		c4.26,0,7.726-3.466,7.726-7.726C19.78,8.388,16.314,4.922,12.055,4.922z"/>
</g>
<g>
	<path fill="#36C6DD" d="M8.929,11.415c0,0.336-0.125,0.584-0.374,0.743c-0.205,0.132-0.483,0.198-0.838,0.198
		c-0.348,0-0.615-0.102-0.801-0.306c-0.177-0.192-0.27-0.466-0.279-0.824h0.608c0.006,0.216,0.048,0.369,0.126,0.459
		c0.081,0.084,0.224,0.126,0.428,0.126c0.141,0,0.26-0.029,0.356-0.085c0.114-0.072,0.171-0.171,0.171-0.297
		c0-0.135-0.087-0.234-0.261-0.297c-0.12-0.039-0.3-0.097-0.54-0.175c-0.541-0.192-0.811-0.479-0.811-0.86
		c0-0.282,0.111-0.507,0.333-0.676c0.198-0.156,0.442-0.234,0.734-0.234c0.336,0,0.6,0.081,0.792,0.243
		C8.774,9.604,8.877,9.86,8.884,10.2H8.285C8.273,9.884,8.115,9.727,7.812,9.727c-0.126,0-0.236,0.027-0.329,0.081
		c-0.108,0.06-0.162,0.146-0.162,0.257c0,0.105,0.064,0.194,0.193,0.266c0.021,0.009,0.134,0.051,0.338,0.126
		c0.246,0.093,0.371,0.14,0.374,0.14c0.159,0.063,0.275,0.119,0.347,0.167C8.81,10.921,8.929,11.139,8.929,11.415z"/>
	<path fill="#36C6DD" d="M11.607,9.79h-0.955v2.503h-0.581V9.79H9.113V9.245h2.495V9.79z"/>
	<path fill="#36C6DD" d="M14.381,12.293h-2.404V9.245h2.346V9.79h-1.77v0.662h1.711v0.545h-1.711v0.752h1.828V12.293z"/>
	<path fill="#36C6DD" d="M17.082,10.249c0,0.699-0.458,1.049-1.373,1.049h-0.288v0.995H14.84V9.245h0.852
		C16.618,9.245,17.082,9.58,17.082,10.249z M16.483,10.258c0-0.156-0.063-0.276-0.189-0.36c-0.11-0.072-0.252-0.108-0.423-0.108
		h-0.45v0.963h0.45C16.279,10.753,16.483,10.588,16.483,10.258z"/>
</g>
<g>
	<path fill="#36C6DD" d="M12.658,17.976h-0.812v-3.144c-0.175,0.119-0.405,0.232-0.69,0.339v-0.862
		c0.392-0.18,0.709-0.4,0.952-0.665h0.549V17.976z"/>
</g>
</svg>
