<?xml version="1.0" encoding="utf-8"?>
<!-- Generator: Adobe Illustrator 16.0.3, SVG Export Plug-In . SVG Version: 6.00 Build 0)  -->
<!DOCTYPE svg PUBLIC "-//W3C//DTD SVG 1.1//EN" "http://www.w3.org/Graphics/SVG/1.1/DTD/svg11.dtd">
<svg version="1.1" id="圖層_1" xmlns="http://www.w3.org/2000/svg" xmlns:xlink="http://www.w3.org/1999/xlink" x="0px" y="0px"
	 width="24px" height="24px" viewBox="0 0 24 24" enable-background="new 0 0 24 24" xml:space="preserve">
<g>
	<polygon fill="#FFFFFF" points="15.364,16.734 15.37,16.711 15.33,16.712 	"/>
	<path fill="#FFFFFF" d="M22.022,14.921l-1.159-0.758l0.312-0.223l-5.744-2.528l0.038-0.46l-0.269-0.58
		c-1.267-1.092-2.973-1.178-4.383-0.981L6.05,7.419L6.024,8.574l0.258-0.475l3.701,1.516L9.137,9.749L6.024,8.593L5.84,16.782
		l9.49-0.07l-0.056-0.036l0.506-2.587l0.238-0.06l-0.648,2.682l6.964-0.051L22.022,14.921z M7.175,16.481l-0.848,0.045l0.089-1.293
		h0.847L7.175,16.481z M7.888,14.743l-1.65-0.045l0.089-5.261l1.605,0.535L7.888,14.743z M8.557,16.646l-0.119-2.407l0.178-0.119
		l0.06,2.496L8.557,16.646z M9.627,16.676H9.508l-0.059-2.617L9.687,14L9.627,16.676z M10.935,16.615l-0.119,0.03l-0.06-2.705
		l0.238-0.06L10.935,16.615z M12.124,16.586l-0.119,0.06l0.09-2.765l0.237-0.059L12.124,16.586z M13.49,16.646h-0.118l0.148-2.675
		l0.238-0.061L13.49,16.646z M14.71,16.646l-0.089,0.03l0.208-2.646l0.237-0.059L14.71,16.646z M15.29,13.94
		c0,0-3.3-0.804-6.778-0.045l-0.045-3.21c0,0,4.326-1.516,6.823,0.401V13.94z M15.557,13.004v-0.625l1.07,0.402L15.557,13.004z
		 M16.762,16.481v-2.229h0.267L16.762,16.481z M17.028,13.896v-0.669l1.604,0.357L17.028,13.896z M20.149,16.615l-0.044-2.541
		l0.267,0.044L20.149,16.615z"/>
</g>
<path fill-rule="evenodd" clip-rule="evenodd" fill="#FFFFFF" d="M2.448,12.691v4.103h1.694l1.516-0.012L5.762,7.94L2.448,12.691z
	 M2.924,16.378L2.79,12.722l0.565-0.772l0.148,4.429H2.924z M3.86,16.378l-0.164-4.801l0.624-0.758l0.134,5.529L3.86,16.378z
	 M4.9,16.407l-0.133-6.034l0.49-0.802l0.089,6.777L4.9,16.407z"/>
</svg>
