<?xml version="1.0" encoding="utf-8"?>
<!-- Generator: Adobe Illustrator 16.0.3, SVG Export Plug-In . SVG Version: 6.00 Build 0)  -->
<!DOCTYPE svg PUBLIC "-//W3C//DTD SVG 1.1//EN" "http://www.w3.org/Graphics/SVG/1.1/DTD/svg11.dtd">
<svg version="1.1" id="圖層_1" xmlns="http://www.w3.org/2000/svg" xmlns:xlink="http://www.w3.org/1999/xlink" x="0px" y="0px"
	 width="24px" height="24px" viewBox="0 0 24 24" enable-background="new 0 0 24 24" xml:space="preserve">
<g>
	<path fill="#FFFFFF" d="M15.556,16.754c-1.757,1.118-3.477,2.215-5.247,3.341c0-0.226,0-0.405,0-0.584c0-0.333-0.007-0.667,0.004-1
		c0.005-0.173-0.041-0.233-0.229-0.25c-1.835-0.165-3.618-0.549-5.293-1.343c-0.966-0.458-1.854-1.028-2.552-1.856
		c-0.588-0.699-0.931-1.49-0.857-2.427c0.062-0.79,0.417-1.449,0.929-2.03c0.671-0.761,1.504-1.304,2.412-1.74
		C4.756,8.85,4.795,8.847,4.856,8.832c0,0.488,0.005,0.959-0.005,1.429c-0.001,0.064-0.065,0.136-0.115,0.19
		c-0.798,0.875-0.782,1.784,0.055,2.623c0.57,0.57,1.277,0.918,2.019,1.199c1.024,0.389,2.093,0.59,3.177,0.715
		c0.092,0.012,0.185,0.001,0.309,0.001c0-0.517,0-1.029,0-1.605C12.069,14.52,13.79,15.622,15.556,16.754z"/>
	<path fill="#FFFFFF" d="M18.208,8.532c0.934,0.375,1.77,0.819,2.508,1.433c0.716,0.596,1.292,1.29,1.513,2.223
		c0.196,0.827,0.032,1.598-0.395,2.315c-0.445,0.749-1.08,1.313-1.806,1.774c-0.352,0.224-0.724,0.418-1.093,0.611
		c-0.067,0.035-0.188,0.048-0.247,0.01c-1.085-0.688-2.164-1.383-3.244-2.078c-0.022-0.016-0.039-0.041-0.058-0.062
		c0.529-0.171,1.054-0.322,1.566-0.509c0.68-0.249,1.313-0.588,1.854-1.079c0.333-0.303,0.593-0.656,0.697-1.101
		c0.14-0.597-0.077-1.101-0.468-1.531c-0.202-0.221-0.456-0.393-0.674-0.602c-0.072-0.069-0.142-0.18-0.146-0.275
		C18.198,9.3,18.208,8.937,18.208,8.532z"/>
	<path fill="#FFFFFF" d="M17.347,8.418c-0.03,0.531-0.102,1.039-0.319,1.521c-0.289,0.642-0.788,0.972-1.492,0.986
		c-0.717,0.013-1.225-0.321-1.527-0.964c-0.256-0.544-0.331-1.127-0.284-1.718c0.028-0.366,0.094-0.738,0.209-1.084
		c0.266-0.794,0.871-1.224,1.626-1.211c0.774,0.014,1.365,0.483,1.59,1.313C17.251,7.636,17.283,8.032,17.347,8.418z M16.234,8.468
		c-0.012-0.002-0.024-0.004-0.036-0.007c-0.014-0.224,0-0.453-0.046-0.669c-0.058-0.268-0.124-0.547-0.257-0.782
		c-0.188-0.334-0.575-0.323-0.8-0.01c-0.054,0.074-0.102,0.158-0.129,0.244c-0.25,0.804-0.259,1.612-0.003,2.414
		c0.098,0.309,0.313,0.469,0.547,0.456c0.291-0.017,0.449-0.215,0.51-0.465C16.114,9.259,16.165,8.861,16.234,8.468z"/>
	<path fill="#FFFFFF" d="M10.821,8c0.421-0.32,0.882-0.414,1.37-0.291c0.817,0.207,1.152,0.889,1.091,1.594
		c-0.087,1.011-0.792,1.641-1.758,1.641c-1.024,0-1.743-0.649-1.873-1.657C9.59,8.816,9.621,8.357,9.755,7.91
		c0.32-1.066,1.07-1.647,2.146-1.836c0.22-0.038,0.446-0.04,0.669-0.061C12.711,6,12.755,6.062,12.76,6.201
		c0.023,0.571,0.025,0.562-0.541,0.644c-0.628,0.091-1.162,0.332-1.396,0.987c-0.01,0.029-0.019,0.059-0.023,0.089
		C10.797,7.935,10.806,7.95,10.821,8z M11.477,8.413c-0.319-0.002-0.613,0.185-0.713,0.457c-0.123,0.332,0.022,0.877,0.294,1.105
		c0.357,0.298,0.904,0.179,1.041-0.263c0.074-0.238,0.08-0.518,0.04-0.768C12.087,8.61,11.802,8.416,11.477,8.413z"/>
	<path fill="#FFFFFF" d="M8.206,8.37c0.338,0.082,0.62,0.235,0.815,0.514c0.364,0.52,0.226,1.26-0.318,1.67
		c-0.541,0.407-1.169,0.468-1.812,0.397c-0.288-0.032-0.568-0.135-0.851-0.21c-0.139-0.037-0.174-0.127-0.131-0.266
		c0.065-0.213,0.117-0.431,0.171-0.635c0.343,0.083,0.672,0.188,1.01,0.232c0.197,0.026,0.416-0.021,0.609-0.083
		c0.237-0.076,0.377-0.264,0.393-0.523C8.108,9.2,8.003,8.969,7.76,8.881c-0.27-0.098-0.564-0.143-0.852-0.168
		C6.729,8.697,6.673,8.652,6.673,8.471c0.002-0.509-0.005-0.504,0.514-0.539c0.144-0.01,0.292-0.041,0.425-0.094
		c0.254-0.1,0.356-0.282,0.33-0.523C7.919,7.108,7.755,6.91,7.511,6.897c-0.288-0.015-0.58,0.022-0.868,0.062
		c-0.14,0.02-0.273,0.096-0.434,0.156C6.134,6.866,6.063,6.626,5.987,6.372c0.332-0.212,0.702-0.284,1.076-0.328
		C7.504,5.992,7.943,6.005,8.357,6.2c0.427,0.201,0.684,0.52,0.689,1.01c0.004,0.497-0.235,0.833-0.683,1.032
		C8.322,8.261,8.28,8.28,8.24,8.303C8.229,8.309,8.226,8.329,8.206,8.37z"/>
	<path fill="#FFFFFF" d="M18.91,7.92c-0.634,0.004-1.094-0.422-1.108-1.026c-0.013-0.599,0.485-1.099,1.102-1.103
		c0.644-0.005,1.115,0.449,1.112,1.073C20.014,7.473,19.55,7.916,18.91,7.92z M19.464,6.888c-0.001-0.357-0.227-0.601-0.56-0.604
		c-0.321-0.004-0.538,0.236-0.537,0.591c0.001,0.348,0.239,0.594,0.57,0.592C19.251,7.465,19.465,7.228,19.464,6.888z"/>
</g>
</svg>
