<?xml version="1.0" encoding="utf-8"?>
<!-- Generator: Adobe Illustrator 16.0.3, SVG Export Plug-In . SVG Version: 6.00 Build 0)  -->
<!DOCTYPE svg PUBLIC "-//W3C//DTD SVG 1.1//EN" "http://www.w3.org/Graphics/SVG/1.1/DTD/svg11.dtd">
<svg version="1.1" id="分離模式" xmlns="http://www.w3.org/2000/svg" xmlns:xlink="http://www.w3.org/1999/xlink" x="0px"
	 y="0px" width="24px" height="24px" viewBox="0 0 24 24" enable-background="new 0 0 24 24" xml:space="preserve">
<g>
	<g>
		<defs>
			<ellipse id="SVGID_1_" cx="11.75" cy="12.68" rx="10.763" ry="10.811"/>
		</defs>
		<use xlink:href="#SVGID_1_"  overflow="visible" opacity="0.3" fill="#7F7F7F"/>
		<clipPath id="SVGID_2_">
			<use xlink:href="#SVGID_1_"  overflow="visible" opacity="0.3"/>
		</clipPath>
		<path opacity="0.8" clip-path="url(#SVGID_2_)" fill-rule="evenodd" clip-rule="evenodd" fill="#FFFFFF" d="M23.782,23.678
			c-0.151-0.398-0.363-0.766-0.622-1.098c-0.413-0.53-0.958-0.902-1.56-1.188c-0.174-0.084-0.344-0.184-0.536-0.228
			c-0.598-0.136-1.19-0.297-1.779-0.474c-0.21,0.012-0.39-0.063-0.55-0.193c-0.437-0.179-0.895-0.307-1.302-0.556
			c-0.143-0.021-0.279-0.058-0.377-0.175c-0.075-0.02-0.137-0.069-0.211-0.09c-0.212-0.054-0.39-0.162-0.524-0.336
			c-0.082-0.053-0.169-0.102-0.244-0.162c-0.099-0.053-0.158-0.12-0.184-0.239c-0.037-0.156-0.082-0.31-0.125-0.463
			c-0.056-0.153-0.059-0.317-0.091-0.476c-0.019-0.089-0.04-0.167-0.139-0.193c-0.095-0.047-0.185-0.002-0.272,0.017
			c-0.182,0.04-0.281-0.018-0.311-0.211c-0.02-0.139-0.058-0.278-0.064-0.416c-0.015-0.306-0.061-0.632,0.232-0.856
			c0.342-0.696,0.595-1.425,0.799-2.172c0.047-0.168,0.125-0.311,0.348-0.316c0.133-0.003,0.242-0.098,0.286-0.242
			c0.132-0.438,0.257-0.88,0.459-1.293c0.062-0.302,0.211-0.582,0.224-0.896c-0.003-0.063,0.014-0.125,0.008-0.188
			c-0.007-0.025-0.019-0.048-0.035-0.067c-0.012-0.007-0.023-0.016-0.033-0.025c0.006-0.134,0.016-0.268,0.012-0.4
			c-0.007-0.188-0.097-0.343-0.278-0.392c-0.169-0.044-0.2-0.137-0.189-0.287c0.038-0.59,0.071-1.181,0.107-1.771
			c0.007-0.021,0.003-0.039-0.007-0.055c0.007-0.009,0.008-0.021,0-0.035c-0.018-0.179-0.032-0.358-0.053-0.536
			c-0.048-0.427-0.094-0.859-0.316-1.237c-0.43-0.73-1.027-1.291-1.779-1.674c-0.635-0.325-1.326-0.487-2.021-0.626
			C11.212,3.836,9.927,4.16,8.806,5.122c0.003,0.01,0.006,0.02,0.008,0.03l0,0l0,0C8.687,5.234,8.587,5.342,8.517,5.475
			C8.382,5.727,8.186,5.932,7.983,6.122c-0.375,0.352-0.579,0.76-0.519,1.279C7.451,7.407,7.437,7.414,7.423,7.424
			C7.405,7.444,7.389,7.466,7.378,7.49c-0.091,0.421,0.023,0.84,0.021,1.261c0.104,0.355,0.105,0.722,0.136,1.087
			c0.017,0.199-0.039,0.334-0.231,0.403c-0.245,0.087-0.343,0.285-0.375,0.521c-0.033,0.249-0.041,0.495,0.027,0.743
			c0.095,0.347,0.195,0.692,0.306,1.033c0.177,0.289,0.285,0.611,0.348,0.936c0.042,0.215,0.133,0.339,0.319,0.407
			c0.154,0.057,0.238,0.163,0.272,0.321c0.055,0.253,0.148,0.493,0.225,0.739c0.09,0.198,0.236,0.376,0.238,0.609
			c0.002,0.024,0.007,0.048,0.017,0.07c0.426,0.681,0.653,1.395,0.374,2.196c-0.145,0.155-0.289-0.007-0.432-0.01
			c-0.145-0.003-0.267-0.017-0.302,0.163c-0.11,0.348-0.17,0.709-0.278,1.057c-0.061,0.19-0.156,0.329-0.336,0.42
			c-0.396,0.2-0.796,0.385-1.222,0.505c-0.284,0.202-0.626,0.264-0.943,0.382c-0.617,0.228-1.264,0.357-1.898,0.529
			c-0.777,0.209-1.53,0.469-2.181,0.968c-0.331,0.407-0.766,0.739-0.928,1.272c0,0.226,0.013,0.453-0.004,0.68
			C0.517,23.959,0.566,24,0.743,24c7.667-0.006,15.334-0.005,23-0.005C23.856,23.901,23.827,23.797,23.782,23.678z"/>
	</g>
</g>
</svg>
